<svg width="339" height="199" viewBox="0 0 339 199" fill="none" xmlns="http://www.w3.org/2000/svg">
<g clip-path="url(#clip0)">
<path d="M91.71 26.6H90.49V0H91.55L98.37 23.72L105.15 0H106.24V26.6H105V5.07L98.83 26.6H97.9L91.71 5.07V26.6Z" fill="#231F20"/>
<path d="M132.3 1.25V12.7H140.6V13.92H132.3V25.38H140.6V26.6H131.08V0H140.6V1.25H132.3Z" fill="#231F20"/>
<path d="M175.09 14.53C175.705 15.1348 176.182 15.865 176.489 16.6709C176.797 17.4767 176.926 18.3394 176.87 19.2V26.57H175.65V19.2C175.715 17.8318 175.241 16.4925 174.33 15.47C173.837 15.0092 173.256 14.653 172.622 14.4227C171.988 14.1924 171.314 14.0929 170.64 14.13H167.09V26.57H165.9V6.04615e-06H170.64C171.498 -0.0735995 172.361 0.0413298 173.169 0.336731C173.978 0.632133 174.712 1.10085 175.32 1.71001C176.442 3.25459 176.98 5.14634 176.84 7.05001C176.972 8.93275 176.445 10.8027 175.35 12.34C174.911 12.8436 174.373 13.2519 173.77 13.54C174.263 13.7932 174.709 14.1279 175.09 14.53ZM170.64 12.88C171.326 12.9532 172.02 12.8718 172.671 12.6416C173.322 12.4115 173.912 12.0385 174.4 11.55C175.271 10.2188 175.676 8.63599 175.55 7.05001C175.55 4.98001 175.19 3.49001 174.43 2.60001C173.938 2.10849 173.342 1.73243 172.687 1.49897C172.031 1.26551 171.332 1.18048 170.64 1.25001H167.09V12.88H170.64Z" fill="#231F20"/>
<path d="M211.76 14.53C212.369 15.1387 212.841 15.8698 213.147 16.6748C213.452 17.4799 213.582 18.3406 213.53 19.2V26.57H212.25V19.2C212.333 17.8416 211.884 16.5043 211 15.47C210.507 15.0092 209.926 14.653 209.292 14.4227C208.658 14.1924 207.984 14.0928 207.31 14.13H203.75V26.57H202.5V-3.02158e-05H207.31C208.169 -0.0723934 209.033 0.0430797 209.843 0.338371C210.653 0.633662 211.389 1.10169 212 1.70997C213.078 3.27241 213.59 5.15667 213.45 7.04997C213.587 8.92739 213.076 10.795 212 12.34C211.571 12.8545 211.031 13.2649 210.42 13.54C210.915 13.7987 211.367 14.1326 211.76 14.53ZM207.31 12.88C207.996 12.9462 208.688 12.8614 209.337 12.6316C209.987 12.4018 210.578 12.0327 211.07 11.55C211.936 10.2167 212.341 8.63549 212.22 7.04997C212.354 5.47901 211.948 3.90929 211.07 2.59997C210.58 2.1137 209.99 1.7408 209.34 1.50755C208.69 1.2743 207.997 1.18637 207.31 1.24997H203.75V12.88H207.31Z" fill="#231F20"/>
<path d="M253.79 0L246.41 13.45V26.6H245.23V13.47L237.78 0H239.23L245.79 12L252.41 0H253.79Z" fill="#231F20"/>
<path d="M79.82 55.94C80.54 55.71 78.67 56.1 79.75 55.94C78.93 56.04 79.62 55.94 80.21 56.09C82.62 56.8 84.1 59.14 85.09 61.29C87.3 66.29 87.33 72.29 87.27 77.67C87.13 84.25 86.6 90.88 86.27 97.46C84.98 123.38 84.16 149.46 81.27 175.28C83.61 174.8 85.92 174.28 88.27 173.81C89.06 158.54 90.64 140.59 95.27 125.19C96.27 121.76 97.54 118.06 99.92 115.29C103.7 110.87 106.34 122.45 106.57 124.61C107.49 133.42 105.09 142.38 104.66 151.18C104.457 155.14 104.533 159.11 104.89 163.06C105.09 165.28 105.35 167.83 106.73 169.66C107.95 171.29 114.73 168.97 113.29 167.07C111.85 165.17 111.9 161.46 111.74 159.15C111.418 153.634 111.562 148.101 112.17 142.61C112.96 134.2 115.07 125.61 112.53 117.27C110.65 111.02 104.76 109.95 99.12 111.94C94.74 113.51 92.34 116.28 90.43 120.41C85.65 130.69 84.43 143.01 83.15 154.14C82.32 161.29 81.66 168.49 81.3 175.71C81.24 177.35 88.09 176.2 88.3 174.24C91.36 146.24 92.15 118.06 93.57 89.99C94.03 80.89 98.08 46.99 79.01 52.99C78.22 53.25 75.55 54.06 75.91 55.4C76.27 56.74 79.01 56.15 79.8 55.89L79.82 55.94Z" fill="white"/>
<path d="M117.87 102.22C117.05 102.22 117.05 101.73 117.7 102.55C118.35 103.37 118.86 105.49 119.12 106.82C121.3 117.87 119.58 130.13 118.39 141.16L125.39 139.65C125.92 133.822 126.924 128.046 128.39 122.38C129.388 118.204 130.974 114.191 133.1 110.46C133.893 109.012 135.008 107.767 136.36 106.82C137.18 106.33 135.53 106.74 136.62 106.82C137.55 106.88 138.7 108.61 139.32 109.28C141.07 111.13 142.78 110.8 143.9 109.81C144.1 109.6 147.2 105.88 145.9 105.23C143.698 104.096 141.242 103.548 138.767 103.639C136.292 103.73 133.882 104.457 131.77 105.75C127.35 108.38 124.95 113.09 123.21 117.75C120.491 125.401 118.859 133.396 118.36 141.5C118.26 142.87 125.18 141.88 125.36 140C126.58 128.52 128.29 116 126.05 104.5C125.69 102.5 124.87 99.14 122.33 99C120.562 98.8951 118.808 99.3652 117.33 100.34C116.25 101.11 116.41 102.1 117.83 102.18L117.87 102.22Z" fill="white"/>
<path d="M152 105.65C152 114.71 152.43 125.18 149.27 133.77C148.78 135.1 155.53 134.36 156.27 132.55C159.5 123.75 159.14 113.03 159.07 103.77C159.07 102.57 152.07 103.61 152.07 105.65H152Z" fill="white"/>
<path d="M187.71 114.51C190.51 110.51 192.26 105.25 190.94 100.51C188.99 93.51 181.45 92.56 175.72 94.8C169.65 97.14 166.56 102.8 165.67 108.95C165.203 112.685 165.806 116.475 167.41 119.88C169.03 123.46 172.16 126.01 174.33 129.17C183.03 141.66 185.4 159.98 181.88 174.68C178.62 188.32 168.3 195.47 154.47 193.33C143.23 191.6 134.47 184.39 132.17 173.24C129.87 162.09 133.75 149.52 145.34 145.32C152.62 142.7 163.17 143.87 167.05 150.59C170.15 155.87 168.5 162.94 165.37 167.77C163.86 170.12 160.99 172.46 157.99 172.44C154.24 172.44 150.99 170.17 148.9 167.34C147.68 165.72 141.46 168.67 141.9 169.23C151.1 181.7 169.97 174.79 174.68 161.66C178.8 150.06 170.43 141.78 159.68 139.96C148.93 138.14 136 142.3 129.5 151.39C121.72 162.23 123.07 179.28 132.3 188.73C140.96 197.59 154.83 200.08 166.23 197.25C172.183 195.595 177.613 192.441 182 188.09C187.1 183.09 189.45 175.41 190.5 168.54C192.67 153.98 188.78 136.37 179.5 124.79C177.03 121.67 174.66 119.12 173.38 115.25C172.185 111.286 172.265 107.046 173.61 103.13C174.132 101.616 174.852 100.177 175.75 98.85C176.222 98.1728 176.75 97.5372 177.33 96.95C178.22 96.09 178.98 96.37 177.53 96.23C181.53 96.62 183.99 101.29 184.38 104.81C184.78 108.57 182.96 112.81 180.79 115.81C180.13 116.81 183.39 116.36 183.59 116.32C184.84 116.09 186.88 115.66 187.71 114.51Z" fill="white"/>
<path d="M196.07 56.3C199.57 59.41 200.59 65.71 201.21 70C203.16 83.15 200.21 96.84 199.01 110C197.81 123.16 196.9 136.57 196.54 149.88C196.31 159.15 195.62 169.43 198.08 178.47C198.64 180.47 205.66 178.57 205.08 176.59C202.58 167.59 203.31 157.27 203.5 148C203.87 133.88 204.92 119.78 206.24 105.73C207.47 93 210 80.05 208.1 67.29C207.47 62.95 206.16 56.86 202.67 53.73C201.05 52.31 194.59 54.97 196.07 56.3Z" fill="white"/>
<path d="M220 157.27C218.71 144.72 217.95 131.56 219.83 119.06C220.129 116.128 221.014 113.285 222.43 110.7C223.03 109.77 222.63 110.21 222.89 110.21C224.21 110.21 225.3 112.01 225.83 113.03C228.1 117.41 228.36 122.96 228.66 127.79C228.99 135.25 228.89 142.722 228.36 150.17C228.17 153.55 235.22 152.33 235.41 149.5C235.87 143.83 236.67 138.18 237.65 132.6C238.415 128.174 239.45 123.799 240.75 119.5C241.75 116.5 242.99 112.17 245.56 110.03C245.69 109.92 246.38 109.6 245.99 109.7C245.86 109.7 247.5 110.28 247.93 110.54C249.88 111.68 250.44 114.38 250.83 116.37C252.12 123.07 250.37 130.59 249.15 137.18C246.78 149.88 243.98 163.96 250.15 176.08C251.57 178.88 258.45 176.73 257.15 174.21C249.96 160.05 255.23 144.09 257.41 129.4C258.3 123.4 259.41 115.83 256.41 110.23C253.98 105.58 248.28 104.07 243.5 105.85C235.23 108.91 232.99 121.38 231.38 128.85C229.892 135.885 228.867 143.011 228.31 150.18C230.65 149.95 233.02 149.72 235.36 149.51C235.86 141.65 235.95 133.769 235.63 125.9C235.36 120.35 234.77 114.42 231.9 109.51C229.7 105.69 225.28 105.07 221.29 106.01C217.9 106.79 215.69 109.65 214.48 112.73C211.12 121.32 211.58 131.64 211.81 140.73C211.94 146.89 212.3 153.07 212.93 159.2C213.23 162.06 220.28 160.42 219.93 157.32L220 157.27Z" fill="white"/>
<path d="M268.85 119.88C270.85 113.74 279.19 103.88 284.76 112.32C287.62 116.7 287.33 123.18 287.16 128.15C286.87 136.15 285.55 144.15 284.26 152.02C284.17 152.64 290.89 152.08 291.26 150.42C292.38 145.05 292.84 139.22 291.62 133.83C289.51 124.69 279.79 125 272.78 128.53C265.1 132.38 261.78 141.36 260.62 149.38C259.57 156.86 260.75 167.65 269.12 170.46C270.63 170.769 272.199 170.591 273.6 169.95C273.73 169.95 276.83 168.5 275.78 168.14C269.09 165.9 267.41 158.41 267.34 152.14C267.24 144.73 269.65 136.14 275.02 130.73C280.16 125.57 284.27 132.87 285.02 138.19C285.464 142.719 285.232 147.289 284.33 151.75L291.33 150.15C292.82 140.84 294.33 131.42 294.23 121.96C294.17 116.5 293.35 108.74 287.23 106.79C281.23 104.92 273.55 107.79 268.81 111.39C265.641 113.947 263.265 117.353 261.96 121.21C261.6 122.28 268.32 121.57 268.88 119.89L268.85 119.88Z" fill="white"/>
<path d="M313.75 99.52C312.85 103.365 312.93 107.374 313.98 111.18C315.76 117.18 321.98 119.93 327.81 118.63C339.64 116 341 98.81 335.65 90C331.04 82.44 318.65 82.86 312.07 85.69C298.99 91.34 297.74 104.69 299.95 117.27C301.195 124.208 303.541 130.903 306.9 137.1C309.37 141.68 312.46 145.85 315.03 150.38C320.27 159.69 320.5 172.2 310.22 177.99C301.39 182.99 289.17 180.72 287.13 169.65C286.916 168.74 286.899 167.794 287.082 166.877C287.265 165.959 287.643 165.092 288.19 164.334C288.737 163.575 289.441 162.943 290.253 162.48C291.066 162.017 291.969 161.734 292.9 161.65C297.54 161.15 301 164.45 301.82 168.81C302.45 172.07 309.14 170.33 308.51 167.02C306.43 155.95 291.51 153.26 283.93 160.53C279.62 164.64 279.45 170.66 281.8 175.89C284.15 181.12 289.04 183.34 294.54 184.56C305.87 187.09 319.78 181.41 324.19 170.49C328.9 158.73 321.26 147.63 315.33 138.11C311.85 132.502 309.25 126.395 307.62 120C305.84 113.15 304.69 105.54 307.06 98.7C308.455 94.89 311.182 91.7138 314.737 89.758C318.292 87.8022 322.435 87.1991 326.4 88.06C335.92 89.93 333.48 104.99 329.69 110.9C326.69 115.65 321.95 113.69 320.5 108.76C319.698 105.573 319.722 102.235 320.57 99.06C321.32 95.65 314.44 96.41 313.75 99.52Z" fill="white"/>
<path d="M151 97.71C151 97.71 147.31 91.85 151 89.57C154.69 87.29 159.3 84.99 159.83 89.57C160.36 94.15 161 100.25 151 97.71Z" fill="white"/>
<path d="M110 86.71C112.733 82.3554 116.372 78.6411 120.67 75.82C132.67 67.9 146.67 66.7 160.3 69.31C179.77 73 197.36 83 215.74 90C232 96.18 250.07 101.32 267 96.23C281.79 91.78 300 79.23 299 60.96C298.41 48.89 288.3 36.86 276.5 34.74C263.59 32.4 247.81 43.42 245.64 56.43C243.13 71.14 264.02 76.33 273.27 68.23C276.07 65.79 279.4 59.5 275.68 56.43C274.16 55.15 268 57.43 268.93 58.19C272.62 61.24 268.14 68.19 264.87 69.56C262.17 70.73 257.46 67.02 255.68 65.24C253.21 62.82 252.42 59.35 252.68 55.97C253.18 48.15 259.9 43.17 266.42 39.97C272.25 37.05 278.05 39.11 282.42 43.11C293.55 53.25 295.53 70.31 283.74 80.72C276.03 87.54 264.6 91.72 254.55 93.19C245.82 94.49 236.93 92 228.55 89.43C213.2 84.71 199.03 75.43 183.91 69.91C169.05 64.5401 153.54 62.29 137.76 64.51C124.65 66.35 108.93 74.51 101.56 86.39C100.93 87.44 108.14 88.39 109.2 86.68L110 86.71Z" fill="white"/>
<path d="M51.85 81C42.1 87.25 35.31 99.21 36.43 110.85C37.52 122.3 48.62 129.94 59.36 124.85C66.48 121.51 71 114 73.66 107C77.1419 97.8034 78.1084 87.8446 76.46 78.15C73.92 63.71 61.4 52.48 46.35 57.77C34 62.13 21.71 75.94 15.81 86.81C6.88 103.23 1.87 121.78 0.230003 140.4C-0.889997 153.32 2.01 167.4 11.23 177.4C17.95 184.75 28.75 187.81 38.47 186.97C63.08 184.83 74.68 160.29 75.93 138.36C76.13 135.24 66.7 136.57 66.57 139.14C65.78 153.02 62.65 166.81 51.57 176.14C44.4 182.2 35.9 184.5 27.26 180.8C17.31 176.57 11.81 166.8 10.46 156.4C8 137.7 13.11 117.64 20 100.38C23.2813 92.1259 27.4562 84.2557 32.45 76.91C36.07 71.52 40.39 66.15 45.92 62.59C51.26 59.13 57.25 60.81 61.57 65.06C67.46 70.9 69.38 80.12 69.44 88.12C69.54 95.81 62.56 131.82 48.75 119.88C37.75 110.29 45.1 92.93 54.19 84.98C54.8471 84.3824 55.5529 83.8405 56.3 83.36C57.3 82.71 58.3 81.17 56.82 80.36C55.34 79.55 53.2 80.1 51.82 80.97L51.85 81Z" fill="white"/>
</g>
<defs>
<clipPath id="clip0">
<rect width="338.66" height="198.36" fill="white"/>
</clipPath>
</defs>
</svg>
