<svg width="148" height="148" viewBox="0 0 148 148" fill="none" xmlns="http://www.w3.org/2000/svg">
<g filter="url(#filter0_d)">
<path d="M144 0H4V140H144V0Z" fill="white"/>
<path d="M102.168 46.7879C102.418 46.7859 102.665 46.8414 102.891 46.9502C103.116 47.059 103.313 47.2182 103.467 47.4154C103.745 47.7643 103.898 48.1962 103.902 48.6423C103.899 49.0801 103.745 49.5034 103.467 49.8413C103.311 50.0291 103.11 50.1742 102.883 50.263C102.656 50.3518 102.41 50.3813 102.168 50.3489L92.2164 49.9132C91.9667 49.9151 91.7199 49.86 91.4948 49.7519C91.2697 49.6439 91.0722 49.4858 90.9175 49.2898C90.6409 48.9404 90.4889 48.5085 90.4859 48.0628C90.4893 47.6257 90.6415 47.2028 90.9175 46.8638C91.0737 46.6768 91.2748 46.5325 91.502 46.4444C91.7292 46.3563 91.975 46.3274 92.2164 46.3603H92.9358C92.8079 44.0236 92.7919 41.683 92.8879 39.3383C92.9838 36.9936 93.153 34.6716 93.3954 32.3723C93.6352 30.0622 93.923 27.7536 94.2587 25.4462C94.5944 23.1388 94.9394 20.8315 95.2938 18.5241C95.3258 18.3962 95.3737 18.2324 95.4377 18.0406C94.3657 18.7233 93.2585 19.349 92.1205 19.9149C91.9036 20.0406 91.6608 20.1149 91.4107 20.1322C91.1606 20.1495 90.9099 20.1094 90.6777 20.0149C90.255 19.844 89.8998 19.5394 89.6666 19.1476C89.4441 18.771 89.3593 18.3288 89.4268 17.8967C89.4699 17.6617 89.5717 17.4415 89.7226 17.2564C89.8735 17.0712 90.0687 16.9272 90.2901 16.8376C92.6182 15.7159 94.7994 14.3118 96.7845 12.6572C97.1459 12.3622 97.5933 12.1925 98.0594 12.1736C98.2982 12.1551 98.538 12.1936 98.759 12.2861C98.98 12.3785 99.1758 12.5221 99.3303 12.7051C99.6585 13.0467 99.9201 13.4466 100.102 13.8841C100.263 14.2915 100.368 14.7191 100.413 15.155C100.462 15.6104 100.486 16.068 100.485 16.5258C100.485 16.9934 100.533 26.1176 100.533 27.7562C100.533 34.0708 100.437 40.3694 100.246 46.652L102.168 46.7879ZM96.8804 33.4673C96.6566 35.6495 96.5048 37.8223 96.4248 39.9857C96.3449 42.1492 96.3689 44.3367 96.4968 46.5481H96.6406C96.7685 42.1892 96.8644 37.8129 96.9284 33.4194L96.8804 33.4673ZM96.6886 17.1853H96.9764V17.0254L96.6886 17.1853Z" fill="#303030"/>
<path d="M120.7 11.4942C121.813 11.8517 122.851 12.4082 123.765 13.1368C124.628 13.8336 125.378 14.66 125.987 15.5867C126.612 16.5509 127.118 17.5868 127.494 18.672C127.886 19.8034 128.191 20.9631 128.405 22.1411C129.341 24.492 129.939 26.9639 130.18 29.4828C130.432 31.9583 130.432 34.4529 130.18 36.9284C130.027 38.2715 129.802 39.6055 129.508 40.925C129.209 42.3026 128.759 43.6429 128.166 44.9216C127.582 46.1724 126.817 47.3304 125.896 48.3586C124.983 49.3778 123.852 50.1771 122.586 50.6966C121.302 51.2584 119.9 51.4984 118.502 51.396C117.162 51.296 115.855 50.9305 114.657 50.3209C113.432 49.6956 112.315 48.8779 111.348 47.899C110.366 46.9265 109.55 45.8008 108.93 44.5659C108.036 42.7439 107.394 40.8093 107.02 38.8148C106.566 36.5399 106.351 34.2241 106.376 31.9047C106.398 29.5087 106.663 27.1211 107.168 24.7788C107.633 22.5091 108.422 20.318 109.51 18.2724C110.511 16.3642 111.88 14.6732 113.538 13.2967C115.216 11.933 117.233 11.0503 119.373 10.7428C119.512 10.7042 119.657 10.6939 119.8 10.7124C119.943 10.731 120.08 10.778 120.204 10.8507C120.43 10.9863 120.624 11.169 120.772 11.3863L120.7 11.4942ZM121.499 47.0357C122.611 46.2018 123.484 45.0893 124.029 43.8105C124.651 42.4017 125.111 40.9269 125.4 39.4143C125.702 37.8425 125.9 36.2523 125.991 34.6543C126.079 33.0557 126.159 31.6489 126.231 30.434C126.303 29.3949 126.321 28.2478 126.283 26.9929C126.249 25.7157 126.142 24.4414 125.963 23.1762C125.598 22.2499 125.175 21.3475 124.697 20.4745C124.151 19.5355 123.478 18.6762 122.698 17.9207C122.006 17.2062 121.16 16.6593 120.224 16.3221C119.402 16.0356 118.502 16.0641 117.699 16.402C116.875 16.7457 116.156 17.561 115.548 18.8479C114.97 20.0068 114.518 21.2249 114.202 22.4808C113.886 23.7767 113.653 25.0916 113.506 26.4174C113.342 27.7603 113.238 29.0951 113.182 30.414C113.126 31.7329 113.102 33.0317 113.102 34.2867C113.102 35.0007 113.138 35.9333 113.21 37.0843C113.288 38.2915 113.44 39.4928 113.666 40.6812C113.893 41.9013 114.209 43.1034 114.609 44.2781C114.927 45.2893 115.438 46.2297 116.112 47.0477C116.678 47.7159 117.476 48.1444 118.346 48.2467C119.221 48.3546 120.272 47.9789 121.491 47.1197L121.499 47.0357Z" fill="#303030"/>
<path d="M66.1667 99.9902C64.1005 100.29 62.0742 100.666 60.028 101.033C56.539 101.657 53.2338 102.72 49.6728 101.945C45.3864 100.999 41.0198 100.464 36.632 100.346C31.6683 100.282 23.1835 100.066 19.9863 95.3582C18.4196 93.0442 18.7074 88.0405 18.5555 85.2109C18.3557 81.5181 18.4596 77.7653 19.4148 74.1724C21.1972 67.4341 26.6925 61.0916 31.8601 56.5874C39.8533 49.6254 50.0605 46.7878 60.5435 46.7878C74.7194 46.7878 85.7939 52.0953 95.4376 62.3745C101.904 69.2646 109.905 77.1618 111.7 86.8415C109.022 84.3596 103.707 87.1053 102.819 90.2786C99.8898 84.6394 95.9212 80.0793 88.9672 80.3311C83.9874 80.499 83.0562 84.7913 83.0003 88.9437C82.9163 95.1384 84.0873 97.3365 76.6058 98.1039C73.0808 98.4596 69.9435 99.4667 66.4185 99.9703L66.1667 99.9902Z" fill="#D9603E"/>
<path d="M98.6709 93.8715C99.2024 84.5955 110.661 76.4265 119.321 77.6974C126.875 78.8005 133.949 83.7802 135.603 91.5335C137.43 100.09 135.887 107.34 127.434 111.401C119.549 115.189 111.132 114.678 104.762 108.203C101.664 105.046 99.0985 100.046 98.6989 95.5861C98.647 95.016 98.6377 94.443 98.6709 93.8715Z" fill="#C6D9DE"/>
<path d="M100.745 89.0678C101.145 81.842 110.085 75.4794 116.831 76.4706C122.714 77.3298 128.222 81.2105 129.512 87.2613C130.931 93.9236 129.732 99.5748 123.15 102.736C117.007 105.686 110.453 105.29 105.493 100.238C103.095 97.7763 101.097 93.8796 100.769 90.4106C100.726 89.9643 100.718 89.5153 100.745 89.0678Z" fill="white"/>
<path d="M33.7944 127.643C22.7999 123.598 4.46357 111.321 15.0105 97.6682C18.8712 92.6645 22.2883 97.0767 25.7653 99.8903C30.8769 104.031 37.0237 103.18 43.3502 103.487C51.6351 103.887 59.6243 105.402 67.9332 102.84C72.0337 101.569 74.3517 99.5986 78.0445 97.8601C81.3057 96.3294 85.3223 96.1375 87.8401 99.119C93.5552 105.893 90.35 115.481 83.9714 120.133C75.4747 126.324 67.0219 129.149 56.475 129.793C48.5498 130.288 41.0562 130.312 33.7944 127.643Z" fill="#C6D9DE"/>
<path d="M34.8376 121.632C27.8116 119.302 18.4516 115.717 15.1505 108.367C13.296 104.247 14.8787 96.9848 20.1342 96.5692C23.4673 96.3094 27.8556 98.7113 31.3246 99.131C35.6489 99.6545 40.0211 99.6425 44.3694 99.8384C52.6543 100.206 60.6475 101.561 68.9523 99.2509C75.179 97.5164 82.4368 93.296 86.7811 100.45C97.1402 117.483 68.5687 122.979 57.4942 123.586C49.5929 124.01 42.0994 124.046 34.8376 121.632Z" fill="white"/>
<path d="M68.149 89.2594C67.2378 89.2594 66.978 90.3585 66.8661 91.0698C66.7262 91.9531 66.5824 92.7964 66.946 93.6396C67.2418 94.3191 68.3488 94.2711 68.6606 93.6396C69.1082 92.7204 69.9834 89.2594 68.149 89.2594Z" fill="#BE3920"/>
<path d="M73.9081 77.6573C72.6172 77.7573 71.9817 79.3159 72.2016 80.455C72.2309 80.553 72.2911 80.6389 72.3732 80.7C72.4552 80.7611 72.5548 80.7941 72.6572 80.7941C72.7595 80.7941 72.8591 80.7611 72.9412 80.7C73.0232 80.6389 73.0834 80.553 73.1128 80.455C73.1889 80.1501 73.3031 79.8561 73.4525 79.5797C73.6643 79.18 74.06 79.0482 74.3557 78.7524C74.4461 78.6634 74.5079 78.5496 74.5334 78.4254C74.5589 78.3012 74.5469 78.1722 74.4989 78.0549C74.451 77.9375 74.3692 77.837 74.264 77.7662C74.1588 77.6955 74.0349 77.6576 73.9081 77.6573Z" fill="#BE3920"/>
<path d="M78.8118 85.7106C78.7677 85.5514 78.6634 85.4156 78.5209 85.332C78.3784 85.2485 78.209 85.2237 78.0485 85.2629C76.5458 85.5507 75.8064 88.0366 75.9663 89.3395C76.0742 90.2187 77.453 90.5944 77.6449 89.5553C77.7515 88.8967 77.9534 88.2572 78.2443 87.6569C78.5721 87.0254 78.9717 86.4539 78.8118 85.7106Z" fill="#BE3920"/>
<path d="M85.2983 75.8749C84.9666 75.1596 83.9914 75.3674 83.5118 75.779C83.3448 75.9281 83.209 76.1087 83.1122 76.3106C83.0163 76.4984 82.9563 76.7981 82.8004 76.918C82.4887 77.1578 82.8244 77.7173 83.2001 77.5855C83.4175 77.5433 83.6312 77.4845 83.8396 77.4096C84.0314 77.2977 84.2112 77.1738 84.3991 77.0619C84.5869 76.95 84.8387 76.8861 85.0345 76.7902C85.1853 76.6985 85.296 76.5535 85.3449 76.384C85.3938 76.2145 85.3771 76.0328 85.2983 75.8749Z" fill="#BE3920"/>
<path d="M93.9989 75.855C93.7511 75.3075 93.1476 75.1277 92.616 74.9598C92.3714 74.8468 92.0984 74.8099 91.8325 74.8541C91.5667 74.8983 91.3202 75.0215 91.1253 75.2076C91.0694 75.2648 91.0338 75.3387 91.0237 75.418C91.0136 75.4974 91.0296 75.5778 91.0694 75.6472C91.5809 76.3866 92.8958 77.1499 93.7671 76.6903C93.9065 76.6084 94.0086 76.4754 94.0519 76.3196C94.0951 76.1637 94.0761 75.9972 93.9989 75.855Z" fill="#BE3920"/>
<path d="M83.0642 71.1671C82.8542 71.1817 82.6576 71.2754 82.514 71.4293C82.3704 71.5832 82.2905 71.7859 82.2905 71.9964C82.2905 72.2069 82.3704 72.4095 82.514 72.5635C82.6576 72.7174 82.8542 72.8111 83.0642 72.8257C83.7356 72.9016 85.3902 73.0815 85.3902 71.9984C85.3902 70.9153 83.7356 71.0912 83.0642 71.1671Z" fill="#BE3920"/>
<path d="M77.8007 79.468C77.7141 79.415 77.6145 79.387 77.513 79.387C77.4115 79.387 77.3119 79.415 77.2252 79.468C76.6098 79.8676 76.6457 80.555 76.8775 81.1825C76.9174 81.3208 77.0012 81.4423 77.1161 81.5288C77.2311 81.6153 77.3711 81.6621 77.515 81.6621C77.6589 81.6621 77.7989 81.6153 77.9139 81.5288C78.0288 81.4423 78.1126 81.3208 78.1524 81.1825C78.3842 80.555 78.4162 79.8836 77.8007 79.468Z" fill="#BE3920"/>
<path d="M63.8048 83.5284C63.0055 83.3126 62.7137 84.3597 62.5259 84.9112C62.2901 85.5866 62.0143 86.1821 62.0783 86.9095C62.0806 87.1011 62.145 87.2868 62.2617 87.4388C62.3784 87.5908 62.5412 87.701 62.7257 87.7527C62.8367 87.7816 62.9523 87.7882 63.0659 87.7722C63.1795 87.7563 63.2888 87.7181 63.3875 87.6598C63.4863 87.6015 63.5726 87.5243 63.6415 87.4325C63.7103 87.3408 63.7604 87.2364 63.7888 87.1253C63.9486 86.2261 65.3475 83.928 63.8048 83.5284Z" fill="#BE3920"/>
<path d="M72.3095 72.338C71.5102 71.6346 70.0714 72.4459 70.475 73.497C70.5026 73.5747 70.5502 73.6438 70.6131 73.6971C70.6759 73.7505 70.7518 73.7863 70.8329 73.8009C70.9141 73.8156 70.9977 73.8084 71.0752 73.7803C71.1527 73.7522 71.2214 73.7041 71.2744 73.6408L71.3423 73.6049C71.4048 73.5473 71.4731 73.4964 71.5461 73.453C71.8238 73.3676 72.0791 73.2215 72.2935 73.0254C72.3864 72.9362 72.4403 72.8138 72.4433 72.685C72.4463 72.5562 72.3982 72.4314 72.3095 72.338Z" fill="#BE3920"/>
<path d="M79.2475 70.9153C78.8559 70.9897 78.47 71.0912 78.0925 71.219C77.9979 71.245 77.9145 71.3013 77.8551 71.3793C77.7956 71.4572 77.7634 71.5526 77.7634 71.6506C77.7634 71.7487 77.7956 71.844 77.8551 71.922C77.9145 72 77.9979 72.0563 78.0925 72.0823C78.692 72.1742 79.5073 72.1622 79.6272 71.4029C79.6402 71.3452 79.6403 71.2854 79.6274 71.2277C79.6145 71.17 79.589 71.1159 79.5527 71.0693C79.5163 71.0226 79.4701 70.9846 79.4174 70.958C79.3646 70.9314 79.3066 70.9168 79.2475 70.9153Z" fill="#BE3920"/>
<path d="M69.5439 84.104C69.1905 84.2556 68.8508 84.4374 68.5287 84.6475C68.4239 84.7071 68.3392 84.7965 68.2854 84.9044C68.2316 85.0123 68.2111 85.1337 68.2266 85.2533C68.242 85.3729 68.2926 85.4851 68.3721 85.5758C68.4515 85.6665 68.5561 85.7315 68.6726 85.7625C69.1004 85.8266 69.5376 85.7655 69.9315 85.5867C70.8907 85.2989 70.507 83.8202 69.5439 84.104Z" fill="#BE3920"/>
<path d="M72.7411 92.117C72.1576 92.8004 72.1856 93.6837 72.2095 94.5389C72.2498 94.7155 72.3488 94.8732 72.4904 94.9862C72.632 95.0991 72.8077 95.1606 72.9889 95.1606C73.17 95.1606 73.3457 95.0991 73.4873 94.9862C73.6289 94.8732 73.728 94.7155 73.7682 94.5389C73.7682 93.8915 73.968 93.272 73.988 92.6326C73.9855 92.4892 73.9412 92.3497 73.8605 92.2312C73.7798 92.1127 73.6662 92.0204 73.5337 91.9656C73.4012 91.9108 73.2556 91.8959 73.1148 91.9228C72.974 91.9497 72.8441 92.0172 72.7411 92.117Z" fill="#BE3920"/>
<path d="M81.7934 89.5632C81.7605 89.4401 81.6803 89.3349 81.5703 89.2705C81.4603 89.2062 81.3293 89.1878 81.2059 89.2195C79.815 89.5992 79.7671 91.2898 79.7991 92.4608C79.8137 92.6728 79.9083 92.8714 80.0637 93.0165C80.2191 93.1615 80.4238 93.2422 80.6363 93.2422C80.8489 93.2422 81.0536 93.1615 81.209 93.0165C81.3644 92.8714 81.459 92.6728 81.4736 92.4608C81.4714 91.9907 81.5197 91.5217 81.6175 91.062C81.7753 90.5791 81.8351 90.0695 81.7934 89.5632Z" fill="#BE3920"/>
<path d="M98.8707 80.2832C98.4271 80.0234 97.9875 79.7676 97.5598 79.4839C97.4531 79.4264 97.3307 79.4049 97.2108 79.4225C97.0909 79.4401 96.9798 79.4959 96.8941 79.5816C96.8084 79.6673 96.7527 79.7783 96.7351 79.8982C96.7175 80.0181 96.739 80.1405 96.7965 80.2472C97.1256 80.7928 97.5858 81.2475 98.1353 81.5701C98.3045 81.65 98.4976 81.6631 98.6761 81.6068C98.8545 81.5506 99.0052 81.4291 99.098 81.2667C99.1909 81.1042 99.219 80.9127 99.1769 80.7304C99.1347 80.5481 99.0254 80.3884 98.8707 80.2832Z" fill="#BE3920"/>
<path d="M88.9592 69.2926C88.7938 69.2926 88.6352 69.3583 88.5183 69.4752C88.4014 69.5921 88.3357 69.7507 88.3357 69.9161C88.3357 70.0814 88.4014 70.24 88.5183 70.3569C88.6352 70.4738 88.7938 70.5395 88.9592 70.5395C89.4907 70.6035 90.5018 70.7474 90.5018 69.9161C90.5018 69.0848 89.4907 69.2287 88.9592 69.2926Z" fill="#BE3920"/>
<path d="M60.1958 93.8276C60.1151 93.7464 60.0098 93.6942 59.8963 93.679C59.7829 93.6638 59.6676 93.6866 59.5683 93.7437C59.2877 93.9715 59.0565 94.2541 58.8888 94.5743C58.7211 94.8946 58.6205 95.2456 58.5932 95.6061C58.5869 95.7178 58.6055 95.8296 58.6476 95.9332C58.6898 96.0369 58.7545 96.1299 58.837 96.2055C59.0848 96.6651 59.8481 96.869 60.0999 96.2815C60.6874 95.734 60.7513 94.3192 60.1958 93.8276Z" fill="#BE3920"/>
<path d="M61.5907 75.0557C61.0482 75.6426 60.7322 76.4034 60.6994 77.2019C60.6794 78.3209 62.346 78.2969 62.4219 77.2019C62.4539 76.7343 62.8216 76.2827 62.9575 75.8391C63.2093 75.0917 62.1022 74.4283 61.5907 75.0557Z" fill="#BE3920"/>
<path d="M81.6894 64.3448C81.2809 64.2728 80.8621 64.285 80.4585 64.3807C79.7751 64.4687 79.7751 65.6436 80.4585 65.7356C80.8623 65.8299 81.2812 65.8408 81.6894 65.7675C81.8443 65.7237 81.9806 65.6305 82.0777 65.5021C82.1748 65.3737 82.2273 65.2171 82.2273 65.0562C82.2273 64.8952 82.1748 64.7386 82.0777 64.6102C81.9806 64.4818 81.8443 64.3886 81.6894 64.3448Z" fill="#BE3920"/>
<path d="M81.4337 79.396C81.0781 79.5111 80.7492 79.6963 80.4664 79.9407C80.1835 80.1851 79.9526 80.4836 79.7871 80.8188C79.6161 81.1582 79.5194 81.5301 79.5033 81.9098C79.4706 82.1446 79.5082 82.3838 79.6113 82.5972C79.7144 82.8106 79.8785 82.9886 80.0828 83.1088C80.1436 83.1439 80.2125 83.1623 80.2826 83.1623C80.3528 83.1623 80.4217 83.1439 80.4825 83.1088C80.978 82.841 81.1259 82.3854 81.3098 81.8778C81.3606 81.7381 81.4395 81.6103 81.5416 81.5022C81.6464 81.5243 81.755 81.5206 81.8581 81.4914C81.9611 81.4621 82.0555 81.4082 82.1331 81.3343C82.1632 81.301 82.19 81.2649 82.213 81.2264C82.4142 81.0579 82.5476 80.8222 82.5887 80.563C82.7325 79.9315 82.161 79.1322 81.4337 79.396Z" fill="#BE3920"/>
<path d="M90.5418 77.1099C89.3428 77.038 87.8002 77.1579 87.3046 78.4288C87.0768 79.0123 87.972 79.5039 88.3677 79.0363C88.7633 78.5687 89.9663 78.7125 90.5418 78.6766C90.7225 78.6399 90.8849 78.5419 91.0016 78.3991C91.1183 78.2563 91.1821 78.0776 91.1821 77.8933C91.1821 77.7089 91.1183 77.5302 91.0016 77.3874C90.8849 77.2446 90.7225 77.1466 90.5418 77.1099Z" fill="#BE3920"/>
<path d="M99.5621 75.5033C99.1624 74.8478 98.4111 74.9198 97.7676 75.0197C96.9683 75.1396 96.9683 76.4864 97.7676 76.6183C98.4111 76.7142 99.1824 76.7901 99.5621 76.1347C99.6175 76.0387 99.6467 75.9298 99.6467 75.819C99.6467 75.7081 99.6175 75.5993 99.5621 75.5033Z" fill="#BE3920"/>
<path d="M115.105 99.4628C114.837 99.319 114.705 99.1431 114.369 99.1391H113.69C113.301 99.1357 112.913 99.1584 112.527 99.2071C112.3 99.2222 112.088 99.3229 111.933 99.4888C111.778 99.6546 111.692 99.8732 111.692 100.1C111.692 100.327 111.778 100.546 111.933 100.712C112.088 100.878 112.3 100.978 112.527 100.994C112.913 101.042 113.301 101.065 113.69 101.061H114.369C114.705 101.061 114.837 100.882 115.105 100.734C115.219 100.672 115.314 100.58 115.381 100.468C115.447 100.356 115.482 100.228 115.482 100.098C115.482 99.9682 115.447 99.8405 115.381 99.7287C115.314 99.6168 115.219 99.525 115.105 99.4628Z" fill="#C6D9DE"/>
<path d="M122.359 96.2735C122.135 96.229 121.904 96.249 121.692 96.3311C121.479 96.4131 121.295 96.554 121.16 96.7371C120.927 96.9855 120.707 97.2456 120.5 97.5164C120.568 97.4325 120.32 97.7243 120.348 97.6923L120.216 97.8362C119.241 98.08 119.521 99.6226 120.52 99.6346C120.821 99.6445 121.121 99.5834 121.394 99.4564C121.668 99.3294 121.908 99.1399 122.095 98.9033C122.55 98.3557 123.062 97.6004 122.954 96.873C122.921 96.7274 122.847 96.5941 122.742 96.4881C122.637 96.3822 122.504 96.3078 122.359 96.2735Z" fill="#C6D9DE"/>
<path d="M119.041 90.7222C118.868 90.7236 118.696 90.741 118.526 90.7741C117.527 90.918 117.527 92.6166 118.526 92.7724C118.696 92.8055 118.868 92.8229 119.041 92.8244C119.32 92.8244 119.587 92.7136 119.785 92.5165C119.982 92.3194 120.092 92.052 120.092 91.7733C120.092 91.4945 119.982 91.2272 119.785 91.03C119.587 90.8329 119.32 90.7222 119.041 90.7222Z" fill="#C6D9DE"/>
<path d="M128.182 93.5557C128.127 93.4578 128.053 93.3718 127.965 93.3026C127.876 93.2334 127.775 93.1825 127.667 93.1527C127.559 93.123 127.446 93.115 127.334 93.1293C127.223 93.1436 127.116 93.1799 127.019 93.236C126.751 93.422 126.53 93.6682 126.375 93.9549C126.219 94.2415 126.133 94.5606 126.123 94.8866C126.123 95.9936 127.814 96.2374 128.062 95.1344C128.194 94.5429 128.457 94.1712 128.182 93.5557Z" fill="#C6D9DE"/>
<path d="M128.293 86.426C128.269 86.382 128.245 86.338 128.218 86.2941C128.138 86.159 128.024 86.0472 127.888 85.9694C127.751 85.8917 127.597 85.8508 127.44 85.8508C127.283 85.8508 127.129 85.8917 126.993 85.9694C126.856 86.0472 126.743 86.159 126.663 86.2941L126.583 86.426C126.498 86.5755 126.454 86.7447 126.455 86.9166C126.456 87.0886 126.502 87.2572 126.589 87.4058C126.675 87.5543 126.799 87.6776 126.948 87.7633C127.097 87.8489 127.266 87.894 127.438 87.894C127.61 87.894 127.779 87.8489 127.928 87.7633C128.077 87.6776 128.201 87.5543 128.288 87.4058C128.374 87.2572 128.42 87.0886 128.421 86.9166C128.422 86.7447 128.378 86.5755 128.293 86.426Z" fill="#C6D9DE"/>
<path d="M37.1715 118.422C36.9038 118.175 36.4482 118.023 36.2483 117.723C36.1423 117.535 35.9662 117.398 35.7585 117.34C35.5509 117.282 35.3289 117.309 35.1413 117.415C34.9537 117.521 34.8158 117.697 34.7581 117.905C34.7004 118.113 34.7276 118.335 34.8335 118.522C35.0761 118.959 35.4297 119.323 35.8586 119.579C36.2874 119.834 36.7763 119.972 37.2755 119.977C37.3389 119.979 37.402 119.967 37.4609 119.944C37.5199 119.92 37.5734 119.885 37.6182 119.84C37.6631 119.795 37.6984 119.742 37.7219 119.683C37.7454 119.624 37.7567 119.561 37.755 119.497C37.7108 119.076 37.5009 118.689 37.1715 118.422Z" fill="#C6D9DE"/>
<path d="M47.6785 119.222C47.3534 119.263 47.0407 119.373 46.7616 119.544C46.4824 119.716 46.2432 119.945 46.0599 120.217C45.6882 120.808 46.4156 121.416 46.9791 121.14C47.4101 120.984 47.8295 120.797 48.2341 120.581C48.3851 120.489 48.4983 120.346 48.5536 120.178C48.6088 120.01 48.6024 119.828 48.5355 119.664C48.4686 119.501 48.3456 119.366 48.1886 119.285C48.0315 119.204 47.8507 119.182 47.6785 119.222Z" fill="#C6D9DE"/>
<path d="M49.8287 115.369C49.5889 114.945 49.0294 114.874 48.5978 114.83C48.3666 114.83 48.1382 114.88 47.9274 114.975C47.7167 115.07 47.5284 115.208 47.3748 115.381C46.4916 116.216 47.8024 117.499 48.6977 116.704C48.6457 116.724 48.6697 116.704 48.7456 116.672L48.9575 116.584C49.1173 116.492 49.3012 116.44 49.473 116.348C49.5626 116.31 49.6434 116.253 49.7104 116.182C49.7773 116.111 49.829 116.027 49.8624 115.936C49.8957 115.844 49.9099 115.746 49.9041 115.649C49.8983 115.551 49.8727 115.456 49.8287 115.369Z" fill="#C6D9DE"/>
<path d="M60.6714 116.508C59.5364 116.64 57.6859 117.415 57.7939 118.818C57.8818 119.905 59.4524 120.209 59.7442 119.07C59.7042 119.23 59.6203 119.262 59.7682 119.114L59.8281 119.074C59.934 119.012 60.0434 118.956 60.1558 118.906C60.5919 118.735 61.0053 118.511 61.3868 118.239C62.0382 117.695 61.5506 116.408 60.6714 116.508Z" fill="#C6D9DE"/>
<path d="M67.5216 112.344C66.8781 111.225 65.4154 111.488 64.4482 111.896C63.8527 112.144 63.7128 112.995 64.0046 113.495C64.1624 113.761 64.4169 113.955 64.7148 114.038C65.0126 114.12 65.3309 114.085 65.6032 113.938C66.0548 113.723 68.0171 113.207 67.5216 112.344Z" fill="#C6D9DE"/>
<path d="M73.8122 116.648C73.7769 116.523 73.7141 116.408 73.6283 116.311C73.5425 116.214 73.436 116.138 73.3166 116.087C73.1972 116.037 73.0681 116.014 72.9387 116.021C72.8093 116.027 72.6831 116.063 72.5693 116.124C72.4147 116.208 72.2787 116.322 72.1696 116.46C72.1456 116.492 72.1296 116.504 72.1136 116.528C72.1241 116.51 72.1377 116.494 72.1536 116.48C72.1236 116.497 72.0913 116.509 72.0577 116.516C71.0026 116.768 71.2304 118.379 72.2975 118.375C73.1408 118.367 74.1759 117.563 73.8122 116.648Z" fill="#C6D9DE"/>
<path d="M79.7031 108.551C79.3481 108.443 78.965 108.479 78.6361 108.651C77.7368 109.019 78.1845 110.545 79.1196 110.469C79.3956 110.447 79.6658 110.378 79.919 110.266C80.7542 109.906 80.3866 108.787 79.7031 108.551Z" fill="#C6D9DE"/>
<path d="M84.563 109.438C84.1941 109.836 83.8918 110.291 83.6677 110.785C83.4393 111.189 83.2634 111.62 83.1442 112.068C82.9883 112.647 83.7876 113.171 84.2073 112.675C84.8547 111.908 85.9178 111.077 85.8259 109.962C85.8209 109.818 85.7745 109.678 85.6924 109.56C85.6103 109.441 85.4958 109.349 85.3627 109.294C85.2296 109.239 85.0835 109.223 84.9417 109.249C84.7999 109.274 84.6684 109.34 84.563 109.438Z" fill="#C6D9DE"/>
<path d="M31.3926 114.454C31.1321 113.936 30.7117 113.515 30.1936 113.255C29.6539 112.943 29.1747 112.537 28.7788 112.056C28.2473 111.416 27.2281 112.236 27.6358 112.927C28.3112 114.054 29.698 115.049 31.0409 115.053C31.1115 115.054 31.1811 115.037 31.2426 115.002C31.3042 114.967 31.3554 114.917 31.3912 114.856C31.4269 114.795 31.4459 114.726 31.4461 114.655C31.4464 114.584 31.4279 114.515 31.3926 114.454Z" fill="#C6D9DE"/>
<path d="M43.2624 117.803H43.2024C43.1355 117.732 43.0488 117.682 42.9534 117.661C42.858 117.64 42.7584 117.647 42.6675 117.683C42.5766 117.719 42.4986 117.782 42.4437 117.863C42.3888 117.944 42.3594 118.039 42.3594 118.137C42.3594 118.234 42.3888 118.33 42.4437 118.411C42.4986 118.492 42.5766 118.554 42.6675 118.59C42.7584 118.626 42.858 118.634 42.9534 118.613C43.0488 118.591 43.1355 118.542 43.2024 118.47H43.2624C43.3509 118.47 43.4358 118.435 43.4984 118.373C43.561 118.31 43.5961 118.225 43.5961 118.137C43.5961 118.048 43.561 117.963 43.4984 117.901C43.4358 117.838 43.3509 117.803 43.2624 117.803Z" fill="#C6D9DE"/>
<path d="M20.1422 108.307C20.075 108.129 19.9505 107.979 19.7884 107.88C19.6263 107.781 19.4358 107.738 19.2469 107.76C19.1632 107.76 19.0829 107.793 19.0237 107.852C18.9645 107.911 18.9312 107.992 18.9312 108.075C18.9312 108.159 18.9645 108.239 19.0237 108.299C19.0829 108.358 19.1632 108.391 19.2469 108.391C19.4867 108.391 19.6146 108.523 19.8304 108.619C19.8741 108.641 19.9236 108.649 19.9719 108.641C20.0202 108.634 20.0649 108.611 20.0995 108.576C20.1341 108.542 20.1569 108.497 20.1645 108.449C20.1722 108.4 20.1644 108.351 20.1422 108.307Z" fill="#C6D9DE"/>
<rect x="5.5" y="1.5" width="137" height="137" stroke="#D8E1E5" stroke-width="3"/>
</g>
<defs>
<filter id="filter0_d" x="0" y="0" width="148" height="148" filterUnits="userSpaceOnUse" color-interpolation-filters="sRGB">
<feFlood flood-opacity="0" result="BackgroundImageFix"/>
<feColorMatrix in="SourceAlpha" type="matrix" values="0 0 0 0 0 0 0 0 0 0 0 0 0 0 0 0 0 0 127 0"/>
<feOffset dy="4"/>
<feGaussianBlur stdDeviation="2"/>
<feColorMatrix type="matrix" values="0 0 0 0 0 0 0 0 0 0 0 0 0 0 0 0 0 0 0.25 0"/>
<feBlend mode="normal" in2="BackgroundImageFix" result="effect1_dropShadow"/>
<feBlend mode="normal" in="SourceGraphic" in2="effect1_dropShadow" result="shape"/>
</filter>
</defs>
</svg>
