<svg width="148" height="148" viewBox="0 0 148 148" fill="none" xmlns="http://www.w3.org/2000/svg">
<g filter="url(#filter0_d)">
<path d="M144 0H4V140H144V0Z" fill="white"/>
<path d="M50.9877 25.6021C51.2514 25.5839 51.5155 25.6284 51.7586 25.7319C52.0017 25.8354 52.2169 25.995 52.3865 26.1976C52.6893 26.5712 52.8545 27.0375 52.8545 27.5184C52.8545 27.9993 52.6893 28.4656 52.3865 28.8393C52.2175 29.0426 52.0025 29.2027 51.7592 29.3063C51.5159 29.4099 51.2515 29.4539 50.9877 29.4348H44.4573C44.5266 30.8176 44.6478 32.2004 44.821 33.5832C44.9942 34.966 45.1501 36.3475 45.2886 37.7277C45.4245 39.1105 45.5364 40.492 45.6243 41.8721C45.709 43.2527 45.6996 44.6373 45.5964 46.0166C45.5685 46.5188 45.3681 46.996 45.0289 47.3674C44.859 47.5541 44.6505 47.7016 44.418 47.7996C44.1854 47.8976 43.9342 47.9438 43.682 47.9349H40.7285C40.4732 47.9362 40.2202 47.8866 39.9841 47.7892C39.7481 47.6918 39.5338 47.5484 39.3537 47.3674C39.1667 47.1961 39.0181 46.9872 38.9175 46.7544C38.8169 46.5216 38.7667 46.2702 38.7702 46.0166L39.0819 29.3828L27.0922 29.231C26.7562 29.2325 26.426 29.1427 26.137 28.9712C25.8469 28.803 25.6058 28.5619 25.4376 28.2718C25.2669 27.9882 25.1681 27.6671 25.1499 27.3366C25.1383 26.994 25.2394 26.657 25.4376 26.3774C27.5079 23.4466 29.6314 20.6064 31.8082 17.8567C33.985 15.1071 36.2497 12.3867 38.6024 9.69571C38.7604 9.50448 38.958 9.34974 39.1815 9.24211C39.405 9.13449 39.6492 9.07654 39.8972 9.07224C40.0956 8.85796 40.336 8.68699 40.6036 8.57007C40.8711 8.45315 41.1599 8.39281 41.4519 8.39282C42.0754 8.39282 42.539 8.71255 42.8507 9.40396C43.4516 10.6847 43.8958 12.0333 44.1736 13.4205C44.4288 14.7391 44.5838 16.0751 44.6372 17.4171C44.6896 18.7826 44.6722 20.1499 44.5852 21.5136C44.5026 22.8937 44.4427 24.2925 44.4054 25.71H51.0917L50.9877 25.6021ZM30.9329 25.5501L39.3257 25.706L39.4816 14.8233C37.9975 16.5845 36.5468 18.347 35.1293 20.1108C33.7119 21.8746 32.3304 23.6877 30.9849 25.5501H30.9329Z" fill="#303030"/>
<path d="M114.305 76.3345C114.224 76.3336 114.145 76.305 114.082 76.2535C114.019 76.2019 113.975 76.1304 113.958 76.0507L111.224 63.3936C111.214 63.3474 111.213 63.2997 111.222 63.2532C111.23 63.2067 111.248 63.1623 111.273 63.1226C111.299 63.0829 111.332 63.0486 111.371 63.0217C111.41 62.9949 111.454 62.9759 111.5 62.9659C111.546 62.9554 111.594 62.9542 111.641 62.9624C111.687 62.9706 111.732 62.9881 111.772 63.0138C111.812 63.0395 111.846 63.0729 111.873 63.112C111.899 63.1512 111.918 63.1953 111.927 63.2417L114.657 75.8989C114.667 75.945 114.668 75.9927 114.659 76.0392C114.651 76.0857 114.633 76.1301 114.608 76.1698C114.582 76.2095 114.549 76.2438 114.51 76.2707C114.471 76.2976 114.428 76.3165 114.381 76.3265L114.305 76.3345Z" fill="#BAD9E4"/>
<path d="M112.791 68.8689C112.703 68.8696 112.618 68.8383 112.551 68.781L107.615 64.3848C107.544 64.3204 107.501 64.2306 107.496 64.1348C107.491 64.0389 107.523 63.9449 107.587 63.8732C107.651 63.8023 107.74 63.7595 107.835 63.7542C107.93 63.749 108.024 63.7817 108.095 63.8452L113.027 68.2415C113.08 68.2898 113.119 68.3533 113.136 68.4237C113.153 68.4941 113.149 68.568 113.123 68.6358C113.098 68.7036 113.052 68.7621 112.993 68.8037C112.934 68.8453 112.863 68.8681 112.791 68.8689Z" fill="#BAD9E4"/>
<path d="M112.651 68.901C112.6 68.8999 112.55 68.889 112.503 68.869C112.416 68.8297 112.348 68.7578 112.314 68.6689C112.279 68.5799 112.281 68.481 112.319 68.3935L115.001 62.3466C115.041 62.2605 115.113 62.1932 115.202 62.1589C115.29 62.1246 115.389 62.126 115.476 62.1628C115.563 62.202 115.631 62.2742 115.665 62.3634C115.699 62.4525 115.695 62.5515 115.656 62.6384L112.979 68.6772C112.952 68.7422 112.906 68.798 112.848 68.8378C112.79 68.8775 112.721 68.8995 112.651 68.901Z" fill="#BAD9E4"/>
<path d="M117.031 88.8759C116.949 88.8762 116.87 88.8486 116.806 88.7977C116.742 88.7469 116.698 88.6758 116.679 88.5962L113.95 75.935C113.94 75.8888 113.939 75.8411 113.947 75.7947C113.956 75.7482 113.973 75.7038 113.999 75.6641C114.025 75.6244 114.058 75.5901 114.097 75.5632C114.136 75.5363 114.179 75.5174 114.226 75.5074C114.319 75.4883 114.416 75.5065 114.496 75.558C114.576 75.6096 114.632 75.6904 114.653 75.7832L117.383 88.4443C117.393 88.4902 117.394 88.5377 117.385 88.5839C117.376 88.6302 117.359 88.6742 117.333 88.7136C117.308 88.753 117.274 88.7869 117.236 88.8134C117.197 88.8399 117.153 88.8584 117.107 88.8679C117.082 88.8745 117.057 88.8772 117.031 88.8759Z" fill="#BAD9E4"/>
<path d="M120.768 88.0725C120.68 88.071 120.595 88.0385 120.528 87.9806L115.596 83.5844C115.525 83.5207 115.483 83.4315 115.477 83.3364C115.472 83.2412 115.505 83.1478 115.568 83.0768C115.6 83.0412 115.638 83.0122 115.68 82.9915C115.723 82.9707 115.769 82.9587 115.816 82.9561C115.864 82.9535 115.911 82.9604 115.955 82.9763C116 82.9922 116.041 83.0169 116.076 83.0488L121.008 87.4451C121.043 87.4759 121.072 87.5135 121.093 87.5556C121.113 87.5976 121.125 87.6434 121.128 87.6902C121.131 87.737 121.125 87.7839 121.11 87.8283C121.095 87.8726 121.071 87.9135 121.04 87.9486C121.006 87.9871 120.964 88.0181 120.917 88.0394C120.87 88.0608 120.819 88.072 120.768 88.0725Z" fill="#BAD9E4"/>
<path d="M113.294 89.6831C113.243 89.684 113.193 89.6731 113.146 89.6512C113.104 89.6321 113.065 89.6048 113.033 89.5708C113 89.5367 112.975 89.4966 112.958 89.4528C112.942 89.4089 112.934 89.3622 112.935 89.3153C112.937 89.2685 112.947 89.2223 112.967 89.1796L115.648 83.1287C115.667 83.0854 115.695 83.0463 115.729 83.0137C115.764 82.981 115.804 82.9554 115.848 82.9383C115.892 82.9212 115.939 82.913 115.987 82.9142C116.034 82.9153 116.081 82.9257 116.124 82.9449C116.167 82.964 116.206 82.9915 116.239 83.0258C116.272 83.0601 116.297 83.1005 116.314 83.1446C116.331 83.1888 116.34 83.2359 116.338 83.2832C116.337 83.3305 116.327 83.3772 116.308 83.4205L113.622 89.4633C113.594 89.5276 113.549 89.5825 113.491 89.6215C113.432 89.6605 113.364 89.6819 113.294 89.6831Z" fill="#BAD9E4"/>
<path d="M114.365 76.2907C114.328 76.2964 114.291 76.2964 114.253 76.2907L101.916 72.3061C101.826 72.2768 101.75 72.2128 101.707 72.1281C101.663 72.0435 101.655 71.9451 101.684 71.8545C101.714 71.7636 101.779 71.6884 101.864 71.645C101.95 71.6016 102.049 71.5936 102.14 71.6227L114.465 75.5873C114.51 75.6013 114.552 75.6242 114.588 75.6547C114.625 75.6851 114.654 75.7224 114.676 75.7644C114.698 75.8065 114.711 75.8524 114.714 75.8995C114.718 75.9467 114.712 75.994 114.697 76.0389C114.675 76.1101 114.631 76.1726 114.571 76.2177C114.512 76.2628 114.44 76.2883 114.365 76.2907Z" fill="#BAD9E4"/>
<path d="M100.869 75.9629C100.793 75.9642 100.719 75.9412 100.657 75.8974C100.595 75.8535 100.549 75.7911 100.525 75.7191C100.51 75.6742 100.504 75.6268 100.508 75.5796C100.511 75.5324 100.523 75.4864 100.545 75.444C100.566 75.4017 100.595 75.364 100.631 75.333C100.667 75.302 100.708 75.2784 100.753 75.2635L107.028 73.1893C107.073 73.1742 107.12 73.1682 107.167 73.1715C107.214 73.1749 107.26 73.1875 107.303 73.2086C107.345 73.2298 107.383 73.2591 107.414 73.2949C107.445 73.3306 107.468 73.3722 107.483 73.4171C107.511 73.5083 107.503 73.6067 107.46 73.6918C107.416 73.7768 107.342 73.8416 107.252 73.8727L100.981 75.9349C100.945 75.9496 100.907 75.959 100.869 75.9629Z" fill="#BAD9E4"/>
<path d="M107.112 74.0286C107.055 74.0285 106.999 74.015 106.948 73.9893C106.898 73.9637 106.854 73.9265 106.82 73.8807L102.931 68.5373C102.903 68.499 102.883 68.4556 102.872 68.4095C102.861 68.3635 102.859 68.3157 102.867 68.269C102.874 68.2222 102.891 68.1774 102.916 68.137C102.94 68.0967 102.973 68.0616 103.011 68.0337C103.049 68.0059 103.093 67.9859 103.139 67.9749C103.185 67.9639 103.233 67.962 103.279 67.9694C103.326 67.9768 103.371 67.9934 103.411 68.0182C103.452 68.0429 103.487 68.0754 103.515 68.1137L107.403 73.4571C107.459 73.5348 107.481 73.6311 107.466 73.7252C107.451 73.8194 107.4 73.904 107.323 73.9607C107.261 74.0044 107.188 74.0281 107.112 74.0286Z" fill="#BAD9E4"/>
<path d="M126.587 80.2192C126.551 80.225 126.515 80.225 126.479 80.2192L114.15 76.2546C114.102 76.2426 114.057 76.2209 114.018 76.191C113.979 76.161 113.947 76.1233 113.923 76.0803C113.899 76.0373 113.884 75.9898 113.879 75.9409C113.875 75.8919 113.88 75.8425 113.895 75.7957C113.91 75.7489 113.935 75.7056 113.967 75.6687C113.999 75.6317 114.039 75.6018 114.084 75.5807C114.128 75.5597 114.176 75.548 114.226 75.5463C114.275 75.5447 114.324 75.5532 114.369 75.5712L126.695 79.5318C126.785 79.5611 126.861 79.6251 126.904 79.7098C126.947 79.7944 126.956 79.8928 126.927 79.9834C126.901 80.0526 126.854 80.1122 126.794 80.1543C126.733 80.1964 126.661 80.2191 126.587 80.2192Z" fill="#BAD9E4"/>
<path d="M121.499 78.6525C121.415 78.6511 121.334 78.6199 121.27 78.5646C121.206 78.5092 121.164 78.4331 121.15 78.3497C121.137 78.2663 121.153 78.1808 121.197 78.1083C121.24 78.0358 121.308 77.9809 121.387 77.9531L127.662 75.8789C127.752 75.8521 127.849 75.8614 127.932 75.9049C128.015 75.9484 128.077 76.0226 128.107 76.1116C128.136 76.2007 128.129 76.2977 128.088 76.3818C128.047 76.466 127.974 76.5308 127.886 76.5623L121.615 78.6365C121.578 78.6475 121.538 78.6529 121.499 78.6525Z" fill="#BAD9E4"/>
<path d="M125.416 83.8601C125.36 83.8599 125.304 83.8465 125.254 83.8207C125.204 83.795 125.161 83.7578 125.128 83.7122L121.236 78.3688C121.178 78.2914 121.153 78.1942 121.167 78.0987C121.181 78.0031 121.232 77.917 121.309 77.8592C121.387 77.8014 121.484 77.7768 121.58 77.7906C121.675 77.8045 121.761 77.8558 121.819 77.9331L125.708 83.2766C125.763 83.3542 125.786 83.4505 125.771 83.5447C125.756 83.6389 125.704 83.7235 125.628 83.7801C125.567 83.8282 125.493 83.8561 125.416 83.8601Z" fill="#BAD9E4"/>
<path d="M104.758 84.9272C104.707 84.9282 104.657 84.9183 104.611 84.8983C104.565 84.8783 104.524 84.8486 104.49 84.8113C104.426 84.7408 104.392 84.6477 104.397 84.5525C104.401 84.4574 104.443 84.3679 104.514 84.3037L114.106 75.6072C114.178 75.5444 114.272 75.5122 114.367 75.5174C114.463 75.5226 114.552 75.5649 114.617 75.6351C114.681 75.7062 114.713 75.7996 114.708 75.8947C114.703 75.9899 114.66 76.0791 114.589 76.1427L104.997 84.8353C104.932 84.8954 104.846 84.9283 104.758 84.9272Z" fill="#BAD9E4"/>
<path d="M107.323 87.7648H107.252C107.205 87.7553 107.161 87.7366 107.121 87.7099C107.082 87.6833 107.049 87.649 107.022 87.6093C106.996 87.5695 106.979 87.525 106.97 87.4783C106.961 87.4316 106.962 87.3836 106.972 87.3371L108.311 80.8587C108.321 80.8125 108.34 80.7687 108.366 80.7299C108.393 80.691 108.428 80.6578 108.467 80.6322C108.507 80.6066 108.551 80.5891 108.598 80.5806C108.644 80.5722 108.692 80.573 108.738 80.583C108.785 80.592 108.829 80.6102 108.868 80.6365C108.907 80.6629 108.94 80.6968 108.966 80.7363C108.992 80.7759 109.009 80.8201 109.017 80.8666C109.026 80.913 109.025 80.9606 109.014 81.0066L107.675 87.477C107.658 87.5578 107.614 87.6303 107.55 87.6826C107.486 87.7349 107.406 87.7639 107.323 87.7648Z" fill="#BAD9E4"/>
<path d="M102.188 82.0977C102.099 82.0971 102.014 82.0638 101.948 82.004C101.882 81.9442 101.841 81.8623 101.832 81.7739C101.822 81.6786 101.85 81.5832 101.91 81.5083C101.97 81.4335 102.057 81.3853 102.152 81.3743L108.71 80.6829C108.758 80.6773 108.805 80.6812 108.851 80.6943C108.897 80.7074 108.94 80.7295 108.977 80.7592C109.014 80.789 109.045 80.8258 109.068 80.8676C109.091 80.9094 109.105 80.9552 109.11 81.0026C109.12 81.0979 109.092 81.1933 109.032 81.2682C108.972 81.343 108.885 81.3912 108.79 81.4023L102.188 82.0977Z" fill="#BAD9E4"/>
<path d="M114.273 76.3105C114.223 76.3106 114.174 76.3 114.128 76.2793C114.083 76.2586 114.042 76.2283 114.01 76.1906C113.945 76.1206 113.911 76.0278 113.915 75.9327C113.919 75.8375 113.96 75.7477 114.03 75.683L123.621 66.9905C123.692 66.9264 123.785 66.893 123.88 66.8975C123.975 66.902 124.065 66.944 124.129 67.0144C124.192 67.0854 124.225 67.1783 124.22 67.2731C124.216 67.3679 124.175 67.4573 124.105 67.522L114.513 76.2145C114.448 76.2758 114.363 76.3101 114.273 76.3105Z" fill="#BAD9E4"/>
<path d="M119.961 71.251C119.937 71.255 119.912 71.255 119.889 71.251C119.842 71.242 119.798 71.2238 119.759 71.1975C119.72 71.1712 119.686 71.1374 119.66 71.0979C119.634 71.0585 119.616 71.0142 119.607 70.9678C119.598 70.9213 119.599 70.8736 119.609 70.8274L120.952 64.3449C120.972 64.2523 121.028 64.1712 121.107 64.1189C121.186 64.0667 121.282 64.0474 121.375 64.0652C121.421 64.0747 121.465 64.0932 121.504 64.1197C121.543 64.1462 121.576 64.1801 121.602 64.2195C121.627 64.2589 121.645 64.303 121.653 64.3492C121.662 64.3954 121.661 64.4429 121.651 64.4888L120.3 70.9673C120.283 71.0457 120.241 71.1162 120.179 71.1676C120.118 71.219 120.041 71.2484 119.961 71.251Z" fill="#BAD9E4"/>
<path d="M119.865 71.139C119.769 71.1443 119.676 71.1115 119.604 71.0478C119.533 70.9841 119.49 70.8947 119.485 70.7993C119.48 70.7039 119.513 70.6103 119.576 70.5391C119.64 70.4679 119.729 70.4249 119.825 70.4196L126.395 69.7243C126.442 69.7187 126.49 69.7226 126.536 69.7357C126.582 69.7488 126.625 69.7709 126.662 69.8006C126.699 69.8304 126.73 69.8672 126.753 69.909C126.775 69.9507 126.79 69.9966 126.795 70.044C126.801 70.0913 126.797 70.1395 126.784 70.1855C126.772 70.2314 126.75 70.2744 126.72 70.3117C126.69 70.349 126.653 70.3799 126.611 70.4025C126.569 70.4252 126.523 70.4392 126.475 70.4436L119.865 71.139Z" fill="#BAD9E4"/>
<path d="M25.9812 63.3617C25.8818 63.3619 25.7854 63.3279 25.7082 63.2653C25.631 63.2026 25.5778 63.1153 25.5575 63.018L22.2444 47.6711C22.2306 47.5623 22.2581 47.4522 22.3213 47.3626C22.3846 47.2729 22.4791 47.2102 22.5862 47.1866C22.6934 47.1631 22.8055 47.1805 22.9005 47.2354C22.9955 47.2903 23.0665 47.3787 23.0996 47.4833L26.4088 62.8382C26.4326 62.9505 26.4111 63.0676 26.349 63.1642C26.2869 63.2607 26.1892 63.3288 26.0771 63.3537C26.0456 63.3602 26.0134 63.3629 25.9812 63.3617Z" fill="#BAD9E4"/>
<path d="M24.1228 54.3214C24.0168 54.3219 23.9144 54.2835 23.835 54.2135L17.8401 48.882C17.7974 48.844 17.7625 48.7979 17.7375 48.7464C17.7126 48.6948 17.698 48.6389 17.6947 48.5817C17.6913 48.5246 17.6993 48.4673 17.7181 48.4133C17.7369 48.3592 17.7661 48.3093 17.8042 48.2666C17.8422 48.2238 17.8883 48.1889 17.9398 48.164C17.9914 48.139 18.0473 48.1244 18.1045 48.1211C18.1616 48.1178 18.2189 48.1257 18.2729 48.1445C18.327 48.1633 18.3769 48.1925 18.4196 48.2306L24.4145 53.562C24.4573 53.6001 24.4922 53.6461 24.5172 53.6977C24.5422 53.7492 24.5567 53.8051 24.5601 53.8623C24.5634 53.9195 24.5555 53.9767 24.5367 54.0308C24.5178 54.0849 24.4886 54.1347 24.4505 54.1775C24.4088 54.2229 24.3582 54.2592 24.3018 54.284C24.2453 54.3087 24.1844 54.3215 24.1228 54.3214Z" fill="#BAD9E4"/>
<path d="M23.9509 54.3534C23.89 54.3536 23.8299 54.34 23.7751 54.3134C23.7225 54.2905 23.675 54.2573 23.6354 54.2158C23.5958 54.1743 23.5649 54.1254 23.5444 54.0718C23.5239 54.0182 23.5144 53.9611 23.5162 53.9038C23.5181 53.8464 23.5314 53.79 23.5553 53.7379L26.8045 46.4122C26.8278 46.3597 26.8613 46.3123 26.9029 46.2728C26.9446 46.2332 26.9937 46.2023 27.0473 46.1817C27.1009 46.1611 27.1581 46.1512 27.2155 46.1527C27.2729 46.1542 27.3295 46.167 27.382 46.1904C27.4345 46.2137 27.4818 46.2472 27.5214 46.2889C27.5609 46.3305 27.5919 46.3796 27.6125 46.4332C27.6331 46.4868 27.6429 46.544 27.6414 46.6014C27.6399 46.6588 27.6271 46.7154 27.6038 46.7679L24.3506 54.0936C24.316 54.1707 24.2599 54.2363 24.189 54.2824C24.1181 54.3284 24.0355 54.3531 23.9509 54.3534Z" fill="#BAD9E4"/>
<path d="M29.2663 78.5886C29.1672 78.5882 29.0711 78.5538 28.9941 78.4913C28.917 78.4288 28.8636 78.3419 28.8427 78.2449L25.5295 62.8901C25.5088 62.7787 25.5323 62.6635 25.5951 62.5691C25.6579 62.4747 25.755 62.4085 25.8659 62.3846C25.9767 62.3606 26.0925 62.3809 26.1886 62.4409C26.2848 62.501 26.3537 62.5962 26.3808 62.7063L29.694 78.0611C29.7178 78.1734 29.6963 78.2906 29.6342 78.3871C29.572 78.4836 29.4743 78.5518 29.3623 78.5767L29.2663 78.5886Z" fill="#BAD9E4"/>
<path d="M33.8025 77.6094C33.6947 77.6099 33.5906 77.5699 33.5107 77.4975L27.5159 72.1661C27.4295 72.0892 27.3771 71.9812 27.3704 71.8658C27.3637 71.7504 27.403 71.637 27.4799 71.5506C27.5567 71.4642 27.6648 71.4119 27.7802 71.4052C27.8956 71.3984 28.009 71.4378 28.0954 71.5146L34.0902 76.8461C34.1335 76.8838 34.1688 76.9298 34.1941 76.9813C34.2194 77.0329 34.2341 77.0889 34.2375 77.1463C34.2408 77.2036 34.2327 77.261 34.2136 77.3151C34.1945 77.3693 34.1648 77.419 34.1262 77.4615C34.0855 77.5074 34.0357 77.5442 33.98 77.5697C33.9242 77.5952 33.8638 77.6087 33.8025 77.6094Z" fill="#BAD9E4"/>
<path d="M24.7342 79.5637C24.6738 79.5637 24.614 79.5515 24.5584 79.5278C24.5058 79.5048 24.4583 79.4717 24.4187 79.4302C24.3791 79.3887 24.3482 79.3397 24.3277 79.2861C24.3073 79.2326 24.2977 79.1754 24.2995 79.1181C24.3014 79.0608 24.3147 79.0044 24.3386 78.9523L27.5798 71.6265C27.6032 71.5741 27.6366 71.5267 27.6783 71.4871C27.7199 71.4476 27.769 71.4166 27.8226 71.396C27.8762 71.3754 27.9334 71.3656 27.9908 71.3671C28.0483 71.3686 28.1048 71.3814 28.1573 71.4047C28.2098 71.4281 28.2572 71.4615 28.2967 71.5032C28.3363 71.5449 28.3672 71.5939 28.3878 71.6475C28.4084 71.7012 28.4182 71.7583 28.4168 71.8157C28.4153 71.8732 28.4025 71.9297 28.3791 71.9822L25.1259 79.308C25.0913 79.3831 25.0362 79.447 24.9669 79.4923C24.8976 79.5375 24.817 79.5623 24.7342 79.5637Z" fill="#BAD9E4"/>
<path d="M26.0331 63.3218C25.9868 63.3213 25.9409 63.3132 25.8972 63.2978L10.95 58.502C10.8924 58.4872 10.8384 58.4608 10.7913 58.4244C10.7443 58.388 10.7052 58.3423 10.6765 58.2902C10.6478 58.2381 10.63 58.1806 10.6244 58.1214C10.6187 58.0621 10.6252 58.0024 10.6435 57.9458C10.6619 57.8892 10.6916 57.8369 10.7309 57.7922C10.7702 57.7475 10.8182 57.7114 10.872 57.686C10.9258 57.6606 10.9843 57.6465 11.0438 57.6445C11.1032 57.6426 11.1625 57.6528 11.2178 57.6747L26.165 62.4706C26.2199 62.4874 26.2709 62.515 26.3151 62.5517C26.3592 62.5885 26.3955 62.6337 26.4219 62.6847C26.4484 62.7357 26.4644 62.7914 26.469 62.8487C26.4736 62.9059 26.4667 62.9635 26.4488 63.0181C26.4202 63.106 26.3647 63.1826 26.29 63.2372C26.2154 63.2917 26.1255 63.3213 26.0331 63.3218Z" fill="#BAD9E4"/>
<path d="M9.66315 62.9259C9.57368 62.9236 9.48715 62.8935 9.41555 62.8398C9.34395 62.7861 9.29081 62.7114 9.26349 62.6262C9.24475 62.5724 9.23693 62.5155 9.24049 62.4586C9.24406 62.4018 9.25893 62.3463 9.28424 62.2953C9.30956 62.2443 9.3448 62.1989 9.3879 62.1617C9.43101 62.1245 9.48111 62.0962 9.53526 62.0787L17.1288 59.5608C17.1831 59.5427 17.2404 59.5355 17.2975 59.5395C17.3547 59.5436 17.4104 59.5589 17.4616 59.5845C17.5128 59.6101 17.5585 59.6455 17.596 59.6888C17.6335 59.732 17.6622 59.7823 17.6803 59.8366C17.6984 59.8909 17.7056 59.9483 17.7016 60.0054C17.6975 60.0625 17.6822 60.1183 17.6566 60.1695C17.631 60.2207 17.5956 60.2663 17.5523 60.3039C17.5091 60.3414 17.4588 60.37 17.4045 60.3881L9.81103 62.906C9.76285 62.9192 9.71311 62.9259 9.66315 62.9259Z" fill="#BAD9E4"/>
<path d="M17.2167 60.5761C17.1484 60.5761 17.0811 60.5602 17.0201 60.5297C16.959 60.4991 16.9059 60.4548 16.865 60.4002L12.149 53.9178C12.0891 53.8242 12.0671 53.7113 12.0877 53.6021C12.1082 53.493 12.1697 53.3957 12.2595 53.3304C12.3494 53.265 12.4608 53.2365 12.571 53.2506C12.6812 53.2647 12.7819 53.3204 12.8524 53.4062L17.5884 59.8847C17.655 59.9784 17.6822 60.0944 17.6643 60.208C17.6464 60.3215 17.5847 60.4235 17.4924 60.4922C17.4133 60.5518 17.3156 60.5815 17.2167 60.5761Z" fill="#BAD9E4"/>
<path d="M40.8564 68.0856C40.8116 68.0864 40.7671 68.0796 40.7245 68.0656L25.7733 63.2697C25.6702 63.2291 25.5865 63.1506 25.5392 63.0504C25.4919 62.9502 25.4846 62.8357 25.5187 62.7303C25.5528 62.6249 25.6258 62.5364 25.7229 62.4829C25.82 62.4294 25.9338 62.415 26.0411 62.4424L40.9923 67.2383C41.0891 67.2718 41.171 67.3384 41.2237 67.4263C41.2763 67.5142 41.2962 67.6178 41.28 67.719C41.2638 67.8202 41.2124 67.9124 41.135 67.9794C41.0575 68.0465 40.9589 68.0841 40.8564 68.0856Z" fill="#BAD9E4"/>
<path d="M34.6697 66.1873C34.5804 66.1844 34.4941 66.154 34.4226 66.1004C34.3512 66.0468 34.2979 65.9725 34.2701 65.8876C34.252 65.8335 34.2447 65.7764 34.2488 65.7196C34.2529 65.6627 34.2682 65.6072 34.2938 65.5563C34.3195 65.5054 34.355 65.4601 34.3982 65.423C34.4414 65.3859 34.4916 65.3577 34.5458 65.34L42.1393 62.8222C42.249 62.7856 42.3688 62.7941 42.4722 62.8458C42.5756 62.8976 42.6543 62.9882 42.6908 63.0979C42.7274 63.2077 42.7189 63.3274 42.6672 63.4308C42.6155 63.5343 42.5248 63.6129 42.4151 63.6495L34.8216 66.1673C34.7721 66.1809 34.721 66.1876 34.6697 66.1873Z" fill="#BAD9E4"/>
<path d="M39.4376 72.5019C39.369 72.5018 39.3013 72.4854 39.2402 72.4541C39.1791 72.4229 39.1262 72.3776 39.0859 72.3221L34.374 65.8436C34.3401 65.7974 34.3157 65.745 34.3021 65.6894C34.2885 65.6338 34.286 65.576 34.2947 65.5194C34.3034 65.4628 34.3232 65.4085 34.3529 65.3596C34.3826 65.3106 34.4217 65.268 34.4679 65.2341C34.5141 65.2003 34.5665 65.1759 34.6221 65.1623C34.6777 65.1487 34.7355 65.1461 34.7921 65.1549C34.8487 65.1636 34.903 65.1834 34.9519 65.2131C35.0009 65.2428 35.0435 65.2819 35.0774 65.3281L39.7933 71.8105C39.8404 71.8754 39.8687 71.9521 39.875 72.0321C39.8813 72.1121 39.8653 72.1923 39.829 72.2638C39.7926 72.3353 39.7372 72.3954 39.6688 72.4374C39.6005 72.4794 39.5219 72.5017 39.4416 72.5019H39.4376Z" fill="#BAD9E4"/>
<path d="M14.3911 73.8007C14.3307 73.8007 14.2709 73.7878 14.2158 73.763C14.1607 73.7382 14.1115 73.702 14.0714 73.6568C14.0323 73.6148 14.002 73.5654 13.9822 73.5116C13.9624 73.4578 13.9536 73.4005 13.9562 73.3432C13.9588 73.2859 13.9728 73.2297 13.9974 73.1779C14.022 73.126 14.0566 73.0796 14.0993 73.0413L25.7374 62.4944C25.8249 62.4271 25.9347 62.3955 26.0446 62.4061C26.1545 62.4166 26.2563 62.4685 26.3294 62.5513C26.4025 62.634 26.4415 62.7414 26.4384 62.8518C26.4353 62.9622 26.3905 63.0673 26.3129 63.1458L14.6748 73.6848C14.5969 73.7556 14.4964 73.7966 14.3911 73.8007Z" fill="#BAD9E4"/>
<path d="M17.4924 77.2339C17.4633 77.2377 17.4337 77.2377 17.4045 77.2339C17.3483 77.2225 17.2949 77.2001 17.2474 77.1679C17.1998 77.1358 17.1591 77.0946 17.1276 77.0467C17.096 76.9988 17.0742 76.9451 17.0634 76.8888C17.0527 76.8324 17.0531 76.7745 17.0648 76.7183L18.6914 68.8731C18.7147 68.7597 18.7822 68.6601 18.8788 68.5964C18.9755 68.5327 19.0936 68.51 19.207 68.5334C19.3204 68.5567 19.4199 68.6241 19.4836 68.7208C19.5473 68.8175 19.57 68.9355 19.5467 69.0489L17.9201 76.8982C17.8974 76.9943 17.8428 77.0799 17.7651 77.1409C17.6874 77.2019 17.5912 77.2347 17.4924 77.2339Z" fill="#BAD9E4"/>
<path d="M11.2658 70.3637C11.1502 70.3695 11.0371 70.3292 10.9513 70.2516C10.8655 70.1741 10.814 70.0656 10.8082 69.95C10.8023 69.8345 10.8426 69.7214 10.9202 69.6356C10.9978 69.5497 11.1063 69.4983 11.2218 69.4924L19.187 68.6492C19.2439 68.6431 19.3015 68.6484 19.3564 68.6646C19.4114 68.6808 19.4625 68.7077 19.5071 68.7437C19.5516 68.7797 19.5886 68.8241 19.616 68.8744C19.6434 68.9247 19.6605 68.9799 19.6666 69.0368C19.6726 69.0938 19.6674 69.1513 19.6512 69.2063C19.6349 69.2612 19.6081 69.3124 19.5721 69.3569C19.5361 69.4014 19.4917 69.4384 19.4414 69.4658C19.3911 69.4932 19.3359 69.5104 19.2789 69.5164L11.3137 70.3597L11.2658 70.3637Z" fill="#BAD9E4"/>
<path d="M25.9212 63.3457C25.8332 63.3446 25.7475 63.3171 25.6753 63.2667C25.6031 63.2163 25.5477 63.1453 25.5162 63.0631C25.4848 62.9808 25.4788 62.891 25.499 62.8053C25.5192 62.7196 25.5646 62.642 25.6295 62.5824L37.2675 52.0394C37.31 52.0009 37.3597 51.971 37.4137 51.9517C37.4678 51.9323 37.5251 51.9238 37.5824 51.9265C37.6398 51.9293 37.696 51.9434 37.7479 51.9679C37.7998 51.9924 37.8464 52.0269 37.885 52.0694C37.9235 52.1119 37.9534 52.1616 37.9727 52.2157C37.9921 52.2697 38.0006 52.327 37.9979 52.3843C37.9951 52.4417 37.981 52.4979 37.9565 52.5498C37.932 52.6017 37.8975 52.6483 37.855 52.6869L26.213 63.2298C26.1335 63.3034 26.0295 63.3447 25.9212 63.3457Z" fill="#BAD9E4"/>
<path d="M32.8193 57.2109H32.7314C32.6753 57.1995 32.622 57.1771 32.5746 57.1449C32.5273 57.1127 32.4868 57.0714 32.4555 57.0235C32.4243 56.9755 32.4029 56.9218 32.3926 56.8654C32.3824 56.8091 32.3834 56.7513 32.3957 56.6954L34.0183 48.8461C34.0416 48.7327 34.109 48.6332 34.2057 48.5695C34.3024 48.5058 34.4204 48.4831 34.5338 48.5064C34.6472 48.5297 34.7467 48.5971 34.8105 48.6938C34.8742 48.7905 34.8969 48.9085 34.8735 49.0219L33.2469 56.8712C33.2251 56.9681 33.1707 57.0546 33.093 57.1164C33.0152 57.1782 32.9186 57.2115 32.8193 57.2109Z" fill="#BAD9E4"/>
<path d="M32.7034 57.083C32.5879 57.0888 32.4747 57.0485 32.3889 56.9709C32.3031 56.8934 32.2516 56.7849 32.2458 56.6693C32.24 56.5538 32.2803 56.4407 32.3578 56.3549C32.4354 56.269 32.5439 56.2176 32.6594 56.2117L40.6246 55.3684C40.6825 55.3624 40.741 55.368 40.7967 55.3849C40.8523 55.4019 40.904 55.4298 40.9488 55.4671C40.9935 55.5043 41.0302 55.5501 41.0569 55.6019C41.0836 55.6536 41.0997 55.7101 41.1042 55.7681C41.1108 55.8261 41.1056 55.8848 41.0889 55.9407C41.0722 55.9966 41.0443 56.0486 41.0069 56.0934C40.9696 56.1382 40.9235 56.175 40.8715 56.2015C40.8196 56.228 40.7628 56.2438 40.7045 56.2477L32.7354 57.091L32.7034 57.083Z" fill="#BAD9E4"/>
<path fill-rule="evenodd" clip-rule="evenodd" d="M68.4528 109.986C68.1118 109.9 67.7612 109.859 67.4097 109.862C65.7751 110.122 64.6121 109.223 64.0885 107.652C63.2013 104.986 63.7288 102.568 65.0557 100.21C65.5313 99.363 65.895 98.4557 66.3186 97.5605C66.2027 97.5605 66.1148 97.5086 66.0948 97.5325C64.4562 99.4669 62.2261 100.862 60.8992 103.084C59.9201 104.746 58.841 106.357 58.1536 108.179C58.1156 108.329 58.0469 108.469 57.9519 108.591C57.8569 108.713 57.7376 108.814 57.6015 108.887C57.4655 108.96 57.3157 109.005 57.1617 109.017C57.0077 109.029 56.8528 109.009 56.7068 108.959C54.7085 108.559 53.8773 107.304 53.9612 104.838C54.0012 103.759 54.4767 102.812 54.7965 101.821C55.2441 100.43 55.7237 99.0472 56.1913 97.6564C56.1418 97.6351 56.0885 97.624 56.0347 97.6237C55.9808 97.6235 55.9274 97.6341 55.8778 97.655C55.8281 97.6759 55.7832 97.7067 55.7458 97.7454C55.7083 97.7841 55.679 97.8299 55.6597 97.8802C54.8672 99.0502 53.8947 100.087 52.7782 100.954C51.3914 102.093 50.0445 103.324 49.7368 105.19C49.6392 105.663 49.4381 106.109 49.1479 106.495C48.8577 106.881 48.4856 107.199 48.0582 107.424C47.0631 108.052 46.1599 108.875 44.861 109.095C41.6637 109.642 39.2658 108.295 37.1676 106.169C36.8302 105.856 36.5359 105.5 36.2923 105.11C35.4371 103.587 35.6809 102.129 36.5481 100.738C37.4154 99.347 38.6023 98.204 39.6614 96.957C39.7559 96.8364 39.8776 96.7399 40.0165 96.6753C40.1554 96.6107 40.3076 96.5799 40.4608 96.5854C40.5939 96.6781 40.6985 96.8062 40.7627 96.9552C40.827 97.1042 40.8484 97.2681 40.8244 97.4286C40.0971 98.2879 39.3497 99.1831 38.5824 100.062C38.0932 100.657 37.6472 101.286 37.2475 101.945C36.5881 102.972 36.9078 103.895 37.4593 104.786C37.586 104.985 37.7646 105.146 37.9759 105.251C38.1872 105.356 38.4232 105.401 38.6583 105.382C40.6966 105.346 41.7277 104.231 42.451 101.981C43.4142 98.9633 43.2504 96.0178 42.3591 92.9924C42.0434 91.9293 41.7676 90.8423 41.392 89.7952C41.2604 89.4675 41.1109 89.1473 40.9443 88.836C39.8852 88.6881 39.1898 90.2907 37.895 89.3356C38.8461 88.6362 39.8253 88.2805 40.5407 87.4772C40.3171 86.4638 40.1834 85.4327 40.141 84.3958C40.0291 81.3024 40.7405 78.4009 42.6149 75.9231C43.141 75.2515 43.8115 74.707 44.5767 74.33C45.3419 73.9529 46.1821 73.753 47.0351 73.7449C47.6264 73.719 48.215 73.8385 48.7494 74.0928C49.2838 74.3471 49.7477 74.7285 50.1005 75.2037C50.4482 75.6833 50.3443 76.3307 50.3683 76.9062C50.4482 78.8405 49.497 80.4072 48.4539 81.8939C47.4531 83.4094 46.3059 84.823 45.0288 86.1143C44.6891 86.434 44.825 86.7937 44.9649 87.1414C45.9201 89.5394 46.7034 91.9773 48.0503 94.2034C49.1658 96.0202 49.9291 98.0309 50.3003 100.13C50.3031 100.27 50.3347 100.408 50.3932 100.535C50.4516 100.663 50.5357 100.776 50.64 100.87C52.312 99.4991 53.8194 97.9394 55.1322 96.2217C56.495 94.5151 57.5301 92.5568 59.1687 90.9302C60.3677 90.6065 61.3948 91.4537 61.3868 93.0724C61.3868 96.0418 61.5747 99.0672 60.2078 101.865C60.2078 101.865 60.2398 101.913 60.3038 101.993C60.9744 101.302 61.5841 100.554 62.1262 99.7586C63.7248 97.7284 65.3834 95.7341 67.4177 94.1275C68.5327 93.2442 69.7756 93.6838 70.471 94.9268C71.3908 96.5886 71.7097 98.5166 71.3743 100.386C71.1864 101.585 70.535 102.62 70.1113 103.735C69.6557 104.934 69.1841 106.133 68.3209 107.156C68.1613 107.314 68.044 107.51 67.9798 107.725C67.9155 107.94 67.9064 108.168 67.9532 108.387C68.8536 108.191 69.683 107.751 70.3511 107.116C71.658 105.941 72.881 104.678 74.1399 103.451C74.7576 102.811 75.1971 102.02 75.4148 101.157C76.1665 98.443 77.5434 95.9423 79.4354 93.8557C79.9589 93.2962 80.4425 92.6967 80.982 92.0732C84.4271 92.7127 87.6563 93.6718 88.4996 97.6684C91.6409 97.5166 92.736 95.1226 94.1228 93.0004C94.7742 92.7047 95.3537 93.0804 95.7454 93.488C97.4999 95.3025 97.7437 97.8842 96.4967 100.21C95.3076 102.389 94.2402 104.632 93.2995 106.928C93.1002 107.261 93.0399 107.659 93.1316 108.036C93.803 108.287 94.4385 108.072 95.066 107.82C95.9372 107.464 96.5967 106.793 97.36 106.273C97.4894 106.185 97.5941 106.065 97.664 105.925C97.734 105.786 97.7669 105.63 97.7597 105.474C97.8184 104.328 98.0895 103.203 98.559 102.157C98.9163 101.368 99.4936 100.699 100.222 100.23C100.913 99.7386 102.4 100.518 102.528 101.357C102.552 101.509 102.528 101.705 102.607 101.805C104.062 103.511 102.859 105.17 102.512 106.833C102.384 107.448 102.144 108.032 101.936 108.699C106.204 108.159 109.929 103.044 109.17 97.3407C106.92 95.826 106.272 95.0187 105.973 93.3441C106.349 93.2644 106.74 93.2784 107.11 93.385C107.48 93.4917 107.818 93.6876 108.095 93.9556C109.238 94.8988 110.413 95.0067 111.772 94.5591C112.508 94.2646 113.31 94.1749 114.094 94.2993C113.59 95.858 112.015 96.0058 110.98 96.7772C111.42 98.4478 112.155 99.5068 110.745 103.36C109.334 107.212 108.071 107.248 106.312 108.731C105.381 109.53 104.218 109.71 103.175 110.21C102.859 110.358 102.496 110.394 102.16 110.581C101.305 111.061 99.8219 110.581 99.0026 109.69C98.5822 109.227 98.2321 108.704 97.9635 108.139C97.8595 108.081 97.7399 108.057 97.6215 108.071C97.5031 108.085 97.3921 108.135 97.304 108.215C96.0291 109.414 94.3546 109.662 92.7799 110.154C92.0366 110.382 91.4371 109.898 90.9095 109.582C90.1858 109.164 89.6229 108.515 89.3109 107.74C88.7904 106.513 88.5449 105.187 88.5915 103.855C88.6674 102.656 89.223 101.497 89.7505 100.378C89.9703 99.9145 90.1502 99.4389 90.382 98.9393C89.9265 98.9063 89.4709 99.001 89.0663 99.2128C88.6617 99.4247 88.3243 99.7452 88.0919 100.138C87.0089 102.288 86.1456 104.559 84.535 106.429C83.8556 107.228 83.312 108.127 82.4248 108.707C81.5376 109.286 80.7223 109.926 79.7231 110.246C78.5801 110.613 77.6849 109.922 76.8815 109.298C75.5707 108.287 75.2829 106.729 74.9712 105.206C74.9699 105.083 74.9441 104.961 74.8954 104.848C74.8467 104.735 74.776 104.632 74.6874 104.547C72.1936 105.817 70.7068 108.331 68.4528 109.986ZM79.7111 107.688C82.0571 107.88 85.8139 103.404 86.4014 99.3949C85.4622 98.9953 84.3791 99.0193 83.5318 98.4677C82.4168 99.5908 79.799 105.945 79.7111 107.688ZM44.5413 84.6156C44.8739 84.5049 45.1624 84.2906 45.3646 84.0041C46.0521 83.2565 46.6429 82.4253 47.123 81.5302C48.0463 79.8677 49.0734 78.261 49.4491 76.3347C49.553 75.8072 49.449 75.5354 49.0134 75.2916C48.6815 75.119 48.3161 75.0202 47.9425 75.0019C47.5688 74.9836 47.1955 75.0463 46.8483 75.1855C46.5011 75.3248 46.188 75.5375 45.9305 75.8089C45.6731 76.0804 45.4773 76.4042 45.3566 76.7583C44.6637 79.0202 44.274 81.364 44.1976 83.7284C44.1896 84.0401 44.1256 84.3798 44.5213 84.6156H44.5413ZM83.7077 94.3193C84.3791 95.2585 83.8676 96.2337 83.8236 97.1529C85.2144 98.0161 85.6181 98.136 86.5013 97.9522C86.7051 97.1529 86.3015 95.5143 85.726 94.9907C85.1505 94.4672 84.7308 93.8877 83.7037 94.3193H83.7077Z" fill="#303030"/>
<path fill-rule="evenodd" clip-rule="evenodd" d="M127.978 69.1407C129.576 70.024 130.376 72.1622 130.248 74.1764C129.804 80.8667 127.314 87.0174 125.216 93.2561C124.581 95.1425 123.657 96.9729 122.922 98.8513C122.546 99.8185 121.875 99.6786 121.16 99.3469C119.213 98.4356 118.022 95.4822 118.822 93.1042C120.364 88.5002 121.839 83.8641 123.777 79.396C125.104 76.3306 126.175 73.1533 127.374 70.036C127.494 69.7123 127.53 69.3326 127.978 69.1407Z" fill="#303030"/>
<path fill-rule="evenodd" clip-rule="evenodd" d="M121.779 108.763C120.6 108.879 118.378 107.756 117.894 106.853C117.411 105.949 117.81 105.254 118.402 104.702C118.526 104.568 118.678 104.464 118.848 104.397C119.018 104.331 119.201 104.304 119.383 104.319C119.565 104.334 119.741 104.39 119.898 104.484C120.055 104.577 120.188 104.705 120.288 104.858C120.425 105.022 120.592 105.158 120.78 105.258C122.698 106.309 122.782 106.649 121.779 108.763Z" fill="#303030"/>
<path d="M54.8684 72.7377C54.8684 72.302 54.8684 71.6266 54.8125 70.7154C54.7565 69.8042 54.5647 53.5861 54.5647 49.3977C54.561 49.2772 54.5846 49.1575 54.6338 49.0474C54.6829 48.9374 54.7563 48.8399 54.8484 48.7622C55.0335 48.6087 55.2674 48.5265 55.5079 48.5304C55.7495 48.5266 55.9846 48.6087 56.1713 48.7622C56.2634 48.8399 56.3368 48.9374 56.386 49.0474C56.4351 49.1575 56.4587 49.2772 56.4551 49.3977C56.4551 52.515 56.5829 68.4493 56.6069 69.7322C56.6309 71.0151 56.6589 71.7625 56.6869 71.9863C56.7628 71.9863 59.7043 72.0183 60.8873 72.0183C61.0125 72.0075 61.1386 72.0256 61.2557 72.0714C61.3729 72.1171 61.4779 72.1892 61.5627 72.2821C61.6965 72.4362 61.7702 72.6335 61.7702 72.8376C61.7702 73.0417 61.6965 73.239 61.5627 73.3931C61.4779 73.486 61.3729 73.558 61.2557 73.6038C61.1386 73.6495 61.0125 73.6677 60.8873 73.6569C59.3446 73.6569 58.1829 73.6569 57.4022 73.6569C56.8476 73.6769 56.2922 73.6608 55.7397 73.6089C55.6099 73.6233 55.4786 73.6035 55.3587 73.5517C55.2389 73.4998 55.1346 73.4176 55.0563 73.3132C54.9408 73.1428 54.8757 72.9433 54.8684 72.7377Z" fill="#303030"/>
<path d="M63.3331 73.6689C63.0882 73.6712 62.8514 73.5813 62.6697 73.4171C62.5828 73.3466 62.5126 73.2577 62.4642 73.1568C62.4158 73.0559 62.3904 72.9455 62.39 72.8336C62.39 71.8544 62.4659 49.6534 62.4659 49.2738C62.4659 48.7622 62.8655 48.5064 63.6009 48.5064H70.2512C70.3796 48.4977 70.5084 48.5171 70.6285 48.5634C70.7487 48.6096 70.8572 48.6816 70.9466 48.7742C71.0201 48.846 71.0785 48.9318 71.1183 49.0265C71.1582 49.1213 71.1787 49.223 71.1787 49.3257C71.1787 49.4285 71.1582 49.5302 71.1183 49.6249C71.0785 49.7196 71.0201 49.8054 70.9466 49.8773C70.8577 49.9705 70.7492 50.0429 70.629 50.0892C70.5087 50.1355 70.3797 50.1546 70.2512 50.145H64.4682L64.2763 60.5681C64.4322 60.5481 64.8638 60.5161 65.5672 60.4682C66.2706 60.4202 67.2458 60.4042 68.4807 60.4042C68.6083 60.3945 68.7364 60.4131 68.856 60.4587C68.9755 60.5043 69.0835 60.5758 69.1721 60.668C69.3149 60.8169 69.3974 61.0134 69.4039 61.2195C69.3986 61.4259 69.3158 61.6228 69.1721 61.7711C69.0844 61.8647 68.9766 61.9374 68.857 61.9838C68.7373 62.0301 68.6087 62.0489 68.4807 62.0388C67.2445 62.0388 66.2546 62.0668 65.5113 62.1228C64.7679 62.1787 64.3563 62.2187 64.2763 62.2427C64.2763 63.6055 64.2404 70.2878 64.2404 72.0303H70.2352C70.4902 72.0206 70.7392 72.1094 70.9306 72.2781C71.014 72.3482 71.0812 72.4356 71.1274 72.5343C71.1737 72.633 71.1979 72.7406 71.1984 72.8496C71.1979 72.9591 71.1738 73.0673 71.1275 73.1666C71.0813 73.266 71.0141 73.3541 70.9306 73.4251C70.7378 73.5909 70.4894 73.678 70.2352 73.6689H63.3331Z" fill="#303030"/>
<path d="M71.4462 50.1451C71.3183 50.1552 71.1897 50.1364 71.07 50.0901C70.9503 50.0437 70.8426 49.971 70.7548 49.8774C70.6813 49.8055 70.6229 49.7197 70.5831 49.625C70.5432 49.5303 70.5227 49.4286 70.5227 49.3258C70.5227 49.2231 70.5432 49.1214 70.5831 49.0266C70.6229 48.9319 70.6813 48.8461 70.7548 48.7743C70.8431 48.6813 70.9509 48.6091 71.0704 48.5628C71.19 48.5165 71.3183 48.4973 71.4462 48.5065H79.887C80.0154 48.4978 80.1442 48.5172 80.2643 48.5635C80.3844 48.6097 80.493 48.6817 80.5824 48.7743C80.6558 48.8461 80.7142 48.9319 80.7541 49.0266C80.7939 49.1214 80.8145 49.2231 80.8145 49.3258C80.8145 49.4286 80.7939 49.5303 80.7541 49.625C80.7142 49.7197 80.6558 49.8055 80.5824 49.8774C80.4935 49.9706 80.385 50.043 80.2647 50.0893C80.1445 50.1356 80.0155 50.1547 79.887 50.1451H76.8416V72.8337C76.85 72.9572 76.8261 73.0808 76.7721 73.1923C76.7181 73.3037 76.636 73.3991 76.5338 73.4691C76.3457 73.5956 76.125 73.665 75.8984 73.6689C75.6715 73.6662 75.4505 73.5967 75.2629 73.4691C75.1602 73.3997 75.0776 73.3044 75.0236 73.1928C74.9695 73.0812 74.9459 72.9573 74.9552 72.8337V50.1451H71.4462Z" fill="#303030"/>
<path d="M92.1445 50.145C92.1445 52.9786 92.3603 68.5293 92.4122 69.7882C92.4642 71.0471 92.5041 71.7865 92.5281 72.0303H94.5264C94.7801 72.0213 95.0276 72.11 95.2178 72.2781C95.3018 72.348 95.3695 72.4353 95.4164 72.534C95.4634 72.6327 95.4883 72.7403 95.4896 72.8496C95.4884 72.9594 95.4634 73.0677 95.4165 73.167C95.3696 73.2663 95.3019 73.3544 95.2178 73.4251C95.0262 73.5903 94.7793 73.6774 94.5264 73.6689H88.4037C88.2699 73.6805 88.1353 73.6629 88.009 73.6174C87.8827 73.5718 87.7678 73.4994 87.6723 73.4051C87.5246 73.2514 87.4416 73.0468 87.4405 72.8336C87.4419 72.7267 87.467 72.6214 87.514 72.5253C87.561 72.4293 87.6287 72.3448 87.7123 72.2781C87.9025 72.11 88.15 72.0213 88.4037 72.0303H90.6777C90.6537 71.8065 90.6058 71.231 90.5418 70.2398C90.4779 69.2487 90.4259 67.9098 90.39 66.1593C90.354 64.4088 90.2541 53.7699 90.2541 50.145H87.6723C87.5438 50.1546 87.4148 50.1355 87.2945 50.0892C87.1743 50.0429 87.0658 49.9705 86.9769 49.8773C86.9034 49.8054 86.845 49.7196 86.8052 49.6249C86.7653 49.5302 86.7448 49.4285 86.7448 49.3257C86.7448 49.223 86.7653 49.1213 86.8052 49.0265C86.845 48.9318 86.9034 48.846 86.9769 48.7742C87.0663 48.6816 87.1748 48.6096 87.295 48.5634C87.4151 48.5171 87.5439 48.4977 87.6723 48.5064H94.5344C94.6622 48.4977 94.7904 48.5172 94.9099 48.5635C95.0293 48.6098 95.1372 48.6817 95.2258 48.7742C95.2993 48.846 95.3577 48.9318 95.3975 49.0265C95.4374 49.1213 95.4579 49.223 95.4579 49.3257C95.4579 49.4285 95.4374 49.5302 95.3975 49.6249C95.3577 49.7196 95.2993 49.8054 95.2258 49.8773C95.1379 49.9707 95.0301 50.0432 94.9105 50.0896C94.7908 50.1359 94.6623 50.1548 94.5344 50.145H92.1445Z" fill="#303030"/>
<path d="M95.9212 50.1451C95.7927 50.1547 95.6637 50.1356 95.5434 50.0893C95.4232 50.043 95.3147 49.9706 95.2258 49.8774C95.1523 49.8055 95.094 49.7197 95.0541 49.625C95.0142 49.5303 94.9937 49.4286 94.9937 49.3258C94.9937 49.2231 95.0142 49.1214 95.0541 49.0266C95.094 48.9319 95.1523 48.8461 95.2258 48.7743C95.3152 48.6817 95.4238 48.6097 95.5439 48.5635C95.664 48.5172 95.7928 48.4978 95.9212 48.5065H104.362C104.49 48.4973 104.618 48.5165 104.738 48.5628C104.857 48.6091 104.965 48.6813 105.053 48.7743C105.127 48.8461 105.185 48.9319 105.225 49.0266C105.265 49.1214 105.285 49.2231 105.285 49.3258C105.285 49.4286 105.265 49.5303 105.225 49.625C105.185 49.7197 105.127 49.8055 105.053 49.8774C104.966 49.971 104.858 50.0437 104.738 50.0901C104.619 50.1364 104.49 50.1552 104.362 50.1451H101.317V72.8337C101.325 72.9572 101.301 73.0808 101.247 73.1923C101.193 73.3037 101.111 73.3992 101.009 73.4691C100.822 73.5994 100.599 73.6693 100.371 73.6693C100.143 73.6693 99.921 73.5994 99.7339 73.4691C99.6318 73.3992 99.5496 73.3037 99.4957 73.1923C99.4417 73.0808 99.4178 72.9572 99.4262 72.8337V50.1451H95.9212Z" fill="#303030"/>
<path d="M64.4762 119.302C64.1605 118.764 63.7136 118.314 63.1773 117.995C62.5826 117.655 61.9118 117.471 61.227 117.459C60.785 117.452 60.3461 117.535 59.9377 117.704C59.5293 117.873 59.1601 118.125 58.853 118.443C58.5412 118.754 58.2939 119.124 58.1252 119.532C57.9564 119.939 57.8696 120.376 57.8696 120.816C57.8696 121.257 57.9564 121.694 58.1252 122.101C58.2939 122.509 58.5412 122.879 58.853 123.19C58.946 123.277 59.0448 123.357 59.1487 123.43C59.4552 123.794 59.8375 124.087 60.269 124.288C60.7005 124.489 61.1707 124.593 61.6466 124.593C62.5347 124.587 63.3845 124.231 64.0121 123.603C64.6397 122.974 64.9945 122.124 64.9997 121.236C64.9923 120.557 64.8121 119.892 64.4762 119.302Z" fill="#BAD9E4"/>
<path d="M74.6554 13.8081H73.3925C72.5022 13.8081 71.6483 14.1618 71.0187 14.7914C70.3891 15.421 70.0354 16.2749 70.0354 17.1652C70.0354 18.0556 70.3891 18.9095 71.0187 19.5391C71.6483 20.1687 72.5022 20.5223 73.3925 20.5223H74.6554C75.5458 20.5223 76.3997 20.1687 77.0293 19.5391C77.6589 18.9095 78.0126 18.0556 78.0126 17.1652C78.0126 16.2749 77.6589 15.421 77.0293 14.7914C76.3997 14.1618 75.5458 13.8081 74.6554 13.8081Z" fill="#BAD9E4"/>
<path d="M115.78 55.3525H114.937C114.047 55.3525 113.193 55.7062 112.563 56.3358C111.933 56.9654 111.58 57.8193 111.58 58.7097C111.58 59.6 111.933 60.4539 112.563 61.0835C113.193 61.7131 114.047 62.0668 114.937 62.0668H115.78C116.671 62.0668 117.524 61.7131 118.154 61.0835C118.784 60.4539 119.137 59.6 119.137 58.7097C119.137 57.8193 118.784 56.9654 118.154 56.3358C117.524 55.7062 116.671 55.3525 115.78 55.3525Z" fill="#BAD9E4"/>
<path d="M21.2532 111.584H20.9375C16.6092 111.584 16.6092 118.299 20.9375 118.299H21.2532C25.5815 118.299 25.5815 111.584 21.2532 111.584Z" fill="#BAD9E4"/>
<path d="M18.9072 10.5869C18.4179 10.5908 17.9354 10.7024 17.494 10.9137C17.0526 11.1251 16.6632 11.431 16.3534 11.8099C15.9744 12.1195 15.6683 12.5089 15.4569 12.9503C15.2455 13.3917 15.1341 13.8743 15.1305 14.3637C15.1388 15.2515 15.4952 16.1005 16.123 16.7283C16.7507 17.3561 17.5998 17.7125 18.4876 17.7208C18.9887 17.7399 19.4883 17.6552 19.9552 17.4722C20.422 17.2891 20.846 17.0116 21.2006 16.657C21.5552 16.3025 21.8327 15.8785 22.0157 15.4116C22.1988 14.9448 22.2834 14.4451 22.2643 13.944C22.256 13.0563 21.8996 12.2072 21.2719 11.5794C20.6441 10.9516 19.795 10.5953 18.9072 10.5869Z" fill="#BAD9E4"/>
<path d="M135.088 126.819C134.68 126.717 134.26 126.674 133.841 126.691C133.357 126.697 132.88 126.806 132.443 127.013C132.005 127.22 131.618 127.52 131.307 127.89C131.223 127.962 131.135 128.022 131.047 128.102C129.68 129.321 129.804 131.611 131.047 132.85C131.601 133.396 132.327 133.733 133.102 133.801C133.876 133.87 134.651 133.666 135.291 133.226L135.192 133.306C135.264 133.255 135.34 133.21 135.419 133.17C136.119 132.899 136.708 132.402 137.094 131.759C138.225 129.857 137.122 127.435 135.088 126.819Z" fill="#BAD9E4"/>
<path d="M83.0483 63.3258C80.8821 63.3258 80.8821 66.6829 83.0483 66.6829C85.2144 66.6829 85.2104 63.3258 83.0483 63.3258Z" fill="#BAD9E4"/>
<path d="M90.1781 36.4688C88.016 36.4688 88.016 39.8259 90.1781 39.8259C92.3403 39.8259 92.3443 36.4688 90.1781 36.4688Z" fill="#BAD9E4"/>
<path d="M17.988 19.6831C15.8219 19.6831 15.8219 23.0402 17.988 23.0402C20.1542 23.0402 20.1661 19.6831 17.988 19.6831Z" fill="#BAD9E4"/>
<path d="M83.6757 124.485C80.5664 124.485 80.5664 129.313 83.6757 129.313C86.785 129.313 86.785 124.485 83.6757 124.485Z" fill="#BAD9E4"/>
<path d="M37.7231 125.852C35.5609 125.852 35.5609 129.209 37.7231 129.209C39.8852 129.209 39.8892 125.852 37.7231 125.852Z" fill="#BAD9E4"/>
<path d="M110.741 117.459C108.578 117.459 108.578 120.816 110.741 120.816C112.903 120.816 112.907 117.459 110.741 117.459Z" fill="#BAD9E4"/>
<path d="M67.5216 36.8883C67.1263 36.8917 66.7448 37.0335 66.4432 37.2891C66.1417 37.5446 65.9392 37.8978 65.871 38.2871C65.7255 38.4343 65.6109 38.6092 65.534 38.8014C65.4571 38.9935 65.4195 39.1992 65.4234 39.4061C65.4234 40.2534 66.1867 41.1726 67.0979 41.0847C67.4505 41.0837 67.7971 40.9934 68.1053 40.8222C68.4135 40.6509 68.6733 40.4044 68.8604 40.1055C69.1027 39.63 69.2183 39.1001 69.1961 38.5669C69.193 38.1233 69.0157 37.6988 68.7024 37.3848C68.3892 37.0708 67.9651 36.8925 67.5216 36.8883Z" fill="#BAD9E4"/>
<path d="M84.7308 4.99573H84.3112C84.0907 4.99573 83.8725 5.03914 83.6688 5.1235C83.4652 5.20786 83.2801 5.3315 83.1242 5.48737C82.9684 5.64324 82.8447 5.82828 82.7604 6.03193C82.676 6.23558 82.6326 6.45386 82.6326 6.67429C82.6326 6.89472 82.676 7.11299 82.7604 7.31665C82.8447 7.5203 82.9684 7.70534 83.1242 7.86121C83.2801 8.01708 83.4652 8.14072 83.6688 8.22508C83.8725 8.30943 84.0907 8.35285 84.3112 8.35285H84.7308C85.176 8.35285 85.6029 8.176 85.9177 7.86121C86.2325 7.54642 86.4094 7.11947 86.4094 6.67429C86.4094 6.22911 86.2325 5.80216 85.9177 5.48737C85.6029 5.17258 85.176 4.99573 84.7308 4.99573Z" fill="#BAD9E4"/>
<path d="M134.448 47.6431C134.396 47.5192 134.348 47.3913 134.304 47.2634C134.279 47.1913 134.258 47.1179 134.24 47.0436C134.242 47.0157 134.242 46.9876 134.24 46.9597C134.251 46.7326 134.216 46.5057 134.137 46.2926C134.058 46.0795 133.936 45.8848 133.779 45.7202C133.623 45.5556 133.434 45.4245 133.225 45.3349C133.016 45.2454 132.791 45.1992 132.564 45.1992C132.336 45.1992 132.112 45.2454 131.903 45.3349C131.694 45.4245 131.505 45.5556 131.348 45.7202C131.192 45.8848 131.07 46.0795 130.991 46.2926C130.911 46.5057 130.876 46.7326 130.887 46.9597C130.894 47.4007 130.965 47.8384 131.099 48.2586C131.143 48.3824 131.195 48.4983 131.247 48.6222C131.327 48.8141 131.339 49.1977 131.307 48.6222C131.307 49.0674 131.484 49.4944 131.799 49.8092C132.113 50.124 132.54 50.3008 132.985 50.3008C133.431 50.3008 133.858 50.124 134.172 49.8092C134.487 49.4944 134.664 49.0674 134.664 48.6222C134.648 48.286 134.575 47.9549 134.448 47.6431Z" fill="#BAD9E4"/>
<path d="M136.762 11.2904C136.438 11.2852 136.12 11.3788 135.85 11.5587C135.58 11.7385 135.371 11.9962 135.251 12.2975C134.949 12.4168 134.691 12.6253 134.51 12.8951C134.33 13.165 134.236 13.4835 134.24 13.8082C134.24 14.6595 135.008 15.5667 135.923 15.4868C136.581 15.4565 137.203 15.1814 137.668 14.7155C138.133 14.2496 138.408 13.6266 138.437 12.9689C138.521 12.0537 137.613 11.2904 136.762 11.2904Z" fill="#BAD9E4"/>
<path d="M132.985 73.8168C130.819 73.8168 130.819 77.1739 132.985 77.1739C135.152 77.1739 135.148 73.8168 132.985 73.8168Z" fill="#BAD9E4"/>
<path d="M15.9058 43.6025C15.4615 43.6067 15.0366 43.7847 14.722 44.0985C14.4075 44.4123 14.2285 44.8368 14.2232 45.2811C14.2232 45.449 14.2232 45.6128 14.2232 45.7807C14.2232 45.8286 14.2033 45.8886 14.1953 45.9325C13.9243 46.2668 13.7927 46.6928 13.8281 47.1217C13.8634 47.5505 14.0628 47.9492 14.3849 48.2347C14.7069 48.5201 15.1267 48.6703 15.5567 48.6539C15.9867 48.6375 16.3938 48.4558 16.6931 48.1466C17.4165 47.3473 17.6004 46.3402 17.6043 45.2811C17.5991 44.8341 17.4178 44.4072 17.0998 44.0929C16.7819 43.7787 16.3528 43.6025 15.9058 43.6025Z" fill="#BAD9E4"/>
<path d="M53.6734 19.2635H53.2538C52.8086 19.2635 52.3817 19.4404 52.0669 19.7552C51.7521 20.07 51.5752 20.4969 51.5752 20.9421C51.5752 21.3873 51.7521 21.8142 52.0669 22.129C52.3817 22.4438 52.8086 22.6207 53.2538 22.6207H53.6734C54.1186 22.6207 54.5456 22.4438 54.8603 22.129C55.1751 21.8142 55.352 21.3873 55.352 20.9421C55.352 20.4969 55.1751 20.07 54.8603 19.7552C54.5456 19.4404 54.1186 19.2635 53.6734 19.2635Z" fill="#BAD9E4"/>
<rect x="5.5" y="1.5" width="137" height="137" stroke="#D8E1E5" stroke-width="3"/>
</g>
<defs>
<filter id="filter0_d" x="0" y="0" width="148" height="148" filterUnits="userSpaceOnUse" color-interpolation-filters="sRGB">
<feFlood flood-opacity="0" result="BackgroundImageFix"/>
<feColorMatrix in="SourceAlpha" type="matrix" values="0 0 0 0 0 0 0 0 0 0 0 0 0 0 0 0 0 0 127 0"/>
<feOffset dy="4"/>
<feGaussianBlur stdDeviation="2"/>
<feColorMatrix type="matrix" values="0 0 0 0 0 0 0 0 0 0 0 0 0 0 0 0 0 0 0.25 0"/>
<feBlend mode="normal" in2="BackgroundImageFix" result="effect1_dropShadow"/>
<feBlend mode="normal" in="SourceGraphic" in2="effect1_dropShadow" result="shape"/>
</filter>
</defs>
</svg>
