<svg width="148" height="148" viewBox="0 0 148 148" fill="none" xmlns="http://www.w3.org/2000/svg">
<g filter="url(#filter0_d)">
<path d="M144 0H4V140H144V0Z" fill="#F9F3E0"/>
<path d="M125.624 27.3527C126.859 27.3853 128.084 27.5856 129.265 27.9481C130.461 28.335 131.519 29.0612 132.31 30.0384C133.011 30.9124 133.63 31.8489 134.16 32.836C134.726 33.8663 135.197 34.9458 135.567 36.0612C135.94 37.1748 136.19 38.3261 136.311 39.4942C136.431 40.6091 136.392 41.7355 136.195 42.8394C135.675 45.3865 134.64 47.4368 133.089 48.9901C131.554 50.5319 129.683 51.6973 127.622 52.3952C125.469 53.1205 123.208 53.4732 120.936 53.4383C118.665 53.4323 116.406 53.1217 114.218 52.5151C113.922 52.4501 113.646 52.3158 113.413 52.1234C113.179 51.9309 112.995 51.6857 112.875 51.408C112.659 50.9033 112.615 50.3414 112.751 49.8094C112.893 49.2672 113.221 48.792 113.678 48.4666C113.925 48.2875 114.213 48.1719 114.515 48.1301C114.818 48.0883 115.126 48.1215 115.413 48.2268C116.406 48.5366 117.425 48.756 118.458 48.8822C120.22 48.4984 121.891 47.7793 123.382 46.764C124.882 45.7417 126.071 44.3257 126.819 42.6715C127.38 41.5938 127.615 40.3757 127.494 39.1665C127.366 38.1565 126.987 37.1948 126.391 36.3689C125.755 35.4927 124.989 34.7179 124.121 34.0709C123.206 33.3755 122.271 32.7241 121.323 32.1286L120.964 31.9487C120.644 31.9887 120.348 32.0207 120.069 32.0406C119.789 32.0606 119.513 32.0686 119.233 32.0686C118.791 32.0778 118.358 31.937 118.006 31.669C117.67 31.4095 117.403 31.0702 117.231 30.6818C117.055 30.2899 116.994 29.8561 117.055 29.4309C117.115 28.9884 117.337 28.5839 117.679 28.2959C118.078 27.9761 118.506 27.6364 118.965 27.2807C119.425 26.925 119.909 26.5613 120.428 26.2056C120.759 25.4635 120.932 24.6604 120.936 23.8477C120.961 23.0791 120.93 22.3098 120.844 21.5456C120.765 21.1695 120.656 20.8006 120.516 20.4426C120.331 19.9302 120.112 19.4308 119.861 18.9479C119.614 18.4689 119.302 18.0264 118.933 17.633C118.803 17.4696 118.64 17.3349 118.455 17.2373C118.27 17.1397 118.067 17.0812 117.858 17.0655C117.678 17.0736 117.498 17.0547 117.323 17.0095C116.369 17.276 115.483 17.5637 114.665 17.8728C113.866 18.1725 113.202 18.4203 112.723 18.6201C112.451 18.7434 112.154 18.7971 111.856 18.7761C111.559 18.7552 111.272 18.6604 111.02 18.5002C110.575 18.1963 110.257 17.74 110.125 17.2173C109.987 16.6628 110.018 16.0798 110.213 15.5428C110.322 15.2505 110.497 14.9876 110.725 14.7753C110.954 14.5629 111.228 14.407 111.528 14.3198C112.363 14.0041 113.322 13.6524 114.393 13.2767C115.464 12.901 116.584 12.5573 117.739 12.2616C118.897 11.9612 120.075 11.7409 121.264 11.6022C122.396 11.4611 123.542 11.4812 124.669 11.6621C125.71 11.8342 126.706 12.2178 127.594 12.7891C128.527 13.4115 129.271 14.2783 129.744 15.295C130.305 16.3862 130.602 17.5934 130.611 18.82C130.597 19.8973 130.373 20.9616 129.952 21.9533C129.506 22.9679 128.912 23.9108 128.19 24.7509C127.431 25.6499 126.614 26.4977 125.744 27.2887L125.624 27.3527ZM125.979 18.752C125.955 18.0741 125.669 17.432 125.18 16.9616C124.677 16.5422 124.066 16.2722 123.418 16.1822C124.217 17.3006 124.803 18.5565 125.148 19.8871C125.227 20.1295 125.278 20.3803 125.3 20.6344C125.32 20.8942 125.348 21.162 125.388 21.4337C125.805 20.6028 126.008 19.6812 125.979 18.752ZM130.775 44.8497C131.342 43.9518 131.748 42.9617 131.974 41.9242C132.021 41.6874 132.042 41.4461 132.034 41.2048L131.854 42.104C131.596 43.0274 131.256 43.9261 130.839 44.7897L130.775 44.8497Z" fill="#303030"/>
<path d="M57.3103 89.5952C57.71 83.8561 58.1456 78.1211 58.2055 72.31C58.2815 65.0403 64.2563 65.8795 69.9555 65.9595C75.8544 66.0434 81.8053 66.9426 87.6203 66.7108C89.7905 66.6269 94.4824 65.8596 96.4727 66.9027C99.0425 68.2495 98.3032 71.4827 98.1393 74.0965C97.6198 82.4174 97.8236 90.4825 97.3 98.8353C96.7965 106.88 97.6078 115.453 96.4248 123.162C90.8655 125.317 82.3369 122.763 76.326 122.675C71.8379 122.615 61.107 125.165 58.0137 121.416C54.9203 117.667 56.531 108.575 56.5909 104.091C56.6509 99.235 56.9706 94.4151 57.3103 89.5952Z" fill="#BAD9E4"/>
<path d="M96.4727 66.9026C94.4745 65.8595 89.7905 66.6268 87.6203 66.7108C84.54 66.7859 81.4579 66.6899 78.3882 66.423C80.8821 65.4878 83.2121 61.727 84.2232 59.5609C84.7348 58.4658 85.2224 54.2374 83.0842 54.2374C79.4873 54.2374 77.7888 58.8215 76.9775 62.97C76.0662 61.1076 74.8433 59.3371 73.9161 57.7105C72.9889 56.0839 69.0163 50.3927 66.4824 52.3431C63.8727 54.3414 67.022 58.9654 68.4607 60.7119C69.7317 62.2506 71.3463 63.5095 72.881 64.7844C73.4405 65.244 73.98 65.7116 74.5315 66.1552C73.0049 66.0593 71.4782 65.9834 69.9555 65.9594C64.2564 65.8795 58.2815 65.0402 58.2055 72.31C58.2055 72.7536 58.2055 73.1932 58.1816 73.6368C58.1816 73.6368 96.4528 75.5632 98.0634 75.5512C98.0874 75.0676 98.1073 74.584 98.1393 74.1004C98.3192 71.4827 99.0425 68.2494 96.4727 66.9026ZM80.8861 57.2748C81.4536 56.2797 83.0682 55.5044 83.0323 57.2748C83.0003 58.9294 82.0531 60.2883 80.966 61.4553C80.3186 62.1547 79.4953 62.8381 78.7839 63.5934C79.1136 61.3825 79.8221 59.245 80.8781 57.2748H80.8861ZM67.7334 55.4444C66.7702 52.411 70.3311 56.1318 70.8907 56.7513C71.8254 57.8542 72.63 59.0611 73.2886 60.3482C74.0879 61.783 75.139 63.3257 75.7825 64.9483C74.9832 64.2009 74.2238 63.4216 73.4205 62.7422C71.0106 60.7479 68.6886 58.4858 67.7254 55.4444H67.7334Z" fill="#303030"/>
<path d="M66.1427 78.8484C64.3803 79.1521 62.9735 81.1584 63.1733 82.9049C63.2115 83.0707 63.3134 83.2148 63.457 83.306C63.6006 83.3973 63.7743 83.4283 63.9406 83.3925C64.2661 83.3103 64.5701 83.159 64.8319 82.9489C64.4922 83.1887 65.3154 82.6811 65.2835 82.7091C65.4115 82.6004 65.5329 82.4843 65.6472 82.3614C65.887 82.1176 66.0788 81.8818 66.3146 81.654C66.5022 81.4477 66.7309 81.283 66.986 81.1704C68.2969 80.5269 67.4976 78.6126 66.1427 78.8484Z" fill="white"/>
<path d="M80.5304 82.8889C80.5364 82.6361 80.4623 82.3879 80.3188 82.1798C80.1752 81.9716 79.9695 81.8142 79.7311 81.7299C78.644 81.3303 77.8207 81.8618 77.1293 82.6731C76.928 82.9061 76.7513 83.1593 76.6018 83.4285C76.4626 83.6338 76.3461 83.8536 76.2541 84.0839C76.1897 84.367 76.1748 84.659 76.2101 84.9472C76.2661 85.2022 76.412 85.4286 76.6211 85.5849C76.8303 85.7412 77.0887 85.817 77.3491 85.7984C77.9886 85.7745 78.3443 85.4308 78.7399 84.9991C78.8878 84.8273 79.0197 84.6634 79.1396 84.4836L79.2595 84.3197C79.3113 84.2597 79.3674 84.2036 79.4274 84.1519C79.4813 84.1153 79.5374 84.0819 79.5952 84.0519L79.871 83.8601C80.0601 83.7752 80.2218 83.6394 80.3383 83.4679C80.4547 83.2965 80.5212 83.096 80.5304 82.8889Z" fill="white"/>
<path d="M65.3354 91.9213C64.6238 92.388 64.0388 93.0237 63.6329 93.7717C63.2332 94.3552 62.4139 95.6181 63.0214 96.2855C63.7568 97.0848 64.9677 95.9538 65.4193 95.4023C65.9309 94.7788 66.1587 93.9635 66.5863 93.3001C67.0899 92.5247 66.1867 91.4057 65.3354 91.9213Z" fill="white"/>
<path d="M77.3091 94.0034C75.7785 94.567 73.5484 95.9538 73.98 97.9161C74.0337 98.1333 74.149 98.3303 74.3122 98.4833C74.4753 98.6364 74.6792 98.7389 74.8994 98.7787C75.1195 98.8184 75.3464 98.7935 75.5528 98.7072C75.7591 98.6208 75.936 98.4765 76.0622 98.2918C76.3859 97.7802 76.5098 97.2327 76.9255 96.7651C77.3602 96.2964 77.8205 95.8521 78.3043 95.4342C79.1076 94.7188 78.1924 93.6757 77.3091 94.0034Z" fill="white"/>
<path d="M88.3957 87.8646L88.2918 87.8007C88.4636 87.9605 88.4316 87.9405 88.2078 87.7407C88.0053 87.6183 87.7731 87.5533 87.5364 87.5529C87.1196 87.551 86.7148 87.6921 86.3894 87.9525C85.8139 88.4002 85.4382 89.3713 85.8339 90.0347C86.1776 90.6063 87.0608 90.91 87.5804 90.3465C87.7972 90.1281 87.9434 89.8497 88 89.5472C88.064 89.4952 88.1199 89.4672 88 89.5472C88.0862 89.4981 88.169 89.4434 88.2478 89.3833L88.3118 89.3473C88.4487 89.2819 88.5655 89.1809 88.65 89.0548C88.7346 88.9288 88.7837 88.7823 88.7923 88.6308C88.8008 88.4793 88.7685 88.3282 88.6988 88.1934C88.629 88.0587 88.5243 87.9451 88.3957 87.8646Z" fill="white"/>
<path d="M94.9301 79.8397C94.6887 79.6904 94.399 79.6399 94.1214 79.6987C93.8438 79.7575 93.5995 79.9211 93.4393 80.1554C93.0791 80.5271 92.8443 81.0023 92.7679 81.5142C92.7679 81.5542 92.7679 81.5901 92.7679 81.6221C92.7679 81.6541 92.7239 81.746 92.7 81.81C92.6568 81.96 92.6287 82.114 92.616 82.2696C92.5855 82.3703 92.5817 82.4772 92.6049 82.5799C92.6281 82.6825 92.6776 82.7774 92.7485 82.8551C92.8194 82.9329 92.9093 82.9909 93.0094 83.0235C93.1095 83.056 93.2163 83.062 93.3194 83.0409C93.4954 83.0166 93.6666 82.9654 93.827 82.889C93.9799 82.8016 94.1232 82.6985 94.2546 82.5813C94.8501 82.3415 95.1539 81.6581 95.3577 81.0826C95.4319 80.8571 95.4302 80.6136 95.353 80.3892C95.2758 80.1647 95.1273 79.9717 94.9301 79.8397Z" fill="white"/>
<path d="M92.6321 96.1336L92.5881 96.1016C92.4422 95.9605 92.2637 95.8575 92.0685 95.8018C91.7582 95.6981 91.4262 95.6775 91.1054 95.7419C90.5237 95.9167 90.0173 96.2811 89.6666 96.777C89.2764 97.2007 89.0132 97.7256 88.9072 98.2917C88.9552 97.98 88.8713 98.2717 88.8473 98.3397C88.772 98.4866 88.7258 98.6468 88.7114 98.8113C88.7114 98.8672 88.7114 99.111 88.7114 99.2429C88.7108 99.4517 88.7891 99.6529 88.9307 99.8064C89.0723 99.9598 89.2666 100.054 89.4748 100.07C89.6935 100.093 89.9147 100.067 90.1221 99.9938C90.3295 99.9205 90.518 99.8019 90.6737 99.6465L90.9335 99.3468L91.0054 99.2909C91.1903 99.1224 91.3433 98.922 91.4571 98.6994C91.545 98.5475 91.6329 98.3956 91.7288 98.2517L91.7728 98.1958C91.7728 98.1958 91.8647 98.0879 91.9007 98.0559C92.0206 97.972 92.1605 97.8841 92.1884 97.8641L92.2484 97.8361H92.3163C93.1876 97.7242 93.2196 96.5652 92.6321 96.1336Z" fill="white"/>
<path d="M82.4727 103.383C82.0636 103.231 81.618 103.205 81.194 103.309C80.77 103.413 80.387 103.642 80.0948 103.967C79.8183 104.275 79.5658 104.604 79.3394 104.95C79.0277 105.434 78.5881 105.969 78.728 106.601C78.765 106.767 78.8398 106.923 78.9467 107.055C79.0535 107.188 79.1894 107.295 79.344 107.366C79.4985 107.438 79.6675 107.474 79.8379 107.47C80.0083 107.466 80.1755 107.423 80.3266 107.344C80.7585 107.08 81.1269 106.724 81.4057 106.301C81.5975 106.009 81.7454 105.697 81.9492 105.414C82.0291 105.33 82.0891 105.25 82.165 105.182C82.2409 105.114 82.2649 105.094 82.193 105.158C82.2589 105.121 82.327 105.087 82.3968 105.058C83.1921 104.838 83.332 103.651 82.4727 103.383Z" fill="white"/>
<path d="M86.3294 111.76C85.6812 112.141 85.1513 112.695 84.7987 113.359C84.455 113.97 84.0234 114.69 84.0914 115.401C84.1304 115.587 84.2302 115.754 84.375 115.876C84.5198 115.998 84.7013 116.069 84.8907 116.076C86.4653 116.028 86.3414 114.014 87.3685 113.247C88.2078 112.627 87.2207 111.253 86.3294 111.76Z" fill="white"/>
<path d="M71.9418 104.402C71.2584 105.202 69.1642 107.272 70.6309 108.231C72.0257 109.146 73.2447 106.437 73.5724 105.462C73.8521 104.57 72.6132 103.619 71.9418 104.402Z" fill="white"/>
<path d="M63.0654 107.28C62.337 107.932 61.7034 108.683 61.183 109.51C60.7834 110.166 59.9281 111.345 60.8873 111.972C61.8464 112.6 62.6298 111.409 63.0694 110.745C63.5813 109.916 64.0237 109.046 64.3923 108.143C64.748 107.364 63.6369 106.769 63.0654 107.28Z" fill="white"/>
<path d="M73.94 113.962C72.2175 113.771 70.4111 115.861 70.0354 117.379C69.9225 117.721 69.9498 118.093 70.1113 118.414C70.2729 118.735 70.5553 118.979 70.8967 119.092C71.238 119.205 71.6101 119.178 71.9313 119.016C72.2525 118.855 72.4963 118.572 72.6092 118.231C72.5492 118.335 72.5612 118.311 72.6492 118.159C72.7371 118.007 72.813 117.887 72.8929 117.759C73.0418 117.515 73.2159 117.287 73.4125 117.08C73.8521 116.616 74.2118 116.392 74.6634 115.989C74.8311 115.833 74.9494 115.631 75.0037 115.409C75.058 115.186 75.0459 114.953 74.9689 114.737C74.8919 114.522 74.7535 114.333 74.5706 114.196C74.3877 114.058 74.1685 113.977 73.94 113.962Z" fill="white"/>
<path d="M19.4627 106.045C19.7385 100.45 19.143 93.4918 20.9694 88.3442C22.5681 83.86 26.7925 82.9968 31.0528 82.8809C37.2795 82.705 43.7539 82.8289 49.9766 83.1367C52.7742 83.2765 56.459 82.8289 59.1687 83.5963C66.2027 85.5945 61.4627 101.581 61.207 106.704C60.9672 111.568 62.6417 121.947 57.0945 123.762C54.6286 124.561 50.5761 123.978 47.9543 124.114C44.849 124.277 41.7596 124.341 38.6583 124.341C33.8624 124.341 24.8861 126.511 21.2252 122.343C17.948 118.598 19.2349 110.557 19.4627 106.045Z" fill="#D9603E"/>
<path d="M29.7379 97.2725C33.7345 97.5003 37.775 97.7641 41.8036 97.7961C45.3743 97.7909 48.9424 97.6055 52.4944 97.2405C55.6118 96.9488 58.793 97.2645 61.8864 96.9088C61.8864 96.9648 61.9263 97.0167 61.9543 97.0807C62.01 97.1868 62.1022 97.2691 62.2139 97.3125C62.3255 97.3558 62.4491 97.3572 62.5618 97.3165C62.6377 96.733 62.7097 96.1455 62.7696 95.554C62.618 95.4769 62.447 95.4463 62.278 95.4661C59.2646 95.9297 56.1353 95.546 53.0859 95.8217C49.0134 96.1894 44.9769 96.4772 40.8844 96.4532C33.8784 96.4172 26.7245 95.3382 19.7025 95.57C19.6786 95.9456 19.6626 96.3173 19.6466 96.693C22.9837 97.0807 26.4048 97.0847 29.7379 97.2725Z" fill="white"/>
<path d="M26.5487 102.48C31.1407 102.88 35.7408 102.88 40.3608 102.88C47.4867 102.844 54.5847 102.756 61.6946 102.908C61.7625 102.508 61.8344 102.049 61.9104 101.601C55.0682 101.457 48.2381 101.549 41.38 101.601C37.1236 101.645 32.8633 101.653 28.5909 101.461C26.4088 101.365 24.2546 101.133 22.0885 100.878C21.6129 100.822 20.5778 100.846 19.5467 100.782C19.5467 101.121 19.5467 101.461 19.5467 101.801C21.8687 102.212 24.3226 102.312 26.5487 102.48Z" fill="white"/>
<path d="M29.9058 111.964C27.7357 111.904 25.5815 111.828 23.4154 111.904C22.4242 111.94 20.5778 112.232 19.0551 112.176C19.0551 112.444 19.0551 112.711 19.0351 112.975C21.529 113.475 24.6663 112.895 26.9004 112.975C31.3486 113.167 35.7968 113.203 40.2449 113.355C47.2429 113.599 54.233 113.998 61.2389 114.39C61.2389 113.958 61.2389 113.531 61.2389 113.103C54.8764 112.786 48.5125 112.48 42.1473 112.184C38.0788 112.016 33.9743 112.056 29.9058 111.964Z" fill="white"/>
<path d="M27.9515 118.363C32.6315 118.475 37.3115 118.998 41.9595 119.518C46.8872 120.069 51.7151 120.485 56.6789 120.681L60.1159 120.821C60.3467 120.305 60.5326 119.77 60.6714 119.222C59.6763 119.266 58.6731 119.29 57.7419 119.25C52.7902 119.062 47.8184 119.05 42.9266 118.175C38.3785 117.375 33.5547 117.188 28.9386 117.032C25.6534 116.916 22.5041 117.431 19.3468 117.923C19.4228 118.323 19.5187 118.746 19.6266 119.122C22.3842 118.81 25.1459 118.299 27.9515 118.363Z" fill="white"/>
<path d="M40.1011 108.359C44.6113 108.574 49.1308 108.488 53.6295 108.099C56.1473 107.88 58.6612 107.576 61.175 107.336C61.175 107.116 61.175 106.904 61.195 106.705C61.215 106.505 61.227 106.249 61.2509 105.997C54.8564 106.441 48.4619 107.364 42.0434 107.248C37.4553 107.168 32.8753 106.972 28.2872 106.928C25.4296 106.904 22.3802 106.98 19.4228 106.705C19.4228 106.944 19.3908 107.192 19.3708 107.444C26.121 108.647 33.4068 108.043 40.1011 108.359Z" fill="white"/>
<path d="M59.1527 83.5964C56.455 82.829 52.7862 83.2767 49.9606 83.1368C48.5898 83.0688 47.207 83.0169 45.8162 82.9689C49.8127 81.9418 53.6614 78.8365 54.3888 74.9158C54.4405 74.8016 54.4664 74.6775 54.4647 74.5521C54.4628 74.5255 54.4628 74.4988 54.4647 74.4722C54.4579 74.2504 54.3677 74.0394 54.2123 73.881C54.0569 73.7227 53.8476 73.6286 53.626 73.6175C53.4044 73.6064 53.1868 73.6792 53.0164 73.8212C52.8459 73.9633 52.7352 74.1643 52.7063 74.3843V74.4642C52.6982 74.5399 52.6982 74.6163 52.7063 74.692C52.5424 79.2241 46.4516 81.77 42.5909 82.1816C43.2943 80.7109 44.3294 79.5359 45.5364 78.237C46.5835 77.1099 47.2389 75.3874 47.7905 73.9726C48.4299 72.338 49.1253 67.8419 46.3077 67.6141C43.9617 67.4302 42.527 70.4117 41.6757 72.1622C41.0163 73.505 40.6086 74.9278 40.0771 76.3186C39.801 77.0255 39.5949 77.7577 39.4616 78.5047C39.2898 77.8653 39.1219 77.2258 38.974 76.5824C38.4824 74.4602 38.2506 72.8736 37.0757 71.0112C35.9007 69.1488 32.4956 65.8156 30.1656 68.1456C27.8356 70.4756 29.8858 74.2804 31.3246 76.5384C33.0631 79.2521 35.3212 80.7428 37.863 82.0737C36.3243 81.5741 34.8576 81.1665 33.2469 80.7788C30.777 80.1713 29.5781 78.1211 28.0594 76.3346C27.1641 75.2915 25.6335 76.7023 26.4887 77.7574C27.8915 79.4919 29.0625 81.2664 31.2247 82.1536C31.8242 82.3974 32.4836 82.6292 33.171 82.833C32.4636 82.833 31.7522 82.833 31.0528 82.869C26.7925 82.9849 22.5601 83.8482 20.9695 88.3323C20.4982 89.7031 20.1687 91.1187 19.9863 92.5567C26.0211 92.6726 32.044 92.4048 38.0348 92.3409C38.0348 93.1402 38.0348 93.9795 38.0588 94.8028C38.1068 97.7802 38.0868 100.798 38.0148 103.783C37.9349 107.096 38.3226 110.385 38.1947 113.715C38.0708 116.912 37.2035 121.344 38.5224 124.306C38.5741 124.404 38.6504 124.487 38.744 124.547C38.8375 124.607 38.9451 124.641 39.056 124.647C39.1669 124.652 39.2774 124.629 39.3765 124.579C39.4757 124.529 39.5601 124.454 39.6215 124.361C40.8964 121.94 40.0611 118.367 40.197 115.677C40.3709 112.289 40.3496 108.895 40.133 105.51C39.9459 102.381 39.9325 99.244 40.0931 96.1137C40.149 94.8587 40.0931 93.5998 40.0651 92.3449C43.698 92.3449 47.3149 92.4328 50.9158 92.7445C54.4008 93.0603 59.3925 94.523 62.9455 93.372C63.1933 88.724 62.5298 84.5476 59.1527 83.5964ZM41.7756 76.8821C42.551 74.756 43.2424 72.7017 44.5013 70.7954C44.8219 70.2799 45.2401 69.8319 45.7322 69.4765C47.207 68.4813 46.2918 72.8776 46.3277 72.7417C45.9055 74.1434 45.2765 75.4743 44.4613 76.6903C43.4382 78.3529 42.1673 79.4879 41.2641 80.9706C41.4079 79.5958 41.328 78.1131 41.7796 76.8821H41.7756ZM37.779 80.0794C34.6417 78.6766 32.2198 75.3155 31.1967 72.0863C30.7731 71.0205 31.1447 70.08 32.3117 69.2647C33.251 69.4993 34.0842 70.0426 34.6777 70.8073C35.8217 72.0497 36.5944 73.588 36.9078 75.2475C37.2515 76.9181 37.6751 78.5607 38.1068 80.2033L37.779 80.0794Z" fill="#778890"/>
<path d="M128.953 110.781C129.245 104.934 129.696 99.4428 127.039 94.0515C124.197 88.2804 117.547 90.3906 111.927 90.1148C107.507 89.895 98.9786 88.0686 95.3457 90.4186C91.1173 93.1522 92.724 100.602 92.712 104.806C92.7 109.011 90.6897 117.715 93.4354 121.344C96.0851 124.849 105.149 123.874 109.186 123.874C114.21 123.874 120.688 125.121 125.536 124.138C130.879 123.055 128.713 115.557 128.953 110.781Z" fill="#778890"/>
<path d="M127.039 94.0514C124.197 88.2804 117.547 90.3906 111.927 90.1148C111.488 90.0908 111 90.0509 110.485 90.0029C110.836 89.8151 111.184 89.6032 111.532 89.3994C113.846 88.9438 116.18 88.8559 118.49 88.0086C121.475 86.9136 123.713 85.0591 126.347 83.3446C126.935 82.9449 126.451 81.9858 125.836 82.3615C123.462 83.8322 121.419 85.6746 118.814 86.7577C117.003 87.521 115.105 87.8248 113.238 88.2404L114.393 87.4131C116.304 86.0543 118.302 84.7274 119.941 83.0489C122.167 80.7748 123.098 77.6335 120.492 75.2995C118.166 73.2133 114.929 76.1788 113.394 77.7854C110.89 80.3751 109.253 83.6797 108.71 87.2413C108.71 87.2173 108.71 87.1933 108.69 87.1693C108.402 86.3874 108.017 85.6448 107.543 84.9592C106.974 83.8789 106.222 82.9053 105.321 82.0817C104.054 81.0466 101.988 80.519 100.605 81.5661C98.8347 82.905 100.325 85.8385 101.484 86.9815C102.929 88.2881 104.694 89.1874 106.6 89.5873C102.464 89.1476 97.8076 88.8359 95.3497 90.4185C93.0237 91.9213 92.4642 94.8507 92.4282 97.8801C103.699 99.5267 117.607 101.141 128.749 99.2989C128.428 97.4783 127.852 95.7118 127.039 94.0514ZM104.762 87.3772C103.415 86.7817 99.8858 84.4916 101.564 82.6172C102.587 81.4662 104.838 83.4405 105.393 84.1959C106.192 85.2949 107.108 86.5938 107.495 87.9247C107.531 88.0526 107.567 88.1765 107.599 88.2964C106.644 87.9447 105.557 87.7289 104.762 87.3772ZM112.847 80.6749C113.958 78.9604 117.567 74.6081 119.865 76.6783C123.498 79.9715 113.962 86.2341 109.873 88.3843C110.275 85.6245 111.292 82.99 112.847 80.6749Z" fill="#D9603E"/>
<path d="M116.372 106.94C116.556 104.57 115.972 102.516 113.206 105.31C112.147 106.377 110.948 109.526 110.733 110.989C110.269 109.39 107.088 100.102 104.678 104.079C102.152 108.247 108.586 114.926 110.88 117.807C112.563 117.1 113.87 114.61 114.785 112.448C115.768 110.705 116.5 108.887 116.372 106.94Z" fill="white"/>
<path d="M97.1202 103.467C97.0551 103.39 96.9728 103.328 96.8798 103.288C96.7869 103.248 96.6858 103.23 96.5846 103.236C96.4249 103.237 96.2718 103.3 96.1566 103.41C96.0413 103.521 95.9726 103.671 95.9645 103.831C95.9563 103.99 96.0093 104.147 96.1127 104.269C96.216 104.391 96.362 104.469 96.5207 104.486C96.6215 104.502 96.7246 104.494 96.8217 104.463C96.9189 104.432 97.0074 104.378 97.0802 104.307C97.1928 104.198 97.2598 104.051 97.2672 103.895C97.2746 103.739 97.222 103.586 97.1202 103.467Z" fill="white"/>
<path d="M100.074 107.832C99.9072 107.824 99.7445 107.882 99.6212 107.994C99.4979 108.106 99.4242 108.263 99.4162 108.429C99.4083 108.596 99.4667 108.758 99.5788 108.882C99.6908 109.005 99.8473 109.079 100.014 109.087C100.18 109.095 100.343 109.036 100.466 108.924C100.589 108.812 100.663 108.655 100.671 108.489C100.679 108.323 100.621 108.16 100.509 108.037C100.397 107.913 100.24 107.84 100.074 107.832Z" fill="white"/>
<path d="M96.9403 112.791C96.8441 112.792 96.749 112.812 96.6605 112.85C96.572 112.887 96.4919 112.942 96.4248 113.011C96.3303 113.113 96.2773 113.246 96.2761 113.385C96.2749 113.523 96.3256 113.657 96.4183 113.761C96.5109 113.864 96.6389 113.929 96.7769 113.942C96.9149 113.956 97.053 113.918 97.1641 113.834C97.2402 113.774 97.3035 113.699 97.3501 113.614C97.3968 113.529 97.426 113.435 97.4359 113.339C97.4402 113.27 97.4307 113.201 97.408 113.136C97.3853 113.071 97.3498 113.012 97.3036 112.961C97.2574 112.91 97.2015 112.868 97.1391 112.839C97.0767 112.81 97.0091 112.794 96.9403 112.791Z" fill="white"/>
<path d="M101.161 114.394C101.037 114.398 100.92 114.449 100.832 114.536C100.744 114.623 100.692 114.74 100.686 114.863C100.68 114.987 100.722 115.108 100.802 115.203C100.881 115.297 100.994 115.358 101.117 115.373C101.24 115.369 101.358 115.318 101.446 115.231C101.534 115.144 101.586 115.028 101.591 114.904C101.597 114.78 101.556 114.659 101.476 114.565C101.396 114.47 101.284 114.409 101.161 114.394Z" fill="white"/>
<path d="M105.201 115.069C105.056 115.062 104.914 115.112 104.806 115.21C104.698 115.307 104.633 115.444 104.626 115.589C104.618 115.734 104.669 115.876 104.766 115.984C104.864 116.092 105 116.157 105.145 116.164C105.291 116.172 105.433 116.121 105.541 116.024C105.649 115.926 105.713 115.79 105.721 115.645C105.728 115.5 105.678 115.357 105.58 115.249C105.483 115.142 105.346 115.077 105.201 115.069Z" fill="white"/>
<path d="M100.717 119.59C100.562 119.582 100.411 119.635 100.296 119.739C100.181 119.843 100.112 119.988 100.104 120.143C100.096 120.298 100.15 120.449 100.253 120.564C100.357 120.679 100.502 120.749 100.657 120.757C100.812 120.764 100.963 120.711 101.079 120.607C101.194 120.503 101.263 120.358 101.271 120.203C101.279 120.048 101.225 119.897 101.121 119.782C101.017 119.667 100.872 119.597 100.717 119.59Z" fill="white"/>
<path d="M97.3 117.351C97.1708 117.354 97.0474 117.406 96.9546 117.496C96.8619 117.586 96.8066 117.708 96.8001 117.837C96.7935 117.966 96.836 118.093 96.9191 118.192C97.0023 118.291 97.1198 118.355 97.2481 118.371C97.3773 118.368 97.5007 118.316 97.5935 118.226C97.6862 118.136 97.7415 118.014 97.7481 117.885C97.7546 117.756 97.7121 117.629 97.629 117.53C97.5459 117.431 97.4283 117.367 97.3 117.351Z" fill="white"/>
<path d="M107.08 120.237C107.089 120.179 107.086 120.12 107.07 120.064C107.054 120.008 107.026 119.956 106.988 119.912C106.95 119.868 106.902 119.833 106.849 119.809C106.796 119.785 106.738 119.773 106.68 119.773C106.543 119.718 106.394 119.701 106.248 119.725C106.129 119.754 106.023 119.82 105.944 119.915C105.866 120.009 105.821 120.126 105.814 120.248C105.808 120.37 105.841 120.491 105.91 120.593C105.978 120.695 106.077 120.772 106.192 120.812C106.303 120.849 106.42 120.856 106.534 120.835C106.648 120.813 106.755 120.763 106.844 120.689L106.936 120.581C106.876 120.633 106.896 120.609 106.992 120.509C107.043 120.427 107.073 120.333 107.08 120.237Z" fill="white"/>
<path d="M115.952 117.172C115.992 116.796 115.78 116.724 115.552 116.8C115.333 116.704 115.121 116.752 115.125 117.132C115.09 117.178 115.073 117.235 115.078 117.293C115.083 117.351 115.11 117.404 115.153 117.443C115.174 117.523 115.22 117.594 115.284 117.647C115.348 117.699 115.426 117.731 115.509 117.737C115.591 117.743 115.673 117.723 115.744 117.681C115.815 117.638 115.871 117.575 115.904 117.499C115.95 117.46 115.981 117.405 115.99 117.344C115.998 117.284 115.985 117.223 115.952 117.172Z" fill="white"/>
<path d="M113.454 119.937C113.278 119.939 113.109 120.008 112.981 120.13C112.854 120.252 112.778 120.418 112.77 120.594C112.761 120.771 112.82 120.944 112.935 121.078C113.049 121.212 113.211 121.297 113.386 121.316C113.563 121.314 113.732 121.245 113.859 121.123C113.986 121.001 114.062 120.835 114.071 120.659C114.079 120.482 114.02 120.309 113.906 120.175C113.791 120.041 113.63 119.956 113.454 119.937Z" fill="white"/>
<path d="M117.331 113.103C117.172 113.106 117.021 113.168 116.907 113.278C116.793 113.389 116.726 113.538 116.718 113.696C116.71 113.855 116.763 114.01 116.866 114.131C116.969 114.251 117.113 114.328 117.271 114.346C117.429 114.343 117.581 114.281 117.695 114.171C117.809 114.06 117.876 113.911 117.884 113.753C117.891 113.594 117.839 113.439 117.736 113.318C117.633 113.198 117.488 113.121 117.331 113.103Z" fill="white"/>
<path d="M121.651 118.766C121.628 118.623 121.574 118.486 121.491 118.367C121.452 118.326 121.4 118.3 121.344 118.293C121.288 118.287 121.231 118.3 121.184 118.331C121.074 118.321 120.965 118.345 120.868 118.398C120.772 118.451 120.694 118.531 120.644 118.629C120.593 118.726 120.573 118.837 120.585 118.946C120.597 119.055 120.641 119.158 120.712 119.242C121.06 119.637 121.819 119.31 121.651 118.766Z" fill="white"/>
<path d="M123.498 109.854C123.414 109.852 123.332 109.872 123.259 109.912C123.185 109.951 123.123 110.008 123.078 110.079C123.034 110.149 123.007 110.229 123.002 110.312C122.997 110.395 123.014 110.478 123.05 110.553C123.067 110.582 123.083 110.611 123.098 110.641C123.133 110.704 123.184 110.757 123.246 110.795C123.307 110.834 123.377 110.855 123.45 110.859C123.522 110.863 123.594 110.848 123.659 110.816C123.724 110.784 123.78 110.736 123.821 110.677L123.877 110.593C123.922 110.522 123.947 110.441 123.951 110.357C123.954 110.273 123.936 110.19 123.898 110.116C123.859 110.041 123.802 109.978 123.732 109.932C123.662 109.886 123.581 109.859 123.498 109.854Z" fill="white"/>
<path d="M125.416 114.302C125.227 114.302 125.045 114.375 124.907 114.506C124.77 114.636 124.688 114.814 124.678 115.003C124.669 115.192 124.732 115.378 124.855 115.522C124.978 115.666 125.152 115.757 125.34 115.777C125.529 115.777 125.711 115.704 125.849 115.573C125.986 115.443 126.068 115.264 126.078 115.075C126.087 114.886 126.024 114.701 125.901 114.557C125.778 114.413 125.604 114.322 125.416 114.302Z" fill="white"/>
<path d="M119.337 105.761C119.218 105.765 119.105 105.812 119.02 105.895C118.935 105.978 118.884 106.09 118.878 106.209C118.872 106.328 118.911 106.444 118.987 106.535C119.064 106.626 119.171 106.686 119.289 106.701C119.408 106.698 119.521 106.65 119.606 106.567C119.691 106.484 119.742 106.372 119.748 106.253C119.754 106.135 119.715 106.018 119.639 105.927C119.563 105.836 119.455 105.777 119.337 105.761Z" fill="white"/>
<path d="M120.824 112.787C120.814 112.77 120.8 112.756 120.784 112.745C120.768 112.733 120.75 112.726 120.73 112.722C120.711 112.719 120.691 112.72 120.672 112.725C120.653 112.73 120.635 112.739 120.62 112.751C120.56 112.811 120.44 112.939 120.352 112.943C120.289 112.949 120.23 112.979 120.189 113.028C120.147 113.076 120.127 113.139 120.132 113.203C120.138 113.267 120.168 113.325 120.217 113.367C120.266 113.408 120.329 113.428 120.392 113.423C120.7 113.391 120.988 113.103 120.824 112.787Z" fill="white"/>
<path d="M125.184 104.371L125.096 104.311C125.023 104.264 124.939 104.237 124.852 104.233C124.766 104.228 124.679 104.247 124.602 104.287C124.525 104.326 124.459 104.386 124.412 104.459C124.365 104.532 124.338 104.616 124.334 104.702C124.329 104.789 124.348 104.875 124.387 104.953C124.426 105.03 124.486 105.096 124.558 105.143C124.631 105.19 124.715 105.218 124.802 105.222C124.888 105.227 124.975 105.209 125.052 105.17L125.144 105.126C125.21 105.089 125.265 105.036 125.305 104.972C125.345 104.908 125.368 104.835 125.372 104.759C125.376 104.684 125.361 104.609 125.328 104.541C125.295 104.473 125.246 104.414 125.184 104.371Z" fill="white"/>
<path d="M114.146 102.404C113.997 102.397 113.852 102.45 113.742 102.55C113.633 102.65 113.567 102.789 113.56 102.938C113.553 103.086 113.606 103.231 113.706 103.341C113.806 103.451 113.945 103.516 114.094 103.523C114.167 103.527 114.241 103.516 114.31 103.491C114.379 103.466 114.442 103.427 114.497 103.378C114.551 103.328 114.595 103.268 114.627 103.202C114.658 103.135 114.676 103.063 114.679 102.99C114.683 102.916 114.671 102.843 114.646 102.774C114.621 102.704 114.583 102.641 114.534 102.587C114.484 102.532 114.424 102.488 114.358 102.457C114.291 102.426 114.219 102.408 114.146 102.404Z" fill="white"/>
<path d="M118.662 101.241C118.643 101.459 118.698 101.678 118.818 101.861C118.831 101.884 118.851 101.903 118.874 101.916C118.898 101.93 118.924 101.937 118.951 101.937C118.978 101.937 119.005 101.93 119.028 101.916C119.052 101.903 119.072 101.884 119.085 101.861C119.225 101.693 119.302 101.483 119.305 101.265C119.3 101.185 119.265 101.11 119.208 101.055C119.15 100.999 119.074 100.966 118.994 100.963C118.914 100.961 118.836 100.987 118.775 101.039C118.713 101.09 118.673 101.162 118.662 101.241Z" fill="white"/>
<path d="M120.144 102.852C120.082 102.849 120.021 102.87 119.974 102.912C119.928 102.954 119.9 103.013 119.897 103.076C119.893 103.138 119.915 103.199 119.957 103.246C119.999 103.292 120.058 103.32 120.12 103.323C120.183 103.327 120.244 103.305 120.291 103.263C120.337 103.221 120.365 103.162 120.368 103.1C120.371 103.037 120.35 102.976 120.308 102.929C120.266 102.883 120.207 102.855 120.144 102.852Z" fill="white"/>
<path d="M125.332 101.765C125.264 101.761 125.197 101.771 125.133 101.794C125.069 101.817 125.01 101.852 124.96 101.897C124.91 101.943 124.869 101.998 124.84 102.059C124.811 102.12 124.794 102.187 124.79 102.254C124.787 102.322 124.797 102.39 124.82 102.454C124.843 102.518 124.878 102.576 124.923 102.627C125.015 102.728 125.143 102.789 125.28 102.796C125.417 102.803 125.551 102.755 125.652 102.663C125.754 102.571 125.815 102.443 125.822 102.306C125.828 102.17 125.781 102.036 125.689 101.934C125.597 101.833 125.469 101.772 125.332 101.765Z" fill="white"/>
<path d="M110.529 103.064C110.515 103.041 110.496 103.023 110.473 103.01C110.451 102.997 110.425 102.991 110.399 102.991C110.373 102.991 110.347 102.997 110.324 103.01C110.302 103.023 110.282 103.041 110.269 103.064C110.232 103.12 110.198 103.179 110.169 103.24C110.015 103.326 109.879 103.441 109.769 103.579C109.711 103.669 109.685 103.775 109.693 103.881C109.702 103.987 109.746 104.088 109.817 104.167C109.904 104.26 110.024 104.317 110.152 104.323C110.279 104.33 110.404 104.287 110.501 104.203C110.904 103.883 110.729 103.391 110.529 103.064Z" fill="white"/>
<path d="M108.235 100.314C108.129 100.309 108.025 100.346 107.946 100.417C107.868 100.488 107.82 100.588 107.815 100.694C107.81 100.8 107.847 100.903 107.918 100.982C107.989 101.061 108.089 101.108 108.195 101.113C108.247 101.116 108.3 101.108 108.349 101.091C108.399 101.073 108.444 101.046 108.483 101.01C108.522 100.975 108.554 100.933 108.576 100.885C108.599 100.838 108.612 100.786 108.614 100.734C108.617 100.681 108.609 100.629 108.592 100.579C108.574 100.53 108.547 100.484 108.511 100.445C108.476 100.406 108.434 100.375 108.386 100.352C108.339 100.33 108.287 100.317 108.235 100.314Z" fill="white"/>
<path d="M102.008 100.949C101.868 100.943 101.731 100.992 101.627 101.086C101.524 101.18 101.461 101.311 101.454 101.451C101.448 101.591 101.497 101.728 101.591 101.832C101.685 101.936 101.816 101.998 101.956 102.005C102.096 102.011 102.233 101.963 102.337 101.868C102.44 101.774 102.503 101.643 102.51 101.503C102.516 101.363 102.467 101.226 102.373 101.122C102.279 101.019 102.148 100.956 102.008 100.949Z" fill="white"/>
<path d="M100.034 103.939C99.9385 103.928 99.8419 103.94 99.7524 103.974C99.6628 104.009 99.5828 104.064 99.5192 104.136C99.4557 104.208 99.4104 104.294 99.3872 104.387C99.3641 104.48 99.3638 104.577 99.3863 104.67C99.4502 105.166 100.146 105.166 100.337 104.77C100.337 104.79 100.337 104.798 100.337 104.77C100.337 104.742 100.377 104.686 100.401 104.646C100.438 104.577 100.458 104.5 100.458 104.421C100.459 104.343 100.44 104.265 100.404 104.196C100.368 104.126 100.315 104.066 100.25 104.022C100.186 103.977 100.112 103.948 100.034 103.939Z" fill="white"/>
<path d="M96.5367 100.682C96.4041 100.684 96.2772 100.736 96.1817 100.828C96.0862 100.92 96.0291 101.045 96.022 101.177C96.0149 101.31 96.0583 101.44 96.1434 101.541C96.2286 101.643 96.3491 101.709 96.4807 101.725C96.6133 101.723 96.7402 101.671 96.8357 101.579C96.9312 101.487 96.9883 101.362 96.9954 101.229C97.0025 101.097 96.9591 100.967 96.874 100.865C96.7888 100.764 96.6683 100.698 96.5367 100.682Z" fill="white"/>
<path d="M95.7094 108.443C95.6827 108.425 95.6514 108.416 95.6195 108.416C95.5875 108.416 95.5563 108.425 95.5296 108.443L95.4656 108.483C95.4323 108.481 95.399 108.481 95.3657 108.483C95.3076 108.498 95.256 108.532 95.2181 108.578C95.1803 108.625 95.1582 108.683 95.1551 108.743C95.152 108.803 95.168 108.862 95.2008 108.912C95.2336 108.963 95.2816 109.001 95.3377 109.023C95.4199 109.057 95.5114 109.064 95.5976 109.041C95.6837 109.017 95.7597 108.966 95.8133 108.895C95.8574 108.82 95.8711 108.732 95.8518 108.648C95.8324 108.564 95.7814 108.491 95.7094 108.443Z" fill="white"/>
<rect x="5.5" y="1.5" width="137" height="137" stroke="#D8E1E5" stroke-width="3"/>
</g>
<defs>
<filter id="filter0_d" x="0" y="0" width="148" height="148" filterUnits="userSpaceOnUse" color-interpolation-filters="sRGB">
<feFlood flood-opacity="0" result="BackgroundImageFix"/>
<feColorMatrix in="SourceAlpha" type="matrix" values="0 0 0 0 0 0 0 0 0 0 0 0 0 0 0 0 0 0 127 0"/>
<feOffset dy="4"/>
<feGaussianBlur stdDeviation="2"/>
<feColorMatrix type="matrix" values="0 0 0 0 0 0 0 0 0 0 0 0 0 0 0 0 0 0 0.25 0"/>
<feBlend mode="normal" in2="BackgroundImageFix" result="effect1_dropShadow"/>
<feBlend mode="normal" in="SourceGraphic" in2="effect1_dropShadow" result="shape"/>
</filter>
</defs>
</svg>
