<svg width="148" height="148" viewBox="0 0 148 148" fill="none" xmlns="http://www.w3.org/2000/svg">
<g filter="url(#filter0_d)">
<path d="M144 0H4V140H144V0Z" fill="#BAD9E4"/>
<path d="M134.832 99.0751C134.92 97.9761 134.96 96.905 135.048 96.0817C135.355 92.7351 135.489 89.3748 135.447 86.0143C135.467 78.5168 133.665 70.9592 132.026 63.6535C130.216 55.5804 126.123 48.1148 122.011 40.9689C118.482 34.8382 112.599 30.6018 107.271 26.2735C104.354 23.9036 101.337 22.8485 97.8036 21.6055C94.1147 20.3027 90.4819 19.0437 87.3006 21.4137C83.2561 24.4311 77.6129 25.678 72.5932 24.9866C67.9012 24.3432 64.9438 19.7911 60.4796 19.3914C58.0217 19.1716 55.364 19.6592 52.966 20.1908C46.8712 21.5376 43.0785 25.8859 40.7685 31.2493C39.8213 33.4314 38.2706 35.122 36.8958 37.0443C33.6026 41.6404 31.0088 46.684 28.3191 51.6438C26.0327 55.9602 24.2774 60.5376 23.0916 65.2761C22.3722 68.0417 21.1853 70.6275 20.266 73.3292C19.0311 76.9661 18.2957 79.7237 18.4196 83.4925C18.5635 87.8887 16.8929 92.285 16.6891 96.6812C16.5612 99.4348 16.3774 102.212 16.5173 104.95C16.5452 105.506 22.668 105.953 23.3114 106.149C24.7142 106.549 25.5935 107.044 26.6805 106.201C27.7676 105.358 28.5509 103.288 29.3383 102.204C32.5898 97.6906 35.2442 92.7754 37.2355 87.581C38.4345 84.3837 38.954 81.1185 40.2289 77.9572C41.6224 74.6278 42.6931 71.1722 43.4262 67.6381C44.1096 64.3089 46.8752 61.5713 47.2629 57.9664C46.7486 62.2612 45.996 66.5241 45.0088 70.7354C43.7659 76.2347 43.3343 81.5262 42.8347 87.0894C42.3129 92.5117 42.5307 97.9798 43.4821 103.343C43.9058 105.558 44.4093 107.684 44.9968 109.846C45.5843 112.008 45.4964 117.264 48.0662 118.091C48.1265 118.104 48.181 118.137 48.2221 118.183C48.269 118.205 48.3144 118.23 48.358 118.259C50.1524 119.458 50.2244 121.524 50.1964 123.526C51.9469 123.67 53.6974 123.882 55.3919 123.954C58.5053 124.074 61.6266 124.05 64.7399 124.226C67.4576 124.385 70.2312 124.737 72.9569 124.673C75.9623 124.605 78.9158 124.086 81.9252 124.194C84.9346 124.302 87.8321 124.254 90.7816 124.266C93.4353 124.266 96.5766 123.602 99.1264 124.589C99.2232 124.543 99.3252 124.51 99.4302 124.489C101.545 124.166 103.69 124.079 105.825 124.23C105.779 124.099 105.723 123.972 105.657 123.85C105.562 123.683 105.513 123.494 105.513 123.302C105.513 123.11 105.562 122.922 105.657 122.755C105.537 122.683 105.453 122.603 105.453 122.479C105.453 122.199 105.689 122.107 105.853 121.952C105.886 121.862 105.928 121.776 105.981 121.696V121.648C105.981 121.248 105.857 121.248 105.861 120.82C105.861 120.801 105.861 120.789 105.861 120.777C105.769 120.497 105.689 120.221 105.625 119.941C105.564 119.706 105.549 119.461 105.583 119.22C105.617 118.98 105.697 118.748 105.821 118.538C105.786 118.259 105.851 117.976 106.005 117.739C105.861 117.635 105.765 117.519 105.833 117.375C105.993 117.012 106.232 117.316 106.696 117.092C106.884 117 107.152 117.064 107.367 116.82C107.519 116.656 107.987 116.66 108.143 116.396C108.263 116.196 108.646 116.049 108.766 115.777C108.913 115.539 109.046 115.294 109.166 115.041C109.246 114.814 109.046 114.442 109.126 114.166C109.442 113.083 108.914 112.711 109.074 111.532C109.198 110.621 110.029 109.658 110.229 108.663C110.876 105.466 110.309 101.965 110.469 98.7234C110.649 95.0266 110.661 91.3897 110.669 87.6649C110.669 80.2193 108.942 72.8296 108.271 65.5559C108.098 63.6611 107.773 61.7833 107.299 59.9407C109.45 61.4953 110.752 63.9013 112.095 66.1554C113.269 68.1394 114.216 70.2496 114.917 72.446C116.156 76.3546 117.399 80.2553 118.282 84.2838C119.108 88.0646 119.642 91.9033 119.881 95.766C120.021 97.9801 119.765 100.478 120.8 102.508C121.835 104.538 122.838 105.606 123.198 107.999C125.028 107.972 126.915 108.231 128.793 108.231C129.592 108.231 130.879 108.487 131.611 108.231C134.412 107.216 134.644 101.473 134.832 99.0751ZM106.348 55.6963C106.676 55.6324 106.568 55.6004 106.664 55.8762C106.452 55.6524 106.041 55.7563 106.348 55.6963Z" fill="#F9F3E0"/>
<path d="M69.6757 90.7223C69.914 90.7205 70.1495 90.7732 70.3642 90.8765C70.5789 90.9797 70.7672 91.1306 70.9147 91.3177C71.1738 91.6531 71.3144 92.0649 71.3143 92.4887C71.3159 92.9055 71.1748 93.3102 70.9147 93.6358C70.7662 93.8148 70.5744 93.9528 70.3576 94.0367C70.1407 94.1207 69.906 94.1478 69.6757 94.1153L60.1839 93.7157C59.9457 93.7171 59.7103 93.6643 59.4956 93.5611C59.2809 93.4579 59.0926 93.3071 58.9449 93.1202C58.686 92.7847 58.5455 92.373 58.5453 91.9492C58.5434 91.5324 58.6845 91.1276 58.9449 90.8022C59.0941 90.6241 59.286 90.4867 59.5026 90.4028C59.7193 90.3189 59.9537 90.2913 60.1839 90.3226H60.8713C60.746 88.0898 60.7314 85.8571 60.8273 83.6243C60.9152 81.3943 61.0791 79.1762 61.3069 76.974C61.5347 74.7719 61.8105 72.5778 62.1342 70.3677C62.4579 68.1576 62.7816 65.9715 63.1173 63.7654C63.1493 63.6415 63.1973 63.4896 63.2572 63.3058C62.2331 63.9545 61.1767 64.5508 60.0919 65.0922C59.8848 65.2128 59.6525 65.2839 59.4133 65.2998C59.1741 65.3157 58.9345 65.2762 58.7131 65.1841C58.3099 65.0233 57.9722 64.732 57.7539 64.3569C57.5373 63.9972 57.4551 63.5724 57.5221 63.1579C57.5618 62.9326 57.6588 62.7212 57.8036 62.5442C57.9485 62.3671 58.1365 62.2303 58.3494 62.1467C60.5683 61.072 62.6473 59.7299 64.5401 58.1502C64.8811 57.8745 65.3011 57.7149 65.7391 57.6946C65.9644 57.6788 66.1903 57.7161 66.3985 57.8036C66.6068 57.8911 66.7916 58.0262 66.9381 58.1981C67.2515 58.523 67.501 58.904 67.6734 59.3212C67.8257 59.7059 67.9264 60.109 67.9732 60.5201C68.0181 60.9543 68.0408 61.3905 68.0411 61.827C68.0411 62.2706 68.0891 70.9792 68.0891 72.5378C68.0891 78.5593 67.9958 84.5675 67.8093 90.5624L69.6757 90.7223ZM64.6321 78.0171C64.4216 80.0954 64.2764 82.1669 64.1964 84.2318C64.1205 86.294 64.1445 88.3843 64.2644 90.4905H64.4042C64.5241 86.334 64.6161 82.1603 64.68 77.9692L64.6321 78.0171ZM64.4482 62.4665H64.724V62.3466L64.4482 62.4665Z" fill="#303030"/>
<path d="M88.2878 71.4388C89.3657 71.4679 90.4347 71.6441 91.465 71.9623C92.5097 72.2977 93.4335 72.9312 94.1228 73.7847C94.7345 74.5414 95.2763 75.352 95.7414 76.2067C96.2328 77.1003 96.6421 78.0367 96.9643 79.0043C97.2925 79.9762 97.5123 80.9815 97.6198 82.0017C97.7223 82.9756 97.6873 83.9591 97.5159 84.9232C97.1713 86.9538 96.2261 88.8345 94.8022 90.3226C93.4628 91.6674 91.8312 92.6849 90.0343 93.296C88.1535 93.928 86.1791 94.2361 84.1953 94.2072C82.214 94.2046 80.242 93.9357 78.3323 93.4079C78.0744 93.3501 77.8336 93.2324 77.6295 93.0644C77.4254 92.8964 77.2637 92.6828 77.1573 92.4408C76.9685 91.9961 76.9319 91.5015 77.0534 91.034C77.1771 90.5633 77.4594 90.1497 77.8527 89.863C78.0688 89.7068 78.32 89.6062 78.5841 89.57C78.8482 89.5338 79.1172 89.563 79.3674 89.6551C80.2345 89.9245 81.1239 90.1158 82.0251 90.2266C83.5668 89.8835 85.0281 89.2471 86.3294 88.3523C87.6383 87.4615 88.6756 86.2264 89.3269 84.7833C89.7964 83.9315 90.0117 82.9629 89.9472 81.9924C89.8828 81.0219 89.5412 80.0902 88.9632 79.308C88.4004 78.546 87.7269 77.8725 86.9649 77.3097C86.1656 76.7062 85.3663 76.1387 84.515 75.6152L84.2033 75.4593C83.9235 75.4953 83.6637 75.5233 83.4039 75.5392C83.1442 75.5552 82.9164 75.5632 82.6726 75.5632C82.2894 75.5735 81.9138 75.4553 81.6055 75.2275C81.3116 75.0015 81.0782 74.7063 80.9261 74.3682C80.7721 74.0252 80.7181 73.6456 80.7702 73.2732C80.8257 72.8871 81.0204 72.5345 81.3177 72.282C81.6654 72.0023 82.0411 71.7065 82.4408 71.3948C82.8404 71.0831 83.2641 70.7673 83.7157 70.4556C84.0057 69.808 84.1568 69.1069 84.1593 68.3974C84.1811 67.7302 84.1543 67.0624 84.0794 66.3991C84.0102 66.0711 83.9153 65.749 83.7956 65.4359C83.6349 64.9885 83.4425 64.5531 83.2201 64.133C83.0097 63.7146 82.7405 63.3283 82.4208 62.986C82.3073 62.8426 82.1652 62.7245 82.0034 62.6392C81.8417 62.5539 81.664 62.5032 81.4816 62.4904C81.3241 62.4953 81.1666 62.4778 81.014 62.4385C80.1827 62.6836 79.4087 62.9354 78.692 63.1938C77.9806 63.4536 77.4171 63.6694 77.0014 63.8453C76.7638 63.95 76.5043 63.9953 76.2452 63.9772C75.9862 63.9591 75.7355 63.8781 75.5147 63.7414C75.1245 63.4768 74.8467 63.0764 74.7354 62.6183C74.6115 62.1357 74.638 61.6267 74.8113 61.1596C74.9048 60.9039 75.0575 60.6739 75.2568 60.4884C75.4562 60.303 75.6965 60.1673 75.9583 60.0925C76.6897 59.8127 77.521 59.509 78.4602 59.1813C79.3994 58.8535 80.3705 58.5538 81.3777 58.294C82.3892 58.0333 83.4174 57.8423 84.455 57.7225C85.4422 57.5969 86.4423 57.6144 87.4245 57.7745C88.3326 57.9179 89.2017 58.2457 89.9783 58.7376C90.792 59.2815 91.4416 60.0374 91.8567 60.9238C92.3462 61.8762 92.605 62.9303 92.6121 64.0011C92.603 64.9427 92.4074 65.8732 92.0365 66.7388C91.6503 67.6263 91.1329 68.4508 90.5019 69.1847C89.8377 69.9694 89.1235 70.7103 88.3637 71.4028L88.2878 71.4388ZM88.5995 63.9332C88.5782 63.3404 88.3257 62.7795 87.8961 62.3705C87.4572 62.0041 86.9239 61.7686 86.3574 61.6911C87.0568 62.666 87.569 63.7624 87.8681 64.9243C87.9407 65.1347 87.9851 65.3538 88 65.5758C88 65.7996 88.044 66.0354 88.0759 66.2792C88.442 65.5569 88.622 64.7546 88.5995 63.9452V63.9332ZM92.7679 86.7137C93.2649 85.9313 93.6182 85.0665 93.811 84.1598C93.8545 83.955 93.8733 83.7457 93.867 83.5364L93.7071 84.3357C93.484 85.1427 93.1884 85.9279 92.8239 86.6817L92.7679 86.7137Z" fill="#303030"/>
<path d="M75.9384 33.1237C69.6398 33.5993 67.03 27.3926 65.9869 22.0372C68.7126 24.3512 72.9249 24.615 76.35 24.5271C79.923 24.4311 84.1873 23.8277 87.4085 21.9093C86.5533 28.088 82.5927 32.6241 75.9384 33.1237Z" fill="#A8B3B2"/>
<path d="M87.8002 19.7192C84.9706 22.0931 80.5024 22.6686 76.9655 22.9164C73.5284 23.1442 68.3009 23.0443 66.0948 19.883C65.9861 19.7238 65.8249 19.6077 65.6394 19.5552C65.4539 19.5026 65.2558 19.5168 65.0797 19.5953C64.9164 19.57 64.7494 19.5897 64.5965 19.6524C64.4437 19.7151 64.3109 19.8183 64.2124 19.951C64.1035 20.1556 64.0563 20.3875 64.0765 20.6184C64.0672 20.7846 64.1136 20.9492 64.2084 21.086C64.6608 24.4417 65.8259 27.6617 67.6255 30.5299C69.7397 33.887 72.821 34.9581 76.6378 34.6664C84.4471 34.0789 88.7953 27.6604 89.147 20.2987C89.183 19.5473 88.2958 19.2995 87.8002 19.7192ZM75.9384 33.1237C69.6398 33.5993 67.03 27.3926 65.9869 22.0372C68.7126 24.3512 72.9249 24.615 76.35 24.527C79.9229 24.4311 84.1873 23.8276 87.4085 21.9093C86.5533 28.088 82.5927 32.6241 75.9384 33.1237Z" fill="#D9603E"/>
<path d="M122.063 41.0768L122.003 40.9689C121.603 40.2895 121.204 39.638 120.744 39.0026C119.109 40.6012 117.631 42.3637 116.068 44.0702C114.557 41.9081 112.303 39.2743 109.641 40.0736C106.1 41.1407 103.802 44.4299 101.704 47.3954C98.471 45.3651 95.1698 43.4667 91.7648 41.7322C91.4857 41.5791 91.1584 41.539 90.8506 41.62C90.5427 41.7011 90.2777 41.8972 90.1102 42.1679C88.7034 44.1661 87.1407 46.0405 85.5741 47.9149C83.4999 45.9166 80.6503 42.02 77.8687 42.3757C74.4156 42.8113 71.8738 45.3971 69.1761 47.4114C66.5424 44.4819 63.5809 40.7451 59.3286 42.5595C56.3591 43.8264 53.2498 49.3057 49.7808 45.6449C48.338 44.1262 47.3588 42.6275 45.3845 41.8122C43.5501 41.0608 41.2441 42.6714 39.8493 43.6346C38.6503 44.4339 37.5632 45.441 36.4162 46.3083C34.6777 47.6272 33.8144 46.3083 32.5355 45.1093C32.3877 44.9695 32.2398 44.8416 32.0919 44.7097C31.6923 45.4211 31.2926 46.1351 30.8929 46.8518C31.9281 47.9149 32.9232 49.2498 34.322 49.6494C38.5864 50.8204 41.8196 41.0488 46.2038 45.2092C48.362 47.2555 50.624 51.2241 54.2449 49.1778C56.495 47.9029 58.3654 46.0565 60.5435 44.6577C63.1133 43.0071 66.6823 48.3226 68.137 49.8812C68.3246 50.0717 68.5704 50.194 68.8354 50.2288C69.1004 50.2635 69.3695 50.2087 69.5998 50.0731C71.7979 48.5624 73.7642 46.7639 76.0702 45.4011C79.2675 43.5067 82.8644 48.998 85.0905 50.6766C85.3208 50.8122 85.5898 50.867 85.8549 50.8322C86.1199 50.7975 86.3657 50.6752 86.5532 50.4847C88.2358 48.4585 89.9263 46.4562 91.489 44.338C94.8754 46.0992 98.1779 48.0108 101.397 50.0731C101.674 50.229 102.002 50.2707 102.31 50.1894C102.618 50.1081 102.882 49.9101 103.047 49.6375C104.094 48.1907 105.153 46.7599 106.3 45.3931C106.822 44.7912 107.38 44.2213 107.971 43.6866C111.252 40.5372 113.642 44.7936 114.853 46.62C114.948 46.7773 115.077 46.9111 115.231 47.0115C115.385 47.1119 115.559 47.1762 115.741 47.1996C115.923 47.223 116.109 47.205 116.283 47.1469C116.457 47.0887 116.616 46.992 116.747 46.8638C118.586 44.9655 120.224 42.9152 122.063 41.0768Z" fill="#D9603E"/>
<path d="M109.11 112.588C105.959 113.525 102.756 114.282 99.5181 114.854C92.692 115.985 85.7539 116.228 78.8478 116.256C67.8653 116.296 56.8267 116.156 45.9121 114.87C45.984 115.153 46.06 115.433 46.1519 115.701C56.9906 116.944 67.9372 117.072 78.8478 117.06C85.5851 117.117 92.3176 116.679 98.9906 115.749C102.456 115.187 105.882 114.401 109.246 113.395C109.223 113.122 109.177 112.852 109.11 112.588Z" fill="#D9603E"/>
<path d="M110.493 106.656C102.048 108.855 93.1076 109.346 84.463 109.562C71.108 109.913 57.7451 109.304 44.4773 107.74C44.5453 108.015 44.6172 108.291 44.6891 108.571C58.1099 110.127 71.6249 110.722 85.1305 110.349C93.5233 110.142 102.216 109.606 110.437 107.508C110.453 107.224 110.473 106.94 110.493 106.656Z" fill="#D9603E"/>
<path d="M16.5452 99.4108L16.5093 100.254C20.282 101.685 24.7382 103.168 28.8667 102.94C29.0305 102.66 29.1864 102.392 29.3423 102.176C29.3623 102.148 29.3822 102.12 29.3982 102.092C25.1459 102.516 20.4579 100.905 16.5452 99.4108Z" fill="#D9603E"/>
<path d="M134.404 103.112C134.46 102.792 134.508 102.476 134.548 102.165C132.902 103.036 130.883 103.439 129.221 103.763C126.833 104.184 124.423 104.47 122.003 104.622C122.144 104.873 122.277 105.129 122.403 105.39C125.086 105.204 127.755 104.856 130.396 104.347C131.773 104.081 133.117 103.667 134.404 103.112Z" fill="#D9603E"/>
<path d="M23.7191 80.8267C23.7191 79.292 21.3891 79.272 21.3212 80.7548C21.181 80.9517 21.1081 81.1885 21.1133 81.4302C21.1222 81.7087 21.2219 81.9768 21.3971 82.1935L21.465 82.2774C21.465 82.3014 21.513 82.3214 21.533 82.3454L21.6209 82.4213C21.7172 82.5021 21.8287 82.5628 21.9488 82.5998C22.0689 82.6369 22.1952 82.6496 22.3203 82.6371C22.6047 82.6447 22.8816 82.5448 23.0956 82.3574C23.3173 82.1731 23.4902 81.937 23.5989 81.67C23.7077 81.4031 23.7489 81.1134 23.7191 80.8267Z" fill="#A8B3B2"/>
<path d="M32.1719 76.7982C32.1719 76.8861 32.1719 76.9741 32.1719 77.062C32.1719 76.7662 32.1119 77.2738 32.1439 77.1979C31.989 77.4759 31.9479 77.8032 32.0291 78.1109C32.1103 78.4187 32.3076 78.683 32.5795 78.8484C32.716 78.9295 32.8672 78.9826 33.0243 79.0047C33.1815 79.0269 33.3414 79.0176 33.495 78.9775C33.6485 78.9373 33.7926 78.8671 33.9187 78.7708C34.0449 78.6746 34.1508 78.5543 34.2301 78.4168C34.4671 77.9098 34.5925 77.3578 34.5978 76.7982C34.5938 75.2435 32.1798 75.2435 32.1719 76.7982Z" fill="#A8B3B2"/>
<path d="M34.4379 61.6551C34.3263 61.5415 34.1932 61.4513 34.0464 61.3897C33.8995 61.3281 33.7419 61.2964 33.5827 61.2964C33.4234 61.2964 33.2658 61.3281 33.1189 61.3897C32.9721 61.4513 32.839 61.5415 32.7274 61.6551C32.4099 61.962 32.1404 62.315 31.9281 62.7022C31.848 62.8392 31.7958 62.9906 31.7742 63.1478C31.7527 63.3049 31.7624 63.4648 31.8026 63.6183C31.8429 63.7717 31.913 63.9158 32.0089 64.0421C32.1048 64.1685 32.2247 64.2747 32.3617 64.3548C32.4987 64.4348 32.6501 64.4871 32.8073 64.5086C32.9645 64.5301 33.1243 64.5205 33.2778 64.4802C33.4313 64.4399 33.5753 64.3699 33.7016 64.2739C33.828 64.178 33.9342 64.0581 34.0143 63.9211C34.0812 63.8193 34.1426 63.7139 34.1981 63.6054C34.2701 63.5215 34.35 63.4415 34.4299 63.3616C34.6543 63.1348 34.7809 62.8291 34.7824 62.51C34.7839 62.1909 34.6602 61.884 34.4379 61.6551Z" fill="#A8B3B2"/>
<path d="M39.8213 56.8714C39.8213 56.9873 39.8213 57.1032 39.8213 57.2231C39.8213 56.8833 39.7334 57.3949 39.7933 57.267C39.6382 57.5457 39.597 57.8736 39.6782 58.182C39.7594 58.4904 39.9568 58.7554 40.229 58.9216C40.3657 59.0025 40.5171 59.0554 40.6744 59.0772C40.8317 59.0991 40.9918 59.0895 41.1453 59.0489C41.2989 59.0084 41.4429 58.9378 41.5689 58.8411C41.695 58.7445 41.8005 58.6238 41.8795 58.486C42.122 57.988 42.2477 57.4412 42.2472 56.8873C42.2432 55.3127 39.8253 55.3127 39.8213 56.8714Z" fill="#A8B3B2"/>
<path d="M49.3172 32.3923L49.2372 32.3283C49.0977 32.2239 48.9375 32.1504 48.7673 32.1127C48.5971 32.075 48.4209 32.074 48.2503 32.1097C48.0797 32.1455 47.9187 32.2171 47.778 32.32C47.6372 32.4228 47.5201 32.5545 47.4342 32.7062C47.3483 32.8579 47.2958 33.0261 47.28 33.1997C47.2643 33.3733 47.2857 33.5482 47.3428 33.7129C47.4 33.8775 47.4916 34.0281 47.6115 34.1546C47.7314 34.2811 47.8769 34.3806 48.0382 34.4465C48.0662 34.4465 48.0902 34.4945 48.1182 34.5105C48.2518 34.5944 48.3993 34.654 48.5538 34.6863C48.858 34.787 49.1898 34.7627 49.4761 34.6188C49.7624 34.4749 49.9798 34.2232 50.0805 33.919C50.1812 33.6148 50.1569 33.283 50.013 32.9967C49.8691 32.7104 49.6174 32.493 49.3132 32.3923H49.3172Z" fill="#A8B3B2"/>
<path d="M59.0288 34.5265H58.7531C57.1944 34.5265 57.1944 36.9244 58.7531 36.9244H59.0368C60.5835 36.9444 60.5835 34.5265 59.0288 34.5265Z" fill="#A8B3B2"/>
<path d="M60.7513 24.6628C59.1927 24.6628 59.1927 27.0808 60.7513 27.0808C62.31 27.0808 62.314 24.6628 60.7513 24.6628Z" fill="#A8B3B2"/>
<path d="M95.1859 33.2835C94.6663 32.9798 93.803 33.1156 93.5353 33.7151C93.2801 34.2867 93.1546 34.9077 93.1676 35.5336C93.1676 37.0922 95.5655 37.0922 95.5655 35.5336C95.5655 35.3977 95.5655 35.2658 95.5655 35.1339C95.5655 35.002 95.5655 34.9581 95.5655 35.054C95.6215 34.9181 95.6255 34.8821 95.5855 34.9381C95.7448 34.6639 95.7922 34.3388 95.7178 34.0306C95.6433 33.7223 95.4528 33.4547 95.1859 33.2835Z" fill="#A8B3B2"/>
<path d="M100.865 25.2185L100.465 24.8188C100.239 24.5925 99.9311 24.4656 99.6107 24.4659C99.2902 24.4663 98.9831 24.594 98.7568 24.8208C98.5305 25.0476 98.4036 25.3551 98.404 25.6755C98.4043 25.9959 98.532 26.303 98.7588 26.5293L99.1585 26.929C99.3848 27.1553 99.6917 27.2824 100.012 27.2824C100.17 27.2824 100.327 27.2512 100.474 27.1906C100.62 27.1299 100.753 27.041 100.865 26.929C100.977 26.8169 101.066 26.6839 101.127 26.5375C101.187 26.3911 101.218 26.2342 101.218 26.0757C101.218 25.9173 101.187 25.7603 101.127 25.6139C101.066 25.4675 100.977 25.3345 100.865 25.2224V25.2185Z" fill="#A8B3B2"/>
<path d="M108.466 29.8983C106.908 29.8983 106.908 32.2963 108.466 32.2963C110.025 32.2963 110.025 29.8983 108.466 29.8983Z" fill="#A8B3B2"/>
<path d="M117.323 54.4573C115.764 54.4573 115.764 56.8552 117.323 56.8552C118.882 56.8552 118.882 54.4573 117.323 54.4573Z" fill="#A8B3B2"/>
<path d="M126.231 65.0762C126.12 64.9626 125.987 64.8724 125.84 64.8108C125.693 64.7492 125.535 64.7175 125.376 64.7175C125.217 64.7175 125.059 64.7492 124.912 64.8108C124.765 64.8724 124.632 64.9626 124.521 65.0762C124.461 65.1442 124.409 65.2121 124.353 65.2841C124.131 65.4272 123.959 65.6364 123.861 65.8822C123.764 66.1281 123.746 66.3982 123.809 66.6549C123.899 66.9603 124.104 67.219 124.38 67.3763C124.657 67.5337 124.984 67.5774 125.292 67.4982C125.553 67.4488 125.792 67.3188 125.975 67.1265C126.059 67.0266 126.135 66.9227 126.215 66.8147C126.295 66.7068 126.287 66.7068 126.215 66.7828C126.438 66.5555 126.564 66.2509 126.567 65.9327C126.57 65.6146 126.45 65.3076 126.231 65.0762Z" fill="#A8B3B2"/>
<path d="M121.148 74.1843C119.589 74.1843 119.589 76.5823 121.148 76.5823C122.706 76.5823 122.698 74.1843 121.148 74.1843Z" fill="#A8B3B2"/>
<path d="M130.004 82.4374C129.691 82.4373 129.391 82.5592 129.167 82.7772C128.943 82.9952 128.813 83.292 128.805 83.6044C128.655 83.8335 128.587 84.1072 128.614 84.3799C128.641 84.6526 128.761 84.9079 128.953 85.1032C129.064 85.2167 129.198 85.307 129.344 85.3686C129.491 85.4301 129.649 85.4619 129.808 85.4619C129.967 85.4619 130.125 85.4301 130.272 85.3686C130.419 85.307 130.552 85.2167 130.663 85.1032C131.025 84.7039 131.222 84.1828 131.215 83.6444C131.216 83.4853 131.185 83.3275 131.125 83.1803C131.064 83.0331 130.975 82.8995 130.862 82.7871C130.75 82.6748 130.616 82.586 130.468 82.526C130.321 82.4659 130.163 82.4358 130.004 82.4374Z" fill="#A8B3B2"/>
<path d="M124.972 92.9045V93.1043C124.972 94.663 127.39 94.663 127.39 93.1043V92.9045C127.39 91.3458 124.972 91.3458 124.972 92.9045Z" fill="#A8B3B2"/>
<path d="M100.01 94.1113C99.7121 94.1098 99.4245 94.2189 99.2029 94.4176C98.9813 94.6163 98.8415 94.8904 98.8107 95.1864L98.7428 95.2704C98.516 95.4967 98.3883 95.8038 98.3879 96.1242C98.3876 96.4446 98.5145 96.752 98.7408 96.9789C98.9671 97.2057 99.2742 97.3333 99.5946 97.3337C99.9151 97.3341 100.222 97.2072 100.449 96.9809C100.909 96.5466 101.182 95.9502 101.209 95.3183C101.21 95.1602 101.179 95.0034 101.12 94.857C101.06 94.7106 100.972 94.5775 100.86 94.4653C100.749 94.3532 100.616 94.2641 100.47 94.2034C100.324 94.1426 100.168 94.1113 100.01 94.1113Z" fill="#A8B3B2"/>
<path d="M104.49 80.375L104.386 80.2671C104.293 79.9675 104.087 79.716 103.812 79.5666C103.536 79.4172 103.213 79.3817 102.911 79.4678C102.606 79.559 102.348 79.7647 102.191 80.0417C102.034 80.3187 101.99 80.6458 102.068 80.9545C102.183 81.397 102.431 81.7934 102.779 82.0896C103.006 82.3164 103.313 82.444 103.633 82.4444C103.954 82.4448 104.261 82.3179 104.488 82.0916C104.715 81.8653 104.842 81.5581 104.843 81.2377C104.843 80.9173 104.716 80.6099 104.49 80.383V80.375Z" fill="#A8B3B2"/>
<path d="M98.2472 68.901C98.1357 68.788 98.0028 68.6983 97.8564 68.6371C97.7099 68.5758 97.5527 68.5443 97.394 68.5443C97.2352 68.5443 97.078 68.5758 96.9315 68.6371C96.7851 68.6983 96.6522 68.788 96.5407 68.901C96.344 69.1399 96.1886 69.4101 96.0811 69.7003C96.0291 69.8242 95.9692 70.1 95.9492 70.1559C95.7938 70.4341 95.7519 70.7616 95.8323 71.07C95.9128 71.3784 96.1093 71.6437 96.3808 71.8105C96.5177 71.892 96.6694 71.9454 96.8271 71.9676C96.9849 71.9898 97.1455 71.9803 97.2995 71.9398C97.4535 71.8992 97.598 71.8284 97.7243 71.7314C97.8507 71.6344 97.9564 71.5132 98.0354 71.3749C98.1383 71.1522 98.2291 70.924 98.3072 70.6915C98.3272 70.6115 98.3511 70.5316 98.3751 70.4517C98.5378 70.2188 98.6141 69.9364 98.5908 69.6533C98.5674 69.3701 98.4459 69.104 98.2472 68.901Z" fill="#A8B3B2"/>
<path d="M103.435 57.071C101.876 57.071 101.876 59.469 103.435 59.469C104.993 59.469 104.989 57.071 103.435 57.071Z" fill="#A8B3B2"/>
<path d="M75.2509 51.6357C73.6923 51.6357 73.6923 54.0537 75.2509 54.0537C76.8096 54.0537 76.8096 51.6357 75.2509 51.6357Z" fill="#A8B3B2"/>
<path d="M56.7308 51.2361V51.6358C56.7308 53.1945 59.1487 53.1945 59.1487 51.6358V51.2361C59.1527 49.6775 56.7308 49.6775 56.7308 51.2361Z" fill="#A8B3B2"/>
<path d="M69.9755 38.8348C69.8842 38.5296 69.6786 38.2715 69.4015 38.1144C69.1245 37.9572 68.7975 37.9132 68.4887 37.9915C68.3332 38.0246 68.1845 38.084 68.0491 38.1674L67.9652 38.2313C67.8261 38.31 67.7039 38.4154 67.6055 38.5413C67.5071 38.6673 67.4345 38.8114 67.3919 38.9654C67.3492 39.1194 67.3373 39.2803 67.3568 39.4389C67.3763 39.5976 67.4268 39.7508 67.5056 39.8899C67.5843 40.029 67.6896 40.1512 67.8156 40.2495C67.9416 40.3479 68.0857 40.4205 68.2397 40.4632C68.3937 40.5059 68.5546 40.5178 68.7132 40.4983C68.8718 40.4788 69.0251 40.4282 69.1641 40.3495L69.2521 40.2855C69.5274 40.1716 69.7522 39.9621 69.8851 39.6955C70.0181 39.4289 70.0501 39.1232 69.9755 38.8348Z" fill="#A8B3B2"/>
<path d="M51.899 72.374C51.2435 72.2901 50.7 72.9815 50.7 73.573C50.6965 73.8132 50.7692 74.0482 50.9078 74.2444C50.9877 75.7272 53.3057 75.7072 53.3057 74.1765C53.3057 73.2053 52.9381 72.5019 51.899 72.374Z" fill="#A8B3B2"/>
<path d="M55.5238 85.2549C53.9652 85.2549 53.9652 87.6528 55.5238 87.6528C57.0825 87.6528 57.0825 85.2549 55.5238 85.2549Z" fill="#A8B3B2"/>
<path d="M50.4922 94.515C48.9335 94.515 48.9335 96.913 50.4922 96.913C52.0508 96.913 52.0508 94.515 50.4922 94.515Z" fill="#A8B3B2"/>
<path d="M62.8096 101.365C62.5805 101.215 62.3068 101.148 62.0341 101.174C61.7614 101.201 61.5062 101.321 61.3109 101.513C61.1979 101.625 61.1082 101.757 61.0469 101.904C60.9857 102.05 60.9542 102.208 60.9542 102.366C60.9542 102.525 60.9857 102.682 61.0469 102.829C61.1082 102.975 61.1979 103.108 61.3109 103.22C61.7101 103.581 62.2309 103.78 62.7696 103.775C63.0876 103.78 63.3947 103.659 63.6233 103.438C63.8519 103.217 63.9833 102.914 63.9886 102.596C63.9939 102.278 63.8726 101.971 63.6515 101.743C63.4304 101.514 63.1276 101.383 62.8096 101.377V101.365Z" fill="#A8B3B2"/>
<path d="M76.6617 101.361V101.761C76.6617 103.319 79.0597 103.319 79.0597 101.761V101.361C79.0756 99.8025 76.6617 99.8025 76.6617 101.361Z" fill="#A8B3B2"/>
<path d="M74.6474 78.8126V79.416C74.6474 80.9747 77.0454 80.9747 77.0454 79.416V78.8126C77.0654 77.2539 74.6474 77.2539 74.6474 78.8126Z" fill="#A8B3B2"/>
<path d="M88.9392 100.15V100.226C88.9392 101.785 91.3571 101.785 91.3571 100.226V100.15C91.3571 98.5955 88.9392 98.5955 88.9392 100.15Z" fill="#A8B3B2"/>
<rect x="5.5" y="1.5" width="137" height="137" stroke="#D8E1E5" stroke-width="3"/>
</g>
<defs>
<filter id="filter0_d" x="0" y="0" width="148" height="148" filterUnits="userSpaceOnUse" color-interpolation-filters="sRGB">
<feFlood flood-opacity="0" result="BackgroundImageFix"/>
<feColorMatrix in="SourceAlpha" type="matrix" values="0 0 0 0 0 0 0 0 0 0 0 0 0 0 0 0 0 0 127 0"/>
<feOffset dy="4"/>
<feGaussianBlur stdDeviation="2"/>
<feColorMatrix type="matrix" values="0 0 0 0 0 0 0 0 0 0 0 0 0 0 0 0 0 0 0.25 0"/>
<feBlend mode="normal" in2="BackgroundImageFix" result="effect1_dropShadow"/>
<feBlend mode="normal" in="SourceGraphic" in2="effect1_dropShadow" result="shape"/>
</filter>
</defs>
</svg>
