<svg width="148" height="148" viewBox="0 0 148 148" fill="none" xmlns="http://www.w3.org/2000/svg">
<g filter="url(#filter0_d)">
<path d="M144 0H4V140H144V0Z" fill="white"/>
<path d="M106.624 44.1022C108.633 44.2172 110.619 44.5796 112.539 45.1813C114.447 45.7768 116.263 46.635 117.934 47.7311C119.607 48.8256 121.107 50.1646 122.382 51.7037C123.689 53.2772 124.725 55.0574 125.448 56.9712C126.543 59.8487 126.86 62.569 126.399 65.1322C125.969 67.6083 124.946 69.9436 123.418 71.9383C121.844 73.9659 119.838 75.6178 117.547 76.7742C115.143 78.0161 112.515 78.7649 109.817 78.9763C106.7 79.277 103.553 79.0061 100.533 78.177C97.8338 77.451 95.3273 76.1397 93.1915 74.3363C91.1217 72.5389 89.5336 70.2529 88.5715 67.686C87.5377 65.0216 87.1926 61.9576 87.5364 58.4939C87.9488 54.5229 88.6271 50.5841 89.5666 46.704C90.5178 42.7633 91.6408 38.8347 92.9357 34.9181C94.2306 31.0014 95.6547 27.1687 97.2081 23.4199C98.7641 19.6472 100.319 15.977 101.872 12.4094C102.392 11.3143 103.167 10.7668 104.206 10.7668C104.576 10.4379 105.028 10.2159 105.515 10.1243C106.001 10.0328 106.504 10.0753 106.968 10.2472C109.17 11.1058 111.514 11.5463 113.878 11.5461C114.271 11.5226 114.665 11.5792 115.036 11.7125C115.407 11.8458 115.747 12.0529 116.036 12.3214C116.537 12.8103 116.87 13.4456 116.987 14.1359C117.39 14.6013 117.658 15.1679 117.762 15.7745C117.875 16.4516 117.785 17.147 117.503 17.7728C115.604 22.169 108.311 39.71 106.536 44.2021L106.624 44.1022ZM97.8315 42.6355C97.3573 44.3193 96.7604 46.2617 96.0411 48.4625C95.3243 50.673 94.7345 52.9228 94.2746 55.2007C93.8172 57.3998 93.628 59.6463 93.7111 61.8909C93.748 63.9215 94.3621 65.8996 95.4815 67.5941C94.8516 65.9893 94.4611 64.3007 94.3225 62.5824C94.1833 60.8123 94.3441 59.0314 94.7981 57.3149C95.7279 53.4841 96.9847 49.7402 98.5549 46.1245C100.154 42.4676 109.162 20.6903 110.429 17.7488C109.204 17.5728 107.993 17.3138 106.804 16.9735C104.963 21.1779 103.292 25.4089 101.792 29.6666C100.292 33.9243 98.9079 38.2472 97.6397 42.6355H97.8315ZM109.494 72.4299C111.063 72.2657 112.603 71.8879 114.07 71.3069C115.443 70.7746 116.692 69.9651 117.738 68.9289C118.76 67.9004 119.491 66.6193 119.857 65.2161C120.253 63.547 120.192 61.802 119.681 60.1644C119.246 58.5508 118.466 57.0508 117.395 55.7682C116.325 54.4995 115.038 53.4316 113.594 52.6149C112.111 51.778 110.51 51.1677 108.846 50.8045C107.218 50.4337 105.54 50.3311 103.878 50.5007C103.015 52.515 102.209 54.6305 101.46 56.8473C100.732 58.8798 100.495 61.0561 100.769 63.1978C101.081 65.4914 102.145 67.6166 103.794 69.2406C105.407 70.7974 107.402 71.9004 109.577 72.4379L109.494 72.4299Z" fill="#303030"/>
<path d="M41.1681 23.7397C41.005 23.7343 40.8448 23.6944 40.6983 23.6224C40.5518 23.5504 40.4223 23.4481 40.3183 23.3222C40.2144 23.1964 40.1384 23.0498 40.0954 22.8923C40.0524 22.7349 40.0434 22.57 40.069 22.4088C40.069 22.4088 40.4887 19.3475 40.5087 19.1476C40.5455 18.7151 40.6095 18.2852 40.7005 17.8607C40.7049 17.8249 40.7049 17.7887 40.7005 17.7528C40.3368 17.501 39.8412 17.1054 39.3537 16.7137L36.9797 14.8473C36.8159 14.7225 36.6913 14.5535 36.6205 14.3602C36.5496 14.1668 36.5356 13.9573 36.58 13.7562C36.6452 13.511 36.7767 13.2884 36.96 13.1129C37.1433 12.9374 37.3713 12.8157 37.6191 12.7611L41.0322 11.9618C41.4718 11.8499 41.9235 11.73 42.3831 11.658C42.4446 11.6469 42.5049 11.6295 42.5629 11.6061C42.7348 11.1505 43.0585 10.4431 43.3622 9.78365L44.5892 7.13392C44.667 6.95944 44.787 6.80707 44.9384 6.69055C45.0898 6.57403 45.2678 6.49703 45.4564 6.4665C45.6891 6.39425 45.9393 6.40226 46.1668 6.48923C46.3944 6.5762 46.5862 6.73709 46.7113 6.94608C46.7113 6.94608 48.27 9.52787 48.3779 9.68773C48.6314 10.0483 48.8521 10.4308 49.0374 10.8308L49.1293 10.9507C49.1545 10.9734 49.1872 10.9862 49.2212 10.9866C49.2971 10.9866 49.3651 11.0066 49.413 11.0066C49.8676 10.9845 50.3231 10.9965 50.7759 11.0426L51.3154 11.0825L54.2369 11.1984C54.4458 11.2073 54.6476 11.2771 54.8174 11.3992C54.9871 11.5214 55.1174 11.6905 55.1921 11.8859C55.2766 12.0922 55.3005 12.3185 55.2608 12.538C55.2212 12.7574 55.1197 12.961 54.9683 13.1248L52.8501 15.3429C52.3345 15.8944 51.819 16.434 51.4673 16.7577C51.4647 16.7869 51.4647 16.8163 51.4673 16.8456C51.6127 17.2582 51.7184 17.6838 51.783 18.1165C51.819 18.3123 51.8509 18.5162 51.8949 18.684C52.0428 19.3395 52.4864 21.2578 52.4864 21.2578C52.5275 21.4481 52.5247 21.6452 52.4783 21.8342C52.4319 22.0233 52.3431 22.1992 52.2186 22.3489C52.0513 22.5485 51.8253 22.6904 51.5728 22.7542C51.3202 22.8181 51.0539 22.8007 50.8118 22.7046L47.9623 21.5815C47.2069 21.2978 46.6514 21.086 46.2957 20.9181C45.928 21.1699 45.3525 21.5016 44.745 21.8533C44.5932 21.9372 41.9235 23.5359 41.9235 23.5359C41.6973 23.6768 41.4345 23.7477 41.1681 23.7397Z" fill="#D9603E"/>
<path d="M56.9425 137.111H51.9069V107.46H55.8275L56.9425 137.111Z" fill="#778890"/>
<path opacity="0.25" d="M56.9425 137.111H51.9069V107.46H55.8275L56.9425 137.111Z" fill="#778890"/>
<path d="M25.7014 110.649C25.3537 109.39 26.0012 107.704 26.8085 105.186C29.2784 97.4924 31.3965 89.6631 33.5427 81.8738C35.493 74.7878 38.2547 67.8418 39.8973 60.8318C42.9706 47.723 43.6261 34.2985 45.0169 21.4256C45.1807 19.9348 45.8162 19.6431 46.4916 21.1058C47.8225 23.9354 50.1365 26.8969 51.0957 28.8872C53.4616 33.783 54.9604 39.1104 57.1305 44.1021C62.9335 57.4507 66.7862 72.1581 70.6909 86.1541C71.2144 88.0325 79.4154 111.856 76.382 112.304C68.0531 113.535 59.6643 112.456 51.3075 112.959C44.5133 113.359 36.8799 115.289 30.1496 113.455C27.2761 112.671 26.0371 111.856 25.7014 110.649Z" fill="#778890"/>
<path d="M47.7465 46.3602C47.6626 45.9326 47.0991 45.6009 46.7914 46.0565C46.06 47.1396 45.3246 48.6982 45.6923 50.0251C45.7176 50.0886 45.7588 50.1445 45.8119 50.1876C45.865 50.2306 45.9282 50.2593 45.9956 50.271C46.0629 50.2826 46.1321 50.2767 46.1966 50.254C46.2611 50.2312 46.3186 50.1923 46.3637 50.141C47.1191 49.2098 47.9903 47.6551 47.7465 46.3602Z" fill="white"/>
<path d="M49.6569 36.7445C49.6737 36.6487 49.6715 36.5506 49.6503 36.4556C49.6292 36.3607 49.5896 36.2709 49.5337 36.1913C49.4779 36.1117 49.4069 36.0439 49.3248 35.9917C49.2427 35.9395 49.1512 35.904 49.0554 35.8872C48.9596 35.8704 48.8615 35.8727 48.7666 35.8938C48.6716 35.9149 48.5818 35.9546 48.5022 36.0104C48.4226 36.0663 48.3548 36.1373 48.3026 36.2193C48.2504 36.3014 48.2149 36.3929 48.1982 36.4887C47.9224 37.7317 47.7985 39.5061 48.8496 40.3694C48.9091 40.4173 48.9802 40.4487 49.0557 40.4604C49.1311 40.4722 49.2084 40.4639 49.2797 40.4363C49.3509 40.4088 49.4137 40.363 49.4616 40.3036C49.5096 40.2441 49.5411 40.1731 49.553 40.0976C49.7089 38.9866 49.561 37.8635 49.6569 36.7445Z" fill="white"/>
<path d="M54.3569 48.0349C54.305 47.2355 53.158 46.9958 52.8742 47.7711C52.6434 48.4256 52.5734 49.1261 52.6704 49.8133C52.7263 50.3329 52.8542 51.0123 53.2619 51.376C53.3342 51.4403 53.4228 51.4832 53.5181 51.5002C53.6133 51.5171 53.7114 51.5073 53.8014 51.4719C54.9724 50.9324 54.4249 49.03 54.3569 48.0349Z" fill="white"/>
<path d="M50.5801 56.8433C50.6911 56.0971 50.6735 55.3375 50.5281 54.5972C50.4967 54.5049 50.441 54.4228 50.3669 54.3595C50.2929 54.2961 50.2031 54.2538 50.1071 54.2371C50.0111 54.2203 49.9123 54.2297 49.8211 54.2642C49.73 54.2988 49.6498 54.3572 49.589 54.4334C49.0979 55.2176 48.8414 56.1259 48.8496 57.0511C48.8096 57.9264 48.7936 58.8176 49.589 59.2932C49.7366 59.3555 49.9026 59.3578 50.0519 59.2996C50.2011 59.2413 50.3218 59.1272 50.3883 58.9815C50.7599 58.35 50.5321 57.5507 50.5801 56.8433Z" fill="white"/>
<path d="M58.7891 59.6769C58.6093 58.8775 58.4374 58.0782 58.2216 57.2789C58.1659 57.1279 58.0614 56.9997 57.9246 56.9147C57.7879 56.8298 57.6267 56.7928 57.4666 56.8098C57.3065 56.8268 57.1567 56.8967 57.0408 57.0084C56.9249 57.1202 56.8496 57.2674 56.8268 57.4268C56.7629 58.2316 56.8304 59.0415 57.0266 59.8247C57.2344 60.7759 57.3264 61.7031 57.9778 62.4265C58.0492 62.4889 58.1345 62.5333 58.2265 62.5561C58.3186 62.5788 58.4147 62.5793 58.507 62.5574C58.5993 62.5355 58.685 62.4919 58.757 62.4302C58.829 62.3685 58.8852 62.2905 58.921 62.2027C59.2167 61.2835 58.9849 60.5521 58.7891 59.6769Z" fill="white"/>
<path d="M43.2585 62.5703C42.1874 63.4416 41.472 65.4958 42.1554 66.7867C42.1962 66.8514 42.2501 66.9067 42.3136 66.9493C42.3771 66.9919 42.4488 67.0207 42.524 67.0338C42.5993 67.047 42.6766 67.0443 42.7507 67.0258C42.8249 67.0073 42.8944 66.9735 42.9547 66.9266C43.8459 66.1273 43.8739 64.6565 44.4494 63.6134C44.8571 62.8741 43.8859 62.0588 43.2585 62.5703Z" fill="white"/>
<path d="M51.847 69.1847C51.911 67.9858 50.4602 67.734 50.1125 68.881C49.931 69.5381 49.7882 70.2054 49.6849 70.8793C49.561 71.5587 49.4211 72.2061 49.7249 72.8536C49.7646 72.9646 49.8331 73.063 49.9233 73.139C50.0134 73.2149 50.1221 73.2656 50.2383 73.2859C50.3544 73.3063 50.4738 73.2954 50.5844 73.2546C50.695 73.2137 50.7928 73.1443 50.8679 73.0534C51.2553 72.6055 51.4892 72.0452 51.5353 71.4548C51.6885 70.7057 51.7926 69.9474 51.847 69.1847Z" fill="white"/>
<path d="M61.8904 71.2309C61.9584 70.5555 61.3989 69.96 60.7394 70.2238C60.5909 70.2813 60.4609 70.3783 60.3637 70.5044C60.2665 70.6306 60.2057 70.7809 60.1879 70.9392C59.9521 71.9663 59.7882 73.2972 60.2838 74.2444C60.4956 74.644 61.0352 74.5561 61.2989 74.2843C62.0583 73.537 61.7945 72.2221 61.8904 71.2309Z" fill="white"/>
<path d="M41.7396 76.4026C40.8923 76.7503 40.6725 77.7894 40.5047 78.6127C40.3248 79.4959 40.165 80.4871 40.5047 81.3264C40.5426 81.4344 40.6087 81.5304 40.6961 81.6043C40.7835 81.6783 40.8891 81.7276 41.0019 81.7472C41.1147 81.7667 41.2307 81.7558 41.3379 81.7156C41.4451 81.6753 41.5396 81.6072 41.6117 81.5182C42.0125 80.9746 42.2521 80.3292 42.3031 79.6558C42.3711 79.2562 42.423 78.8565 42.511 78.4568C42.5389 78.3409 42.5549 78.277 42.5909 78.1651C42.6031 78.1269 42.6178 78.0895 42.6348 78.0532C43.4661 77.4697 42.6748 76.0229 41.7396 76.4026Z" fill="white"/>
<path d="M51.5592 85.4268C51.6444 84.7106 51.6858 83.9899 51.6831 83.2686C51.6632 82.4693 50.4482 82.2215 50.1684 83.0009C49.9697 83.693 49.8583 84.4073 49.8367 85.127C49.7469 85.807 49.8055 86.4983 50.0086 87.1533C50.0394 87.2456 50.0945 87.3279 50.1682 87.3914C50.2419 87.4549 50.3315 87.4973 50.4273 87.5141C50.5232 87.5309 50.6218 87.5215 50.7127 87.4868C50.8036 87.4521 50.8835 87.3935 50.9438 87.3172C51.3277 86.76 51.5415 86.1032 51.5592 85.4268Z" fill="white"/>
<path d="M61.7145 88.1285C61.6464 87.3604 61.5127 86.5997 61.3148 85.8544C61.071 85.0551 60.1159 85.195 59.7402 85.7985C59.3645 86.402 59.4564 87.2213 59.5364 87.9207C59.5661 88.7383 59.7477 89.5433 60.0719 90.2946C60.3117 90.7502 60.9032 90.6503 61.2069 90.3386C61.8024 89.7351 61.7984 88.9238 61.7145 88.1285Z" fill="white"/>
<path d="M68.3449 94.0313C68.3449 92.8323 66.7463 92.9602 66.4865 93.9714C66.3438 94.6298 66.3438 95.3112 66.4865 95.9697C66.5984 96.6571 66.6024 97.4204 67.0181 97.9959C67.0704 98.0734 67.1379 98.1396 67.2164 98.1905C67.2949 98.2413 67.3829 98.2758 67.4751 98.2918C67.5672 98.3079 67.6617 98.3052 67.7528 98.2838C67.8439 98.2625 67.9297 98.223 68.0052 98.1678C69.2122 97.1646 68.3209 95.3342 68.3449 94.0313Z" fill="white"/>
<path d="M40.2889 95.4582C40.2369 94.6789 40.3528 93.8596 40.2289 93.1002C40.2168 92.9464 40.1538 92.8011 40.05 92.687C39.9462 92.5729 39.8073 92.4965 39.6553 92.47C39.5034 92.4434 39.3469 92.4682 39.2105 92.5403C39.0741 92.6124 38.9656 92.7279 38.9021 92.8684C38.2186 94.1753 38.1027 96.833 39.1938 97.8961C39.2659 97.9576 39.3515 98.0012 39.4437 98.0235C39.5358 98.0457 39.6319 98.046 39.7241 98.0242C39.8163 98.0024 39.9022 97.9592 39.9746 97.898C40.047 97.8369 40.104 97.7596 40.141 97.6723C40.4527 96.9609 40.3368 96.2176 40.2889 95.4582Z" fill="white"/>
<path d="M49.1613 98.8632C48.9749 97.9186 48.8958 96.956 48.9255 95.9937C48.9495 94.9306 47.5027 95.0505 47.2629 95.9417C46.8632 97.4964 47.0631 100.062 48.1022 101.297C48.1594 101.379 48.2375 101.445 48.3285 101.487C48.4195 101.529 48.5201 101.546 48.6199 101.536C48.7197 101.527 48.815 101.49 48.8962 101.432C48.9773 101.373 49.0412 101.293 49.0813 101.201C49.3406 100.447 49.3684 99.6331 49.1613 98.8632Z" fill="white"/>
<path d="M59.0169 101.657C58.909 101.173 58.853 100.67 58.7131 100.194C58.6406 99.971 58.4941 99.7793 58.2979 99.6507C58.1017 99.5221 57.8676 99.4642 57.6341 99.4867C57.3535 99.5309 57.0995 99.6784 56.9221 99.9002C56.7446 100.122 56.6565 100.402 56.6749 100.686C56.6749 101.729 56.9786 103.523 58.1456 103.719C58.3372 103.75 58.5337 103.716 58.7038 103.623C58.874 103.529 59.0081 103.382 59.0848 103.203C59.2214 102.693 59.1977 102.153 59.0169 101.657Z" fill="white"/>
<path d="M69.8835 106.409C69.774 106.014 69.6846 105.614 69.6157 105.21C69.6066 105.08 69.572 104.953 69.5137 104.837C69.4555 104.721 69.3749 104.617 69.2765 104.532C69.178 104.447 69.0638 104.382 68.9403 104.342C68.8167 104.301 68.6864 104.285 68.5567 104.295C68.292 104.333 68.0519 104.471 67.886 104.68C67.7202 104.89 67.6412 105.155 67.6654 105.422C67.7453 106.457 67.8293 108.275 69.0642 108.479C69.2585 108.511 69.4578 108.477 69.6303 108.382C69.8027 108.287 69.9383 108.137 70.0154 107.956C70.2272 107.356 70.0514 106.968 69.8835 106.409Z" fill="white"/>
<path d="M34.9895 102.504C35.1933 101.501 33.8904 101.177 33.4428 101.997C33.0085 102.882 32.7004 103.823 32.5276 104.794C32.3357 105.629 32.084 106.569 32.7274 107.224C32.8134 107.304 32.9206 107.357 33.0361 107.378C33.1516 107.398 33.2706 107.385 33.3789 107.34C34.1222 106.984 34.2381 106.197 34.374 105.426C34.5419 104.435 34.7976 103.475 34.9895 102.504Z" fill="white"/>
<path d="M45.2206 108.123C45.129 107.328 45.0969 106.526 45.1247 105.725C45.1247 104.594 43.674 104.774 43.3982 105.669C43.1864 106.542 43.1497 107.448 43.2903 108.335C43.3742 109.158 43.5301 110.062 44.1695 110.593C44.243 110.655 44.3298 110.698 44.4229 110.72C44.5161 110.742 44.6131 110.742 44.7062 110.72C44.7993 110.697 44.886 110.654 44.9593 110.592C45.0327 110.531 45.0907 110.453 45.1287 110.365C45.4884 109.654 45.3365 108.871 45.2206 108.123Z" fill="white"/>
<path d="M66.5384 80.6589C66.2817 80.0846 66.1314 79.4685 66.0948 78.8405C66.0668 78.285 65.2196 78.0931 65.0317 78.6526C64.8095 79.2964 64.7817 79.9914 64.9518 80.6509C65.0877 81.2224 65.3874 82.2296 66.1508 82.1177C66.9141 82.0058 66.7702 81.1785 66.5384 80.6589Z" fill="white"/>
<path d="M29.9298 46.7599C29.9031 47.2959 29.7181 47.8119 29.3982 48.2427C29.0783 48.6735 28.6378 48.9998 28.1325 49.1803C27.6272 49.3608 27.0797 49.3875 26.5592 49.2569C26.0387 49.1263 25.5686 48.8444 25.2084 48.4467C24.8481 48.049 24.6139 47.5535 24.5352 47.0227C24.4565 46.4918 24.537 45.9496 24.7664 45.4645C24.9958 44.9795 25.3639 44.5733 25.8242 44.2974C26.2844 44.0215 26.8161 43.8882 27.3521 43.9144C27.7082 43.9318 28.0574 44.0192 28.3798 44.1717C28.7021 44.3241 28.9913 44.5386 29.2307 44.8029C29.4701 45.0672 29.6551 45.376 29.775 45.7118C29.895 46.0476 29.9476 46.4038 29.9298 46.7599Z" fill="#BAD9E4"/>
<path d="M76.0862 13.8682C76.0619 14.3414 75.8981 14.7968 75.6152 15.177C75.3323 15.5572 74.9432 15.845 74.4969 16.0042C74.0506 16.1634 73.5671 16.1868 73.1075 16.0714C72.6479 15.956 72.2328 15.7071 71.9146 15.356C71.5964 15.0049 71.3893 14.5674 71.3195 14.0987C71.2498 13.63 71.3204 13.1511 71.5226 12.7226C71.7247 12.294 72.0493 11.9349 72.4554 11.6907C72.8615 11.4465 73.3308 11.328 73.8041 11.3503C74.1195 11.3652 74.4288 11.4421 74.7144 11.5768C74.9999 11.7115 75.2561 11.9013 75.4681 12.1352C75.6801 12.3692 75.8439 12.6427 75.9499 12.9401C76.056 13.2374 76.1023 13.5528 76.0862 13.8682Z" fill="#BAD9E4"/>
<path d="M23.1077 84.5875C23.0948 84.8631 23.0003 85.1287 22.8364 85.3506C22.6725 85.5726 22.4465 85.7409 22.1869 85.8344C21.9273 85.9278 21.6458 85.9422 21.378 85.8756C21.1103 85.8091 20.8683 85.6646 20.6826 85.4605C20.497 85.2564 20.376 85.0019 20.3351 84.729C20.2941 84.4562 20.335 84.1773 20.4526 83.9277C20.5702 83.6781 20.7591 83.469 20.9955 83.3267C21.232 83.1845 21.5053 83.1156 21.7809 83.1288C21.9639 83.137 22.1435 83.1813 22.3094 83.2591C22.4753 83.3369 22.6242 83.4468 22.7475 83.5824C22.8708 83.7179 22.9661 83.8765 23.0279 84.049C23.0897 84.2215 23.1168 84.4045 23.1077 84.5875Z" fill="#D9603E"/>
<path d="M65.2835 31.9206C65.2698 32.1957 65.1751 32.4606 65.0111 32.6818C64.8472 32.9031 64.6214 33.0709 64.3622 33.1641C64.103 33.2572 63.8221 33.2716 63.5548 33.2053C63.2875 33.139 63.0458 32.9951 62.8601 32.7917C62.6745 32.5883 62.5532 32.3344 62.5116 32.0622C62.47 31.7899 62.5099 31.5115 62.6263 31.2619C62.7428 31.0123 62.9304 30.8028 63.1658 30.6597C63.4011 30.5166 63.6735 30.4464 63.9486 30.4579C64.1324 30.4661 64.3127 30.5105 64.4793 30.5884C64.6459 30.6664 64.7955 30.7765 64.9195 30.9124C65.0435 31.0483 65.1394 31.2072 65.2019 31.3803C65.2644 31.5533 65.2921 31.7369 65.2835 31.9206Z" fill="#D9603E"/>
<path d="M102.631 90.2507C102.618 90.5261 102.523 90.7912 102.358 91.0126C102.194 91.234 101.968 91.4017 101.708 91.4945C101.448 91.5874 101.167 91.6012 100.9 91.5342C100.632 91.4673 100.39 91.3225 100.205 91.1183C100.02 90.9141 99.8994 90.6595 99.8587 90.3868C99.8181 90.1141 99.8592 89.8355 99.9768 89.5861C100.094 89.3367 100.283 89.1278 100.52 88.9858C100.756 88.8437 101.029 88.7749 101.305 88.7879C101.674 88.8066 102.021 88.971 102.27 89.2452C102.519 89.5193 102.649 89.8809 102.631 90.2507Z" fill="#D9603E"/>
<path d="M71.5781 63.8133C71.5643 64.0887 71.4693 64.3538 71.3049 64.5752C71.1406 64.7966 70.9143 64.9643 70.6547 65.0572C70.3951 65.15 70.1137 65.1638 69.8463 65.0969C69.5788 65.0299 69.3372 64.8852 69.1519 64.6809C68.9667 64.4767 68.8461 64.2222 68.8055 63.9495C68.7648 63.6767 68.8059 63.3981 68.9235 63.1487C69.0412 62.8994 69.2301 62.6904 69.4664 62.5484C69.7027 62.4063 69.9758 62.3375 70.2512 62.3506C70.6209 62.3692 70.9682 62.5336 71.2169 62.8078C71.4656 63.082 71.5955 63.4436 71.5781 63.8133Z" fill="#778890"/>
<path d="M104.242 127.091C104.426 123.382 104.714 119.897 103.043 116.48C101.241 112.823 97.0243 114.162 93.4514 113.982C90.6538 113.846 85.2424 112.687 82.9364 114.178C80.2547 115.913 81.2738 120.637 81.2658 123.302C81.2578 125.968 79.9829 131.487 81.7254 133.789C83.404 136.011 89.1551 135.388 91.7169 135.388C94.9141 135.388 99.0106 136.187 102.084 135.552C105.465 134.88 104.09 130.128 104.242 127.091Z" fill="white"/>
<path d="M103.027 116.488C101.225 112.831 97.0082 114.17 93.4353 113.99C93.1555 113.99 92.8438 113.954 92.5201 113.922C92.7439 113.802 92.9637 113.669 93.1795 113.523C94.6502 113.235 96.129 113.179 97.5957 112.643C99.4901 111.948 100.905 110.769 102.579 109.682C102.951 109.442 102.643 108.823 102.256 109.062C100.745 109.994 99.4581 111.161 97.7995 111.86C96.6516 112.28 95.4677 112.594 94.2626 112.799L94.9979 112.276C96.249 111.454 97.4259 110.525 98.5149 109.498C99.9257 108.059 100.513 106.069 98.8626 104.586C97.3919 103.263 95.3376 105.146 94.3625 106.165C92.7751 107.807 91.7374 109.902 91.393 112.16C91.3913 112.144 91.3913 112.128 91.393 112.112C91.211 111.615 90.9665 111.144 90.6656 110.709C90.3059 110.025 89.8299 109.408 89.2588 108.887C88.4595 108.231 87.1447 107.895 86.2694 108.559C85.1464 109.41 86.0896 111.269 86.8249 111.992C87.7385 112.823 88.8576 113.394 90.0662 113.647C87.4444 113.367 84.4709 113.171 82.9363 114.174C81.4615 115.125 81.1058 116.972 81.0818 118.906C88.2277 119.949 97.0682 120.972 104.114 119.805C103.909 118.654 103.543 117.538 103.027 116.488ZM88.9031 112.256C88.0479 111.88 85.8098 110.429 86.8689 109.238C87.5163 108.511 88.9431 109.762 89.2948 110.241C89.8691 110.948 90.3191 111.746 90.6257 112.603C90.6497 112.683 90.6736 112.763 90.6936 112.839C90.0981 112.615 89.4067 112.48 88.9031 112.256ZM94.0308 108.007C94.7342 106.92 97.0202 104.159 98.4789 105.482C100.785 107.568 94.7342 111.54 92.1444 112.903C92.3968 111.15 93.0416 109.477 94.0308 108.007Z" fill="#303030"/>
<path d="M86.0377 122.003C85.4828 122.009 84.9521 122.231 84.5598 122.624C84.1674 123.016 83.9447 123.547 83.9395 124.102V124.521C83.9395 125.078 84.1605 125.611 84.554 126.005C84.9475 126.398 85.4812 126.619 86.0377 126.619C86.5941 126.619 87.1278 126.398 87.5213 126.005C87.9148 125.611 88.1359 125.078 88.1359 124.521V124.102C88.1317 123.546 87.9093 123.015 87.5167 122.623C87.1241 122.23 86.5928 122.008 86.0377 122.003Z" fill="#D9603E"/>
<path d="M92.3243 130.396V130.632C92.3243 133.342 96.5207 133.342 96.5207 130.632V130.396C96.5287 127.691 92.3243 127.691 92.3243 130.396Z" fill="#D9603E"/>
<path d="M99.8858 122.843H99.4862C97.8596 122.843 97.8596 125.36 99.4862 125.36H99.8858C101.516 125.36 101.516 122.843 99.8858 122.843Z" fill="#D9603E"/>
<path d="M99.4702 132.075V132.287C99.4702 133.909 101.984 133.909 101.984 132.287V132.075C101.984 130.452 99.4702 130.452 99.4702 132.075Z" fill="#D9603E"/>
<path d="M93.803 122.635C93.5761 122.634 93.3535 122.697 93.1611 122.817C92.9686 122.937 92.8143 123.11 92.716 123.314C92.652 123.354 92.5521 123.43 92.5401 123.434C92.3912 123.514 92.26 123.623 92.1542 123.755C92.0484 123.887 91.9702 124.038 91.9243 124.201C91.8784 124.364 91.8658 124.534 91.887 124.702C91.9083 124.869 91.9631 125.031 92.0482 125.177C92.1333 125.323 92.2469 125.45 92.3823 125.551C92.5176 125.653 92.672 125.726 92.8361 125.766C93.0002 125.806 93.1708 125.813 93.3376 125.786C93.5044 125.759 93.664 125.698 93.807 125.608C94.1491 125.459 94.4455 125.222 94.666 124.92C94.8865 124.619 95.0231 124.265 95.0619 123.894C95.1219 123.21 94.4305 122.635 93.803 122.635Z" fill="#D9603E"/>
<path d="M86.0377 130.816H85.618C83.9954 130.816 83.9954 133.334 85.618 133.334H86.0377C87.6643 133.334 87.6643 130.816 86.0377 130.816Z" fill="#D9603E"/>
<rect x="5.5" y="1.5" width="137" height="137" stroke="#D8E1E5" stroke-width="3"/>
</g>
<defs>
<filter id="filter0_d" x="0" y="0" width="148" height="148" filterUnits="userSpaceOnUse" color-interpolation-filters="sRGB">
<feFlood flood-opacity="0" result="BackgroundImageFix"/>
<feColorMatrix in="SourceAlpha" type="matrix" values="0 0 0 0 0 0 0 0 0 0 0 0 0 0 0 0 0 0 127 0"/>
<feOffset dy="4"/>
<feGaussianBlur stdDeviation="2"/>
<feColorMatrix type="matrix" values="0 0 0 0 0 0 0 0 0 0 0 0 0 0 0 0 0 0 0.25 0"/>
<feBlend mode="normal" in2="BackgroundImageFix" result="effect1_dropShadow"/>
<feBlend mode="normal" in="SourceGraphic" in2="effect1_dropShadow" result="shape"/>
</filter>
</defs>
</svg>
