<svg width="148" height="148" viewBox="0 0 148 148" fill="none" xmlns="http://www.w3.org/2000/svg">
<g filter="url(#filter0_d)">
<path d="M144 0H4V140H144V0Z" fill="#D9603E"/>
<path d="M21.1533 34.6382C21.3736 34.6381 21.5911 34.6876 21.7897 34.7831C21.9883 34.8786 22.1628 35.0176 22.3003 35.1898C22.5505 35.4977 22.6912 35.8801 22.7 36.2768C22.693 36.6666 22.5518 37.0421 22.3003 37.3399C22.1618 37.5043 21.9841 37.6311 21.7836 37.7086C21.5831 37.7862 21.3663 37.8119 21.1533 37.7835L12.3608 37.3839C12.1383 37.3898 11.9174 37.3447 11.715 37.2518C11.5127 37.159 11.3344 37.0209 11.1938 36.8483C10.9431 36.5423 10.8023 36.1609 10.7942 35.7653C10.8011 35.3755 10.9423 35 11.1938 34.7022C11.3318 34.5372 11.5095 34.41 11.7101 34.3324C11.9107 34.2548 12.1277 34.2294 12.3408 34.2586H12.9923C12.8804 32.1883 12.867 30.1194 12.9523 28.0519C13.0362 25.9816 13.1841 23.9314 13.3959 21.8892C13.6077 19.8469 13.8635 17.8087 14.1633 15.7704C14.463 13.7321 14.7628 11.6899 15.0745 9.64764C15.1025 9.53574 15.1464 9.39186 15.2024 9.22401C14.2538 9.82713 13.2747 10.3807 12.2689 10.8826C12.077 10.9932 11.8622 11.0584 11.6412 11.0729C11.4202 11.0875 11.1987 11.0511 10.994 10.9665C10.62 10.8168 10.3064 10.5468 10.1028 10.1992C9.90504 9.86768 9.83007 9.47726 9.89093 9.09612C9.92858 8.88836 10.0184 8.69356 10.1519 8.52999C10.2854 8.36641 10.4583 8.23942 10.6543 8.16092C12.7091 7.16635 14.6351 5.92491 16.3894 4.46409C16.7098 4.20559 17.105 4.05705 17.5164 4.04045C17.7272 4.0245 17.9388 4.05853 18.1339 4.13979C18.329 4.22104 18.5023 4.34722 18.6394 4.50805C18.9283 4.8102 19.1598 5.16228 19.3228 5.54716C19.4601 5.90957 19.5488 6.28853 19.5866 6.67419C19.6298 7.07238 19.6512 7.47264 19.6506 7.87317C19.6506 8.27282 19.6945 16.3539 19.6945 17.7967C19.6945 23.3919 19.6079 28.9591 19.4348 34.4983L21.1533 34.6382ZM16.4773 22.8643C16.2828 24.7933 16.1496 26.7144 16.0776 28.6274C16.0057 30.5404 16.027 32.4734 16.1416 34.4264H16.2695C16.3814 30.5737 16.4666 26.7104 16.5252 22.8363L16.4773 22.8643ZM16.3094 8.47665H16.5652V8.34476L16.3094 8.47665Z" fill="#303030"/>
<path d="M43.1665 5.14355C43.4499 5.05294 43.7531 5.04325 44.0417 5.11557C44.3361 5.18343 44.6101 5.32043 44.8411 5.51523C45.0836 5.72324 45.2727 5.98638 45.3926 6.28257C45.5261 6.61018 45.5472 6.97282 45.4525 7.31369C44.7921 9.79173 43.9601 12.2209 42.9627 14.5835C41.9609 16.9601 40.9364 19.3261 39.8893 21.6814C38.8422 24.0367 37.8644 26.4213 36.9558 28.8352C36.037 31.2372 35.3478 33.7209 34.8976 36.2529C34.8038 36.6812 34.5871 37.0729 34.2741 37.3799C34.1224 37.5327 33.9374 37.6483 33.7335 37.7176C33.5297 37.787 33.3125 37.8082 33.0991 37.7796L29.3783 37.4199C29.116 37.41 28.8609 37.3309 28.6391 37.1905C28.4173 37.0501 28.2366 36.8534 28.1154 36.6206C27.9533 36.4574 27.8283 36.2612 27.749 36.0453C27.6697 35.8294 27.6379 35.5989 27.6558 35.3696C27.8397 30.2189 28.9724 25.1463 30.9969 20.4065C33.0136 15.6793 35.8556 11.3488 39.3897 7.61743L26.6007 7.4256C26.3825 7.38909 26.1777 7.2961 26.0066 7.15587C25.8355 7.01564 25.7041 6.83305 25.6255 6.62628C25.4994 6.24878 25.5078 5.83924 25.6495 5.46727C25.8019 5.06344 26.0828 4.72083 26.4488 4.49211C26.6475 4.36259 26.8725 4.2789 27.1075 4.2471C27.3425 4.2153 27.5817 4.2362 27.8077 4.30827L43.0786 5.19551L43.1665 5.14355ZM31.8202 34.3186C32.2819 32.2854 32.8705 30.2832 33.5827 28.3237C34.2914 26.3654 35.0601 24.4204 35.8887 22.4887C36.7173 20.557 37.558 18.628 38.4106 16.7016C39.2712 14.7726 40.0478 12.829 40.7406 10.8706C37.9054 14.0861 35.6194 17.7467 33.9744 21.7054C32.3214 25.6923 31.3176 29.9182 31.0009 34.2226L31.8202 34.3186Z" fill="#303030"/>
<path d="M102.404 56.4596C102.767 63.3298 102.084 70.1159 101.129 76.4905C99.8819 84.8193 93.8191 90.4105 88.4876 96.3854C84.591 100.754 75.299 106.98 74.4237 112.855C73.3726 119.773 81.1779 119.937 86.0138 119.35C93.2716 118.467 98.8028 113.195 104.182 108.787C108.978 104.858 115.137 102.364 119.637 98.1239C123.334 94.6429 125.712 89.2076 127.474 84.4477C132.086 71.9943 130.931 58.402 131.651 44.7617C132.014 37.8596 133.249 31.8487 124.988 30.5379C121.703 30.0143 117.858 30.5379 114.521 30.5379C106.556 30.5379 101.564 29.2829 100.869 38.8268C100.429 44.7936 102.092 50.5727 102.404 56.4596Z" fill="white"/>
<path d="M115.74 77.4856C111.26 77.6494 105.845 77.9651 100.953 77.3817C100.897 77.6694 100.841 77.9532 100.773 78.2329C104.182 78.6351 107.612 78.8419 111.044 78.8524C117.139 78.9203 123.254 78.4527 129.345 77.9891C129.461 77.4616 129.572 76.934 129.672 76.3905C125.032 76.6663 120.376 77.3137 115.74 77.4856Z" fill="#BAD9E4"/>
<path d="M101.624 101.589C97.5717 101.189 93.5192 100.83 89.4507 100.622C88.7313 100.586 85.9937 100.898 83.7876 100.862C83.4518 101.161 83.1121 101.465 82.7724 101.777H82.8604C87.1087 101.977 91.3331 102.037 95.5775 102.416C100.617 102.864 105.881 103.639 111.132 104.107C112.107 103.515 113.082 102.908 114.038 102.316C109.909 102.128 105.729 101.981 101.624 101.589Z" fill="#BAD9E4"/>
<path d="M104.782 108.307C101.908 108.051 99.0146 107.86 96.1491 107.568C90.4539 106.976 84.3072 106.253 78.3283 106.101C77.8621 106.618 77.4238 107.136 77.0135 107.656C82.4328 108.111 87.8881 108.427 93.2875 108.683C96.5967 108.839 99.9858 109.083 103.359 109.446C103.631 109.218 103.906 108.991 104.158 108.771C104.374 108.623 104.586 108.479 104.782 108.307Z" fill="#BAD9E4"/>
<path d="M117.443 63.01C121.343 62.6943 125.248 62.2107 129.141 61.7671C129.829 61.6682 130.51 61.524 131.179 61.3355C131.179 60.7799 131.219 60.2204 131.235 59.6609C129.077 60.0246 127.01 60.5761 126.255 60.656C121.191 61.2076 116.176 61.883 111.068 61.7431C108.183 61.6672 105.329 61.4593 102.488 61.5513C102.488 61.9509 102.464 62.3506 102.452 62.7502C103.439 62.7942 104.41 62.8821 105.281 62.9421C109.328 63.2566 113.392 63.2793 117.443 63.01Z" fill="#BAD9E4"/>
<path d="M108.387 93.8436C104.19 93.6637 100.018 93.6437 95.8253 93.312C94.4465 93.2041 93.0477 93.0522 91.6409 92.9124L90.2141 94.475C96.7485 95.0785 103.467 94.9946 109.909 95.2743C113.682 95.4462 117.599 95.674 121.383 96.1696C121.707 95.7699 122.031 95.3702 122.331 94.9226C121.599 94.8067 120.872 94.6988 120.152 94.6349C116.248 94.2952 112.307 94.0074 108.387 93.8436Z" fill="#BAD9E4"/>
<path d="M126.423 85.127C122.235 85.127 118.05 85.3069 113.862 85.3229C109.765 85.3229 105.669 84.9232 101.56 84.9232C100.513 84.9232 99.2383 84.9792 97.8915 85.0111C97.7116 85.2949 97.5318 85.5787 97.3439 85.8624C101.077 85.9463 104.818 85.9823 108.534 86.1542C114.557 86.4299 120.772 85.9104 126.879 85.9663C126.995 85.6706 127.102 85.3788 127.214 85.0831C126.947 85.127 126.695 85.127 126.423 85.127Z" fill="#BAD9E4"/>
<path d="M121.204 69.9761C124.133 69.6963 127.47 69.2527 130.699 69.2247C130.739 68.7931 130.779 68.3655 130.815 67.9338C128.817 68.1017 126.871 68.4254 125.904 68.4494C121.128 68.5733 116.42 69.2727 111.624 69.2927C108.427 69.2927 105.229 69.2327 102.032 69.2687C101.992 69.6684 101.944 70.096 101.9 70.5076C108.339 70.7646 114.788 70.5871 121.204 69.9761Z" fill="#BAD9E4"/>
<path d="M122.874 53.4901C118.306 53.8898 113.702 53.7579 109.122 53.7659C106.928 53.7659 104.522 53.5461 102.148 53.5381C102.208 54.0576 102.26 54.5812 102.308 55.1007C103.73 55.0528 105.105 54.9729 105.937 54.9729C110.141 54.9729 114.349 55.0128 118.558 54.9729C122.131 54.9369 125.656 54.3054 129.213 54.1456C129.92 54.1136 130.639 54.0337 131.359 53.9537C131.359 53.4142 131.379 52.8747 131.391 52.3551C128.046 52.5349 124.037 53.3822 122.874 53.4901Z" fill="#BAD9E4"/>
<path d="M128.17 82.3894C124.756 82.9729 121.503 84.9552 119.857 87.6969C117.375 91.8373 117.379 95.3863 118.526 99.0791C118.901 98.7634 119.281 98.4556 119.633 98.1239C123.33 94.6429 125.708 89.2076 127.47 84.4476C127.722 83.7642 127.95 83.0808 128.17 82.3894Z" fill="#778890"/>
<path d="M87.7602 112.012C84.1993 109.39 82.0491 108.847 77.7688 109.526C76.9806 109.646 76.2009 109.817 75.4348 110.038C74.942 110.913 74.6015 111.866 74.4277 112.855C73.3766 119.773 81.1819 119.937 86.0177 119.35C88.3956 119.031 90.697 118.288 92.8119 117.156C91.6369 115.101 89.6626 113.415 87.7602 112.012Z" fill="#778890"/>
<path d="M124.984 30.5379C121.699 30.0143 117.854 30.5379 114.517 30.5379C106.552 30.5379 101.56 29.2829 100.865 38.8268C100.725 41.228 100.818 43.6371 101.141 46.0206C106.38 44.0703 113.634 44.4579 119.525 44.7497C124.521 45.0015 128.953 46.6161 131.647 44.6658C132.022 37.8076 133.213 31.8407 124.984 30.5379Z" fill="#778890"/>
<path d="M107.415 36.1211C106.862 36.1211 106.321 36.2852 105.861 36.5926C105.401 36.9 105.042 37.3369 104.831 37.8481C104.619 38.3593 104.564 38.9218 104.671 39.4645C104.779 40.0072 105.046 40.5057 105.437 40.8969C105.828 41.2882 106.327 41.5546 106.87 41.6625C107.412 41.7705 107.975 41.7151 108.486 41.5033C108.997 41.2916 109.434 40.933 109.741 40.473C110.049 40.0129 110.213 39.472 110.213 38.9187C110.213 38.1767 109.918 37.4651 109.394 36.9405C108.869 36.4158 108.157 36.1211 107.415 36.1211Z" fill="white"/>
<path d="M118.702 36.137C118.317 36.1362 117.942 36.2494 117.622 36.4624C117.302 36.6753 117.052 36.9784 116.904 37.3332C116.757 37.6881 116.718 38.0787 116.792 38.4558C116.867 38.8328 117.051 39.1793 117.323 39.4513C117.594 39.7234 117.94 39.9088 118.317 39.984C118.694 40.0593 119.085 40.0211 119.44 39.8742C119.795 39.7273 120.099 39.4783 120.312 39.1588C120.526 38.8393 120.64 38.4636 120.64 38.0793C120.636 37.5661 120.431 37.0751 120.068 36.7119C119.706 36.3486 119.215 36.1422 118.702 36.137Z" fill="white"/>
<path d="M127.051 36.1051C126.66 36.1051 126.278 36.2209 125.954 36.4378C125.629 36.6548 125.376 36.9631 125.227 37.3239C125.077 37.6846 125.038 38.0816 125.114 38.4646C125.19 38.8476 125.378 39.1993 125.655 39.4755C125.931 39.7516 126.282 39.9396 126.665 40.0158C127.048 40.092 127.445 40.0529 127.806 39.9034C128.167 39.754 128.475 39.5009 128.692 39.1763C128.909 38.8516 129.025 38.4699 129.025 38.0794C129.019 37.5577 128.809 37.0592 128.44 36.6902C128.071 36.3213 127.572 36.1113 127.051 36.1051Z" fill="white"/>
<path d="M46.0039 31.3931C42.5589 34.7662 43.9137 46.9518 43.9137 51.8636V72.7377C43.9137 79.5318 44.4173 86.0462 41.9154 92.0491C39.7533 97.2446 34.9454 101.453 31.2766 105.637C28.6668 108.615 19.8863 117.775 24.2666 121.624C28.1432 125.017 38.8301 118.518 42.2512 116.508C52.1587 110.657 63.2691 100.234 70.3351 90.8222C78.3282 80.1673 73.7402 64.5127 75.7544 51.9475C76.6217 46.5561 80.8221 37.0083 78.596 31.3851C76.7376 26.6492 63.7767 27.976 58.9528 28.4716C55.8155 28.7873 45.5004 29.5147 46.4236 33.8989L46.0039 31.3931Z" fill="#EFEACA"/>
<path d="M38.0748 113.671C34.6457 110.329 29.5621 111.057 25.1499 113.351C23.1876 116.484 22.1005 119.717 24.2826 121.632C27.6198 124.549 35.9886 120.153 40.4368 117.583C40.04 116.08 39.2203 114.722 38.0748 113.671Z" fill="#303030"/>
<path d="M74.7035 79.8036C74.4717 79.8036 74.2439 79.8036 73.9921 79.8555C69.2402 80.3991 64.1325 84.0839 62.402 88.628C61.4988 90.994 60.3038 97.5883 62.7657 99.6985C65.4661 96.8916 68.0015 93.9305 70.3592 90.8301C72.8011 87.549 74.068 83.7962 74.7035 79.8036Z" fill="#303030"/>
<path d="M76.7377 47.7312C75.5707 47.6232 74.3997 47.5313 73.2247 47.4754C73.7962 41.1528 74.024 34.6863 73.3166 28.3438C72.865 28.2598 72.3934 28.1919 71.9059 28.136C71.8259 31.0654 72.1377 34.0269 72.1297 36.9284C72.1297 40.4174 71.8499 43.9104 71.5981 47.3874C69.9995 47.3342 68.4009 47.3075 66.8022 47.3075C66.8422 43.4228 67.018 39.5382 66.9861 35.6535C66.9861 33.4554 66.4425 30.458 66.6304 27.9161C66.2587 27.9161 65.895 27.9161 65.5313 27.9481C65.3595 29.6147 65.5833 31.4411 65.5713 32.9119C65.5313 37.7077 65.3755 42.5036 65.3275 47.2995H60.7035C60.7374 47.2155 60.7563 47.1263 60.7594 47.0358C60.8314 43.4828 61.1311 39.9378 61.1591 36.3809C61.1591 35.6655 61.1111 30.9176 61.239 28.2239L60.2239 28.3198C59.6244 34.5305 59.2927 40.8091 59.2327 47.0358C59.2313 47.1273 59.2476 47.2182 59.2807 47.3035C57.8339 47.3035 56.3872 47.3275 54.9364 47.3635C54.9606 47.2704 54.9606 47.1728 54.9364 47.0797C53.4976 41.1648 56.0475 34.8542 56.0674 28.7434C55.6678 28.7914 55.2401 28.8473 54.8045 28.9113C54.3409 32.2524 54.1211 35.6695 53.7654 38.9946C53.4936 41.5485 52.5664 44.9296 53.7654 47.3874C52.3986 47.4354 51.0318 47.4954 49.6649 47.5993C49.4331 47.5993 49.2053 47.6512 48.9735 47.6752C48.9495 47.5915 48.9058 47.5147 48.846 47.4515C48.7862 47.3882 48.712 47.3402 48.6298 47.3115C48.394 47.2236 49.3652 37.5399 49.3852 36.4768C49.385 34.341 49.4958 32.2066 49.7169 30.0823C49.2912 30.2377 48.876 30.4206 48.4739 30.6298C48.4739 31.3252 48.45 31.9847 48.398 32.5042C47.8787 37.6016 47.6385 42.7235 47.6786 47.8471C46.3837 48.0469 45.1048 48.3226 43.8259 48.5744C43.8259 49.09 43.8659 49.5816 43.8819 50.0412C44.917 49.8533 45.9561 49.6175 47.0112 49.4017C51.3795 48.5105 56.2033 48.8462 60.6315 48.8502C64.3044 48.8502 75.1231 49.4457 76.2621 49.5736C76.406 49.0101 76.5739 48.3786 76.7377 47.7312Z" fill="#303030"/>
<path d="M65.9869 71.5066C64.6641 69.1487 61.5187 67.582 59.3126 66.1872L59.2007 66.1193C59.8841 65.7636 60.5796 65.4239 61.275 65.0961C62.4739 64.5326 63.6729 63.5575 64.9598 63.2937C65.7032 63.1378 65.3874 62.0068 64.6481 62.1587C62.6098 62.5783 60.3637 64.089 58.4614 65.1641C59.2927 61.2634 60.4597 57.5026 62.7257 54.4972C62.8856 54.2894 62.5818 54.0296 62.378 54.1495C59.4765 55.876 58.6732 61.3034 57.8099 64.2529C57.722 64.5526 57.6301 64.8563 57.5382 65.1641C57.4183 65.0961 57.2904 65.0442 57.1665 64.9762C55.8967 62.2184 54.8904 59.3468 54.1611 56.3996C54.1011 56.1358 53.7294 56.2157 53.7134 56.4595C53.5296 59.0973 54.8565 61.3513 55.8436 63.7213L56.1593 64.4767C53.6295 63.2457 50.9878 62.2346 48.434 61.0396C48.3746 61.0046 48.3038 60.9947 48.2371 61.0119C48.1704 61.0291 48.1132 61.0722 48.0783 61.1315C48.0433 61.1909 48.0333 61.2617 48.0506 61.3284C48.0678 61.3951 48.1108 61.4523 48.1702 61.4872C50.748 63.2497 53.8253 64.129 56.603 65.5438C56.6749 65.7156 56.7508 65.8915 56.8228 66.0673C54.5247 67.3007 52.3442 68.7414 50.3084 70.3716C49.9087 70.6913 50.4163 71.1709 50.8079 71.0191C52.8901 70.1078 54.8724 68.6411 56.8627 67.4221C56.4335 68.8259 56.1076 70.2591 55.8876 71.7105C55.6798 73.3091 54.7845 75.6711 55.0883 77.1978C55.0836 77.2528 55.0905 77.3082 55.1084 77.3605C55.1263 77.4128 55.1548 77.4608 55.1922 77.5015C55.2101 77.5234 55.2302 77.5435 55.2521 77.5615L55.2921 77.5894C55.3386 77.6237 55.3917 77.6482 55.4479 77.6614C55.4963 77.6739 55.5459 77.6806 55.5958 77.6814C55.645 77.6855 55.6945 77.6855 55.7437 77.6814C55.8008 77.6651 55.8549 77.6394 55.9036 77.6054L55.9395 77.5774C55.9624 77.5606 55.9826 77.5404 55.9995 77.5175C56.0699 77.4444 56.11 77.3472 56.1114 77.2457C56.8108 74.548 57.2704 71.5426 57.8099 68.5132C58.6652 70.5994 59.5085 72.6896 60.2958 74.7958C60.5396 75.4473 61.5947 75.1555 61.3389 74.5081C60.3717 72.0222 59.2047 69.5483 58.0737 67.0585C58.0737 66.9386 58.1137 66.8227 58.1376 66.7028L58.4294 66.5429C60.9153 67.9017 64.0726 69.7921 65.2755 71.9343C65.5473 72.3659 66.2427 71.9583 65.9869 71.5066Z" fill="#778890"/>
<path d="M44.8011 98.3956C44.7317 98.3278 44.6384 98.2898 44.5413 98.2898C44.4442 98.2898 44.351 98.3278 44.2815 98.3956C44.1976 98.4596 43.9139 98.7074 44.0657 98.6235C43.794 98.7673 43.702 99.155 43.5702 99.4228C43.3965 99.8367 43.1456 100.214 42.8308 100.534C42.4871 100.79 42.531 101.529 43.0786 101.461C43.8139 101.365 44.2775 100.774 44.6292 100.17C44.9809 99.5667 45.2447 98.9552 44.8011 98.3956Z" fill="white"/>
<path d="M48.8336 89.2395C48.7625 88.8993 48.7131 88.5549 48.6857 88.2084C48.6839 88.0764 48.6385 87.9486 48.5567 87.845C48.4749 87.7414 48.3611 87.6677 48.2331 87.6353C48.1051 87.603 47.97 87.6138 47.8487 87.6661C47.7275 87.7184 47.6269 87.8093 47.5626 87.9246C47.0711 88.656 47.4387 89.9229 47.8024 90.6463C47.8587 90.739 47.9406 90.8134 48.0384 90.8604C48.1361 90.9074 48.2454 90.925 48.353 90.9111C48.4605 90.8971 48.5617 90.8521 48.6442 90.7817C48.7267 90.7113 48.7869 90.6184 48.8176 90.5144C48.9437 90.0996 48.9492 89.6574 48.8336 89.2395Z" fill="white"/>
<path d="M52.4464 95.6221C52.2106 94.9786 51.5112 95.4942 51.2475 95.7979C50.9474 96.1963 50.7287 96.6499 50.604 97.1328C50.5928 97.1704 50.5921 97.2104 50.602 97.2485C50.6118 97.2865 50.6319 97.3211 50.66 97.3486C51.0836 97.7962 51.6591 97.4965 51.9908 97.0848C52.2546 96.7491 52.6103 96.0777 52.4464 95.6221Z" fill="white"/>
<path d="M57.658 89.7192C57.6191 89.5949 57.5415 89.4863 57.4365 89.4092C57.3316 89.3321 57.2047 89.2905 57.0745 89.2905C56.9443 89.2905 56.8174 89.3321 56.7125 89.4092C56.6075 89.4863 56.5299 89.5949 56.491 89.7192C56.3168 90.1686 56.1831 90.6328 56.0913 91.106C56.0208 91.3406 56.0087 91.5888 56.0561 91.8291C56.1035 92.0694 56.2089 92.2945 56.3631 92.4848C56.446 92.5624 56.5553 92.6055 56.6688 92.6055C56.7824 92.6055 56.8917 92.5624 56.9746 92.4848C57.2869 92.1266 57.5029 91.6947 57.602 91.2299C57.7758 90.7441 57.7953 90.2165 57.658 89.7192Z" fill="white"/>
<path d="M57.7339 100.742C57.7344 100.662 57.714 100.583 57.6745 100.514C57.6351 100.444 57.5782 100.387 57.5094 100.346C57.4405 100.306 57.3623 100.284 57.2825 100.283C57.2027 100.282 57.1241 100.303 57.0545 100.342C56.718 100.508 56.4547 100.793 56.3152 101.141C56.1833 101.461 56.0874 101.941 56.4511 102.14C56.8147 102.34 57.0985 102.08 57.3023 101.861C57.4361 101.737 57.5494 101.592 57.638 101.433C57.7365 101.217 57.7698 100.977 57.7339 100.742Z" fill="white"/>
<path d="M48.306 103.671C47.7065 104.259 46.7474 105.849 47.6826 106.517C47.7433 106.552 47.8122 106.57 47.8824 106.57C47.9525 106.57 48.0215 106.552 48.0822 106.517C48.4149 106.274 48.6769 105.947 48.8416 105.569C49.1222 105.124 49.282 104.613 49.3052 104.087C49.301 103.973 49.2643 103.863 49.1993 103.769C49.1344 103.675 49.044 103.602 48.9388 103.559C48.8336 103.515 48.7181 103.502 48.606 103.522C48.4938 103.542 48.3897 103.594 48.306 103.671Z" fill="white"/>
<path d="M37.2994 104.311C36.9637 105.066 35.8566 105.685 36.1004 106.629C36.1284 106.725 36.1837 106.81 36.2596 106.875C36.3354 106.941 36.4285 106.982 36.5276 106.995C36.6267 107.008 36.7275 106.993 36.8177 106.949C36.9079 106.906 36.9836 106.838 37.0356 106.753C37.2315 106.425 37.3394 106.065 37.5512 105.737C37.7905 105.406 37.9517 105.025 38.0228 104.622C38.0987 104.199 37.5032 103.843 37.2994 104.311Z" fill="white"/>
<path d="M41.9914 109.246C41.6397 109.93 41.0882 110.445 41.0363 111.245C40.9963 111.88 41.8835 112.044 42.1873 111.556C42.5542 110.968 42.8241 110.324 42.9866 109.65C43.0945 109.106 42.2792 108.683 41.9914 109.246Z" fill="white"/>
<path d="M62.9455 79.0482C62.897 78.877 62.7829 78.7319 62.628 78.6443C62.4731 78.5568 62.2899 78.5339 62.1182 78.5806C61.7076 78.7211 61.3512 78.9866 61.0991 79.34C60.9644 79.5221 60.8796 79.7363 60.853 79.9613C60.8263 80.1862 60.8588 80.4143 60.9472 80.6229C61.0006 80.7149 61.0773 80.7914 61.1695 80.8445C61.2617 80.8977 61.3663 80.9257 61.4728 80.9257C61.5792 80.9257 61.6838 80.8977 61.7761 80.8445C61.8683 80.7914 61.9449 80.7149 61.9983 80.6229C62.1302 80.399 62.2101 79.9874 62.4739 79.8755C62.6441 79.8252 62.7883 79.7109 62.8762 79.5567C62.9641 79.4025 62.9889 79.2203 62.9455 79.0482Z" fill="white"/>
<path d="M51.0596 79.2401C51.0596 78.6926 51.0316 78.0412 50.54 77.7214C50.4949 77.6939 50.4431 77.6793 50.3902 77.6793C50.3373 77.6793 50.2854 77.6939 50.2403 77.7214C49.7327 78.0571 49.7687 78.6846 49.7207 79.2401C49.6808 79.6837 49.7887 80.499 50.3922 80.499C50.9957 80.499 51.0756 79.6837 51.0596 79.2401Z" fill="white"/>
<path d="M70.1114 71.3508C69.9115 72.1501 69.5998 73.3851 70.1513 74.0885C70.1887 74.1284 70.2339 74.1602 70.2841 74.182C70.3343 74.2038 70.3884 74.215 70.4431 74.215C70.4978 74.215 70.5519 74.2038 70.6021 74.182C70.6523 74.1602 70.6975 74.1284 70.7348 74.0885C70.9659 73.7805 71.0703 73.3959 71.0266 73.0134C71.0344 72.5545 71.0907 72.0977 71.1945 71.6506C71.3543 70.9432 70.2832 70.6474 70.1114 71.3508Z" fill="white"/>
<path d="M54.9323 83.2166C54.8605 83.1475 54.7829 83.0847 54.7005 83.0287C54.2769 82.705 53.6814 83.1486 53.6814 83.6162C53.6814 84.0838 54.2769 84.5235 54.7005 84.1997C54.7829 84.1438 54.8605 84.081 54.9323 84.0119C55.0365 83.9058 55.0949 83.763 55.0949 83.6142C55.0949 83.4655 55.0365 83.3227 54.9323 83.2166Z" fill="white"/>
<rect x="5.5" y="1.5" width="137" height="137" stroke="#D8E1E5" stroke-width="3"/>
</g>
<defs>
<filter id="filter0_d" x="0" y="0" width="148" height="148" filterUnits="userSpaceOnUse" color-interpolation-filters="sRGB">
<feFlood flood-opacity="0" result="BackgroundImageFix"/>
<feColorMatrix in="SourceAlpha" type="matrix" values="0 0 0 0 0 0 0 0 0 0 0 0 0 0 0 0 0 0 127 0"/>
<feOffset dy="4"/>
<feGaussianBlur stdDeviation="2"/>
<feColorMatrix type="matrix" values="0 0 0 0 0 0 0 0 0 0 0 0 0 0 0 0 0 0 0.25 0"/>
<feBlend mode="normal" in2="BackgroundImageFix" result="effect1_dropShadow"/>
<feBlend mode="normal" in="SourceGraphic" in2="effect1_dropShadow" result="shape"/>
</filter>
</defs>
</svg>
