<svg width="148" height="148" viewBox="0 0 148 148" fill="none" xmlns="http://www.w3.org/2000/svg">
<g filter="url(#filter0_d)">
<path d="M144 0H4V140H144V0Z" fill="white"/>
<path d="M63.7128 133.733C57.8498 132.75 52.4425 130.796 48.2261 127.587C43.2344 123.794 36.3723 114.998 43.5661 109.906C48.5578 106.369 59.3206 106.333 65.1996 105.757C76.9655 104.606 89.6066 104.81 100.729 108.875C104.75 110.345 110.565 113.327 111.18 118.199C111.979 124.517 104.026 128.138 99.0905 130.033C89.5267 133.709 75.6706 135.74 63.7128 133.733Z" fill="#BE3920"/>
<path d="M122.299 72.1421C122.376 70.9717 122.265 69.7965 121.971 68.6611C117.798 54.4812 88.7993 57.8423 78.3003 58.242C66.4025 58.6936 40.7045 56.6434 32.1359 67.1344C24.6423 76.2905 35.6848 99.3468 41.4199 107.636C45.0528 112.883 49.6489 117.419 55.2441 120.557C56.7628 121.404 74.064 127.255 74.0799 125.752V125.856C74.7674 125.856 75.4428 125.856 76.1142 125.856C76.7856 125.856 77.457 125.896 78.1485 125.904V125.804C78.1485 127.199 94.2906 122.715 95.5575 122.255C101.716 120.021 106.18 116.78 110.041 111.336C114.969 104.378 117.699 96.0975 119.173 87.7567C119.861 83.848 122.099 77.1338 122.299 72.1421Z" fill="#D9603E"/>
<path d="M133.461 82.5573C131.295 74.768 120.208 70.9233 115.688 78.7206C115.153 79.6478 116.452 80.6629 117.191 79.8676C119.333 77.5656 121.799 76.9901 124.589 78.5048C126.803 79.7037 127.242 82.7651 127.318 85.0272C127.41 87.8847 123.322 87.597 121.323 87.9487C120.656 88.1085 119.993 88.2724 119.325 88.4203C119.241 88.4203 116.528 88.2045 117.219 88.6441C116.624 88.2364 115.942 87.9732 115.227 87.8754C114.513 87.7775 113.785 87.8478 113.102 88.0806C111.072 88.8559 109.55 90.3706 109.55 92.6766C109.55 94.7988 111.236 97.0729 113.402 97.4046C113.809 97.5941 114.246 97.7117 114.693 97.7523C116.235 97.9342 117.794 97.8979 119.325 97.6444C122.087 97.3047 125.856 96.5493 128.317 95.1665C133.053 92.5048 134.904 87.7568 133.461 82.5573Z" fill="#D9603E"/>
<path d="M116.532 67.3783C121.487 83.3886 67.2538 83.1808 59.2846 81.766C52.7902 80.611 27.2641 77.3698 36.1045 66.8388C41.9675 59.8288 60.5915 62.007 68.8924 61.6712C80.2946 61.2116 92.1205 60.4723 103.587 60.9079C108.618 61.1077 114.861 61.979 116.532 67.3783Z" fill="#BE3920"/>
<path d="M47.5627 75.4473C41.8036 73.7848 36.9877 70.6514 35.2852 64.4487C34.6697 62.1068 34.6056 59.654 35.098 57.2831C35.5903 54.9122 36.6257 52.6877 38.1228 50.7845C39.3577 49.2658 48.8615 42.6155 50.4282 45.4291C44.6572 35.0619 55.0642 17.8327 66.2307 28.3157C65.9789 19.0557 71.8259 13.7162 75.3748 5.74707C82.7325 9.61575 92.3243 23.0123 91.8407 31.505C96.4767 27.2686 101.664 24.523 107.623 29.0151C112.043 32.3363 114.817 39.7419 111.62 44.7816C123.609 43.6945 125.608 58.9535 119.053 66.0114C113.086 72.4259 104.166 76.1267 95.6934 77.4336C86.9009 78.7805 77.2612 78.8284 68.2329 77.9252C62.4099 77.3417 54.3249 77.4096 47.5627 75.4473Z" fill="#BAD9E4"/>
<path d="M90.4779 73.4931C80.1827 75.5953 31.7922 83.4845 38.2466 60.8239C39.2058 57.4508 50.5201 45.0215 54.6925 49.8773C45.964 39.718 57.626 24.6229 69.388 32.1245C69.7277 26.9489 69.9635 11.0266 79.2155 14.2318C84.9906 16.2301 88.0759 31.6969 88.6674 36.5527C92.3483 35.7534 98.0594 31.0334 101.732 33.5873C105.073 35.9133 104.434 44.5818 102.783 47.4794C113.406 45.1813 114.373 59.509 109.689 65.376C104.79 71.4988 97.4399 72.0743 90.4779 73.4931Z" fill="white"/>
<path d="M91.9246 59.3931C88.2758 58.5059 82.7725 60.8718 84.4031 65.308C84.4275 65.3872 84.4791 65.4552 84.5487 65.5C84.6184 65.5449 84.7016 65.5637 84.7838 65.5532C84.8659 65.5427 84.9418 65.5035 84.9979 65.4426C85.054 65.3816 85.0868 65.3029 85.0905 65.2201C85.2903 63.6215 85.682 62.2027 87.3126 61.5832C88.8153 61.0117 90.4019 61.2715 91.9246 60.8798C92.0849 60.8323 92.2256 60.7343 92.3256 60.6003C92.4256 60.4663 92.4796 60.3036 92.4796 60.1365C92.4796 59.9693 92.4256 59.8066 92.3256 59.6726C92.2256 59.5387 92.0849 59.4406 91.9246 59.3931Z" fill="#BAD9E4"/>
<path d="M95.7653 47.3754C94.966 46.4322 93.5233 46.2323 92.3842 46.3722C89.5627 46.7319 87.4245 49.1379 88.028 52.0194C88.1599 52.6588 89.115 52.499 89.127 51.8795C89.167 49.8812 90.5138 48.5943 92.4042 48.2226C92.7283 48.1508 93.064 48.1494 93.3888 48.2183C93.7135 48.2872 94.0196 48.425 94.2866 48.6223C94.8062 49.0859 94.6863 49.8932 95.1459 50.4008C95.2357 50.4915 95.3532 50.5498 95.4798 50.5665C95.6065 50.5831 95.735 50.5571 95.8453 50.4927C96.9163 49.7373 96.4607 48.2186 95.7653 47.3754Z" fill="#BAD9E4"/>
<path d="M71.5421 48.9101C70.3431 46.9877 69.5438 44.7736 66.978 44.6657C65.835 44.6178 64.704 46.0605 64.1404 46.8678C63.3942 47.9713 63.0126 49.281 63.0494 50.6126C63.0494 51.2001 63.8967 51.6917 64.3323 51.1402C64.3577 51.1073 64.3905 51.0808 64.4279 51.0627C64.4654 51.0447 64.5065 51.0356 64.5481 51.0363C64.6401 51.0092 64.7208 50.9532 64.7782 50.8765C64.8357 50.7997 64.8667 50.7065 64.8667 50.6106C64.8667 50.5148 64.8357 50.4215 64.7782 50.3448C64.7208 50.2681 64.6401 50.212 64.5481 50.185C64.5481 50.185 65.0477 48.6783 65.2155 48.3266C65.6472 47.4433 66.6623 46.0525 67.7973 46.5601C69.0802 47.1356 69.2241 49.2378 70.3551 50.0971C71.0545 50.6326 71.9697 49.6015 71.5421 48.9101Z" fill="#BAD9E4"/>
<path d="M80.8541 36.5288C80.2826 35.1859 79.2155 33.7711 77.7488 33.3315C77.0616 33.1392 76.3385 33.1131 75.6392 33.2553C74.9399 33.3975 74.2845 33.704 73.727 34.1495C73.1695 34.5949 72.7259 35.1666 72.4329 35.8172C72.1399 36.4679 72.0058 37.1789 72.0417 37.8916C72.0657 38.595 73.1967 38.8108 73.3166 38.0595C73.7162 35.5096 76.5618 33.5154 78.4402 36.0971C79.2395 37.2162 79.3234 39.9219 80.8022 40.3615C80.9254 40.3916 81.055 40.381 81.1718 40.3313C81.2885 40.2816 81.3859 40.1954 81.4496 40.0857C82.165 39.1665 81.2498 37.46 80.8541 36.5288Z" fill="#BAD9E4"/>
<path d="M71.0785 60.1524C69.7876 58.8775 67.4136 58.7855 65.791 59.2571C64.7475 59.6237 63.7938 60.2082 62.9934 60.9717C62.298 61.5711 62.286 62.1027 62.0582 62.938C61.7385 64.097 61.5467 65.6556 63.1413 65.5997C63.485 65.5997 63.7008 65.0482 63.3291 64.8883C63.1853 64.8284 63.6329 63.4375 63.7728 63.0179C64.2324 61.6391 66.0388 60.8877 67.4296 60.8238C68.0579 60.761 68.6887 60.9151 69.2172 61.2605C69.7458 61.6058 70.1403 62.1216 70.3351 62.7222C70.6509 63.5694 70.9706 64.2289 71.8978 64.4607C72.0329 64.4949 72.176 64.4747 72.2964 64.4044C72.4167 64.3342 72.5047 64.2195 72.5413 64.085C72.857 62.8061 71.9857 61.0556 71.0785 60.1524Z" fill="#BAD9E4"/>
<path d="M52.6943 63.4495C52.2946 62.91 51.9669 62.3505 51.5792 61.811C50.9278 60.9037 50.0485 59.9286 48.8136 60.1084C47.4348 60.3162 46.4396 61.9029 46.4156 63.1818C46.4156 64.6285 46.1479 66.3191 47.8304 66.7787C47.8956 66.7946 47.9641 66.7889 48.0257 66.7623C48.0873 66.7357 48.1384 66.6897 48.1715 66.6313C48.2045 66.573 48.2176 66.5054 48.2087 66.439C48.1998 66.3725 48.1694 66.3108 48.1222 66.2631C47.4388 65.5118 47.9703 63.9971 48.0822 63.1298C48.1622 62.5024 48.8815 61.6631 49.445 62.1946C50.4922 63.1898 51.1796 65.9314 52.8541 65.9714C52.9842 65.9684 53.112 65.9364 53.228 65.8776C53.3441 65.8188 53.4455 65.7348 53.5249 65.6317C53.6042 65.5286 53.6595 65.409 53.6866 65.2818C53.7136 65.1545 53.7119 65.0228 53.6814 64.8963C53.5775 64.3448 53.022 63.9052 52.6943 63.4495Z" fill="#BAD9E4"/>
<path d="M70.7987 114.969C70.9961 114.968 71.1912 115.011 71.3692 115.096C71.5473 115.181 71.7034 115.306 71.8259 115.461C72.0422 115.737 72.1616 116.077 72.1656 116.428C72.1651 116.775 72.0452 117.111 71.8259 117.379C71.7025 117.527 71.5435 117.642 71.3639 117.712C71.1842 117.782 70.9898 117.805 70.7987 117.779L62.9455 117.439C62.748 117.439 62.5531 117.395 62.3752 117.309C62.1973 117.223 62.0412 117.098 61.9184 116.944C61.702 116.667 61.5827 116.328 61.5787 115.977C61.58 115.631 61.6999 115.297 61.9184 115.029C62.0418 114.881 62.2007 114.767 62.3804 114.697C62.56 114.627 62.7544 114.604 62.9455 114.63H63.513C63.4144 112.783 63.4024 110.937 63.477 109.091C63.5516 107.244 63.6848 105.41 63.8767 103.587C64.0632 101.765 64.2897 99.9424 64.5561 98.1199C64.8225 96.2975 65.089 94.4764 65.3554 92.6566C65.3834 92.5567 65.4194 92.4288 65.4713 92.2569C64.6256 92.7961 63.7518 93.2897 62.8536 93.7357C62.6823 93.8351 62.4905 93.8937 62.2929 93.9068C62.0954 93.92 61.8974 93.8874 61.7145 93.8116C61.3786 93.6805 61.097 93.4396 60.9152 93.1282C60.7362 92.8338 60.6682 92.4851 60.7234 92.145C60.7576 91.9595 60.8383 91.7856 60.9577 91.6396C61.0772 91.4935 61.2317 91.3801 61.4068 91.3098C63.2425 90.4217 64.9631 89.3132 66.5304 88.0086C66.8161 87.7762 67.1695 87.6429 67.5375 87.6289C67.7244 87.6124 67.9124 87.64 68.0866 87.7094C68.2609 87.7788 68.4164 87.8881 68.5407 88.0286C68.7977 88.2998 69.0035 88.6153 69.1482 88.9598C69.276 89.2813 69.3594 89.6188 69.396 89.9629C69.4348 90.3226 69.4535 90.6842 69.4519 91.046C69.4519 91.4137 69.4919 98.6395 69.4919 99.9064C69.4919 104.889 69.4146 109.861 69.2601 114.822L70.7987 114.969ZM66.6263 104.454C66.4478 106.178 66.3279 107.893 66.2666 109.598C66.2054 111.303 66.224 113.035 66.3226 114.794H66.4345C66.5357 111.351 66.6117 107.898 66.6623 104.435L66.6263 104.454ZM66.4745 91.5895H66.7023V91.4776L66.4745 91.5895Z" fill="white"/>
<path d="M94.7742 99.6986C94.9823 99.6841 95.1908 99.7193 95.3826 99.8013C95.5744 99.8833 95.744 100.01 95.8773 100.17C96.1178 100.465 96.2491 100.835 96.2491 101.215C96.2491 101.596 96.1178 101.965 95.8773 102.26C95.7444 102.421 95.5749 102.548 95.383 102.63C95.1911 102.712 94.9824 102.747 94.7742 102.732H89.6106C89.6666 103.827 89.7585 104.918 89.8984 106.009C90.0382 107.1 90.1582 108.195 90.2661 109.286C90.374 110.377 90.4619 111.473 90.5338 112.568C90.6011 113.659 90.5944 114.754 90.5138 115.845C90.4905 116.241 90.3309 116.616 90.0622 116.908C89.9274 117.056 89.7623 117.173 89.5781 117.25C89.3939 117.328 89.1951 117.366 88.9951 117.359H86.6611C86.4591 117.36 86.259 117.32 86.0725 117.242C85.8859 117.165 85.7165 117.051 85.5741 116.908C85.4248 116.774 85.3056 116.61 85.2243 116.427C85.1431 116.244 85.1015 116.045 85.1025 115.845L85.3503 102.692L75.8864 102.568C75.6194 102.57 75.357 102.5 75.127 102.364C74.8973 102.231 74.707 102.039 74.5755 101.809C74.4385 101.587 74.3601 101.334 74.3477 101.073C74.3372 100.802 74.4173 100.535 74.5755 100.314C76.2141 97.9907 77.894 95.7447 79.6152 93.5759C81.3364 91.407 83.1255 89.2569 84.9826 87.1254C85.1071 86.9739 85.2631 86.8515 85.4398 86.7665C85.6165 86.6816 85.8097 86.6363 86.0057 86.6338C86.1602 86.4611 86.3492 86.3227 86.5606 86.2277C86.772 86.1327 87.0009 86.0832 87.2327 86.0823C87.4786 86.0786 87.7192 86.1545 87.9186 86.2985C88.1181 86.4425 88.2658 86.647 88.3397 86.8816C88.8137 87.8939 89.1652 88.9592 89.3868 90.0549C89.5888 91.1019 89.7117 92.1627 89.7545 93.2282C89.7956 94.3073 89.781 95.3878 89.7105 96.4654C89.6413 97.5604 89.5946 98.6675 89.5707 99.7865H94.8541L94.7742 99.6986ZM78.9158 99.6586L85.5541 99.7825L85.678 91.1779C84.503 92.5687 83.356 93.9622 82.2369 95.3583C81.1179 96.7545 80.0255 98.1879 78.9597 99.6586H78.9158Z" fill="white"/>
<rect x="5.5" y="1.5" width="137" height="137" stroke="#D8E1E5" stroke-width="3"/>
</g>
<defs>
<filter id="filter0_d" x="0" y="0" width="148" height="148" filterUnits="userSpaceOnUse" color-interpolation-filters="sRGB">
<feFlood flood-opacity="0" result="BackgroundImageFix"/>
<feColorMatrix in="SourceAlpha" type="matrix" values="0 0 0 0 0 0 0 0 0 0 0 0 0 0 0 0 0 0 127 0"/>
<feOffset dy="4"/>
<feGaussianBlur stdDeviation="2"/>
<feColorMatrix type="matrix" values="0 0 0 0 0 0 0 0 0 0 0 0 0 0 0 0 0 0 0.25 0"/>
<feBlend mode="normal" in2="BackgroundImageFix" result="effect1_dropShadow"/>
<feBlend mode="normal" in="SourceGraphic" in2="effect1_dropShadow" result="shape"/>
</filter>
</defs>
</svg>
