<svg width="148" height="149" viewBox="0 0 148 149" fill="none" xmlns="http://www.w3.org/2000/svg">
<g filter="url(#filter0_d)">
<g clip-path="url(#clip0)">
<path d="M144 0.932617H4V140.933H144V0.932617Z" fill="white"/>
<path d="M36.1484 41.386C36.0117 41.1965 35.8314 41.0428 35.6227 40.9377C35.414 40.8327 35.1831 40.7794 34.9495 40.7825L35.0294 40.8864L25.8812 40.3349C26.9763 39.1493 28.086 37.8624 29.2104 36.4742C30.3369 35.0774 31.3715 33.6089 32.3077 32.078C33.2314 30.5821 34.0333 29.0144 34.7057 27.39C35.3422 25.8655 35.7684 24.2615 35.9726 22.6221C36.1316 21.2294 35.9421 19.819 35.4211 18.5176C34.9298 17.2268 34.1774 16.0512 33.2109 15.0646C32.5909 14.0626 31.7093 13.2488 30.6611 12.7106C29.4862 12.1473 28.1425 12.046 26.8964 12.4268C26.6231 12.4938 26.3671 12.6178 26.145 12.7905L25.7134 12.8745C25.4547 12.9319 25.2144 13.0528 25.014 13.2262C24.7696 13.346 24.5321 13.4794 24.3026 13.6258C23.5292 14.1156 22.852 14.7427 22.3043 15.4762C21.489 16.6152 21.5849 18.4777 21.5849 19.8005C21.5776 19.903 21.6005 20.0055 21.651 20.095C21.7015 20.1846 21.7772 20.2573 21.8687 20.3041C21.9501 20.4099 22.0613 20.4891 22.188 20.5314C22.3146 20.5737 22.4511 20.5773 22.5798 20.5417C22.7085 20.5061 22.8237 20.4329 22.9106 20.3315C22.9975 20.2301 23.0522 20.105 23.0676 19.9724L23.0916 19.7925C23.1594 19.7318 23.2126 19.6567 23.2475 19.5727C23.4873 19.0332 23.7431 18.4497 24.0468 17.8862C24.6317 17.1178 25.4017 16.5101 26.2849 16.1197C26.5284 16.1441 26.7743 16.1196 27.0083 16.0477C27.6168 15.8555 28.2719 15.8709 28.8707 16.0917C29.4822 16.3203 30.0302 16.6916 30.4693 17.1748C30.8104 17.9768 30.9635 18.8463 30.9169 19.7166C30.9173 20.5769 30.7824 21.432 30.5173 22.2504C30.1517 23.3012 29.7109 24.3243 29.1984 25.3118C28.6868 26.2989 28.1833 27.2741 27.6797 28.2293C26.5473 30.3954 25.331 32.511 24.0308 34.5759C22.7306 36.6407 21.3704 38.679 19.9503 40.6906C19.7636 40.9347 19.6512 41.2275 19.6266 41.5339C19.5988 41.8316 19.637 42.1318 19.7385 42.4131C19.8389 42.6896 20.0064 42.9368 20.2261 43.1325C20.4568 43.3399 20.7551 43.4564 21.0654 43.4602L34.5538 44.1796C34.7901 44.2145 35.0313 44.1916 35.2568 44.113C35.4823 44.0343 35.6854 43.9023 35.8487 43.728C36.15 43.4073 36.3441 43.0009 36.4042 42.565C36.4684 42.1539 36.3772 41.7336 36.1484 41.386Z" fill="#303030"/>
<path d="M56.7108 41.386C56.5765 41.1988 56.3995 41.0464 56.1944 40.9414C55.9894 40.8365 55.7622 40.782 55.5318 40.7825L55.6117 40.8864L46.4436 40.3349C47.5387 39.1493 48.6484 37.8624 49.7728 36.4742C50.8993 35.0774 51.9339 33.6089 52.8701 32.078C53.7937 30.5821 54.5956 29.0144 55.268 27.39C55.9026 25.8626 56.3261 24.2558 56.527 22.6141C56.6872 21.2247 56.5004 19.8172 55.9834 18.5176C55.4922 17.2268 54.7398 16.0512 53.7733 15.0646C53.1533 14.0626 52.2717 13.2488 51.2235 12.7106C50.0486 12.1473 48.7048 12.046 47.4587 12.4268C47.1855 12.4938 46.9294 12.6178 46.7074 12.7905L46.2758 12.8745C46.0185 12.9325 45.7796 13.0534 45.5803 13.2262C45.3342 13.3451 45.0953 13.4786 44.865 13.6258C44.0916 14.1156 43.4144 14.7427 42.8667 15.4762C42.0674 16.6152 42.1553 18.4777 42.1513 19.8005C42.1439 19.903 42.1669 20.0055 42.2174 20.095C42.2678 20.1846 42.3435 20.2573 42.435 20.3041C42.5165 20.4099 42.6277 20.4891 42.7543 20.5314C42.881 20.5737 43.0174 20.5773 43.1461 20.5417C43.2749 20.5061 43.39 20.4329 43.4769 20.3315C43.5639 20.2301 43.6185 20.105 43.634 19.9724L43.658 19.7925C43.7258 19.7318 43.779 19.6567 43.8139 19.5727C44.0537 19.0332 44.3094 18.4497 44.6132 17.8862C45.197 17.1184 45.9655 16.5107 46.8473 16.1197C47.0908 16.1441 47.3367 16.1196 47.5706 16.0477C48.1791 15.8555 48.8343 15.8709 49.433 16.0917C50.0373 16.3231 50.5783 16.6942 51.0117 17.1748C51.3596 17.9752 51.5196 18.8447 51.4793 19.7166C51.4797 20.5769 51.3448 21.432 51.0796 22.2504C50.714 23.3012 50.2733 24.3243 49.7608 25.3118C49.2492 26.2989 48.7456 27.2741 48.2421 28.2293C47.1017 30.4088 45.8854 32.5309 44.5932 34.5958C43.301 36.6607 41.9408 38.6923 40.5127 40.6906C40.326 40.9347 40.2136 41.2275 40.189 41.5339C40.1612 41.8316 40.1994 42.1318 40.3009 42.4131C40.4013 42.6896 40.5688 42.9368 40.7885 43.1325C41.0192 43.3399 41.3175 43.4564 41.6277 43.4602L55.1162 44.1796C55.3524 44.2145 55.5936 44.1916 55.8191 44.113C56.0446 44.0343 56.2477 43.9023 56.4111 43.728C56.7118 43.4065 56.9071 43.0007 56.9706 42.565C57.0313 42.1535 56.9389 41.7339 56.7108 41.386Z" fill="#303030"/>
<path d="M88.1719 107.365C90.5099 110.563 91.1094 114.008 90.6737 117.884C90.5618 118.852 90.338 119.803 90.1981 120.766C90.1441 121.092 90.1187 121.422 90.1222 121.753C91.5929 120.998 93.7191 120.718 94.7862 121.989C95.014 122.261 94.6663 122.6 94.3866 122.432C93.883 122.133 92.8119 122.476 92.2963 122.608C91.9677 122.693 91.6489 122.812 91.3452 122.964C91.6249 123.008 91.9526 123.04 92.3483 123.08C93.6188 123.199 94.8217 123.707 95.7933 124.535C95.8298 124.56 95.8589 124.595 95.8779 124.635C95.8968 124.676 95.9048 124.72 95.9012 124.765C95.8975 124.809 95.8824 124.852 95.8571 124.889C95.8319 124.925 95.7975 124.955 95.7574 124.974L95.6854 125.014C95.4297 125.154 95.2458 124.786 95.4297 124.615C95.0899 124.958 93.1236 124.726 91.4331 124.499C91.7368 124.707 92.0366 124.898 92.2324 125.038C92.8998 125.566 93.2315 126.469 93.9269 126.921C93.9807 126.962 94.0182 127.02 94.033 127.086C94.0479 127.152 94.039 127.221 94.008 127.281C93.9771 127.341 93.9259 127.389 93.8636 127.415C93.8013 127.441 93.7317 127.444 93.6672 127.424C92.7639 127.025 92.1645 126.409 91.3611 125.874C90.6026 125.449 89.9259 124.893 89.3629 124.231H89.159C89.0047 124.219 88.8589 124.155 88.7451 124.05C88.6313 123.945 88.5561 123.804 88.5316 123.651C88.3317 121.653 88.8193 119.743 89.0871 117.768C89.605 114.494 88.8234 111.147 86.909 108.44C86.1416 107.713 87.5284 106.49 88.1719 107.365Z" fill="#303030"/>
<path d="M82.5447 112.641C82.5188 112.483 82.5506 112.32 82.6345 112.184C82.7184 112.047 82.8486 111.945 83.0014 111.897C83.1541 111.848 83.3193 111.856 83.4666 111.92C83.6139 111.983 83.7335 112.097 83.8036 112.241C85.8538 116.378 85.9817 121.581 85.662 126.253C85.9697 126.145 86.2855 126.005 86.5532 125.933C87.1641 125.828 87.7887 125.828 88.3996 125.933C89.7984 126.069 90.9055 126.817 92.2084 127.276C92.4642 127.368 92.3802 127.804 92.1045 127.752C90.9774 127.536 89.8984 127.128 88.7553 127.005C88.0068 126.898 87.244 126.958 86.5213 127.18C86.3075 127.26 86.0981 127.351 85.8938 127.452C88.3517 127.812 92.1005 128.523 92.9837 130.586C93.0447 130.691 93.0623 130.817 93.0327 130.935C93.0031 131.054 92.9287 131.156 92.8251 131.221C92.7215 131.286 92.5968 131.308 92.4773 131.282C92.3578 131.257 92.2528 131.186 92.1844 131.085C90.7936 129.594 88.1878 129.175 86.0257 129.015C86.6802 129.432 87.2931 129.911 87.8561 130.446C88.6554 131.169 89.155 132.044 88.9672 133.163C88.9627 133.219 88.9382 133.27 88.8982 133.309C88.8583 133.347 88.8056 133.37 88.7502 133.372C88.6947 133.375 88.6403 133.357 88.5971 133.322C88.5539 133.287 88.5249 133.238 88.5155 133.183C88.3277 132.384 87.4005 131.637 86.813 131.157C85.9138 130.426 84.8147 130.138 83.8715 129.522C83.7818 129.454 83.7098 129.365 83.6618 129.263C83.6139 129.161 83.5913 129.049 83.596 128.936C83.6007 128.824 83.6326 128.714 83.6889 128.616C83.7452 128.519 83.8243 128.436 83.9195 128.375C83.8783 128.269 83.8606 128.154 83.8675 128.04C84.2232 122.644 83.268 117.912 82.5447 112.641Z" fill="#303030"/>
<path d="M99.9857 105.739C99.5861 107.154 98.1993 108.209 97.292 109.312C95.8892 111.01 94.5864 112.909 92.8958 114.335C91.0254 115.902 90.0742 116.977 88.1918 115.135C86.0217 113.009 82.6886 109.208 82.153 106.154L99.9857 105.739Z" fill="#A8B3B2"/>
<path d="M95.3497 107.305C94.95 108.72 93.5672 109.779 92.656 110.882C91.2532 112.581 89.9503 114.479 88.2598 115.902C86.3894 117.469 85.4422 118.548 83.5558 116.701C81.3857 114.571 78.0525 110.77 77.521 107.717L95.3497 107.305Z" fill="#778890"/>
<path d="M54.6846 93.2855C46.4556 90.7757 40.7805 86.2395 34.302 80.6763C28.1033 75.3569 23.4913 68.0271 17.0688 63.1154C13.9914 65.7291 13.5198 74.094 13.5918 78.1465C13.6397 81.4197 13.5918 80.996 16.4573 82.3669C18.6914 83.4419 20.9814 84.6129 23.2515 85.744C33.2429 90.6997 44.3974 92.8299 54.8524 95.4556L54.6846 93.2855Z" fill="#303030"/>
<path d="M103.547 36.2384C103.6 35.7765 103.585 35.3092 103.503 34.8516C102.763 30.823 93.4793 25.8673 90.1462 24.3366C88.1479 23.4214 74.5955 21.4671 74.2558 20.8236C77.1373 26.199 77.9366 32.1459 78.8279 38.1008C79.6951 43.8679 78.7759 47.9084 84.8827 47.6926C89.7185 47.5167 102.831 42.521 103.547 36.2384Z" fill="#D9603E"/>
<path d="M116.987 63.8987C124.265 74.2898 119.133 90.4959 109.949 97.8057C100.617 105.243 91.3651 109.723 79.2795 108.041C66.4025 106.254 56.3671 100.755 46.1079 92.786C51.9109 90.3481 56.4351 87.9461 60.6994 83.0343C64.3403 78.8379 69.0003 75.5288 72.1656 71.0966C75.4186 66.4593 77.9105 61.3324 79.5473 55.9096C80.1787 53.8713 80.2546 48.9276 81.7334 47.4728C84.4311 44.8231 88.8992 48.1762 90.8855 50.4982L91.473 51.2096L116.987 63.8987Z" fill="#D9603E"/>
<path d="M115.468 96.0152C108.494 104.336 77.6449 118.972 75.9024 99.1165C74.6594 84.8208 97.3959 84.7289 91.0254 67.0041C89.199 61.9284 81.4336 53.2279 86.2295 49.7189C95.7693 42.7289 110.529 50.1185 116.204 58.4594C124.045 69.9695 124.661 85.0486 115.468 96.0152Z" fill="#D9603E"/>
<path d="M118.154 50.4302C121.507 52.4284 126.059 52.4284 129.241 54.2789C127.136 54.9196 125.144 55.8851 123.338 57.1404C121.491 58.3394 120.364 59.4224 118.142 59.6303C115.632 59.8621 113.766 58.8829 111.348 58.3554C108.622 57.7559 105.845 57.4521 103.215 56.7887C98.2632 55.5338 93.1876 54.4667 88.4756 52.4484C85.4902 51.1735 81.5296 46.9811 85.5062 44.3554C88.6834 42.2612 93.0437 42.5729 96.6366 41.8695C100.597 41.0982 106.268 38.8321 109.941 41.4099C113.266 43.7319 114.401 48.2041 118.154 50.4302Z" fill="#303030"/>
<path d="M92.664 85.768C85.9178 96.9224 71.8258 99.1565 60.3956 93.7891C57.4821 92.4223 55.3 90.432 52.6103 88.6975C59.4644 82.3709 66.8781 74.9253 71.4981 66.8042C73.988 62.428 76.5098 47.1131 82.5287 46.2778C86.3934 45.7423 90.294 56.9607 91.6688 59.7783C95.7014 68.0751 97.7157 77.4271 92.664 85.768Z" fill="#303030"/>
<path d="M69.2401 70.4052C72.7131 72.9749 76.2381 74.8334 80.986 75.7286C85.9018 76.6598 90.6697 76.5839 95.5615 76.8516C95.5376 77.1394 95.5216 77.4271 95.4856 77.7109C93.2395 78.0226 91.0014 78.6501 88.7833 78.6181C85.0887 78.5682 81.4062 78.1843 77.7808 77.4711C74.0401 76.7527 70.5164 75.1782 67.4856 72.871C68.0931 72.0717 68.6806 71.2324 69.2401 70.4052Z" fill="#DFF0FB"/>
<path d="M71.2424 67.2398C71.3263 67.0959 71.4182 66.952 71.4982 66.8041C71.7438 66.3599 71.9614 65.9008 72.1496 65.4293C74.8947 67.5758 78.1555 68.9636 81.6055 69.4539C86.0856 70.1693 90.7257 69.8935 95.1739 70.6009C95.2179 70.6127 95.2608 70.6287 95.3017 70.6488C95.3737 71.0805 95.4296 71.5121 95.4816 71.9477C95.4033 71.989 95.3178 72.0148 95.2298 72.0237C86.3934 73.0228 78.5481 71.4921 71.2424 67.2398Z" fill="#878787"/>
<path d="M103.311 43.628C105.205 42.7568 109.51 41.4219 109.498 38.7762C109.498 35.8826 104.606 35.0554 102.304 35.3511C98.0034 35.8986 92.4922 39.2198 88.4236 40.8744C85.5981 42.0254 75.2789 47.2689 82.6726 48.9994C87.6523 50.1744 93.3634 45.6822 98.1673 44.6032C98.649 44.4996 99.136 44.4222 99.626 44.3714L103.311 43.628Z" fill="#BAD9E4"/>
<path d="M69.1921 17.5783C64.664 21.5949 71.9418 28.473 75.3149 23.873C77.9766 20.2241 73.0848 14.1213 69.1921 17.5783Z" fill="#BAD9E4"/>
<path d="M99.9458 54.8224C101.333 55.5778 102.915 55.4579 103.99 54.2389C104.989 53.1079 105.041 50.9777 103.99 49.8427C103.93 49.7787 103.862 49.7228 103.798 49.6668C103.578 49.2687 103.267 48.9278 102.891 48.6717C100.989 47.3528 98.7668 48.4719 98.1753 50.594C97.9472 51.3952 97.9982 52.25 98.3199 53.0183C98.6416 53.7867 99.2149 54.4228 99.9458 54.8224Z" fill="#878787"/>
<path d="M100.717 49.2912C101.552 49.0634 102.508 49.571 103.023 50.1905C103.766 51.0857 103.671 52.2247 103.139 53.1799C103.085 53.2721 103.015 53.3535 102.931 53.4197C102.927 53.4788 102.919 53.5376 102.907 53.5955C102.82 53.8449 102.653 54.0584 102.432 54.203C102.21 54.3475 101.948 54.415 101.684 54.3949C101.031 54.2712 100.435 53.9419 99.9828 53.455C99.5305 52.9682 99.2458 52.3494 99.1704 51.6892C99.0784 51.1681 99.1866 50.6315 99.4734 50.1868C99.7602 49.7421 100.204 49.4222 100.717 49.2912Z" fill="#303030"/>
<path d="M100.625 49.575C102.376 49.7309 102.136 52.4405 100.385 52.2887C98.6349 52.1368 98.8787 49.4231 100.625 49.575Z" fill="#DFF0FB"/>
<path d="M116.1 72.7751C116.182 72.5545 116.347 72.3749 116.56 72.2748C116.773 72.1747 117.017 72.162 117.239 72.2395C118.326 72.6592 118.438 73.8381 118.378 74.8733C118.342 75.6246 117.978 77.3791 116.843 76.9795L116.759 76.9475C116.594 76.8882 116.447 76.7859 116.334 76.6511C116.22 76.5162 116.145 76.3537 116.116 76.1801C116.058 75.6077 116.05 75.0314 116.092 74.4576C116.1 73.8701 115.904 73.3626 116.1 72.7751Z" fill="#F2ABA5"/>
<path d="M113.662 64.1065C114.981 64.2104 115.393 66.1927 114.765 67.1399C114.687 67.2507 114.581 67.3391 114.458 67.3962C114.335 67.4533 114.199 67.4772 114.064 67.4655C113.929 67.4538 113.8 67.4068 113.688 67.3294C113.577 67.2519 113.488 67.1466 113.43 67.024C113.313 66.7069 113.211 66.3841 113.126 66.0568C112.983 65.6811 112.727 65.2135 112.819 64.8139C112.842 64.6104 112.942 64.4235 113.099 64.2919C113.256 64.1603 113.458 64.0939 113.662 64.1065Z" fill="#F2ABA5"/>
<path d="M110.357 69.7496C111.428 69.8415 111.684 71.68 111.188 72.4073C111.126 72.4934 111.043 72.5618 110.947 72.6059C110.85 72.6501 110.744 72.6684 110.638 72.6592C110.533 72.6499 110.431 72.6133 110.344 72.5531C110.257 72.4928 110.187 72.4109 110.141 72.3154C110.052 72.1125 109.983 71.9009 109.937 71.684C109.826 71.4146 109.741 71.1348 109.685 70.8487C109.637 70.473 109.857 69.7057 110.357 69.7496Z" fill="#F2ABA5"/>
<path d="M107.176 60.9572C108.103 61.173 108.774 62.4639 108.375 63.3551C108.333 63.4627 108.252 63.5501 108.148 63.5992C108.043 63.6483 107.924 63.6554 107.815 63.6189C107.267 63.3871 107.144 62.7636 106.616 62.5678C105.549 62.1801 106.14 60.7174 107.176 60.9572Z" fill="#F2ABA5"/>
<path d="M111.316 79.2655C111.389 79.1628 111.488 79.0811 111.603 79.0285C111.717 78.9759 111.844 78.9541 111.97 78.9654C112.095 78.9767 112.216 79.0207 112.319 79.093C112.422 79.1652 112.505 79.2633 112.559 79.3774C112.883 80.0608 112.803 80.6683 112.719 81.3996C112.651 82.0311 112.571 82.9983 112.003 83.3979C111.879 83.4946 111.723 83.5406 111.567 83.5265C111.41 83.5124 111.265 83.4393 111.16 83.322C110.685 82.8664 110.812 82.0831 110.796 81.4756C110.722 80.7018 110.905 79.9251 111.316 79.2655Z" fill="#F2ABA5"/>
<path d="M116.12 84.9526C116.12 84.7528 116.148 84.5529 116.16 84.3611C116.177 84.1865 116.237 84.0189 116.336 83.8735C116.508 83.6497 116.56 83.5977 116.496 83.7216C116.623 83.5442 116.814 83.4231 117.028 83.3836C117.243 83.3441 117.465 83.3893 117.647 83.5098C117.842 83.6657 117.874 83.7017 117.739 83.6177C117.886 83.7182 118.005 83.8561 118.082 84.0174C118.171 84.2739 118.2 84.5474 118.166 84.8167C118.153 85.2696 118.091 85.7198 117.982 86.1596C117.806 86.8989 117.219 87.918 116.32 87.7582C116.226 87.7474 116.136 87.716 116.057 87.6662C115.977 87.6164 115.909 87.5496 115.858 87.4704C115.807 87.3913 115.775 87.3018 115.762 87.2085C115.75 87.1152 115.759 87.0204 115.788 86.9309C115.966 86.2845 116.077 85.6216 116.12 84.9526Z" fill="#F2ABA5"/>
<path d="M109.242 90.1561C109.19 90.2041 109.202 90.1561 109.266 90.0442C109.601 89.0611 111.284 89.3848 111.072 90.4439C111.005 90.8902 110.779 91.2973 110.437 91.5909C110.247 91.7472 110.003 91.8226 109.758 91.8009C109.512 91.7793 109.286 91.6622 109.126 91.475C108.971 91.2828 108.897 91.0381 108.918 90.7922C108.94 90.5464 109.056 90.3184 109.242 90.1561Z" fill="#F2ABA5"/>
<path d="M105.113 83.262C105.195 83.2228 105.285 83.2062 105.375 83.2139C105.465 83.2216 105.551 83.2534 105.625 83.306C106.336 83.8295 106.204 85.1604 105.685 85.7799C105.617 85.8779 105.524 85.9562 105.416 86.0068C105.308 86.0573 105.188 86.0783 105.069 86.0676C104.946 86.0645 104.827 86.0248 104.727 85.9536C104.626 85.8824 104.549 85.783 104.506 85.6679C104.48 85.2881 104.49 84.9067 104.538 84.5289C104.504 84.2849 104.54 84.0362 104.642 83.8119C104.744 83.5876 104.907 83.3968 105.113 83.262Z" fill="#F2ABA5"/>
<path d="M106.164 75.7884C106.205 75.895 106.254 75.998 106.312 76.0961C106.476 76.3759 106.065 76.7236 105.817 76.4958C105.729 76.4234 105.637 76.3567 105.541 76.296C104.925 75.9443 105.913 75.121 106.164 75.7884Z" fill="#F2ABA5"/>
<path d="M103.351 98.9966C103.471 98.7568 103.499 98.7048 103.431 98.8367C103.483 98.7208 103.543 98.6089 103.603 98.497C103.733 98.3322 103.885 98.1856 104.054 98.0614C104.13 97.9975 104.738 97.6018 104.414 97.8096C104.542 97.7297 104.666 97.6378 104.79 97.5498C104.834 97.5219 105.189 97.2101 105.017 97.386C105.417 96.9344 105.653 96.4947 106.308 96.3748C106.551 96.3381 106.799 96.381 107.015 96.497C107.231 96.613 107.404 96.7959 107.507 97.0183C108.059 98.2173 106.896 99.3083 105.957 99.8559C105.596 100.04 105.209 100.169 104.81 100.236C104.618 100.266 104.422 100.266 104.23 100.236C104.062 100.236 103.263 100.028 103.878 100.16C103.707 100.139 103.55 100.055 103.439 99.9223C103.328 99.79 103.273 99.6204 103.283 99.4482C103.283 99.5801 103.283 99.5241 103.283 99.2884C103.303 99.2004 103.327 99.0965 103.351 98.9966Z" fill="#F2ABA5"/>
<path d="M100.789 93.6771C100.854 93.6303 100.924 93.5901 100.997 93.5572C101.052 93.3837 101.165 93.2342 101.316 93.1334C101.468 93.0326 101.649 92.9865 101.83 93.0029C102.012 93.0192 102.182 93.0969 102.313 93.2231C102.444 93.3493 102.528 93.5165 102.552 93.6971C102.604 93.8855 102.623 94.0816 102.607 94.2766C102.596 94.4135 102.553 94.5458 102.481 94.6633C102.41 94.7807 102.312 94.8801 102.196 94.9536C102.08 95.0271 101.949 95.0728 101.812 95.0871C101.675 95.1014 101.537 95.0839 101.409 95.0359C101.139 94.9266 100.895 94.7618 100.693 94.5523C100.59 94.4234 100.542 94.2589 100.56 94.0949C100.578 93.9308 100.66 93.7806 100.789 93.6771Z" fill="#F2ABA5"/>
<path d="M81.7174 81.7554C81.7649 81.6268 81.8533 81.5175 81.9692 81.4443C82.085 81.371 82.2217 81.338 82.3582 81.3503C82.4947 81.3626 82.6234 81.4195 82.7242 81.5122C82.8251 81.605 82.8927 81.7284 82.9164 81.8633C83.0643 82.7346 82.5167 83.5898 81.8693 84.1574C81.4297 84.557 80.5904 84.1574 80.7023 83.5459C80.8342 82.8145 81.4137 82.4069 81.7174 81.7554Z" fill="#878787"/>
<path d="M72.2854 85.7279C72.777 85.1684 73.4484 85.0006 74.0639 84.6129C74.6062 84.2845 75.0798 83.8543 75.4587 83.346C76.1341 82.3868 77.5369 83.3859 76.9414 84.3651C76.5126 85.0417 75.9461 85.6204 75.2789 86.0636C74.6154 86.5273 73.7242 87.1347 72.8809 86.9909C72.3414 86.8989 71.8458 86.2235 72.2854 85.7279Z" fill="#878787"/>
<path d="M71.7739 79.3334C72.9729 78.8498 73.8441 80.6643 72.6252 81.1958C72.1256 81.4157 71.8059 81.8313 71.2663 81.9592C71.1542 81.9787 71.0394 81.9758 70.9284 81.9508C70.8175 81.9257 70.7125 81.879 70.6197 81.8132C70.5268 81.7475 70.4479 81.664 70.3874 81.5677C70.3269 81.4713 70.286 81.364 70.2672 81.2518C70.1753 80.3246 70.9786 79.6651 71.7739 79.3334Z" fill="#878787"/>
</g>
<rect x="5.5" y="2.43262" width="137" height="137" stroke="#D8E1E5" stroke-width="3"/>
</g>
<defs>
<filter id="filter0_d" x="0" y="0.932617" width="148" height="148" filterUnits="userSpaceOnUse" color-interpolation-filters="sRGB">
<feFlood flood-opacity="0" result="BackgroundImageFix"/>
<feColorMatrix in="SourceAlpha" type="matrix" values="0 0 0 0 0 0 0 0 0 0 0 0 0 0 0 0 0 0 127 0"/>
<feOffset dy="4"/>
<feGaussianBlur stdDeviation="2"/>
<feColorMatrix type="matrix" values="0 0 0 0 0 0 0 0 0 0 0 0 0 0 0 0 0 0 0.25 0"/>
<feBlend mode="normal" in2="BackgroundImageFix" result="effect1_dropShadow"/>
<feBlend mode="normal" in="SourceGraphic" in2="effect1_dropShadow" result="shape"/>
</filter>
<clipPath id="clip0">
<rect x="4" y="0.932617" width="140" height="140" fill="white"/>
</clipPath>
</defs>
</svg>
