<svg width="148" height="149" viewBox="0 0 148 149" fill="none" xmlns="http://www.w3.org/2000/svg">
<g filter="url(#filter0_d)">
<g clip-path="url(#clip0)">
<path d="M143.8 0.932617H4V140.733H143.8V0.932617Z" fill="#D9603E"/>
<path d="M143.8 0.932617V51.948C129.118 67.6122 102.942 74.8437 90.1711 76.2604C73.996 78.0524 70.073 90.3163 69.2349 94.2194C71.1386 81.8477 63.1768 73.5866 38.7366 71.6989C23.9025 70.5615 11.9459 63.318 4.01599 56.7171V0.932617H143.8Z" fill="#BD282F"/>
<path d="M4 0.932617V48.8232C12.0376 55.468 24.1819 62.7912 39.2754 63.9406C63.9909 65.8283 72.0365 74.0894 70.1089 86.4611C70.9629 82.5461 74.9259 70.2861 91.2606 68.5022C104.031 67.1054 129.094 58.525 143.785 42.8408V0.932617H4Z" fill="#DAE6F0"/>
<path d="M4 0.932617H143.8V34.5478C128.396 49.8927 102.894 60.2451 90.6499 61.594C74.3552 63.3939 72.8905 73.9657 72.0445 77.9007C73.9641 65.4891 63.4601 58.9201 38.8483 57.0364C23.9943 55.895 12.0137 48.7114 4 42.0985V0.932617Z" fill="white"/>
<path d="M66.577 41.8989C66.445 41.7155 66.2711 41.5663 66.0698 41.4636C65.8685 41.3608 65.6456 41.3076 65.4197 41.3083L65.4995 41.4081L56.512 40.8693C57.5762 39.704 58.6644 38.4415 59.7765 37.082C60.8799 35.7153 61.8931 34.2782 62.8096 32.7798C63.7127 31.3121 64.4974 29.7747 65.1563 28.1823C65.7782 26.6852 66.1931 25.1102 66.3894 23.501C66.546 22.1342 66.3637 20.7499 65.8586 19.4702C65.3756 18.2102 64.6394 17.0625 63.6956 16.0979C63.0872 15.1159 62.2238 14.3173 61.1973 13.7872C60.0442 13.2382 58.7275 13.14 57.5057 13.5118C57.2369 13.5745 56.9859 13.6973 56.7714 13.871L56.3484 13.9508C56.0951 14.0077 55.8594 14.1255 55.6619 14.294C55.4212 14.4127 55.188 14.546 54.9635 14.6931C54.2013 15.1669 53.534 15.7786 52.996 16.497C52.1979 17.6105 52.2976 19.4423 52.2976 20.7393C52.2904 20.8391 52.3127 20.9388 52.3616 21.0261C52.4106 21.1134 52.4841 21.1843 52.573 21.2302C52.6548 21.3274 52.7628 21.3991 52.8842 21.4366C53.0056 21.4742 53.1352 21.476 53.2576 21.4419C53.38 21.4079 53.49 21.3393 53.5746 21.2444C53.6591 21.1496 53.7146 21.0324 53.7344 20.9069C53.7344 20.8471 53.7344 20.7872 53.7583 20.7313C53.8217 20.6695 53.8731 20.5964 53.91 20.5158C54.1454 19.985 54.3929 19.4143 54.6842 18.8596C55.2625 18.0945 56.028 17.4911 56.9071 17.1076C57.1461 17.1314 57.3873 17.1083 57.6175 17.0398C58.2132 16.8499 58.8554 16.8653 59.4413 17.0837C60.0341 17.3082 60.5649 17.6707 60.9898 18.1412C61.3395 18.9303 61.5034 19.7891 61.4687 20.6515C61.4666 21.4961 61.3319 22.335 61.0696 23.1378C60.7152 24.16 60.2898 25.1561 59.7965 26.119C59.2936 27.0901 58.7975 28.0439 58.3079 28.9805C57.1905 31.1089 55.9932 33.1895 54.7161 35.2222C53.439 37.2549 52.1087 39.2503 50.7252 41.2085C50.543 41.4483 50.4323 41.7347 50.406 42.0346C50.3794 42.3267 50.4176 42.621 50.5177 42.8967C50.6163 43.1672 50.7793 43.4097 50.9926 43.603C51.2209 43.8049 51.514 43.9182 51.8187 43.9223L65.0405 44.6287C65.2727 44.6629 65.5097 44.6405 65.7314 44.5633C65.953 44.4862 66.1528 44.3567 66.3136 44.1857C66.6075 43.87 66.797 43.4715 66.8564 43.0443C66.9073 42.6412 66.8078 42.2334 66.577 41.8989Z" fill="#303030"/>
<path d="M91.4202 27.4042C91.6265 27.3895 91.8333 27.4242 92.0234 27.5054C92.2136 27.5866 92.3817 27.712 92.5137 27.8711C92.7509 28.1634 92.8804 28.5283 92.8804 28.9047C92.8804 29.2811 92.7509 29.6461 92.5137 29.9384C92.3817 30.0975 92.2136 30.2229 92.0234 30.3041C91.8333 30.3853 91.6265 30.42 91.4202 30.4053H86.3079C86.3638 31.4882 86.4596 32.5697 86.5953 33.6499C86.7269 34.7314 86.8507 35.8129 86.9584 36.8945C87.0662 37.976 87.154 39.0575 87.2218 40.1391C87.289 41.2198 87.2823 42.3038 87.2019 43.3836C87.1801 43.7762 87.022 44.1488 86.7549 44.4372C86.6224 44.584 86.4595 44.7 86.2775 44.7772C86.0955 44.8544 85.8989 44.8909 85.7013 44.8842H83.3906C83.1908 44.8853 82.9929 44.8463 82.8085 44.7696C82.6241 44.6928 82.457 44.5798 82.317 44.4372C82.1693 44.3044 82.0514 44.1419 81.9709 43.9604C81.8904 43.7788 81.8493 43.5822 81.8501 43.3836L82.0935 30.3654L72.723 30.2457C72.4603 30.2473 72.2021 30.1769 71.9767 30.0421C71.7567 29.9072 71.5742 29.7192 71.4459 29.4954C71.3162 29.2724 71.2397 29.0224 71.2224 28.765C71.2125 28.4972 71.2911 28.2336 71.4459 28.0148C73.0715 25.716 74.7344 23.4918 76.4345 21.342C78.1346 19.1923 79.9052 17.0638 81.7463 14.9566C81.8701 14.8071 82.0249 14.6862 82.1998 14.6021C82.3748 14.5181 82.5659 14.4729 82.76 14.4697C82.9113 14.3012 83.0957 14.1657 83.3017 14.0717C83.5077 13.9776 83.7309 13.927 83.9573 13.923C84.2015 13.9194 84.4402 13.9953 84.6375 14.1393C84.8347 14.2832 84.9798 14.4875 85.0508 14.7212C85.5232 15.722 85.8716 16.7767 86.0884 17.862C86.2887 18.8996 86.4101 19.9508 86.4516 21.0068C86.4916 22.071 86.4783 23.1366 86.4117 24.1995C86.3452 25.2797 86.2973 26.3745 86.268 27.484H91.5L91.4202 27.4042ZM75.7241 27.3643L82.2971 27.488L82.4168 18.9714C81.2541 20.347 80.1194 21.7251 79.0126 23.106C77.8991 24.4868 76.8216 25.8996 75.764 27.3643H75.7241Z" fill="#303030"/>
<path d="M75.1733 125.316C100.08 125.316 123.906 120.719 144 112.182V89.7217C125.694 99.1721 101.397 105.035 75.1733 105.035C47.8358 105.035 22.5975 98.6493 4.05188 88.5005V111.185C24.6129 120.36 49.3124 125.316 75.1733 125.316Z" fill="#BD282F"/>
<g style="mix-blend-mode:multiply">
<g style="mix-blend-mode:multiply">
<path d="M78.1625 133.721H63.7953C61.0616 133.716 58.4415 132.627 56.5092 130.693C54.5769 128.759 53.49 126.138 53.4869 123.405V104.484C53.49 101.749 54.578 99.1266 56.512 97.1926C58.446 95.2586 61.0682 94.1706 63.8033 94.1675H78.1705C80.9056 94.1706 83.5277 95.2586 85.4618 97.1926C87.3958 99.1266 88.4837 101.749 88.4869 104.484V123.405C88.4837 126.141 87.3947 128.765 85.4589 130.699C83.5232 132.633 80.899 133.72 78.1625 133.721ZM63.7953 100.254C62.6737 100.255 61.5983 100.701 60.8052 101.494C60.0121 102.287 59.566 103.362 59.565 104.484V123.405C59.566 124.526 60.0121 125.602 60.8052 126.395C61.5983 127.188 62.6737 127.634 63.7953 127.635H78.1625C79.2841 127.634 80.3595 127.188 81.1526 126.395C81.9457 125.602 82.3917 124.526 82.3928 123.405V104.484C82.3917 103.362 81.9457 102.287 81.1526 101.494C80.3595 100.701 79.2841 100.255 78.1625 100.254H63.7953Z" fill="#B3B5B7"/>
</g>
</g>
<path d="M75.1733 123.289C100.08 123.289 123.906 118.688 144 110.155V87.6944C125.694 97.1448 101.397 103.003 75.1733 103.003C47.8358 103.003 22.5975 96.6379 4.05188 86.4731V109.157C24.6129 118.332 49.3124 123.289 75.1733 123.289Z" fill="#303030"/>
<path d="M77.9111 132.707H63.5439C60.8088 132.704 58.1866 131.616 56.2526 129.682C54.3186 127.748 53.2306 125.126 53.2275 122.391V103.47C53.2306 100.735 54.3186 98.1129 56.2526 96.1789C58.1866 94.2449 60.8088 93.157 63.5439 93.1538H77.9111C80.6427 93.1623 83.2598 94.2525 85.1895 96.1859C87.1192 98.1194 88.2044 100.739 88.2075 103.47V122.391C88.2044 125.123 87.1192 127.742 85.1895 129.675C83.2598 131.609 80.6427 132.699 77.9111 132.707ZM63.5439 99.2399C62.4223 99.241 61.3469 99.687 60.5538 100.48C59.7607 101.273 59.3146 102.349 59.3136 103.47V122.391C59.3146 123.513 59.7607 124.588 60.5538 125.381C61.3469 126.174 62.4223 126.62 63.5439 126.621H77.9111C79.0327 126.62 80.1081 126.174 80.9012 125.381C81.6943 124.588 82.1403 123.513 82.1414 122.391V103.47C82.1403 102.349 81.6943 101.273 80.9012 100.48C80.1081 99.687 79.0327 99.241 77.9111 99.2399H63.5439Z" fill="#FFC968"/>
<path d="M100.356 116.696C99.3524 116.696 98.3715 116.398 97.5373 115.841C96.7031 115.283 96.0529 114.491 95.6691 113.564C95.2853 112.637 95.1851 111.617 95.3811 110.633C95.5772 109.648 96.0607 108.745 96.7705 108.035C97.4803 107.326 98.3845 106.843 99.3687 106.648C100.353 106.453 101.373 106.554 102.3 106.938C103.226 107.323 104.018 107.974 104.575 108.808C105.132 109.643 105.429 110.624 105.428 111.628C105.426 112.972 104.891 114.26 103.94 115.211C102.989 116.161 101.7 116.695 100.356 116.696ZM100.356 108.586C99.7545 108.587 99.1669 108.766 98.6674 109.101C98.1678 109.436 97.7786 109.911 97.5491 110.467C97.3195 111.022 97.2599 111.634 97.3777 112.223C97.4954 112.813 97.7854 113.354 98.2109 113.779C98.6363 114.204 99.1782 114.493 99.768 114.61C100.358 114.727 100.969 114.667 101.524 114.437C102.08 114.206 102.555 113.817 102.889 113.317C103.223 112.817 103.401 112.229 103.401 111.628C103.401 111.228 103.322 110.832 103.169 110.463C103.016 110.094 102.792 109.758 102.509 109.476C102.226 109.193 101.89 108.969 101.521 108.817C101.151 108.664 100.755 108.586 100.356 108.586Z" fill="#FFC968"/>
<path d="M122.162 111.5C121.159 111.5 120.178 111.202 119.344 110.645C118.51 110.088 117.86 109.295 117.476 108.369C117.092 107.442 116.991 106.422 117.187 105.438C117.383 104.454 117.866 103.55 118.575 102.841C119.285 102.131 120.188 101.648 121.172 101.453C122.156 101.257 123.176 101.357 124.103 101.741C125.03 102.125 125.822 102.775 126.379 103.609C126.937 104.444 127.234 105.424 127.234 106.428C127.233 107.772 126.699 109.062 125.747 110.013C124.796 110.964 123.507 111.499 122.162 111.5ZM122.162 103.386C121.559 103.386 120.97 103.564 120.469 103.898C119.967 104.232 119.576 104.708 119.345 105.264C119.114 105.821 119.054 106.434 119.171 107.025C119.289 107.616 119.579 108.159 120.005 108.585C120.431 109.011 120.974 109.301 121.565 109.418C122.156 109.536 122.769 109.475 123.325 109.244C123.882 109.013 124.357 108.622 124.691 108.121C125.026 107.619 125.204 107.03 125.203 106.428C125.202 105.621 124.881 104.848 124.311 104.278C123.741 103.708 122.968 103.388 122.162 103.386Z" fill="#FFC968"/>
<path d="M71.0747 117.331C70.0704 117.331 69.0885 117.034 68.2534 116.476C67.4183 115.919 66.7676 115.125 66.3836 114.197C65.9997 113.269 65.8998 112.248 66.0967 111.264C66.2936 110.279 66.7784 109.375 67.4896 108.666C68.2009 107.957 69.1065 107.475 70.0919 107.281C71.0773 107.087 72.098 107.19 73.0247 107.577C73.9515 107.964 74.7425 108.617 75.2977 109.454C75.8528 110.291 76.147 111.274 76.1431 112.278C76.1368 113.619 75.6002 114.903 74.6506 115.849C73.701 116.796 72.4155 117.329 71.0747 117.331ZM71.0747 109.217C70.4721 109.216 69.8828 109.394 69.3814 109.729C68.8801 110.063 68.4891 110.538 68.2582 111.095C68.0272 111.652 67.9666 112.264 68.0839 112.855C68.2013 113.446 68.4914 113.989 68.9175 114.415C69.3436 114.841 69.8865 115.132 70.4776 115.249C71.0686 115.366 71.6812 115.306 72.2378 115.075C72.7944 114.844 73.2699 114.453 73.6042 113.951C73.9385 113.45 74.1165 112.861 74.1157 112.258C74.1146 111.452 73.7939 110.679 73.2238 110.109C72.6538 109.539 71.8809 109.218 71.0747 109.217Z" fill="#FFC968"/>
<path d="M43.1825 114.673C42.1792 114.673 41.1985 114.375 40.3644 113.818C39.5302 113.26 38.8801 112.468 38.4962 111.541C38.1122 110.614 38.0118 109.595 38.2075 108.611C38.4032 107.627 38.8863 106.723 39.5957 106.014C40.3051 105.304 41.2089 104.821 42.1929 104.625C43.1768 104.43 44.1967 104.53 45.1236 104.914C46.0504 105.298 46.8426 105.948 47.4 106.782C47.9574 107.616 48.2549 108.597 48.2549 109.6C48.2538 110.945 47.7191 112.235 46.768 113.186C45.817 114.137 44.5274 114.672 43.1825 114.673ZM43.1825 106.559C42.58 106.559 41.9912 106.738 41.4903 107.073C40.9895 107.407 40.5992 107.883 40.3688 108.44C40.1385 108.997 40.0784 109.609 40.1962 110.2C40.314 110.791 40.6044 111.333 41.0307 111.759C41.457 112.185 41.9999 112.474 42.5908 112.591C43.1818 112.708 43.7942 112.647 44.3505 112.416C44.9069 112.185 45.3821 111.794 45.7163 111.293C46.0504 110.792 46.2283 110.203 46.2275 109.6C46.2275 108.793 45.9067 108.018 45.3356 107.447C44.7646 106.876 43.9901 106.555 43.1825 106.555V106.559Z" fill="#FFC968"/>
<g style="mix-blend-mode:multiply">
<path d="M84.4641 110.865H73.4053C72.0476 110.865 70.947 111.966 70.947 113.324V114.493C70.947 115.851 72.0476 116.951 73.4053 116.951H84.4641C85.8218 116.951 86.9224 115.851 86.9224 114.493V113.324C86.9224 111.966 85.8218 110.865 84.4641 110.865Z" fill="#B3B5B7"/>
</g>
<path d="M84.2047 109.089H73.15C71.7922 109.089 70.6916 110.19 70.6916 111.548V112.717C70.6916 114.075 71.7922 115.175 73.15 115.175H84.2047C85.5624 115.175 86.6631 114.075 86.6631 112.717V111.548C86.6631 110.19 85.5624 109.089 84.2047 109.089Z" fill="#FFC968"/>
</g>
<rect x="5.5" y="2.43262" width="137" height="136.8" stroke="#D8E1E5" stroke-width="3"/>
</g>
<defs>
<filter id="filter0_d" x="0" y="0.932617" width="148" height="147.8" filterUnits="userSpaceOnUse" color-interpolation-filters="sRGB">
<feFlood flood-opacity="0" result="BackgroundImageFix"/>
<feColorMatrix in="SourceAlpha" type="matrix" values="0 0 0 0 0 0 0 0 0 0 0 0 0 0 0 0 0 0 127 0"/>
<feOffset dy="4"/>
<feGaussianBlur stdDeviation="2"/>
<feColorMatrix type="matrix" values="0 0 0 0 0 0 0 0 0 0 0 0 0 0 0 0 0 0 0.25 0"/>
<feBlend mode="normal" in2="BackgroundImageFix" result="effect1_dropShadow"/>
<feBlend mode="normal" in="SourceGraphic" in2="effect1_dropShadow" result="shape"/>
</filter>
<clipPath id="clip0">
<rect x="4" y="0.932617" width="140" height="139.8" fill="white"/>
</clipPath>
</defs>
</svg>
