<svg width="148" height="148" viewBox="0 0 148 148" fill="none" xmlns="http://www.w3.org/2000/svg">
<g filter="url(#filter0_d)">
<path d="M144 0H4V140H144V0Z" fill="#A8B3B2"/>
<path d="M139.884 93.328C139.88 92.995 139.747 92.6766 139.511 92.4412C139.276 92.2058 138.958 92.0722 138.625 92.069C138.429 92.0599 138.234 92.0917 138.052 92.1624C137.869 92.2331 137.704 92.3412 137.566 92.4797C137.428 92.6182 137.32 92.7841 137.25 92.9666C137.179 93.1492 137.148 93.3444 137.158 93.5398C137.161 93.8727 137.295 94.1911 137.53 94.4265C137.765 94.6619 138.084 94.7956 138.417 94.7987C138.788 94.7472 139.133 94.5755 139.397 94.31C139.662 94.0445 139.833 93.6996 139.884 93.328Z" fill="white"/>
<path d="M128.074 21.3297C128.97 21.8802 129.763 22.5836 130.416 23.4079C131.055 24.2178 131.572 25.1173 131.95 26.0776C132.327 27.0498 132.575 28.0668 132.69 29.103C132.818 30.1468 132.834 31.2012 132.738 32.2483C132.534 34.4917 131.9 36.675 130.871 38.6788C129.947 40.543 128.604 42.168 126.947 43.4267C125.366 44.6063 123.469 45.2893 121.499 45.389C119.45 45.5169 117.291 44.8868 115.021 43.4987C114.808 43.3856 114.624 43.2239 114.486 43.0267C114.347 42.8295 114.256 42.6023 114.222 42.3636C114.153 41.9238 114.238 41.4738 114.461 41.0887C114.677 40.7148 115.021 40.4311 115.429 40.2894C115.652 40.2123 115.89 40.1891 116.125 40.2218C116.359 40.2544 116.582 40.342 116.775 40.4773C116.995 40.6051 117.211 40.721 117.415 40.833C117.619 40.9449 117.815 41.0448 118.054 41.1407C118.195 40.841 118.426 40.5924 118.714 40.4293C119.359 40.0682 119.916 39.5687 120.344 38.9666C120.769 38.3699 121.125 37.7278 121.407 37.0522C121.699 36.3564 121.952 35.6453 122.167 34.922C122.387 34.1827 122.606 33.4793 122.826 32.8198C122.954 32.4202 123.142 31.9046 123.394 31.3051C123.646 30.7056 123.873 30.1061 124.081 29.4387C124.284 28.8061 124.433 28.1578 124.529 27.5004C124.627 26.9274 124.611 26.3405 124.481 25.7739C124.369 25.2905 124.084 24.8644 123.681 24.5749C123.113 24.2332 122.452 24.0768 121.791 24.1273C121.552 24.132 121.316 24.0814 121.1 23.9794C120.529 24.233 119.976 24.5254 119.445 24.8546C118.906 25.1864 118.402 25.5221 117.93 25.8698C117.679 26.0581 117.369 26.1503 117.055 26.1296C116.736 26.1193 116.426 26.0211 116.16 25.8458C115.885 25.6767 115.652 25.4488 115.477 25.1784C115.304 24.9209 115.229 24.6108 115.265 24.3031L116.703 10.5509C116.742 10.1751 116.862 9.81224 117.055 9.48782C117.147 9.31544 117.279 9.16749 117.439 9.05626C117.6 8.94504 117.785 8.87377 117.978 8.84837C120.11 8.53397 122.229 8.32082 124.337 8.20891C126.444 8.09701 128.563 8.08902 130.691 8.18493C130.933 8.18568 131.172 8.24064 131.39 8.34577C131.608 8.4509 131.799 8.60352 131.95 8.79241C132.22 9.13477 132.37 9.5558 132.378 9.99139C132.378 10.4285 132.227 10.8522 131.95 11.1904C131.799 11.3715 131.604 11.5118 131.384 11.5984C131.164 11.685 130.926 11.7151 130.691 11.6859C128.09 11.5904 125.486 11.6371 122.89 11.8258C122.95 11.9927 122.982 12.1682 122.986 12.3454V20.0028C123.864 19.9427 124.745 19.9991 125.608 20.1707C126.512 20.3585 127.371 20.7195 128.138 21.2338L128.074 21.3297ZM119.473 20.4784V18.0805L119.185 21.0579L119.473 20.914V20.4784ZM129.257 32.58C129.413 31.4263 129.413 30.2568 129.257 29.103C129.113 27.9456 128.703 26.8373 128.058 25.8658C128.216 26.992 128.119 28.1392 127.774 29.2229C127.489 30.1688 127.197 31.1932 126.899 32.2963C126.599 33.3993 126.263 34.5104 125.884 35.6294C125.513 36.7264 125.063 37.795 124.537 38.8267C124.034 39.824 123.407 40.7533 122.67 41.5923C123.556 41.3663 124.385 40.958 125.104 40.3933C125.869 39.8251 126.54 39.1415 127.095 38.3671C127.673 37.5242 128.142 36.6109 128.489 35.6494C128.862 34.6309 129.13 33.577 129.289 32.5041L129.257 32.58Z" fill="white"/>
<path d="M26.5367 126.028C21.2173 125.081 13.9115 129.965 9.67117 132.842C20.0103 136.487 33.0072 134.84 43.2944 132.442C41.1762 129.965 37.4234 129.013 34.5219 127.491L26.5367 126.028Z" fill="white"/>
<path d="M98.3192 69.5884C97.1202 68.849 95.8653 68.3015 94.8861 67.3143C96.7046 64.8205 99.5421 63.3497 101.449 60.8639C104.13 57.3629 104.862 52.7868 107.383 49.2738C109.542 56.2598 114.885 62.0309 116.703 69.0888C114.757 69.8881 112.379 70.4197 110.337 70.8873C113.606 70.1399 117.531 81.8259 118.87 83.6763C117.491 81.8099 112.323 83.8602 113.986 87.1094C115.54 90.1508 120.176 93.8516 122.55 96.5373C120.296 98.9792 117.147 98.9352 118.378 102.532C118.778 103.731 123.729 110.174 124.892 110.278C122.894 110.094 120.944 110.653 118.942 110.409C120.508 114.054 125.02 116.236 126.031 120.109C119.893 121.979 113.338 119.542 107.136 119.59C104.178 119.614 100.961 119.725 97.9835 120.017C96.4768 120.161 87.7642 120.261 87.0568 121.06C89.1431 118.718 92.4722 116.792 93.9629 114.102C91.2413 113.818 88.4676 113.491 85.7979 113.303C88.2318 110.465 92.684 106.753 94.1907 103.411C92.2444 103.156 89.9224 103.096 88.052 102.38C91.0152 97.6232 94.2166 93.0186 97.6438 88.5841C95.4057 88.3163 93.1316 88.3883 91.0614 87.7848C91.0174 87.7848 97.2521 80.8188 97.352 80.2552C97.8756 77.3178 93.3355 77.2858 90.6737 76.3906C92.6281 73.4491 95.9812 71.9384 98.3192 69.5884Z" fill="#778890"/>
<path d="M88.8673 85.5866C87.8721 84.9751 86.845 84.5235 86.0337 83.7082C87.5324 81.654 89.8744 80.443 91.4451 78.3888C93.6592 75.5032 94.2427 71.7305 96.3409 68.8409C98.1193 74.596 102.528 79.3559 104.022 85.1749C102.314 85.8052 100.56 86.301 98.7748 86.6577C101.472 86.0422 104.694 95.6739 105.809 97.1886C104.674 95.65 100.413 97.3405 101.78 100.018C103.063 102.528 106.884 105.577 108.842 107.792C106.984 109.79 104.386 109.762 105.405 112.751C105.741 113.734 109.801 119.05 110.776 119.146C109.114 118.994 107.519 119.458 105.869 119.258C107.16 122.259 110.88 124.054 111.716 127.251C106.652 128.794 101.249 126.783 96.129 126.823C93.6871 126.843 91.0334 126.935 88.5795 127.175C87.3406 127.295 80.1587 127.379 79.5712 128.034C81.2898 126.104 84.0394 124.517 85.2664 122.299C83.0243 122.063 80.7342 121.796 78.5321 121.644C80.5304 119.302 84.2113 116.244 85.4582 113.487C83.8596 113.279 81.9372 113.227 80.3945 112.639C82.8452 108.714 85.493 104.915 88.3277 101.257C86.4853 101.033 84.6109 101.093 82.9004 100.594C82.8644 100.594 88.008 94.8506 88.0959 94.387C88.5276 91.9651 84.7868 91.9411 82.5887 91.1898C84.1753 88.7679 86.9369 87.5249 88.8673 85.5866Z" fill="#BAD9E4"/>
<path d="M78.0006 119.57C83.5239 113.487 97.7237 113.994 105.177 116.324C114.389 119.214 122.714 124.425 131.954 127.075C128.425 129.893 122.175 129.429 117.807 130.113C113.69 130.756 109.574 131.487 105.445 131.815C98.0754 132.403 89.8584 131.016 83.5079 127.527L78.0006 119.57Z" fill="white"/>
<path d="M72.7051 39.2343L60.0319 39.0105L30.9089 59.5009L40.5086 126.524L84.6108 129.157L93.823 62.7222L72.7051 39.2343Z" fill="#F9F3E0"/>
<path d="M57.1784 83.892C57.2543 79.7156 57.1784 70.3876 62.4459 69.0087C66.4704 67.9536 66.0707 79.2799 65.9948 81.9297C66.002 82.9576 65.8289 83.9789 65.4833 84.9471L57.1784 83.892Z" fill="white"/>
<path d="M56.8268 111.417C56.9307 107.488 55.4799 93.9795 62.1702 94.7628C64.9079 95.0825 66.0908 99.3868 66.6943 101.709C67.094 103.236 68.273 109.702 66.6943 110.949L66.5265 111.113C66.5531 110.936 66.5598 110.756 66.5465 110.577L56.8268 111.417Z" fill="white"/>
<path d="M42.6309 64.6446C41.9715 64.6766 41.38 64.9244 40.7126 64.9124L38.8422 64.8804C38.6994 64.9007 38.5685 64.9712 38.4729 65.0791C38.3773 65.1871 38.3232 65.3255 38.3203 65.4697C38.3174 65.6139 38.3659 65.7544 38.4572 65.8661C38.5484 65.9778 38.6764 66.0534 38.8182 66.0794L40.6926 66.1114C40.9787 66.1553 41.2698 66.1553 41.5559 66.1114C41.8945 65.9778 42.2493 65.8891 42.611 65.8476C43.3863 65.8196 43.4143 64.6047 42.6309 64.6446Z" fill="#BAD9E4"/>
<path d="M46.9392 69.1088C45.9721 69.1088 45.0209 69.5084 44.0577 69.3646C43.2904 69.2487 43.2584 70.4636 44.0577 70.5635C45.0329 70.7034 45.9721 70.3197 46.9392 70.3157C47.6986 70.3157 47.7226 69.1048 46.9392 69.1088Z" fill="#BAD9E4"/>
<path d="M46.1199 89.6791L43.6979 89.6351C43.5552 89.6554 43.4243 89.7258 43.3286 89.8338C43.233 89.9418 43.1789 90.0802 43.1761 90.2244C43.1732 90.3686 43.2217 90.5091 43.3129 90.6208C43.4041 90.7325 43.5321 90.8081 43.674 90.8341L46.0959 90.8781C46.2387 90.8578 46.3696 90.7873 46.4652 90.6794C46.5608 90.5714 46.6149 90.433 46.6178 90.2888C46.6206 90.1446 46.5721 90.0041 46.4809 89.8924C46.3897 89.7807 46.2617 89.7051 46.1199 89.6791Z" fill="#BAD9E4"/>
<path d="M50.7599 92.4887C50.1444 92.4887 49.5369 92.6326 48.9215 92.6006C48.306 92.5686 47.9343 92.5446 47.4467 92.9083C46.8233 93.3759 47.6705 94.2432 48.29 93.7836C48.4579 93.6557 49.1653 93.8195 49.3931 93.8075C49.8447 93.7796 50.2843 93.7036 50.7399 93.6956C51.5153 93.6916 51.5592 92.4807 50.7599 92.4887Z" fill="#BAD9E4"/>
<path d="M46 94.8506C45.0448 93.7995 43.3702 95.0784 42.2392 94.9066C41.4719 94.7907 41.4399 96.0016 42.2192 96.1056C42.7491 96.1334 43.2794 96.0602 43.7819 95.8897C43.9897 95.8378 44.9609 95.4901 45.1287 95.6819C45.6523 96.2694 46.5235 95.4301 46 94.8506Z" fill="#BAD9E4"/>
<path d="M76.9296 110.214C75.8185 110.214 74.7115 110.313 73.6004 110.305C73.4576 110.326 73.3267 110.396 73.2311 110.504C73.1355 110.612 73.0814 110.751 73.0786 110.895C73.0757 111.039 73.1242 111.179 73.2154 111.291C73.3066 111.403 73.4346 111.478 73.5765 111.504H73.7243C74.8074 111.504 75.8585 111.4 76.9216 111.412C77.0639 111.39 77.1937 111.318 77.2878 111.209C77.3818 111.1 77.4339 110.96 77.4349 110.816C77.4359 110.672 77.3856 110.533 77.293 110.422C77.2004 110.312 77.0716 110.238 76.9296 110.214Z" fill="#BAD9E4"/>
<path d="M80.5184 112.703C79.811 112.703 79.1036 112.763 78.3962 112.799C77.7885 112.785 77.1824 112.73 76.5818 112.635C75.8065 112.571 75.7825 113.782 76.5618 113.834C77.163 113.923 77.7688 113.978 78.3763 113.998C79.0836 113.978 79.783 113.906 80.4944 113.902C80.6372 113.882 80.7681 113.812 80.8637 113.704C80.9593 113.596 81.0134 113.457 81.0163 113.313C81.0192 113.169 80.9707 113.028 80.8795 112.917C80.7883 112.805 80.6603 112.729 80.5184 112.703Z" fill="#BAD9E4"/>
<path d="M76.5379 115.197L73.8122 115.149C73.6695 115.17 73.5389 115.241 73.4437 115.349C73.3485 115.457 73.2949 115.596 73.2925 115.74C73.2901 115.884 73.339 116.025 73.4306 116.136C73.5221 116.247 73.6503 116.323 73.7922 116.348L76.5139 116.396C76.6567 116.376 76.7876 116.305 76.8832 116.197C76.9788 116.089 77.0329 115.951 77.0358 115.807C77.0386 115.663 76.9901 115.522 76.8989 115.41C76.8077 115.299 76.6797 115.223 76.5379 115.197Z" fill="#BAD9E4"/>
<path d="M64.8479 117.26C63.9327 117.26 63.0294 117.367 62.1222 117.363C61.9794 117.384 61.8485 117.454 61.7529 117.562C61.6573 117.67 61.6032 117.809 61.6003 117.953C61.5975 118.097 61.646 118.237 61.7372 118.349C61.8284 118.461 61.9564 118.536 62.0982 118.562C63.0095 118.562 63.9127 118.454 64.8239 118.458C64.9667 118.438 65.0976 118.368 65.1932 118.26C65.2888 118.152 65.3429 118.013 65.3458 117.869C65.3487 117.725 65.3002 117.585 65.2089 117.473C65.1177 117.361 64.9897 117.286 64.8479 117.26Z" fill="#BAD9E4"/>
<path d="M82.5646 74.4442C81.9901 74.4842 81.4246 74.6081 80.8861 74.8119C80.197 74.9937 79.481 75.0505 78.7719 74.9798C78.6292 75.0006 78.4986 75.0715 78.4034 75.1797C78.3082 75.288 78.2546 75.4266 78.2522 75.5708C78.2498 75.7149 78.2987 75.8552 78.3903 75.9666C78.4818 76.078 78.61 76.1532 78.7519 76.1787C79.3071 76.2387 79.8672 76.2387 80.4225 76.1787C81.1338 76.0189 81.8093 75.6672 82.5446 75.6312C83.28 75.5952 83.3439 74.4043 82.5646 74.4442Z" fill="#BAD9E4"/>
<path d="M78.736 77.5336C78.2523 77.5749 77.7717 77.647 77.2972 77.7494C76.9575 77.8013 76.6178 77.8453 76.2741 77.8653C76.1411 77.8757 76.0074 77.8757 75.8744 77.8653C75.6586 77.8653 75.6266 77.7254 75.7585 77.9332C75.3389 77.2818 74.2758 77.8693 74.7034 78.5287C75.5027 79.7277 77.6689 78.7725 78.7 78.7445C79.4833 78.7325 79.5033 77.5336 78.736 77.5336Z" fill="#BAD9E4"/>
<path d="M71.3662 48.962C70.3471 48.962 69.1681 49.5095 68.1929 49.0779C67.4815 48.7621 67.1498 49.9331 67.8532 50.2409C68.9762 50.7364 70.1912 50.1889 71.3422 50.1729C72.1255 50.1649 72.1495 48.954 71.3662 48.962Z" fill="#BAD9E4"/>
<path d="M67.8453 51.1561C66.8742 51.1561 65.935 51.3999 64.9638 51.4079C64.1845 51.4079 64.1645 52.6069 64.9638 52.6069C65.931 52.6069 66.8742 52.3591 67.8453 52.3551C68.6047 52.3791 68.6287 51.1561 67.8453 51.1561Z" fill="#BAD9E4"/>
<path d="M77.1373 34.5064L51.839 34.0548C46.1239 39.7579 40.5447 45.521 39.022 47.1116L25.3976 61.9469C27.5798 63.1459 96.6965 65.0443 98.1113 62.0308C95.3897 58.4659 85.2743 45.2852 77.1373 34.5064Z" fill="#DD5336"/>
<path d="M92.7839 55.0728C91.4251 55.0728 90.0662 55.0448 88.7034 55.0168C81.2018 54.885 73.6883 54.873 66.1947 54.4813C59.1088 54.1136 52.0148 53.9378 44.9209 54.0297C40.5607 54.0896 36.2683 54.3534 31.98 54.773L31.5804 55.2087C43.3103 54.3374 55.0322 54.4773 66.8181 55.1247C74.0759 55.5244 81.3617 55.5244 88.6275 55.6403C90.1741 55.6683 91.7208 55.6843 93.2675 55.7003L92.7839 55.0728Z" fill="white"/>
<path d="M45.8921 40.0337L46.2078 39.9977C48.4539 39.698 50.8078 39.718 53.0699 39.5981C57.602 39.3303 62.1142 39.4142 66.6583 39.5981C71.0545 39.7739 80.99 40.3175 81.5535 40.3534L81.0819 39.73C80.4664 39.71 69.9754 39.1784 65.3354 39.0186C61.2189 38.8747 57.1304 38.8707 53.014 39.1185C50.8038 39.2504 48.5937 39.4102 46.3876 39.5581L45.8921 40.0337Z" fill="white"/>
<path d="M84.595 44.3619L84.1514 43.7744L82.1531 43.8144C76.5019 43.8983 70.8588 43.6545 65.2116 43.8144C59.4405 43.9902 53.6215 44.0901 47.8625 44.0901C45.7238 44.136 43.5892 44.2974 41.4679 44.5737C41.3121 44.7296 41.1722 44.8774 41.0323 45.0213C43.2824 44.7935 45.5165 44.5937 47.7905 44.5817C52.9381 44.5537 72.1696 44.4019 76.6298 44.4178C76.322 44.5974 76.0586 44.8442 75.8594 45.1396C75.6601 45.4351 75.53 45.7717 75.4788 46.1244C75.483 46.5683 75.6611 46.9928 75.975 47.3067C76.2889 47.6206 76.7135 47.7988 77.1574 47.8029C77.4078 47.8119 77.6575 47.7691 77.8907 47.6772C78.1239 47.5854 78.3356 47.4464 78.5126 47.269C78.6897 47.0915 78.8282 46.8795 78.9196 46.6461C79.011 46.4127 79.0532 46.163 79.0437 45.9126C79.0415 45.6008 78.9524 45.2958 78.7865 45.0318C78.6206 44.7678 78.3845 44.5552 78.1045 44.4178H80.1428C81.6255 44.4218 83.1322 44.3819 84.595 44.3619Z" fill="white"/>
<path d="M47.3269 49.9892C53.5816 49.7774 59.8322 49.7094 66.0868 49.6934C73.6803 49.6934 81.2498 49.8213 88.8313 49.8973L88.2398 49.1259C80.4225 49.0646 72.6052 49.0646 64.7879 49.1259C58.7092 49.1619 52.6344 49.2578 46.5596 49.5256C43.1585 49.6655 39.6575 49.7334 36.2324 50.173L35.8328 50.5727C39.6655 50.1051 43.5661 50.1171 47.3269 49.9892Z" fill="white"/>
<path d="M28.471 135.016C28.471 128.822 38.7223 124.246 47.1111 122.439C54.3049 120.888 63.7768 120.932 71.2424 121.904C82.3129 123.338 91.545 128.598 95.7214 135.228C96.0731 135.788 96.5207 136.595 96.4688 137.035L28.471 135.016Z" fill="white"/>
<path d="M48.7297 129.925C48.7231 129.88 48.7007 129.839 48.6666 129.81C48.6325 129.78 48.5889 129.764 48.5438 129.764C48.4988 129.764 48.4552 129.78 48.4211 129.81C48.3869 129.839 48.3646 129.88 48.358 129.925C48.358 130.164 48.378 130.404 48.394 130.644C48.41 130.884 48.4579 131.259 48.2901 131.443C48.1222 131.627 48.39 131.887 48.5498 131.707C48.9575 131.251 48.7297 130.472 48.7297 129.925Z" fill="white"/>
<path d="M50.0725 128.29C49.99 128.96 49.9473 129.634 49.9446 130.308C49.9512 130.353 49.9736 130.394 50.0077 130.423C50.0418 130.453 50.0854 130.469 50.1305 130.469C50.1756 130.469 50.2191 130.453 50.2533 130.423C50.2874 130.394 50.3098 130.353 50.3163 130.308C50.3229 129.64 50.367 128.973 50.4482 128.31C50.4802 128.07 50.1045 128.066 50.0725 128.29Z" fill="white"/>
<path d="M51.847 128.69V129.793C51.847 129.843 51.8668 129.89 51.902 129.926C51.9373 129.961 51.985 129.981 52.0349 129.981C52.0847 129.981 52.1324 129.961 52.1677 129.926C52.2029 129.89 52.2227 129.843 52.2227 129.793V128.69C52.2227 128.64 52.2029 128.592 52.1677 128.557C52.1324 128.522 52.0847 128.502 52.0349 128.502C51.985 128.502 51.9373 128.522 51.902 128.557C51.8668 128.592 51.847 128.64 51.847 128.69Z" fill="white"/>
<path d="M61.5506 130.796C61.5441 130.751 61.5217 130.711 61.4876 130.681C61.4535 130.652 61.4099 130.635 61.3648 130.635C61.3197 130.635 61.2761 130.652 61.242 130.681C61.2079 130.711 61.1855 130.751 61.179 130.796C61.179 131.443 61.2429 132.083 61.2389 132.726C61.2455 132.771 61.2678 132.812 61.302 132.841C61.3361 132.871 61.3797 132.887 61.4247 132.887C61.4698 132.887 61.5134 132.871 61.5475 132.841C61.5816 132.812 61.604 132.771 61.6106 132.726C61.6226 132.087 61.5506 131.443 61.5506 130.796Z" fill="white"/>
<path d="M62.5218 130.908C62.2661 131.327 62.382 131.907 62.374 132.375C62.374 132.424 62.3938 132.472 62.429 132.507C62.4642 132.543 62.512 132.562 62.5618 132.562C62.6116 132.562 62.6594 132.543 62.6946 132.507C62.7299 132.472 62.7497 132.424 62.7497 132.375C62.7196 132.031 62.7196 131.686 62.7497 131.343C62.7852 131.334 62.8167 131.314 62.8392 131.285C62.8617 131.256 62.8738 131.22 62.8735 131.184V131C62.8707 130.96 62.8555 130.922 62.8298 130.891C62.8042 130.86 62.7695 130.838 62.7307 130.828C62.6919 130.817 62.6508 130.82 62.6134 130.834C62.5759 130.848 62.5439 130.874 62.5218 130.908Z" fill="white"/>
<path d="M72.1975 130.492C72.0457 130.308 71.7979 130.564 71.9298 130.748C72.0177 130.856 71.9857 131.092 71.9817 131.224C71.9777 131.355 71.9578 131.555 71.9498 131.723C71.9564 131.769 71.9792 131.81 72.0141 131.841C72.0489 131.871 72.0935 131.887 72.1396 131.887C72.1857 131.887 72.2302 131.871 72.2651 131.841C72.3 131.81 72.3228 131.769 72.3294 131.723C72.3414 131.339 72.4733 130.824 72.1975 130.492Z" fill="white"/>
<path d="M72.833 129.533C72.833 129.933 72.7331 130.332 72.7171 130.732C72.7171 130.972 73.0848 130.976 73.0968 130.732C73.0968 130.332 73.1967 129.933 73.2127 129.533C73.2061 129.487 73.1832 129.446 73.1484 129.415C73.1135 129.385 73.069 129.369 73.0229 129.369C72.9768 129.369 72.9322 129.385 72.8974 129.415C72.8625 129.446 72.8397 129.487 72.833 129.533Z" fill="white"/>
<path d="M74.7754 129.489C74.6515 129.289 74.3238 129.489 74.4517 129.669C74.6955 130.069 74.4237 130.62 74.4037 131.044C74.4037 131.28 74.7634 131.288 74.7754 131.044C74.7994 130.52 75.0831 129.957 74.7754 129.489Z" fill="white"/>
<path d="M77.7888 125.121V126.32C77.7954 126.364 77.8178 126.405 77.8519 126.435C77.886 126.464 77.9296 126.48 77.9747 126.48C78.0198 126.48 78.0633 126.464 78.0975 126.435C78.1316 126.405 78.154 126.364 78.1605 126.32L78.1845 125.121C78.1845 125.068 78.1637 125.018 78.1266 124.981C78.0895 124.944 78.0391 124.923 77.9867 124.923C77.9342 124.923 77.8839 124.944 77.8468 124.981C77.8097 125.018 77.7888 125.068 77.7888 125.121Z" fill="white"/>
<path d="M79.4873 126.763C79.3435 126.604 79.4514 126.26 79.4634 126.068C79.4634 126.015 79.4423 125.964 79.4048 125.927C79.3673 125.889 79.3165 125.868 79.2635 125.868C79.2105 125.868 79.1597 125.889 79.1222 125.927C79.0847 125.964 79.0637 126.015 79.0637 126.068C79.0637 126.4 78.9638 126.751 79.1996 127.027C79.3714 127.203 79.6392 126.947 79.4873 126.763Z" fill="white"/>
<path d="M81.2018 127.703C81.1344 127.293 81.1129 126.878 81.1378 126.464C81.1313 126.419 81.1089 126.378 81.0748 126.349C81.0406 126.319 80.9971 126.303 80.952 126.303C80.9069 126.303 80.8633 126.319 80.8292 126.349C80.7951 126.378 80.7727 126.419 80.7661 126.464C80.7421 126.91 80.7662 127.357 80.8381 127.798C80.89 128.026 81.2577 127.934 81.2018 127.703Z" fill="white"/>
<path d="M86.2934 131.979L86.2654 133.354C86.2654 133.404 86.2852 133.451 86.3205 133.487C86.3557 133.522 86.4035 133.542 86.4533 133.542C86.5031 133.542 86.5509 133.522 86.5861 133.487C86.6213 133.451 86.6411 133.404 86.6411 133.354L86.6651 131.979C86.6585 131.934 86.6362 131.894 86.602 131.864C86.5679 131.835 86.5243 131.818 86.4793 131.818C86.4342 131.818 86.3906 131.835 86.3565 131.864C86.3224 131.894 86.3 131.934 86.2934 131.979Z" fill="white"/>
<path d="M87.7243 132.686C87.4925 132.474 87.5564 132.007 87.5644 131.723C87.5724 131.439 87.6124 131.104 87.6243 130.796C87.6243 130.746 87.6046 130.698 87.5693 130.663C87.5341 130.628 87.4863 130.608 87.4365 130.608C87.3867 130.608 87.3389 130.628 87.3037 130.663C87.2684 130.698 87.2487 130.746 87.2487 130.796C87.2287 131.403 86.9329 132.47 87.4525 132.95C87.6283 133.118 87.9001 132.866 87.7243 132.686Z" fill="white"/>
<path d="M88.9192 131.659C88.9192 131.419 88.5595 131.411 88.5435 131.659C88.4637 132.129 88.4276 132.605 88.4356 133.082C88.4676 133.318 88.8353 133.222 88.7953 132.99C88.7982 132.544 88.8397 132.098 88.9192 131.659Z" fill="white"/>
<path d="M70.3432 123.15C70.3432 122.911 69.9635 122.907 69.9675 123.15C69.9675 123.686 70.2153 124.182 70.2193 124.713C70.2193 124.953 70.619 124.961 70.619 124.713C70.567 124.182 70.3432 123.682 70.3432 123.15Z" fill="white"/>
<path d="M71.3822 124.457C71.3022 124.425 71.2703 124.194 71.2623 124.11C71.254 123.977 71.254 123.843 71.2623 123.71C71.2623 123.66 71.2425 123.612 71.2073 123.577C71.172 123.542 71.1243 123.522 71.0744 123.522C71.0246 123.522 70.9768 123.542 70.9416 123.577C70.9064 123.612 70.8866 123.66 70.8866 123.71C70.8866 124.086 70.8866 124.637 71.2862 124.813C71.4981 124.909 71.598 124.553 71.3822 124.457Z" fill="white"/>
<path d="M72.2175 123.458C71.9497 123.858 71.5781 124.529 71.9417 124.961C72.0936 125.145 72.3614 124.889 72.2055 124.705C71.9977 124.453 72.3894 123.862 72.5412 123.646C72.6931 123.43 72.3414 123.262 72.2175 123.458Z" fill="white"/>
<path d="M66.3785 126.208C66.1467 126.124 66.3425 125.285 66.3505 125.097C66.3505 125.047 66.3308 124.999 66.2955 124.964C66.2603 124.929 66.2125 124.909 66.1627 124.909C66.1129 124.909 66.0651 124.929 66.0299 124.964C65.9946 124.999 65.9749 125.047 65.9749 125.097C65.9749 125.528 65.7071 126.364 66.2746 126.564C66.5024 126.639 66.6023 126.292 66.3785 126.208Z" fill="white"/>
<path d="M57.0306 127.347C56.8867 127.275 56.8907 126.919 56.8787 126.787C56.8667 126.566 56.8667 126.345 56.8787 126.124C56.8721 126.079 56.8497 126.039 56.8156 126.009C56.7815 125.98 56.7379 125.963 56.6928 125.963C56.6478 125.963 56.6042 125.98 56.5701 126.009C56.5359 126.039 56.5136 126.079 56.507 126.124C56.4964 126.408 56.5057 126.692 56.535 126.975C56.5629 127.203 56.6069 127.551 56.8507 127.667C57.0945 127.782 57.2464 127.447 57.0306 127.347Z" fill="white"/>
<path d="M57.674 125.732C57.3863 126.036 57.1745 126.875 57.5581 127.183C57.738 127.331 58.0137 127.079 57.8259 126.927C57.6381 126.775 57.7779 126.164 57.9378 125.996C58.0977 125.828 57.8379 125.556 57.674 125.732Z" fill="white"/>
<path d="M50.8198 123.442L50.7918 124.913C50.7984 124.958 50.8208 124.998 50.8549 125.028C50.889 125.057 50.9326 125.074 50.9777 125.074C51.0228 125.074 51.0663 125.057 51.1005 125.028C51.1346 124.998 51.157 124.958 51.1635 124.913L51.1915 123.442C51.1849 123.398 51.1626 123.357 51.1284 123.327C51.0943 123.298 51.0507 123.282 51.0057 123.282C50.9606 123.282 50.917 123.298 50.8829 123.327C50.8488 123.357 50.8264 123.398 50.8198 123.442Z" fill="white"/>
<path d="M52.2787 124.11C52.159 123.819 52.1097 123.504 52.1348 123.19C52.1348 123.141 52.115 123.093 52.0798 123.058C52.0445 123.022 51.9968 123.003 51.9469 123.003C51.8971 123.003 51.8493 123.022 51.8141 123.058C51.7789 123.093 51.7591 123.141 51.7591 123.19C51.7388 123.569 51.8073 123.946 51.9589 124.293C52.0508 124.505 52.3786 124.325 52.2787 124.11Z" fill="white"/>
<path d="M40.7365 131.348C40.7365 131.298 40.7167 131.25 40.6815 131.215C40.6463 131.179 40.5985 131.16 40.5487 131.16C40.4989 131.16 40.4511 131.179 40.4159 131.215C40.3806 131.25 40.3608 131.298 40.3608 131.348C40.3608 131.839 40.4328 132.327 40.4288 132.818C40.4288 133.054 40.8045 133.062 40.8045 132.818C40.8085 132.323 40.7365 131.835 40.7365 131.348Z" fill="white"/>
<path d="M38.9581 131.316C38.9581 131.076 38.5584 131.072 38.5824 131.316C38.5824 131.819 38.8262 132.287 38.8382 132.79C38.8382 133.026 39.2139 133.034 39.2099 132.79C39.2019 132.287 38.9661 131.815 38.9581 131.316Z" fill="white"/>
<path d="M43.3343 129.793C43.1905 129.621 43.2384 129.301 43.2544 129.097C43.2704 128.894 43.3104 128.606 43.3224 128.358C43.3343 128.11 42.9587 128.118 42.9467 128.358C42.9467 128.886 42.6869 129.601 43.0666 130.057C43.2184 130.228 43.4862 129.977 43.3343 129.793Z" fill="white"/>
<path d="M35.1733 132.439C34.9215 132.039 35.1133 131.495 35.1333 131.064C35.1333 131.014 35.1135 130.966 35.0783 130.931C35.043 130.896 34.9953 130.876 34.9455 130.876C34.8956 130.876 34.8479 130.896 34.8126 130.931C34.7774 130.966 34.7576 131.014 34.7576 131.064C34.7576 131.575 34.5458 132.155 34.8495 132.626C34.9614 132.818 35.2892 132.642 35.1733 132.439Z" fill="white"/>
<path d="M33.8184 128.65C33.841 128.608 33.8465 128.559 33.8339 128.513C33.8213 128.468 33.7915 128.428 33.7507 128.404C33.7099 128.38 33.6613 128.372 33.6151 128.383C33.5688 128.394 33.5285 128.422 33.5026 128.462C33.2589 128.861 33.3668 129.349 33.3588 129.793C33.3653 129.837 33.3877 129.878 33.4218 129.907C33.4559 129.937 33.4995 129.953 33.5446 129.953C33.5897 129.953 33.6333 129.937 33.6674 129.907C33.7015 129.878 33.7239 129.837 33.7304 129.793V129.741C33.7265 129.385 33.6385 128.949 33.8184 128.65Z" fill="white"/>
<path d="M55.2321 133.026C55.1707 132.802 55.1451 132.57 55.1561 132.339C55.1496 132.294 55.1272 132.253 55.0931 132.224C55.059 132.194 55.0154 132.178 54.9703 132.178C54.9252 132.178 54.8816 132.194 54.8475 132.224C54.8134 132.253 54.791 132.294 54.7845 132.339C54.7702 132.608 54.7985 132.878 54.8684 133.138C54.9363 133.342 55.3 133.254 55.2321 133.026Z" fill="white"/>
<path d="M68.089 133.086C68.0079 133.494 67.9664 133.909 67.9651 134.325C67.9651 134.375 67.9849 134.422 68.0202 134.458C68.0554 134.493 68.1032 134.513 68.153 134.513C68.2028 134.513 68.2506 134.493 68.2858 134.458C68.321 134.422 68.3408 134.375 68.3408 134.325C68.3405 133.941 68.3766 133.559 68.4487 133.182C68.5007 132.946 68.137 132.838 68.089 133.086Z" fill="white"/>
<path d="M79.935 131.407C79.915 132.231 79.8191 133.054 79.7991 133.881C79.7991 133.931 79.8189 133.979 79.8541 134.014C79.8893 134.049 79.9371 134.069 79.9869 134.069C80.0367 134.069 80.0845 134.049 80.1197 134.014C80.1549 133.979 80.1747 133.931 80.1747 133.881C80.1947 133.054 80.2946 132.231 80.3146 131.404C80.3075 131.358 80.2842 131.316 80.2491 131.287C80.2139 131.257 80.1692 131.241 80.1231 131.241C80.077 131.242 80.0326 131.259 79.998 131.289C79.9635 131.32 79.9411 131.362 79.935 131.407Z" fill="white"/>
<path d="M65.8709 77.8573C65.771 76.6823 65.6112 75.5113 65.4153 74.3483C65.1236 72.5458 64.652 69.8481 62.7096 69.1008C60.2597 68.1576 58.6092 71.8984 58.0416 73.565C57.9457 73.8487 57.8578 74.1325 57.7739 74.4162C57.7435 74.4483 57.7211 74.4871 57.7086 74.5295C57.6961 74.5719 57.6938 74.6166 57.7019 74.66C57.205 76.3061 56.936 78.0125 56.9026 79.7317V79.8156C56.8687 79.8635 56.8505 79.9208 56.8505 79.9795C56.8505 80.0382 56.8687 80.0954 56.9026 80.1433C56.8786 81.5341 56.8547 83.2886 57.4182 84.5036C57.4458 84.5623 57.4922 84.6101 57.5501 84.6395C57.5425 84.6831 57.5445 84.7279 57.5561 84.7707C57.5677 84.8135 57.5885 84.8533 57.6171 84.8872C57.6456 84.9211 57.6813 84.9483 57.7215 84.9669C57.7617 84.9856 57.8055 84.9952 57.8498 84.9952L65.791 85.135C65.8759 85.1362 65.9579 85.1043 66.0198 85.0462C66.0817 84.988 66.1186 84.9081 66.1227 84.8233C66.3026 82.5732 66.0548 80.1074 65.8709 77.8573ZM64.8678 74.9398C64.9158 75.2755 64.9557 75.6072 64.9997 75.9229C65.1516 77.038 65.2555 78.149 65.3154 79.2681C64.5161 78.8165 62.9574 79.1082 62.0662 79.1642C62.0662 78.3649 62.0382 75.4833 62.0382 74.8599C62.8375 74.8319 63.6768 74.7999 64.4961 74.8359C64.5322 74.8778 64.5781 74.9103 64.6296 74.9305C64.6811 74.9507 64.7368 74.958 64.7919 74.9518L64.8678 74.9398ZM63.6089 70.6954C64.2338 71.7717 64.6259 72.9671 64.7599 74.2044C63.8502 74.1651 62.9392 74.1718 62.0302 74.2244C62.0302 73.9087 62.0302 73.5969 62.0302 73.2812C62.0302 72.5139 61.7944 71.0151 62.0302 70.1199C62.133 69.9832 62.1928 69.8191 62.2021 69.6483C62.6737 69.6883 63.1493 69.996 63.6089 70.6954ZM61.4627 69.8002C61.3557 70.3074 61.3368 70.8292 61.4068 71.3429C61.4627 72.302 61.4068 73.2732 61.4068 74.2404C60.9551 74.2404 60.5035 74.2404 60.0519 74.2404C59.5546 74.164 59.0524 74.1239 58.5492 74.1205C58.9848 72.8016 60.1438 70.4276 61.4627 69.8002ZM57.5541 79.5798C57.5832 77.9506 57.8525 76.3345 58.3534 74.7839C58.817 74.5601 60.2238 74.8678 60.6754 74.8718C60.9192 74.8718 61.167 74.8718 61.4108 74.8718C61.4108 75.0957 61.4108 75.3155 61.4108 75.5393C61.4347 76.7582 61.4387 77.9812 61.4467 79.2001C60.6474 79.2561 59.8721 79.356 59.0887 79.4639C58.5572 79.5319 58.0336 79.4919 57.5541 79.5798ZM57.9537 84.1879C57.4701 83.1408 57.5541 81.4942 57.5541 80.2352C57.9058 80.1793 58.4253 80.1953 58.6891 80.1633C59.5803 80.0474 60.4716 79.9315 61.3708 79.8556H61.4467C61.4467 81.3743 61.4467 82.897 61.4148 84.4157L58.0017 84.3557C58.0027 84.2962 57.986 84.2378 57.9537 84.1879ZM65.4673 84.4836L62.0462 84.4237C62.0662 82.873 62.0702 81.3263 62.0662 79.7756C63.0653 79.6597 64.576 79.5119 65.0996 79.8955C65.1345 79.9233 65.1757 79.9422 65.2196 79.9505C65.2634 79.9589 65.3087 79.9565 65.3514 79.9435C65.4811 81.4532 65.5212 82.9692 65.4713 84.4836H65.4673Z" fill="#303030"/>
<path d="M66.2946 100.386C65.7311 97.9002 64.608 94.9467 61.6985 94.7189C58.8769 94.4951 57.2503 98.108 56.8786 100.342C56.6849 101.885 56.6728 103.445 56.8427 104.99C56.868 105.937 56.8413 106.884 56.7627 107.828C56.7348 108.891 56.9066 109.954 56.8906 111.025C56.8707 112.18 58.2175 111.824 59.0048 111.652C60.2038 111.401 61.5866 111.704 62.8215 111.596C64.2164 111.473 65.5272 111.049 66.942 111.101C67.0283 111.1 67.1109 111.066 67.1727 111.005C67.2345 110.945 67.2707 110.863 67.2737 110.777C67.42 107.285 67.0906 103.789 66.2946 100.386ZM65.783 101.006C65.8869 101.525 65.9748 102.005 66.0468 102.4C66.2636 103.555 66.4224 104.719 66.5224 105.889C65.2682 105.775 64.0087 105.73 62.7496 105.753C62.7176 105.058 62.6897 104.363 62.6577 103.671C62.6097 102.788 62.5378 101.905 62.4499 101.021C63.5729 100.978 64.6879 100.998 65.7151 101.021C65.7382 101.018 65.761 101.013 65.783 101.006ZM65.6431 100.37C64.608 100.37 63.501 100.334 62.3899 100.37C62.2301 98.6955 62.0622 97.0289 62.0422 95.3544C64.1844 95.5182 65.1476 98.144 65.6431 100.37ZM61.3988 95.3983C61.3988 97.0729 61.5866 98.7475 61.7505 100.422C60.3176 100.488 58.9029 100.769 57.5541 101.257C57.7899 98.7155 58.6291 95.75 61.3988 95.3983ZM57.4701 102.828C57.4701 102.544 57.4701 102.248 57.5021 101.937C57.5516 101.939 57.6011 101.93 57.646 101.909C58.9766 101.398 60.3821 101.109 61.8064 101.053C61.8864 101.925 61.9623 102.792 62.0062 103.663C62.0422 104.367 62.0782 105.074 62.1062 105.781L61.6266 105.809C60.2358 105.909 58.829 105.901 57.4901 106.277C57.4661 105.11 57.4542 103.979 57.4701 102.828ZM61.7545 111.001C60.8952 111.001 60.0239 110.969 59.1647 110.953C58.797 110.953 57.5301 111.465 57.5381 111.029C57.5381 109.67 57.5381 108.307 57.5021 106.94C59.0052 106.511 60.5632 106.305 62.1261 106.329C62.1941 107.856 62.266 109.386 62.4059 110.901C62.4041 110.921 62.4041 110.941 62.4059 110.961C62.2021 110.977 61.9783 110.993 61.7545 111.001ZM66.6303 110.445C65.4231 110.517 64.2217 110.665 63.0334 110.889C62.8975 109.382 62.8255 107.852 62.7576 106.329C64.0645 106.329 65.3634 106.445 66.5623 106.545C66.6552 107.843 66.6779 109.145 66.6303 110.445Z" fill="#303030"/>
<path d="M38.8461 88.2203C38.2626 89.1955 29.7459 100.306 30.5252 100.798C32.0879 101.785 33.7225 102.212 35.1972 103.164C33.5226 106.673 29.1024 108.891 26.9722 112.22C28.6948 112.4 30.4053 112.659 31.7681 113.467C29.2143 115.841 26.1729 117.659 23.2354 119.506C23.719 119.202 29.3142 120.992 30.1375 121.236C27.6037 122.207 26.141 124.146 23.1315 124.118C29.7658 129.069 44.3933 128.985 51.3473 124.825C50.3002 125.452 45.4604 120.828 45.0208 119.833C46.0998 119.889 47.8184 119.773 48.6576 118.95C49.5928 118.047 39.4655 112.092 47.8184 112.156C46.9032 108.739 43.9737 106.089 42.2911 102.996C43.6051 102.719 44.945 102.585 46.2877 102.596C42.6668 102.644 39.9691 90.3465 38.8461 88.2203Z" fill="#BAD9E4"/>
<path d="M38.7701 16.1143C37.1475 16.1143 37.1475 18.6321 38.7701 18.6321C40.3928 18.6321 40.3688 16.1143 38.7701 16.1143Z" fill="white"/>
<path d="M59.3686 24.2472C59.1315 24.0136 58.8121 23.8827 58.4793 23.8827C58.1465 23.8827 57.8271 24.0136 57.5901 24.2472C57.4047 24.4153 57.2572 24.6209 57.1573 24.8504C57.0574 25.0798 57.0074 25.3278 57.0106 25.5781C57.009 25.8869 57.1214 26.1855 57.3262 26.4167C57.5311 26.6478 57.8139 26.7953 58.1207 26.831C58.4275 26.8666 58.7367 26.7878 58.989 26.6098C59.2414 26.4317 59.4192 26.1668 59.4884 25.8658C59.6626 25.6252 59.7461 25.3308 59.7242 25.0346C59.7022 24.7384 59.5763 24.4595 59.3686 24.2472Z" fill="white"/>
<path d="M75.2629 15.0671H75.055C73.4324 15.0671 73.4324 17.585 75.055 17.585H75.2629C76.8895 17.585 76.8895 15.0671 75.2629 15.0671Z" fill="white"/>
<path d="M90.7456 28.1597C90.6515 27.8417 90.4378 27.5724 90.1494 27.4085C89.8611 27.2445 89.5204 27.1987 89.1989 27.2805C88.9252 27.3344 88.6759 27.4744 88.4875 27.6802C88.4023 27.7841 88.3184 27.892 88.2358 28.0039C88.1638 28.1038 88.1598 28.1158 88.2358 28.0359C88.0041 28.2739 87.8745 28.5929 87.8745 28.9251C87.8745 29.2573 88.0041 29.5763 88.2358 29.8143C88.3524 29.9314 88.4909 30.0243 88.6435 30.0877C88.7961 30.1511 88.9598 30.1838 89.125 30.1838C89.2902 30.1838 89.4539 30.1511 89.6065 30.0877C89.7591 30.0243 89.8976 29.9314 90.0142 29.8143C90.0742 29.7464 90.1301 29.6705 90.1861 29.5985C90.42 29.4492 90.6004 29.2293 90.701 28.9706C90.8016 28.7119 90.8172 28.4279 90.7456 28.1597Z" fill="white"/>
<path d="M100.441 19.6831C98.8188 19.6831 98.8188 22.2009 100.441 22.2009C102.064 22.2009 102.068 19.6831 100.441 19.6831Z" fill="white"/>
<path d="M127.462 59.8568C127.354 59.691 127.205 59.556 127.029 59.4649C126.853 59.3739 126.657 59.3299 126.459 59.3372H126.251C126.155 59.338 126.058 59.3474 125.963 59.3652C124.097 59.6529 124.189 62.6943 126.251 62.6943C127.894 62.6943 128.293 60.796 127.462 59.8568Z" fill="white"/>
<path d="M129.241 82.3694C129.026 82.1589 128.744 82.0316 128.445 82.0104C128.145 81.9891 127.848 82.0753 127.606 82.2535C126.915 82.3534 126.551 83.2007 126.715 83.8042C126.811 84.121 127.025 84.3887 127.313 84.5517C127.601 84.7147 127.941 84.7604 128.261 84.6794C128.634 84.6044 128.975 84.4192 129.241 84.1479C129.474 83.9109 129.605 83.5914 129.605 83.2587C129.605 82.9259 129.474 82.6065 129.241 82.3694Z" fill="white"/>
<path d="M13.9116 89.1796C13.3121 89.0117 12.4648 89.3754 12.3649 90.0548C12.1767 90.3095 12.0914 90.6257 12.126 90.9405C12.1606 91.2553 12.3125 91.5454 12.5515 91.7532C12.7905 91.9609 13.099 92.0709 13.4155 92.0613C13.732 92.0518 14.0333 91.9232 14.2593 91.7014C14.529 91.4345 14.7139 91.0939 14.7908 90.7222C14.8705 90.4014 14.8236 90.0622 14.6599 89.775C14.4962 89.4878 14.2282 89.2745 13.9116 89.1796Z" fill="white"/>
<path d="M24.5385 74.6041L24.3306 74.3962C24.2139 74.2792 24.0752 74.1863 23.9225 74.1229C23.7698 74.0594 23.6062 74.0267 23.4408 74.0265C23.2755 74.0263 23.1117 74.0587 22.9589 74.1218C22.8061 74.1849 22.6672 74.2775 22.5502 74.3942C22.4331 74.511 22.3402 74.6497 22.2768 74.8024C22.2134 74.9551 22.1806 75.1187 22.1804 75.2841C22.18 75.618 22.3123 75.9383 22.5482 76.1747L22.76 76.3825C22.9993 76.6007 23.3135 76.7182 23.6372 76.7107C23.9609 76.7032 24.2693 76.5713 24.4982 76.3423C24.7272 76.1133 24.8591 75.805 24.8666 75.4812C24.8741 75.1575 24.7566 74.8434 24.5385 74.6041Z" fill="white"/>
<path d="M12.3688 49.4256C12.3009 49.3337 12.2569 49.2697 12.2169 49.2098C12.0742 48.9903 11.9152 48.7819 11.7413 48.5863C11.6282 48.4563 11.4897 48.3508 11.3342 48.2765C11.1787 48.2023 11.0096 48.1607 10.8373 48.1544C10.6651 48.1481 10.4934 48.1773 10.3329 48.24C10.1724 48.3028 10.0265 48.3978 9.90427 48.5193C9.782 48.6407 9.68597 48.786 9.62212 48.9461C9.55827 49.1061 9.52797 49.2776 9.53309 49.4499C9.53821 49.6221 9.57864 49.7915 9.65188 49.9475C9.72512 50.1035 9.82961 50.2428 9.95887 50.3568C10.0268 50.4487 10.0708 50.5126 10.1107 50.5766C10.2559 50.7941 10.4161 51.0011 10.5903 51.1961C10.8263 51.4316 11.1462 51.5638 11.4796 51.5638C11.813 51.5638 12.1328 51.4316 12.3688 51.1961C12.5981 50.9584 12.7263 50.6411 12.7263 50.3108C12.7263 49.9806 12.5981 49.6632 12.3688 49.4256Z" fill="white"/>
<path d="M21.9845 36.257C20.3619 36.257 20.3619 38.7748 21.9845 38.7748C23.6071 38.7748 23.5832 36.257 21.9845 36.257Z" fill="white"/>
<path d="M19.0312 15.9064C17.4086 15.9064 17.4086 18.4242 19.0312 18.4242C20.6538 18.4242 20.6578 15.9064 19.0312 15.9064Z" fill="white"/>
<path d="M37.0756 38.9866C35.453 38.9866 35.453 41.5044 37.0756 41.5044C38.6982 41.5044 38.7022 38.9866 37.0756 38.9866Z" fill="white"/>
<path d="M59.7362 3.31714C58.1136 3.31714 58.1136 5.83498 59.7362 5.83498C61.3588 5.83498 61.3628 3.31714 59.7362 3.31714Z" fill="white"/>
<path d="M107.367 7.93323C105.745 7.93323 105.745 10.4511 107.367 10.4511C108.99 10.4511 108.99 7.93323 107.367 7.93323Z" fill="white"/>
<path d="M96.297 90.1307L95.6695 89.5232C95.4337 89.2868 95.1136 89.1538 94.7797 89.1534C94.4458 89.1531 94.1254 89.2853 93.889 89.5212C93.6527 89.757 93.5197 90.0771 93.5193 90.411C93.5189 90.7449 93.6512 91.0653 93.887 91.3017L94.5185 91.9291C94.7578 92.1473 95.072 92.2648 95.3957 92.2573C95.7194 92.2498 96.0278 92.1179 96.2567 91.8889C96.4857 91.6599 96.6176 91.3516 96.6251 91.0278C96.6326 90.7041 96.5151 90.39 96.297 90.1507V90.1307Z" fill="white"/>
<path d="M113.662 106.337V106.549C113.662 108.171 116.18 108.171 116.18 106.549V106.337C116.18 104.71 113.662 104.71 113.662 106.337Z" fill="white"/>
<path d="M94.986 109.274C94.9829 108.941 94.8493 108.623 94.6139 108.388C94.3784 108.152 94.06 108.019 93.7271 108.015C93.4809 108.016 93.2375 108.067 93.0124 108.167C92.7874 108.267 92.5857 108.413 92.4202 108.595C92.1867 108.832 92.0557 109.151 92.0557 109.484C92.0557 109.817 92.1867 110.136 92.4202 110.373C92.6301 110.578 92.9054 110.702 93.1977 110.724C93.4901 110.746 93.7808 110.664 94.0189 110.493C94.2927 110.427 94.5365 110.271 94.7116 110.05C94.8868 109.829 94.9834 109.556 94.986 109.274Z" fill="white"/>
<path d="M33.091 121.236V122.295C33.091 123.922 35.6089 123.922 35.6089 122.295V121.248C35.6089 119.609 33.091 119.609 33.091 121.236Z" fill="white"/>
<path d="M39.5935 105.709C37.9709 105.709 37.9709 108.227 39.5935 108.227C41.2161 108.227 41.2201 105.709 39.5935 105.709Z" fill="white"/>
<path d="M42.7429 76.3346C42.474 76.3357 42.2126 76.4228 41.9969 76.5831C41.7811 76.7435 41.6224 76.9687 41.5439 77.2258C41.4252 77.3845 41.3432 77.5675 41.3038 77.7617C41.2644 77.956 41.2686 78.1565 41.3161 78.3489C41.4102 78.6668 41.624 78.9357 41.9126 79.099C42.2011 79.2623 42.5418 79.3072 42.8628 79.2241C43.6621 79.0802 43.9898 78.3169 43.9978 77.5935C43.9947 77.2613 43.8616 76.9435 43.627 76.7082C43.3925 76.4729 43.0751 76.3388 42.7429 76.3346Z" fill="white"/>
<path d="M95.8413 46.1485C95.643 46.0906 95.4302 46.1082 95.2441 46.198C95.058 46.2879 94.9118 46.4435 94.8338 46.6349C94.7557 46.8262 94.7514 47.0397 94.8216 47.2341C94.8918 47.4284 95.0316 47.5899 95.2139 47.6872C95.6815 48.1867 96.7206 48.0269 96.6646 47.1676C96.6638 46.9294 96.5817 46.6987 96.4321 46.5134C96.2824 46.3281 96.074 46.1994 95.8413 46.1485Z" fill="white"/>
<path d="M90.5818 9.3999C90.1379 9.40407 89.7134 9.58226 89.3995 9.89615C89.0856 10.21 88.9074 10.6346 88.9033 11.0785V11.2903C88.9033 11.7355 89.0801 12.1624 89.3949 12.4772C89.7097 12.792 90.1366 12.9688 90.5818 12.9688C91.027 12.9688 91.4539 12.792 91.7687 12.4772C92.0835 12.1624 92.2604 11.7355 92.2604 11.2903V11.0785C92.2562 10.6346 92.078 10.21 91.7641 9.89615C91.4502 9.58226 91.0257 9.40407 90.5818 9.3999Z" fill="white"/>
<path d="M24.0668 6.46245V6.67427C24.0668 7.75734 25.7454 7.75734 25.7454 6.67427V6.46245C25.7454 5.37938 24.0668 5.37938 24.0668 6.46245Z" fill="white"/>
<path d="M43.3702 31.0133H42.9506C41.8675 31.0133 41.8675 32.6919 42.9506 32.6919H43.3702C44.4533 32.6919 44.4533 31.0133 43.3702 31.0133Z" fill="white"/>
<path d="M22.4242 99.0312L22.0045 99.4508C21.2412 100.214 22.4282 101.401 23.2035 100.65L23.6032 100.23C24.3825 99.4508 23.1835 98.2638 22.4242 99.0312Z" fill="white"/>
<path d="M11.2698 113.683C10.1867 113.683 10.1867 115.361 11.2698 115.361C12.3529 115.361 12.3529 113.683 11.2698 113.683Z" fill="white"/>
<path d="M106.332 66.2912C106.117 66.2366 105.889 66.2672 105.697 66.3767C105.504 66.4862 105.361 66.6661 105.297 66.8787C105.265 67.0195 105.268 67.1659 105.306 67.3052C105.343 67.4446 105.414 67.5726 105.513 67.678C105.689 68.5853 107.168 68.5453 107.156 67.5222C107.152 66.9707 106.936 66.4031 106.332 66.2912Z" fill="white"/>
<path d="M104.862 88.7439C104.721 88.7114 104.575 88.7136 104.436 88.7505C104.296 88.7875 104.168 88.8579 104.062 88.9558C103.151 89.1316 103.199 90.6104 104.218 90.6024C104.77 90.6024 105.337 90.3786 105.449 89.7751C105.504 89.5606 105.473 89.3333 105.363 89.141C105.254 88.9487 105.074 88.8064 104.862 88.7439Z" fill="white"/>
<path d="M128.349 105.709C128.351 105.741 128.351 105.773 128.349 105.805C128.219 105.971 128.155 106.179 128.172 106.39C128.189 106.6 128.284 106.796 128.44 106.939C128.595 107.081 128.798 107.16 129.009 107.159C129.22 107.158 129.423 107.077 129.576 106.932C129.878 106.597 130.041 106.16 130.032 105.709C130.036 104.626 128.357 104.626 128.349 105.709Z" fill="white"/>
<path d="M135.451 123.738C135.409 123.527 135.295 123.337 135.129 123.2C134.962 123.063 134.754 122.989 134.538 122.989C134.323 122.989 134.114 123.063 133.948 123.2C133.781 123.337 133.667 123.527 133.625 123.738C133.57 123.953 133.601 124.181 133.71 124.374C133.82 124.567 134 124.71 134.212 124.773C134.43 124.794 134.65 124.794 134.868 124.773C135.08 124.709 135.259 124.565 135.367 124.373C135.476 124.18 135.506 123.952 135.451 123.738Z" fill="white"/>
<path d="M108.175 36.5247C108.064 36.3607 107.91 36.2298 107.731 36.1461C107.551 36.0623 107.353 36.0288 107.156 36.0491C106.268 36.0491 106.12 37.1562 106.692 37.5678C106.716 37.6109 106.742 37.6523 106.772 37.6917C106.85 37.771 106.944 37.8339 107.047 37.8768C107.15 37.9198 107.26 37.9419 107.371 37.9419C107.483 37.9419 107.593 37.9198 107.696 37.8768C107.799 37.8339 107.892 37.771 107.971 37.6917C108.128 37.5462 108.233 37.3533 108.269 37.1425C108.306 36.9318 108.273 36.7148 108.175 36.5247Z" fill="white"/>
<path d="M71.666 58.4859C71.594 58.0862 71.3143 57.9383 71.0305 57.6865C70.8701 57.5303 70.655 57.4429 70.431 57.4429C70.2071 57.4429 69.992 57.5303 69.8316 57.6865C69.7523 57.765 69.6894 57.8583 69.6464 57.9612C69.6035 58.0641 69.5814 58.1745 69.5814 58.286C69.5814 58.3975 69.6035 58.5079 69.6464 58.6108C69.6894 58.7137 69.7523 58.8071 69.8316 58.8855C69.9189 58.9643 70.011 59.0377 70.1073 59.1053C70.2042 59.266 70.35 59.3915 70.5233 59.4634C70.6966 59.5353 70.8883 59.5499 71.0705 59.505C71.2817 59.4442 71.4613 59.3044 71.5722 59.1146C71.6831 58.9249 71.7167 58.6997 71.666 58.4859Z" fill="white"/>
<path d="M53.2338 45.7008C52.1507 45.7008 52.1507 47.3794 53.2338 47.3794C54.3169 47.3794 54.3169 45.7008 53.2338 45.7008Z" fill="white"/>
<path d="M67.7094 35.4177V35.8173C67.7094 36.9004 69.388 36.9004 69.388 35.8173V35.4177C69.388 34.3346 67.7094 34.3346 67.7094 35.4177Z" fill="white"/>
<path d="M46.7953 57.9224C46.6106 57.6311 46.3511 57.3947 46.0439 57.238C45.7367 57.0812 45.393 57.0098 45.0488 57.0312C44.6046 57.0343 44.1795 57.2122 43.8653 57.5263C43.5512 57.8404 43.3734 58.2655 43.3702 58.7097C43.3754 58.9468 43.4312 59.1799 43.5339 59.3936C43.6367 59.6073 43.7839 59.7966 43.9657 59.9487C44.001 59.998 44.0397 60.0448 44.0816 60.0886C44.6771 60.688 45.8761 60.7999 46.4556 60.0886C46.9632 59.4691 47.2549 58.7057 46.7953 57.9224Z" fill="white"/>
<path d="M23.6471 50.5248C23.3014 50.529 22.9653 50.6393 22.6843 50.8409C22.4034 51.0425 22.1912 51.3256 22.0765 51.6518C21.9374 51.8575 21.8428 52.0899 21.7988 52.3342C21.7547 52.5785 21.7622 52.8293 21.8207 53.0706C21.9465 53.4945 22.2315 53.8532 22.6159 54.0715C23.0004 54.2898 23.4545 54.3508 23.8829 54.2416C24.8581 54.0617 25.3177 53.1066 25.3257 52.2033C25.3226 51.7591 25.1447 51.334 24.8306 51.0199C24.5165 50.7058 24.0914 50.5279 23.6471 50.5248Z" fill="white"/>
<path d="M80.0907 92.9083H79.4593C79.0141 92.9083 78.5871 93.0852 78.2723 93.4C77.9575 93.7148 77.7807 94.1417 77.7807 94.5869C77.7807 95.0321 77.9575 95.459 78.2723 95.7738C78.5871 96.0886 79.0141 96.2654 79.4593 96.2654H80.0907C80.5359 96.2654 80.9629 96.0886 81.2776 95.7738C81.5924 95.459 81.7693 95.0321 81.7693 94.5869C81.7693 94.1417 81.5924 93.7148 81.2776 93.4C80.9629 93.0852 80.5359 92.9083 80.0907 92.9083Z" fill="white"/>
<path d="M41.2242 112.795C40.6566 113.195 40.8245 114.322 41.6918 114.31C41.832 114.32 41.9728 114.3 42.1046 114.251C42.2364 114.202 42.3562 114.125 42.4558 114.026C42.5555 113.927 42.6326 113.807 42.6821 113.676C42.7317 113.544 42.7524 113.403 42.7429 113.263C42.7668 112.376 41.6398 112.228 41.2242 112.795Z" fill="white"/>
<path d="M76.7377 66.8906C76.2201 66.8647 75.7106 67.0265 75.3029 67.3463C75.2236 67.4247 75.1607 67.518 75.1177 67.6209C75.0748 67.7238 75.0527 67.8342 75.0527 67.9457C75.0527 68.0572 75.0748 68.1676 75.1177 68.2705C75.1607 68.3734 75.2236 68.4668 75.3029 68.5452C75.4633 68.7015 75.6784 68.7889 75.9024 68.7889C76.1263 68.7889 76.3414 68.7015 76.5019 68.5452C76.31 68.7011 76.4499 68.5932 76.5019 68.5892C76.5538 68.5852 76.6777 68.5892 76.7656 68.5892C77.8167 68.5652 77.8167 66.8866 76.7377 66.8906Z" fill="white"/>
<path d="M71.1904 86.6777C71.091 86.5826 70.9728 86.5092 70.8434 86.4624C70.714 86.4156 70.5763 86.3964 70.439 86.406C70.3288 86.4056 70.2197 86.4281 70.1186 86.472C70.0175 86.5159 69.9266 86.5802 69.8515 86.6609C69.7764 86.7415 69.7189 86.8369 69.6824 86.9409C69.646 87.0449 69.6314 87.1553 69.6397 87.2652C69.4878 87.9686 70.403 88.692 71.0385 88.0645C71.1539 87.9622 71.2524 87.8421 71.3302 87.7088C71.4222 87.5451 71.4584 87.3559 71.4331 87.1698C71.4079 86.9838 71.3226 86.811 71.1904 86.6777Z" fill="white"/>
<rect x="5.5" y="1.5" width="137" height="137" stroke="#D8E1E5" stroke-width="3"/>
</g>
<defs>
<filter id="filter0_d" x="0" y="0" width="148" height="148" filterUnits="userSpaceOnUse" color-interpolation-filters="sRGB">
<feFlood flood-opacity="0" result="BackgroundImageFix"/>
<feColorMatrix in="SourceAlpha" type="matrix" values="0 0 0 0 0 0 0 0 0 0 0 0 0 0 0 0 0 0 127 0"/>
<feOffset dy="4"/>
<feGaussianBlur stdDeviation="2"/>
<feColorMatrix type="matrix" values="0 0 0 0 0 0 0 0 0 0 0 0 0 0 0 0 0 0 0.25 0"/>
<feBlend mode="normal" in2="BackgroundImageFix" result="effect1_dropShadow"/>
<feBlend mode="normal" in="SourceGraphic" in2="effect1_dropShadow" result="shape"/>
</filter>
</defs>
</svg>
