<svg width="148" height="148" viewBox="0 0 148 148" fill="none" xmlns="http://www.w3.org/2000/svg">
<g filter="url(#filter0_d)">
<path d="M144 0H4V140H144V0Z" fill="white"/>
<path d="M24.2946 43.8984C24.5008 43.8963 24.7046 43.9418 24.8903 44.0312C25.0761 44.1206 25.2387 44.2516 25.3657 44.4139C25.5924 44.7026 25.7174 45.0581 25.7214 45.4251C25.7182 45.7862 25.5928 46.1355 25.3657 46.4162C25.2346 46.5668 25.0679 46.6821 24.8809 46.7519C24.6938 46.8217 24.4923 46.8437 24.2946 46.8159L16.0857 46.4602C15.881 46.463 15.6784 46.4195 15.493 46.333C15.3075 46.2464 15.144 46.1192 15.0146 45.9606C14.7868 45.6725 14.6617 45.3167 14.6589 44.9495C14.6585 44.5878 14.7843 44.2373 15.0146 43.9583C15.1457 43.8078 15.3124 43.6924 15.4994 43.6226C15.6865 43.5528 15.888 43.5309 16.0857 43.5587H16.6811C16.5746 41.6323 16.5613 39.7033 16.6412 37.7716C16.7211 35.84 16.8543 33.9229 17.0408 32.0206C17.2407 30.1182 17.4791 28.2145 17.7562 26.3095C18.0333 24.4044 18.3171 22.5007 18.6075 20.5984C18.6355 20.4944 18.6754 20.3586 18.7274 20.1987C17.8414 20.755 16.9277 21.2659 15.9897 21.7294C15.8091 21.8329 15.6072 21.8939 15.3995 21.9077C15.1917 21.9216 14.9836 21.8879 14.7908 21.8093C14.4551 21.6618 14.1752 21.4112 13.9915 21.0939C13.8073 20.7838 13.738 20.4188 13.7956 20.0628C13.8277 19.8683 13.9093 19.6853 14.0325 19.5313C14.1556 19.3773 14.3163 19.2576 14.499 19.1836C16.4189 18.2563 18.2175 17.0966 19.8544 15.7305C20.1535 15.4891 20.5216 15.3491 20.9055 15.3309C21.102 15.3165 21.2991 15.3484 21.4809 15.4241C21.6628 15.4998 21.8243 15.617 21.9526 15.7665C22.2207 16.0497 22.4359 16.3786 22.5881 16.7377C22.722 17.0746 22.8094 17.4282 22.8479 17.7888C22.8881 18.1644 22.9081 18.542 22.9078 18.9198C22.9078 19.3194 22.9478 26.833 22.9478 28.1799C22.9478 33.3914 22.8678 38.5869 22.708 43.7665L24.2946 43.8984ZM19.9344 32.9118C19.7479 34.7103 19.6213 36.5021 19.5547 38.2872C19.4881 40.0723 19.5081 41.8761 19.6146 43.6986H19.7345C19.8384 40.1043 19.917 36.4954 19.9703 32.8718L19.9344 32.9118ZM19.7745 19.4673H20.0103V19.3474L19.7745 19.4673Z" fill="#303030"/>
<path d="M39.9691 43.4347C40.1787 43.4335 40.3856 43.4804 40.5741 43.5719C40.7626 43.6633 40.9276 43.7969 41.0562 43.9623C41.2824 44.2512 41.4073 44.6065 41.4119 44.9734C41.4087 45.3345 41.2833 45.6838 41.0562 45.9646C40.9231 46.1168 40.7536 46.233 40.5636 46.3022C40.3735 46.3713 40.169 46.3913 39.9691 46.3602L31.7602 46.0045C31.554 46.0069 31.3501 45.9616 31.1643 45.8721C30.9785 45.7827 30.8159 45.6516 30.6891 45.489C30.4603 45.2015 30.3349 44.8453 30.3334 44.4778C30.3337 44.1162 30.4594 43.766 30.6891 43.4867C30.8202 43.3362 30.9869 43.2208 31.1739 43.151C31.361 43.0812 31.5625 43.0592 31.7602 43.087H32.3756C32.2691 41.1553 32.2558 39.225 32.3357 37.296C32.4156 35.367 32.5488 33.45 32.7353 31.5449C32.9298 29.6425 33.167 27.7388 33.4467 25.8338C33.7265 23.9288 34.0116 22.0264 34.302 20.1267C34.3343 19.9913 34.3744 19.8579 34.4219 19.7271C33.5362 20.2888 32.6225 20.8051 31.6842 21.2737C31.5039 21.3781 31.302 21.4396 31.0941 21.4534C30.8862 21.4673 30.6779 21.4331 30.4853 21.3537C30.1364 21.2142 29.8439 20.9625 29.654 20.6383C29.4691 20.3299 29.3984 19.9664 29.4542 19.6111C29.4891 19.4165 29.5732 19.2339 29.6984 19.0808C29.8235 18.9276 29.9857 18.8089 30.1695 18.7359C32.0872 17.8085 33.8843 16.6503 35.521 15.2869C35.8187 15.0432 36.1876 14.9029 36.5721 14.8872C36.7693 14.8706 36.9677 14.9014 37.1506 14.9772C37.3334 15.053 37.4955 15.1715 37.6232 15.3228C37.8929 15.6047 38.1084 15.9339 38.2586 16.294C38.3933 16.6305 38.4794 16.9844 38.5144 17.3451C38.5566 17.7206 38.5767 18.0983 38.5743 18.4761C38.5743 18.8758 38.6143 26.3853 38.6143 27.7362C38.6143 32.9451 38.5357 38.1406 38.3785 43.3228L39.9691 43.4347ZM35.6209 32.4521C35.437 34.2466 35.3091 36.0491 35.2452 37.8235C35.1812 39.598 35.1972 41.4205 35.3051 43.2389H35.425C35.5289 39.642 35.6075 36.0331 35.6608 32.4122L35.6209 32.4521ZM35.465 19.0077H35.7008V18.8878L35.465 19.0077Z" fill="#303030"/>
<path d="M54.3329 126.52C46.8513 128.77 32.2039 132.658 33.5747 127.627C35.1733 121.752 40.9124 119.909 41.3081 112.771C42.507 91.2339 42.7388 69.1808 62.4899 54.8211C68.221 50.6646 76.41 49.1579 81.3417 44.1702C75.9743 35.4976 62.1582 37.7757 54.189 39.4063C50.9918 30.7297 61.6107 27.7203 68.5247 28.7274C66.6264 29.3629 60.3517 27.3646 61.9144 23.7996C62.9495 21.4457 71.3143 22.6007 73.1048 23.6158C69.2121 21.5496 69.416 17.6209 73.9041 17.4251C77.2692 17.2852 81.2898 23.0443 82.9564 25.2224C87.3153 30.9399 89.9374 37.7907 90.5099 44.9575C106.2 48.4705 114.317 66.1394 119.913 79.3281C121.439 82.925 137.977 133.118 131.371 133.681C124.88 134.241 117.531 130.884 113.598 126.016C100.01 131.655 81.7334 131.172 67.4177 128.642C64.3083 128.094 61.8465 125.289 58.5413 125.201C58.5093 125.209 56.8148 125.772 54.3329 126.52Z" fill="#BAD9E4"/>
<path d="M105.845 47.803C104.11 45.449 101.201 44.6057 98.1793 44.1621C98.7901 44.0484 99.3914 43.8881 99.9777 43.6825C102.104 42.9072 104.078 42.1159 105.789 40.6451C107.891 38.8387 107.291 34.6503 104.426 33.787C99.9977 32.4362 96.0331 34.4385 93.1436 37.5878C90.9375 39.9857 90.5218 44.6737 86.793 45.1493C84.3431 45.457 81.7014 44.7496 79.3874 45.5969C79.3354 45.6199 79.2905 45.6564 79.2573 45.7025C79.2241 45.7487 79.2039 45.8028 79.1986 45.8594C79.1933 45.916 79.2032 45.973 79.2272 46.0245C79.2513 46.076 79.2886 46.1202 79.3354 46.1524C81.0979 47.2115 84.1033 47.7111 86.753 47.3114C86.5053 47.867 93.0636 54.4133 97.4679 55.5923C99.9937 56.2678 103.886 56.6195 106.073 54.8849C108.538 52.9306 107.359 49.8692 105.845 47.803ZM94.93 38.8027C96.1456 37.2115 97.886 36.1027 99.8418 35.6734C102.907 34.8101 104.989 39.0625 101.868 40.6212C98.8507 42.1279 95.4336 42.0879 92.3363 42.9791C93.0835 41.5174 93.951 40.1205 94.93 38.8027ZM104.122 53.4342C102.763 54.2095 100.637 53.7819 99.1704 53.59C94.3505 52.9506 92.7759 48.3146 88.7793 46.7959C89.5755 46.5042 90.2975 46.0402 90.8935 45.437C91.0124 45.5005 91.1405 45.545 91.2732 45.5689C94.8981 46.2164 98.515 46.1604 101.956 47.5992C104.53 48.6676 105.255 50.6126 104.13 53.4342H104.122Z" fill="#D9603E"/>
<path opacity="0.25" d="M119.937 79.332C119.137 77.4496 118.286 75.4793 117.367 73.469C116.472 90.978 107.283 105.226 92.4082 114.81C86.6092 118.546 79.2595 120.924 72.2975 120.553C65.2155 120.177 59.1367 116.732 52.5584 116.184C54.2449 119.609 57.0186 122.579 59.4205 125.301C62.31 125.78 64.616 128.15 67.4416 128.65C81.7574 131.18 100.054 131.663 113.622 126.024C117.555 130.9 124.904 134.249 131.395 133.689C138.001 133.122 121.463 82.9209 119.937 79.332Z" fill="#778890"/>
<g opacity="0.25">
<path opacity="0.25" d="M93.4113 106.709C92.4162 106.309 91.437 106.956 90.6377 107.456C89.7898 107.949 89.1101 108.685 88.6874 109.57C88.6447 109.682 88.6248 109.802 88.6289 109.922C88.633 110.042 88.661 110.16 88.7114 110.27C88.7257 110.398 88.7725 110.52 88.8473 110.625C88.922 110.73 89.0223 110.814 89.1387 110.87C89.255 110.926 89.3836 110.951 89.5124 110.943C89.6411 110.935 89.7656 110.894 89.8744 110.825C90.5378 110.649 91.1453 109.91 91.6289 109.53C92.3402 108.983 93.2675 108.779 93.8669 108.107C94.2866 107.636 93.9229 106.912 93.4113 106.709Z" fill="#778890"/>
<path opacity="0.25" d="M99.7938 98.0281C99.7025 97.8486 99.5468 97.7102 99.3579 97.6405C99.1689 97.5709 98.9607 97.5751 98.7747 97.6524C98.6898 97.6931 98.6094 97.7426 98.5349 97.8003C97.7796 98.152 97.0762 99.0432 97.296 99.8745C97.304 100.061 97.3677 100.24 97.4788 100.39C97.59 100.539 97.7435 100.652 97.9195 100.714C98.1284 100.785 98.3551 100.784 98.5636 100.712C98.7721 100.639 98.9505 100.499 99.0705 100.314C99.3039 100.053 99.5126 99.7706 99.6939 99.4708C99.8452 99.2643 99.9348 99.0192 99.9525 98.7639C99.9702 98.5085 99.9152 98.2534 99.7938 98.0281Z" fill="#778890"/>
<path opacity="0.25" d="M102.044 103.024C101.981 102.885 101.875 102.772 101.741 102.7C101.608 102.627 101.455 102.601 101.305 102.624C100.633 102.744 100.273 103.531 100.074 104.091C99.8361 104.579 99.6409 105.087 99.4902 105.609C99.4575 105.668 99.4421 105.735 99.4457 105.802C99.4494 105.869 99.472 105.934 99.5108 105.988C99.5497 106.043 99.6033 106.086 99.6655 106.111C99.7276 106.137 99.7957 106.145 99.8618 106.133C100.164 106.157 100.465 106.078 100.717 105.909C100.998 105.675 101.237 105.395 101.424 105.082C101.792 104.55 102.316 103.695 102.044 103.024Z" fill="#778890"/>
<path opacity="0.25" d="M106.356 95.5861C106.378 95.3922 106.378 95.1965 106.356 95.0026C106.326 94.859 106.243 94.7322 106.122 94.6483C106.002 94.5643 105.854 94.5295 105.709 94.551C105.213 94.6524 104.767 94.9186 104.442 95.3063C104.298 95.5381 104.17 95.7739 104.042 96.0177C103.932 96.3178 103.898 96.6404 103.942 96.9569C103.928 97.1634 103.981 97.369 104.095 97.5422C104.208 97.7154 104.375 97.8467 104.57 97.9161C104.805 98.0029 105.064 97.9946 105.294 97.8932C105.523 97.7917 105.703 97.6049 105.797 97.3726C105.936 96.9868 106.101 96.6103 106.288 96.2455C106.359 96.0333 106.382 95.8082 106.356 95.5861Z" fill="#778890"/>
<path opacity="0.25" d="M111.22 80.9787C111.177 80.8867 111.11 80.8079 111.027 80.7503C110.943 80.6927 110.846 80.6584 110.744 80.651C110.4 80.6454 110.064 80.7559 109.79 80.9647C109.516 81.1735 109.32 81.4684 109.234 81.802C109.1 82.4591 109.057 83.1314 109.106 83.8002C109.066 84.9992 110.9 85.203 111.048 83.9881C111.108 83.5125 111.096 83.0329 111.136 82.5573C111.188 81.9978 111.428 81.5302 111.22 80.9787Z" fill="#778890"/>
<path opacity="0.25" d="M111.188 72.39C111.057 72.3774 110.924 72.3907 110.798 72.4293C110.672 72.4679 110.555 72.5309 110.454 72.6148C110.352 72.6987 110.268 72.8017 110.206 72.9181C110.144 73.0345 110.106 73.162 110.093 73.2932C110.08 73.4244 110.094 73.5568 110.132 73.6829C110.171 73.8089 110.234 73.9261 110.318 74.0278C110.402 74.1295 110.505 74.2136 110.621 74.2755C110.738 74.3373 110.865 74.3757 110.996 74.3883C111.127 74.4009 111.26 74.3875 111.386 74.3489C111.512 74.3103 111.629 74.2473 111.731 74.1634C111.833 74.0796 111.917 73.9765 111.979 73.8601C112.04 73.7437 112.079 73.6162 112.091 73.485C112.104 73.3538 112.091 73.2214 112.052 73.0954C112.013 72.9693 111.95 72.8521 111.867 72.7504C111.783 72.6487 111.68 72.5646 111.563 72.5027C111.447 72.4409 111.319 72.4026 111.188 72.39Z" fill="#778890"/>
<path opacity="0.25" d="M102.12 85.8105C102.025 85.7041 101.893 85.6376 101.75 85.6243C101.608 85.611 101.466 85.6518 101.353 85.7386C100.613 86.2741 100.681 87.2932 100.653 88.0926C100.646 88.3095 100.722 88.5211 100.865 88.6843C101.008 88.8475 101.208 88.9502 101.424 88.9715C101.64 88.9929 101.856 88.9313 102.028 88.7992C102.201 88.6672 102.316 88.4746 102.352 88.2604C102.48 87.4651 102.743 86.4819 102.12 85.8105Z" fill="#778890"/>
<path opacity="0.25" d="M104.406 69.7762C104.373 69.7127 104.327 69.6572 104.27 69.6134C104.214 69.5696 104.149 69.5387 104.079 69.5227C104.01 69.5067 103.937 69.5061 103.867 69.5209C103.798 69.5357 103.732 69.5655 103.675 69.6083C103.139 70.008 102.755 70.4916 102.999 71.167C103.038 71.2462 103.093 71.3158 103.162 71.3707C103.231 71.4256 103.311 71.4644 103.397 71.4843C103.483 71.5042 103.572 71.5047 103.658 71.4858C103.744 71.4669 103.825 71.4289 103.894 71.3748C104.314 70.9432 104.742 70.3757 104.406 69.7762Z" fill="#778890"/>
<path opacity="0.25" d="M77.9366 108.791C77.1772 108.463 76.338 109.058 75.6745 109.478C75.5724 109.473 75.471 109.498 75.3834 109.551C75.2958 109.603 75.2259 109.681 75.1829 109.774C74.7193 110.174 75.0471 111.113 75.7305 110.929C76.1564 110.802 76.5752 110.652 76.9854 110.481C77.3896 110.363 77.7817 110.206 78.1564 110.014C78.64 109.69 78.3802 108.995 77.9366 108.791Z" fill="#778890"/>
<path opacity="0.25" d="M79.2954 113.023C77.9885 113.211 78.3442 114.997 77.2971 115.421C77.1736 115.478 77.0751 115.578 77.02 115.702C76.9648 115.827 76.9568 115.967 76.9974 116.096C77.0381 116.226 77.1246 116.337 77.2408 116.407C77.357 116.478 77.495 116.504 77.6289 116.48C78.2454 116.384 78.8003 116.052 79.1755 115.553C79.3594 115.329 79.5152 115.081 79.6831 114.85C79.9269 114.522 80.2027 114.314 80.2546 113.886C80.2624 113.763 80.242 113.639 80.1951 113.524C80.1482 113.409 80.0759 113.306 79.9837 113.223C79.8914 113.14 79.7816 113.079 79.6624 113.044C79.5433 113.01 79.4178 113.002 79.2954 113.023Z" fill="#778890"/>
<path opacity="0.25" d="M47.4108 124.761C46.8698 124.977 46.409 125.356 46.0919 125.844C45.6243 126.432 46.3717 127.307 47.0591 126.975C47.6089 126.78 48.084 126.418 48.4179 125.94C48.5211 125.795 48.5729 125.619 48.565 125.441C48.5571 125.263 48.4899 125.093 48.3742 124.958C48.2585 124.822 48.1009 124.729 47.9263 124.694C47.7518 124.658 47.5703 124.682 47.4108 124.761Z" fill="#778890"/>
<path opacity="0.25" d="M49.3171 119.434C48.7576 119.661 47.7185 120.289 48.27 121.004C48.306 121.056 48.342 121.104 48.3819 121.152C48.5179 121.306 48.6985 121.413 48.8984 121.459C49.0984 121.505 49.3077 121.487 49.497 121.408C49.8639 121.267 50.1771 121.014 50.3922 120.685C50.9118 120.001 50.0965 119.098 49.3171 119.434Z" fill="#778890"/>
<path opacity="0.25" d="M53.2617 122.047C52.1267 122.423 52.0308 123.646 52.1267 124.613C52.2026 125.412 53.4895 125.524 53.7253 124.769C53.8018 124.349 54.0072 123.964 54.3128 123.666C55.1561 122.915 54.3128 121.704 53.2617 122.047Z" fill="#778890"/>
<path opacity="0.25" d="M51.0796 111.145C50.7239 110.793 50.1883 110.657 49.9965 110.186C49.7447 109.566 48.8935 109.706 48.6497 110.226C48.0702 111.448 49.5649 112.775 50.8118 112.268C50.9155 112.224 51.0074 112.157 51.0802 112.071C51.153 111.985 51.2045 111.884 51.2305 111.774C51.2566 111.665 51.2566 111.551 51.2303 111.441C51.2041 111.332 51.1525 111.23 51.0796 111.145Z" fill="#778890"/>
<path opacity="0.25" d="M59.8281 113.247C59.3685 112.643 58.7331 112.524 58.0017 112.52C57.8923 112.509 57.7818 112.52 57.6767 112.552C57.5716 112.585 57.4739 112.637 57.3891 112.707C57.3043 112.777 57.2341 112.863 57.1825 112.96C57.1309 113.057 57.099 113.163 57.0885 113.273C57.078 113.382 57.0891 113.493 57.1213 113.598C57.1535 113.703 57.2061 113.801 57.276 113.886C57.346 113.97 57.432 114.041 57.529 114.092C57.6261 114.144 57.7324 114.176 57.8418 114.186C58.2117 114.249 58.5754 114.344 58.9289 114.47C59.0888 114.522 59.261 114.522 59.4211 114.471C59.5811 114.419 59.7209 114.319 59.8205 114.183C59.9201 114.048 59.9745 113.885 59.9758 113.716C59.9772 113.548 59.9255 113.384 59.8281 113.247Z" fill="#778890"/>
<path opacity="0.25" d="M67.6934 113.403C67.5616 113.462 67.4369 113.535 67.3217 113.623C67.3937 113.567 67.4696 113.559 67.2938 113.583C67.142 113.607 67.0025 113.681 66.8971 113.793C66.7917 113.905 66.7264 114.048 66.7113 114.201C66.6962 114.354 66.7323 114.508 66.8138 114.638C66.8953 114.769 67.0177 114.868 67.1619 114.922C67.4195 115.035 67.7075 115.059 67.9803 114.99C68.2531 114.921 68.4953 114.763 68.6686 114.542C69.1762 113.958 68.3688 113.103 67.6934 113.403Z" fill="#778890"/>
<path opacity="0.25" d="M82.153 103.887C81.5775 103.843 81.1419 104.203 80.6183 104.343C80.0948 104.482 79.819 105.342 80.5024 105.542C81.2578 105.781 82.4168 105.49 82.6885 104.698C82.7163 104.609 82.7239 104.516 82.7109 104.423C82.6979 104.331 82.6645 104.243 82.6133 104.166C82.562 104.088 82.4941 104.023 82.4145 103.974C82.3349 103.926 82.2456 103.896 82.153 103.887Z" fill="#778890"/>
<path opacity="0.25" d="M88.4196 113.163C88.2397 112.508 87.5563 112.364 87.0088 112.727C86.8649 112.771 86.757 112.803 86.6571 112.843C86.8169 112.775 86.5052 112.843 86.4932 112.843C86.3705 112.859 86.249 112.883 86.1295 112.915C85.9569 112.945 85.7989 113.031 85.6798 113.159C85.5607 113.288 85.487 113.452 85.4702 113.626C85.4534 113.801 85.4944 113.976 85.5868 114.124C85.6792 114.273 85.8179 114.388 85.9817 114.45C86.4013 114.634 87.1247 114.814 87.5803 114.562C87.8161 114.44 88.0232 114.27 88.1878 114.062C88.2972 113.943 88.3756 113.798 88.416 113.642C88.4564 113.485 88.4576 113.32 88.4196 113.163Z" fill="#778890"/>
<path opacity="0.25" d="M89.5027 101.429C89.3828 101.465 89.3988 101.485 89.5027 101.429V101.429Z" fill="#778890"/>
<path opacity="0.25" d="M91.7968 101.537C91.7665 101.386 91.703 101.245 91.6109 101.122C91.5188 100.999 91.4005 100.898 91.2645 100.827C91.1286 100.756 90.9784 100.716 90.8251 100.71C90.6717 100.704 90.519 100.733 90.378 100.793C90.1715 100.898 89.9815 101.033 89.8145 101.193C89.7426 101.249 89.6746 101.309 89.5987 101.365C89.5687 101.388 89.5366 101.408 89.5028 101.425C89.5548 101.409 89.6084 101.398 89.6626 101.393C88.4636 101.557 88.4916 103.435 89.7386 103.463C89.9971 103.477 90.2554 103.433 90.4946 103.334C90.7338 103.235 90.948 103.084 91.1214 102.892C91.4651 102.536 91.8847 102.064 91.7968 101.537Z" fill="#778890"/>
<path opacity="0.25" d="M98.0993 106.517C98.0114 105.677 96.6526 105.55 96.4048 106.353C96.3406 106.572 96.3256 106.803 96.3608 107.028C96.4527 107.852 97.7636 107.975 98.0154 107.188C98.0952 106.974 98.1239 106.744 98.0993 106.517Z" fill="#778890"/>
<path opacity="0.25" d="M110.501 90.8101C110.332 90.6941 110.13 90.6354 109.925 90.6426C109.72 90.6498 109.522 90.7225 109.362 90.8501C109.098 91.1025 108.905 91.4205 108.804 91.7715C108.703 92.1226 108.697 92.4941 108.786 92.8483C108.813 93.0244 108.897 93.1865 109.026 93.3092C109.155 93.4318 109.321 93.5079 109.498 93.5253C109.675 93.5427 109.853 93.5006 110.004 93.4054C110.154 93.3103 110.269 93.1677 110.329 93.0002C110.541 92.6464 110.715 92.2714 110.848 91.8812C110.916 91.6892 110.919 91.4804 110.856 91.2868C110.793 91.0932 110.668 90.9257 110.501 90.8101Z" fill="#778890"/>
<path opacity="0.25" d="M105.469 61.875C105.329 61.855 105.186 61.8636 105.05 61.9002C104.913 61.9369 104.786 62.0008 104.674 62.0881C104.563 62.1754 104.471 62.2844 104.403 62.4084C104.335 62.5324 104.293 62.6689 104.279 62.8096C104.265 62.9503 104.28 63.0924 104.323 63.2272C104.365 63.362 104.435 63.4868 104.527 63.594C104.619 63.7013 104.732 63.7887 104.859 63.8512C104.986 63.9136 105.124 63.9497 105.265 63.9572C105.405 63.9772 105.548 63.9686 105.684 63.932C105.821 63.8953 105.949 63.8314 106.06 63.7441C106.171 63.6568 106.263 63.5478 106.331 63.4238C106.399 63.2998 106.441 63.1633 106.455 63.0226C106.469 62.8819 106.454 62.7398 106.411 62.605C106.369 62.4702 106.299 62.3454 106.207 62.2382C106.115 62.1309 106.002 62.0435 105.875 61.981C105.748 61.9186 105.61 61.8826 105.469 61.875Z" fill="#778890"/>
<path opacity="0.25" d="M76.4379 33.1716C75.9503 32.8279 75.3668 32.732 74.8393 32.4922C73.932 32.0925 73.2886 33.4034 74.0399 33.9469C74.3933 34.1768 74.7604 34.385 75.139 34.5704C75.5387 34.7822 75.8584 35.082 76.262 35.2738C76.4196 35.3318 76.5936 35.3263 76.7472 35.2584C76.9008 35.1906 77.0221 35.0657 77.0853 34.9101C77.3571 34.2906 76.9734 33.5713 76.4379 33.1716Z" fill="#778890"/>
<path opacity="0.25" d="M81.6814 37.8236C81.4553 37.7011 81.2185 37.5994 80.974 37.5198C80.7504 37.4166 80.5565 37.2585 80.4105 37.0602C80.1667 36.7845 79.7271 37.1322 79.9629 37.4159C80.1424 37.6269 80.2782 37.8714 80.3625 38.1353C80.4258 38.3902 80.5326 38.6322 80.6783 38.8507C81.1099 39.4022 81.5895 39.9178 82.3608 39.65C82.4549 39.6097 82.5366 39.5452 82.5977 39.4631C82.6588 39.3809 82.697 39.2841 82.7085 39.1824C82.8284 38.483 82.197 38.1673 81.6814 37.8236Z" fill="#778890"/>
<path opacity="0.25" d="M84.2872 41.3246C84.2041 41.3377 84.1268 41.3753 84.0652 41.4325C84.0035 41.4897 83.9603 41.564 83.941 41.6459C83.9217 41.7277 83.9272 41.8135 83.9568 41.8922C83.9865 41.971 84.0389 42.0391 84.1073 42.0879C84.5949 42.3357 84.6868 42.8872 85.3063 42.9512C85.4234 42.9623 85.5402 42.9265 85.6309 42.8515C85.7216 42.7766 85.7788 42.6687 85.7899 42.5515C85.8578 41.7922 85.0146 41.2926 84.2872 41.3246Z" fill="#778890"/>
<path opacity="0.25" d="M85.1305 34.3705C84.695 33.7202 84.2241 33.0945 83.7197 32.4961C83.2321 31.9126 82.5487 31.6169 82.0291 31.0893C81.8453 30.9055 81.5136 31.0893 81.6295 31.3291C81.8773 31.8727 81.9372 32.4362 82.197 32.9757C82.558 33.6565 82.9584 34.3157 83.396 34.95C83.8208 35.624 84.2013 36.3248 84.535 37.0482C84.8387 37.7037 84.9346 38.0514 85.6141 38.3711C85.7765 38.4294 85.9551 38.4228 86.1129 38.3529C86.2707 38.2829 86.3954 38.1549 86.4613 37.9954C87.0089 36.8764 85.7339 35.3177 85.1305 34.3705Z" fill="#778890"/>
<path opacity="0.25" d="M87.972 42.5355C87.94 42.4876 87.9001 42.4476 87.8641 42.4036C87.9063 42.1852 87.898 41.96 87.8398 41.7453C87.7817 41.5305 87.6751 41.3319 87.5284 41.1647C87.2366 40.765 86.853 40.3974 86.5252 40.0257C86.1975 39.654 85.7259 40.1096 86.0057 40.4253C86.3093 40.7365 86.5388 41.1122 86.6771 41.5244C86.7393 41.9642 86.9443 42.3715 87.2606 42.6834C87.3072 42.7187 87.3624 42.7408 87.4205 42.7473C87.4557 42.7905 87.493 42.8318 87.5324 42.8712C87.5723 42.9151 87.6249 42.9456 87.6828 42.9585C87.7408 42.9714 87.8013 42.966 87.8561 42.9432C87.9007 42.9245 87.9393 42.8941 87.968 42.8552C88.0036 42.8097 88.0233 42.7538 88.024 42.6961C88.0247 42.6383 88.0064 42.5819 87.972 42.5355Z" fill="#778890"/>
<path opacity="0.25" d="M79.2235 26.0177C79.3834 26.2255 79.3754 26.2215 79.2555 25.9657C79.2016 25.8297 79.1084 25.7128 78.9877 25.63C78.9199 25.5874 78.8475 25.5525 78.7719 25.5261C78.7633 25.4892 78.7567 25.4518 78.7519 25.4142C78.7391 25.359 78.7093 25.3093 78.6668 25.2718C78.6242 25.2344 78.5711 25.2112 78.5147 25.2055C78.4584 25.1998 78.4016 25.2118 78.3524 25.2399C78.3032 25.268 78.2641 25.3108 78.2404 25.3623L78.1485 25.5901C78.0196 25.6481 77.9164 25.7512 77.8582 25.88C77.8001 26.0088 77.791 26.1544 77.8327 26.2895C77.8246 26.3572 77.8246 26.4256 77.8327 26.4933C77.8507 26.614 77.896 26.729 77.9653 26.8294C78.0346 26.9299 78.126 27.0131 78.2324 27.0728C78.3773 27.1614 78.5484 27.1974 78.7168 27.1747C78.8851 27.152 79.0406 27.072 79.1569 26.9482C79.2732 26.8243 79.3433 26.6642 79.3555 26.4948C79.3676 26.3253 79.321 26.1568 79.2235 26.0177Z" fill="#778890"/>
<path opacity="0.25" d="M100.221 76.6783C100.08 76.6366 99.9334 76.6124 99.7858 76.6063C99.5738 76.5857 99.3623 76.6501 99.1978 76.7853C99.0333 76.9206 98.9292 77.1157 98.9086 77.3277C98.8879 77.5397 98.9523 77.7512 99.0876 77.9157C99.2229 78.0802 99.418 78.1843 99.63 78.2049C99.7758 78.2249 99.9237 78.2249 100.07 78.2049C100.239 78.173 100.394 78.087 100.511 77.9596C100.628 77.8322 100.7 77.6705 100.717 77.4985C100.735 77.3265 100.695 77.1537 100.606 77.0058C100.517 76.8579 100.382 76.743 100.221 76.6783Z" fill="#778890"/>
<path opacity="0.25" d="M90.9894 87.553C90.8937 87.4144 90.7662 87.3007 90.6177 87.2213C90.477 87.1368 90.314 87.0967 90.1501 87.1059C89.9862 87.1152 89.8289 87.1735 89.6985 87.2732H89.6386C89.5704 87.3024 89.5103 87.3477 89.4635 87.4052C89.4166 87.4626 89.3843 87.5306 89.3694 87.6032C89.3545 87.6759 89.3573 87.751 89.3778 87.8223C89.3982 87.8936 89.4356 87.9589 89.4867 88.0126C89.5106 88.0988 89.5544 88.1782 89.6146 88.2444C89.6865 88.3163 89.7425 88.3883 89.8184 88.4602C90.5218 89.1236 91.5769 88.3243 90.9894 87.553Z" fill="#778890"/>
</g>
<path d="M48.1942 94.655C49.0854 91.4937 52.0069 83.6924 56.6469 82.8291C57.8099 82.6173 68.4928 84.5077 67.8893 85.9344C66.6144 88.9558 66.6583 100.294 64.3923 101.413C61.5227 102.828 51.6032 98.2159 49.0934 96.6612L48.1942 94.655Z" fill="#D9603E"/>
<path d="M78.676 67.5101C78.8679 72.4658 80.4745 77.2697 80.1348 82.2974C84.0954 81.4501 88.028 79.1521 92.3363 79.7156C93.4274 75.6071 91.2812 66.2472 87.8841 63.9531L78.676 67.5101Z" fill="#778890"/>
<path d="M85.654 80.3312C85.6337 80.047 85.5392 79.7731 85.38 79.5368C85.2208 79.3005 85.0025 79.11 84.7468 78.9843C84.6633 78.9476 84.5698 78.9405 84.4817 78.9642C84.3936 78.988 84.3163 79.0412 84.2627 79.1149C84.209 79.1887 84.1821 79.2786 84.1866 79.3697C84.1911 79.4608 84.2266 79.5476 84.2872 79.6158C84.4351 79.7357 84.1553 80.559 84.1274 80.7668C84.0594 81.2744 84.0115 81.8818 84.4071 82.2855C84.481 82.3694 84.575 82.4333 84.6802 82.4712C84.7855 82.5091 84.8986 82.5197 85.009 82.5022C85.1195 82.4847 85.2237 82.4395 85.312 82.3708C85.4003 82.3022 85.4699 82.2124 85.5142 82.1097C85.6569 81.5283 85.7042 80.9277 85.654 80.3312Z" fill="#303030"/>
<path d="M87.7842 79.2442C87.6843 78.9285 87.1687 79.0923 87.2247 79.4001C87.3006 79.7997 87.3566 80.2274 87.4365 80.639C87.5164 81.0507 87.4765 81.5023 87.7682 81.81C87.819 81.8634 87.8873 81.8968 87.9606 81.9042C88.034 81.9115 88.1075 81.8923 88.1679 81.85C88.9113 81.2465 88 79.9076 87.7842 79.2442Z" fill="#303030"/>
<path d="M91.9805 68.3734C91.2652 67.7939 90.0742 68.4213 89.4467 68.833C89.111 69.0528 89.4467 69.5244 89.8104 69.3925C90.1288 69.266 90.456 69.1631 90.7896 69.0848C91.1892 69.0008 91.5889 69.1088 91.9286 68.9129C91.9789 68.8904 92.0223 68.855 92.0544 68.8103C92.0866 68.7655 92.1063 68.7131 92.1115 68.6583C92.1168 68.6034 92.1075 68.5482 92.0845 68.4982C92.0615 68.4481 92.0256 68.4051 91.9805 68.3734Z" fill="#303030"/>
<path d="M92.3922 70.9232C92.0684 70.6994 91.6888 70.9712 91.405 71.139C91.0501 71.3345 90.7441 71.6078 90.5098 71.9383C90.294 72.2581 90.7776 72.5898 91.0173 72.282C91.2699 72.0022 91.5848 71.7859 91.9366 71.6506C92.2043 71.5267 92.4401 71.4667 92.4961 71.163C92.5038 71.1173 92.4981 71.0703 92.4797 71.0277C92.4612 70.9851 92.4308 70.9488 92.3922 70.9232Z" fill="#303030"/>
<path d="M83.6158 64.7845C83.5039 64.4368 83.4119 64.0811 83.2841 63.7373C83.0962 63.2338 82.4128 63.3737 82.221 63.7693C82.1402 63.9638 82.0986 64.1722 82.0986 64.3828C82.0986 64.5934 82.1402 64.8018 82.221 64.9963C82.3608 65.4159 82.4128 65.7956 82.8524 65.9954C82.9497 66.0308 83.0545 66.0406 83.1567 66.0238C83.2589 66.007 83.3551 65.9642 83.4359 65.8995C83.8516 65.6117 83.7477 65.1801 83.6158 64.7845Z" fill="#303030"/>
<path d="M80.5304 71.9384C79.895 71.4788 79.0197 71.8265 78.3003 71.7745C78.2696 71.7687 78.238 71.7693 78.2076 71.7764C78.1771 71.7834 78.1485 71.7968 78.1235 71.8156C78.0986 71.8345 78.0778 71.8583 78.0626 71.8856C78.0475 71.9129 78.0382 71.9431 78.0354 71.9743C78.0326 72.0054 78.0363 72.0368 78.0464 72.0664C78.0564 72.096 78.0726 72.1231 78.0938 72.1461C78.115 72.1691 78.1407 72.1874 78.1694 72.1998C78.1981 72.2122 78.2291 72.2184 78.2604 72.2182C78.9717 72.3021 79.7671 72.8136 80.4785 72.4819C80.5296 72.4598 80.5739 72.4243 80.6067 72.3792C80.6395 72.3341 80.6596 72.281 80.665 72.2255C80.6703 72.17 80.6606 72.1141 80.6369 72.0636C80.6132 72.0131 80.5765 71.9698 80.5304 71.9384Z" fill="#303030"/>
<path d="M81.4456 74.9958C81.1219 74.5242 80.3865 74.7919 79.9589 74.9558C79.4164 75.198 78.9063 75.5067 78.4402 75.875C78.2284 76.0189 78.4402 76.3226 78.676 76.2387C79.1746 76.0438 79.6828 75.8744 80.1987 75.7311C80.6303 75.6152 81.1578 75.7072 81.4576 75.3315C81.4899 75.2809 81.506 75.2217 81.5039 75.1618C81.5017 75.1018 81.4814 75.0439 81.4456 74.9958Z" fill="#303030"/>
<path d="M60.1239 81.9298C59.7012 82.9306 59.4577 83.998 59.4045 85.0831C59.3927 85.2066 59.4147 85.331 59.4682 85.443C59.5218 85.5549 59.6047 85.6502 59.7083 85.7185C59.8116 85.787 59.9301 85.8291 60.0535 85.8409C60.1768 85.8527 60.3012 85.8341 60.4157 85.7865C60.5314 85.7402 60.632 85.6626 60.7061 85.5623C60.7802 85.4621 60.8249 85.3432 60.8353 85.219C60.9392 84.1998 61.0751 83.1887 61.199 82.1696C61.2749 81.5301 60.3757 81.3943 60.1239 81.9298Z" fill="#303030"/>
<path d="M62.9015 83.4964C62.8739 83.4417 62.8329 83.3948 62.7824 83.3602C62.7318 83.3255 62.6733 83.3042 62.6123 83.2982C62.5513 83.2923 62.4898 83.3018 62.4334 83.326C62.3771 83.3501 62.3278 83.3882 62.2901 83.4365C61.6946 84.3517 61.8904 85.6426 61.7425 86.6737C61.7408 86.7334 61.756 86.7923 61.7864 86.8436C61.8168 86.895 61.8612 86.9367 61.9143 86.9639C61.9674 86.9911 62.0272 87.0026 62.0866 86.9973C62.146 86.9919 62.2027 86.9698 62.2501 86.9335C63.2253 86.1701 63.3731 84.5755 62.9015 83.4964Z" fill="#303030"/>
<path d="M52.3186 88.7799C52.1547 88.4042 51.4953 88.3443 51.1516 88.1604C50.7033 87.9051 50.2697 87.6249 49.8527 87.3212C49.6329 87.1693 49.3172 87.477 49.525 87.6649C49.9461 88.0809 50.405 88.4569 50.8958 88.7879C51.2635 89.0157 51.9549 89.3994 52.2986 88.9797C52.3186 88.9508 52.3309 88.9173 52.3344 88.8824C52.3378 88.8475 52.3324 88.8122 52.3186 88.7799Z" fill="#303030"/>
<path d="M51.2595 85.8784C50.9637 85.8345 50.9238 86.2781 51.2155 86.322C51.839 86.422 52.1307 87.2333 52.5703 87.589C52.6113 87.6165 52.6585 87.6332 52.7076 87.6376C52.7568 87.6419 52.8062 87.6337 52.8513 87.6137C52.8964 87.5938 52.9357 87.5627 52.9656 87.5234C52.9954 87.4841 53.0148 87.4379 53.022 87.3891C53.0819 86.4899 52.0348 86.0023 51.2595 85.8784Z" fill="#303030"/>
<path d="M52.2426 96.2536C52.022 96.2698 51.8096 96.3437 51.6265 96.4678C51.4435 96.592 51.2962 96.762 51.1995 96.961C51.0926 97.1503 51.0119 97.3533 50.9597 97.5644C50.9318 97.7857 50.874 98.0022 50.7879 98.2079C50.64 98.4517 51.0157 98.7114 51.1875 98.4637C51.3463 98.237 51.5227 98.0232 51.7151 97.8242C51.827 97.6923 51.9349 97.5524 52.0588 97.4246C52.1827 97.2967 52.3825 97.1968 52.5224 97.0569C52.7582 96.8171 52.7062 96.2496 52.2426 96.2536Z" fill="#303030"/>
<path d="M53.4497 97.3006C52.9061 97.4046 52.7063 97.8482 52.5584 98.3198C52.4216 98.7279 52.324 99.1481 52.2667 99.5747C52.2427 99.8385 52.6384 99.8664 52.6663 99.6147C52.7942 98.9033 53.4656 98.5236 53.8653 97.9761C53.9102 97.9064 53.9345 97.8254 53.9354 97.7425C53.9363 97.6595 53.9137 97.5781 53.8702 97.5074C53.8268 97.4368 53.7642 97.3799 53.6898 97.3433C53.6154 97.3067 53.5321 97.2919 53.4497 97.3006Z" fill="#303030"/>
<path d="M60.04 99.7145C59.997 99.6673 59.9379 99.6378 59.8743 99.6318C59.8107 99.6259 59.7472 99.644 59.6963 99.6826C59.1807 99.9983 59.0448 100.662 58.897 101.205C58.7606 101.777 58.7456 102.37 58.853 102.948C58.897 103.248 59.3366 103.164 59.3206 102.876C59.2766 101.913 60.9432 100.674 60.04 99.7145Z" fill="#303030"/>
<path d="M64.9477 96.1577C64.9011 96.1238 64.8429 96.1098 64.7859 96.1188C64.729 96.1277 64.6779 96.159 64.644 96.2056C64.6101 96.2523 64.5961 96.3105 64.6051 96.3674C64.6141 96.4244 64.6453 96.4755 64.692 96.5094C65.0031 96.7204 65.3587 96.8572 65.7311 96.909C66.1947 97.009 66.5823 97.2527 67.034 97.3527C67.1339 97.3766 67.2098 97.2687 67.1978 97.1848C67.0619 96.2296 65.5752 96.5573 64.9477 96.1577Z" fill="#303030"/>
<path d="M68.081 94.7189C67.7124 94.5062 67.3046 94.3703 66.8821 94.3192C66.3671 94.1974 65.87 94.0093 65.4033 93.7597C65.1436 93.6119 64.8678 93.9795 65.1316 94.1314C65.5696 94.3802 66.0349 94.5774 66.5184 94.7189C66.9875 94.9045 67.482 95.0177 67.9851 95.0546C68.185 95.0266 68.189 94.7948 68.081 94.7189Z" fill="#303030"/>
<path d="M68.4527 88.7959C68.4054 88.6913 68.3305 88.6016 68.2362 88.5361C68.142 88.4707 68.0317 88.432 67.9172 88.4242C66.8021 88.3762 65.5552 88.4242 64.7599 89.2635C64.588 89.4433 64.7799 89.7271 64.9957 89.7511C65.9269 89.871 66.8541 89.6072 67.7933 89.6751C67.9067 89.6885 68.0216 89.6716 68.1262 89.6259C68.2309 89.5803 68.3215 89.5076 68.3888 89.4153C68.4552 89.3278 68.4962 89.2238 68.5075 89.1146C68.5188 89.0053 68.4998 88.8951 68.4527 88.7959Z" fill="#303030"/>
<rect x="5.5" y="1.5" width="137" height="137" stroke="#D8E1E5" stroke-width="3"/>
</g>
<defs>
<filter id="filter0_d" x="0" y="0" width="148" height="148" filterUnits="userSpaceOnUse" color-interpolation-filters="sRGB">
<feFlood flood-opacity="0" result="BackgroundImageFix"/>
<feColorMatrix in="SourceAlpha" type="matrix" values="0 0 0 0 0 0 0 0 0 0 0 0 0 0 0 0 0 0 127 0"/>
<feOffset dy="4"/>
<feGaussianBlur stdDeviation="2"/>
<feColorMatrix type="matrix" values="0 0 0 0 0 0 0 0 0 0 0 0 0 0 0 0 0 0 0.25 0"/>
<feBlend mode="normal" in2="BackgroundImageFix" result="effect1_dropShadow"/>
<feBlend mode="normal" in="SourceGraphic" in2="effect1_dropShadow" result="shape"/>
</filter>
</defs>
</svg>
