<svg width="148" height="148" viewBox="0 0 148 148" fill="none" xmlns="http://www.w3.org/2000/svg">
<g filter="url(#filter0_d)">
<g clip-path="url(#clip0)">
<mask id="mask0" mask-type="alpha" maskUnits="userSpaceOnUse" x="4" y="0" width="141" height="140">
<rect x="4" width="140.154" height="139.557" fill="#C4C4C4"/>
</mask>
<g mask="url(#mask0)">
<path d="M144.274 0H4V139.279H144.274V0Z" fill="#A8B3B2"/>
<path d="M45.017 12.1308C44.5124 9.74522 43.5754 7.05745 41.449 5.62609C40.3038 4.83089 39.0464 4.80704 37.733 4.70764L37.4366 4.68378C35.6347 4.5327 33.6845 4.57643 32.0307 5.37561C28.4868 7.09323 26.0762 11.3396 24.8629 14.8862C23.5654 18.6713 23.8377 22.8381 27.0252 25.5657C30.433 28.4681 34.6336 26.4006 37.1603 23.5777C37.7597 22.9111 38.2959 22.191 38.7621 21.4267C38.8983 27.168 37.6128 32.7065 33.232 36.7143C32.2981 37.3993 31.3083 38.0058 30.2728 38.5274C29.3161 39.0682 28.2252 39.3301 27.1253 39.2828C26.8066 39.2051 26.4956 39.0986 26.1963 38.9648L25.6237 38.6268C25.5785 38.57 25.5304 38.5156 25.4795 38.4638C25.9921 36.9966 23.8017 35.6806 22.7486 37.1278C21.6393 38.6745 22.5243 40.1138 23.8658 41.1356C24.7189 41.7453 25.7085 42.1398 26.7493 42.2853C27.7901 42.4307 28.8509 42.3227 29.8403 41.9706C30.2808 41.8314 30.7053 41.6605 31.1257 41.4855C40.0795 38.3922 45.065 28.7624 45.5415 19.7687C45.692 17.2109 45.5158 14.6446 45.017 12.1308ZM33.8367 22.6274C31.1778 25.0886 27.8301 23.4465 27.2455 20.1066C26.8851 17.9914 27.8942 15.5541 28.7712 13.6854C29.8483 11.3992 31.37 8.95797 33.5764 7.59818C34.0828 7.27258 34.6445 7.04087 35.2342 6.91431C35.5218 6.838 35.8176 6.79662 36.1152 6.79106C36.8829 6.88781 37.6176 7.16 38.2616 7.58625C42.6984 10.6239 36.4676 20.1901 33.8367 22.6274ZM41.8735 26.4444C40.8724 29.5218 38.2696 33.7164 38.1374 34.0544C37.9705 34.3469 37.7629 34.6146 37.5207 34.8496C37.4252 34.9989 37.2946 35.123 37.1403 35.2114C37.2925 35.0643 37.3526 34.8456 37.5007 34.6945C37.6497 34.5381 37.7643 34.3526 37.8371 34.1498C38.0453 33.6648 38.2375 33.1757 38.4418 32.6867C38.8449 31.6794 39.2253 30.6655 39.583 29.645C40.4434 27.305 41.088 24.8923 41.5091 22.4366C41.9536 19.5261 42.31 18.2737 42.0938 14.2301C42.0097 12.4767 42.1338 10.3058 41.8695 8.5882C42.302 11.8962 43.243 15.1685 43.243 18.5123C43.1836 21.209 42.7221 23.882 41.8735 26.4444Z" fill="white"/>
<path d="M154.429 124.667C154.361 124.146 154.289 123.621 154.221 123.105C154.153 122.588 154.048 122.027 153.964 121.49C153.8 120.405 153.564 119.375 153.364 118.329C152.903 116.254 152.363 114.226 151.726 112.258C150.49 108.443 148.787 104.792 146.656 101.388C142.903 95.3966 137.644 90.4788 131.396 87.1179C128.832 85.7356 126.141 84.6012 123.359 83.7303C122.774 83.5435 122.202 83.3725 121.633 83.2095C121.785 83.1141 121.937 83.0226 122.089 82.9192C123.922 81.729 125.539 80.2396 126.871 78.5139C127.234 78.0394 127.561 77.5383 127.848 77.0149C127.996 76.7485 128.152 76.4901 128.284 76.2197L128.829 74.9275L128.977 74.4345L129.253 73.4286C129.337 73.0986 129.341 72.9037 129.389 72.6334L129.502 71.862L129.586 69.1027C129.586 69.1027 129.389 67.0352 129.329 66.4388C129.197 65.8503 129.065 65.246 128.929 64.6575C128.325 62.2429 127.228 59.9774 125.705 58.0017C125.344 57.4932 124.943 57.0145 124.504 56.5704C124.097 56.0947 123.654 55.6508 123.179 55.2424L121.729 54.0257L120.195 52.9641C118.117 51.6158 115.886 50.5148 113.548 49.684C111.228 48.8404 108.848 48.1666 106.428 47.6681C105.227 47.4614 103.962 47.2149 102.768 47.0439L100.041 46.6821L99.1082 46.6026C94.1112 46.1461 89.0747 46.8119 84.3721 48.5508C79.723 50.2963 75.5304 53.322 72.7994 57.3775C71.4477 59.3661 70.4608 61.5763 69.8842 63.9061C69.3361 66.1395 69.1376 68.4434 69.2955 70.7368C69.2955 71.2935 69.4037 71.8739 69.4597 72.4346C69.5158 72.9952 69.6279 73.4564 69.708 73.9693C69.9076 75.037 70.1833 76.0893 70.5329 77.1183C71.1951 79.125 72.1928 81.0068 73.4841 82.6847C74.1414 83.5271 74.8775 84.3059 75.6825 85.0106C74.8817 85.3168 74.0608 85.6428 73.2359 86.0046C70.1966 87.3439 67.298 88.978 64.5824 90.8832C58.2609 95.3851 53.1912 101.404 49.8462 108.377C49.3577 109.296 48.9893 110.27 48.5528 111.228C48.1163 112.187 47.792 113.196 47.4196 114.198C47.2554 114.703 46.5426 116.942 46.5426 116.942L46.4465 117.32C46.1902 118.345 45.8899 119.288 45.6937 120.453C45.5896 121.013 45.4814 121.574 45.3733 122.138C45.2652 122.703 45.2292 123.252 45.1571 123.812C44.9889 124.926 44.9368 126.059 44.8768 127.2C44.8167 128.341 44.8768 129.486 44.8528 130.639C44.9328 131.788 44.9729 132.953 45.1211 134.11C45.6679 138.845 46.9301 143.47 48.8652 147.831C50.8549 152.342 53.5036 156.537 56.7258 160.28C58.3603 162.193 60.1322 163.985 62.0276 165.644C67.8683 170.692 74.7577 174.401 82.2057 176.506C87.1986 177.946 92.3712 178.68 97.5705 178.685C98.872 178.645 100.145 178.685 101.471 178.574C102.712 178.486 103.909 178.438 105.235 178.271L107.181 178.057C107.826 177.973 108.454 177.866 109.087 177.77C110.361 177.595 111.618 177.333 112.875 177.075C117.905 176.025 122.781 174.353 127.391 172.097C129.682 170.971 131.887 169.682 133.99 168.24C135.056 167.548 136.049 166.753 137.058 165.986C138.067 165.218 139.008 164.395 139.901 163.493C143.541 160.095 146.627 156.155 149.047 151.815C151.396 147.617 153.065 143.078 153.992 138.364C154.852 133.849 154.999 129.228 154.429 124.667Z" fill="white"/>
<path d="M154.429 124.667C154.361 124.146 154.289 123.621 154.221 123.105C154.153 122.588 154.048 122.027 153.964 121.49C153.8 120.405 153.564 119.375 153.364 118.329C152.903 116.254 152.363 114.226 151.726 112.258C150.49 108.443 148.787 104.792 146.656 101.388C142.903 95.3966 137.644 90.4788 131.396 87.1179C128.832 85.7356 126.141 84.6012 123.359 83.7303C122.774 83.5435 122.202 83.3725 121.633 83.2095C121.785 83.1141 121.937 83.0226 122.089 82.9192C123.922 81.729 125.539 80.2396 126.871 78.5139C127.234 78.0394 127.561 77.5383 127.848 77.0149C127.996 76.7485 128.152 76.4901 128.284 76.2197L128.829 74.9275L128.977 74.4345L129.253 73.4286C129.337 73.0986 129.341 72.9037 129.389 72.6334L129.502 71.862L129.586 69.1027C129.586 69.1027 129.389 67.0352 129.329 66.4388C129.197 65.8503 129.065 65.246 128.929 64.6575C128.325 62.2429 127.228 59.9774 125.705 58.0017C125.344 57.4932 124.943 57.0145 124.504 56.5704C124.097 56.0947 123.654 55.6508 123.179 55.2424L121.729 54.0257L120.195 52.9641C118.117 51.6158 115.886 50.5148 113.548 49.684C111.228 48.8404 108.848 48.1666 106.428 47.6681C105.227 47.4614 103.962 47.2149 102.768 47.0439L100.041 46.6821L99.1082 46.6026C94.1112 46.1461 89.0747 46.8119 84.3721 48.5508C79.723 50.2963 75.5304 53.322 72.7994 57.3775C71.4477 59.3661 70.4608 61.5763 69.8842 63.9061C69.3361 66.1395 69.1376 68.4434 69.2955 70.7368C69.2955 71.2935 69.4037 71.8739 69.4597 72.4346C69.5158 72.9952 69.6279 73.4564 69.708 73.9693C69.9076 75.037 70.1833 76.0893 70.5329 77.1183C71.1951 79.125 72.1928 81.0068 73.4841 82.6847C74.1414 83.5271 74.8775 84.3059 75.6825 85.0106C74.8817 85.3168 74.0608 85.6428 73.2359 86.0046C70.1966 87.3439 67.298 88.978 64.5824 90.8832C58.2609 95.3851 53.1912 101.404 49.8462 108.377C49.3577 109.296 48.9893 110.27 48.5528 111.228C48.1163 112.187 47.792 113.196 47.4196 114.198C47.2554 114.703 46.5426 116.942 46.5426 116.942L46.4465 117.32C46.1902 118.345 45.8899 119.288 45.6937 120.453C45.5896 121.013 45.4814 121.574 45.3733 122.138C45.2652 122.703 45.2292 123.252 45.1571 123.812C44.9889 124.926 44.9368 126.059 44.8768 127.2C44.8167 128.341 44.8768 129.486 44.8528 130.639C44.9328 131.788 44.9729 132.953 45.1211 134.11C45.6679 138.845 46.9301 143.47 48.8652 147.831C50.8549 152.342 53.5036 156.537 56.7258 160.28C58.3603 162.193 60.1322 163.985 62.0276 165.644C67.8683 170.692 74.7577 174.401 82.2057 176.506C87.1986 177.946 92.3712 178.68 97.5705 178.685C98.872 178.645 100.145 178.685 101.471 178.574C102.712 178.486 103.909 178.438 105.235 178.271L107.181 178.057C107.826 177.973 108.454 177.866 109.087 177.77C110.361 177.595 111.618 177.333 112.875 177.075C117.905 176.025 122.781 174.353 127.391 172.097C129.682 170.971 131.887 169.682 133.99 168.24C135.056 167.548 136.049 166.753 137.058 165.986C138.067 165.218 139.008 164.395 139.901 163.493C143.541 160.095 146.627 156.155 149.047 151.815C151.396 147.617 153.065 143.078 153.992 138.364C154.852 133.849 154.999 129.228 154.429 124.667ZM138.748 132.575C137.993 136.469 136.664 140.231 134.803 143.74C130.976 150.902 125.086 156.77 117.885 160.594C114.272 162.515 110.416 163.946 106.42 164.848C105.419 165.071 104.418 165.298 103.397 165.449C102.888 165.532 102.376 165.628 101.875 165.699L100.366 165.878C99.3885 166.021 98.2833 166.073 97.2181 166.153C96.2331 166.252 95.1839 166.208 94.1668 166.244C90.075 166.258 86.0037 165.67 82.0856 164.499C80.1294 163.92 78.2205 163.194 76.3753 162.328C74.5324 161.442 72.7577 160.423 71.0655 159.278C69.3678 158.131 67.7552 156.865 66.2402 155.489C64.7493 154.089 63.3541 152.592 62.0636 151.008C56.8964 144.698 53.6252 137.069 52.6253 128.997C52.1474 125.184 52.2243 121.322 52.8535 117.53C52.9576 116.656 53.2299 115.654 53.4302 114.715C53.4302 114.715 53.5263 114.27 53.5303 114.246C53.5343 114.222 54.0188 112.517 54.1469 112.071C54.4273 111.196 54.7036 110.326 55.0119 109.479C55.3202 108.632 55.6246 107.793 56.005 106.994C57.3223 103.88 59.0252 100.942 61.0745 98.2467C62.9351 95.8266 65.0776 93.6339 67.4575 91.7141C69.5886 90.0095 71.8866 88.5217 74.317 87.273C75.4463 86.6805 76.5555 86.1756 77.6487 85.7144C78.255 84.9118 78.9976 84.2202 79.8431 83.6707C79.8431 83.46 79.8431 83.2532 79.8711 83.0425C79.9075 82.5534 79.9838 82.0681 80.0994 81.5913C78.6001 80.8655 77.2785 79.8234 76.2271 78.5377C75.281 77.3566 74.5332 76.0314 74.0127 74.6134C73.7184 73.835 73.4762 73.038 73.2879 72.2278C73.1998 71.7865 73.0557 71.2776 73.0076 70.88C72.9596 70.4824 72.8514 70.0569 72.8154 69.6076C72.415 66.0929 72.9155 62.2083 74.8456 58.8725C75.7952 57.1832 77.0337 55.671 78.5056 54.4035C80.0096 53.1272 81.6949 52.0782 83.5071 51.2903C87.2245 49.7223 91.2857 49.1307 95.3 49.5726L96.0529 49.6521L98.3554 50.014C99.3885 50.173 100.358 50.4513 101.347 50.666C103.311 51.1719 105.225 51.8546 107.065 52.7057C110.705 54.3597 113.904 56.8924 115.791 60.0732C116.723 61.6238 117.342 63.3405 117.612 65.1267C117.673 65.5641 117.733 66.0014 117.789 66.4348C117.789 67.7469 118.145 69.2935 117.869 70.5738C117.29 73.1682 115.955 75.5358 114.029 77.3807C113.084 78.2524 112.067 79.0438 110.989 79.7464C110.589 80.0048 109.892 80.2712 109.712 80.6967C109.64 80.8676 109.772 82.5932 109.908 82.6648C110.26 82.8477 110.613 83.0266 110.973 83.1896C111.227 83.3137 111.463 83.4715 111.674 83.6588L111.778 83.6071C113.019 83.953 114.313 84.3665 115.662 84.8834C117.9 85.7267 120.047 86.7924 122.069 88.0642C127.002 91.1968 131.026 95.5537 133.742 100.704C136.834 106.417 138.716 113.467 139.372 121.156C139.713 124.973 139.502 128.818 138.748 132.575Z" fill="#DFF0FB"/>
<path d="M64.0658 52.0299L63.8856 52.3043C63.6709 52.6224 63.4196 52.9146 63.1368 53.175C62.7064 53.5912 62.2047 53.9278 61.6552 54.169C60.952 54.4803 60.1943 54.6519 59.4247 54.6739C58.5401 54.6975 57.6585 54.5628 56.8219 54.2763C55.8957 53.9566 55.0549 53.4318 54.3632 52.7416C53.5958 51.9955 53.1276 50.9979 53.0457 49.9346C53.0073 49.4073 53.074 48.8776 53.242 48.376C53.4017 47.8863 53.631 47.4218 53.9227 46.9963C54.2158 46.585 54.5603 46.2123 54.9478 45.887C55.3516 45.5774 55.7997 45.3295 56.2773 45.1514C57.1916 44.8225 58.1705 44.7095 59.1364 44.8214C60.0285 44.9147 60.8994 45.151 61.7152 45.5212C62.4708 45.8596 63.1513 46.3434 63.7174 46.9446C64.2264 47.4905 64.5754 48.1642 64.7265 48.8929C64.8381 49.4707 64.8162 50.0661 64.6625 50.6343C64.5695 50.9931 64.4351 51.3399 64.262 51.6681L64.0818 52.01L64.0658 52.0299Z" fill="white"/>
<path d="M64.0658 52.0299L63.8856 52.3043C63.6709 52.6224 63.4196 52.9146 63.1368 53.175C62.7064 53.5912 62.2047 53.9278 61.6552 54.169C60.952 54.4803 60.1943 54.6519 59.4247 54.6739C58.5401 54.6975 57.6585 54.5628 56.8219 54.2763C55.8957 53.9566 55.0549 53.4318 54.3632 52.7416C53.5958 51.9955 53.1276 50.9979 53.0457 49.9346C53.0073 49.4073 53.074 48.8776 53.242 48.376C53.4017 47.8863 53.631 47.4218 53.9227 46.9963C54.2158 46.585 54.5603 46.2123 54.9478 45.887C55.3516 45.5774 55.7997 45.3295 56.2773 45.1514C57.1916 44.8225 58.1705 44.7095 59.1364 44.8214C60.0285 44.9147 60.8994 45.151 61.7152 45.5212C62.4708 45.8596 63.1513 46.3434 63.7174 46.9446C64.2264 47.4905 64.5754 48.1642 64.7265 48.8929C64.8381 49.4707 64.8162 50.0661 64.6625 50.6343C64.5695 50.9931 64.4351 51.3399 64.262 51.6681L64.0818 52.01L64.0658 52.0299ZM62.4641 50.9922L62.6122 50.7695C62.7548 50.5714 62.8718 50.3563 62.9606 50.1294C63.1035 49.7956 63.1679 49.4339 63.1488 49.0718C63.1296 48.573 62.9701 48.0895 62.6883 47.6762C62.3166 47.1262 61.8218 46.669 61.2427 46.3403C60.5703 45.946 59.8207 45.6993 59.0443 45.6166C58.2223 45.5134 57.3874 45.6244 56.6217 45.9387C56.25 46.1024 55.9077 46.3253 55.6086 46.5987C55.3088 46.8759 55.0619 47.2046 54.8798 47.5688C54.5053 48.2319 54.3644 49.0001 54.4793 49.7517C54.633 50.432 55.0281 51.0346 55.5925 51.4494C56.1428 51.8686 56.7759 52.168 57.4506 52.3281C58.0496 52.4925 58.6735 52.5491 59.2926 52.4951C59.7913 52.4633 60.2832 52.3629 60.7542 52.1969C61.1081 52.0777 61.4407 51.9032 61.7393 51.68C61.8464 51.6067 61.9469 51.5242 62.0396 51.4335L62.1517 51.3381L62.2638 51.2029L62.4761 50.9524L62.4641 50.9922Z" fill="#DFF0FB"/>
<path d="M70.629 66.9041C71.3898 66.5542 71.8503 65.6477 72.7353 64.9161C76.3375 62.1387 80.4731 60.1214 84.8886 58.9879C89.5737 57.8786 94.4751 56.5426 99.3044 56.0735C104.01 55.6123 109.239 55.5129 113.72 57.1072C116.14 57.9521 118.446 59.0884 120.588 60.4908C122.374 61.6836 124.488 65.0751 126.891 64.8644C128.268 64.7491 129.534 63.3575 129.802 62.0613C130.142 60.4033 129.033 59.8705 128 58.8805C125.698 56.6886 123.048 54.8898 120.155 53.5567C114.549 50.8331 108.282 50.5667 102.099 50.3202C95.4453 50.1002 88.8039 51.0423 82.478 53.1034C79.2464 54.1729 75.9668 55.5327 73.3039 57.6917C72.0025 58.7453 70.7451 60.0534 70.1004 61.62C69.6159 62.773 68.831 65.7232 69.0393 66.8921C69.2894 67.0018 69.5595 67.0594 69.8329 67.0615C70.1063 67.0635 70.3772 67.01 70.629 66.9041Z" fill="#C6D9DE"/>
<path d="M123.631 37.8515C118.165 29.5575 110.781 19.1643 100.041 17.0133C88.5967 14.7311 75.7426 21.7845 68.4626 29.9512C64.6104 34.281 58.6639 39.8911 59.4728 46.1891C59.673 47.7318 67.1252 43.056 67.6337 42.7976C70.1365 41.5094 74.5453 40.412 75.6905 44.058C76.996 48.2288 72.1667 51.7595 70.2766 54.8965C69.0433 56.9442 67.5697 61.9897 68.5667 64.2639C69.2475 65.8225 69.8602 66.3394 71.558 65.3414C72.2228 64.9438 72.8875 63.3097 73.5362 62.7133C74.8096 61.5523 76.6516 60.7253 78.2293 60.0295C83.5832 57.6439 89.4817 55.4691 95.3281 54.6102C102.163 53.6426 109.128 54.1857 115.726 56.2006C118.319 56.9369 120.726 58.2077 122.79 59.9301C123.991 60.9082 127.595 64.9717 129.169 62.7133C133.47 56.5108 127.267 43.3662 123.631 37.8515Z" fill="#D9603E"/>
<path d="M66.1761 37.6129C66.1338 35.3039 66.617 33.0151 67.5897 30.9174C66.6006 32.0028 65.5314 33.1558 64.4983 34.3765C64.4983 34.5474 64.4663 34.7144 64.4543 34.8774C64.238 38.0582 64.6585 41.1237 65.2551 44.1813C65.8238 43.8592 66.3403 43.561 66.7448 43.3224C66.4584 41.43 66.2686 39.5244 66.1761 37.6129Z" fill="white"/>
<path d="M70.9133 41.6763C70.9133 41.6167 70.9414 41.5571 70.9574 41.5014C71.9454 37.8502 73.3353 34.3181 75.1019 30.969C76.7239 27.8098 78.644 24.8104 80.8362 22.0111C81.7932 20.8713 82.8849 19.8501 84.0878 18.9695C82.3382 19.6837 80.6415 20.5194 79.0102 21.4704C77.4445 23.4584 76.2392 25.6611 74.8256 27.9075C72.3469 31.8477 69.664 37.1596 68.6669 42.3483C69.3888 42.0437 70.1421 41.8184 70.9133 41.6763Z" fill="white"/>
<path d="M98.904 46.2329C105.367 45.4655 111.618 46.3203 117.925 47.6443C121.097 48.2694 124.209 49.1633 127.227 50.3162C128.104 50.6661 128.945 51.0716 129.778 51.4732C129.294 49.6671 128.69 47.8951 127.968 46.1693C125.237 45.3422 122.458 44.7777 120.44 44.3363C113.055 42.7459 106.024 42.1336 98.4835 43.0839C87.055 44.5192 75.6064 50.4752 68.6068 59.3854C68.4747 59.9614 68.3744 60.5441 68.3064 61.1309C75.8387 52.2923 87.3633 47.6046 98.904 46.2329Z" fill="white"/>
<path d="M94.4751 34.3089C88.8891 36.1774 83.6438 38.9298 78.9421 42.4597C77.9931 43.1913 76.9399 43.9745 75.8587 44.8095C75.974 45.7457 75.8358 46.6954 75.4583 47.5609C77.0841 46.4516 78.7739 45.4178 80.4237 44.3562C85.0303 41.3277 90.0099 38.8997 95.24 37.1319C101.06 35.1197 107.159 34.0119 113.32 33.8477C116.187 33.796 119.038 34.5554 121.829 35.1518C120.908 33.804 119.935 32.4323 118.906 31.0725C117.576 30.8339 116.239 30.6073 114.902 30.4602C108.17 29.7445 100.674 32.1579 94.4751 34.3089Z" fill="white"/>
<path d="M84.7605 30.1262C80.6319 33.2752 76.5635 37.2114 73.0076 40.9528C72.8114 41.1595 72.6312 41.3782 72.443 41.5889C73.177 41.6137 73.8875 41.853 74.4852 42.2768C77.5205 39.1318 80.9162 36.2691 84.1478 33.3189C88.639 29.2167 93.8603 25.9807 99.5447 23.7765C102.856 22.536 106.352 22.043 109.864 21.6295C108.702 20.7384 107.47 19.9406 106.18 19.2439C98.2953 21.0053 90.9713 25.3868 84.7605 30.1262Z" fill="white"/>
<path d="M127.419 77.7028C126.787 76.6611 125.817 75.2774 124.352 75.5756C121.084 76.2476 117.813 78.0964 114.601 79.1779C107.36 81.6991 99.7148 82.8809 92.0445 82.6648C89.0051 82.5773 85.4653 82.6926 82.5301 81.9133C80.7521 81.4362 79.0422 80.9313 77.5246 79.8299C77.0526 79.4742 76.458 79.3184 75.8708 79.3965C72.3389 80.315 71.9344 86.7243 72.0426 90.4299C71.9214 90.6486 71.8639 90.8965 71.8766 91.1458C71.8894 91.3951 71.9718 91.636 72.1146 91.8414C72.1329 91.9936 72.2026 92.1351 72.3125 92.2427C72.4224 92.3504 72.5658 92.4178 72.7193 92.4338C74.3651 93.8135 76.4274 94.0441 78.5897 94.3781C82.0015 94.9148 85.3972 95.4874 88.8129 95.9685C94.2232 96.6492 99.7011 96.6024 105.099 95.8293H105.219C105.707 95.7617 106.18 95.6742 106.66 95.5987C109.331 96.1871 112.831 95.0898 115.722 93.8771C118.97 93.0819 122.049 91.8891 124.836 89.6586C128.48 86.6965 130.102 82.1201 127.419 77.7028Z" fill="#D9603E"/>
<path d="M73.0076 92.6407C74.6094 93.8335 76.5515 94.0561 78.5897 94.3742C81.1085 94.7718 83.6192 95.1694 86.142 95.567C85.9137 93.1814 85.7656 90.7958 85.5133 88.4102C85.3171 86.5455 85.0808 84.0048 86.4063 82.486C85.0986 82.4148 83.8007 82.2204 82.53 81.9055C81.1415 81.5848 79.7969 81.0989 78.5257 80.4583C76.9679 81.5357 74.6734 85.7861 74.281 86.9868C73.705 88.8346 73.2792 90.7253 73.0076 92.6407Z" fill="#BE3920"/>
<path d="M75.2781 93.7419C76.3683 94.0247 77.4759 94.2372 78.5937 94.3781C81.8533 94.891 85.1009 95.4317 88.3724 95.8929C88.1762 93.7141 88.0361 91.5194 87.8078 89.3524C87.5876 87.2571 87.3113 84.3109 89.2614 82.9153C89.1565 82.7976 89.0382 82.6922 88.909 82.6012C86.7347 82.5535 84.5042 82.4342 82.5341 81.9134C81.9534 81.7543 81.3808 81.5953 80.8162 81.4164C79.2625 82.5098 76.984 86.7323 76.5955 87.933C75.9961 89.83 75.5555 91.7729 75.2781 93.7419Z" fill="#BE3920"/>
<path d="M81.7812 130.997C81.702 130.37 81.568 129.752 81.3808 129.148C81.2558 128.833 81.1114 128.527 80.9483 128.23C81.4048 127.347 81.2487 126.126 81.2166 125.212C81.0885 122.031 81.4609 118.926 81.6891 115.749C82.1296 109.761 83.5151 103.821 84.3721 97.8571C84.7965 94.9347 85.4172 92.0521 85.8777 89.1417C86.0493 87.7699 86.4484 86.4358 87.059 85.1935C87.6316 84.0842 88.837 83.0107 88.9371 81.7185C87.2432 81.0148 85.5013 81.2772 83.7033 80.8915C80.1635 80.1361 77.4004 81.8298 75.4023 84.9112C74.1055 86.9707 73.0049 89.1457 72.1147 91.408C69.9963 96.6086 68.8831 102.704 68.2704 108.266C67.5977 114.353 68.8911 120.814 67.8059 126.822C67.723 127.285 67.7991 127.763 68.0222 128.178C67.8155 128.791 67.6812 129.426 67.6217 130.071C67.5617 130.894 67.5817 131.713 67.5657 132.536C67.5657 133.188 67.4015 133.514 67.7258 134.07C67.7559 134.121 67.8047 134.157 67.8616 134.172C67.9185 134.187 67.9791 134.179 68.0302 134.15C68.8551 133.53 68.6148 132.488 68.5988 131.53C68.6184 130.676 68.7462 129.827 68.9792 129.005C69.1764 129.079 69.3851 129.118 69.5959 129.12C69.8362 129.12 70.0764 129.12 70.3127 129.12C70.0334 129.861 69.8308 130.629 69.708 131.41C69.5759 132.353 69.3076 133.876 70.1966 134.496C70.2346 134.518 70.2767 134.532 70.3203 134.538C70.3639 134.543 70.4083 134.54 70.4507 134.529C70.4932 134.517 70.533 134.498 70.5677 134.471C70.6024 134.444 70.6314 134.411 70.6531 134.373C71.0175 133.542 70.6531 132.46 70.7211 131.546C70.7772 130.75 70.8893 129.911 71.0255 129.084C71.5821 129.057 72.1427 129.021 72.7033 128.997C72.5346 129.591 72.4299 130.202 72.391 130.818C72.391 131.748 72.391 132.977 72.7313 133.84C72.7629 133.942 72.8268 134.032 72.9137 134.096C73.0006 134.16 73.1058 134.194 73.2139 134.194C73.3219 134.194 73.4271 134.16 73.514 134.096C73.6009 134.032 73.6648 133.942 73.6964 133.84C74.0047 132.901 73.6403 131.796 73.5763 130.822C73.5322 130.198 73.5002 129.589 73.4241 128.977C74.0206 128.965 74.6173 128.993 75.21 129.061C75.3342 129.061 75.4623 129.096 75.6105 129.112C75.5464 129.275 75.4743 129.43 75.4383 129.51C75.2217 130.095 75.0869 130.706 75.0379 131.327C75.0205 131.873 75.0473 132.419 75.1179 132.961C75.154 133.49 75.0178 133.804 75.4343 134.19C75.4787 134.235 75.5345 134.267 75.5958 134.283C75.6571 134.299 75.7217 134.298 75.7827 134.281L75.9188 134.229C76.0549 134.188 76.1746 134.106 76.2615 133.994C76.3483 133.882 76.3979 133.746 76.4033 133.605C76.4054 132.951 76.3733 132.296 76.3072 131.645C76.3317 130.959 76.4189 130.276 76.5675 129.605C76.5847 129.488 76.5954 129.37 76.5996 129.251C77.1297 129.337 77.6646 129.39 78.2013 129.411C78.1773 129.923 78.2013 130.448 78.2013 130.981C78.2013 132.126 77.8009 133.466 78.1052 134.559C78.1246 134.625 78.1607 134.684 78.2099 134.732C78.2591 134.779 78.3198 134.814 78.3861 134.831C78.4525 134.849 78.5222 134.849 78.5888 134.832C78.6553 134.815 78.7163 134.781 78.7659 134.734C79.4467 133.939 79.3426 132.834 79.3266 131.852C79.3266 131.021 79.2385 130.19 79.1664 129.363C79.5514 129.315 79.9238 129.195 80.2636 129.009L80.3036 128.981C80.3517 129.331 80.4117 129.685 80.4518 130.023C80.5257 130.662 80.5658 131.304 80.5719 131.947C80.5719 132.536 80.4237 133.029 80.5959 133.593C80.6157 133.675 80.6575 133.751 80.717 133.811C80.7766 133.871 80.8515 133.914 80.9338 133.936C81.0161 133.957 81.1027 133.955 81.1843 133.932C81.2658 133.908 81.3393 133.862 81.3968 133.8C81.9775 133.068 81.9134 131.923 81.7812 130.997Z" fill="#D9603E"/>
<path d="M123.687 90.4895C123.827 87.5473 122.886 84.1677 121.913 82.1002C121.513 81.2255 120.083 78.8836 118.55 77.6073C117.973 77.8538 117.399 78.095 116.828 78.3309C119.134 79.5237 120.163 84.5017 120.496 86.3068C120.796 87.9409 120.992 90.7122 120.155 92.4099C121.394 91.8883 122.577 91.2449 123.687 90.4895Z" fill="white"/>
<path d="M111.866 86.4461C111.169 84.5097 110.264 82.1957 108.571 80.9194C108.17 81.0149 107.77 81.1023 107.369 81.1898C107.982 82.8796 108.899 84.5376 109.608 86.1995C110.837 89.0782 111.209 92.1914 111.538 95.2767C112.319 95.0819 113.096 94.8394 113.86 94.569C113.436 91.8087 112.769 89.0906 111.866 86.4461Z" fill="white"/>
<path d="M92.4489 93.9884C91.7882 90.915 91.2876 85.5673 93.426 82.6768C92.9655 82.6768 92.509 82.6768 92.0445 82.6768H91.4598C90.5909 84.1558 90.1864 86.283 89.9542 87.3923C89.3915 90.293 89.4914 93.2821 90.2465 96.1394C91.1555 96.2349 92.0685 96.3144 92.9975 96.3661C92.7973 95.6424 92.5771 94.5848 92.4489 93.9884Z" fill="white"/>
<path d="M98.8479 89.4599C99.1723 91.2411 99.821 94.1436 100.954 96.2548C101.967 96.1793 102.956 96.0759 103.974 95.9526C103.133 94.3437 102.411 92.676 101.815 90.9628C100.814 88.1478 101.335 85.1579 101.231 82.2474C100.774 82.2991 100.322 82.3468 99.861 82.3906C98.5036 84.3269 98.4435 87.2413 98.8479 89.4599Z" fill="white"/>
<path d="M77.8089 103.515C79.3826 103.622 81.6571 103.765 83.4711 103.268C83.6192 102.417 83.7674 101.567 83.9076 100.716C81.5597 101.153 79.1717 101.341 76.7837 101.276C74.3371 101.177 71.9024 100.533 69.4637 100.441C69.3876 100.839 69.3076 101.201 69.2355 101.583C71.8543 102.911 74.9017 103.32 77.8089 103.515Z" fill="white"/>
<path d="M71.4619 93.1019C71.9423 93.4412 72.4468 93.7455 72.9716 94.0124C74.309 94.6128 75.7306 95.0581 77.1081 95.5789C79.5107 96.4855 82.2217 96.3344 84.7164 95.7141C84.8566 94.9189 85.0008 94.0959 85.1489 93.2848C82.1656 94.08 79.6229 94.3424 76.5995 93.4637C74.9978 92.9985 73.396 92.6009 71.7943 92.2272C71.6741 92.5174 71.566 92.8077 71.4619 93.1019Z" fill="white"/>
<path d="M78.1052 88.1477C80.5719 88.9707 83.1908 90.0244 85.7816 89.6109C85.8097 89.4518 85.8377 89.2968 85.8617 89.1417C85.9747 88.3489 86.1325 87.5631 86.3342 86.7879C82.8544 88.3107 79.0022 85.7422 75.6305 84.5773C75.5344 84.7005 75.4503 84.8158 75.3862 84.9113C75.0939 85.3605 74.8216 85.8257 74.5533 86.2909C75.4903 87.2253 77.1882 87.8415 78.1052 88.1477Z" fill="white"/>
<path d="M77.6807 123.164C78.8695 123.174 80.0532 123.008 81.1926 122.671C81.2166 121.876 81.2607 121.081 81.3167 120.286C77.6687 122.671 72.5952 120.421 68.2264 119.423C68.2264 119.991 68.2464 120.56 68.2264 121.125C71.2067 122.432 74.4229 123.126 77.6807 123.164Z" fill="white"/>
<path d="M81.8894 113.459C81.9775 112.632 82.0856 111.805 82.2017 110.978C80.5639 110.914 78.4416 111.829 76.996 111.916C74.8883 112.008 72.7773 111.836 70.7131 111.403C69.9443 111.252 68.9912 111.165 68.0782 111.006C68.0782 111.471 68.0782 111.94 68.0542 112.405C72.0746 114.508 77.7448 115.001 81.8894 113.459Z" fill="white"/>
<path d="M153.992 138.364C154.853 133.846 155 129.222 154.429 124.659C154.361 124.138 154.289 123.614 154.221 123.097C154.153 122.58 154.048 122.019 153.964 121.482C153.8 120.397 153.564 119.367 153.364 118.321C152.903 116.246 152.363 114.218 151.726 112.25C150.489 108.437 148.787 104.789 146.656 101.388C142.903 95.3966 137.644 90.4788 131.396 87.1179C128.192 89.5989 156.535 108.306 147.013 140.853C137.238 174.216 94.1548 181.011 66.076 168.777C66.7608 169.266 67.4535 169.739 68.1703 170.18C70.3345 171.564 72.5961 172.792 74.9377 173.854C77.299 174.908 79.7332 175.793 82.2217 176.502C87.2146 177.942 92.3872 178.676 97.5866 178.681C98.888 178.641 100.161 178.681 101.487 178.57C102.728 178.482 103.926 178.434 105.251 178.267L107.197 178.053C107.842 177.969 108.47 177.862 109.103 177.766C110.377 177.592 111.634 177.329 112.891 177.071C117.921 176.021 122.798 174.349 127.407 172.093C129.698 170.967 131.903 169.678 134.006 168.236C135.072 167.544 136.065 166.749 137.074 165.982C138.083 165.214 139.024 164.391 139.917 163.489C143.557 160.091 146.643 156.151 149.063 151.811C151.406 147.613 153.069 143.076 153.992 138.364Z" fill="#C6D9DE"/>
<path d="M100.346 108.564C100.327 109.004 100.178 109.429 99.9184 109.785C99.6587 110.142 99.2991 110.415 98.8844 110.571C98.4697 110.726 98.0181 110.757 97.5857 110.66C97.1534 110.563 96.7593 110.342 96.4524 110.024C96.1455 109.706 95.9394 109.306 95.8596 108.873C95.7798 108.44 95.8299 107.994 96.0036 107.589C96.1773 107.184 96.467 106.838 96.8367 106.596C97.2064 106.353 97.6398 106.223 98.0831 106.223C98.6956 106.236 99.2777 106.49 99.7018 106.929C100.126 107.368 100.357 107.956 100.346 108.564Z" fill="#303030"/>
<path d="M98.904 128.424C98.8852 128.864 98.7367 129.289 98.4769 129.645C98.2171 130.002 97.8575 130.275 97.4428 130.431C97.0281 130.586 96.5765 130.617 96.1442 130.52C95.7118 130.423 95.3177 130.202 95.0108 129.884C94.704 129.567 94.4978 129.166 94.418 128.733C94.3383 128.3 94.3883 127.854 94.562 127.449C94.7357 127.044 95.0254 126.698 95.3951 126.456C95.7648 126.213 96.1982 126.083 96.6415 126.083C97.254 126.096 97.8361 126.35 98.2602 126.789C98.6843 127.228 98.9158 127.816 98.904 128.424Z" fill="#303030"/>
<path d="M105.519 64.2321C106.829 61.1825 111.526 60.6338 112.567 64.1923C110.621 64.0531 105.519 64.2321 105.519 64.2321Z" fill="#303030"/>
<path d="M83.6873 64.0334C84.9928 60.9838 89.6939 60.4351 90.739 63.9897C88.5486 63.3297 83.6873 64.0334 83.6873 64.0334Z" fill="#303030"/>
<path d="M63.1888 46.714C63.4772 47.2871 63.6293 47.9182 63.6333 48.5588C63.6333 51.2228 61.0185 53.3817 57.7909 53.3817C56.4268 53.3916 55.0943 52.9742 53.9828 52.1889C54.8597 53.9344 56.938 55.1669 59.3727 55.1669C62.5962 55.1669 65.2151 53.008 65.2151 50.3441C65.1935 49.6224 64.9984 48.9163 64.6459 48.2848C64.2934 47.6532 63.7938 47.1147 63.1888 46.714Z" fill="#C6D9DE"/>
<path d="M88.7609 76.4902C88.8109 76.5275 88.8631 76.562 88.917 76.5935L89.3615 76.8639C89.5497 76.9871 89.802 77.1064 90.0663 77.2615C90.3306 77.4166 90.6509 77.5756 90.9993 77.7227L91.5359 77.9652C91.7321 78.0328 91.9364 78.1123 92.1246 78.1879C92.525 78.3549 92.9615 78.4463 93.3939 78.5855C93.8492 78.7018 94.3122 78.7855 94.7795 78.836C95.0157 78.8638 95.252 78.9155 95.4882 78.9234H96.5694L97.6426 78.824C98.1071 78.7445 98.5676 78.6252 99.0201 78.5417C99.4566 78.3986 99.877 78.2475 100.285 78.1243C100.485 78.0591 100.678 77.9766 100.862 77.8778L101.407 77.6352C101.732 77.5084 102.048 77.3583 102.352 77.1859C102.624 77.0269 102.868 76.8997 103.073 76.7883C103.473 76.5776 103.725 76.4623 103.725 76.4623C103.765 76.4397 103.808 76.4253 103.853 76.4201C103.899 76.4148 103.944 76.4189 103.988 76.4319C104.031 76.445 104.072 76.4667 104.107 76.4959C104.141 76.5251 104.17 76.561 104.19 76.6015C104.217 76.6574 104.227 76.7201 104.219 76.7817C104.21 76.8432 104.183 76.9009 104.142 76.9474C104.142 76.9474 103.962 77.1541 103.625 77.5C103.457 77.671 103.253 77.8976 103.008 78.1123C102.737 78.3798 102.437 78.6183 102.116 78.824C101.753 79.1008 101.37 79.3507 100.97 79.5715C100.534 79.7862 100.073 80.0248 99.5727 80.2236C99.0722 80.4224 98.5196 80.5655 97.971 80.6689L96.6775 80.8319C96.5334 80.8319 96.3852 80.8319 96.2371 80.8319L95.3641 80.8041C95.0718 80.8041 94.7875 80.7206 94.5032 80.6808C93.9587 80.5815 93.4231 80.4393 92.9014 80.2554C92.6518 80.1664 92.4072 80.0642 92.1686 79.9492C91.9362 79.8537 91.7101 79.7435 91.4919 79.6192C91.2796 79.5 91.0914 79.3847 90.8792 79.2654L90.3346 78.8678C90.022 78.6467 89.7238 78.4064 89.4416 78.1481C89.1933 77.9096 88.9811 77.7068 88.8209 77.5199C88.6608 77.3331 88.5366 77.1859 88.4525 77.0786C88.3684 76.9712 88.3364 76.9196 88.3364 76.9196C88.3096 76.8836 88.2905 76.8425 88.2804 76.7988C88.2703 76.7552 88.2693 76.7099 88.2776 76.6659C88.2859 76.6219 88.3032 76.5801 88.3285 76.543C88.3537 76.5059 88.3864 76.4744 88.4245 76.4504C88.4788 76.4256 88.539 76.4162 88.5983 76.4232C88.6577 76.4302 88.7139 76.4534 88.7609 76.4902Z" fill="#303030"/>
<path d="M114.609 72.7089C114.609 73.6718 114.322 74.613 113.783 75.4135C113.244 76.2139 112.478 76.8377 111.582 77.2058C110.686 77.5739 109.7 77.6698 108.749 77.4814C107.798 77.293 106.924 76.8287 106.239 76.1473C105.554 75.4659 105.088 74.598 104.9 73.6534C104.711 72.7089 104.81 71.7301 105.182 70.841C105.554 69.9519 106.184 69.1924 106.991 68.6586C107.798 68.1248 108.746 67.8407 109.716 67.8423C111.014 67.8444 112.259 68.3581 113.176 69.2705C114.094 70.1829 114.609 71.4196 114.609 72.7089Z" fill="#FFD4C3"/>
<path d="M87.5355 72.709C87.5347 73.6706 87.2468 74.6103 86.7082 75.4095C86.1696 76.2086 85.4045 76.8312 84.5095 77.1987C83.6146 77.5661 82.63 77.6618 81.6803 77.4738C80.7306 77.2857 79.8583 76.8222 79.1738 76.142C78.4893 75.4618 78.0233 74.5954 77.8346 73.6522C77.646 72.7091 77.7432 71.7316 78.114 70.8433C78.4848 69.955 79.1125 69.1958 79.9178 68.6616C80.723 68.1275 81.6697 67.8424 82.6382 67.8424C83.2816 67.8424 83.9188 67.9683 84.5132 68.2129C85.1077 68.4575 85.6477 68.8161 86.1025 69.268C86.5574 69.72 86.918 70.2565 87.1639 70.8469C87.4098 71.4374 87.5361 72.0701 87.5355 72.709Z" fill="#FFD4C3"/>
<path d="M83.5952 75.6075C88.5286 76.192 95.2079 76.5657 99.781 74.2875C103.385 72.4903 101.567 68.8881 98.8559 67.2937C98.1277 66.8197 97.2848 66.5483 96.415 66.5078C95.5451 66.4672 94.6803 66.659 93.9105 67.0631C92.3568 67.8185 84.4882 74.0131 83.5952 75.6075Z" fill="#D9603E"/>
</g>
</g>
<rect x="5.5" y="1.5" width="137" height="137" stroke="#D8E1E5" stroke-width="3"/>
</g>
<defs>
<filter id="filter0_d" x="0" y="0" width="148" height="148" filterUnits="userSpaceOnUse" color-interpolation-filters="sRGB">
<feFlood flood-opacity="0" result="BackgroundImageFix"/>
<feColorMatrix in="SourceAlpha" type="matrix" values="0 0 0 0 0 0 0 0 0 0 0 0 0 0 0 0 0 0 127 0"/>
<feOffset dy="4"/>
<feGaussianBlur stdDeviation="2"/>
<feColorMatrix type="matrix" values="0 0 0 0 0 0 0 0 0 0 0 0 0 0 0 0 0 0 0.25 0"/>
<feBlend mode="normal" in2="BackgroundImageFix" result="effect1_dropShadow"/>
<feBlend mode="normal" in="SourceGraphic" in2="effect1_dropShadow" result="shape"/>
</filter>
<clipPath id="clip0">
<rect x="4" width="140" height="140" fill="white"/>
</clipPath>
</defs>
</svg>
