<svg width="148" height="148" viewBox="0 0 148 148" fill="none" xmlns="http://www.w3.org/2000/svg">
<g filter="url(#filter0_d)">
<path d="M144 0H4V140H144V0Z" fill="#A8B3B2"/>
<path d="M110.972 124.953C110.798 124.705 110.566 124.503 110.297 124.364C110.028 124.224 109.729 124.152 109.426 124.154L109.53 124.289L97.5199 123.57C98.9586 122.011 100.415 120.322 101.888 118.502C103.366 116.674 104.724 114.752 105.953 112.747C107.159 110.782 108.208 108.724 109.09 106.593C109.913 104.583 110.458 102.471 110.709 100.314C110.923 98.4854 110.683 96.6321 110.009 94.9186C109.362 93.2288 108.376 91.6892 107.112 90.3945C106.3 89.0785 105.143 88.01 103.766 87.3051C102.376 86.5857 100.729 86.4632 98.8267 86.9374C98.4675 87.0236 98.1309 87.1858 97.8396 87.413L97.2761 87.5209C96.9371 87.6001 96.622 87.759 96.3568 87.9845C96.0349 88.1446 95.7226 88.3234 95.4217 88.5201C94.4027 89.1608 93.51 89.983 92.7879 90.946C91.7288 92.4407 91.8527 94.8866 91.8527 96.6251C91.8431 96.7589 91.8732 96.8925 91.9394 97.0091C92.0055 97.1257 92.1047 97.2202 92.2244 97.2806C92.672 97.7761 93.6831 97.7002 93.7751 96.8489C93.7751 96.769 93.799 96.6931 93.807 96.6131C93.8944 96.5316 93.9649 96.4339 94.0149 96.3254C94.3266 95.614 94.6623 94.8507 95.05 94.1113C95.8241 93.0862 96.8496 92.2781 98.0274 91.7653C98.3461 91.7965 98.6678 91.7652 98.9746 91.6734C99.7724 91.4202 100.632 91.4413 101.417 91.7333C102.21 92.0336 102.921 92.5186 103.491 93.1481C103.949 94.2069 104.158 95.3568 104.102 96.5092C104.095 97.6395 103.911 98.7616 103.555 99.8344C103.081 101.205 102.511 102.541 101.848 103.831C101.177 105.131 100.511 106.409 99.8499 107.664C98.3551 110.52 96.7565 113.304 95.054 116.017C93.3514 118.729 91.5663 121.404 89.6986 124.042C89.4547 124.363 89.3077 124.747 89.2749 125.149C89.2367 125.54 89.2873 125.935 89.4228 126.304C89.5532 126.666 89.7715 126.99 90.0583 127.247C90.3642 127.517 90.757 127.669 91.1653 127.675L108.862 128.622C109.173 128.668 109.49 128.638 109.787 128.534C110.083 128.43 110.35 128.256 110.565 128.026C110.958 127.605 111.213 127.074 111.296 126.504C111.383 125.964 111.267 125.412 110.972 124.953Z" fill="white"/>
<path d="M39.046 49.9213C46.9952 50.8605 55.9035 52.1593 63.5969 56.3837C66.4385 57.9424 73.1328 63.1779 70.6989 67.1305C68.4888 70.7274 60.3078 67.8939 57.5102 66.6629C66.8582 76.8622 82.3129 100.026 62.8416 109.542C54.153 113.791 47.8424 106.605 42.4271 100.838C34.9815 92.9124 28.1993 83.9561 22.2084 74.8599C20.2581 71.9024 18.8273 68.8171 17.2766 65.6678L39.046 49.9213Z" fill="#D9603E"/>
<path d="M43.0106 40.3654C52.0708 38.0834 51.5912 57.2629 41.7876 52.8467C44.9489 59.2173 37.5512 62.7582 32.8673 58.7057C33.8824 63.5016 29.8818 68.4893 24.8741 65.6997C24.6743 70.8673 16.1216 73.8008 12.2889 70.9712C7.17727 67.1864 7.75677 59.3811 13.9355 57.4788C5.45874 51.9555 16.5852 45.4371 22.7839 49.1859C20.0742 44.2541 24.99 40.1856 29.698 43.251C26.5007 35.7414 39.1499 29.3149 41.4639 38.2952L43.0106 40.3654Z" fill="#C6D9DE"/>
<path d="M42.1313 43.4747C43.5181 43.4387 44.9849 43.3948 46.016 44.274C47.2869 45.3571 47.7984 47.1116 47.7465 48.7182C47.7025 50.113 47.2709 51.8315 46.1798 52.8706C44.877 54.1056 42.6748 53.2463 41.2081 52.7507C41.9155 52.9865 41.4479 56.0719 41.336 56.6554C41.227 57.1695 41.0141 57.6559 40.7103 58.0848C40.4065 58.5136 40.0183 58.8759 39.5695 59.1493C37.4593 60.4841 34.6018 60.1084 32.7753 58.6577C33.3229 59.0893 32.7194 61.2115 32.5195 61.739C32.1351 62.7848 31.4373 63.6865 30.5213 64.3208C28.523 65.6677 26.125 65.0042 24.0628 64.4527C24.6183 64.6006 23.851 67.0185 23.6871 67.3263C23.1236 68.3893 22.3243 68.817 21.2052 69.1527C18.9552 69.8201 16.3214 70.4676 14.2392 69.0807C9.77903 66.1073 10.4585 59.7527 15.9857 58.0582C8.52811 53.7139 18.5515 48.1707 23.9829 51.0922C21.6848 47.1356 26.133 43.7145 30.2495 46.1164C28.8027 42.8912 31.5124 39.566 34.7736 38.6229C36.2324 38.2232 38.2306 38.2232 39.4816 39.0904C40.2191 39.6261 40.7766 40.3731 41.0802 41.2326C41.1441 41.4045 41.5958 43.4907 41.2401 43.4867L42.1313 43.4747Z" fill="white"/>
<path d="M47.223 93.9435C47.4388 93.6078 48.1542 93.5198 48.5099 93.4199C49.1973 93.2321 49.8167 92.7165 50.5081 92.4967C50.6003 92.47 50.6846 92.4216 50.7542 92.3555C50.8237 92.2895 50.8764 92.2077 50.9078 92.117C52.3226 92.3595 53.744 92.5567 55.1721 92.7085L55.376 93.0602C54.7885 94.6109 54.153 96.1935 53.4216 97.6803C52.3905 97.9321 51.3994 98.1998 50.3962 98.3997C49.6369 98.5515 49.9646 99.8025 50.704 99.5587C51.3794 99.3349 52.0708 99.159 52.7622 98.9512C52.4268 99.5536 52.0599 100.138 51.6631 100.702C51.6137 100.757 51.572 100.819 51.5393 100.886C51.4986 100.956 51.4721 101.033 51.4613 101.113C51.4506 101.194 51.4557 101.275 51.4765 101.354C51.5185 101.512 51.6216 101.647 51.7631 101.729C51.9046 101.811 52.0729 101.834 52.231 101.792C52.3892 101.75 52.5242 101.646 52.6063 101.505C52.9137 101.075 53.1991 100.629 53.4616 100.17C53.6231 100.947 53.9035 101.693 54.2929 102.384C54.3319 102.447 54.3901 102.495 54.4588 102.523C54.5276 102.55 54.6032 102.554 54.6745 102.535C54.7458 102.515 54.809 102.473 54.8547 102.415C54.9005 102.357 54.9263 102.286 54.9283 102.212C54.9723 101.093 54.5287 99.8584 54.217 98.7274C54.9084 97.2686 55.4479 95.7459 56.0474 94.2312C56.6589 95.2903 57.2464 96.3574 57.8219 97.4285C57.5574 98.1797 57.4078 98.9666 57.3782 99.7625C57.3744 100.083 57.3904 100.403 57.4262 100.722C57.44 100.934 57.4197 101.147 57.3663 101.353C57.2941 101.435 57.2299 101.523 57.1744 101.617C57.1313 101.692 57.1086 101.776 57.1086 101.863C57.1086 101.949 57.1313 102.034 57.1744 102.108C57.186 102.12 57.1954 102.134 57.2024 102.148C57.2823 102.28 57.4097 102.376 57.5583 102.417C57.707 102.458 57.8656 102.441 58.0017 102.368C58.5812 102.069 58.6012 101.289 58.5972 100.718C58.5932 100.146 58.5692 99.5746 58.5972 98.9951C58.9529 99.7345 59.2966 100.486 59.6003 101.249C59.6139 101.282 59.6389 101.309 59.6706 101.325C59.7024 101.341 59.7389 101.345 59.7734 101.336C59.8079 101.327 59.838 101.307 59.8584 101.277C59.8787 101.248 59.8878 101.213 59.8841 101.177C59.6437 99.9969 59.2917 98.842 58.833 97.7282C58.8502 97.6455 58.877 97.565 58.9129 97.4884C59.2566 97.4485 59.7762 97.8281 60.0639 97.988C60.4236 98.1878 60.7554 98.4316 61.115 98.6195C61.183 98.6514 61.6106 98.8233 61.5587 98.7593C61.5827 98.7827 61.613 98.7986 61.6459 98.805C61.6788 98.8114 61.7129 98.808 61.7439 98.7952C61.7749 98.7825 61.8015 98.7609 61.8204 98.7333C61.8394 98.7056 61.8498 98.673 61.8504 98.6394C61.8504 98.5915 61.8504 98.5395 61.8304 98.4916C61.8297 98.4454 61.8141 98.4007 61.7861 98.364C61.758 98.3273 61.7189 98.3006 61.6746 98.2877C61.5294 98.0598 61.3635 97.8458 61.179 97.6483C60.816 97.3139 60.4134 97.0253 59.98 96.789C59.4725 96.4933 58.829 96.3015 58.3534 96.6132C57.8019 95.4142 57.1544 94.2352 56.511 93.0722L56.6189 92.8204C58.0737 92.9004 59.5084 92.8764 60.9432 92.8444C61.2682 93.2718 61.676 93.6292 62.1422 93.8955C62.9215 94.4231 63.3971 95.3902 64.2444 95.8059C64.9358 96.1416 65.5432 95.0985 64.8478 94.7668C64.4758 94.5351 64.1571 94.2273 63.9126 93.8635C63.5367 93.4464 63.097 93.0916 62.6098 92.8124C63.2572 92.8124 63.9046 92.8124 64.5521 92.8124C65.0157 92.8124 65.0077 92.129 64.5521 92.0971C63.6768 92.0411 62.7976 92.0091 61.9223 91.9812C61.9223 91.5375 62.322 91.0899 62.7217 90.6983C63.1773 90.2347 63.521 89.6512 63.9646 89.2035C63.9868 89.1804 64.0019 89.1513 64.0081 89.1198C64.0143 89.0883 64.0114 89.0557 63.9996 89.0258C63.9878 88.9959 63.9677 88.9701 63.9417 88.9513C63.9156 88.9325 63.8848 88.9216 63.8527 88.9198C62.7416 89.0117 60.7793 90.6703 60.6994 91.9372C59.5004 91.8972 58.3015 91.8533 57.1025 91.7613C57.2743 91.3617 57.4422 90.962 57.6061 90.5624C57.6738 90.5791 57.7442 90.5817 57.813 90.57C57.8817 90.5583 57.9473 90.5326 58.0057 90.4944C58.583 90.0665 59.0636 89.5218 59.4165 88.8958C59.8361 88.2204 60.3437 87.0334 61.163 86.7656C61.3189 86.7137 61.3029 86.4459 61.123 86.4659C60.7839 86.472 60.4493 86.5459 60.1391 86.6832C59.8289 86.8204 59.5492 87.0183 59.3166 87.2652C58.9489 87.6649 58.6611 88.1125 58.3294 88.5361C58.7291 87.1773 58.817 85.6786 59.3925 84.4196C59.4193 84.3737 59.4286 84.3195 59.4185 84.2673C59.4084 84.215 59.3797 84.1682 59.3377 84.1355C59.2958 84.1028 59.2433 84.0864 59.1902 84.0894C59.1371 84.0924 59.0868 84.1146 59.0488 84.1519C58.2695 84.8553 58.2495 85.2669 57.9538 86.338C57.8858 86.5938 57.8019 86.8416 57.718 87.0893C57.5137 86.2064 57.1027 85.3846 56.519 84.6914C55.9555 84.0639 55.0403 84.9792 55.5878 85.6026C56.4111 86.5418 56.6349 87.9007 56.8867 89.1556C56.7108 89.5552 56.531 89.9549 56.3711 90.3905C56.2112 90.8261 56.0554 91.2178 55.8995 91.6374L55.6837 91.6175C54.8564 90.1787 54.0291 88.7439 53.3177 87.2572C53.5497 87.0025 53.7133 86.6931 53.7933 86.358C54.0651 85.5587 54.193 84.7593 54.4128 83.992C54.4209 83.9505 54.4146 83.9075 54.3947 83.8702C54.3749 83.8329 54.3428 83.8035 54.3038 83.7871C54.2649 83.7707 54.2215 83.7682 54.1809 83.78C54.1403 83.7919 54.1051 83.8173 54.0811 83.8521C53.8013 84.3837 53.4776 84.8912 53.2218 85.4508L52.8461 86.2501C52.3568 85.1413 51.9676 83.9911 51.6831 82.813C51.6632 82.7509 51.635 82.6917 51.5992 82.6372C51.5783 82.6043 51.5527 82.5747 51.5233 82.5492L51.4873 82.5213C51.377 82.4472 51.2425 82.4186 51.1116 82.4413L51.0317 82.4613C51.0039 82.465 50.977 82.4731 50.9518 82.4853C50.8887 82.5057 50.8306 82.539 50.7811 82.583C50.7316 82.6271 50.6917 82.6809 50.664 82.7411C50.6618 82.7543 50.6618 82.7678 50.664 82.781C50.6518 82.8173 50.6438 82.8549 50.64 82.8929C50.6323 82.946 50.6323 82.9998 50.64 83.0528C50.9247 84.036 51.269 85.001 51.6711 85.9423C51.1205 85.6169 50.5104 85.405 49.8767 85.3189C49.1693 85.2589 49.1653 86.382 49.8767 86.4259C50.5881 86.4699 51.5153 87.2492 52.3386 87.457C52.99 88.8319 53.7214 90.1747 54.4767 91.5096C53.05 91.3337 51.6472 91.1099 50.2484 90.8301C49.8887 90.3865 49.525 89.9469 49.1853 89.4833C48.8158 88.8834 48.3988 88.3141 47.9383 87.7808C47.9132 87.7567 47.8823 87.7395 47.8486 87.7308C47.8149 87.7221 47.7796 87.7222 47.7459 87.731C47.7123 87.7398 47.6814 87.7571 47.6564 87.7812C47.6313 87.8053 47.6128 87.8354 47.6026 87.8687C47.4148 88.7679 47.8704 89.6512 48.4539 90.4625C47.6985 90.2946 46.9352 90.1227 46.1679 89.9349C46.0335 89.9042 45.8925 89.927 45.7745 89.9983C45.6566 90.0696 45.571 90.1839 45.5357 90.3172C45.5005 90.4504 45.5183 90.5921 45.5856 90.7124C45.6528 90.8327 45.7641 90.9222 45.8961 90.962C46.9552 91.2858 48.0263 91.5415 49.0933 91.7613C48.5872 92.009 48.0652 92.2226 47.5307 92.4008C46.9232 92.5806 46.2997 92.8364 46.0879 93.4799C45.8761 94.1233 46.8633 94.499 47.223 93.9435Z" fill="white"/>
<path d="M59.5764 102.988C59.7407 102.897 59.8632 102.746 59.918 102.566C59.9727 102.386 59.9554 102.192 59.8698 102.025C59.7841 101.858 59.6368 101.731 59.459 101.67C59.2811 101.61 59.0868 101.621 58.9169 101.701C58.7526 101.792 58.6301 101.943 58.5754 102.123C58.5206 102.303 58.5379 102.497 58.6235 102.664C58.7092 102.831 58.8565 102.958 59.0343 103.019C59.2122 103.079 59.4065 103.068 59.5764 102.988Z" fill="white"/>
<path d="M66.2666 101.293C66.4988 101.299 66.725 101.22 66.9021 101.069C67.5016 100.642 66.942 99.5507 66.2466 99.7865C66.0185 99.8466 65.8206 99.9889 65.6911 100.186C65.6265 100.293 65.5905 100.415 65.5865 100.541C65.5826 100.666 65.6109 100.79 65.6686 100.901C65.7264 101.012 65.8117 101.106 65.9164 101.175C66.0211 101.244 66.1417 101.285 66.2666 101.293Z" fill="white"/>
<path d="M57.0265 97.2087C57.1507 97.134 57.2418 97.0151 57.2816 96.8758C57.3214 96.7366 57.3068 96.5874 57.2408 96.4585C57.1749 96.3295 57.0624 96.2305 56.9262 96.1813C56.7899 96.1321 56.6401 96.1365 56.507 96.1935C56.3829 96.2682 56.2917 96.3871 56.2519 96.5264C56.2121 96.6656 56.2267 96.8148 56.2927 96.9437C56.3587 97.0727 56.4712 97.1717 56.6074 97.2209C56.7436 97.2701 56.8934 97.2657 57.0265 97.2087Z" fill="white"/>
<path d="M60.4636 95.65C60.4917 95.6179 60.524 95.5897 60.5595 95.566C60.6179 95.5121 60.657 95.4406 60.6709 95.3624C60.6847 95.2842 60.6726 95.2036 60.6364 95.1329C60.6001 95.0622 60.5417 95.0054 60.4701 94.971C60.3985 94.9366 60.3176 94.9266 60.2398 94.9426C60.1674 94.9592 60.0965 94.9819 60.028 95.0105C59.5004 95.2223 60.0559 96.0656 60.4636 95.65Z" fill="white"/>
<path d="M65.3474 96.7931C65.4117 96.7605 65.469 96.7156 65.5159 96.661C65.5629 96.6063 65.5986 96.5429 65.621 96.4745C65.6435 96.406 65.6522 96.3338 65.6468 96.2619C65.6413 96.1901 65.6218 96.12 65.5892 96.0557C65.5567 95.9914 65.5118 95.9341 65.4571 95.8872C65.4025 95.8402 65.3391 95.8045 65.2706 95.7821C65.1323 95.7367 64.9817 95.7482 64.8519 95.8139C64.722 95.8796 64.6236 95.9942 64.5782 96.1325C64.5329 96.2708 64.5443 96.4214 64.6101 96.5513C64.6758 96.6811 64.7904 96.7795 64.9287 96.8249C65.0669 96.8702 65.2176 96.8588 65.3474 96.7931Z" fill="white"/>
<path d="M38.982 67.802C39.6414 67.842 40.2969 67.802 40.9803 67.766C40.9164 67.85 41.8755 70.3318 42.7628 71.1951C43.1185 71.5468 43.8938 72.0943 44.3294 71.5268C44.849 70.8474 44.2735 69.9082 43.9298 69.3007C43.4943 68.6695 42.913 68.1527 42.2352 67.794H42.2832C43.2644 67.9028 44.2386 68.0682 45.2007 68.2896C44.9449 69.0889 45.7122 70.2879 46 70.9713C46.2878 71.6547 46.7993 72.7538 47.6746 72.7338C48.3899 72.7338 47.9943 71.3749 47.8864 71.0672C47.552 70.0647 46.9325 69.1814 46.1039 68.5254L46.5835 68.6613C47.6467 69.0809 48.6514 69.6356 49.5729 70.3119C49.4142 71.1791 49.4607 72.0716 49.7088 72.9176C49.8167 73.3413 50.2324 74.2205 50.8279 74.0806C51.4233 73.9407 51.4393 73.2334 51.3594 72.7058C51.2475 71.9065 50.0685 70.5636 50.0765 70.5197H50.1964C50.8319 70.9633 52.0268 72.1942 52.1667 72.2502C52.8022 72.506 54.3968 75.999 55.3919 74.7441C55.4526 74.6441 55.4847 74.5293 55.4847 74.4123C55.4847 74.2954 55.4526 74.1806 55.3919 74.0806C55.1921 73.6962 54.9494 73.3355 54.6686 73.0055C54.1011 72.454 53.3897 71.9065 52.5824 71.8985C52.5144 71.8425 51.0117 70.9393 50.4402 70.5437L51.4513 70.6196C51.9429 70.6556 52.4505 70.7555 52.942 70.7595C53.2698 70.7595 54.0411 70.6875 53.8373 70.148C53.5935 69.5245 52.6863 69.3207 52.0988 69.2847C51.361 69.2618 50.638 69.4948 50.0525 69.9442C49.9946 69.9367 49.9357 69.9464 49.8832 69.9719C49.8306 69.9975 49.7867 70.0378 49.7568 70.088C48.9266 69.5699 48.0687 69.0976 47.187 68.6733C46.9373 68.5552 46.6795 68.455 46.4156 68.3735C47.2531 68.2922 48.0847 68.1587 48.9055 67.9739C49.2852 67.862 50.2683 67.3584 49.7448 66.8468C49.2212 66.3353 48.286 66.5031 47.6586 66.639C46.8899 66.8097 46.2178 67.2726 45.7842 67.9299H45.7162C44.968 67.9025 44.2227 67.821 43.4862 67.6861C43.1206 67.6076 42.751 67.5489 42.3791 67.5103C42.7108 67.2145 43.3862 67.2345 43.7619 67.0906C44.3574 66.8628 44.9089 66.5231 45.5004 66.2913C45.988 66.0915 46.7274 65.1603 46.1279 64.6927C45.3685 64.1092 43.8778 64.7926 43.2064 65.2082C42.6973 65.493 42.302 65.9447 42.0874 66.4871C41.9515 66.8109 41.7796 67.1666 41.9555 67.4703C41.0003 67.3944 40.0771 67.4143 39.0659 67.3464C38.7702 67.3824 38.7182 67.79 38.982 67.802ZM53.7693 72.9736C54.0965 73.2083 54.3692 73.511 54.5687 73.8608C54.6526 74.0087 55.1522 74.5522 54.7405 74.3844C54.141 74.1366 53.7973 73.3493 53.3897 72.8737C53.3297 72.8057 53.2658 72.7178 53.2058 72.6339C53.3954 72.733 53.5772 72.8466 53.7494 72.9736H53.7693ZM51.3714 70.0121C51.9061 69.8618 52.4782 69.9219 52.97 70.18C52.6424 70.1763 52.3159 70.1415 51.9949 70.0761C51.783 70.0481 51.5672 70.0401 51.3554 70.0241L51.3714 70.0121ZM50.676 72.0584C50.7761 72.2896 50.8564 72.5289 50.9158 72.7737C50.9637 72.9816 51.0077 74.0127 50.4522 73.3692C50.1993 72.9712 50.0738 72.5056 50.0925 72.0344C50.0548 71.6532 50.0375 71.2704 50.0405 70.8874C50.2843 71.253 50.4842 71.646 50.636 72.0584H50.676ZM47.151 67.3944C47.7177 67.1833 48.3214 67.0895 48.9255 67.1186C49.3851 67.1186 49.3771 67.1825 48.9255 67.4143C48.5566 67.5662 48.1675 67.6631 47.7705 67.7021C47.3468 67.778 46.9112 67.802 46.4836 67.846C46.6674 67.6631 46.8792 67.5106 47.111 67.3944H47.151ZM45.6403 68.5014C46.0882 68.9963 46.4896 69.5315 46.8393 70.1C47.0472 70.422 47.2315 70.7586 47.3908 71.1072C47.3908 71.1072 47.7905 72.478 47.3109 72.1503C46.7034 71.7226 46.5116 70.8914 46.2198 70.2439C46.028 69.8522 45.5044 68.949 45.6003 68.5014H45.6403ZM43.9338 65.5439C44.311 65.3614 44.7164 65.2439 45.1327 65.1962C45.8761 65.1243 45.4485 65.7598 45.0528 65.9436C44.4453 66.2234 43.8538 66.639 43.1784 66.7429C42.9023 66.7881 42.6334 66.8701 42.3791 66.9867C42.7181 66.3429 43.2665 65.834 43.9338 65.5439ZM42.6109 68.8291C43.0166 69.16 43.3534 69.5674 43.6021 70.0281C43.658 70.14 44.1416 71.3829 43.5061 71.0153C42.519 70.4437 42.3072 69.1289 41.7436 68.1777C42.0354 68.4055 42.3271 68.6173 42.6109 68.8411V68.8291Z" fill="white"/>
<path d="M32.1319 77.9892C32.7079 77.7633 33.2355 77.4296 33.6865 77.0061C34.1502 76.5864 34.6337 75.943 35.1733 75.6193C35.2138 76.3824 35.3046 77.1421 35.445 77.8933C35.3997 77.8788 35.3516 77.8748 35.3045 77.8817C35.2574 77.8887 35.2125 77.9063 35.1733 77.9333C34.2393 78.6692 33.4644 79.5869 32.8952 80.631C32.4956 81.3503 32.1479 82.5693 33.0951 83.0289C34.0422 83.4885 34.6657 82.5253 35.0494 81.8299C35.3052 81.3551 35.505 80.8521 35.6449 80.3312C35.6795 80.2193 35.7235 80.1034 35.7768 79.9835C35.8614 80.1201 35.9635 80.245 36.0805 80.3552C36.2963 81.0946 36.668 82.5653 37.1516 83.9321C36.8918 84.6635 37.4353 85.7026 37.7151 86.3301C37.9949 86.9575 38.6983 88.2245 39.6095 88.1165C40.5207 88.0086 40.3289 87.0694 40.0571 86.466C39.8123 85.8998 39.4909 85.37 39.1019 84.8913C38.7022 84.4237 38.2147 84.2559 37.771 83.8962C37.7262 83.822 37.661 83.7624 37.5832 83.7243L37.4593 83.6684C37.1196 82.6572 36.8478 81.6701 36.66 81.1345C36.624 81.0466 36.6 80.9507 36.5681 80.8588C37.0197 81.3703 37.4553 81.8899 37.9269 82.3815C38.3985 82.873 39.9931 83.9281 40.3688 82.7292C40.6326 81.8859 40.0011 81.1585 39.4296 80.611C38.6703 79.8836 37.1596 78.8405 36.0325 78.9724C36.0325 78.8445 35.5889 76.4346 35.5729 75.3355C36.0885 75.7831 36.7399 76.7463 37.1716 77.2219C37.7271 77.8134 38.5464 78.7925 39.4496 78.7406C40.6885 78.6726 40.2169 77.2579 39.8093 76.6184C39.2879 75.9238 38.6671 75.3098 37.9669 74.796C37.6028 74.522 37.1983 74.3062 36.7679 74.1565C36.66 74.1125 35.7688 73.9607 35.9686 74.0686C35.9101 74.0305 35.8436 74.0064 35.7743 73.9981C35.7051 73.9898 35.6348 73.9975 35.5689 74.0206C35.6144 73.1949 35.7267 72.3743 35.9046 71.5667C35.9721 71.4636 36.0182 71.3482 36.0405 71.227C36.0926 71.0569 36.1581 70.8912 36.2364 70.7314L36.2883 70.7514C36.2688 70.782 36.2565 70.8166 36.2523 70.8526C36.2481 70.8886 36.2521 70.9251 36.264 70.9593C36.2759 70.9936 36.2955 71.0246 36.3211 71.0502C36.3468 71.0758 36.3779 71.0953 36.4122 71.1071C36.7279 71.227 37.1196 71.9424 37.3234 72.1942C37.6599 72.6524 38.0642 73.0567 38.5224 73.3932C38.974 73.6929 39.6734 73.7928 39.9572 73.2453C40.3169 72.5339 39.1019 71.5907 38.6543 71.271C38.0084 70.7512 37.216 70.4466 36.3882 70.3997C36.4796 70.235 36.5623 70.0655 36.636 69.8922C36.7439 69.6364 36.8239 69.3326 36.9517 69.0928C37.0117 68.9769 36.8358 68.893 36.7599 68.9849C36.4634 69.3875 36.1963 69.8109 35.9606 70.2519C35.8967 70.3518 35.8247 70.4637 35.7568 70.5836C35.7136 70.5715 35.668 70.5715 35.6249 70.5836C35.0628 70.356 34.4403 70.325 33.8584 70.4956C33.3788 70.5996 32.6994 70.7754 32.4996 71.295C32.2997 71.8145 33.0351 72.3141 33.4867 72.3061C34.2217 72.247 34.9201 71.9606 35.485 71.4868C35.4811 71.5307 35.4811 71.5748 35.485 71.6187C35.2524 72.4908 35.1183 73.3863 35.0853 74.2884C35.0853 74.3164 35.0574 74.3483 35.0414 74.3803C33.8424 74.4283 32.8073 74.4922 31.7242 75.1157C31.0848 75.4834 30.1256 76.3706 30.3054 77.2179C30.4853 78.0652 31.3525 78.305 32.1319 77.9892ZM37.9989 71.4229C38.2546 71.5947 38.4984 71.7905 38.7462 71.9744C38.8421 72.0503 39.8892 73.1294 39.2298 73.0814C38.5704 73.0335 37.883 71.9784 37.4753 71.4828C37.3514 71.3389 37.2435 71.1591 37.1196 70.9992C37.4284 71.1051 37.7236 71.2473 37.9989 71.4229ZM34.1102 71.5867C33.7865 71.7386 33.4388 71.8984 33.115 71.6507C32.7913 71.4029 33.0631 71.231 33.2789 71.1111C33.591 70.9588 33.9235 70.8524 34.2661 70.7954C34.5088 70.7403 34.7566 70.7109 35.0054 70.7075C35.123 70.7074 35.24 70.7235 35.3531 70.7554C34.9879 71.0997 34.5678 71.3807 34.1102 71.5867Z" fill="white"/>
<path d="M36.8998 79.7956C37.6839 80.0154 38.4054 80.4166 39.006 80.9666C39.2937 81.2423 40.0771 82.2495 39.2498 82.3294C38.6623 82.3853 38.0908 81.4302 37.775 81.0465C37.4034 80.5989 37.0676 80.1393 36.68 79.7396L36.8998 79.7956Z" fill="#D9603E"/>
<path d="M35.2932 78.9044C35.3343 79.6426 35.1533 80.3762 34.7736 81.0106C34.5258 81.4103 33.9423 82.5613 33.3269 82.3375C32.5276 82.0537 33.3269 80.6989 33.6026 80.3152C33.8591 79.9612 34.1453 79.6296 34.4579 79.3241C34.6857 79.0923 35.1053 78.9244 35.1853 78.6127L35.2932 78.9044Z" fill="#D9603E"/>
<path d="M35.9726 74.5881C36.7719 74.3803 37.3874 74.9878 37.9709 75.4674C38.5544 75.9469 39.3177 76.3866 39.4976 77.1819C39.5695 77.5016 39.4976 77.9332 39.05 77.9492C38.7023 77.9492 38.3346 77.4976 38.1268 77.2818C37.4673 76.5944 36.9917 75.7431 36.3922 75.0437C36.1966 74.8292 35.9671 74.6483 35.7128 74.5082L35.9726 74.5881Z" fill="#D9603E"/>
<path d="M34.9215 75.1355C34.322 75.767 32.4276 77.8931 31.3486 77.1338C30.5093 76.5463 31.6283 75.735 32.1479 75.5352C32.8258 75.1894 33.5818 75.0255 34.342 75.0596C34.5581 75.0619 34.7701 75.1197 34.9575 75.2274L34.9215 75.1355Z" fill="#D9603E"/>
<path d="M37.7431 84.8632C37.7111 84.7033 37.6831 84.5714 37.6632 84.4635C38.0189 84.7193 40.8604 87.2211 39.4257 87.5609C38.3346 87.8326 37.9349 85.8503 37.7431 84.8632Z" fill="#D9603E"/>
<path d="M90.2661 19.5833C91.0374 19.3994 91.8647 19.1836 92.744 19.0078C96.4648 18.2564 101.025 19.7232 104.762 20.0509C109.889 20.4945 115.844 21.9652 120.748 23.5559C130.827 26.8171 143.277 36.9244 140.835 48.7343C139.38 55.8362 131.091 59.1494 124.297 59.605C120.42 59.8568 116.396 58.9176 112.647 57.9584C109.174 57.0711 105.589 55.0489 102.128 54.4174C103.527 60.0126 102.695 68.6212 94.9341 64.4368C91.1094 62.3706 88.1839 58.9016 85.1904 55.8362C82.197 52.7708 73.6004 47.1476 75.3389 42.2478C76.1822 39.8499 77.1853 37.5599 78.0206 35.1539C79.831 29.9584 82.0451 24.8308 84.1393 19.7351C86.6572 20.3266 88.3677 20.0229 90.2661 19.5833Z" fill="#D9603E"/>
<path d="M86.9289 11.9897C88.0108 12.1015 89.0472 12.4832 89.9431 13.0998C90.839 13.7164 91.5657 14.5481 92.0565 15.5186C93.4633 18.2923 91.0094 24.7108 87.1368 23.9994C91.9846 26.5812 91.3891 33.5911 85.4542 33.3114C87.8961 36.8044 85.8738 42.1039 81.3297 41.7601C83.0722 44.1581 83.6078 47.755 82.0491 50.4407C79.795 54.3014 77.5849 50.9762 75.6026 48.8661C74.8033 56.3357 59.0408 49.6254 66.1787 43.7065C59.5244 44.9055 60.6954 34.3985 67.5296 34.1387C65.4034 31.6288 63.2372 29.3668 65.2395 26.1056C67.6375 22.1929 70.1153 21.7093 74.2478 22.5966C72.0297 19.2474 70.0434 15.9023 73.0968 12.3254C74.6355 10.5229 77.493 9.62769 79.7271 10.6108C80.7223 11.0545 81.3697 12.4333 82.2969 12.6811C83.6997 13.0368 85.4382 11.8178 86.9289 11.9897Z" fill="#C6D9DE"/>
<path d="M90.7616 17.8447C91.1053 21.3577 87.6083 23.7557 84.475 23.4C85.8059 24.3072 88.7114 27.7482 88.4436 29.4228C88.044 31.8447 84.475 31.4491 82.6446 31.1533C85.2424 35.7973 85.8419 41.0089 78.5481 40.0817C79.9309 41.7562 81.1938 45.9806 79.9949 48.0229C78.2044 51.0762 75.3069 48.2667 74.1599 46.2604C72.7731 50.3489 65.4793 47.0077 68.5287 42.3317C66.3346 41.7123 64.7519 40.4613 65.795 38.0514C66.7342 35.8813 68.5926 35.9932 70.3871 35.4297C68.3888 33.5713 65.9909 31.557 67.6255 28.7114C69.5718 25.3383 72.6572 26.2455 75.7465 26.2775C75.6586 22.8165 73.0888 19.9669 74.8073 16.6617C76.4619 13.4645 82.9643 13.6843 81.5575 17.7448C82.8164 13.5244 90.2461 12.5812 90.7616 17.8447Z" fill="white"/>
<path d="M112.675 46.5202C114.015 46.4718 115.341 46.235 116.615 45.8168C116.476 46.0206 116.336 46.2164 116.216 46.4083C115.952 46.7799 115.46 47.1077 115.269 47.5113C115.228 47.5898 115.219 47.6813 115.246 47.7659C115.272 47.8505 115.33 47.9213 115.409 47.9629C116.208 48.4425 117.359 46.5082 117.862 45.4011C119.185 44.9175 120.484 44.342 121.759 43.8025C121.311 44.7817 120.832 45.7488 120.356 46.712C120.303 46.6919 120.245 46.6837 120.188 46.6879C120.131 46.692 120.075 46.7084 120.025 46.736C118.75 47.5353 117.499 48.3346 116.236 49.1339C116.14 49.1949 116.072 49.2914 116.047 49.4024C116.023 49.5133 116.043 49.6295 116.104 49.7254C116.165 49.8213 116.261 49.8891 116.372 49.9139C116.483 49.9386 116.6 49.9183 116.695 49.8573C117.731 49.1899 118.77 48.5264 119.801 47.859C119.233 48.9741 118.662 50.0891 118.098 51.2042C117.846 51.7077 118.622 52.1114 118.87 51.6038L120.116 49.082C120.439 50.0028 120.962 50.8408 121.647 51.5359C121.664 51.5527 121.686 51.5634 121.709 51.5661C121.733 51.5689 121.756 51.5635 121.776 51.5509C121.796 51.5383 121.812 51.5193 121.819 51.4969C121.827 51.4746 121.827 51.4502 121.819 51.428C121.419 50.4128 120.68 49.3178 120.556 48.1907C121.295 46.684 122.019 45.1733 122.69 43.6386L122.95 44.0863C123.458 44.9895 123.997 45.8607 124.517 46.748C124.515 46.7666 124.515 46.7853 124.517 46.8039C124.585 47.4873 124.673 48.1628 124.705 48.8502C124.718 49.549 124.582 50.2427 124.305 50.8844C124.201 51.1722 124.569 51.3201 124.777 51.2161C125.576 50.8165 125.576 49.5576 125.464 48.4185C126.015 49.5096 126.495 50.7326 127.33 51.6158C127.402 51.6917 127.522 51.6158 127.494 51.5079C127.06 50.0095 126.457 48.5654 125.696 47.2036C126.631 47.4554 127.494 48.1388 128.23 48.6783C128.425 48.8262 128.757 48.6104 128.585 48.3786C127.765 47.3423 126.585 46.6519 125.28 46.4442C124.741 45.4811 124.169 44.5419 123.629 43.6466C123.554 43.5227 123.486 43.3988 123.41 43.2749C124.776 43.8904 126.099 44.6338 127.426 45.3172L127.602 45.4171C127.91 45.9167 128.218 46.4123 128.509 46.9198C128.909 47.5673 129.149 48.2667 129.708 48.7822C129.731 48.8042 129.76 48.8188 129.791 48.8239C129.822 48.8291 129.854 48.8247 129.883 48.8113C129.912 48.7978 129.935 48.776 129.951 48.7487C129.967 48.7214 129.974 48.6899 129.972 48.6583C129.895 48.0101 129.655 47.3916 129.277 46.8599C129.153 46.6401 129.017 46.4243 128.877 46.2084C129.465 46.6134 130.112 46.9248 130.795 47.1316C131.003 47.1836 131.127 46.8599 130.923 46.772C129.996 46.3279 129.105 45.8093 128.262 45.2213C128.174 45.0854 128.086 44.9495 127.994 44.8216C128.493 44.8326 128.993 44.7938 129.484 44.7057C130.284 44.6018 131.219 44.4659 131.882 44.0183C131.994 43.9424 131.91 43.7386 131.778 43.7985C131.031 44.1302 130.044 44.1302 129.241 44.1982C128.613 44.2541 127.822 44.0303 127.274 44.3061C127.237 44.3265 127.205 44.3557 127.181 44.3912C127.158 44.4267 127.143 44.4675 127.138 44.5099C126.871 44.346 126.603 44.1782 126.339 44.0343C125.54 43.6346 124.741 43.235 123.941 42.8353C125.186 42.259 126.382 41.5826 127.518 40.8131C127.567 40.8789 127.635 40.928 127.713 40.9537C127.791 40.9795 127.875 40.9806 127.954 40.9569C129.097 40.6092 130.404 40.6572 131.395 39.9018C131.587 39.754 131.455 39.3863 131.199 39.5022C130.311 39.884 129.365 40.1137 128.401 40.1816C129.568 39.3294 130.629 38.3421 131.563 37.2401C131.635 37.1522 131.531 37.0123 131.427 37.0843C130.372 37.8196 129.325 38.571 128.258 39.2984C128.517 38.3472 129.097 37.396 128.629 36.4688C128.588 36.4015 128.528 36.3472 128.458 36.3119C128.387 36.2766 128.308 36.2617 128.23 36.269H128.162C128.086 36.2728 128.014 36.3016 127.957 36.3508C127.9 36.4 127.861 36.4668 127.846 36.5407C127.802 36.7885 127.926 36.9723 127.93 37.2201C127.89 37.675 127.785 38.1218 127.618 38.547C127.475 38.9886 127.378 39.4441 127.33 39.9058C126.037 40.7751 124.678 41.5434 123.266 42.2039C123.35 42.012 123.434 41.8042 123.51 41.6244C124.101 40.1456 124.589 38.6269 125.132 37.1282C125.144 37.1552 125.159 37.1807 125.176 37.2042C125.233 37.2866 125.319 37.3447 125.417 37.3669C125.514 37.3891 125.617 37.3738 125.704 37.324C126.947 36.6846 127.202 35.1379 128.357 34.3906C128.404 34.3565 128.437 34.3074 128.451 34.2517C128.465 34.196 128.459 34.1372 128.434 34.0853C128.41 34.0334 128.368 33.9916 128.316 33.9671C128.264 33.9426 128.205 33.9369 128.15 33.9509C126.951 34.3946 126.599 35.7374 125.64 36.4528C125.584 36.3569 125.536 36.257 125.484 36.157C125.943 34.9581 126.375 33.7071 126.147 32.3963C126.127 32.2564 125.916 32.2164 125.884 32.3723C125.684 33.3946 125.417 34.4026 125.084 35.3897C124.952 35.102 124.82 34.8142 124.685 34.5264C124.501 34.1268 124.285 33.2595 123.817 33.0837C123.775 33.0617 123.729 33.0496 123.681 33.0483C123.634 33.047 123.587 33.0566 123.544 33.0762C123.501 33.0959 123.462 33.1251 123.432 33.1618C123.402 33.1984 123.381 33.2414 123.37 33.2875C123.306 33.831 123.797 34.4865 124.017 34.9621C124.237 35.4377 124.477 35.9452 124.725 36.4248C124.057 38.2952 123.258 40.1496 122.538 41.8921C121.803 40.6052 121.088 39.3143 120.356 38.0274C120.397 37.9946 120.429 37.9524 120.45 37.9043C120.471 37.8563 120.48 37.8039 120.476 37.7517C120.38 36.4608 121.212 34.7742 120.348 33.6152C120.32 33.5773 120.279 33.5505 120.233 33.5394C120.187 33.5283 120.138 33.5337 120.096 33.5545C120.053 33.5753 120.019 33.6103 120 33.6535C119.98 33.6967 119.976 33.7453 119.989 33.7911C120.344 34.8382 119.929 35.9452 119.781 37.0323C119.205 36.0332 118.622 35.034 117.998 34.0588C117.966 34.0087 117.925 33.9654 117.876 33.9313C117.827 33.8973 117.772 33.8732 117.714 33.8604C117.656 33.8476 117.596 33.8463 117.537 33.8567C117.479 33.8671 117.423 33.8889 117.373 33.921C117.323 33.953 117.279 33.9946 117.245 34.0433C117.211 34.0921 117.187 34.1471 117.174 34.2051C117.162 34.2632 117.16 34.3233 117.171 34.3818C117.181 34.4404 117.203 34.4963 117.235 34.5464C117.635 35.1779 118.034 35.8213 118.434 36.4568C117.703 36.169 116.939 35.9452 116.188 35.6934C115.704 35.5296 115.536 36.3089 116.016 36.4688C117.093 36.755 118.141 37.1376 119.149 37.6118C119.997 39.0106 120.824 40.4094 121.639 41.8362C121.24 41.6643 120.872 41.4925 120.476 41.3326C119.777 41.0489 118.898 40.5333 117.958 40.0497C118.838 38.7828 114.997 36.7765 114.489 36.2809C114.393 36.189 114.273 36.3169 114.325 36.4168C114.969 37.7077 116.344 38.3392 117.215 39.4302C117.271 39.4982 117.239 39.5781 117.175 39.662C115.824 39.0266 114.425 38.579 113.31 39.0306C112.859 39.2144 113.095 39.9418 113.546 39.754C114.453 39.3543 115.441 39.754 116.344 40.2256C116.044 40.3694 115.768 40.4853 115.68 40.5213C115.144 40.71 114.582 40.8125 114.014 40.825C113.967 40.8295 113.922 40.8439 113.882 40.8671C113.842 40.8903 113.807 40.9219 113.779 40.9598C113.752 40.9976 113.733 41.0408 113.724 41.0865C113.715 41.1322 113.716 41.1793 113.726 41.2247C114.154 42.2798 116.096 41.3766 117.195 40.6692C117.287 40.7211 117.383 40.7771 117.471 40.8211C118.975 41.563 120.523 42.2116 122.107 42.7634C120.744 43.3389 119.341 43.9224 117.918 44.418C117.894 44.418 117.886 44.366 117.858 44.358C116.89 43.9754 115.897 43.6602 114.885 43.4148C114.122 43.183 113.406 42.7754 112.595 43.0152C112.561 43.0246 112.532 43.0448 112.511 43.0725C112.49 43.1003 112.478 43.1342 112.478 43.169C112.478 43.2039 112.49 43.2378 112.511 43.2655C112.532 43.2933 112.561 43.3135 112.595 43.3229C113.33 43.5347 113.982 43.9464 114.705 44.1862C115.365 44.406 116.036 44.5858 116.703 44.8296C115.38 45.2464 114.014 45.5145 112.631 45.6289C112.535 45.6611 112.453 45.7237 112.396 45.8071C112.339 45.8906 112.311 45.9903 112.316 46.0912C112.321 46.1921 112.358 46.2885 112.423 46.366C112.488 46.4434 112.576 46.4975 112.675 46.5202Z" fill="white"/>
<path d="M123.35 48.1946C123.487 48.1082 123.584 47.9709 123.62 47.8127C123.656 47.6546 123.628 47.4886 123.542 47.3514C123.455 47.2141 123.318 47.1168 123.16 47.0808C123.001 47.0448 122.836 47.0731 122.698 47.1595C122.561 47.2459 122.464 47.3833 122.428 47.5414C122.392 47.6996 122.42 47.8655 122.506 48.0028C122.593 48.1401 122.73 48.2374 122.888 48.2734C123.046 48.3093 123.212 48.281 123.35 48.1946Z" fill="white"/>
<path d="M128.741 43.0551C128.837 43.0112 128.929 42.9592 129.025 42.9112C129.68 42.5715 128.993 41.4964 128.409 41.9481L128.158 42.1439C128.037 42.2213 127.952 42.3435 127.921 42.4836C127.89 42.6238 127.916 42.7704 127.994 42.8913C128.071 43.0121 128.193 43.0972 128.333 43.128C128.474 43.1587 128.62 43.1325 128.741 43.0551Z" fill="white"/>
<path d="M126.403 38.8228C126.491 38.7587 126.551 38.6634 126.572 38.5564C126.592 38.4494 126.57 38.3387 126.512 38.247C126.453 38.1552 126.362 38.0893 126.256 38.0626C126.15 38.0359 126.039 38.0505 125.943 38.1034C125.855 38.1676 125.795 38.2628 125.775 38.3698C125.755 38.4769 125.776 38.5875 125.835 38.6793C125.894 38.771 125.985 38.837 126.091 38.8637C126.196 38.8903 126.308 38.8757 126.403 38.8228Z" fill="white"/>
<path d="M123.33 36.8883C123.286 36.0331 121.919 36.3248 122.211 37.0961C122.256 37.2264 122.346 37.3361 122.465 37.4054C122.584 37.4747 122.724 37.4989 122.86 37.4738C122.995 37.4486 123.117 37.3757 123.203 37.2683C123.29 37.1608 123.334 37.026 123.33 36.8883Z" fill="white"/>
<path d="M118.378 42.9352C118.429 42.9026 118.473 42.8604 118.507 42.8108C118.542 42.7613 118.567 42.7054 118.58 42.6464C118.592 42.5874 118.594 42.5264 118.583 42.4669C118.573 42.4074 118.55 42.3506 118.518 42.2997C118.485 42.2488 118.443 42.2048 118.394 42.1702C118.344 42.1356 118.288 42.1111 118.229 42.0982C118.17 42.0852 118.109 42.0839 118.05 42.0945C117.99 42.1051 117.933 42.1273 117.882 42.1598C117.78 42.2255 117.707 42.3294 117.681 42.4486C117.655 42.5678 117.677 42.6925 117.742 42.7953C117.808 42.8981 117.912 42.9706 118.031 42.9968C118.15 43.0231 118.275 43.0009 118.378 42.9352Z" fill="white"/>
<path d="M95.2738 41.964C95.4428 41.4384 95.5422 40.8929 95.5695 40.3414C95.8333 41.0328 96.105 41.7243 96.4128 42.3957C96.3409 42.6364 96.2317 42.8643 96.0891 43.0711C95.9724 43.3478 95.8711 43.6306 95.7853 43.9184C95.5655 44.5019 95.3537 45.0814 95.1898 45.6809C94.99 46.4202 94.8221 47.7911 95.7853 48.0788C96.7485 48.3666 96.9843 46.3523 97.0123 45.8647C97.1016 45.1448 97.1176 44.4177 97.0602 43.6946C97.5907 44.6541 98.1932 45.5719 98.8627 46.4402C98.813 46.4671 98.7722 46.5079 98.7452 46.5576C98.7183 46.6072 98.7063 46.6636 98.7108 46.72C98.7468 47.1756 98.3112 47.807 98.1473 48.2427C97.927 48.7587 97.7544 49.2938 97.6317 49.8413C97.5238 50.4368 97.8675 51.6238 98.6948 51.384C100.249 50.9364 99.8338 48.5064 99.3423 47.0996C99.622 47.3874 99.8898 47.7111 100.178 48.0189C100.577 49.2178 101.8 50.4168 102.711 51.1762C103.231 51.6198 104.206 52.2352 104.933 51.9994C105.801 51.7157 105.001 50.6566 104.686 50.2969C104.165 49.7783 103.577 49.3308 102.939 48.966C102.47 48.6922 101.96 48.4952 101.428 48.3825C100.949 47.883 100.477 47.3714 100.034 46.8359H100.166C100.99 46.991 101.805 47.1979 102.603 47.4553C103.279 47.6512 104.834 48.0748 105.001 46.9718C105.141 45.9726 103.687 45.6089 103.003 45.525C101.711 45.3834 100.406 45.4265 99.1265 45.6529C98.6272 44.9729 98.1682 44.2643 97.7516 43.5307C97.6677 43.3788 97.5998 43.219 97.5238 43.0671C98.5629 43.5427 99.618 44.2661 100.721 44.2661C101.377 44.2661 102.851 43.7985 102.548 42.8513C102.244 41.9041 101.149 41.6283 100.305 41.5644C99.7213 41.5449 99.1371 41.6 98.5669 41.7283C98.2952 41.7762 97.332 42.0919 96.9683 41.9241C96.5886 40.9969 96.2609 40.0457 95.8732 39.1265C95.8732 39.0825 95.8333 39.0306 95.8093 38.9826C97.288 39.8259 99.8618 41.0888 100.206 39.5381C100.385 38.7388 99.0066 38.1153 98.4191 37.8796C97.5678 37.5279 96.133 36.9204 95.2218 37.324C95.1881 37.3259 95.1551 37.3144 95.1299 37.2921C94.935 36.7831 94.8718 36.2333 94.946 35.6934C94.9558 35.604 94.932 35.5141 94.8793 35.4412C94.8266 35.3682 94.7488 35.3174 94.6608 35.2985C94.5729 35.2796 94.481 35.294 94.403 35.3389C94.325 35.3838 94.2665 35.456 94.2386 35.5416C94.1379 36.2171 94.2208 36.9073 94.4784 37.5398C93.775 38.7621 93.2017 40.0547 92.7679 41.3965C92.5601 42.06 92.3443 43.5587 93.3834 43.7265C94.4225 43.8944 95.014 42.7993 95.2738 41.964ZM96.5207 44.9575C96.5015 45.4476 96.4521 45.9362 96.3728 46.4202C96.2649 47.0357 95.7134 47.903 95.6774 46.7519C95.6494 45.8327 96.169 44.8296 96.4967 43.9983C96.5207 43.9384 96.5487 43.8784 96.5766 43.8185C96.5726 44.2261 96.5407 44.6258 96.5207 44.9655V44.9575ZM99.1185 48.3985C99.2304 49.1139 99.3383 49.9692 98.8507 50.5687C98.6509 50.8844 98.451 50.7925 98.2392 50.2969C98.228 50.036 98.2674 49.7755 98.3551 49.5296C98.5116 49.058 98.693 48.5951 98.8986 48.1428C98.9454 48.0201 98.9988 47.9 99.0585 47.7831C99.0745 47.9909 99.0865 48.1947 99.1185 48.3985ZM103.171 49.9012C103.439 50.1051 103.703 50.3009 103.97 50.5327C104.15 50.6846 104.985 51.296 104.574 51.304C103.876 50.7046 103.195 50.0891 102.532 49.4576C102.739 49.6015 102.955 49.7494 103.167 49.9012H103.171ZM100.885 46.0525C101.804 45.9886 103.063 46.0525 103.906 46.4762C104.75 46.8998 103.982 47.0757 103.447 46.9837C103.067 46.9158 102.695 46.7719 102.32 46.68C101.812 46.5521 101.305 46.4522 100.801 46.3123C100.529 46.2324 100.253 46.1884 100.002 46.1245C100.277 46.1085 100.581 46.0725 100.881 46.0525H100.885ZM97.9195 42.3637C98.7907 42.3637 99.614 42.0959 100.493 42.1839C100.984 42.2388 101.446 42.4439 101.816 42.7714C102.436 43.2869 101.073 43.6306 100.929 43.6466C100.633 43.6631 100.336 43.6182 100.058 43.5147C99.0465 43.207 98.1473 42.6155 97.1441 42.2718C97.3957 42.3452 97.6577 42.3763 97.9195 42.3637ZM97.4079 38.2233C97.853 38.3567 98.2819 38.539 98.6868 38.7668C98.8627 38.8787 99.7659 39.2983 99.3143 39.4862C98.8627 39.674 98.3551 39.3303 98.0034 39.1824C97.4937 38.9702 96.996 38.73 96.5127 38.463C96.1477 38.2153 95.7563 38.0089 95.3457 37.8476C95.3457 37.7996 95.3137 37.7517 95.2937 37.7037C96.004 37.826 96.7051 37.9969 97.3919 38.2153L97.4079 38.2233ZM93.2954 42.1959C93.4433 40.853 94.1507 39.5781 94.8461 38.4031L94.9221 38.6069C94.986 38.7628 95.042 38.9187 95.1019 39.0745C95.1035 39.6637 95.0554 40.252 94.958 40.833C94.897 41.2375 94.7842 41.6324 94.6223 42.008C94.5552 42.1624 94.4749 42.3109 94.3825 42.4516C94.0428 42.9952 93.1995 42.8833 93.2795 42.1879L93.2954 42.1959Z" fill="white"/>
<path d="M96.9443 32.5041C97.4839 31.9885 98.0914 31.465 98.7468 30.9534C98.7918 30.9799 98.8425 30.995 98.8947 30.9974C99.3703 30.9974 99.9058 31.449 100.329 31.6608C100.895 31.9833 101.499 32.2318 102.128 32.4002C102.751 32.5401 104.25 32.1084 103.619 31.2012C103.337 30.7989 102.962 30.4701 102.527 30.2427C102.092 30.0152 101.608 29.8958 101.117 29.8943C100.791 29.8715 100.464 29.8715 100.138 29.8943C100.953 29.3413 101.799 28.8356 102.671 28.3796C103.755 29.0511 104.798 30.0462 106.033 30.4099C106.728 30.6137 107.703 30.4099 107.503 29.4907C107.327 28.6914 105.941 27.928 105.241 27.7162C104.977 27.6428 104.707 27.596 104.434 27.5763C105.419 27.1682 106.442 26.8577 107.487 26.6491C107.504 26.6785 107.529 26.7022 107.559 26.7171L107.671 26.773C107.665 26.8074 107.665 26.8425 107.671 26.8769C108.035 27.992 108.642 29.095 109.765 29.5706C110.165 29.7465 110.988 30.0422 111.112 29.3708C111.236 28.6994 110.177 27.8201 109.793 27.4324C109.426 27.0454 108.993 26.7261 108.514 26.4893C108.778 26.4613 109.042 26.4453 109.314 26.4333C110.581 26.9928 114.262 28.0999 114.182 26.5812C114.142 25.8338 112.815 25.4062 112.243 25.3382C111.672 25.2993 111.099 25.3657 110.553 25.5341C110.212 25.6042 109.877 25.699 109.55 25.8178C109.405 25.7885 109.257 25.7751 109.11 25.7779C109.035 25.7879 108.967 25.8263 108.921 25.8851C108.874 25.944 108.851 26.0187 108.858 26.0936H108.586C108.896 25.857 109.188 25.5992 109.462 25.3223C109.769 24.9466 110.161 24.6708 110.437 24.2712C110.713 23.8715 110.501 22.9003 109.837 22.9962C108.502 23.1921 107.08 24.8866 107.439 26.2535C106.596 26.4013 105.765 26.6052 104.993 26.809C104.642 26.9009 104.286 27.0248 103.934 27.1487C104.03 27.0128 104.13 26.8769 104.238 26.749C104.617 26.3026 104.958 25.8254 105.257 25.3223C105.717 24.5229 105.365 23.8515 104.458 23.8275C104.018 23.8275 103.535 24.2791 103.207 24.5149C102.803 24.8414 102.495 25.2709 102.316 25.7579C102.042 26.4487 101.977 27.2045 102.128 27.932C101.247 28.3665 100.394 28.8564 99.5741 29.3988C99.6563 29.3139 99.7337 29.2245 99.8059 29.131C100.042 28.7993 100.325 28.4676 100.525 28.1159C100.86 27.6059 101.075 27.0265 101.153 26.4213C101.217 25.4901 100.569 24.2072 99.4822 24.2831C98.5949 24.3431 98.3352 25.7379 98.2153 26.4013C97.9994 27.6283 97.8516 28.8952 98.487 29.9583C98.479 30.026 98.479 30.0944 98.487 30.1621C97.731 30.7152 97.0078 31.3117 96.3209 31.9486C95.9492 32.3123 96.5607 32.8718 96.9443 32.5041ZM113.406 26.5772C113.139 26.5799 112.872 26.5986 112.607 26.6331C112.491 26.6331 112.371 26.6331 112.251 26.6012C111.756 26.3788 111.231 26.2294 110.693 26.1575C111.644 25.9777 112.567 25.9098 113.406 26.5772ZM109.51 23.8115C109.813 23.6077 109.909 23.9714 109.705 24.2112C109.502 24.451 109.306 24.5589 109.13 24.7587C108.954 24.9586 108.73 25.2303 108.522 25.4461C108.315 25.662 108.071 25.7099 107.887 25.9617C107.862 25.9971 107.843 26.0362 107.831 26.0776C108.003 25.0705 108.674 24.3791 109.51 23.8115ZM108.434 27.1287C108.574 27.1956 108.708 27.2745 108.834 27.3645C109.307 27.7382 109.728 28.1737 110.085 28.6594C110.213 28.8312 110.333 29.0071 110.449 29.1869L109.857 28.9432C109.154 28.6434 108.71 27.8521 108.442 27.1287H108.434ZM106.596 29.3548C107.096 29.8704 106.528 29.9063 106.073 29.7305C105.744 29.586 105.427 29.4163 105.125 29.2229C104.602 28.9272 104.134 28.5555 103.643 28.2158C104.188 28.1875 104.734 28.2743 105.244 28.4706C105.755 28.6668 106.218 28.968 106.604 29.3548H106.596ZM102.6 27.3565C102.578 26.9528 102.64 26.549 102.783 26.1707C102.925 25.7923 103.144 25.4476 103.427 25.1584C103.699 24.9294 103.997 24.7323 104.314 24.5709C104.834 24.5709 104.969 24.7028 104.714 25.0345C104.618 25.2343 104.498 25.3982 104.406 25.602C104.189 25.9377 103.933 26.2463 103.643 26.5212C103.381 26.9246 103.078 27.2996 102.739 27.6403C102.716 27.6647 102.687 27.6837 102.655 27.6962C102.643 27.5763 102.631 27.4564 102.627 27.3565H102.6ZM101.141 30.5897C101.524 30.5951 101.899 30.6968 102.232 30.8855C102.508 31.0294 103.299 31.6848 102.524 31.7288C102.081 31.6955 101.653 31.5586 101.273 31.3291C100.819 31.1581 100.385 30.9397 99.9777 30.6777L99.9218 30.6337H100.102C100.473 30.6097 100.821 30.5897 101.169 30.5897H101.141ZM98.511 28.2597C98.511 27.7841 98.6109 27.2926 98.6749 26.821C98.7468 26.2455 99.0425 24.3711 99.9418 25.0265C101.113 25.8818 100.309 27.3525 99.67 28.2477C99.3703 28.6474 99.0386 29.0231 98.7268 29.4187C98.585 29.0495 98.521 28.6549 98.539 28.2597H98.511Z" fill="white"/>
<path d="M28.9506 109.906C28.9214 109.17 28.739 108.449 28.4151 107.788L28.3591 107.656C28.2054 107.022 27.8821 106.442 27.4239 105.977C27.0735 105.626 26.6574 105.348 26.1993 105.158C25.7412 104.968 25.2501 104.87 24.7542 104.87C24.2583 104.87 23.7673 104.968 23.3092 105.158C22.8511 105.348 22.4349 105.626 22.0845 105.977C21.7275 106.323 21.4451 106.738 21.2547 107.198C21.0643 107.657 20.97 108.15 20.9775 108.647C21.0062 109.381 21.1886 110.102 21.513 110.761C21.537 110.821 21.549 110.853 21.569 110.897C21.7194 111.532 22.0432 112.113 22.5042 112.576C22.8546 112.926 23.2707 113.205 23.7288 113.395C24.1869 113.585 24.678 113.683 25.1739 113.683C25.6698 113.683 26.1608 113.585 26.6189 113.395C27.077 113.205 27.4932 112.926 27.8436 112.576C28.1998 112.229 28.4817 111.814 28.672 111.355C28.8624 110.896 28.9572 110.403 28.9506 109.906Z" fill="white"/>
<path d="M55.5558 125.277C54.153 123.874 51.6032 123.758 50.2164 125.277C49.2139 126.338 48.666 127.749 48.6897 129.209C48.6813 130.174 49.0435 131.105 49.7016 131.81C50.3597 132.515 51.2633 132.941 52.2262 133C53.1891 133.058 54.1376 132.745 54.8762 132.124C55.6147 131.504 56.0869 130.623 56.1953 129.665C56.5712 128.961 56.7119 128.155 56.5968 127.366C56.4818 126.576 56.117 125.844 55.5558 125.277Z" fill="white"/>
<path d="M119.733 71.1589C114.861 71.1589 114.861 78.7125 119.733 78.7125C124.605 78.7125 124.605 71.1589 119.733 71.1589Z" fill="white"/>
<path d="M81.4057 64.165C80.4069 64.1744 79.4517 64.5753 78.7454 65.2816C78.0392 65.9878 77.6383 66.943 77.6289 67.9418V68.3614C77.6289 69.3631 78.0268 70.3237 78.7351 71.032C79.4434 71.7403 80.404 72.1382 81.4057 72.1382C82.4073 72.1382 83.368 71.7403 84.0762 71.032C84.7845 70.3237 85.1824 69.3631 85.1824 68.3614V67.9418C85.1731 66.943 84.7721 65.9878 84.0659 65.2816C83.3596 64.5753 82.4044 64.1744 81.4057 64.165Z" fill="white"/>
<path d="M31.8881 6.67432H31.4884C30.4868 6.67432 29.5261 7.07222 28.8179 7.7805C28.1096 8.48878 27.7117 9.44942 27.7117 10.4511C27.7117 11.4527 28.1096 12.4134 28.8179 13.1217C29.5261 13.8299 30.4868 14.2278 31.4884 14.2278H31.8881C32.8897 14.2278 33.8504 13.8299 34.5587 13.1217C35.2669 12.4134 35.6649 11.4527 35.6649 10.4511C35.6649 9.44942 35.2669 8.48878 34.5587 7.7805C33.8504 7.07222 32.8897 6.67432 31.8881 6.67432Z" fill="white"/>
<path d="M114.138 2.05835C109.266 2.05835 109.266 9.61188 114.138 9.61188C119.009 9.61188 119.009 2.05835 114.138 2.05835Z" fill="white"/>
<path d="M14.6828 21.3617C14.2389 21.3659 13.8144 21.544 13.5005 21.8579C13.1866 22.1718 13.0084 22.5964 13.0043 23.0403V23.4599C13.0043 23.9051 13.1811 24.332 13.4959 24.6468C13.8107 24.9616 14.2376 25.1385 14.6828 25.1385C15.128 25.1385 15.555 24.9616 15.8697 24.6468C16.1845 24.332 16.3614 23.9051 16.3614 23.4599V23.0403C16.3572 22.5964 16.179 22.1718 15.8651 21.8579C15.5512 21.544 15.1267 21.3659 14.6828 21.3617Z" fill="white"/>
<path d="M16.3614 67.9418H15.9418C15.4966 67.9418 15.0696 68.1186 14.7548 68.4334C14.4401 68.7482 14.2632 69.1752 14.2632 69.6203C14.2632 70.0655 14.4401 70.4925 14.7548 70.8073C15.0696 71.122 15.4966 71.2989 15.9418 71.2989H16.3614C16.8066 71.2989 17.2335 71.122 17.5483 70.8073C17.8631 70.4925 18.04 70.0655 18.04 69.6203C18.04 69.1752 17.8631 68.7482 17.5483 68.4334C17.2335 68.1186 16.8066 67.9418 16.3614 67.9418Z" fill="white"/>
<path d="M36.9238 86.8256C34.7576 86.8256 34.7576 90.1827 36.9238 90.1827C39.0899 90.1827 39.0859 86.8256 36.9238 86.8256Z" fill="white"/>
<path d="M23.9149 119.558C23.5383 119.561 23.1741 119.693 22.8832 119.932C22.5922 120.172 22.3922 120.504 22.3163 120.872C22.1804 121.032 22.0405 121.168 21.9166 121.308C21.6018 121.623 21.425 122.05 21.425 122.495C21.425 122.94 21.6018 123.367 21.9166 123.682C22.2314 123.997 22.6584 124.174 23.1036 124.174C23.5488 124.174 23.9758 123.997 24.2906 123.682C25.002 122.967 25.5295 122.267 25.6215 121.236C25.6734 120.321 24.7822 119.558 23.9149 119.558Z" fill="white"/>
<path d="M44.0577 103.192C41.8915 103.192 41.8915 106.549 44.0577 106.549C46.2238 106.549 46.2238 103.192 44.0577 103.192Z" fill="white"/>
<path d="M72.1736 127.111H71.7539C71.3087 127.111 70.8818 127.288 70.567 127.603C70.2522 127.917 70.0754 128.344 70.0754 128.79C70.0754 129.235 70.2522 129.662 70.567 129.976C70.8818 130.291 71.3087 130.468 71.7539 130.468H72.1736C72.6187 130.468 73.0457 130.291 73.3605 129.976C73.6753 129.662 73.8521 129.235 73.8521 128.79C73.8521 128.344 73.6753 127.917 73.3605 127.603C73.0457 127.288 72.6187 127.111 72.1736 127.111Z" fill="white"/>
<path d="M89.3069 94.4511C88.9398 94.2175 88.5071 94.1086 88.0731 94.1405C87.6391 94.1723 87.227 94.3434 86.898 94.6281C86.5689 94.9129 86.3405 95.2962 86.2467 95.7211C86.1528 96.146 86.1985 96.5898 86.377 96.9867C86.5555 97.3836 86.8572 97.7123 87.2373 97.924C87.6175 98.1357 88.0558 98.2192 88.4872 98.162C88.9185 98.1048 89.32 97.91 89.6318 97.6065C89.9436 97.303 90.1492 96.907 90.2181 96.4773C90.1717 95.7134 89.8476 94.9927 89.3069 94.4511Z" fill="white"/>
<path d="M101.057 130.12C100.854 129.85 100.588 129.633 100.283 129.489C99.9772 129.344 99.6409 129.277 99.3032 129.292C98.9655 129.307 98.6366 129.405 98.3452 129.576C98.0538 129.747 97.8087 129.987 97.6313 130.275C97.4538 130.563 97.3494 130.89 97.327 131.227C97.3047 131.564 97.3651 131.902 97.503 132.21C97.641 132.519 97.8523 132.789 98.1185 132.998C98.3847 133.206 98.6978 133.346 99.0306 133.406C99.4137 133.406 99.7925 133.325 100.142 133.168C100.491 133.011 100.803 132.781 101.057 132.494C101.367 132.177 101.54 131.751 101.54 131.307C101.54 130.864 101.367 130.438 101.057 130.12Z" fill="white"/>
<path d="M136.307 103.263L135.887 102.844C135.731 102.688 135.546 102.564 135.342 102.48C135.139 102.396 134.92 102.352 134.7 102.352C134.479 102.352 134.261 102.396 134.058 102.48C133.854 102.564 133.669 102.688 133.513 102.844C133.357 103 133.233 103.185 133.149 103.388C133.065 103.592 133.021 103.81 133.021 104.031C133.021 104.251 133.065 104.47 133.149 104.673C133.233 104.877 133.357 105.062 133.513 105.218L133.933 105.637C134.088 105.793 134.274 105.917 134.477 106.001C134.681 106.086 134.899 106.129 135.12 106.129C135.34 106.129 135.558 106.086 135.762 106.001C135.966 105.917 136.151 105.793 136.307 105.637C136.462 105.482 136.586 105.297 136.67 105.093C136.755 104.889 136.798 104.671 136.798 104.45C136.798 104.23 136.755 104.012 136.67 103.808C136.586 103.604 136.462 103.419 136.307 103.263Z" fill="white"/>
<path d="M139.736 126.292C139.292 126.296 138.867 126.474 138.553 126.788C138.239 127.102 138.061 127.526 138.057 127.97V129.649C138.057 130.094 138.234 130.521 138.549 130.836C138.864 131.151 139.291 131.327 139.736 131.327C140.181 131.327 140.608 131.151 140.923 130.836C141.237 130.521 141.414 130.094 141.414 129.649V127.97C141.41 127.526 141.232 127.102 140.918 126.788C140.604 126.474 140.18 126.296 139.736 126.292Z" fill="white"/>
<path d="M133.021 18.8439H132.602C132.157 18.8439 131.73 19.0207 131.415 19.3355C131.1 19.6503 130.923 20.0773 130.923 20.5224C130.923 20.9676 131.1 21.3946 131.415 21.7094C131.73 22.0241 132.157 22.201 132.602 22.201H133.021C133.467 22.201 133.894 22.0241 134.208 21.7094C134.523 21.3946 134.7 20.9676 134.7 20.5224C134.7 20.0773 134.523 19.6503 134.208 19.3355C133.894 19.0207 133.467 18.8439 133.021 18.8439Z" fill="white"/>
<path d="M131.343 59.549H130.504C130.058 59.549 129.631 59.7258 129.317 60.0406C129.002 60.3554 128.825 60.7823 128.825 61.2275C128.825 61.6727 129.002 62.0996 129.317 62.4144C129.631 62.7292 130.058 62.9061 130.504 62.9061H131.343C131.788 62.9061 132.215 62.7292 132.53 62.4144C132.845 62.0996 133.021 61.6727 133.021 61.2275C133.021 60.7823 132.845 60.3554 132.53 60.0406C132.215 59.7258 131.788 59.549 131.343 59.549Z" fill="white"/>
<path d="M53.2897 20.9421C52.7349 20.9473 52.2042 21.1701 51.8119 21.5624C51.4195 21.9548 51.1968 22.4855 51.1915 23.0403V23.46C51.1915 24.0165 51.4126 24.5501 51.8061 24.9436C52.1996 25.3371 52.7333 25.5582 53.2897 25.5582C53.8462 25.5582 54.3799 25.3371 54.7734 24.9436C55.1669 24.5501 55.3879 24.0165 55.3879 23.46V23.0403C55.3827 22.4855 55.16 21.9548 54.7676 21.5624C54.3753 21.1701 53.8446 20.9473 53.2897 20.9421Z" fill="white"/>
<rect x="5.5" y="1.5" width="137" height="137" stroke="#D8E1E5" stroke-width="3"/>
</g>
<defs>
<filter id="filter0_d" x="0" y="0" width="148" height="148" filterUnits="userSpaceOnUse" color-interpolation-filters="sRGB">
<feFlood flood-opacity="0" result="BackgroundImageFix"/>
<feColorMatrix in="SourceAlpha" type="matrix" values="0 0 0 0 0 0 0 0 0 0 0 0 0 0 0 0 0 0 127 0"/>
<feOffset dy="4"/>
<feGaussianBlur stdDeviation="2"/>
<feColorMatrix type="matrix" values="0 0 0 0 0 0 0 0 0 0 0 0 0 0 0 0 0 0 0.25 0"/>
<feBlend mode="normal" in2="BackgroundImageFix" result="effect1_dropShadow"/>
<feBlend mode="normal" in="SourceGraphic" in2="effect1_dropShadow" result="shape"/>
</filter>
</defs>
</svg>
