<svg width="148" height="148" viewBox="0 0 148 148" fill="none" xmlns="http://www.w3.org/2000/svg">
<g filter="url(#filter0_d)">
<path d="M144 0H4V140H144V0Z" fill="#D9603E"/>
<path d="M112.927 51.364C125.596 51.364 135.867 41.0932 135.867 28.4236C135.867 15.754 125.596 5.48328 112.927 5.48328C100.257 5.48328 89.9864 15.754 89.9864 28.4236C89.9864 41.0932 100.257 51.364 112.927 51.364Z" fill="#BAD9E4"/>
<path d="M118.414 13.7882C119.542 13.9102 120.611 14.3495 121.499 15.0551C122.317 15.719 122.955 16.578 123.354 17.553C123.761 18.5701 123.972 19.6548 123.977 20.7502C123.993 21.8885 123.809 23.0206 123.434 24.0954C123.088 25.0803 122.524 25.9741 121.783 26.7091C121.025 27.4676 120.156 28.1064 119.205 28.6035C120.306 29.5716 121.102 30.8375 121.499 32.2484C121.927 33.7003 121.927 35.2447 121.499 36.6966C121.261 37.5672 120.899 38.3991 120.424 39.1665C119.468 40.7154 118.148 42.0077 116.579 42.9312C115.806 43.3947 114.974 43.7535 114.106 43.9983C113.915 44.0977 113.71 44.1665 113.498 44.2022H113.378C112.509 44.4146 111.613 44.4954 110.721 44.4419C109.589 44.3762 108.487 44.0522 107.499 43.4948C106.559 42.9682 105.742 42.2475 105.101 41.3806C104.468 40.5215 104.035 39.5314 103.834 38.4831C103.62 37.3726 103.675 36.2268 103.994 35.1419C104.352 33.808 104.99 32.5655 105.865 31.497C106.731 30.4456 107.774 29.5531 108.946 28.8593C108.228 28.4401 107.588 27.8992 107.056 27.2607C106.531 26.6357 106.125 25.9207 105.857 25.1505C105.589 24.3807 105.474 23.5663 105.517 22.7525C105.569 21.8712 105.794 21.0088 106.18 20.2147C106.706 19.1228 107.379 18.1077 108.179 17.1973C108.962 16.3018 109.869 15.5226 110.872 14.8833C111.866 14.2536 112.955 13.7906 114.098 13.5125C115.284 13.2306 116.514 13.1831 117.719 13.3726C117.865 13.3737 118.01 13.4068 118.142 13.4696C118.275 13.5324 118.392 13.6234 118.486 13.7363L118.414 13.7882ZM107.299 34.9261C107.012 35.5876 106.849 36.296 106.816 37.0163C106.785 37.6935 106.909 38.3688 107.18 38.9906C106.965 37.6268 107.006 36.2351 107.299 34.8861V34.9261ZM110.561 19.1436C110.121 19.6044 109.73 20.1093 109.394 20.6503C109.092 21.1388 108.862 21.6676 108.71 22.221C108.564 22.7241 108.516 23.2503 108.566 23.7717C108.614 24.2752 108.787 24.7588 109.07 25.1785C109.043 24.2481 109.112 23.3174 109.274 22.4008C109.511 21.255 109.961 20.1637 110.601 19.1836L110.561 19.1436ZM113.138 41.2047C114.011 40.9575 114.826 40.5405 115.536 39.9778C116.261 39.4154 116.899 38.7503 117.431 38.0035C117.941 37.2923 118.335 36.5045 118.598 35.6695C118.848 34.9115 118.929 34.1082 118.838 33.3155C118.748 32.5693 118.449 31.8639 117.974 31.2812C117.414 30.6275 116.671 30.1569 115.84 29.9304C115.678 29.9359 115.516 29.9225 115.357 29.8904H114.993C114.673 29.9422 114.35 29.9702 114.026 29.9743C113.273 30.1796 112.601 30.6073 112.095 31.2013C111.52 31.8545 111.051 32.5951 110.709 33.3954C110.346 34.2381 110.096 35.125 109.965 36.0332C109.827 36.8741 109.847 37.7335 110.025 38.567C110.176 39.2863 110.525 39.9493 111.032 40.4813C111.306 40.7437 111.633 40.944 111.991 41.0689C112.349 41.1937 112.729 41.24 113.106 41.2047H113.138ZM119.377 24.8987C119.92 24.372 120.331 23.7242 120.576 23.0083C120.9 22.2002 121.077 21.3408 121.1 20.4705C121.124 19.6549 120.945 18.8461 120.58 18.1165C120.397 17.7627 120.138 17.4542 119.82 17.2136C119.503 16.9729 119.136 16.8063 118.746 16.7257H118.626C118.048 16.8465 117.488 17.0356 116.955 17.2892C116.373 17.5609 115.82 17.8917 115.305 18.2764C114.791 18.655 114.312 19.079 113.874 19.5433C113.473 19.9636 113.134 20.4386 112.867 20.9541C112.203 22.1851 111.924 23.5873 112.067 24.9786C112.147 25.7779 112.414 26.3015 112.867 26.5493C113.447 26.8128 114.089 26.911 114.721 26.833C114.872 26.8351 115.022 26.8621 115.165 26.913C115.94 26.7506 116.695 26.5068 117.419 26.1856C118.093 25.897 118.718 25.5031 119.269 25.0186L119.377 24.8987Z" fill="#303030"/>
<path d="M105.913 74.9678C106.059 74.6207 106.284 74.3118 106.568 74.0646C107.136 73.577 110.381 73.7129 110.409 73.6649C112.483 68.821 97.8036 67.5461 95.5055 67.67C85.4302 68.2815 74.6754 72.2981 65.2475 66.7548C61.9223 64.8005 58.8969 62.2507 57.1904 58.6697C55.4838 55.0888 54.0371 50.8365 53.8732 46.8039C53.8053 45.1054 53.6414 41.5644 54.6725 40.1296C55.5358 38.9307 57.4062 39.2704 58.6091 38.6709C60.1358 37.9115 61.6705 36.5727 61.7824 34.7782C60.0904 34.0059 58.1898 33.8175 56.379 34.2427C55.4918 34.4825 54.6565 35.4417 53.9252 35.6375C52.958 35.8893 51.783 34.8382 50.9437 34.4665C49.8981 33.9718 48.7924 33.6157 47.6545 33.4074C43.0225 32.7879 38.966 35.09 35.449 37.8036C34.3659 38.6349 33.5866 39.2344 32.7273 39.4023C29.9777 39.8459 28.423 40.7651 27.9794 42.1199C27.7236 42.8753 27.7036 44.0862 29.0784 45.569C30.5652 47.1676 32.1278 47.3155 33.3028 46.9798C35.389 47.859 39.5375 48.3426 41.9234 48.5504C41.4119 50.3129 39.8452 61.919 39.5854 66.2433C39.5575 66.7468 39.5455 67.2544 39.5535 67.7659C39.6734 76.2467 44.801 83.2607 49.7887 89.6472C51.1475 91.3857 51.8509 93.2441 52.7781 95.1745C54.5206 98.8153 56.8946 102.368 57.8977 106.345C58.6091 109.178 59.0128 112.068 59.6962 114.906C60.4955 118.219 61.123 124.098 61.1749 127.583C61.1949 128.782 60.6194 131.663 61.3068 132.451C62.5737 133.897 65.1715 133.502 65.783 132.203C66.2026 131.315 65.5392 128.818 65.4753 127.858C65.1635 123.25 64.7599 115.521 64.6759 110.905C64.624 107.204 63.5489 95.0785 62.9654 91.038C69.0162 93.9875 78.9917 95.1545 85.4981 93.324C86.0057 93.1802 90.9334 110.046 91.2452 111.089C92.2403 114.422 90.9414 116.057 89.3908 118.858C88.1198 121.144 87.0528 126.691 86.4293 129.249C85.4381 133.29 86.2455 133.082 89.9663 133.366C90.0662 131.064 91.2851 126.771 92.3642 124.809C93.4793 122.755 95.4695 119.154 96.2129 116.92C97.1961 113.934 96.161 112.484 95.3217 109.63C94.6622 107.372 94.2186 100.27 94.1826 97.9241C94.2386 101.769 96.9802 108.675 98.4989 111.996C100.225 115.745 100.042 123.514 99.5421 127.583C99.2183 130.164 98.2791 133.334 98.8786 134.145C99.4781 134.956 101.652 135.384 102.875 134.749C104.098 134.113 103.718 131.915 103.758 129.593C103.85 124.397 104.41 116.005 105.217 110.861C105.221 110.793 105.221 110.725 105.217 110.657C105.213 110.435 105.154 110.218 105.044 110.026C104.935 109.833 104.778 109.671 104.59 109.554C100.965 107.368 105.077 94.1673 105.469 91.2179C106.005 87.1533 105.537 83.0449 105.469 78.9524C105.465 77.8093 105.357 76.1548 105.913 74.9678ZM83.9674 92.2809C83.9546 92.0443 84.0086 91.8089 84.1233 91.6015C84.0465 91.8216 83.9943 92.0494 83.9674 92.2809Z" fill="white"/>
<path d="M47.0591 83.4644C48.1981 85.7944 48.2581 88.9357 48.7177 91.4575C49.2812 94.5708 50.1245 97.6402 50.656 100.754C51.4074 105.15 52.5024 109.518 52.6063 113.942C52.6823 117.052 52.8541 120.201 52.7382 123.294C52.6943 124.445 52.7662 125.548 52.6343 126.675C52.5184 127.642 51.9229 128.837 52.0788 129.793C52.2946 131.128 53.2378 130.944 54.6526 130.92C56.2512 130.896 56.8107 131.116 57.0505 129.721C57.4022 127.618 56.6908 125.48 56.6509 123.378C56.5829 118.774 57.0505 114.322 56.7628 109.638C56.547 106.825 56.555 104 56.7868 101.189C57.0066 98.7552 57.4942 96.2614 57.4382 93.8235L47.0591 83.4644Z" fill="white"/>
<path d="M71.79 6.82216C71.8339 6.58636 71.4303 6.50244 71.3903 6.73823C70.9906 8.73652 71.3064 10.463 70.1913 12.2975C69.5918 13.2766 68.7206 13.9401 67.9333 14.6754C68.2 13.1292 68.3058 11.5595 68.249 9.99145C68.193 8.20897 67.4697 5.71911 65.943 4.66401C65.7152 4.50415 65.4794 4.85984 65.7032 5.0237C68.1011 6.84614 66.8542 13.0728 66.3306 15.3269C66.0311 16.5506 65.6121 17.742 65.0797 18.8838C64.9798 17.6732 64.7942 16.4712 64.5242 15.2869C63.8967 12.2975 62.386 9.5798 59.4046 8.49273C59.1568 8.40081 58.953 8.78448 59.1968 8.91637C64.1605 11.686 63.7009 18.4362 62.5779 23.0682C62.5499 23.1811 62.5499 23.2991 62.5779 23.4119C62.402 23.6957 62.2302 23.9755 62.0543 24.2472C61.7287 24.7576 61.3737 25.2487 60.9912 25.718C61.1246 24.6577 61.1567 23.5871 61.0871 22.5207C60.8753 19.2195 59.7882 16.6138 57.1465 14.5755C56.8987 14.3877 56.6469 14.7793 56.8787 14.9752C58.961 16.7377 59.4485 20.0189 59.5205 22.6086C59.5804 24.7628 58.4614 26.6052 58.2176 28.6035C57.1945 29.5147 56.1234 30.378 55.0643 31.2532C53.6255 32.4282 52.1868 33.6512 50.4642 34.3785C49.3932 34.8342 48.382 35.1779 47.5308 35.9772C46.4916 36.9643 47.8825 38.5989 48.9935 37.6677C50.2284 36.6366 51.911 36.4688 53.1819 35.4736C54.8525 34.1907 56.4671 32.8439 58.0577 31.477C61.0472 28.8793 63.4291 26.1576 65.1876 22.5727C66.1942 20.582 66.9886 18.4909 67.5576 16.334C67.7654 16.4259 70.7548 14.2198 71.5222 12.7731C72.5693 10.8147 71.4383 8.85642 71.79 6.82216Z" fill="white"/>
<path d="M56.7548 21.3618C56.7585 21.3088 56.741 21.2565 56.7061 21.2164C56.6713 21.1763 56.6219 21.1516 56.5689 21.1479C56.5159 21.1442 56.4636 21.1617 56.4235 21.1966C56.3834 21.2314 56.3588 21.2808 56.3551 21.3338C56.2113 23.5199 54.8924 24.8388 53.4296 26.3655C52.7827 27.0071 52.067 27.5754 51.2955 28.06C52.0638 26.2287 52.619 24.3151 52.95 22.3569C53.1309 21.1079 53.2004 19.8454 53.1579 18.5841C53.1859 18.5705 53.2126 18.5545 53.2378 18.5362C54.177 17.6769 54.5087 16.0943 54.8844 14.9393C55.4279 13.2527 54.4568 11.742 54.6046 10.0395C54.6067 10.0132 54.6036 9.98682 54.5955 9.96177C54.5874 9.93672 54.5745 9.91351 54.5574 9.89347C54.5229 9.853 54.4738 9.82788 54.4208 9.82364C54.3678 9.8194 54.3153 9.83639 54.2748 9.87087C54.2343 9.90534 54.2092 9.95449 54.205 10.0075C53.9732 11.5701 54.3648 13.0369 53.8053 14.5756C53.5655 15.259 53.2778 15.9144 52.986 16.5739C52.6063 13.5884 51.5552 10.6629 49.517 8.73657C49.3132 8.54074 48.9695 8.82849 49.1773 9.03232C51.6791 11.4582 52.0788 15.5667 51.6751 19.4234C51.5472 19.0238 51.4154 18.6641 51.2755 18.3164C50.672 16.6378 49.5929 14.8913 47.9823 14.036C47.7425 13.9041 47.4987 14.2439 47.7425 14.3997C48.9415 15.1671 49.553 16.9375 50.0365 18.2244C50.728 20.0509 50.5441 21.8214 50.9158 23.6318C50.7879 24.1474 50.656 24.6429 50.5161 25.1025C50.2694 25.9481 49.9622 26.7749 49.5969 27.5764C49.2292 24.2872 47.9224 20.9781 45.5124 19.6073C45.3526 19.5193 45.0808 19.6073 45.0888 19.8151V19.907C45.0893 19.9612 45.1082 20.0136 45.1423 20.0557C45.1764 20.0978 45.2237 20.1271 45.2766 20.1388C45.0888 20.1388 44.9409 19.935 45.1847 20.4465C45.952 22.0452 47.127 23.0523 47.5826 24.8867C48.1422 27.0529 47.6746 29.3269 47.6906 31.533L47.4108 32.1685C46.5435 34.2267 44.0137 35.2419 43.4942 37.396C43.4207 37.6477 43.4472 37.918 43.5679 38.1507C43.6886 38.3834 43.8944 38.5606 44.1425 38.6455C44.3905 38.7305 44.6617 38.7165 44.8997 38.6066C45.1377 38.4967 45.3243 38.2993 45.4205 38.0554C46 36.8365 47.2589 36.1411 48.0383 35.086C48.5185 34.3771 48.9422 33.6314 49.3052 32.8559C49.4211 32.5921 49.533 32.3204 49.6449 32.0566C49.7568 31.7928 49.9047 31.4131 50.0445 31.0934C50.1034 31.0734 50.1597 31.0466 50.2124 31.0135C52.0068 29.9355 53.6244 28.5875 55.0083 27.0169C55.6954 26.2299 56.2661 25.3483 56.7028 24.3991C57.1265 23.424 56.7268 22.3209 56.7548 21.3618Z" fill="white"/>
<path d="M68.9603 72.338C68.7994 72.3082 68.6363 72.2921 68.4727 72.29C68.3869 72.286 68.3022 72.2699 68.2209 72.2421C68.133 72.2181 68.0371 72.282 67.9572 72.2421C67.7813 72.1901 67.6814 72.3899 67.7453 72.5298C67.8093 72.6697 67.7853 72.8096 67.9532 72.9295C68.087 73.0075 68.2291 73.0705 68.3768 73.1173C68.6446 73.2092 69.1761 73.2052 69.316 72.8855C69.4279 72.6457 69.2121 72.4139 68.9603 72.338Z" fill="#303030"/>
<path d="M75.8384 72.8737C75.6996 72.6912 75.5232 72.5408 75.3212 72.4325C75.1192 72.3243 74.8962 72.2607 74.6674 72.2462C74.1679 72.1623 73.5724 72.0184 73.1687 72.3781C73.126 72.4227 73.1021 72.4821 73.1021 72.5439C73.1021 72.6057 73.126 72.6652 73.1687 72.7098C73.5124 73.0295 74.02 72.9816 74.4636 73.0575C74.8699 73.173 75.2945 73.2096 75.7145 73.1654C75.7442 73.1577 75.7717 73.1433 75.7949 73.1233C75.8181 73.1033 75.8364 73.0783 75.8484 73.0501C75.8604 73.0219 75.8657 72.9913 75.864 72.9607C75.8622 72.9301 75.8535 72.9003 75.8384 72.8737Z" fill="#303030"/>
<path d="M77.9366 74.9917C77.7761 74.9075 77.599 74.8599 77.4179 74.8523C77.2369 74.8447 77.0564 74.8773 76.8895 74.9477C76.8501 74.958 76.8153 74.9811 76.7905 75.0132C76.7657 75.0454 76.7522 75.0849 76.7522 75.1256C76.7522 75.1662 76.7657 75.2057 76.7905 75.2379C76.8153 75.2701 76.8501 75.2931 76.8895 75.3034C77.0582 75.3702 77.2396 75.3988 77.4206 75.387C77.6017 75.3753 77.7779 75.3235 77.9366 75.2355C77.9572 75.2225 77.9742 75.2045 77.986 75.1832C77.9978 75.1619 78.004 75.1379 78.004 75.1136C78.004 75.0892 77.9978 75.0652 77.986 75.0439C77.9742 75.0226 77.9572 75.0046 77.9366 74.9917Z" fill="#303030"/>
<path d="M81.3098 73.1373C81.0061 72.338 79.6832 72.5578 79.0078 72.3979C78.926 72.3964 78.8457 72.42 78.7777 72.4656C78.7097 72.5111 78.6574 72.5765 78.6278 72.6527C78.5981 72.729 78.5926 72.8125 78.612 72.892C78.6313 72.9715 78.6746 73.0432 78.736 73.0973C79.4982 73.4208 80.3335 73.5327 81.1539 73.421C81.2112 73.4025 81.2593 73.3629 81.2883 73.3101C81.3172 73.2574 81.3249 73.1955 81.3098 73.1373Z" fill="#303030"/>
<path d="M84.1952 73.9046C83.6996 73.7247 83.296 74.1204 82.9243 74.3842C82.5526 74.648 82.7844 75.2914 83.232 75.1116C83.607 74.9751 83.963 74.7911 84.2911 74.564C84.3512 74.5267 84.399 74.4726 84.4288 74.4085C84.4585 74.3443 84.469 74.2729 84.4588 74.2029C84.4486 74.133 84.4183 74.0675 84.3715 74.0145C84.3246 73.9615 84.2634 73.9233 84.1952 73.9046Z" fill="#303030"/>
<path d="M86.1376 71.9384C85.8538 71.7186 85.4821 71.7945 85.1504 71.7066C85.1026 71.6951 85.0523 71.7012 85.0086 71.7239C84.965 71.7466 84.9311 71.7843 84.9131 71.8301C84.895 71.8759 84.8942 71.9266 84.9106 71.9729C84.9271 72.0193 84.9597 72.0581 85.0026 72.0823C85.1612 72.2118 85.3566 72.288 85.5611 72.3002C85.7655 72.3124 85.9686 72.2599 86.1416 72.1502C86.1554 72.1362 86.1664 72.1195 86.1737 72.1012C86.181 72.0828 86.1846 72.0632 86.1843 72.0435C86.1839 72.0237 86.1796 72.0042 86.1715 71.9862C86.1635 71.9682 86.152 71.9519 86.1376 71.9384Z" fill="#303030"/>
<path d="M90.25 72.9775C90.0542 72.6418 89.4507 72.9255 89.1989 73.0095C88.9805 73.0753 88.7701 73.1651 88.5715 73.2772C88.3517 73.4051 88.3077 73.585 88.2038 73.7808C88.1827 73.8203 88.175 73.8656 88.1817 73.9099C88.1885 73.9542 88.2094 73.9951 88.2413 74.0266C88.2732 74.058 88.3144 74.0783 88.3588 74.0844C88.4031 74.0906 88.4483 74.0822 88.4875 74.0605C88.3996 74.1005 88.5995 74.0605 88.6154 74.0605L88.9751 73.9966C89.1949 73.9486 89.4187 73.9167 89.6306 73.8647C89.9703 73.7768 90.4938 73.3931 90.25 72.9775Z" fill="#303030"/>
<path d="M91.6209 70.5635C91.316 70.5515 91.0111 70.5879 90.7176 70.6714C90.4027 70.7059 90.1058 70.8356 89.8664 71.0431C89.8206 71.0926 89.7952 71.1575 89.7952 71.2249C89.7952 71.2924 89.8206 71.3573 89.8664 71.4068C90.298 71.8464 91.2252 71.6106 91.7568 71.5147C92.2883 71.4188 92.1404 70.5955 91.6209 70.5635Z" fill="#303030"/>
<path d="M94.6783 72.6657C94.3853 72.8018 94.1079 72.9693 93.8511 73.1653C93.6272 73.3051 93.8271 73.6089 94.0549 73.5089C94.2875 73.423 94.5344 73.3823 94.7822 73.3891C95.3338 73.397 95.1779 72.4898 94.6783 72.6657Z" fill="#303030"/>
<path d="M85.5302 77.5336C85.2784 77.1339 84.7308 77.2418 84.3312 77.1339C84.0714 77.058 83.9755 77.4137 84.1713 77.5336C84.547 77.7974 85.1705 78.3329 85.5501 77.7334C85.5633 77.701 85.5683 77.6659 85.5648 77.631C85.5613 77.5962 85.5494 77.5628 85.5302 77.5336Z" fill="#303030"/>
<path d="M80.1588 78.201C80.0787 78.0236 79.9366 77.8815 79.7591 77.8014C79.579 77.7349 79.393 77.6854 79.2036 77.6535C79.0038 77.6015 78.804 77.8853 78.9998 78.0252C79.1956 78.1651 79.2476 78.3169 79.3994 78.4248C79.4824 78.4947 79.5807 78.5438 79.6863 78.5681C79.7919 78.5924 79.9018 78.5913 80.0069 78.5647C80.0414 78.5516 80.0728 78.5316 80.0993 78.5059C80.1258 78.4803 80.1467 78.4495 80.1609 78.4155C80.1752 78.3815 80.1823 78.3449 80.1819 78.308C80.1815 78.2712 80.1737 78.2348 80.1588 78.201Z" fill="#303030"/>
<path d="M57.0145 64.4447C56.8866 64.3448 56.6628 64.2449 56.5869 64.117C56.4766 63.8892 56.3294 63.6812 56.1513 63.5015C56.1166 63.4681 56.071 63.4483 56.0229 63.4458C55.9748 63.4433 55.9274 63.4583 55.8895 63.488C55.8515 63.5176 55.8256 63.56 55.8164 63.6073C55.8072 63.6546 55.8154 63.7036 55.8395 63.7453C55.8935 63.9574 55.927 64.1742 55.9394 64.3927C56.0017 64.6136 56.1442 64.8032 56.3391 64.9243C56.6024 65.1666 56.9 65.3686 57.2223 65.5238C57.2644 65.5337 57.3086 65.5298 57.3482 65.5125C57.3879 65.4952 57.4208 65.4655 57.4421 65.4279C57.658 65.0082 57.3342 64.6765 57.0145 64.4447Z" fill="#303030"/>
<path d="M62.5538 67.682C62.4784 67.576 62.373 67.495 62.2512 67.4494C62.1294 67.4038 61.9968 67.3957 61.8703 67.4262C61.7958 67.4398 61.7297 67.4823 61.6863 67.5444C61.6429 67.6065 61.6257 67.6832 61.6385 67.7579C61.6325 67.8695 61.6638 67.98 61.7275 68.0719C61.7911 68.1638 61.8836 68.2319 61.9902 68.2655C62.0877 68.3147 62.1965 68.337 62.3054 68.3299C62.4144 68.3229 62.5194 68.2869 62.6097 68.2255C62.7736 68.0616 62.6737 67.8338 62.5538 67.682Z" fill="#303030"/>
<path d="M61.5507 71.7824C61.5088 71.7489 61.456 71.7322 61.4025 71.7355C61.349 71.7388 61.2986 71.7619 61.2612 71.8003C61.2238 71.8387 61.202 71.8897 61.2001 71.9433C61.1982 71.9968 61.2163 72.0492 61.2509 72.0902C61.4028 72.27 61.5467 72.4499 61.6826 72.6417C61.8147 72.8746 62.0082 73.0668 62.2421 73.1972C62.2754 73.2151 62.3128 73.2241 62.3507 73.2233C62.3885 73.2225 62.4255 73.2119 62.4581 73.1926C62.4906 73.1733 62.5176 73.146 62.5365 73.1132C62.5554 73.0804 62.5655 73.0432 62.5658 73.0054C62.5458 72.4698 61.9264 72.0782 61.5507 71.7824Z" fill="#303030"/>
<path d="M58.2016 67.586C57.9618 67.4581 57.8019 67.7219 57.8858 67.9217C57.8904 67.9412 57.9 67.9592 57.9138 67.9737C57.9132 68.0085 57.9249 68.0424 57.9468 68.0695C57.9687 68.0965 57.9995 68.115 58.0337 68.1216C58.2295 68.3334 58.5013 68.5212 58.7651 68.4533C58.8008 68.4443 58.8334 68.4258 58.8594 68.3998C58.8855 68.3737 58.904 68.3411 58.9129 68.3054C58.9849 67.8818 58.4933 67.7419 58.2016 67.586Z" fill="#303030"/>
<path d="M56.3552 59.8166C56.0714 59.5888 55.6918 59.4849 55.7917 59.0453C55.7999 59.0015 55.7912 58.9561 55.7673 58.9185C55.7434 58.8809 55.7061 58.8537 55.6629 58.8425C55.6198 58.8313 55.5739 58.837 55.5348 58.8583C55.4956 58.8796 55.466 58.915 55.452 58.9574C55.4104 59.0841 55.3994 59.2189 55.4198 59.3507C55.4402 59.4825 55.4914 59.6077 55.5693 59.716C55.6472 59.8242 55.7496 59.9126 55.8681 59.9738C55.9866 60.0351 56.1179 60.0675 56.2513 60.0684C56.2803 60.0682 56.3087 60.0593 56.3328 60.0431C56.3568 60.0268 56.3756 60.0038 56.3867 59.9769C56.3978 59.9501 56.4007 59.9206 56.3951 59.892C56.3895 59.8635 56.3756 59.8373 56.3552 59.8166Z" fill="#303030"/>
<path d="M67.9451 75.9349C67.5895 75.763 67.1778 75.7471 66.8101 75.6112C66.5423 75.5113 66.3745 75.847 66.4784 76.0508C66.6108 76.2654 66.7953 76.4431 67.0146 76.5674C67.234 76.6918 67.4812 76.7588 67.7333 76.7622C67.83 76.7599 67.9232 76.726 67.9989 76.6658C68.0745 76.6056 68.1284 76.5224 68.1524 76.4287C68.1764 76.3351 68.1691 76.2362 68.1317 76.147C68.0943 76.0579 68.0288 75.9834 67.9451 75.9349Z" fill="#303030"/>
<path d="M66.6983 70.6595C66.4745 70.2598 66.0188 70.1359 65.6352 69.9561C65.2515 69.7762 64.7879 69.5924 64.3842 69.8921C64.3632 69.9057 64.3454 69.9238 64.3322 69.9451C64.3191 69.9664 64.3108 69.9904 64.3082 70.0153C64.3055 70.0403 64.3084 70.0655 64.3167 70.0891C64.3251 70.1127 64.3386 70.1342 64.3563 70.1519C64.6864 70.4075 65.0428 70.6272 65.4194 70.8074C65.7751 71.0352 66.2187 71.263 66.6183 70.9832C66.671 70.9502 66.7089 70.8979 66.7238 70.8375C66.7387 70.7771 66.7295 70.7133 66.6983 70.6595Z" fill="#303030"/>
<path d="M74.1519 75.3874C74.0434 75.1924 73.867 75.0439 73.6563 74.9703C73.4457 74.8966 73.2153 74.9028 73.0088 74.9877C72.9653 74.9971 72.9259 75.0198 72.896 75.0529C72.8662 75.0859 72.8475 75.1275 72.8426 75.1717C72.8378 75.2159 72.847 75.2606 72.8689 75.2993C72.8908 75.338 72.9244 75.3688 72.9649 75.3874C73.2808 75.6046 73.6619 75.7062 74.044 75.6752C74.0737 75.6684 74.1013 75.6544 74.1243 75.6344C74.1472 75.6144 74.1649 75.5889 74.1756 75.5604C74.1863 75.5319 74.1897 75.5011 74.1856 75.4709C74.1814 75.4407 74.1699 75.412 74.1519 75.3874Z" fill="#303030"/>
<path d="M74.9353 77.8692C74.6081 77.6863 74.239 77.5913 73.8642 77.5934C73.4778 77.5302 73.0823 77.5521 72.7052 77.6573C72.6369 77.6778 72.577 77.7198 72.5344 77.7771C72.4918 77.8343 72.4688 77.9037 72.4688 77.9751C72.4688 78.0464 72.4918 78.1158 72.5344 78.1731C72.577 78.2303 72.6369 78.2723 72.7052 78.2928C73.0949 78.41 73.4976 78.4785 73.9042 78.4966C74.2599 78.5655 74.6286 78.5045 74.9433 78.3248C74.9817 78.3001 75.0132 78.266 75.0347 78.2258C75.0563 78.1855 75.0672 78.1404 75.0663 78.0947C75.0655 78.0491 75.0531 78.0044 75.0301 77.9649C75.0072 77.9254 74.9745 77.8925 74.9353 77.8692Z" fill="#303030"/>
<path d="M70.3991 80.3671C70.1393 79.9955 69.5758 80.1873 69.2001 80.2872C69.1529 80.3002 69.1112 80.3283 69.0814 80.3673C69.0517 80.4063 69.0356 80.454 69.0356 80.503C69.0356 80.552 69.0517 80.5997 69.0814 80.6387C69.1112 80.6777 69.1529 80.7058 69.2001 80.7188C69.5718 80.8107 70.1433 80.9826 70.3991 80.6029C70.4187 80.5667 70.429 80.5262 70.429 80.485C70.429 80.4439 70.4187 80.4033 70.3991 80.3671Z" fill="#303030"/>
<path d="M61.4028 76.5704C61.3656 76.5519 61.3235 76.5457 61.2826 76.5527C61.2417 76.5598 61.204 76.5796 61.1751 76.6094C61.1462 76.6392 61.1275 76.6774 61.1217 76.7185C61.116 76.7596 61.1234 76.8015 61.143 76.8381C61.3108 77.0819 61.3948 77.4096 61.6785 77.5415C61.7074 77.5571 61.7394 77.566 61.7721 77.5674C61.8048 77.5688 61.8375 77.5627 61.8675 77.5496C61.8976 77.5365 61.9242 77.5167 61.9455 77.4918C61.9668 77.4668 61.9821 77.4374 61.9903 77.4056C62.0462 76.982 61.7185 76.7782 61.4028 76.5704Z" fill="#303030"/>
<path d="M56.6229 71.6625C56.5581 71.5827 56.4678 71.5277 56.3672 71.5066C56.3533 71.4536 56.3223 71.4066 56.2789 71.373C56.2355 71.3395 56.1822 71.3213 56.1274 71.3213C56.0725 71.3213 56.0192 71.3395 55.9758 71.373C55.9324 71.4066 55.9014 71.4536 55.8876 71.5066C55.8876 71.5826 55.8116 71.6865 55.7837 71.7864C55.763 71.8775 55.7785 71.973 55.827 72.0528C55.8755 72.1326 55.9531 72.1904 56.0434 72.214C56.1467 72.2465 56.2572 72.2483 56.3615 72.2192C56.4657 72.1901 56.5593 72.1314 56.6309 72.0502C56.6561 72.0244 56.676 71.9938 56.6892 71.9602C56.7025 71.9266 56.709 71.8908 56.7082 71.8547C56.7075 71.8186 56.6996 71.783 56.6849 71.75C56.6703 71.717 56.6492 71.6873 56.6229 71.6625Z" fill="#303030"/>
<path d="M77.7208 81.4582C77.5876 81.3818 77.4367 81.3416 77.2832 81.3416C77.1296 81.3416 76.9787 81.3818 76.8456 81.4582C76.7917 81.4857 76.7453 81.5259 76.7105 81.5753C76.6757 81.6248 76.6534 81.682 76.6457 81.742C76.6309 81.7637 76.6176 81.7864 76.6058 81.8099C76.5814 81.8575 76.5699 81.9107 76.5724 81.9642C76.5749 82.0176 76.5912 82.0695 76.6199 82.1147C76.6485 82.1599 76.6885 82.1968 76.7358 82.2219C76.783 82.2469 76.836 82.2592 76.8895 82.2575C76.9488 82.2879 77.0147 82.303 77.0814 82.3015C77.3117 82.3002 77.5372 82.2352 77.7328 82.1136C77.7916 82.0808 77.8403 82.0327 77.8738 81.9743C77.9074 81.916 77.9244 81.8496 77.9232 81.7823C77.922 81.715 77.9025 81.6493 77.8668 81.5923C77.8312 81.5352 77.7807 81.4888 77.7208 81.4582Z" fill="#303030"/>
<path d="M84.0035 79.8834C83.8741 79.7186 83.6852 79.6112 83.4774 79.5843C83.2696 79.5573 83.0595 79.6131 82.8924 79.7395C82.8468 79.7664 82.809 79.8046 82.7828 79.8505C82.7565 79.8965 82.7427 79.9484 82.7427 80.0013C82.7427 80.0542 82.7565 80.1062 82.7828 80.1521C82.809 80.198 82.8468 80.2363 82.8924 80.2631C83.0628 80.3836 83.2736 80.4327 83.4798 80.3998C83.6859 80.367 83.871 80.2548 83.9955 80.0872C84.0142 80.0568 84.0248 80.0221 84.0262 79.9864C84.0276 79.9507 84.0198 79.9152 84.0035 79.8834Z" fill="#303030"/>
<path d="M91.3412 77.5055C91.2036 77.4585 91.0571 77.4438 90.913 77.4625C90.7688 77.4812 90.6309 77.5328 90.5099 77.6134C90.3603 77.7069 90.2186 77.8125 90.0863 77.9291C89.9504 78.041 89.9264 78.1969 89.8145 78.3288C89.7668 78.3775 89.7404 78.4433 89.7412 78.5115C89.7419 78.5797 89.7697 78.6448 89.8185 78.6925C89.8673 78.7402 89.933 78.7665 90.0012 78.7658C90.0694 78.7651 90.1345 78.7372 90.1822 78.6885C90.2501 78.6325 90.406 78.6485 90.4939 78.6085C90.6498 78.5366 90.8096 78.4767 90.9735 78.4047C91.1097 78.3449 91.2272 78.2495 91.3137 78.1285C91.4002 78.0075 91.4525 77.8655 91.4651 77.7173C91.465 77.6742 91.4535 77.6319 91.4317 77.5947C91.41 77.5575 91.3787 77.5267 91.3412 77.5055Z" fill="#303030"/>
<path d="M88.8352 75.3114C88.6949 75.2682 88.5451 75.2659 88.4035 75.3048C88.2619 75.3438 88.1344 75.4223 88.0359 75.5312C87.9798 75.5874 87.9482 75.6636 87.9482 75.7431C87.9482 75.8225 87.9798 75.8987 88.0359 75.9549C88.2277 76.1068 88.4915 76.2946 88.7593 76.1867C88.9511 76.1068 89.2589 75.9869 89.2549 75.7271C89.2509 75.4673 89.0151 75.3794 88.8352 75.3114Z" fill="#303030"/>
<path d="M59.6842 70.9391C59.5803 70.7753 59.4085 70.7793 59.2846 70.6674C58.9808 70.4156 58.5532 70.8552 58.8569 71.103C59.0967 71.2948 59.4964 71.4507 59.6962 71.123C59.711 71.0941 59.7177 71.0618 59.7155 71.0294C59.7134 70.997 59.7026 70.9658 59.6842 70.9391Z" fill="#303030"/>
<path d="M70.5829 74.8358C70.4911 74.8368 70.4007 74.8588 70.3187 74.9002C70.2367 74.9417 70.1654 75.0014 70.1102 75.0748C70.0549 75.1481 70.0173 75.2332 70.0002 75.3235C69.9831 75.4137 69.9869 75.5066 70.0114 75.5952V75.6351C70.0488 75.759 70.1249 75.8677 70.2284 75.9453C70.3319 76.0229 70.4575 76.0655 70.5869 76.0668C70.7168 76.0657 70.8427 76.021 70.9441 75.9398C71.0456 75.8586 71.1168 75.7457 71.1464 75.6191C71.171 75.5299 71.1753 75.4363 71.159 75.3452C71.1427 75.2541 71.1062 75.1678 71.0521 75.0926C70.9981 75.0175 70.9279 74.9554 70.8467 74.911C70.7655 74.8665 70.6753 74.8408 70.5829 74.8358Z" fill="#303030"/>
<path d="M53.3697 54.4215C53.2458 54.2776 53.0659 54.4414 53.0859 54.5893C53.0813 54.9029 53.0946 55.2165 53.1259 55.5285C53.1858 55.7683 53.3857 56.172 53.7014 55.9841C54.205 55.6884 53.6295 54.7212 53.3697 54.4215Z" fill="#303030"/>
<path d="M53.9892 59.393C53.9659 59.3157 53.9183 59.248 53.8535 59.1999C53.7887 59.1517 53.7102 59.1257 53.6295 59.1257C53.5488 59.1257 53.4702 59.1517 53.4054 59.1999C53.3406 59.248 53.2931 59.3157 53.2698 59.393C53.2364 59.4939 53.2162 59.5986 53.2098 59.7047C53.1818 60.2522 54.1011 60.2363 54.0531 59.7047C54.0473 59.5982 54.0257 59.4932 53.9892 59.393Z" fill="#303030"/>
<path d="M54.0132 67.9776C53.9865 67.8876 53.9314 67.8086 53.8561 67.7524C53.7809 67.6962 53.6895 67.6659 53.5956 67.6659C53.5016 67.6659 53.4102 67.6962 53.335 67.7524C53.2597 67.8086 53.2046 67.8876 53.1779 67.9776V68.0536C53.164 68.1177 53.1646 68.1842 53.1797 68.2481C53.1949 68.3119 53.2241 68.3716 53.2653 68.4227C53.3065 68.4738 53.3586 68.515 53.4179 68.5434C53.4771 68.5717 53.5419 68.5864 53.6075 68.5864C53.6732 68.5864 53.738 68.5717 53.7972 68.5434C53.8564 68.515 53.9086 68.4738 53.9498 68.4227C53.991 68.3716 54.0202 68.3119 54.0353 68.2481C54.0505 68.1842 54.0511 68.1177 54.0372 68.0536L54.0132 67.9776Z" fill="#303030"/>
<path d="M53.062 63.054C52.9828 63.0628 52.9097 63.1005 52.8566 63.1598C52.8035 63.2192 52.7742 63.296 52.7742 63.3757C52.7742 63.4553 52.8035 63.5322 52.8566 63.5915C52.9097 63.6509 52.9828 63.6886 53.062 63.6974C53.1411 63.6886 53.2143 63.6509 53.2673 63.5915C53.3204 63.5322 53.3498 63.4553 53.3498 63.3757C53.3498 63.296 53.3204 63.2192 53.2673 63.1598C53.2143 63.1005 53.1411 63.0628 53.062 63.054Z" fill="#303030"/>
<rect x="5.5" y="1.5" width="137" height="137" stroke="#D8E1E5" stroke-width="3"/>
</g>
<defs>
<filter id="filter0_d" x="0" y="0" width="148" height="148" filterUnits="userSpaceOnUse" color-interpolation-filters="sRGB">
<feFlood flood-opacity="0" result="BackgroundImageFix"/>
<feColorMatrix in="SourceAlpha" type="matrix" values="0 0 0 0 0 0 0 0 0 0 0 0 0 0 0 0 0 0 127 0"/>
<feOffset dy="4"/>
<feGaussianBlur stdDeviation="2"/>
<feColorMatrix type="matrix" values="0 0 0 0 0 0 0 0 0 0 0 0 0 0 0 0 0 0 0.25 0"/>
<feBlend mode="normal" in2="BackgroundImageFix" result="effect1_dropShadow"/>
<feBlend mode="normal" in="SourceGraphic" in2="effect1_dropShadow" result="shape"/>
</filter>
</defs>
</svg>
