<svg width="148" height="149" viewBox="0 0 148 149" fill="none" xmlns="http://www.w3.org/2000/svg">
<g filter="url(#filter0_d)">
<g clip-path="url(#clip0)">
<path d="M144 0.932617H4V140.933H144V0.932617Z" fill="#BAD9E4"/>
<path d="M93.0836 49.4111C93.3654 49.4098 93.6438 49.4724 93.8979 49.5942C94.1519 49.716 94.375 49.8939 94.5504 50.1145C94.8609 50.5106 95.0322 50.998 95.0379 51.5013C95.0343 51.9965 94.8624 52.4756 94.5504 52.8601C94.3755 53.0731 94.1486 53.2373 93.8916 53.3367C93.6346 53.4362 93.3563 53.4675 93.0836 53.4277L81.8373 52.9401C81.5555 52.9414 81.2771 52.8788 81.023 52.757C80.769 52.6351 80.5459 52.4572 80.3705 52.2367C80.0584 51.8414 79.8869 51.3535 79.883 50.8499C79.8834 50.3542 80.0557 49.8739 80.3705 49.491C80.5471 49.2802 80.7742 49.1175 81.0308 49.0182C81.2873 48.919 81.5648 48.8864 81.8373 48.9235H82.6366C82.4927 46.2778 82.4754 43.6334 82.5846 40.9903C82.6939 38.3473 82.883 35.7215 83.1521 33.1131C83.4186 30.5073 83.745 27.9002 84.1313 25.2918C84.5176 22.6834 84.9066 20.0763 85.2983 17.4705C85.3343 17.3266 85.3902 17.1428 85.4622 16.927C84.2496 17.6966 82.9983 18.4035 81.7134 19.0451C81.468 19.1868 81.1934 19.2701 80.9106 19.2888C80.6279 19.3076 80.3447 19.2611 80.0828 19.153C79.6057 18.9608 79.2054 18.6167 78.9438 18.1739C78.6909 17.7499 78.5948 17.2507 78.672 16.7631C78.7199 16.4971 78.8345 16.2476 79.0051 16.0379C79.1756 15.8283 79.3965 15.6652 79.6472 15.5641C82.2769 14.2958 84.7401 12.7079 86.9809 10.8362C87.3923 10.5076 87.8976 10.3186 88.4236 10.2966C88.6933 10.2766 88.9639 10.32 89.2138 10.4234C89.4636 10.5268 89.6858 10.6874 89.8624 10.8921C90.2299 11.2794 90.5238 11.7304 90.7296 12.223C90.9135 12.684 91.0332 13.1681 91.0853 13.6618C91.1382 14.177 91.1649 14.6945 91.1653 15.2124C91.1653 15.736 91.2212 26.0511 91.2212 27.8936C91.2212 35.0314 91.112 42.1493 90.8935 49.2472L93.0836 49.4111ZM87.1287 34.364C86.8623 36.8259 86.6891 39.2785 86.6092 41.7217C86.5292 44.1649 86.5572 46.6362 86.6931 49.1353H86.857C87.0008 44.2142 87.1088 39.2718 87.1807 34.3081L87.1287 34.364ZM86.9089 15.9478H87.2366V15.7839L86.9089 15.9478Z" fill="#303030"/>
<path d="M73.8202 49.7467C73.6444 49.4992 73.4119 49.2975 73.1421 49.1584C72.8723 49.0193 72.5731 48.947 72.2695 48.9474L72.3734 49.0833L60.3077 48.3559C61.7518 46.7946 63.2173 45.1001 64.704 43.2723C66.1849 41.4387 67.5453 39.511 68.7765 37.5012C69.9898 35.5306 71.0429 33.4657 71.9258 31.3265C72.7625 29.3164 73.3205 27.2012 73.5844 25.0399C73.798 23.2057 73.5565 21.3472 72.881 19.6286C72.2235 17.9298 71.2237 16.3844 69.9435 15.0885C69.1292 13.7685 67.9697 12.6961 66.5904 11.9871C65.1916 11.2677 63.541 11.1398 61.6306 11.6194C61.2708 11.7062 60.9341 11.8698 60.6435 12.099L60.0759 12.2029C59.7361 12.2818 59.4206 12.4423 59.1567 12.6705C58.8327 12.8291 58.519 13.0079 58.2175 13.2061C57.1968 13.8506 56.3017 14.6753 55.5758 15.64C54.5167 17.1387 54.6406 19.5926 54.6366 21.3351C54.6276 21.4698 54.6584 21.6041 54.7252 21.7214C54.792 21.8386 54.8918 21.9336 55.0123 21.9945C55.4599 22.4901 56.475 22.3942 56.567 21.5589C56.567 21.479 56.5909 21.403 56.5989 21.3231C56.6862 21.2416 56.7568 21.1439 56.8068 21.0354C57.1185 20.32 57.4542 19.5566 57.8459 18.8133C58.6208 17.7847 59.6495 16.9749 60.8313 16.4633C61.1516 16.4933 61.4746 16.4607 61.7825 16.3674C62.5833 16.1163 63.4448 16.1374 64.2324 16.4273C65.0277 16.731 65.7398 17.2185 66.3106 17.8501C66.7697 18.9116 66.9802 20.0639 66.9261 21.2192C66.9171 22.3532 66.7324 23.4789 66.3785 24.5563C65.9 25.9265 65.3271 27.2619 64.664 28.5529C63.9926 29.8531 63.3265 31.1334 62.6657 32.3936C61.1683 35.2632 59.5697 38.0608 57.8698 40.7864C56.17 43.5121 54.3795 46.1965 52.4984 48.8395C52.2545 49.1609 52.1062 49.5446 52.0708 49.9466C52.0344 50.3391 52.0849 50.7348 52.2187 51.1056C52.3524 51.4682 52.5718 51.7932 52.8581 52.0528C53.1614 52.3234 53.5508 52.4777 53.9572 52.4884L71.706 53.4396C72.018 53.4854 72.3364 53.4552 72.6342 53.3515C72.932 53.2478 73.2004 53.0737 73.4165 52.8441C73.8097 52.4202 74.0635 51.886 74.1439 51.3134C74.2358 50.7691 74.1203 50.2101 73.8202 49.7467Z" fill="#303030"/>
<path d="M60.7274 97.1981C62.5818 97.1342 64.5361 97.274 66.3705 96.9823C67.5895 96.7865 68.7205 96.211 69.9674 95.9232C70.6748 95.7553 71.2424 95.3557 71.8778 95.1838C71.8139 97.4219 71.9737 99.628 71.8778 101.826C71.7608 103.052 71.7274 104.285 71.7779 105.515C71.8658 106.474 72.5412 107.605 72.3894 108.552C69.8036 108.984 66.8341 110.715 65.3274 112.861C63.7648 115.087 64.8678 117.533 64.5281 119.895C60.4476 119.783 53.7893 121.305 53.4216 126.261C51.9549 124.263 48.7137 124.411 46.6275 124.902C43.9897 125.522 41.5238 126.697 39.0779 127.828C40.5327 125.206 43.4302 120.714 41.284 117.864C45.0368 116.122 49.2452 111.826 45.4764 107.873C49.8727 107.893 53.3137 102.809 51.2835 98.7608C54.3848 98.0734 57.5101 97.302 60.7274 97.1981Z" fill="#778890"/>
<path d="M68.0771 93.2535C63.449 95.1119 61.4388 100.531 59.1367 104.556C57.4342 107.525 55.7596 110.515 54.0491 113.472C52.1627 116.729 48.6697 118.516 46.1239 121.166C46.0921 121.202 46.0739 121.248 46.0722 121.296C46.0706 121.344 46.0857 121.391 46.1149 121.429C46.1442 121.467 46.1857 121.494 46.2325 121.505C46.2794 121.516 46.3285 121.511 46.3717 121.489C51.1676 119.235 54.3289 115.494 56.8827 111.01C58.4254 108.301 60.0799 105.651 61.6106 102.929C63.3251 99.8918 64.9558 95.9712 68.4408 94.5804C69.2521 94.2447 68.8964 92.9138 68.0771 93.2535Z" fill="#A8B3B2"/>
<path d="M59.6084 112.793C59.551 112.704 59.4675 112.635 59.3695 112.596C59.2714 112.557 59.1636 112.549 59.0608 112.573C58.4054 112.673 58.2295 113.532 58.1456 114.084C57.9925 114.719 58.0572 115.388 58.3295 115.982C58.3673 116.044 58.4204 116.095 58.4837 116.131C58.5471 116.166 58.6185 116.185 58.6911 116.185C58.7638 116.185 58.8352 116.166 58.8985 116.131C58.9619 116.095 59.015 116.044 59.0528 115.982C59.2766 115.498 59.4223 114.981 59.4845 114.451C59.6004 113.944 59.9521 113.268 59.6084 112.793Z" fill="#A8B3B2"/>
<path d="M60.8033 108.245C60.3077 108.245 60.1479 108.9 60.1758 109.272C60.1884 109.527 60.2151 109.782 60.2558 110.035C60.3327 110.304 60.4514 110.559 60.6075 110.79C60.6261 110.827 60.6547 110.859 60.69 110.88C60.7252 110.902 60.7659 110.913 60.8073 110.913C60.8487 110.913 60.8893 110.902 60.9246 110.88C60.9599 110.859 60.9885 110.827 61.0071 110.79C61.1297 110.597 61.2353 110.394 61.3228 110.183C61.3945 109.884 61.4347 109.579 61.4427 109.272C61.4627 108.9 61.2989 108.245 60.8033 108.245Z" fill="#A8B3B2"/>
<path d="M51.8111 112.001C51.3994 112.1 51.0084 112.271 50.656 112.505C50.2441 112.797 49.788 113.021 49.3052 113.168C49.2578 113.182 49.2156 113.21 49.1837 113.247C49.1517 113.285 49.1315 113.331 49.1256 113.38C49.1196 113.429 49.1282 113.478 49.1501 113.523C49.1721 113.567 49.2066 113.603 49.2492 113.628C49.5088 113.751 49.7949 113.807 50.0817 113.792C50.3684 113.776 50.6468 113.69 50.8918 113.54C51.1664 113.415 51.4103 113.232 51.6064 113.002C51.8025 112.773 51.946 112.504 52.0269 112.213C52.0341 112.184 52.0335 112.153 52.0252 112.123C52.0168 112.094 52.001 112.067 51.9792 112.046C51.9575 112.025 51.9305 112.009 51.901 112.001C51.8715 111.994 51.8405 111.994 51.8111 112.001Z" fill="#A8B3B2"/>
<path d="M53.9572 107.865C53.5832 107.802 53.1989 107.862 52.8621 108.037C52.5056 108.084 52.1671 108.221 51.879 108.437C51.8463 108.469 51.8279 108.514 51.8279 108.56C51.8279 108.607 51.8463 108.651 51.879 108.684C52.0327 108.805 52.212 108.889 52.4032 108.93C52.5944 108.971 52.7923 108.967 52.982 108.92C53.2088 108.928 53.4341 108.881 53.6387 108.783C53.8433 108.685 54.0211 108.538 54.157 108.357C54.1819 108.312 54.1965 108.263 54.1996 108.212C54.2028 108.161 54.1945 108.11 54.1753 108.063C54.1561 108.016 54.1265 107.973 54.0888 107.939C54.051 107.905 54.006 107.88 53.9572 107.865Z" fill="#A8B3B2"/>
<path d="M81.9812 94.2686C84.6269 94.8041 87.5004 93.9848 89.8145 92.67C93.4314 90.6437 92.696 90.3639 96.169 92.3862C99.3663 94.2406 106.596 96.2069 109.701 93.3614C110.9 96.9583 117.902 99.1165 121.044 97.4259C123.334 102.893 130.024 101.718 134.456 100.863C133.237 105.259 130.715 108.96 129.98 113.748C125.14 111.634 118.106 117.485 116.26 121.905C112.199 117.613 104.973 115.91 99.7939 119.887C97.0563 115.275 91.9286 113.132 86.873 114.591C87.7282 106.126 79.843 102.789 73.8401 99.5601L81.9812 94.2686Z" fill="#778890"/>
<path d="M88.4316 101.682C88.3828 101.61 88.308 101.558 88.2227 101.539C88.1374 101.52 88.0478 101.534 87.9724 101.578C87.897 101.622 87.8413 101.694 87.8167 101.778C87.7921 101.862 87.8005 101.952 87.8402 102.03C88.1119 102.621 87.9161 103.429 88.4796 103.872C88.5064 103.899 88.5396 103.918 88.5759 103.927C88.6123 103.937 88.6506 103.937 88.6869 103.927C88.7233 103.918 88.7565 103.899 88.7832 103.872C88.8099 103.846 88.8293 103.813 88.8393 103.776C88.9735 103.052 88.8278 102.303 88.4316 101.682Z" fill="#778890"/>
<path d="M123.841 106.778C120.384 105.783 116.196 106.354 112.587 106.091C108.019 105.755 103.467 103.265 99.3982 101.331C95.4656 99.4643 92.0366 96.6227 88.032 94.7843C84.9346 93.3575 80.8382 91.6549 77.4011 92.3224C76.6977 92.4583 76.8136 93.4294 77.4011 93.6253C81.9332 95.1519 86.3294 96.0512 90.6817 98.2972C94.1947 100.12 97.3 102.526 100.985 104.016C108.031 106.874 116.192 109.791 123.841 107.126C123.877 107.113 123.909 107.09 123.931 107.059C123.953 107.027 123.965 106.99 123.965 106.952C123.965 106.914 123.953 106.876 123.931 106.845C123.909 106.814 123.877 106.79 123.841 106.778Z" fill="#A8B3B2"/>
<path d="M95.1459 107.158C94.6823 106.486 94.5784 105.599 94.2227 104.868C93.9989 104.412 93.3355 104.744 93.4234 105.203C93.7791 106.822 93.887 108.4 95.6295 109.076C95.8413 109.16 96.0012 108.924 95.9652 108.74C95.8147 108.158 95.5347 107.617 95.1459 107.158Z" fill="#A8B3B2"/>
<path d="M102.22 109.004C102.008 108.586 101.702 108.223 101.325 107.945C101.287 107.923 101.244 107.91 101.201 107.908C101.157 107.905 101.113 107.912 101.073 107.928C101.032 107.945 100.996 107.971 100.967 108.003C100.938 108.036 100.917 108.075 100.905 108.117C100.781 109 101.397 110.319 102.348 110.455C102.512 110.479 102.747 110.387 102.707 110.179C102.654 109.751 102.485 109.345 102.22 109.004Z" fill="#A8B3B2"/>
<path d="M100.585 113.476C100.324 113.131 100.036 112.807 99.7219 112.509C99.6829 112.475 99.6334 112.456 99.5817 112.454C99.53 112.453 99.4794 112.469 99.4384 112.5C99.3974 112.532 99.3687 112.577 99.357 112.627C99.3453 112.678 99.3514 112.73 99.3742 112.777C99.8099 113.468 99.8019 114.519 100.741 114.775C100.785 114.787 100.83 114.786 100.874 114.774C100.917 114.763 100.957 114.739 100.988 114.707C101.02 114.675 101.043 114.636 101.054 114.592C101.065 114.548 101.065 114.503 101.053 114.459C100.965 114.103 100.806 113.769 100.585 113.476Z" fill="#A8B3B2"/>
<path d="M108.746 114.116C108.482 113.812 108.167 113.56 107.907 113.252C107.694 112.91 107.441 112.594 107.152 112.313C107.116 112.29 107.076 112.276 107.035 112.272C106.993 112.267 106.951 112.273 106.912 112.288C106.873 112.304 106.838 112.328 106.81 112.359C106.782 112.391 106.762 112.428 106.752 112.469C106.709 112.906 106.834 113.343 107.1 113.692C107.363 114.153 107.724 114.55 108.159 114.855C108.212 114.893 108.274 114.917 108.339 114.927C108.404 114.936 108.47 114.93 108.532 114.91C108.594 114.889 108.65 114.854 108.697 114.808C108.743 114.762 108.778 114.705 108.798 114.643C108.95 114.511 108.874 114.264 108.746 114.116Z" fill="#A8B3B2"/>
<path d="M111.604 110.287C111.458 110.128 111.301 109.981 111.132 109.847C110.928 109.695 110.705 109.603 110.505 109.448C110.456 109.421 110.399 109.411 110.344 109.42C110.289 109.428 110.238 109.453 110.198 109.493C110.159 109.532 110.133 109.583 110.125 109.639C110.117 109.694 110.127 109.75 110.153 109.799C110.269 109.971 110.329 110.175 110.437 110.355C110.549 110.538 110.676 110.712 110.816 110.874C110.93 111.061 111.082 111.222 111.263 111.345C111.443 111.469 111.648 111.552 111.864 111.59C111.904 111.59 111.943 111.583 111.98 111.568C112.018 111.553 112.051 111.53 112.08 111.502C112.108 111.474 112.13 111.44 112.145 111.403C112.16 111.366 112.168 111.326 112.167 111.286C112.11 110.895 111.909 110.539 111.604 110.287Z" fill="#A8B3B2"/>
<path d="M121.367 112.193C120.845 112.01 120.294 111.924 119.741 111.937C119.209 111.918 118.77 111.726 118.258 111.937C118.205 111.954 118.159 111.987 118.127 112.032C118.094 112.076 118.076 112.13 118.076 112.185C118.076 112.241 118.094 112.294 118.127 112.339C118.159 112.383 118.205 112.416 118.258 112.433C119.249 112.833 120.348 113.057 121.367 112.657C121.429 112.657 121.488 112.632 121.531 112.589C121.575 112.546 121.599 112.487 121.599 112.425C121.599 112.364 121.575 112.305 121.531 112.261C121.488 112.218 121.429 112.193 121.367 112.193Z" fill="#A8B3B2"/>
<path d="M126.527 109.803C126.342 109.65 126.108 109.569 125.868 109.575C125.516 109.551 124.976 109.643 124.669 109.472C124.361 109.3 124.145 109.843 124.481 109.919C124.669 109.959 124.816 110.079 124.996 110.131C125.198 110.19 125.403 110.231 125.612 110.255C125.77 110.294 125.936 110.297 126.096 110.263C126.256 110.229 126.406 110.159 126.535 110.059C126.551 110.042 126.564 110.021 126.573 109.999C126.581 109.977 126.585 109.953 126.584 109.929C126.584 109.906 126.578 109.882 126.568 109.861C126.558 109.839 126.544 109.819 126.527 109.803Z" fill="#A8B3B2"/>
<path d="M97.6997 96.139C97.3711 96.1466 97.0512 96.2463 96.7765 96.4268C96.4111 96.5659 96.0581 96.7357 95.7214 96.9344C95.5695 97.0383 95.5615 97.334 95.7773 97.358C96.1812 97.4265 96.596 97.3822 96.9763 97.2301C97.376 97.0942 97.8436 96.9064 97.9355 96.4548C97.9444 96.4182 97.945 96.3801 97.9375 96.3432C97.93 96.3064 97.9144 96.2716 97.8919 96.2414C97.8693 96.2113 97.8404 96.1865 97.8072 96.1688C97.774 96.1511 97.7373 96.1409 97.6997 96.139Z" fill="#A8B3B2"/>
<path d="M103.463 97.0662C103.236 97.1399 103.021 97.2448 102.823 97.3779C102.598 97.5651 102.335 97.7015 102.052 97.7776C101.992 97.7776 101.934 97.8016 101.891 97.8443C101.848 97.887 101.824 97.945 101.824 98.0054C101.824 98.0658 101.848 98.1238 101.891 98.1665C101.934 98.2092 101.992 98.2332 102.052 98.2332C102.655 98.2332 103.103 97.9374 103.651 97.7496C103.734 97.7187 103.803 97.6576 103.844 97.5784C103.884 97.4992 103.894 97.4076 103.87 97.3217C103.847 97.2359 103.792 97.162 103.716 97.1147C103.641 97.0674 103.55 97.0501 103.463 97.0662Z" fill="#A8B3B2"/>
<path d="M106.524 100.671C106.269 100.664 106.014 100.674 105.761 100.699C105.471 100.776 105.187 100.873 104.909 100.987C104.419 101.083 103.97 101.33 103.627 101.694C103.591 101.73 103.568 101.776 103.562 101.826C103.556 101.876 103.566 101.927 103.592 101.97C103.618 102.014 103.657 102.048 103.704 102.066C103.75 102.085 103.802 102.088 103.85 102.074C104.085 102.049 104.322 102.038 104.558 102.042C104.828 102.009 105.095 101.957 105.357 101.886C105.634 101.835 105.898 101.726 106.13 101.567C106.362 101.407 106.558 101.2 106.704 100.959C106.722 100.929 106.73 100.894 106.73 100.859C106.729 100.824 106.719 100.79 106.701 100.761C106.682 100.731 106.656 100.707 106.625 100.691C106.594 100.676 106.559 100.669 106.524 100.671Z" fill="#A8B3B2"/>
<path d="M114.457 100.683C114.227 100.592 113.978 100.559 113.733 100.586C113.487 100.613 113.251 100.7 113.047 100.839C112.755 100.995 112.467 101.155 112.171 101.303C111.876 101.45 111.608 101.454 111.34 101.594C111.294 101.621 111.257 101.659 111.23 101.705C111.204 101.751 111.19 101.803 111.19 101.856C111.19 101.909 111.204 101.961 111.23 102.007C111.257 102.053 111.294 102.091 111.34 102.118C111.82 102.458 112.459 102.194 112.939 101.974C113.51 101.745 114.037 101.419 114.497 101.011C114.52 100.988 114.538 100.961 114.548 100.931C114.559 100.901 114.562 100.869 114.558 100.837C114.554 100.805 114.543 100.775 114.526 100.748C114.508 100.722 114.485 100.699 114.457 100.683Z" fill="#A8B3B2"/>
<path d="M119.421 103.301C119.015 103.106 118.562 103.03 118.114 103.081C117.876 103.096 117.638 103.126 117.403 103.169C117.176 103.242 116.945 103.303 116.711 103.353C116.647 103.353 116.585 103.379 116.539 103.424C116.493 103.47 116.468 103.532 116.468 103.597C116.468 103.661 116.493 103.723 116.539 103.769C116.585 103.815 116.647 103.84 116.711 103.84C117.191 103.876 117.619 103.98 118.114 103.972C118.569 103.96 119.016 103.847 119.421 103.641C119.45 103.623 119.474 103.598 119.49 103.568C119.507 103.538 119.516 103.505 119.516 103.471C119.516 103.437 119.507 103.403 119.49 103.374C119.474 103.344 119.45 103.319 119.421 103.301Z" fill="#A8B3B2"/>
<path d="M68.0091 99.6201C65.875 99.8998 62.6697 98.9207 60.8153 97.8816C58.0856 96.3349 57.618 93.3335 58.1456 90.4599C58.5972 88.0979 59.5604 86.0357 60.4116 83.8536C61.2629 81.6715 60.9152 78.9618 61.0071 76.6358C61.099 74.4217 60.8553 70.3052 62.7776 68.6786C65.6472 66.2487 68.6406 72.1756 69.8555 73.99C72.2135 70.6049 73.8921 74.1019 75.9423 75.5127C77.2932 73.2667 79.2275 74.7134 80.2027 76.38C81.2857 78.2144 81.5935 80.4805 81.9012 82.5067C82.5367 86.6912 83.6157 91.9267 81.5455 95.9073C80.8421 97.2621 79.2395 98.2812 78.0805 99.2524C76.3642 100.678 74.4782 101.886 72.4653 102.849L68.0091 99.6201Z" fill="#778890"/>
<path d="M57.0185 97.5818C56.1153 97.5818 55.3839 98.1333 54.9843 99.5801C54.4447 101.578 54.6925 103.645 54.5846 105.671C53.0619 104.832 50.8198 105.539 49.2412 106.023C47.0231 106.702 45.6123 107.585 45.2086 109.867C42.7348 106.994 37.3993 110.667 36.7599 113.588C34.5738 111.738 32.6234 109.859 29.63 109.08C26.6366 108.301 23.6991 109.028 21.9326 111.838C21.1732 109.52 19.075 107.841 17.0088 106.678C14.0593 105.027 10.7102 103.481 7.8167 102.186C10.6143 101.502 12.7685 100.747 15.0545 98.8048C17.3405 96.8624 20.0662 93.7331 20.8615 90.7557C23.1356 93.2136 26.4048 92.7819 29.3143 91.479C31.1567 90.6557 32.3916 89.4608 33.6545 87.9541C34.7736 86.6112 36.3722 84.9167 36.9597 83.2621C37.759 85.8878 41.7556 86.7151 44.0496 87.2027C47.079 87.8502 50.1964 87.6024 51.2435 84.1653C51.0277 88.5615 60.4356 89.205 63.0853 88.5016C61.6865 89.831 60.6659 91.5081 60.1279 93.3614C59.5803 95.3277 60.0199 96.9304 60.4236 98.8008C59.2326 98.1613 58.0217 97.5538 57.0185 97.5818Z" fill="#778890"/>
<path d="M62.1102 88.9291C60.7234 88.6374 59.2727 89.5886 58.0177 90.0921C54.6646 91.431 51.7751 93.9848 48.5379 95.5994C44.5982 97.513 40.3824 98.7955 36.0446 99.4002C31.4685 100.108 26.8524 101.079 22.2284 101.398C22.1839 101.398 22.1412 101.416 22.1097 101.448C22.0782 101.479 22.0605 101.522 22.0605 101.566C22.0605 101.611 22.0782 101.654 22.1097 101.685C22.1412 101.716 22.1839 101.734 22.2284 101.734C26.1091 101.882 29.662 101.179 33.5147 100.739C37.1117 100.339 40.7086 99.8917 44.1216 98.7008C47.4861 97.5629 50.6918 96.001 53.6615 94.0527C55.32 92.9537 59.5204 89.7804 61.7306 90.296C62.6338 90.5198 63.0135 89.117 62.1102 88.9291Z" fill="#A8B3B2"/>
<path d="M49.6888 98.6649C48.8895 98.8367 48.0662 99.9518 48.1861 100.771C48.2069 100.845 48.2443 100.913 48.2953 100.97C48.3464 101.027 48.4097 101.072 48.4806 101.1C48.5515 101.129 48.6281 101.142 48.7045 101.137C48.7809 101.131 48.8551 101.109 48.9215 101.071C49.2187 100.806 49.4395 100.467 49.5609 100.088C49.7439 99.7217 49.8783 99.3334 49.9606 98.9326C49.9705 98.8952 49.9703 98.8558 49.9601 98.8185C49.9498 98.7811 49.9299 98.7471 49.9023 98.72C49.8748 98.6928 49.8405 98.6734 49.803 98.6637C49.7655 98.654 49.7261 98.6544 49.6888 98.6649Z" fill="#A8B3B2"/>
<path d="M41.292 101.914C41.256 101.71 41.0043 101.694 40.8923 101.802C39.5095 102.949 38.954 104.828 38.6263 106.522C38.5903 106.714 38.8341 106.922 38.986 106.73C39.5961 105.959 40.0643 105.087 40.3688 104.152C40.6685 103.405 41.4439 102.753 41.292 101.914Z" fill="#A8B3B2"/>
<path d="M35.573 103.9C35.5529 103.828 35.5148 103.763 35.4624 103.71C35.41 103.657 35.3449 103.618 35.2732 103.597C35.1839 103.571 35.0895 103.569 34.9992 103.591C34.9088 103.613 34.8256 103.657 34.7576 103.721C34.505 104.054 34.2829 104.41 34.0942 104.784C33.9623 105.007 33.7425 105.623 33.4628 105.647C33.183 105.671 33.219 106.027 33.4628 106.019C33.7083 106.018 33.9506 105.963 34.1714 105.855C34.3923 105.748 34.5859 105.592 34.7377 105.399C34.9175 105.175 35.0814 104.943 35.2452 104.716C35.4091 104.488 35.6889 104.228 35.573 103.9Z" fill="#A8B3B2"/>
<path d="M45.5963 103.481C45.5759 103.446 45.5467 103.417 45.5116 103.397C45.4766 103.377 45.4369 103.366 45.3965 103.366C45.3561 103.366 45.3165 103.377 45.2814 103.397C45.2464 103.417 45.2172 103.446 45.1967 103.481C44.7883 104.067 44.5693 104.764 44.5692 105.479C44.5703 105.514 44.5805 105.549 44.5988 105.58C44.6171 105.61 44.643 105.635 44.6738 105.653C44.7047 105.671 44.7396 105.68 44.7752 105.68C44.8107 105.681 44.8458 105.672 44.877 105.655C45.0226 105.57 45.1569 105.466 45.2766 105.347C45.4216 105.142 45.5373 104.917 45.6203 104.68C45.7015 104.489 45.7414 104.284 45.7372 104.078C45.7331 103.871 45.6851 103.667 45.5963 103.481Z" fill="#A8B3B2"/>
<path d="M28.6709 103.689C28.0554 103.824 27.7397 104.304 27.368 104.776C27.1886 104.972 27.0243 105.182 26.8764 105.403C26.8035 105.598 26.692 105.776 26.5487 105.927C26.5213 105.942 26.4986 105.965 26.4827 105.993C26.4669 106.02 26.4586 106.051 26.4586 106.083C26.4586 106.114 26.4669 106.145 26.4827 106.173C26.4986 106.2 26.5213 106.223 26.5487 106.238C27.0283 106.458 27.372 106.091 27.7037 105.779C28.2313 105.275 28.8827 104.804 29.0306 104.044C29.0424 103.995 29.0413 103.943 29.0274 103.894C29.0134 103.845 28.9871 103.801 28.9509 103.765C28.9148 103.729 28.87 103.704 28.8209 103.69C28.7719 103.677 28.7202 103.676 28.6709 103.689Z" fill="#A8B3B2"/>
<path d="M21.6688 104.268C20.9295 104.24 20.5618 105.007 19.8704 105.123C19.8305 105.137 19.7951 105.161 19.7683 105.193C19.7415 105.226 19.7245 105.265 19.719 105.307C19.7136 105.349 19.7201 105.391 19.7376 105.429C19.7552 105.467 19.7832 105.5 19.8184 105.523C20.6177 105.879 21.449 105.207 21.8407 104.56C21.8563 104.53 21.864 104.496 21.8631 104.462C21.8621 104.429 21.8527 104.396 21.8355 104.366C21.8183 104.337 21.794 104.313 21.7649 104.296C21.7357 104.279 21.7027 104.269 21.6688 104.268Z" fill="#A8B3B2"/>
<path d="M21.6689 99.0805C21.3202 99.0122 20.996 98.8522 20.7297 98.6169C20.4922 98.3605 20.196 98.1657 19.8664 98.0494C19.823 98.0395 19.7777 98.0423 19.7359 98.0574C19.694 98.0726 19.6574 98.0995 19.6305 98.1349C19.6035 98.1703 19.5873 98.2127 19.5838 98.2571C19.5802 98.3015 19.5896 98.3459 19.6107 98.3851C19.9344 99.1325 20.6697 99.9837 21.553 99.9358C21.6664 99.9511 21.7813 99.9208 21.8723 99.8515C21.9634 99.7822 22.0232 99.6795 22.0386 99.5661C22.0539 99.4527 22.0236 99.3378 21.9543 99.2467C21.885 99.1557 21.7823 99.0959 21.6689 99.0805Z" fill="#A8B3B2"/>
<path d="M23.4753 94.2646C23.0756 93.9608 22.7319 93.4653 22.2763 93.2255C22.2483 93.2098 22.2171 93.2006 22.1851 93.1987C22.153 93.1968 22.121 93.2023 22.0913 93.2146C22.0617 93.2269 22.0353 93.2458 22.014 93.2698C21.9927 93.2939 21.9772 93.3224 21.9686 93.3534C21.8247 93.9289 22.3203 94.4604 22.7199 94.8161C23.1196 95.1718 23.7431 95.7833 24.3465 95.6154C24.3972 95.6019 24.4417 95.5716 24.4729 95.5295C24.5041 95.4874 24.5202 95.436 24.5184 95.3836C24.4664 94.8241 23.8909 94.5683 23.4753 94.2646Z" fill="#A8B3B2"/>
<path d="M32.3757 97.6976C32.0938 97.3903 31.7263 97.1746 31.3206 97.0782C30.6571 96.8384 29.678 96.5586 29.2823 95.9191C29.2646 95.8893 29.2395 95.8646 29.2094 95.8475C29.1792 95.8303 29.1451 95.8213 29.1105 95.8213C29.0758 95.8213 29.0417 95.8303 29.0116 95.8475C28.9815 95.8646 28.9563 95.8893 28.9386 95.9191C28.447 96.5666 29.3383 97.27 29.8259 97.5657C30.2139 97.7786 30.6143 97.9681 31.0248 98.1333C31.3566 98.2771 31.7842 98.5329 32.1559 98.377C32.2212 98.3543 32.2804 98.3168 32.3288 98.2673C32.3772 98.2179 32.4135 98.1579 32.4348 98.092C32.4561 98.0262 32.4618 97.9563 32.4516 97.8879C32.4413 97.8194 32.4153 97.7543 32.3757 97.6976Z" fill="#A8B3B2"/>
<path d="M36.0245 94.3285C35.7847 93.8849 35.2972 93.6971 35.0174 93.2854C34.8153 92.9206 34.5437 92.5988 34.2181 92.3382C34.0023 92.1904 33.8184 92.4661 33.8984 92.654C33.9373 92.8554 33.9561 93.0603 33.9543 93.2655C34.0252 93.5272 34.1358 93.7765 34.282 94.0048C34.5681 94.4675 34.9975 94.824 35.505 95.02C35.9046 95.1758 36.2004 94.6603 36.0245 94.3285Z" fill="#A8B3B2"/>
<path d="M42.1193 91.9626C41.6118 91.3431 40.8684 91.1313 40.141 90.8715C39.2017 90.5109 38.3745 89.9084 37.7431 89.125C37.5353 88.8932 37.2035 89.185 37.3434 89.4407C37.5025 89.8971 37.7018 90.3385 37.9389 90.7596C38.2229 91.0936 38.5725 91.3657 38.966 91.5589C39.8603 92.0993 40.8757 92.4071 41.9195 92.4542C41.9762 92.4535 42.0314 92.4361 42.0782 92.4042C42.1251 92.3723 42.1615 92.3273 42.1828 92.2748C42.2041 92.2223 42.2095 92.1646 42.1982 92.1091C42.1869 92.0536 42.1595 92.0026 42.1193 91.9626Z" fill="#A8B3B2"/>
<path d="M46.8952 92.0545C46.3517 91.7627 45.8921 91.2152 45.3965 90.8555C45.2007 90.7116 44.9249 90.9954 45.0648 91.1912C45.4205 91.7068 45.6323 92.2783 46.1079 92.7139C46.4636 93.0456 47.6306 93.7211 47.9543 93.0057C48.278 92.2903 47.2749 92.2543 46.8952 92.0545Z" fill="#A8B3B2"/>
<path d="M50.3203 90.9755C50.3922 90.6278 50.1644 90.372 49.9606 90.1202C49.7889 89.9195 49.5745 89.7597 49.3331 89.6526C49.1223 89.5705 48.8885 89.5705 48.6777 89.6526C48.4339 89.7126 48.4499 89.9763 48.5977 90.1162C48.6863 90.2489 48.7866 90.3733 48.8975 90.4879C49.0517 90.681 49.1932 90.8839 49.3211 91.0954C49.3695 91.1756 49.4367 91.2428 49.517 91.2912H49.5609C49.6392 91.36 49.7283 91.4154 49.8247 91.4551C49.8579 91.4749 49.8947 91.4878 49.9329 91.4931C49.9712 91.4985 50.0101 91.496 50.0474 91.4859C50.0847 91.4759 50.1196 91.4584 50.15 91.4345C50.1804 91.4107 50.2057 91.381 50.2244 91.3472C50.2523 91.2832 50.2803 91.2193 50.3043 91.1553C50.3283 91.0914 50.3602 90.7077 50.3203 90.9755Z" fill="#A8B3B2"/>
<path d="M66.8621 114.551C66.8621 115.011 66.91 115.423 66.8621 115.886V114.551Z" fill="#80C02F"/>
<path d="M121.164 77.5869C118.13 77.0513 115.229 78.1704 112.207 78.3862C109.849 78.57 106.928 79.0616 105.173 80.7841C105.033 80.9203 104.944 81.1011 104.922 81.2957C104.008 81.1022 103.108 80.8486 102.228 80.5364C105.862 79.02 109.174 76.8254 111.987 74.0699C112.443 73.6263 112.879 73.1587 113.31 72.6871C114.509 72.5512 115.464 71.7319 116.544 71.2163C118.47 70.2315 120.312 69.0899 122.051 67.8033C125.696 65.2335 125.648 60.3537 125.824 56.433C125.848 55.9534 125.304 55.4299 124.816 55.7296C119.905 58.783 117.383 65.2095 113.998 69.7176C113.818 69.9614 113.626 70.1932 113.442 70.429L112.571 71.3083C112.438 71.4374 112.348 71.6052 112.315 71.7879C110.062 74.3886 107.434 76.6394 104.518 78.4661C102.985 79.3893 101.352 80.1348 99.65 80.6882C99.6375 80.5887 99.6375 80.488 99.65 80.3885C99.6865 80.1087 99.7494 79.8331 99.8379 79.5652C99.9632 79.5595 100.084 79.5154 100.183 79.4389C100.282 79.3624 100.356 79.2572 100.393 79.1376C102.903 77.6428 106.632 74.9971 107.651 72.0956C108.586 69.4339 109.154 65.1975 107.835 62.5318C107.611 62.0882 106.868 61.9323 106.592 62.4239C104.594 66.0208 102.088 69.282 100.146 72.9029C99.3743 74.3377 98.4631 77.1193 99.1864 78.8498C99.0741 79.1423 98.9793 79.4412 98.9027 79.745C98.7642 80.1397 98.7218 80.5616 98.7788 80.976C97.1242 81.5155 95.4416 81.9871 93.7951 82.5466C93.5752 82.6186 93.6991 82.9463 93.915 82.9183C96.4113 82.4995 98.8608 81.8383 101.229 80.944C104.826 82.5666 109.677 83.6377 113.618 83.294C116.416 83.0502 121.212 81.6554 121.779 78.3582C121.796 78.175 121.742 77.9923 121.627 77.8485C121.512 77.7047 121.346 77.6109 121.164 77.5869ZM116.743 69.274C116.811 69.3221 116.89 69.3521 116.972 69.3612C117.055 69.3703 117.138 69.3582 117.215 69.326C117.221 69.3619 117.232 69.3969 117.247 69.4299C116.811 69.6817 116.368 69.9215 115.932 70.1373L116.743 69.274ZM106.984 64.602C107.18 65.8403 107.193 67.1006 107.024 68.3428C107.024 68.2309 107.024 68.127 107.024 68.0151C107.013 67.8751 106.949 67.7446 106.844 67.6514C106.965 66.9595 106.978 66.2532 106.884 65.5572C106.875 65.4809 106.85 65.4075 106.809 65.3425C106.768 65.2774 106.713 65.2224 106.648 65.1815C106.756 64.9737 106.868 64.7779 106.984 64.586V64.602ZM104.985 73.0668C105.079 73.0804 105.175 73.0665 105.261 73.0268C105.346 72.987 105.419 72.9231 105.469 72.8429C105.116 73.3426 104.724 73.8143 104.298 74.2537C104.558 73.8461 104.79 73.4504 104.997 73.0508L104.985 73.0668ZM115.197 81.7673L115.996 81.4356C116.283 81.4383 116.568 81.3811 116.831 81.2677C116.276 81.54 115.688 81.7375 115.081 81.8552L115.197 81.7673ZM118.914 80.0368C118.945 79.9905 118.972 79.941 118.993 79.8889L119.965 78.9177C120.008 78.9097 120.053 78.9097 120.097 78.9177C119.771 79.3483 119.375 79.7212 118.926 80.0208L118.914 80.0368Z" fill="white"/>
<path d="M55.2121 85.3123C54.2969 85.584 52.4904 84.421 51.6831 84.0893C51.3714 83.9614 51.0557 83.8455 50.7399 83.7256C50.3341 83.068 50.0384 82.3485 49.8647 81.5955C49.7488 81.1159 49.6449 80.6403 49.537 80.1687C49.6237 80.1165 49.6977 80.0456 49.7537 79.9613C49.8097 79.877 49.8462 79.7813 49.8607 79.6811C50.1285 78.1664 51.0837 76.8835 51.3035 75.3528C51.5053 73.9988 51.5053 72.6223 51.3035 71.2683C51.1516 70.2412 50.1604 67.8512 48.7497 69.0342C47.5507 70.0374 47.7025 72.5952 47.6706 73.958C47.6226 75.8964 47.5027 78.7539 48.8376 80.2526C48.9855 80.996 49.2732 81.7633 49.4091 82.3268C49.5022 82.677 49.6266 83.0181 49.7808 83.346L48.1342 82.7185C46.7195 82.1603 45.3776 81.4329 44.1376 80.5524C43.738 79.9215 43.3712 79.2706 43.0385 78.602C42.8436 78.1423 42.7183 77.656 42.6669 77.1593C42.8071 77.1682 42.9465 77.1319 43.0645 77.0556C43.1825 76.9794 43.2729 76.8672 43.3223 76.7356C44.5213 73.4265 45.3206 68.9663 44.5852 65.4973C44.3814 64.5061 43.4662 61.3328 41.7876 62.7276C40.3888 63.9026 40.5886 67.0519 40.5367 68.6466C40.4648 70.8886 40.7605 73.5064 41.7716 75.5886C41.7459 75.6239 41.7292 75.6649 41.7229 75.708C41.7166 75.7512 41.721 75.7953 41.7357 75.8364C42.0354 76.8395 42.0594 77.8707 42.463 78.8618C42.5609 79.1021 42.6743 79.3358 42.8027 79.5612C42.3272 79.1616 41.8556 78.7619 41.38 78.3343C39.2658 76.4119 37.4713 74.2338 35.465 72.2155C35.0894 70.7448 35.0654 69.1981 34.6657 67.7114C34.2661 66.2246 33.6946 64.8059 33.175 63.3551C31.9524 59.9576 30.5435 56.6301 28.9546 53.3876C28.7308 52.936 28.3751 51.789 27.6437 51.9369C26.9963 52.0568 26.6846 53.0599 26.6086 53.5835C26.145 56.7168 26.3928 60.018 27.7117 62.9195C29.0306 65.821 30.817 68.0311 32.8153 70.425C34.4139 72.3434 36.1525 74.2418 37.9389 76.0562C37.4421 75.8051 36.9158 75.6171 36.3723 75.4967C35.4362 75.2861 34.4845 75.1524 33.5267 75.097C32.9232 73.2546 30.5972 72.0357 28.9826 71.2284C25.5735 69.5258 21.7448 69.7256 18.028 69.3739C17.8678 69.3634 17.7085 69.405 17.5739 69.4925C17.4394 69.5801 17.3367 69.7088 17.2814 69.8595C17.2261 70.0102 17.221 70.1748 17.267 70.3286C17.3129 70.4824 17.4075 70.6172 17.5364 70.7128C21.533 73.7222 25.9612 76.248 30.9369 76.0602C31.2167 76.1002 31.5004 76.1322 31.8002 76.1521C31.8923 76.1601 31.9849 76.1454 32.0699 76.1091C32.155 76.0729 32.2298 76.0163 32.2878 75.9443C32.4476 75.9203 32.6035 75.9083 32.7674 75.8804C32.8018 75.872 32.8353 75.8599 32.8673 75.8444C33.5827 76.0242 34.4659 75.9123 35.1853 75.9843C36.44 76.1206 37.6519 76.5195 38.7422 77.1553C38.982 77.2872 39.1978 77.4031 39.4177 77.499C39.7574 77.8227 40.0891 78.1544 40.4248 78.4701C42.7388 80.6203 44.9409 82.2229 47.8744 83.4099C48.7297 83.7536 49.5969 84.0733 50.4682 84.3931C50.6136 84.557 50.7997 84.6797 51.0077 84.7488C51.0549 84.7625 51.1047 84.7654 51.1531 84.7571C51.2016 84.7488 51.2476 84.7295 51.2875 84.7008C51.6871 84.8487 52.0868 84.9966 52.5144 85.1524C53.3137 85.4641 54.4887 86.0556 55.336 85.644C55.5039 85.5681 55.4159 85.2603 55.2121 85.3123ZM33.6666 67.2757C33.6957 67.2341 33.7211 67.19 33.7425 67.1439C33.8744 67.5435 34.0103 67.9432 34.1422 68.3748C34.1781 68.5067 34.2061 68.6426 34.2341 68.7745C34.0223 68.3029 33.8424 67.7993 33.6666 67.2757Z" fill="white"/>
<path d="M65.6511 88.9891C65.783 89.6445 64.8518 90.8355 64.5841 91.387C64.4762 91.5948 64.3762 91.8066 64.2723 92.0185C63.7939 92.2584 63.2796 92.419 62.7496 92.4941C62.4099 92.546 62.0702 92.586 61.7345 92.6339C61.7036 92.5702 61.6589 92.5141 61.6036 92.4699C61.5483 92.4256 61.4838 92.3943 61.4148 92.3782C60.3757 92.1024 59.5484 91.359 58.4853 91.1112C57.5523 90.892 56.5922 90.8112 55.6357 90.8714C54.9084 90.9154 53.1818 91.4589 53.9252 92.514C54.5487 93.4053 56.3231 93.4652 57.2903 93.5691C58.6412 93.717 60.6155 93.9688 61.7505 93.1375C62.278 93.0776 62.8296 92.9257 63.2332 92.8617C63.4827 92.8199 63.7276 92.7543 63.9646 92.6659C63.7887 93.0376 63.6089 93.4093 63.4251 93.773C62.9533 94.7289 62.3654 95.6229 61.6746 96.4347C61.2111 96.6764 60.7348 96.8925 60.2478 97.0821C59.9153 97.1881 59.5695 97.2459 59.2207 97.254C59.2345 97.1562 59.2168 97.0566 59.17 96.9696C59.1233 96.8826 59.05 96.8128 58.9609 96.7704C56.7268 95.7273 53.6654 94.92 51.2035 95.2077C50.5001 95.2917 48.2301 95.7353 49.1053 96.9782C49.8367 98.0213 52.0468 98.0773 53.1539 98.2092C54.8043 98.4474 56.4876 98.2969 58.0696 97.7695C58.0932 97.7892 58.121 97.803 58.1508 97.81C58.1807 97.8169 58.2117 97.8167 58.2415 97.8095C58.9609 97.6616 59.6803 97.7056 60.3957 97.4858C60.5689 97.4317 60.7385 97.3663 60.9032 97.2899C60.6035 97.5977 60.2917 97.9054 59.96 98.2092C58.4933 99.568 56.8627 100.687 55.336 101.962C54.2889 102.134 53.2098 102.046 52.1387 102.258C51.0677 102.47 50.0485 102.757 49.0094 103.033C46.5706 103.681 44.1691 104.461 41.8156 105.371C41.4839 105.499 40.6726 105.679 40.7245 106.198C40.7685 106.654 41.4479 106.934 41.8076 107.018C43.9745 107.58 46.2572 107.511 48.386 106.818C50.4562 106.082 52.1387 104.963 53.9292 103.712C55.364 102.709 56.7947 101.618 58.1656 100.483C57.96 100.814 57.7975 101.17 57.682 101.542C57.4821 102.182 57.3337 102.837 57.2384 103.501C55.9155 103.812 54.9283 105.359 54.2649 106.434C52.8701 108.708 52.7782 111.39 52.3066 113.96C52.2892 114.071 52.3084 114.184 52.3611 114.284C52.4139 114.383 52.4975 114.463 52.5993 114.51C52.7011 114.558 52.8156 114.571 52.9257 114.549C53.0358 114.526 53.1355 114.468 53.2098 114.383C55.5518 111.774 57.5821 108.848 57.7539 105.367C57.7979 105.171 57.8378 104.967 57.8698 104.768C57.8803 104.704 57.8752 104.639 57.8551 104.577C57.8349 104.516 57.8002 104.461 57.7539 104.416C57.7539 104.304 57.7539 104.192 57.7539 104.08C57.7539 104.056 57.7539 104.028 57.7539 104.008C57.869 103.481 57.9478 102.947 57.9897 102.41C58.1623 101.547 58.5136 100.73 59.0208 100.012C59.1287 99.8478 59.2207 99.7079 59.3046 99.56C59.5484 99.3442 59.8002 99.1324 60.04 98.9126C61.6409 97.5473 62.9638 95.8864 63.9366 94.0207C64.2324 93.4452 64.5081 92.8577 64.7799 92.2702C64.9041 92.1797 65.0009 92.0566 65.0597 91.9145C65.0748 91.8841 65.0827 91.8506 65.0827 91.8166C65.0827 91.7827 65.0748 91.7491 65.0597 91.7187C65.1915 91.443 65.3194 91.1632 65.4593 90.8914C65.7231 90.3519 66.2107 89.5686 65.9749 88.9531C65.847 88.8012 65.6192 88.8572 65.6511 88.9891ZM51.775 102.917C51.7473 102.896 51.7179 102.877 51.6871 102.861C51.9829 102.793 52.2746 102.721 52.5704 102.661L52.8581 102.621C52.5024 102.733 52.1387 102.845 51.775 102.917Z" fill="white"/>
<path d="M84.7308 109.464C85.0945 107.353 84.3072 105.339 84.1313 103.241C83.9954 101.602 83.6477 99.5681 82.4567 98.3571C82.36 98.2598 82.2333 98.1979 82.0971 98.1813C82.2275 97.5454 82.4011 96.9191 82.6166 96.3069C83.6797 98.8271 85.2108 101.123 87.1287 103.073C87.4405 103.389 87.7642 103.693 88.0959 103.988C88.1918 104.824 88.7633 105.483 89.127 106.23C89.8192 107.568 90.6213 108.846 91.525 110.051C93.3194 112.577 96.7205 112.537 99.4422 112.637C99.7779 112.637 100.138 112.273 99.9258 111.933C97.7876 108.528 93.3114 106.798 90.1701 104.456C89.9983 104.332 89.8384 104.2 89.6706 104.056L89.0591 103.453C88.9675 103.362 88.8505 103.3 88.7234 103.277C86.9082 101.72 85.3361 99.8998 84.0594 97.8775C83.4126 96.8145 82.8884 95.6815 82.4967 94.5004C82.5656 94.4902 82.6356 94.4902 82.7045 94.5004C82.9001 94.5263 83.0927 94.5705 83.28 94.6323C83.2769 94.7225 83.3045 94.8111 83.3582 94.8837C83.4119 94.9563 83.4886 95.0085 83.5758 95.032C84.6229 96.7705 86.4773 99.3563 88.4996 100.056C90.35 100.695 93.2955 101.079 95.1499 100.152C95.2276 100.113 95.294 100.054 95.3427 99.9822C95.3914 99.9101 95.4207 99.8268 95.4279 99.7401C95.4352 99.6535 95.42 99.5664 95.3839 99.4873C95.3478 99.4082 95.292 99.3397 95.2218 99.2883C92.716 97.8975 90.4259 96.179 87.9121 94.8361C86.9129 94.3086 84.9746 93.6811 83.7716 94.1887C83.568 94.1117 83.3598 94.0477 83.1482 93.9969C82.8741 93.9 82.5806 93.8712 82.2929 93.9129C81.9132 92.7659 81.5775 91.5989 81.1858 90.4519C81.1339 90.3 80.8981 90.3879 80.9261 90.5358C81.226 92.2718 81.6945 93.9744 82.3249 95.6195C81.2098 98.1253 80.4784 101.502 80.7262 104.252C80.9021 106.194 81.8892 109.52 84.1833 109.911C84.2487 109.918 84.3149 109.912 84.3781 109.894C84.4412 109.875 84.5 109.844 84.5509 109.802C84.6019 109.761 84.6441 109.709 84.675 109.651C84.7058 109.593 84.7248 109.529 84.7308 109.464ZM90.5098 106.362C90.4762 106.41 90.4552 106.465 90.4489 106.523C90.4426 106.581 90.4512 106.64 90.4739 106.694L90.4019 106.714C90.2261 106.41 90.0582 106.106 89.9064 105.803C90.0982 105.991 90.298 106.178 90.5019 106.362H90.5098ZM93.7271 99.5681C92.8662 99.7062 91.99 99.7196 91.1253 99.608H91.3531C91.4012 99.6051 91.4482 99.5926 91.4914 99.5714C91.5347 99.5501 91.5732 99.5204 91.6049 99.4842C92.0884 99.5579 92.5802 99.5579 93.0637 99.4842C93.1163 99.4774 93.1668 99.4593 93.2117 99.431C93.2566 99.4027 93.2947 99.3649 93.3234 99.3203C93.4473 99.4082 93.5832 99.4842 93.7191 99.5641L93.7271 99.5681ZM87.8361 98.2092C87.8255 98.2749 87.8347 98.3423 87.8624 98.4028C87.8902 98.4633 87.9353 98.5142 87.992 98.549C87.6446 98.3077 87.316 98.0405 87.0088 97.7496C87.2738 97.9157 87.5473 98.0678 87.8281 98.2052L87.8361 98.2092ZM81.8173 105.339C81.8892 105.527 81.9692 105.715 82.0491 105.899C82.0472 106.098 82.088 106.296 82.169 106.478C81.9852 106.097 81.8509 105.694 81.7693 105.279L81.8173 105.339ZM83.0163 107.921C83.0467 107.946 83.0821 107.966 83.1202 107.977C83.344 108.201 83.5678 108.424 83.7996 108.648C83.8016 108.679 83.8016 108.71 83.7996 108.74C83.4953 108.513 83.233 108.234 83.0243 107.917L83.0163 107.921Z" fill="white"/>
<path d="M96.3529 84.493C95.7854 77.5469 88.3078 73.3026 81.8573 76.1002C77.8168 77.8387 73.972 82.095 74.3877 86.3833C73.8202 88.8093 74.2198 91.5469 75.7625 93.4813C78.2204 96.5586 81.3857 97.5258 85.2104 97.5098C88.2158 97.5098 93.1037 96.1989 94.9341 93.5732C96.8484 90.8155 96.6126 87.6862 96.3529 84.493Z" fill="#DD5336"/>
<path d="M72.4693 94.7082C71.0996 94.7628 69.7487 95.0465 68.4727 95.5475C68.0061 95.5053 67.5408 95.6409 67.1698 95.9272C66.9375 96.1009 66.7339 96.3099 66.5664 96.5467C65.3284 97.3523 64.2297 98.3539 63.3132 99.5121C61.9423 101.215 61.2349 104.18 61.9983 106.41C62.378 109.164 63.7768 111.81 65.9309 113.388C71.0625 117.153 81.9492 116.082 83.5558 108.864C85.1304 101.762 79.9869 94.3525 72.4693 94.7082Z" fill="#DD5336"/>
<path d="M71.1425 80.6722C68.9363 75.2289 62.4899 74.2777 57.5541 76.1641C56.5387 76.5647 55.6134 77.1638 54.8324 77.9265C54.7485 78.0025 54.6686 78.0784 54.5846 78.1623L54.5447 78.2103C52.0228 80.8201 50.8439 84.9645 51.811 88.3856C52.0313 89.7684 52.5289 91.0925 53.2738 92.2782C56.2912 96.9303 63.465 97.8734 67.9332 94.6762C72.9129 91.1112 73.3006 86.0236 71.1425 80.6722Z" fill="#DD5336"/>
<path d="M79.5872 69.6178C78.7879 67.6914 77.1173 66.5444 75.2509 65.7611C75.0071 65.66 74.7541 65.5824 74.4956 65.5293C73.271 65.1022 71.93 65.155 70.7428 65.6772C70.3452 65.8433 69.9705 66.0596 69.6277 66.3206C69.4897 66.3996 69.3563 66.4863 69.2281 66.5804C68.2249 67.3477 66.8301 68.7905 67.1658 70.0854C66.5064 72.4833 66.958 75.209 68.8764 76.7836C70.439 78.0625 72.5612 79.0617 74.6155 78.8938C76.5578 78.7339 79.0477 77.7947 79.863 75.8484C80.6783 73.9021 80.3586 71.5121 79.5872 69.6178Z" fill="#DD5336"/>
<path d="M77.6689 118.208C77.3572 117.965 76.97 117.839 76.5747 117.852C76.1795 117.865 75.8015 118.017 75.5067 118.28C75.4748 118.316 75.4468 118.356 75.4148 118.396C75.283 118.475 75.1562 118.561 75.0351 118.656C74.6687 118.975 74.4136 119.403 74.3065 119.877C74.1994 120.352 74.2461 120.848 74.4396 121.293C74.5844 121.642 74.8203 121.946 75.1226 122.172C75.425 122.399 75.7826 122.54 76.1582 122.58C76.9375 122.708 77.6689 122.241 78.1565 121.697C79.0956 120.646 78.656 119.031 77.6689 118.208Z" fill="#DD5336"/>
<path d="M85.618 116.29C85.5194 116.089 85.3732 115.915 85.1921 115.783C85.011 115.652 84.8005 115.566 84.5789 115.534C84.3177 115.43 84.0321 115.402 83.7556 115.454C83.5243 115.504 83.307 115.605 83.1193 115.749C82.9317 115.894 82.7784 116.078 82.6706 116.289C82.5628 116.499 82.5031 116.731 82.4958 116.968C82.4885 117.204 82.5339 117.44 82.6286 117.657C82.7851 118.015 83.0593 118.31 83.406 118.492C83.7526 118.673 84.1509 118.731 84.535 118.656C84.7988 118.609 85.0456 118.493 85.2505 118.321C85.4554 118.148 85.6111 117.925 85.7019 117.673C85.8472 117.217 85.8173 116.724 85.618 116.29Z" fill="#DD5336"/>
<path d="M105.361 88.5055C105.393 88.2642 105.381 88.0191 105.325 87.7822C105.509 87.0468 104.969 86.3354 104.334 86.0317C104.034 85.9026 103.705 85.8531 103.381 85.8881C103.056 85.9231 102.745 86.0414 102.48 86.2315C102.284 86.3118 102.104 86.4253 101.948 86.5672C101.659 86.838 101.431 87.1678 101.281 87.5344C101.12 87.9261 101.072 88.355 101.143 88.7725C101.213 89.19 101.4 89.5793 101.68 89.8964C102.332 90.6437 103.339 90.6957 104.202 90.336C104.563 90.1841 104.872 89.9316 105.093 89.6086C105.3 89.2797 105.394 88.8925 105.361 88.5055Z" fill="#DD5336"/>
<path d="M58.6452 71.8558C58.6812 71.6147 58.6689 71.3688 58.6092 71.1325C58.797 70.4011 58.2535 69.6897 57.6221 69.382C57.3208 69.2538 56.9916 69.2053 56.6662 69.241C56.3408 69.2767 56.03 69.3954 55.7637 69.5858C55.5698 69.6647 55.3912 69.7769 55.2361 69.9175C54.9462 70.1886 54.7173 70.5183 54.5647 70.8847C54.404 71.2764 54.3562 71.7053 54.4269 72.1228C54.4975 72.5403 54.6837 72.9296 54.9643 73.2467C55.6198 73.998 56.6269 74.046 57.4902 73.6903C57.8501 73.5369 58.1581 73.2829 58.3774 72.9589C58.5881 72.6318 58.6825 72.2432 58.6452 71.8558Z" fill="#DD5336"/>
<path d="M87.5564 66.6443C87.3014 66.5368 87.0321 66.4668 86.7571 66.4364C85.7659 66.2566 84.8427 67.1798 84.7588 68.115C84.6749 69.0502 85.4302 70.1133 86.4373 70.1133C86.7058 70.1247 86.9746 70.1005 87.2366 70.0413C87.6161 69.9693 87.9617 69.7752 88.2205 69.4885C88.4794 69.2018 88.6374 68.8383 88.6705 68.4534C88.7035 68.0686 88.6098 67.6835 88.4036 67.3568C88.1974 67.0302 87.8901 66.7799 87.5284 66.6443H87.5564Z" fill="#DD5336"/>
<path d="M61.7145 62.6677C61.4658 62.5622 61.2034 62.4923 60.9352 62.4599C59.944 62.2801 59.0168 63.2073 58.9369 64.1385C58.857 65.0697 59.6083 66.1368 60.6155 66.1368C60.884 66.1507 61.1531 66.1265 61.4148 66.0648C61.7966 65.9962 62.1453 65.8037 62.4069 65.5172C62.6685 65.2306 62.8284 64.8659 62.8621 64.4794C62.8958 64.0929 62.8012 63.706 62.5931 63.3786C62.3849 63.0512 62.0748 62.8013 61.7105 62.6677H61.7145Z" fill="#DD5336"/>
<path d="M98.0754 65.9529C98.0211 65.8236 97.9469 65.7036 97.8556 65.5972C97.7416 65.4622 97.594 65.3596 97.4276 65.3C97.2613 65.2403 97.0822 65.2257 96.9084 65.2575C96.7263 65.2957 96.5553 65.375 96.4085 65.4892C96.2617 65.6035 96.1429 65.7498 96.0611 65.9169C95.8623 66.1227 95.7408 66.3911 95.7174 66.6763C95.6983 66.8935 95.7328 67.112 95.818 67.3128C95.9032 67.5135 96.0364 67.6902 96.2058 67.8274C96.3753 67.9646 96.5759 68.058 96.79 68.0995C97.004 68.141 97.225 68.1292 97.4335 68.0653C97.6419 68.0013 97.8315 67.8871 97.9854 67.7327C98.1394 67.5784 98.2531 67.3885 98.3165 67.1799C98.3799 66.9713 98.3911 66.7503 98.349 66.5363C98.307 66.3224 98.213 66.122 98.0754 65.9529Z" fill="#DD5336"/>
<path d="M54.5926 63.9627C54.5374 63.8351 54.4633 63.7165 54.3728 63.611C54.2594 63.4753 54.1118 63.3723 53.9453 63.3126C53.7789 63.2529 53.5995 63.2386 53.4256 63.2713C53.2442 63.3096 53.0737 63.3885 52.927 63.502C52.7803 63.6155 52.6611 63.7607 52.5784 63.9267C52.3792 64.1343 52.2565 64.4035 52.2307 64.69C52.2112 64.9081 52.2457 65.1277 52.331 65.3293C52.4164 65.531 52.5501 65.7085 52.7203 65.8463C52.8905 65.9841 53.0919 66.0779 53.3069 66.1194C53.5219 66.161 53.7438 66.149 53.9531 66.0845C54.1624 66.0201 54.3526 65.9052 54.5069 65.7499C54.6613 65.5946 54.7751 65.4037 54.8383 65.194C54.9015 64.9844 54.9121 64.7624 54.8693 64.5477C54.8265 64.3329 54.7314 64.132 54.5926 63.9627Z" fill="#DD5336"/>
<path d="M95.3297 72.1075C95.2653 71.578 95.0312 71.0835 94.6623 70.698C94.2935 70.3126 93.8097 70.057 93.2835 69.9694C92.8166 69.8772 92.3331 69.9234 91.8921 70.1023C91.4512 70.2812 91.0722 70.5851 90.8016 70.9765C90.55 71.3982 90.4405 71.8896 90.4895 72.3782C90.5384 72.8668 90.7431 73.3268 91.0734 73.6902C91.2753 73.907 91.5187 74.081 91.7893 74.2018C92.0598 74.3227 92.3518 74.3879 92.648 74.3936C92.8362 74.516 93.0467 74.6002 93.2675 74.6414C94.7222 74.8932 95.4216 73.2945 95.3297 72.1075Z" fill="#DD5336"/>
<path d="M92.8678 83.9055C92.7363 83.2234 92.4976 82.5665 92.1604 81.9591C92.1239 81.9059 92.0839 81.8551 92.0405 81.8073C92.0426 81.778 92.0426 81.7486 92.0405 81.7194C92.0208 81.6033 91.9703 81.4947 91.8944 81.4047C91.8185 81.3148 91.7199 81.2468 91.6089 81.2078C89.7425 80.6802 89.8904 83.3979 90.0982 84.5569C90.2421 85.3562 90.5578 86.2435 91.2212 86.7391C91.3486 86.8347 91.4948 86.9024 91.6501 86.9377C91.8055 86.9729 91.9666 86.975 92.1228 86.9437C92.279 86.9123 92.4268 86.8484 92.5566 86.7559C92.6864 86.6635 92.7951 86.5447 92.8758 86.4073C93.3274 85.66 93.0876 84.6648 92.8678 83.9055ZM91.4171 83.8855C91.4171 83.7176 91.3891 83.5418 91.3891 83.3699C91.6039 83.991 91.7383 84.6371 91.7887 85.2923C91.7568 85.2044 91.7288 85.1124 91.7008 85.0445C91.5552 84.6725 91.4598 84.2827 91.4171 83.8855Z" fill="#303030"/>
<path d="M74.1199 110.571C73.0791 110.476 72.0332 110.683 71.1065 111.166C70.6343 111.303 70.2157 111.582 69.9075 111.965C69.3799 112.677 69.9355 113.536 70.6668 113.76C71.57 113.96 72.5031 113.988 73.4165 113.84C73.9197 113.798 74.3974 113.6 74.7839 113.276C75.1704 112.951 75.4466 112.514 75.5746 112.025C75.7665 111.146 74.8552 110.623 74.1199 110.571Z" fill="#303030"/>
<path d="M56.2073 84.6688C56.2073 84.5009 56.2073 84.3291 56.1833 84.1612C56.1433 83.5537 55.9115 82.2668 55.1002 82.2069C54.3928 82.1549 53.9772 82.6465 53.7694 83.302C53.5716 83.582 53.4242 83.8944 53.3337 84.2252C53.1322 85.2569 53.2916 86.3265 53.7853 87.2546C53.8277 87.3275 53.8759 87.397 53.9292 87.4624C54.0331 88.0019 54.3289 88.6374 54.9723 88.5175C55.6158 88.3976 55.8716 87.3705 56.0034 86.807C56.0394 86.6431 56.0674 86.4832 56.0914 86.3234C56.2288 85.7832 56.2681 85.2228 56.2073 84.6688Z" fill="#303030"/>
<path d="M77.2972 69.0702C77.2234 68.4782 76.9398 67.9323 76.4979 67.5315C76.4261 67.4732 76.3425 67.4311 76.253 67.4081C76.1634 67.385 76.07 67.3815 75.9789 67.3978C75.8879 67.4141 75.8014 67.4498 75.7255 67.5026C75.6495 67.5553 75.5858 67.6238 75.5387 67.7034C75.474 67.654 75.3985 67.6207 75.3184 67.6061C75.2383 67.5915 75.1559 67.5961 75.0779 67.6195C74.9999 67.6429 74.9286 67.6844 74.8698 67.7407C74.8109 67.7969 74.7662 67.8663 74.7394 67.9432C74.607 68.3705 74.6307 68.831 74.8064 69.2424C74.9821 69.6538 75.2983 69.9894 75.6986 70.1892C75.8965 70.2671 76.1093 70.2999 76.3215 70.2854C76.5337 70.2709 76.74 70.2094 76.9255 70.1053C77.0796 69.9861 77.1964 69.8253 77.2623 69.642C77.3281 69.4586 77.3402 69.2602 77.2972 69.0702ZM75.9823 69.1022C75.8858 69.0156 75.8259 68.8956 75.8145 68.7665C75.8438 68.7741 75.8745 68.7753 75.9043 68.7699C75.9341 68.7645 75.9624 68.7526 75.9872 68.7351C76.0119 68.7175 76.0326 68.6948 76.0476 68.6685C76.0626 68.6422 76.0717 68.6128 76.0742 68.5826V68.4387C76.1422 68.5758 76.1971 68.719 76.2381 68.8664C76.2381 68.9303 76.2701 69.0023 76.2821 69.0662C76.2845 69.1088 76.2845 69.1515 76.2821 69.1941C76.2725 69.2055 76.2599 69.2138 76.2457 69.2181C76.2315 69.2223 76.2163 69.2223 76.2021 69.2181C76.0423 69.1781 76.1102 69.1941 75.9823 69.1022Z" fill="#303030"/>
<path d="M112.235 106.206L111.991 106.33L112.235 106.206Z" fill="#8B9C3B"/>
<path d="M80.1068 79.1135C77.9686 79.5132 76.0462 83.3339 77.537 85.1084C77.5582 85.1304 77.5837 85.1479 77.6118 85.1598C77.64 85.1718 77.6702 85.1779 77.7008 85.1779C77.7314 85.1779 77.7617 85.1718 77.7898 85.1598C77.818 85.1479 77.8434 85.1304 77.8647 85.1084C78.4042 84.409 78.3763 83.3978 78.7559 82.5865C79.1356 81.7752 79.6152 80.88 80.5344 80.6402C81.5335 80.3884 81.1059 78.9257 80.1068 79.1135Z" fill="white"/>
<path d="M61.0551 76.6317C60.1039 76.3919 59.0808 76.8954 58.1736 77.1672C57.0385 77.5069 56.4151 78.2982 55.8795 79.3014C55.7356 79.5771 55.9754 79.9728 56.3071 79.8569C57.1704 79.5651 57.662 78.7698 58.5412 78.4901C59.4205 78.2103 60.2438 78.1424 61.0551 77.8826C61.1905 77.8432 61.3094 77.7609 61.394 77.6481C61.4786 77.5353 61.5244 77.3981 61.5244 77.2571C61.5244 77.1161 61.4786 76.9789 61.394 76.8662C61.3094 76.7534 61.1905 76.6711 61.0551 76.6317Z" fill="white"/>
<path d="M64.4482 77.5389C64.4482 77.363 64.3783 77.1942 64.2539 77.0698C64.1295 76.9454 63.9608 76.8755 63.7848 76.8755C63.6088 76.8755 63.4401 76.9454 63.3157 77.0698C63.1913 77.1942 63.1214 77.363 63.1214 77.5389C63.1231 77.5695 63.1231 77.6002 63.1214 77.6308C63.0694 78.4941 64.5162 78.4941 64.4642 77.6308C64.4522 77.5989 64.4522 77.5669 64.4482 77.5389Z" fill="white"/>
<path d="M69.7037 68.7145C69.2361 68.9863 68.8325 69.5498 69.1402 70.0854C69.184 70.1586 69.2439 70.2209 69.3154 70.2677C69.3868 70.3144 69.4679 70.3443 69.5526 70.355C69.6373 70.3658 69.7233 70.3572 69.8042 70.3299C69.8851 70.3025 69.9587 70.2572 70.0194 70.1973C70.2195 70.0079 70.4077 69.8063 70.583 69.5938C70.9946 69.0582 70.2193 68.4148 69.7037 68.7145Z" fill="white"/>
<path d="M71.3263 97.0223C71.2398 96.8837 71.1116 96.7761 70.96 96.7151C70.8084 96.654 70.6414 96.6426 70.483 96.6826C69.3595 96.8965 68.2791 97.2949 67.2857 97.8616C66.4664 98.3013 65.6471 99.5122 65.9908 100.439C66.0055 100.486 66.0318 100.529 66.0672 100.563C66.1026 100.597 66.1461 100.621 66.1935 100.634C66.2409 100.647 66.2908 100.647 66.3385 100.636C66.3862 100.624 66.4302 100.601 66.4664 100.567C66.946 100.168 67.2458 99.6281 67.7493 99.2484C68.2529 98.8688 69.0003 98.7569 69.5958 98.5251C70.1912 98.2933 71.9417 98.0495 71.3263 97.0223Z" fill="white"/>
<path d="M73.7002 96.2269C73.5626 96.2663 73.441 96.3483 73.3528 96.4609C73.2645 96.5736 73.214 96.7113 73.2086 96.8543C73.21 96.9513 73.2332 97.0468 73.2767 97.1336C73.3201 97.2203 73.3826 97.2962 73.4595 97.3554C73.5364 97.4146 73.6256 97.4556 73.7206 97.4754C73.8156 97.4952 73.9138 97.4933 74.008 97.4698C74.8273 97.25 74.4156 95.9391 73.7002 96.2269Z" fill="white"/>
</g>
<rect x="5.5" y="2.43262" width="137" height="137" stroke="#D8E1E5" stroke-width="3"/>
</g>
<defs>
<filter id="filter0_d" x="0" y="0.932617" width="148" height="148" filterUnits="userSpaceOnUse" color-interpolation-filters="sRGB">
<feFlood flood-opacity="0" result="BackgroundImageFix"/>
<feColorMatrix in="SourceAlpha" type="matrix" values="0 0 0 0 0 0 0 0 0 0 0 0 0 0 0 0 0 0 127 0"/>
<feOffset dy="4"/>
<feGaussianBlur stdDeviation="2"/>
<feColorMatrix type="matrix" values="0 0 0 0 0 0 0 0 0 0 0 0 0 0 0 0 0 0 0.25 0"/>
<feBlend mode="normal" in2="BackgroundImageFix" result="effect1_dropShadow"/>
<feBlend mode="normal" in="SourceGraphic" in2="effect1_dropShadow" result="shape"/>
</filter>
<clipPath id="clip0">
<rect x="4" y="0.932617" width="140" height="140" fill="white"/>
</clipPath>
</defs>
</svg>
