<svg width="148" height="148" viewBox="0 0 148 148" fill="none" xmlns="http://www.w3.org/2000/svg">
<g filter="url(#filter0_d)">
<g clip-path="url(#clip0)">
<path d="M144 0H4V140H144V0Z" fill="white"/>
<path d="M28.8786 31.6609C29.0565 31.6599 29.2322 31.6998 29.3922 31.7774C29.5523 31.855 29.6924 31.9683 29.8018 32.1085C29.9996 32.356 30.108 32.663 30.1096 32.9798C30.1092 33.2919 30.0004 33.5942 29.8018 33.835C29.6905 33.9677 29.5476 34.0702 29.3863 34.133C29.2249 34.1959 29.0503 34.2171 28.8786 34.1947L21.8007 33.887C21.6228 33.8879 21.4471 33.8481 21.2871 33.7705C21.127 33.6929 20.9869 33.5796 20.8775 33.4394C20.6797 33.1919 20.5713 32.8849 20.5697 32.5681C20.5701 32.256 20.6789 31.9537 20.8775 31.7128C20.9885 31.58 21.1315 31.4777 21.293 31.4154C21.4545 31.3532 21.6293 31.3331 21.8007 31.3571H22.3122C22.2217 29.6919 22.211 28.0267 22.2803 26.3614C22.3495 24.6962 22.4681 23.0429 22.636 21.4017C22.8092 19.7604 23.0143 18.1192 23.2514 16.4779C23.4886 14.8366 23.7324 13.194 23.9828 11.5501C24.0068 11.4622 24.0428 11.3463 24.0867 11.2104C23.3354 11.686 22.548 12.1336 21.7287 12.5453C21.5733 12.6321 21.4005 12.6833 21.2228 12.6951C21.0452 12.7068 20.8671 12.6789 20.7016 12.6132C20.4021 12.4881 20.1511 12.2694 19.9862 11.9897C19.8282 11.7213 19.7675 11.4065 19.8144 11.0985C19.8457 10.9317 19.9184 10.7754 20.026 10.6441C20.1336 10.5128 20.2724 10.4107 20.4299 10.3471C22.0854 9.54664 23.637 8.54674 25.0499 7.3697C25.3078 7.16174 25.626 7.0426 25.9571 7.02999C26.1266 7.01704 26.2968 7.04432 26.4537 7.1096C26.6107 7.17489 26.75 7.27633 26.8603 7.40567C27.0931 7.64771 27.2788 7.93096 27.4079 8.24096C27.5231 8.53189 27.5983 8.83706 27.6317 9.14818C27.6637 9.4679 27.6836 9.79562 27.6836 10.1233C27.6836 10.4511 27.7156 16.9495 27.7156 18.1165C27.7156 22.614 27.6477 27.0955 27.5118 31.561L28.8786 31.6609ZM25.1178 22.189C24.958 23.7397 24.8487 25.2837 24.7901 26.821C24.7315 28.3584 24.7488 29.9157 24.8421 31.493H24.946C25.0392 28.3917 25.1072 25.2784 25.1498 22.153L25.1178 22.189ZM24.982 10.5989H25.1818V10.495L24.982 10.5989Z" fill="#303030"/>
<path d="M40.9722 20.4265C41.7961 20.474 42.6109 20.623 43.3982 20.8702C44.1794 21.1144 44.9231 21.4655 45.6083 21.9133C46.2928 22.3639 46.907 22.9134 47.4307 23.5439C47.9675 24.1882 48.393 24.9176 48.6896 25.702C49.1273 26.7593 49.2655 27.9166 49.0893 29.0471C48.9161 30.0655 48.4963 31.026 47.8663 31.8447C47.2259 32.6812 46.4066 33.3639 45.4684 33.843C44.4845 34.3533 43.4081 34.6605 42.3031 34.7463C41.026 34.8736 39.7363 34.7652 38.4984 34.4265C37.3917 34.1292 36.3642 33.5915 35.4889 32.8519C34.6295 32.1127 33.971 31.1682 33.5746 30.1062C33.1383 28.9009 32.9932 27.6096 33.1509 26.3375C33.3177 24.7103 33.5928 23.0962 33.9742 21.5056C34.3739 19.907 34.8255 18.2804 35.357 16.6777C35.8886 15.0751 36.4681 13.4805 37.1075 11.9538C37.747 10.4271 38.3825 8.90441 39.0179 7.44166C39.0888 7.24558 39.2178 7.07581 39.3878 6.9551C39.5578 6.83439 39.7606 6.7685 39.9691 6.76624C40.122 6.63262 40.308 6.54248 40.5077 6.50523C40.7073 6.46797 40.9133 6.48496 41.1041 6.55442C42.016 6.9101 42.9869 7.09043 43.9657 7.08597C44.1268 7.07707 44.2881 7.1008 44.4399 7.15574C44.5917 7.21067 44.7308 7.29569 44.8489 7.4057C45.0581 7.60444 45.1982 7.86494 45.2486 8.14906C45.4146 8.33889 45.524 8.57153 45.5643 8.82048C45.6065 9.09138 45.5705 9.3687 45.4604 9.6198C44.6611 11.4103 41.6956 18.6081 40.9642 20.4465L40.9722 20.4265ZM37.3753 19.827C37.1888 20.5091 36.9464 21.3084 36.6479 22.225C36.3536 23.1294 36.1121 24.0502 35.9246 24.9826C35.736 25.885 35.6581 26.807 35.6928 27.7283C35.707 28.5598 35.9595 29.3698 36.4201 30.0623C36.1611 29.4059 35.9995 28.7152 35.9405 28.012C35.8835 27.2854 35.9497 26.5544 36.1364 25.8499C36.5135 24.2798 37.0242 22.7448 37.6631 21.2618C38.3105 19.7631 42.0113 10.8388 42.5309 9.63578C42.0289 9.56179 41.5322 9.45499 41.0442 9.31606C40.2875 11.0399 39.6027 12.7718 38.9899 14.5116C38.3771 16.2514 37.8109 18.0233 37.2914 19.827H37.3753ZM42.1712 32.0366C42.8154 31.9697 43.4473 31.8151 44.0496 31.577C44.6121 31.3585 45.1236 31.0266 45.5523 30.6018C45.9702 30.1809 46.2694 29.6569 46.4196 29.0831C46.5814 28.399 46.5566 27.6841 46.3476 27.0129C46.1716 26.3496 45.8524 25.733 45.4124 25.2064C44.9746 24.686 44.4466 24.2488 43.8538 23.9155C43.2362 23.5699 42.5689 23.3219 41.8755 23.1802C41.2089 23.0267 40.5215 22.9848 39.8412 23.0563C39.4855 23.8836 39.1538 24.7468 38.8501 25.658C38.5498 26.489 38.4525 27.3797 38.5663 28.2558C38.6917 29.1967 39.1277 30.0688 39.8052 30.7337C40.4654 31.3725 41.2832 31.8248 42.1752 32.0446L42.1712 32.0366Z" fill="#303030"/>
<path d="M29.9777 101.809C17.5284 92.8324 12.3928 75.4913 13.1921 60.5441C14.1349 60.2061 15.1401 60.0779 16.1376 60.1684C15.1664 74.644 27.6237 82.6771 39.1698 86.8895L29.9777 101.809Z" fill="#D9603E"/>
<path d="M40.2968 80.3871C30.4772 90.97 24.1786 102.368 20.194 116.356C17.5723 125.548 12.7004 144.856 18.1118 153.848C22.7638 161.581 43.6899 161.042 52.5383 161.498C64.6479 162.109 78.4121 162.433 90.0261 160.73C95.9211 159.863 109.793 159.184 114.505 155.191C120.204 150.363 120.216 136.343 119.865 129.349C118.945 111.157 113.37 95.4262 101.504 81.1504L40.2968 80.3871Z" fill="#D9603E"/>
<path d="M62.0342 28.8313C68.0011 23.5158 76.9294 19.871 83.6397 19.2675C90.274 18.668 97.7436 19.859 103.395 23.4639C109.633 27.4405 113.554 33.2955 116.52 39.7499C118.766 44.6457 120.68 51.1282 124.561 55.0608C126.283 56.8073 128.158 57.5627 130.136 58.6817C125.74 69.6043 113.35 61.5472 106.204 58.5298C102.516 56.9712 96.3688 57.5107 93.4793 55.6123C91.3651 54.2175 89.8823 49.8453 88.1878 47.819C86.032 45.2371 83.4117 43.0817 80.4624 41.4645C73.0048 37.376 65.0756 35.9892 56.7867 35.5695C57.9137 33.1316 59.7602 30.8615 62.0342 28.8313Z" fill="#D9603E"/>
<path d="M46.6874 55.6523C46.0439 58.2781 45.6802 61.0117 45.0887 63.5216C43.5341 62.7222 40.1969 59.6329 40.5406 64.0651C40.7684 66.9626 43.6579 67.7899 46.1118 67.9298C45.6522 77.01 56.9506 78.1091 63.7487 79.1202C72.2694 80.3751 85.646 79.9715 92.8198 74.7839C94.3105 73.7088 95.2178 71.9583 96.113 70.3877C96.2569 70.1319 98.1113 66.3911 96.7764 66.6069C98.5869 66.3272 100.585 65.8676 100.373 63.5535C100.082 60.664 97.9394 61.803 96.1849 61.9949C95.9491 59.2212 96.7684 56.7993 95.9531 54.0257C94.5304 49.2298 90.4818 45.1013 86.1935 42.7074C81.2098 39.9098 76.1381 39.3423 70.399 39.3263C65.2035 39.3263 59.0048 40.4333 54.5726 43.4667C52.2906 45.0254 50.4162 47.5433 48.9774 49.8413C47.9142 51.6463 47.1414 53.6072 46.6874 55.6523Z" fill="#FFD4C3"/>
<path d="M100.357 82.3015C115.544 87.8328 130.08 106.737 135.128 121.988C134.468 122.398 133.735 122.678 132.969 122.811C128.657 112.759 114.617 108.883 106.092 103.719L100.357 82.3015Z" fill="#D9603E"/>
<path d="M17.0607 60.4881C17.5283 58.9374 21.3211 54.4933 19.3308 52.8946C18.4236 52.1593 17.2646 53.3422 16.8929 54.0936C16.5172 51.6197 14.4949 45.8087 11.2977 48.5703C9.19148 50.3848 10.6782 59.7607 13.0202 60.4921C14.1472 60.8518 15.8698 60.4681 17.0607 60.5201V60.4881Z" fill="#D9603E"/>
<path d="M41.6476 79.6598C38.7256 82.6339 36.4913 86.2126 35.102 90.1436C33.7127 94.0747 33.2022 98.2626 33.6065 102.412C34.4338 110.873 41.8714 114.31 48.202 107.688C46.4515 111.852 45.0287 118.263 48.9374 121.784C52.846 125.305 58.4772 122.983 60.7672 118.73C60.5114 123.854 62.0421 129.841 67.8292 131.172C73.3964 132.447 77.0213 127.431 79.9228 123.786C81.1218 127.819 87.4683 130.105 90.9414 127.635C94.7621 124.921 94.3904 118.734 94.6582 114.702C97.6836 116.408 100.377 118.618 102.751 115.049C104.55 112.336 103.599 107.18 103.207 104.131C109.721 109.726 110.461 98.1919 109.625 94.1114C108.618 89.2356 106.3 82.2775 103.231 78.297C100.433 74.6721 96.3527 75.2036 92.2203 75.6232C85.9776 76.2547 80.5942 75.1796 74.5234 73.6569C69.0561 72.2861 63.5129 71.3389 57.5859 71.9704C51.541 72.6033 45.9053 75.3223 41.6476 79.6598Z" fill="white"/>
<path d="M75.5386 81.1304C75.6346 79.0722 71.4222 76.0747 71.1424 76.2785C69.5438 77.5375 64.6 80.367 66.7462 82.3973C68.2209 83.7961 73.5883 83.3925 75.055 82.0936C75.1986 81.9758 75.3157 81.8292 75.399 81.6633C75.4823 81.4974 75.5299 81.3158 75.5386 81.1304Z" fill="#FFD4C3"/>
<path d="M75.7824 78.8324C75.8783 76.7702 71.6659 73.7768 71.3861 73.9806C69.7875 75.2395 64.8437 78.0691 66.9899 80.0993C68.4646 81.4941 73.832 81.0905 75.2988 79.7956C75.4423 79.6778 75.5595 79.5312 75.6428 79.3653C75.7261 79.1994 75.7736 79.0179 75.7824 78.8324Z" fill="#FFAFB6"/>
<path d="M42.8946 80.8268L41.9035 81.8539L41.0482 82.845C40.4927 83.5284 39.9451 84.2478 39.4496 84.9912C38.9466 85.7366 38.485 86.5091 38.0668 87.3052C37.8469 87.7049 37.6671 88.1045 37.4633 88.5042C37.2595 88.9038 37.0636 89.3035 36.9157 89.7391C36.5656 90.5686 36.2588 91.4156 35.9965 92.2769C35.7288 93.1402 35.5209 94.0194 35.3331 94.9027L35.0973 96.2415L34.9334 97.5884C34.8535 98.4916 34.7896 99.3948 34.7936 100.302C34.7936 100.758 34.7936 101.209 34.8255 101.665L34.8535 102.316L34.9254 103.028C35.031 103.873 35.2252 104.705 35.505 105.51C36.0195 107.112 37.0585 108.494 38.4544 109.434C39.1537 109.884 39.944 110.174 40.7684 110.282C41.6116 110.389 42.4677 110.327 43.2863 110.098C45.0113 109.563 46.5832 108.623 47.8704 107.356L49.7128 105.641L48.6617 107.872C47.7677 110.063 47.2489 112.39 47.127 114.754C47.0743 115.892 47.2093 117.032 47.5267 118.127C47.8404 119.172 48.4105 120.123 49.1852 120.892C49.3854 121.084 49.5962 121.264 49.8167 121.432C50.0241 121.586 50.2403 121.727 50.4641 121.856C50.921 122.115 51.412 122.309 51.9229 122.431C52.9496 122.661 54.0193 122.611 55.0202 122.287C57.081 121.602 58.7857 120.127 59.7602 118.187L61.9903 113.771L61.9183 118.79C61.8624 121.188 62.2141 123.65 63.1932 125.692C63.6542 126.678 64.3189 127.556 65.1436 128.266C65.9543 128.937 66.9134 129.404 67.9412 129.629L68.137 129.673L68.3208 129.705C68.4635 129.733 68.6076 129.753 68.7525 129.765C68.994 129.791 69.2368 129.805 69.4798 129.805C69.979 129.794 70.4748 129.719 70.9546 129.581C71.9645 129.269 72.8992 128.752 73.7002 128.062C74.5917 127.311 75.4094 126.476 76.1421 125.568C76.9175 124.637 77.6568 123.634 78.4402 122.599L80.3985 120.017L81.7413 123.238C82.0938 123.91 82.599 124.489 83.2161 124.929C83.8975 125.429 84.66 125.807 85.4701 126.048C86.2552 126.287 87.0772 126.382 87.896 126.328C88.2522 126.294 88.6034 126.22 88.9432 126.108C89.0961 126.058 89.2446 125.995 89.3868 125.92C89.4627 125.888 89.5187 125.836 89.5906 125.8C89.5906 125.8 89.6865 125.732 89.5586 125.828L89.6745 125.744L89.8424 125.62C90.1209 125.401 90.3755 125.154 90.6017 124.881C90.8628 124.562 91.0867 124.215 91.2692 123.846C91.4793 123.438 91.6609 123.016 91.8127 122.583C91.9766 122.131 92.1044 121.652 92.2363 121.156C92.4881 120.161 92.68 119.102 92.8598 118.007C93.0396 116.912 93.2115 115.781 93.4913 114.622L93.851 113.135L95.2338 113.683C96.065 114.01 96.8324 114.422 97.5518 114.75C98.163 115.067 98.8153 115.299 99.4901 115.437C99.7059 115.477 99.9279 115.47 100.141 115.415C100.353 115.361 100.551 115.26 100.721 115.121C100.959 114.94 101.173 114.731 101.361 114.498L101.516 114.302C101.516 114.302 101.568 114.23 101.516 114.302L101.648 114.102L101.752 113.93L101.86 113.727C102.175 113.081 102.389 112.391 102.496 111.68C102.633 110.887 102.724 110.086 102.767 109.282C102.875 107.632 102.855 105.917 103.007 104.167L102.855 103.767L103.311 104.007C104.214 104.482 105.189 104.894 105.985 104.874C106.78 104.854 107.128 104.403 107.471 103.675C107.798 102.861 108.005 102.003 108.087 101.129C108.189 100.188 108.233 99.2421 108.219 98.2958C108.207 97.3497 108.141 96.405 108.023 95.4662C107.995 95.2384 107.959 95.0146 107.919 94.8028L107.771 94.1393C107.659 93.6238 107.539 93.1602 107.419 92.6886C106.915 90.7648 106.305 88.8702 105.593 87.0134C104.907 85.1796 104.079 83.4023 103.115 81.698C102.867 81.2983 102.623 80.8987 102.36 80.499C102.232 80.3032 102.1 80.0994 101.96 79.9355L101.656 79.5359L101.704 79.5958L101.656 79.5359L101.337 79.1762C101.266 79.0875 101.188 79.0047 101.105 78.9284C100.977 78.8285 100.885 78.7245 100.745 78.6126C100.458 78.3868 100.149 78.1913 99.8218 78.0291C98.5269 77.3977 96.7764 77.2898 94.8421 77.4417C92.9078 77.5935 90.7216 77.8973 88.5435 77.8693C86.3826 77.8655 84.2251 77.6999 82.089 77.3737C79.9668 77.062 77.8966 76.5984 75.8704 76.0988L72.8729 75.3514C71.8578 75.0877 70.9186 74.8998 69.9434 74.684C68.0049 74.2925 66.0463 74.0084 64.0765 73.8327C62.1289 73.6849 60.173 73.6849 58.2255 73.8327L57.8618 73.8567C57.8618 73.8567 57.7579 73.8567 57.8098 73.8567L56.7547 73.9846C56.2752 74.0565 55.8475 74.1165 55.3759 74.2124C54.4374 74.3972 53.5101 74.6347 52.5983 74.9238C50.7783 75.5164 49.0345 76.3213 47.4028 77.3218C45.7593 78.3279 44.2372 79.5201 42.8666 80.8747L42.8946 80.8268ZM40.4087 78.4808C41.9449 76.8967 43.6588 75.4953 45.5164 74.3043C47.3709 73.1156 49.3606 72.1523 51.4433 71.4348C52.4906 71.0753 53.5582 70.7777 54.6406 70.5436C55.1721 70.4237 55.7676 70.3277 56.2991 70.2358L57.4981 70.076L57.8978 70.04C60.0417 69.8327 62.1989 69.7993 64.3482 69.9401C66.4929 70.0875 68.6278 70.3543 70.7428 70.7394C71.7779 70.9552 72.8609 71.163 73.8401 71.4028L76.8455 72.1102C78.8198 72.5685 80.7808 72.9535 82.7285 73.2652C84.6618 73.5667 86.6148 73.7243 88.5715 73.7368C90.5178 73.7648 92.3802 73.509 94.5863 73.3372C95.7298 73.2375 96.8799 73.2375 98.0234 73.3372C99.2989 73.4518 100.541 73.8071 101.684 74.3843C104.162 75.6392 105.473 77.9053 106.54 79.7397C107.568 81.6423 108.444 83.6227 109.162 85.6626C109.881 87.6656 110.488 89.707 110.98 91.7774C111.1 92.3089 111.224 92.8444 111.32 93.336C111.368 93.5638 111.44 93.8955 111.476 94.1873C111.512 94.479 111.548 94.7708 111.572 95.0506C111.668 96.1622 111.668 97.2801 111.572 98.3917C111.479 99.5037 111.283 100.605 110.988 101.681C110.691 102.834 110.175 103.919 109.47 104.878C109.049 105.432 108.5 105.876 107.871 106.173C107.213 106.464 106.472 106.508 105.785 106.297C105.209 106.119 104.678 105.821 104.226 105.422C103.81 105.066 103.436 104.664 103.111 104.223L103.415 104.063C104.043 105.7 104.507 107.394 104.802 109.123C104.954 110.023 105.025 110.935 105.013 111.848C105.001 112.844 104.824 113.831 104.49 114.77C104.446 114.906 104.393 115.04 104.33 115.169C104.266 115.301 104.182 115.469 104.13 115.569L104.01 115.777L103.722 116.216C103.407 116.675 103.032 117.089 102.607 117.447C102.115 117.855 101.539 118.151 100.921 118.315C100.304 118.475 99.6599 118.496 99.0345 118.375C98.0374 118.161 97.0887 117.764 96.2369 117.204C95.4656 116.712 94.7742 116.212 94.1187 115.705L95.8612 114.762C95.9971 115.865 96.105 116.996 96.173 118.167C96.2478 119.365 96.2318 120.568 96.125 121.764C96.0702 122.399 95.9714 123.029 95.8293 123.65C95.6918 124.312 95.4952 124.961 95.2418 125.588C94.6921 126.99 93.7939 128.228 92.632 129.185L92.3842 129.385L92.2044 129.513C92.0325 129.625 91.8647 129.749 91.6888 129.845C91.3406 130.051 90.9756 130.227 90.5977 130.372C89.8742 130.653 89.1135 130.827 88.3397 130.888C86.8929 131.01 85.4369 130.818 84.0713 130.324C82.7211 129.858 81.4825 129.117 80.4344 128.146C79.3019 127.12 78.5028 125.778 78.1404 124.294L81.4416 124.933C79.815 126.859 78.1444 129.009 75.8264 130.74C74.6252 131.655 73.2505 132.316 71.7859 132.682C70.6361 132.951 69.444 132.985 68.2809 132.782C68.0531 132.75 67.9292 132.714 67.7653 132.678L67.4776 132.614L67.2098 132.538C65.7465 132.137 64.3998 131.393 63.2811 130.368C62.2026 129.355 61.3547 128.121 60.7953 126.751C60.2583 125.459 59.9045 124.097 59.7442 122.707C59.5834 121.358 59.5539 119.997 59.6562 118.642L61.8144 119.238C61.1438 120.421 60.2524 121.464 59.1887 122.311C58.13 123.164 56.9049 123.786 55.5917 124.138C54.2521 124.503 52.8389 124.503 51.4992 124.138C50.8347 123.946 50.2008 123.661 49.6169 123.29C49.3244 123.103 49.044 122.898 48.7776 122.675C48.5246 122.461 48.2831 122.235 48.0542 121.995C47.1408 121.004 46.4884 119.801 46.1558 118.494C45.8445 117.241 45.7432 115.944 45.8561 114.658C46.0894 112.167 46.7448 109.735 47.7944 107.464L48.5937 107.979C47.2983 109.557 45.6155 110.772 43.7099 111.504C42.7137 111.867 41.6554 112.027 40.5966 111.976C39.5085 111.919 38.4465 111.622 37.4873 111.105C36.5348 110.587 35.6908 109.891 35.0014 109.055C34.3228 108.239 33.7692 107.327 33.3588 106.349C32.9483 105.377 32.6532 104.36 32.4795 103.319L32.3756 102.628L32.2997 101.861C32.2557 101.365 32.1918 100.87 32.1878 100.374C32.1318 99.3789 32.1478 98.3757 32.1878 97.3806L32.3077 95.8898L32.5075 94.4031C32.6754 93.42 32.8712 92.4368 33.131 91.4696C33.3813 90.4987 33.6842 89.5422 34.0382 88.6041C34.2061 88.1285 34.3939 87.6649 34.6017 87.2093C34.8095 86.7537 35.0014 86.2861 35.2412 85.8424C35.6848 84.9398 36.1771 84.062 36.7159 83.2127C37.2515 82.3574 37.835 81.5461 38.4584 80.7348C38.7861 80.3352 39.1179 79.9355 39.4456 79.5359L40.4087 78.4808Z" fill="#C6D9DE"/>
<path d="M89.2629 69.4205C89.2637 70.4808 88.95 71.5175 88.3614 72.3995C87.7728 73.2815 86.9358 73.969 85.9563 74.3751C84.9768 74.7813 83.8989 74.8877 82.8589 74.6811C81.8189 74.4744 80.8636 73.9639 80.1138 73.2141C79.3641 72.4644 78.8536 71.509 78.6469 70.469C78.4402 69.4291 78.5467 68.3511 78.9528 67.3717C79.359 66.3922 80.0465 65.5552 80.9285 64.9666C81.8104 64.378 82.8472 64.0643 83.9075 64.0651C85.3278 64.0651 86.69 64.6293 87.6944 65.6336C88.6987 66.638 89.2629 68.0001 89.2629 69.4205Z" fill="#FFAFB6"/>
<path d="M11.7333 61.5153C10.2426 60.6401 11.0659 58.6258 12.2329 57.9384C13.292 57.3109 16.0736 57.5387 17.1447 57.8864C18.9232 58.446 19.9903 59.0854 18.4356 60.8119C17.2806 62.0908 15.4901 61.7711 14.0394 62.2787L11.7333 61.5153Z" fill="#DFF0FB"/>
<path d="M64.2683 69.6763C64.2683 70.7355 63.9542 71.7709 63.3658 72.6516C62.7773 73.5323 61.9409 74.2187 60.9623 74.6241C59.9838 75.0294 58.907 75.1355 57.8681 74.9288C56.8293 74.7222 55.875 74.2121 55.1261 73.4632C54.3771 72.7142 53.867 71.76 53.6604 70.7211C53.4538 69.6823 53.5598 68.6055 53.9652 67.6269C54.3705 66.6483 55.0569 65.8119 55.9376 65.2235C56.8183 64.635 57.8537 64.3209 58.9129 64.3209C60.3332 64.3209 61.6954 64.8852 62.6997 65.8895C63.7041 66.8938 64.2683 68.256 64.2683 69.6763Z" fill="#FFAFB6"/>
<path d="M94.1067 49.5575C91.1412 44.6537 84.9625 40.5172 79.3193 39.566C75.7224 38.9666 74.1238 43.5626 75.6305 46.7599C77.0133 49.7013 80.3784 48.3145 82.7844 47.747C82.9282 50.4247 82.9802 54.1815 86.8409 52.7188C87.5483 55.5843 90.0701 59.2452 93.679 58.0822C97.6436 56.8592 95.5214 51.9194 94.1067 49.5575Z" fill="white"/>
<path d="M79.3114 67.9778C80.1743 67.236 81.1955 66.7015 82.2968 66.4151C86.8929 65.2161 92.1004 67.3063 96.121 69.3885C101.716 72.2901 108.91 72.4979 115.169 71.4548C115.796 80.6669 103.007 87.0894 95.7173 87.4651C90.9534 87.7089 83.4119 86.8816 79.731 83.9161C77.6728 82.2535 76.3899 79.5199 74.1358 78.1171C70.6548 75.9469 70.5109 77.1899 68.1409 79.316C63.6448 83.3406 62.7855 86.382 56.8546 87.8088C52.3585 88.8958 44.3653 86.8976 40.3208 84.3677C35.0013 81.0146 35.373 72.7017 35.7367 67.2184C40.9882 72.8776 46.5275 69.5484 52.6502 67.7619C59.4124 65.7876 63.0053 68.6612 68.5446 72.1582C73.8041 75.4833 75.4107 71.2869 79.3114 67.9778Z" fill="white"/>
<path d="M78.7918 67.3702C79.121 67.0957 79.4682 66.8433 79.8309 66.6149C80.1977 66.3875 80.5827 66.191 80.9819 66.0274C81.385 65.8615 81.8006 65.7278 82.2249 65.6277C82.6203 65.5332 83.0206 65.4599 83.4238 65.4079C84.2499 65.2936 85.0851 65.2601 85.9177 65.308C86.7328 65.3576 87.5435 65.4645 88.3436 65.6277C89.9163 65.9505 91.4541 66.4243 92.9357 67.0425C93.675 67.3423 94.3984 67.666 95.1138 68.0097L96.6805 68.781L97.212 69.0288C97.8902 69.3349 98.5854 69.6018 99.2942 69.8281C100.009 70.0604 100.734 70.2565 101.468 70.4156C102.204 70.5795 102.943 70.7114 103.694 70.8153C104.446 70.9192 105.193 70.9791 105.949 71.0191C107.463 71.095 108.981 71.075 110.493 70.9592C111.248 70.8952 111.999 70.8073 112.751 70.7074C113.502 70.6075 114.249 70.4756 114.993 70.3317L116.26 70.0919L116.328 71.3868C116.384 73.9175 115.609 76.3969 114.122 78.4447C112.721 80.3918 110.971 82.0625 108.962 83.3725C107.008 84.6722 104.912 85.7449 102.715 86.5698C100.52 87.4184 98.2093 87.9343 95.8612 88.1005C93.5395 88.2009 91.2135 88.0925 88.9111 87.7767C86.5868 87.496 84.3101 86.9073 82.1409 86.0262C81.0296 85.5626 79.9927 84.9378 79.0636 84.1718C78.1996 83.368 77.4055 82.4922 76.6896 81.5541C76.0281 80.6773 75.2752 79.8735 74.4435 79.1561C74.2409 78.9949 74.0301 78.8442 73.8121 78.7045C73.5763 78.5606 73.3325 78.4168 73.1047 78.3049C72.6719 78.0494 72.205 77.857 71.7179 77.7333C71.5336 77.6843 71.3401 77.6809 71.1542 77.7234C70.9683 77.7659 70.7955 77.853 70.6508 77.9771C70.2382 78.3161 69.8471 78.6805 69.4798 79.0682C68.6365 79.9035 67.7892 80.6349 67.0299 81.4342C65.4313 83.0088 64.0564 84.8832 62.0741 86.326C61.0935 87.0334 60.0169 87.5973 58.8769 88.0005C57.7512 88.428 56.5716 88.697 55.3719 88.7999C53.0144 88.9238 50.6515 88.703 48.3579 88.1444C46.0797 87.635 43.8653 86.8737 41.7556 85.8744C40.666 85.3672 39.6573 84.7019 38.7621 83.9001C37.8876 83.0576 37.181 82.0567 36.6799 80.9506C35.7483 78.7907 35.2513 76.4684 35.2172 74.1164C35.156 71.8164 35.2454 69.5148 35.4849 67.2264L35.5369 66.6069L35.9605 67.0585C36.6547 67.7703 37.4379 68.3895 38.2905 68.9009C39.1329 69.393 40.0514 69.7415 41.0082 69.932C41.9643 70.1072 42.9418 70.1328 43.9057 70.008C44.8843 69.8792 45.8499 69.6653 46.7912 69.3685C47.7464 69.0768 48.6856 68.7171 49.6248 68.3374L53.1658 66.8747L53.9251 66.6109C54.4327 66.455 54.9443 66.3031 55.4678 66.2112C56.5332 65.9629 57.6301 65.878 58.721 65.9594C59.8298 66.0567 60.9124 66.3504 61.9183 66.8267C62.8778 67.2927 63.7928 67.8451 64.6519 68.4773L67.1338 70.2797C67.9291 70.8712 68.7592 71.4144 69.6197 71.9063C70.3776 72.3618 71.2415 72.6112 72.1255 72.6297C72.9852 72.5674 73.7996 72.22 74.4395 71.6426C75.1926 71.0053 75.9042 70.3205 76.5697 69.5923C77.2721 68.8143 78.0138 68.0726 78.7918 67.3702ZM79.8229 68.5932C79.0796 69.2286 78.3762 69.924 77.6728 70.6554C76.9573 71.4314 76.1923 72.1603 75.3827 72.8375C74.4758 73.6221 73.3347 74.0844 72.1375 74.1524C70.9688 74.1418 69.8239 73.8204 68.8204 73.2212C67.9098 72.6962 67.0317 72.117 66.1906 71.4867L63.7407 69.6563C62.9613 69.0664 62.1307 68.5474 61.2588 68.1056C60.4161 67.6886 59.5048 67.4273 58.5691 67.3343C57.621 67.2512 56.6657 67.3118 55.7356 67.5141C55.26 67.61 54.7884 67.7419 54.3208 67.8818L53.6294 68.1096L50.0564 69.4764C49.0893 69.8361 48.1061 70.1798 47.099 70.4556C45.1007 71.0191 42.9026 71.3069 40.7924 70.7953C39.7498 70.545 38.7613 70.1076 37.8749 69.5044C37.0084 68.9086 36.2226 68.2034 35.5369 67.4062L36.0125 67.2343C35.8749 69.4972 35.8829 71.7666 36.0365 74.0285C36.2363 76.2586 36.6359 78.5007 37.6351 80.451C38.1019 81.4194 38.7505 82.2891 39.5455 83.0128C39.7355 83.1883 39.9357 83.3524 40.1449 83.5044C40.3676 83.6641 40.5984 83.8122 40.8363 83.948C41.3039 84.2278 41.7995 84.4716 42.2951 84.7154C44.3314 85.6372 46.4622 86.3341 48.6496 86.7936C50.8057 87.2848 53.0213 87.4625 55.228 87.3211C56.3053 87.2143 57.3641 86.967 58.3773 86.5858C59.3902 86.2311 60.3472 85.7331 61.2189 85.107C62.9534 83.8601 64.3442 82.0297 65.9868 80.3831C66.7861 79.5358 67.7013 78.7844 68.4886 78.0251C68.9095 77.5858 69.3623 77.1784 69.8435 76.8061C70.1493 76.5826 70.4974 76.4235 70.8666 76.3385C71.2434 76.2582 71.6329 76.2582 72.0096 76.3385C72.6304 76.4965 73.2244 76.7457 73.7721 77.0779C74.0399 77.2298 74.2877 77.3816 74.5355 77.5375C74.7976 77.7067 75.0498 77.8909 75.2908 78.089C76.1813 78.872 76.9852 79.7483 77.6888 80.7028C78.346 81.588 79.0759 82.4168 79.8709 83.1807C80.6969 83.8788 81.6222 84.4499 82.6165 84.8752C84.6818 85.7164 86.8518 86.273 89.067 86.5298C91.2896 86.8378 93.5366 86.9328 95.7772 86.8136C97.9878 86.6001 100.155 86.0615 102.208 85.2149C104.281 84.4029 106.242 83.3284 108.043 82.0177C109.825 80.7622 111.356 79.1828 112.555 77.3617C113.683 75.6401 114.201 73.5896 114.026 71.5387L115.36 72.5938C114.561 72.6977 113.762 72.7896 112.963 72.8575C112.163 72.9255 111.364 72.9694 110.565 72.9894C108.965 73.0471 107.363 73.0044 105.769 72.8615C104.969 72.7896 104.17 72.6883 103.371 72.5578C102.571 72.4272 101.785 72.2687 101.013 72.0822C100.231 71.8931 99.4598 71.6623 98.7027 71.3908C97.9364 71.1263 97.1864 70.8167 96.4567 70.4636L94.3705 69.4205C93.679 69.0888 92.9876 68.773 92.2842 68.4893C90.9111 67.9072 89.486 67.4562 88.0279 67.1424C87.3013 66.9977 86.5655 66.9042 85.8258 66.8627C85.105 66.8257 84.3823 66.8578 83.6676 66.9586C83.295 67.007 82.9254 67.0764 82.5606 67.1664C82.231 67.2514 81.9078 67.3596 81.5934 67.4901C81.273 67.6244 80.9642 67.7848 80.6702 67.9697C80.374 68.1581 80.0909 68.3664 79.8229 68.5932Z" fill="#C6D9DE"/>
<path d="M72.0855 40.1016C70.8306 42.8312 72.1255 46.7039 67.8292 46.8958C64.2602 47.0556 64.3362 43.5906 62.2699 41.9C61.071 44.6017 60.7392 48.6103 58.3453 50.8204C57.1183 51.9554 55.5477 52.2112 53.9051 51.7236C52.0946 51.1921 52.1186 49.9332 50.8397 48.8741C50.0764 51.0842 50.8677 53.1584 48.8095 54.809C47.3987 55.94 44.5291 57.067 42.6547 56.7433C40.4806 56.3676 38.7661 54.5052 38.81 52.431C38.854 50.3568 40.5166 49.1099 42.2591 48.1107C35.8686 41.4764 47.5625 33.1715 53.2137 39.6819C53.1577 35.0979 57.9536 34.5304 62.0421 34.7342C64.2282 34.8421 66.894 35.5015 68.7524 36.6965C70.4629 37.7996 71.2582 39.7339 73.1966 40.6371L72.0855 40.1016Z" fill="#C6D9DE"/>
<path d="M74.6235 42.5355C73.8662 43.0115 73.2002 43.6193 72.6571 44.33C71.9417 45.2652 71.662 46.9517 70.7468 47.6951C67.5495 50.3009 66.1947 45.1053 64.1884 43.5227C62.9654 46.1604 62.6417 50.0771 60.2198 52.2392C58.9809 53.3463 57.4222 53.5941 55.7316 53.1185C53.9012 52.6029 53.9292 51.372 52.6343 50.3209C51.859 52.475 52.6583 54.5053 50.5801 56.1199C49.1613 57.2389 46.2518 58.35 44.3654 58.0223C42.1673 57.6546 40.4327 55.8361 40.4807 53.8099C40.5287 51.7836 42.2072 50.5647 43.9697 49.5895C37.5073 43.107 49.3251 35.01 55.0442 41.3486C55.0043 36.8724 59.8401 36.3209 63.9726 36.5167C68.6523 36.7792 73.1405 38.4635 76.8376 41.3446C76.077 41.6983 75.3378 42.096 74.6235 42.5355Z" fill="white"/>
<path d="M56.5109 38.9706C55.6036 38.7708 54.6804 38.539 53.7133 38.2752C52.5143 37.9355 56.0593 32.9598 56.2951 32.5721C58.8169 28.4077 64.548 23.0922 69.7515 24.3791C77.9365 26.4333 84.8066 28.1998 91.9245 32.8159C96.6605 35.8932 99.4261 40.7571 100.937 46.0925C101.7 48.7902 105.385 57.5027 100.745 58.39C94.0787 59.6649 93.2953 55.4804 89.8423 51.1202C86.0176 46.2843 81.2137 43.175 75.1629 41.5284C71.4061 40.4973 67.4935 40.1256 63.6128 39.9298C61.2222 39.8154 58.8461 39.4945 56.5109 38.9706Z" fill="#C6D9DE"/>
<path d="M59.952 37.6278C59.1527 37.4599 58.3533 37.2601 57.4941 37.0323C56.419 36.7445 59.5563 32.4762 59.7601 32.1445C61.9782 28.5715 67.0139 24.0154 71.59 25.1305C78.7838 26.877 84.8267 28.3957 91.0773 32.3523C95.2417 34.99 97.6716 39.1465 98.9985 43.7345C99.6739 46.0485 102.911 53.5181 98.8307 54.2815C92.9717 55.3726 92.2803 51.7836 89.2389 48.0428C85.8738 43.9024 81.6454 41.2487 76.3339 39.8059C73.0288 38.9227 69.5917 38.6069 66.1786 38.4351C64.084 38.3427 62.0009 38.0726 59.952 37.6278Z" fill="white"/>
<path d="M84.5669 61.5473C83.6997 60.7479 82.4647 59.9486 81.2618 59.9047C79.7591 59.8367 78.7359 60.6121 77.7927 61.6392C77.7041 61.7311 77.6512 61.8517 77.6436 61.9792C77.636 62.1068 77.6743 62.2328 77.7515 62.3346C77.8286 62.4364 77.9397 62.5072 78.0645 62.5343C78.1893 62.5614 78.3197 62.543 78.4322 62.4825C79.4114 61.9309 80.0788 61.4433 81.2618 61.3914C82.3808 61.3394 82.9164 62.7862 84.0954 62.6783C84.2256 62.6766 84.3526 62.6369 84.4605 62.5639C84.5685 62.491 84.6527 62.388 84.7029 62.2678C84.753 62.1475 84.7669 62.0152 84.7427 61.8872C84.7186 61.7591 84.6575 61.641 84.5669 61.5473Z" fill="#303030"/>
<path d="M61.3109 59.3612C60.559 59.1901 59.7737 59.2402 59.0497 59.5054C58.3257 59.7707 57.6938 60.2397 57.2304 60.8559C57.1748 60.9486 57.1386 61.0517 57.1241 61.1589C57.1095 61.266 57.1168 61.375 57.1456 61.4793C57.1743 61.5835 57.224 61.6808 57.2914 61.7653C57.3589 61.8498 57.4428 61.9198 57.5381 61.9709C58.2975 62.3706 58.813 61.4434 59.3925 61.1077C60.8033 60.3083 62.8416 61.1077 63.6169 62.4425C63.6632 62.5191 63.7309 62.5805 63.8116 62.6191C63.8923 62.6578 63.9825 62.6721 64.0712 62.6602C64.1599 62.6483 64.2432 62.6108 64.3109 62.5522C64.3785 62.4937 64.4277 62.4167 64.4522 62.3306C64.8838 60.5881 62.6857 59.6409 61.3109 59.3612Z" fill="#303030"/>
<path d="M77.7927 70.1598C77.393 75.6192 64.4961 76.0348 64.0285 70.3836C63.5209 64.2769 78.3362 62.6423 77.7927 70.1598Z" fill="#D44A4D"/>
<path d="M72.1934 68.1416C72.0496 70.1679 67.2537 70.3237 67.0818 68.2255C66.894 65.9435 72.3893 65.352 72.1934 68.1416Z" fill="#F2ABA5"/>
<path d="M59.996 55.1527C58.4733 55.5963 56.5549 55.2966 55.26 56.5315C53.5015 58.2021 55.1761 58.5298 56.9386 58.5938C58.4054 58.6497 60.4356 58.4259 61.4867 57.2029C62.8455 55.6043 60.5835 54.9129 59.0408 55.5364L59.996 55.1527Z" fill="#DFF0FB"/>
<path d="M80.0707 57.8665C77.3371 54.9929 85.1343 56.2678 85.6379 58.5739C86.1854 61.1157 80.7341 58.5699 80.0707 57.8665Z" fill="#DFF0FB"/>
<path d="M133.381 122.975C133.221 123.862 134.86 131.235 135.983 127.091C137.458 128.146 143.129 132.71 141.486 127.115C140.687 124.425 137.09 122.719 135.423 120.681L133.381 122.975Z" fill="#D9603E"/>
<path d="M131.115 122.435C131.231 122.147 131.389 121.878 131.583 121.636C132.594 120.341 134.652 119.162 135.823 119.038C142.617 118.323 132.042 130.268 131.027 123.226C130.988 122.959 131.018 122.687 131.115 122.435Z" fill="#DFF0FB"/>
<path d="M66.0747 99.7944C64.8398 99.071 63.8886 100.849 63.1572 101.577C62.2141 102.512 60.8552 102 60.2637 100.985C59.8121 100.21 60.0039 99.1829 59.7482 98.3436C59.7117 98.2181 59.6355 98.1079 59.531 98.0294C59.4265 97.951 59.2993 97.9086 59.1687 97.9086C59.038 97.9086 58.9108 97.951 58.8063 98.0294C58.7018 98.1079 58.6256 98.2181 58.5891 98.3436C58.2662 99.3811 58.3515 100.503 58.8276 101.48C59.3037 102.456 60.1347 103.214 61.151 103.599C62.254 103.999 63.453 103.371 64.2963 102.716C64.6803 102.348 65.0307 101.947 65.3434 101.517C65.743 101.085 66.1427 100.969 66.3385 100.406C66.3659 100.289 66.355 100.167 66.3075 100.057C66.26 99.9465 66.1784 99.8546 66.0747 99.7944Z" fill="#DFF0FB"/>
<path d="M76.6976 111.76C76.6271 111.647 76.5163 111.564 76.3874 111.528C76.2586 111.493 76.121 111.507 76.0022 111.568C75.3788 111.832 75.2029 112.655 74.7353 113.135C74.1224 113.711 73.3346 114.065 72.4972 114.142C70.7507 114.346 69.1681 112.544 69.5557 110.785C69.5877 110.629 69.4199 110.473 69.276 110.569C68.2569 111.205 68.3768 112.655 68.8763 113.639C69.1424 114.176 69.5426 114.636 70.0383 114.973C70.534 115.311 71.1084 115.514 71.7059 115.565C72.9415 115.676 74.1777 115.359 75.2069 114.666C75.9902 114.146 77.385 112.767 76.6976 111.76Z" fill="#DFF0FB"/>
<path d="M82.3648 97.2686L82.2769 97.1767C82.2052 97.1006 82.114 97.0458 82.0131 97.0183C81.9123 96.9908 81.8058 96.9917 81.7054 97.0208C80.986 97.3046 80.6223 98.1399 80.0109 98.6475C79.6842 98.9176 79.3063 99.1188 78.8998 99.2389C78.5002 99.3548 78.1005 98.3997 77.8887 98.1319C77.8332 98.077 77.7657 98.0356 77.6916 98.011C77.6175 97.9864 77.5387 97.9792 77.4613 97.99C77.384 98.0009 77.3102 98.0294 77.2457 98.0734C77.1812 98.1174 77.1277 98.1757 77.0894 98.2438C76.7816 98.8713 77.0574 99.5707 77.489 100.09C77.6863 100.376 77.9662 100.595 78.2912 100.717C78.6162 100.839 78.9708 100.859 79.3075 100.774C79.9911 100.612 80.6313 100.304 81.1835 99.8695C81.7357 99.4353 82.1865 98.886 82.5047 98.2598C82.5867 98.1004 82.6172 97.9195 82.5922 97.742C82.5671 97.5645 82.4877 97.3991 82.3648 97.2686Z" fill="#DFF0FB"/>
<path d="M93.4392 100.374C93.415 100.281 93.3699 100.195 93.3074 100.122C93.245 100.048 93.1667 99.9905 93.0786 99.952C92.9905 99.9135 92.8948 99.8956 92.7987 99.8994C92.7027 99.9033 92.6087 99.9289 92.524 99.9744C91.5688 100.578 91.325 102.029 90.7615 102.968C90.4213 103.589 89.9184 104.106 89.3068 104.463C88.3955 104.954 87.7841 104.195 87.4204 103.467C87.4027 103.437 87.3782 103.411 87.3489 103.392C87.3196 103.373 87.2862 103.361 87.2514 103.356C87.2166 103.352 87.1813 103.356 87.1482 103.368C87.1151 103.379 87.0852 103.398 87.0607 103.423C86.3773 104.111 86.5891 105.094 87.3444 105.657C88.2477 106.321 89.3427 106.197 90.3259 105.769C91.309 105.342 92.0524 104.299 92.5919 103.371C93.0635 102.576 93.7949 101.337 93.4392 100.374Z" fill="#DFF0FB"/>
<path d="M136.586 61.6991C136.586 61.6991 136.586 61.843 136.61 62.0987C136.633 62.5823 136.596 63.0667 136.502 63.5415C136.377 64.2901 136.118 65.0101 135.739 65.6677C135.256 66.5109 134.613 67.251 133.845 67.8458C132.958 68.5205 131.958 69.0309 130.891 69.3525C129.707 69.7128 128.457 69.8002 127.234 69.6083C125.894 69.4133 124.67 68.7388 123.789 67.7099C123.355 67.1992 123.028 66.6067 122.826 65.9674C122.619 65.3465 122.504 64.6991 122.482 64.0451C122.471 63.4056 122.544 62.7674 122.698 62.1467C122.878 61.53 123.147 60.9429 123.497 60.4042C124.181 59.3867 125.092 58.5424 126.159 57.9383C127.136 57.3723 128.198 56.9674 129.304 56.7393C130.327 56.5285 131.38 56.519 132.406 56.7114C133.332 56.8934 134.192 57.3245 134.892 57.9583C135.44 58.4668 135.864 59.0944 136.131 59.7927C136.311 60.2232 136.437 60.6742 136.506 61.1356L136.586 61.6232V61.6991Z" fill="white"/>
<path d="M136.586 61.6991C136.586 61.6991 136.586 61.843 136.61 62.0987C136.633 62.5823 136.596 63.0667 136.502 63.5415C136.377 64.2901 136.118 65.0101 135.739 65.6677C135.256 66.5109 134.613 67.251 133.845 67.8458C132.958 68.5205 131.958 69.0309 130.891 69.3525C129.707 69.7128 128.457 69.8002 127.234 69.6083C125.894 69.4133 124.67 68.7388 123.789 67.7099C123.355 67.1992 123.028 66.6067 122.826 65.9674C122.619 65.3465 122.504 64.6991 122.482 64.0451C122.471 63.4056 122.544 62.7674 122.698 62.1467C122.878 61.53 123.147 60.9429 123.497 60.4042C124.181 59.3867 125.092 58.5424 126.159 57.9383C127.136 57.3723 128.198 56.9674 129.304 56.7393C130.327 56.5285 131.38 56.519 132.406 56.7114C133.332 56.8934 134.192 57.3245 134.892 57.9583C135.44 58.4668 135.864 59.0944 136.131 59.7927C136.311 60.2232 136.437 60.6742 136.506 61.1356L136.586 61.6232V61.6991ZM134.188 61.819V61.4833C134.183 61.1728 134.14 60.8642 134.06 60.5641C133.956 60.116 133.751 59.6977 133.461 59.3411C133.068 58.8441 132.543 58.4675 131.946 58.254C131.156 57.9693 130.311 57.8682 129.476 57.9583C128.49 58.0519 127.536 58.3573 126.679 58.8535C125.767 59.361 125.002 60.0946 124.457 60.9837C124.202 61.4289 124.02 61.9119 123.917 62.4145C123.788 63.1407 123.833 63.8872 124.047 64.5929C124.262 65.2986 124.641 65.9435 125.152 66.475C125.814 67.0602 126.666 67.3842 127.55 67.3862C128.423 67.4059 129.29 67.2425 130.096 66.9066C130.827 66.6271 131.503 66.2213 132.094 65.7077C132.574 65.2998 132.999 64.8309 133.357 64.3128C133.625 63.9263 133.832 63.5002 133.968 63.0499C134.023 62.8953 134.063 62.7361 134.088 62.5743C134.088 62.5104 134.12 62.4504 134.132 62.3945C134.144 62.3385 134.132 62.2386 134.132 62.1707C134.132 61.8989 134.16 61.771 134.16 61.771L134.188 61.819Z" fill="#C6D9DE"/>
</g>
<rect x="5.5" y="1.5" width="137" height="137" stroke="#D8E1E5" stroke-width="3"/>
</g>
<defs>
<filter id="filter0_d" x="0" y="0" width="148" height="148" filterUnits="userSpaceOnUse" color-interpolation-filters="sRGB">
<feFlood flood-opacity="0" result="BackgroundImageFix"/>
<feColorMatrix in="SourceAlpha" type="matrix" values="0 0 0 0 0 0 0 0 0 0 0 0 0 0 0 0 0 0 127 0"/>
<feOffset dy="4"/>
<feGaussianBlur stdDeviation="2"/>
<feColorMatrix type="matrix" values="0 0 0 0 0 0 0 0 0 0 0 0 0 0 0 0 0 0 0.25 0"/>
<feBlend mode="normal" in2="BackgroundImageFix" result="effect1_dropShadow"/>
<feBlend mode="normal" in="SourceGraphic" in2="effect1_dropShadow" result="shape"/>
</filter>
<clipPath id="clip0">
<rect x="4" width="140" height="140" fill="white"/>
</clipPath>
</defs>
</svg>
