<svg width="148" height="149" viewBox="0 0 148 149" fill="none" xmlns="http://www.w3.org/2000/svg">
<g filter="url(#filter0_d)">
<g clip-path="url(#clip0)">
<path d="M144 0.932617H4V140.933H144V0.932617Z" fill="#BAD9E4"/>
<path d="M44.3654 126.997C44.5813 126.995 44.7947 127.043 44.9893 127.136C45.1839 127.23 45.3546 127.367 45.4884 127.536C45.7266 127.838 45.8587 128.21 45.8641 128.595C45.861 128.974 45.7285 129.341 45.4884 129.634C45.3538 129.796 45.1799 129.922 44.9834 129.998C44.7869 130.074 44.5742 130.099 44.3654 130.07L35.7648 129.698C35.5484 129.7 35.3346 129.652 35.1399 129.557C34.9452 129.463 34.7747 129.325 34.6417 129.155C34.4019 128.855 34.2696 128.483 34.2661 128.1C34.2673 127.719 34.4 127.351 34.6417 127.057C34.7776 126.896 34.9516 126.772 35.1478 126.696C35.344 126.62 35.5561 126.594 35.7648 126.621H36.3722C36.255 124.599 36.2404 122.576 36.3283 120.554C36.4162 118.532 36.5641 116.523 36.7719 114.527C36.9797 112.532 37.2302 110.533 37.5233 108.532C37.8163 106.531 38.1134 104.533 38.4145 102.538C38.4425 102.43 38.4824 102.29 38.5384 102.138C37.6111 102.725 36.6547 103.266 35.6728 103.757C35.4847 103.864 35.2746 103.926 35.0586 103.94C34.8426 103.954 34.6262 103.919 34.4259 103.836C34.0702 103.688 33.7718 103.428 33.5746 103.097C33.3829 102.772 33.3095 102.391 33.3668 102.018C33.4047 101.814 33.4934 101.624 33.6248 101.464C33.7562 101.304 33.9259 101.18 34.1182 101.103C36.1224 100.136 38.0013 98.9277 39.7134 97.5059C40.0283 97.2598 40.4131 97.1199 40.8124 97.1062C41.0193 97.0925 41.2265 97.1268 41.4179 97.2066C41.6093 97.2863 41.7796 97.4093 41.9155 97.5658C42.1975 97.8618 42.4224 98.2073 42.5789 98.585C42.7194 98.9371 42.8109 99.3069 42.8507 99.684C42.8914 100.082 42.9114 100.483 42.9106 100.883C42.9106 101.283 42.9546 109.172 42.9546 110.587C42.9546 116.046 42.8707 121.491 42.7028 126.921L44.3654 126.997ZM39.7933 115.482C39.6015 117.369 39.4683 119.246 39.3937 121.114C39.3191 122.981 39.3404 124.873 39.4576 126.789H39.5695C39.6814 123.019 39.7653 119.237 39.8213 115.442L39.7933 115.482ZM39.6295 101.395H39.8772V101.267L39.6295 101.395Z" fill="#303030"/>
<path d="M69.4239 103.365C68.9803 101.255 68.157 98.8807 66.2906 97.6138C65.2835 96.9303 64.1884 96.8944 63.0254 96.8144H62.7697C61.195 96.6826 59.4725 96.7185 58.0257 97.4299C54.9124 98.9446 52.7982 102.705 51.7311 105.823C50.5921 109.168 50.8319 112.861 53.6335 115.263C56.6229 117.832 60.2998 116.002 62.5299 113.508C63.0493 112.916 63.516 112.279 63.9247 111.606C64.0526 116.681 62.9215 121.577 59.0808 125.118C58.2617 125.724 57.3926 126.258 56.483 126.717C55.6421 127.194 54.6837 127.426 53.7174 127.384C53.4355 127.312 53.1611 127.213 52.8981 127.088L52.4105 126.805C52.3666 126.749 52.3226 126.701 52.2866 126.661C52.7343 125.362 50.8079 124.183 49.8887 125.462C48.9135 126.833 49.6929 128.104 50.8719 129.003C51.62 129.543 52.4883 129.893 53.4018 130.022C54.3153 130.152 55.2466 130.057 56.1154 129.746C56.515 129.618 56.8747 129.47 57.2424 129.315C65.1037 126.581 69.4799 118.072 69.8796 110.111C70.0154 107.852 69.8623 105.585 69.4239 103.365ZM59.6044 112.649C57.2704 114.827 54.3209 113.372 53.8213 110.419C53.5016 108.552 54.3888 106.394 55.1602 104.74C56.1034 102.721 57.4382 100.563 59.3806 99.3603C59.8249 99.0718 60.3178 98.866 60.8353 98.7528C61.0886 98.6869 61.3489 98.652 61.6106 98.6489C62.2832 98.7302 62.9277 98.967 63.493 99.3403C67.3857 102.046 61.9144 110.495 59.6044 112.649ZM66.6623 116.034C65.7871 118.752 63.509 122.464 63.3811 122.76C63.2366 123.026 63.0535 123.268 62.8376 123.48C62.7564 123.613 62.6421 123.723 62.5059 123.799C62.6418 123.671 62.6937 123.48 62.8256 123.344C62.9551 123.205 63.0556 123.042 63.1213 122.864C63.2999 122.432 63.4757 122.001 63.6489 121.569C64.0033 120.679 64.3376 119.783 64.652 118.88C65.409 116.804 65.9749 114.664 66.3426 112.485C66.7422 109.911 67.038 108.804 66.8542 105.227C66.7782 103.681 66.8941 101.762 66.6623 100.24C67.038 103.149 67.8613 106.043 67.8613 108.996C67.8137 111.389 67.4096 113.761 66.6623 116.034Z" fill="#303030"/>
<path d="M60.9072 54.6585C61.6666 54.4147 62.4339 54.135 63.1933 53.8312C70.2872 50.9577 70.9186 49.6748 70.6029 48.8035C70.1313 47.5007 66.986 47.7924 66.0668 48.0362C64.2004 47.057 49.8607 39.4755 46.3037 36.7699C45.4724 36.1384 44.3854 35.2272 43.1265 34.1761C37.4753 29.4401 32.9871 25.8752 30.841 26.5586C30.5682 26.6449 30.3256 26.8071 30.1416 27.0262C29.9949 27.2067 29.8875 27.4158 29.8262 27.6401C29.765 27.8645 29.7512 28.0991 29.7859 28.3291C30.0297 30.5512 33.8904 34.1041 36.2643 36.1024C35.4633 35.849 34.7087 35.467 34.0303 34.9714C32.1079 33.5127 30.769 32.5735 29.658 32.9371C29.3099 33.0528 29.0149 33.2897 28.8267 33.6046C27.8316 35.1672 31.9321 38.5803 34.5378 40.5186C33.9869 40.3513 33.4671 40.0948 32.9991 39.7593C31.0008 38.2246 30.2415 38.1607 29.8019 38.3165C29.6284 38.3732 29.4751 38.4788 29.3602 38.6206C29.2453 38.7624 29.1739 38.9344 29.1544 39.1158C28.9386 40.3148 30.853 43.4921 33.6186 45.1107L35.521 46.5695C35.0382 46.4209 34.5803 46.2014 34.1621 45.918C33.4667 45.4464 32.9632 45.0508 32.5635 44.719C31.8241 44.1355 31.3645 43.7878 30.845 43.9597C30.6155 44.0414 30.4199 44.1976 30.2895 44.4033C30.1824 44.6104 30.1229 44.8388 30.1153 45.0718C30.1077 45.3048 30.1522 45.5365 30.2455 45.7502C30.7251 47.3088 32.7753 50.2743 36.2404 51.5971C36.7919 51.805 37.4393 52.0927 38.1827 52.4284C42.7668 54.5186 50.5161 57.9797 60.9072 54.6585Z" fill="white"/>
<path d="M66.2426 48.7476C66.2426 48.7476 50.8398 40.7625 47.163 37.9888C43.4861 35.2152 34.286 26.5626 32.4596 28.7248C30.6331 30.8869 39.8772 37.9449 39.8772 37.9449C39.8772 37.9449 37.2914 37.7171 35.453 36.3462C33.6146 34.9754 31.976 33.7525 31.2286 34.9035C30.4813 36.0545 35.2532 40.099 38.4145 42.0973C38.4145 42.0973 35.9286 41.9694 34.4579 40.8584C32.9871 39.7473 31.7282 39.1039 31.5763 39.9392C31.4245 40.7744 32.9991 43.604 35.6049 45.1067C38.0028 46.9092 39.1418 47.8644 39.3377 47.6046C39.5335 47.3448 37.6871 48.1281 35.5569 46.7054C33.4267 45.2826 33.0311 44.4833 32.5475 45.1627C32.0639 45.8421 34.0023 49.6908 37.9709 51.2015C41.9395 52.7122 50.8518 58.2794 63.3451 53.2318C75.8384 48.1841 67.5975 48.1841 66.2426 48.7476Z" fill="white"/>
<path d="M32.5076 69.314C32.8153 69.4059 27.0563 66.1847 25.01 64.9177C22.9638 63.6508 22.2124 63.2232 18.3837 63.503C14.555 63.7827 11.062 62.4279 11.5296 61.6805C12.125 60.7333 15.0785 61.6805 15.2304 60.9651C15.3823 60.2497 10.6183 59.5344 10.6663 58.3674C10.7143 57.2004 15.3783 58.6032 15.3783 58.6032C15.3783 58.6032 10.7023 55.8615 11.3297 54.8943C11.9572 53.9272 17.1527 56.465 17.1527 56.465C17.1527 56.465 13.7796 53.9871 14.2592 52.7362C14.7388 51.4852 19.4548 56.2931 20.2541 55.9694C21.0534 55.6457 19.3029 51.809 20.6258 51.6931C21.9486 51.5772 22.4042 53.7393 22.5201 55.1101C22.636 56.481 23.843 56.9446 23.815 57.8758C24.1684 58.0474 24.5055 58.2507 24.8222 58.4833C29.4782 61.9843 35.6968 61.2129 35.6968 61.2129C35.6968 61.2129 32.1958 69.2261 32.5076 69.314Z" fill="#FFD4C3"/>
<path d="M109.062 83.1302C109.062 83.1302 118.138 85.74 121.791 85.9478C124.033 86.0757 127.958 85.8958 129.764 87.5464C131.295 88.9332 130.208 91.8787 130.4 93.6532C130.498 94.5869 130.861 95.473 131.447 96.207C131.946 96.9064 132.722 98.3532 131.127 97.7417C131.675 98.4371 131.155 99.2604 130.404 98.4691C131.027 99.668 130.152 100.148 129.496 99.0126C129.581 99.222 129.613 99.4491 129.589 99.6736C129.564 99.8982 129.484 100.113 129.357 100.299C128.621 100.299 128.509 99.4162 128.277 98.8927C128.122 99.8479 127.418 100.643 126.603 99.724C126.079 99.1365 126.135 98.2732 125.888 97.5419C125.488 96.3789 124.689 95.3837 124.369 94.2007C124.129 93.3574 124.421 92.9298 123.733 92.5781C122.646 92.0266 120.804 92.0466 119.609 91.7788C114.617 90.6078 109.641 88.8813 105.269 86.1836C97.0163 81.028 109.062 83.1302 109.062 83.1302Z" fill="#FFD4C3"/>
<path d="M113.962 73.0228C113.962 73.0228 123.366 72.1476 126.843 71.0246C129.097 70.2892 132.722 68.6586 135.06 69.8016C136.658 70.5769 136.714 72.0916 137.126 73.5824C137.41 74.5075 137.839 75.3817 138.397 76.1721C139.04 77.1433 139.78 77.3711 140.599 78.0585C141.482 78.8139 140.959 79.9249 139.923 79.0657C140.203 79.4653 140.635 79.809 140.227 80.2247C139.899 80.1989 139.59 80.0573 139.356 79.825C139.332 79.7851 139.328 79.7851 139.356 79.825C139.684 80.1368 139.588 80.5644 139.416 80.9481C139.085 80.9025 138.784 80.7307 138.577 80.4685C138.652 80.6234 138.692 80.7936 138.692 80.966C138.692 81.1385 138.652 81.3087 138.577 81.4636C138.073 81.4636 137.801 81.064 137.601 80.6323C138.241 82.6786 136.219 82.4708 135.307 81.1958C134.68 80.3086 133.789 79.6572 133.097 78.8219C132.933 78.6221 131.615 76.388 131.595 76.392C124.84 77.2992 118.406 78.5022 111.548 77.2432C101.98 75.4568 113.962 73.0228 113.962 73.0228Z" fill="#FFD4C3"/>
<path d="M58.6052 50.0545C58.6052 50.0545 43.8418 67.1998 24.4425 58.1276C24.4425 58.1276 22.0645 77.6469 28.6389 81.9912C28.6389 81.9912 54.7365 77.0594 59.8121 56.1013C59.8281 56.0854 64.3203 47.205 58.6052 50.0545Z" fill="white"/>
<path d="M57.4502 52.7162C57.4502 52.7162 43.3663 69.1741 26.3129 61.1929C26.3129 61.1929 24.5104 76.1961 30.3095 80.0128C30.3095 80.0128 53.2538 75.6805 57.734 57.2323C57.718 57.2523 62.4739 50.2064 57.4502 52.7162Z" fill="white"/>
<path d="M80.1028 49.9426C79.3035 49.8987 78.5041 49.8267 77.7048 49.7188C70.1113 48.7357 69.1801 47.6566 69.2641 46.7294C69.388 45.3546 72.5093 44.839 73.4565 44.843C75.0111 43.4202 86.9689 32.4536 89.7265 28.9406C90.37 28.1413 91.1893 26.9663 92.1245 25.6275C96.3928 19.6326 99.8378 15.0286 102.088 15.1525C102.376 15.1611 102.654 15.2558 102.887 15.4242C103.075 15.5611 103.232 15.7356 103.348 15.9366C103.464 16.1375 103.537 16.3605 103.563 16.5912C103.886 18.8053 101.057 23.2295 99.2623 25.7834C99.9675 25.3314 100.594 24.7671 101.117 24.1128C102.603 22.2144 103.667 20.9755 104.83 21.0354C105.195 21.0601 105.539 21.2146 105.801 21.4711C107.164 22.734 104.058 27.0663 102.028 29.6041C102.52 29.3057 102.958 28.9259 103.323 28.481C104.886 26.4828 105.589 26.247 106.069 26.2709C106.25 26.2811 106.424 26.3429 106.572 26.4491C106.719 26.5554 106.833 26.7016 106.9 26.8704C107.411 27.9895 106.36 31.5344 104.102 33.8085C103.786 34.2081 102.811 35.4671 102.623 35.7029C103.054 35.4366 103.443 35.1064 103.774 34.7237C104.33 34.0962 104.722 33.5807 105.033 33.169C105.605 32.4217 105.949 31.9701 106.508 31.998C106.751 32.0201 106.978 32.1228 107.156 32.2898C107.316 32.4603 107.435 32.6653 107.505 32.889C107.574 33.1127 107.591 33.3493 107.555 33.5807C107.487 35.2113 106.256 38.5964 103.239 40.7545C102.763 41.0942 102.212 41.5538 101.572 42.0494C97.6158 45.2147 91.0014 50.5301 80.1028 49.9426Z" fill="white"/>
<path d="M73.4445 45.5743C73.4445 45.5743 86.3295 33.9523 89.191 30.3354C92.0526 26.7185 98.7508 16.0236 101.061 17.6542C103.371 19.2848 96.217 28.445 96.217 28.445C96.217 28.445 98.6629 27.5697 100.094 25.7633C101.524 23.9568 102.807 22.3902 103.822 23.3254C104.838 24.2606 101.233 29.3202 98.6869 32.0939C98.6869 32.0939 101.061 31.3425 102.204 29.8957C103.347 28.449 104.394 27.4978 104.754 28.2731C105.113 29.0485 104.306 32.1818 102.168 34.292C100.309 36.642 99.4422 37.8529 99.1864 37.6531C98.9307 37.4533 100.913 37.745 102.619 35.8227C104.326 33.9003 104.498 33.0251 105.137 33.5726C105.777 34.1201 104.882 38.3325 101.421 40.7664C97.9595 43.2003 90.7497 50.8738 77.3851 49.1592C64.0206 47.4447 71.9938 45.3705 73.4445 45.5743Z" fill="white"/>
<path d="M59.0448 48.7597C59.0448 48.7597 57.7579 78.698 76.6817 93.2815C95.6055 107.865 109.933 108.468 109.933 108.468C109.933 108.468 111.496 101.866 118.478 91.2233C125.46 80.5804 127.094 59.1228 122.219 54.159C122.219 54.159 111.364 62.428 90.4859 56.1134C77.537 51.9529 78.1844 43.696 70.8387 43.9598C66.4646 44.12 62.2877 45.8199 59.0448 48.7597Z" fill="white"/>
<path d="M65.0317 59.4225C68.9523 58.3914 66.9141 48.9315 69.1362 43.9838C65.0434 44.3198 61.1713 45.9795 58.1056 48.7117C58.1056 48.7117 58.1416 48.8636 58.2135 49.1353C58.7531 51.2415 61.3668 60.3897 65.0317 59.4225Z" fill="#C6D9DE"/>
<path d="M94.1507 56.485C93.847 56.4451 99.7459 58.6352 101.884 59.5464C104.022 60.4576 104.794 60.7454 108.359 59.9021C111.923 59.0588 115.428 59.8142 115.093 60.5975C114.673 61.5767 111.744 61.1251 111.708 61.7965C111.672 62.4679 116.268 62.4639 116.4 63.575C116.532 64.686 111.915 64.0545 111.915 64.0545C111.915 64.0545 116.735 65.9449 116.288 66.9521C115.84 67.9592 110.557 66.3326 110.557 66.3326C110.557 66.3326 114.106 68.171 113.838 69.4259C113.57 70.6809 108.398 66.8362 107.695 67.2598C106.992 67.6834 109.206 71.0446 107.975 71.3563C106.744 71.668 105.977 69.6817 105.681 68.4068C105.385 67.1319 104.162 66.8721 104.046 65.9889C103.689 65.8747 103.343 65.7289 103.011 65.5533C98.0953 62.9355 92.3403 64.5821 92.3403 64.5821C92.3403 64.5821 94.4584 56.485 94.1507 56.485Z" fill="#FFD4C3"/>
<path d="M73.5804 52.988C75.8432 58.7977 79.1283 64.1551 83.2801 68.8065C90.0063 76.2041 96.9244 77.547 96.9244 77.547C96.9244 77.547 108.291 64.1785 106.56 56.8248C100.465 54.9064 86.917 64.9698 73.5804 52.988Z" fill="#C6D9DE"/>
<path d="M71.3263 46.0259C71.3263 46.0259 72.3774 63.2112 92.8639 74.0459C92.8639 74.0459 102.915 69.5018 104.53 57.8518C104.53 57.8518 89.8544 56.5969 84.0434 53.2078C78.2324 49.8187 73.8522 42.2451 71.3263 46.0259Z" fill="white"/>
<path d="M58.0257 46.1379C58.0257 46.1379 60.5755 58.3114 64.1565 58.5033C67.7374 58.6951 64.8439 43.8798 69.7277 43.3643C74.6115 42.8487 61.0551 42.1253 58.0257 46.1379Z" fill="#FFD4C3"/>
<path d="M68.8964 43.6241L69.0323 43.5561C68.6326 43.3523 68.2769 43.1565 67.9133 42.9846C64.716 43.1325 59.7203 43.8918 58.0257 46.1379C58.5121 48.3564 59.1395 50.5417 59.9041 52.6803C62.0543 47.1171 67.9452 44.0957 68.8964 43.6241Z" fill="#F7B19D"/>
<path d="M72.5493 32.1419C72.0897 40.7226 65.6991 47.3529 58.2855 46.9572C50.8718 46.5616 45.2207 39.2998 45.6843 30.6992C46.1479 22.0985 52.5304 15.4802 59.9521 15.8799C67.3737 16.2795 73.0089 23.5573 72.5493 32.1419Z" fill="#FFD4C3"/>
<path d="M56.2432 15.5561C56.8906 13.8336 63.8766 13.1262 69.4798 18.5935C75.083 24.0608 77.9966 32.2338 74.5515 40.7865C74.5515 40.7865 74.9072 36.8698 73.8921 36.7459C73.8921 36.7459 74.8233 42.473 71.1984 44.903C71.1984 44.903 72.4413 43.4402 71.5661 42.1533C71.5661 42.1533 70.6149 46.2538 66.5623 45.8182C66.9053 45.502 67.1319 45.0797 67.2058 44.6192C67.4016 43.7559 65.791 43.8878 65.5712 43.9478L65.3474 44.0077C65.3474 44.0077 72.3694 35.2832 68.0051 28.4211C63.6409 21.559 53.5255 22.7619 56.2432 15.5561Z" fill="#F9F3E0"/>
<path d="M64.2723 16.6312C61.9223 14.8647 58.7131 14.509 54.8484 15.7719C45.6563 18.7733 44.1696 30.1955 44.1696 38.3525C44.1696 46.5095 52.7782 44.4233 51.5992 43.696C49.7688 42.5769 46.8033 38.5004 46.8033 32.3697C46.8033 26.2389 50.636 23.4013 50.636 23.4013C49.1413 29.5841 57.4302 29.4482 57.4302 29.4482C55.34 26.2749 57.3623 25.2198 57.3623 25.2198C56.9626 27.29 57.9817 28.8167 59.6683 29.7839C59.1647 28.465 58.9369 27.1262 59.6323 26.3628C59.6323 26.3628 60.3717 29.3682 61.8584 30.5512C63.3451 31.7342 64.0285 31.2586 64.0285 31.2586C63.6426 30.5285 63.475 29.7026 63.5459 28.8798C63.6167 28.057 63.9231 27.272 64.4282 26.6186C63.1493 29.612 68.5686 31.5064 68.5686 31.5064C68.6566 30.3434 68.6885 29.2363 68.6726 28.1852C69.5718 29.4761 70.9866 30.783 72.9409 30.5272C72.9409 30.5272 71.5821 20.5518 64.2723 16.6312Z" fill="#F9F3E0"/>
<path opacity="0.4" d="M61.9703 31.6622C61.9703 31.6622 65.6032 32.6614 65.771 33.2169C65.771 33.2169 66.8941 31.926 61.9703 31.6622Z" fill="white"/>
<path opacity="0.4" d="M49.7128 31.8182C49.7128 31.8182 53.7334 30.2475 55.0762 31.3066C55.0762 31.3066 53.7294 28.7928 49.7128 31.8182Z" fill="white"/>
<path d="M20.1581 79.3774C20.0976 79.3734 20.0399 79.3503 19.9933 79.3116C19.9466 79.2728 19.9134 79.2203 19.8984 79.1615C19.7665 78.618 16.4533 68.0631 17.6883 63.475C17.8433 63.4553 17.9995 63.446 18.1559 63.447C17.1008 66.964 19.3548 74.2657 20.1541 77.7348C21.4131 69.5418 18.8313 55.4019 18.8033 55.25C18.7753 55.0982 18.9792 55.1781 19.155 55.25C19.3899 55.4088 19.57 55.6363 19.6706 55.9015C19.7025 56.0613 22.2763 71.1444 20.4699 79.1416C20.4556 79.2033 20.4211 79.2584 20.3719 79.2983C20.3226 79.3381 20.2614 79.3603 20.1981 79.3614L20.1581 79.3774Z" fill="#D9603E"/>
<path d="M20.1141 84.9447C19.9783 84.9447 19.8584 84.7408 19.8584 84.4851V78.6301C19.8584 78.3583 19.9663 78.1185 20.1181 78.0985C20.27 78.0786 20.3979 78.2784 20.3979 78.5542V84.4051C20.3979 84.6809 20.29 84.9207 20.1421 84.9407L20.1141 84.9447Z" fill="#D9603E"/>
<path d="M19.8384 97.0102C19.3948 96.5626 12.161 84.9126 15.5141 81.4236C18.8672 77.9346 20.262 84.7767 20.262 84.7767C20.262 84.7767 21.6608 78.3822 24.934 80.8001C28.2072 83.2181 19.8384 97.0102 19.8384 97.0102Z" fill="#D9603E"/>
<path d="M60.9432 33.8725C60.9852 33.8354 61.0292 33.8008 61.0751 33.7686C61.1906 33.6851 61.3122 33.6103 61.4388 33.5448C61.6175 33.4539 61.8033 33.3778 61.9943 33.3169C62.1022 33.289 62.2101 33.257 62.326 33.233C62.445 33.2106 62.565 33.1946 62.6857 33.1851H62.8695H63.0574C63.1802 33.1933 63.302 33.2134 63.4211 33.245C63.5377 33.2757 63.6504 33.32 63.7568 33.3769C63.8552 33.431 63.9476 33.4953 64.0325 33.5687C64.0986 33.6368 64.1588 33.7103 64.2124 33.7885C64.252 33.8478 64.2829 33.9124 64.3043 33.9804C64.3264 34.0385 64.3424 34.0988 64.3523 34.1602C64.3545 34.1765 64.3535 34.1931 64.3492 34.209C64.345 34.2249 64.3377 34.2398 64.3276 34.2528C64.3176 34.2658 64.305 34.2767 64.2907 34.2848C64.2765 34.2929 64.2607 34.2981 64.2444 34.3001C64.2272 34.3039 64.2095 34.3039 64.1924 34.3001C64.1644 34.3001 64.1045 34.2681 64.0205 34.2282C63.9766 34.2015 63.9296 34.18 63.8807 34.1642C63.8207 34.1642 63.7688 34.1243 63.7048 34.1083L63.497 34.0643C63.4211 34.0643 63.3531 34.0363 63.2652 34.0323C63.1773 34.0283 63.0973 34.0084 63.0014 34.0084C62.9056 34.0022 62.8095 34.0022 62.7137 34.0084C62.6178 34.0084 62.5178 34.0084 62.4179 34.0084C62.318 34.0084 62.2181 34.0084 62.1222 34.0084C61.9263 34.0084 61.7225 34.0363 61.5826 34.0523L61.183 34.0803H61.0311C61.0152 34.0814 60.9993 34.0792 60.9843 34.0739C60.9693 34.0685 60.9556 34.0602 60.9439 34.0493C60.9323 34.0384 60.9231 34.0253 60.9167 34.0107C60.9104 33.9961 60.9072 33.9803 60.9072 33.9644C60.9051 33.9473 60.9073 33.9299 60.9136 33.9139C60.9199 33.8978 60.93 33.8836 60.9432 33.8725Z" fill="black"/>
<path d="M54.7805 33.6205L54.6286 33.5886L53.7134 33.3847L53.4256 33.3248C53.3257 33.3248 53.2258 33.2848 53.1299 33.2768C53.0363 33.2585 52.9414 33.2478 52.8461 33.2449C52.7502 33.2449 52.6663 33.2449 52.5824 33.2449C52.4984 33.2449 52.4225 33.2449 52.3426 33.2449C52.2626 33.2449 52.2067 33.2449 52.1347 33.2449L51.9509 33.2768C51.9008 33.2851 51.8513 33.2971 51.803 33.3128C51.755 33.3314 51.7056 33.3461 51.6552 33.3568C51.5592 33.3568 51.4953 33.3328 51.4833 33.2648C51.4793 33.2464 51.4793 33.2273 51.4833 33.2089C51.5037 33.1509 51.5292 33.0947 51.5592 33.041C51.5877 32.9742 51.6284 32.9132 51.6791 32.8612C51.7433 32.7904 51.8142 32.7262 51.891 32.6694C51.9859 32.6106 52.0863 32.5611 52.1907 32.5215C52.3039 32.4786 52.4221 32.4504 52.5424 32.4376C52.6648 32.4276 52.7877 32.4276 52.9101 32.4376L53.0979 32.4615L53.2778 32.4975C53.3946 32.5223 53.5095 32.5557 53.6215 32.5974C53.7303 32.6358 53.837 32.6798 53.9412 32.7293C54.1205 32.8188 54.2929 32.9217 54.4568 33.037C54.5708 33.12 54.679 33.2108 54.7805 33.3088C54.8212 33.3467 54.8599 33.3867 54.8964 33.4287C54.9186 33.4518 54.931 33.4826 54.931 33.5146C54.931 33.5467 54.9186 33.5775 54.8964 33.6006C54.8801 33.6129 54.861 33.6212 54.8409 33.6247C54.8207 33.6281 54.8 33.6267 54.7805 33.6205Z" fill="black"/>
<path d="M53.8613 40.8224C56.8228 42.8207 60.08 43.0925 62.322 40.3468L62.6138 40.0231C62.6243 40.0118 62.6369 40.0029 62.651 39.9967C62.6651 39.9906 62.6803 39.9874 62.6957 39.9874C62.7111 39.9874 62.7263 39.9906 62.7404 39.9967C62.7545 40.0029 62.7672 40.0118 62.7776 40.0231C62.9055 40.143 62.346 40.8224 62.2381 40.9663C60.2838 43.648 56.6069 43.5921 54.0451 41.318C53.9053 41.1941 53.5895 40.9663 53.7214 40.8384C53.7398 40.8208 53.7634 40.8096 53.7887 40.8067C53.8139 40.8039 53.8395 40.8094 53.8613 40.8224Z" fill="black"/>
<path d="M68.137 37.0976C68.1459 37.5689 68.0157 38.0324 67.7626 38.4301C67.5096 38.8279 67.1449 39.1422 66.7142 39.3338C66.2835 39.5254 65.8058 39.5858 65.341 39.5075C64.8761 39.4291 64.4447 39.2155 64.1006 38.8933C63.7564 38.5711 63.5149 38.1546 63.4062 37.6959C63.2975 37.2372 63.3264 36.7566 63.4893 36.3143C63.6522 35.8719 63.9418 35.4873 64.3221 35.2087C64.7023 34.93 65.1563 34.7697 65.6272 34.7476C66.2714 34.7271 66.8975 34.963 67.368 35.4036C67.8386 35.8441 68.1151 36.4533 68.137 37.0976Z" fill="#F7B19D"/>
<path d="M52.8342 37.6211C52.8431 38.0924 52.7129 38.5559 52.4598 38.9537C52.2067 39.3514 51.8421 39.6657 51.4113 39.8574C50.9806 40.049 50.503 40.1094 50.0381 40.031C49.5733 39.9527 49.1418 39.7391 48.7977 39.4169C48.4536 39.0947 48.2121 38.6782 48.1033 38.2195C47.9946 37.7608 48.0235 37.2802 48.1864 36.8378C48.3493 36.3955 48.639 36.0109 49.0192 35.7323C49.3995 35.4536 49.8534 35.2932 50.3243 35.2711C50.6435 35.2605 50.9616 35.3128 51.2605 35.4252C51.5594 35.5375 51.8332 35.7077 52.0663 35.9259C52.2994 36.1442 52.4872 36.4062 52.6189 36.6971C52.7507 36.988 52.8238 37.302 52.8342 37.6211Z" fill="#F7B19D"/>
<path d="M56.3072 36.602C56.3072 36.602 58.3654 34.6038 59.8281 36.9697C59.8281 36.9697 57.7779 35.6189 56.3072 36.602Z" fill="#EAAB7C"/>
<path opacity="0.4" d="M55.312 16.4233C54.6635 16.6732 54.0795 17.0659 53.6035 17.5724C53.1274 18.0788 52.7716 18.686 52.5624 19.3488C51.3634 22.7779 53.2098 25.1878 54.2649 28.1413C53.4936 25.9991 54.0291 24.0248 55.4639 22.3023C55.6957 23.9009 56.4031 25.3556 57.1784 26.7784C57.2144 25.3836 57.3982 23.3813 58.4973 21.9346C58.5892 24.1447 59.98 26.3908 61.6946 27.8175C60.7674 26.5946 60.9712 25.0639 61.0511 23.5932C61.143 21.8866 60.6834 20.5158 62.4659 20.316C64.7999 20.0522 67.7294 22.8938 68.7805 24.8441C68.7006 21.6708 65.2995 18.3656 62.6378 17.1387C60.4756 16.1196 57.5301 15.552 55.312 16.4233Z" fill="white"/>
<path d="M94.8062 29.0965C94.2147 28.4371 93.3275 29.1965 92.8599 29.6081C92.0326 30.3395 91.2133 31.0509 91.1214 32.2139C91.0734 32.7774 91.8887 32.7934 91.9766 32.2618C92.1125 31.4265 92.724 30.9669 93.3075 30.4354C93.5341 30.2247 93.7758 30.031 94.0309 29.8559C94.2307 29.748 94.2707 29.728 94.1508 29.8079C94.2287 30.1391 94.2287 30.4839 94.1508 30.8151C93.9421 31.6167 93.4947 32.3359 92.8679 32.8773C92.4682 33.277 92.0686 33.6766 92.1765 34.2681C92.1881 34.3236 92.2141 34.375 92.2518 34.4173C92.2896 34.4596 92.3378 34.4912 92.3916 34.509C92.4454 34.5268 92.503 34.5302 92.5585 34.5188C92.614 34.5074 92.6656 34.4816 92.708 34.444C93.1356 34.1282 93.4274 33.5927 93.8111 33.205C94.1785 32.8309 94.4859 32.4022 94.7223 31.9341C95.074 31.2107 95.4297 29.7919 94.8062 29.0965Z" fill="#C6D9DE"/>
<path d="M96.8964 36.5701C96.3608 36.2263 95.2737 36.7419 94.7822 36.9697C94.0868 37.2384 93.5072 37.7417 93.1436 38.3925C93.0637 38.5683 93.3514 38.6962 93.4513 38.5364C93.9789 37.6931 95.5215 37.1296 96.4767 37.1895C96.5606 37.1895 96.4168 37.8729 96.3768 37.9489C96.2573 38.1423 96.1028 38.3117 95.9212 38.4484C95.5215 38.7842 95.0459 39.016 94.6703 39.3836C94.5702 39.4699 94.5015 39.5868 94.4748 39.7162C94.448 39.8456 94.4648 39.9802 94.5224 40.099C94.573 40.1935 94.6457 40.2744 94.7342 40.3348C94.8448 40.4046 94.9749 40.4368 95.1052 40.4267C95.2355 40.4166 95.3591 40.3648 95.4576 40.2789C96.0536 39.8131 96.5904 39.2762 97.0562 38.6802C97.3719 38.1687 97.5198 36.9697 96.8964 36.5701Z" fill="#C6D9DE"/>
<path d="M90.1461 37.9649C89.6466 36.686 88.2837 38.0288 87.7921 38.5564C87.7304 38.6307 87.6977 38.725 87.7001 38.8216C87.7025 38.9182 87.7398 39.0107 87.8052 39.0819C87.8706 39.1531 87.9595 39.1982 88.0556 39.2089C88.1516 39.2195 88.2483 39.195 88.3277 39.1399C88.6075 38.9321 88.8672 38.7082 89.127 38.5004C89.1835 38.4623 89.2422 38.4276 89.3029 38.3965C89.3415 38.6048 89.3366 38.8189 89.2885 39.0253C89.2403 39.2316 89.15 39.4258 89.0231 39.5955C88.7234 39.9951 88.0879 40.0511 87.8521 40.4787C87.8167 40.5362 87.7948 40.6009 87.7879 40.668C87.7811 40.7352 87.7895 40.803 87.8126 40.8664C87.8356 40.9298 87.8727 40.9872 87.9211 41.0343C87.9695 41.0813 88.0279 41.1169 88.0919 41.1382C88.7593 41.358 89.5666 40.5387 89.9103 40.0391C90.1035 39.7335 90.225 39.3882 90.2658 39.029C90.3066 38.6698 90.2657 38.306 90.1461 37.9649Z" fill="#C6D9DE"/>
<path d="M90.5938 43.4282C90.5771 43.3515 90.5355 43.2825 90.4755 43.2319C90.4155 43.1813 90.3404 43.1519 90.262 43.1484C89.2629 43.1484 88.1399 43.4762 87.956 44.5992C87.9557 44.6293 87.965 44.6587 87.9827 44.683C88.0004 44.7074 88.0254 44.7254 88.0542 44.7343C88.0829 44.7433 88.1137 44.7428 88.1421 44.7328C88.1705 44.7229 88.195 44.7041 88.2118 44.6791C88.4995 44.0836 89.171 43.8798 89.8104 43.8518C89.6157 44.2161 89.3427 44.5328 89.0111 44.779C88.6115 45.1148 87.8881 45.3066 87.7202 45.8261C87.6907 45.9182 87.6923 46.0174 87.7248 46.1084C87.7573 46.1994 87.8189 46.2772 87.9001 46.3297C88.5915 46.6694 89.3668 45.9301 89.8264 45.4704C90.1067 45.215 90.3224 44.8967 90.4558 44.5416C90.5892 44.1866 90.6365 43.805 90.5938 43.4282Z" fill="#C6D9DE"/>
<path d="M83.9914 40.2789C83.9723 40.1966 83.9275 40.1225 83.8636 40.0672C83.7997 40.0119 83.7199 39.9783 83.6357 39.9712C83.3723 39.9665 83.1116 40.0242 82.8747 40.1395C82.6379 40.2548 82.4317 40.4244 82.2729 40.6346C81.9691 41.0063 81.8253 41.5019 81.4736 41.8336C81.4359 41.8676 81.4104 41.9129 81.401 41.9628C81.3916 42.0126 81.3987 42.0641 81.4214 42.1095C81.4441 42.1548 81.481 42.1915 81.5265 42.2139C81.572 42.2362 81.6236 42.243 81.6734 42.2333C82.3928 42.0614 82.5846 41.1662 83.1561 40.8585C83.0817 41.1823 82.946 41.4888 82.7565 41.7617C82.4727 42.1613 82.081 42.3652 82.0411 42.9007C82.038 42.9558 82.0537 43.0103 82.0857 43.0553C82.1176 43.1004 82.1639 43.1332 82.2169 43.1485C82.9083 43.3004 83.3599 42.7249 83.7116 42.1973C83.8877 41.914 84.0033 41.5974 84.0515 41.2673C84.0996 40.9372 84.0792 40.6008 83.9914 40.2789Z" fill="#C6D9DE"/>
<path d="M44.4653 49.9986C43.4916 49.76 42.6514 49.1467 42.1273 48.2921C42.0845 48.2178 42.0509 48.1387 42.0274 48.0563C42.1159 48.0353 42.209 48.0452 42.2912 48.0842C42.7508 48.336 42.9986 48.8836 43.4901 49.1114C44.0856 49.4031 44.6491 48.5239 44.0497 48.2401C43.3303 47.9004 43.0385 47.0411 42.1473 47.0411C41.5198 47.0411 40.9243 47.4408 41.0322 48.1202C41.256 49.587 43.0065 50.6021 44.3654 50.5661C44.6731 50.5661 44.813 50.0905 44.4653 49.9986Z" fill="#C6D9DE"/>
<path d="M42.6828 40.8664C42.141 40.5042 41.5572 40.209 40.9443 39.9872C40.3807 39.6814 39.721 39.6041 39.1019 39.7714C38.4465 40.0152 38.4545 40.9703 38.6623 41.4979C38.998 42.3412 39.8293 43.1565 40.8124 42.9606C40.8473 42.9537 40.8797 42.9377 40.9063 42.9141C40.9329 42.8905 40.9527 42.8602 40.9637 42.8264C40.9747 42.7926 40.9764 42.7565 40.9688 42.7218C40.9612 42.6871 40.9445 42.655 40.9203 42.6289C40.4767 42.1333 39.9292 41.8816 39.6215 41.2541C39.4256 40.8544 39.4336 40.6027 39.8613 40.6986C40.7365 40.8824 41.4239 41.5498 42.2592 41.7537C42.3737 41.7914 42.4981 41.7862 42.609 41.7388C42.7199 41.6915 42.8097 41.6054 42.8617 41.4966C42.9136 41.3878 42.9241 41.2637 42.8912 41.1477C42.8583 41.0317 42.7842 40.9317 42.6828 40.8664Z" fill="#C6D9DE"/>
<path d="M42.7668 35.6029C42.5701 35.214 42.2353 34.9124 41.8281 34.7572C41.4208 34.602 40.9703 34.6043 40.5646 34.7637C39.4976 35.2792 40.3608 36.9618 41.1881 37.2216C41.2288 37.2318 41.2717 37.2289 41.3106 37.2134C41.3496 37.1979 41.3827 37.1705 41.4053 37.1352C41.4278 37.0998 41.4387 37.0582 41.4363 37.0163C41.4339 36.9745 41.4184 36.9344 41.3919 36.9018C41.1681 36.6341 41.1681 36.1545 41.0442 35.8307C41.021 35.7583 41.0075 35.683 41.0043 35.6069C40.9563 35.6309 41.1042 35.587 41.1042 35.587C41.0402 35.587 41.2121 35.587 41.2001 35.587C41.2976 35.5972 41.3932 35.6214 41.4839 35.6589C41.6559 35.7311 41.7973 35.8611 41.8835 36.0266C41.9113 36.0846 41.9503 36.1365 41.9982 36.1795C42.0461 36.2224 42.102 36.2555 42.1626 36.2768C42.2233 36.2981 42.2876 36.3073 42.3518 36.3038C42.4161 36.3003 42.479 36.2842 42.537 36.2564C42.5949 36.2286 42.6469 36.1896 42.6898 36.1417C42.7328 36.0938 42.7658 36.0379 42.7872 35.9773C42.8085 35.9166 42.8177 35.8523 42.8142 35.7881C42.8107 35.7238 42.7946 35.6609 42.7668 35.6029Z" fill="#C6D9DE"/>
<path d="M51.4074 47.8723C51.1997 47.5337 50.9267 47.2398 50.6042 47.0078C50.2816 46.7759 49.9161 46.6106 49.529 46.5215C48.8336 46.4216 47.9663 46.5535 47.7945 47.3648C47.6226 48.1761 48.1142 48.8195 48.4979 49.423C48.9934 50.2223 49.7448 50.558 50.6001 50.1144C50.6503 50.0901 50.6899 50.0483 50.7113 49.9967C50.7327 49.9452 50.7345 49.8876 50.7162 49.8349C50.698 49.7821 50.661 49.7379 50.6124 49.7106C50.5637 49.6833 50.5067 49.6748 50.4522 49.6868C49.8367 49.7387 49.529 49.3791 49.3132 48.8555C49.1653 48.4798 48.8456 48.1561 48.8136 47.7325C48.8136 47.4647 49.2132 47.5286 49.465 47.6525C49.8543 47.8694 50.1999 48.1567 50.4842 48.4998C50.5754 48.6006 50.7 48.6651 50.835 48.6813C50.97 48.6975 51.1063 48.6643 51.2188 48.5878C51.3313 48.5114 51.4123 48.3969 51.447 48.2654C51.4816 48.1339 51.4676 47.9943 51.4074 47.8723Z" fill="#C6D9DE"/>
<path d="M55.8675 48.284C55.312 48.1402 54.145 47.6526 53.7493 48.312C53.1698 49.2832 54.2889 50.5141 54.6965 51.3294C54.7302 51.392 54.785 51.4406 54.8511 51.4665C54.9173 51.4924 54.9905 51.494 55.0577 51.4709C55.1249 51.4479 55.1817 51.4017 55.218 51.3407C55.2544 51.2796 55.2678 51.2077 55.256 51.1376C55.1401 50.3942 54.6406 49.7828 54.5846 49.0274L54.7605 49.0874C55.0522 49.2109 55.3606 49.2903 55.6757 49.3232C56.2632 49.3311 56.467 48.4439 55.8675 48.284Z" fill="#C6D9DE"/>
</g>
<rect x="5.5" y="2.43262" width="137" height="137" stroke="#D8E1E5" stroke-width="3"/>
</g>
<defs>
<filter id="filter0_d" x="0" y="0.932617" width="148" height="148" filterUnits="userSpaceOnUse" color-interpolation-filters="sRGB">
<feFlood flood-opacity="0" result="BackgroundImageFix"/>
<feColorMatrix in="SourceAlpha" type="matrix" values="0 0 0 0 0 0 0 0 0 0 0 0 0 0 0 0 0 0 127 0"/>
<feOffset dy="4"/>
<feGaussianBlur stdDeviation="2"/>
<feColorMatrix type="matrix" values="0 0 0 0 0 0 0 0 0 0 0 0 0 0 0 0 0 0 0.25 0"/>
<feBlend mode="normal" in2="BackgroundImageFix" result="effect1_dropShadow"/>
<feBlend mode="normal" in="SourceGraphic" in2="effect1_dropShadow" result="shape"/>
</filter>
<clipPath id="clip0">
<rect x="4" y="0.932617" width="140" height="140" fill="white"/>
</clipPath>
</defs>
</svg>
