<svg width="148" height="148" viewBox="0 0 148 148" fill="none" xmlns="http://www.w3.org/2000/svg">
<g filter="url(#filter0_d)">
<path d="M144 0H4V140H144V0Z" fill="white"/>
<path d="M127.602 60.1444C127.973 60.1426 128.34 60.2255 128.675 60.3869C129.009 60.5483 129.303 60.7838 129.532 61.0756C129.944 61.5943 130.171 62.2358 130.176 62.898C130.174 63.55 129.947 64.1812 129.532 64.6845C129.301 64.9639 129.003 65.1796 128.665 65.3112C128.327 65.4427 127.961 65.4856 127.602 65.4359L112.815 64.7924C112.444 64.795 112.077 64.7128 111.742 64.5521C111.408 64.3914 111.114 64.1565 110.884 63.8652C110.473 63.3445 110.247 62.7021 110.241 62.0388C110.245 61.3872 110.472 60.7566 110.884 60.2523C111.117 59.9743 111.415 59.7597 111.753 59.6283C112.09 59.4969 112.456 59.4531 112.815 59.5009H113.886C113.697 56.0373 113.674 52.5576 113.818 49.0619C113.962 45.5662 114.212 42.1092 114.569 38.6908C114.924 35.2617 115.353 31.83 115.856 28.3956C116.36 24.9612 116.871 21.5282 117.391 18.0964C117.439 17.9086 117.511 17.6688 117.607 17.3811C116.011 18.3984 114.363 19.3322 112.671 20.1787C112.348 20.3637 111.988 20.4728 111.616 20.4978C111.245 20.5227 110.873 20.4628 110.529 20.3225C109.899 20.0712 109.371 19.6187 109.026 19.0356C108.694 18.4768 108.567 17.8197 108.666 17.1772C108.725 16.8259 108.873 16.4954 109.095 16.2171C109.318 15.9387 109.608 15.7217 109.937 15.5866C113.398 13.9139 116.64 11.8242 119.593 9.36393C120.136 8.93 120.804 8.68202 121.499 8.65653C121.856 8.63193 122.213 8.69146 122.542 8.83031C122.871 8.96916 123.163 9.18344 123.394 9.45585C123.872 9.96202 124.256 10.5494 124.529 11.1904C124.768 11.7995 124.924 12.438 124.992 13.0887C125.065 13.7657 125.101 14.4461 125.1 15.127C125.1 15.8184 125.172 29.3908 125.172 31.8247C125.172 41.2166 125.028 50.5846 124.741 59.9286L127.602 60.1444ZM119.737 40.3374C119.401 43.5773 119.175 46.8065 119.057 50.0251C118.94 53.2436 118.976 56.4982 119.165 59.7887H119.377C119.569 53.3063 119.713 46.7985 119.809 40.2654L119.737 40.3374ZM119.449 16.0942H119.901V15.8783L119.449 16.0942Z" fill="#303030"/>
<path d="M121.739 109.846C118.646 106.509 113.874 105.294 109.35 105.014C104.826 104.734 112.075 105.23 107.567 104.59C105.95 104.486 104.382 103.988 103.002 103.138C101.622 102.288 100.471 101.112 99.65 99.7145C96.24 94.9331 92.4252 90.4538 88.2478 86.326C84.0314 82.2335 79.2395 81.9977 73.3645 82.2055C60.8033 82.6411 32.0759 79.1521 28.7788 97.1167C28.5669 98.2717 28.475 99.5586 27.6437 100.394C26.9483 101.085 25.9132 101.273 24.9461 101.429L14.511 103.611C13.8434 103.717 13.2254 104.029 12.7427 104.502C12.2601 104.976 11.9366 105.587 11.8173 106.253C10.9381 111.193 10.0468 116.88 10.5704 121.816C10.6361 122.434 10.9309 123.006 11.3968 123.419C11.8626 123.832 12.466 124.055 13.0882 124.046C19.4827 123.946 20.6817 124.002 27.2081 123.294C28.1513 117.519 32.5435 112.304 37.5353 112.304C42.527 112.304 46.6275 118.191 44.6172 122.759C58.5013 122.951 66.8421 122.231 79.815 122.231C80.1787 118.858 83.356 112.979 87.0928 112.659C90.8296 112.34 94.1707 115.617 95.002 119.274C95.3097 120.633 95.4536 122.219 96.6006 123.026C97.336 123.554 98.2992 123.59 99.2024 123.614C106.536 123.774 102.02 123.938 109.354 124.102C111.752 124.158 126.603 123.658 127.714 122.231C129.017 120.525 122.974 111.173 121.739 109.846Z" fill="#D9603E"/>
<path opacity="0.2" d="M113.83 107.176C105.846 104.327 97.4678 102.736 88.9952 102.46C75.4787 102.144 41.2121 101.201 35.2412 102.144C29.2703 103.088 17.3686 104.606 14.3591 106.205C11.3497 107.804 97.4839 105.29 113.83 107.176Z" fill="white"/>
<path d="M42.7668 122.955C41.8356 127.399 38.2107 130.632 34.6657 130.172C31.1208 129.713 29.0106 125.744 29.9418 121.304C30.873 116.864 34.5019 113.631 38.0428 114.086C41.5838 114.542 43.702 118.514 42.7668 122.955Z" fill="#303030"/>
<path d="M40.0491 121.999C39.5056 124.585 37.3914 126.468 35.3331 126.2C33.2749 125.932 32.036 123.622 32.5795 121.036C33.123 118.451 35.2332 116.568 37.2955 116.832C39.3577 117.096 40.5886 119.41 40.0491 121.999Z" fill="white"/>
<path d="M93.3155 122.727C92.4762 126.963 89.211 130.045 86.0257 129.609C82.8404 129.173 80.9301 125.385 81.7693 121.148C82.6086 116.912 85.8738 113.83 89.0631 114.266C92.2524 114.702 94.1547 118.49 93.3155 122.727Z" fill="#303030"/>
<path d="M90.8656 121.812C90.378 124.277 88.4676 126.076 86.6212 125.808C84.7748 125.54 83.6557 123.346 84.1433 120.88C84.6309 118.414 86.5413 116.62 88.3917 116.884C90.2421 117.148 91.3571 119.342 90.8656 121.812Z" fill="white"/>
<path d="M32.1279 100.538C32.1279 100.538 32.6075 89.819 41.28 87.8926C49.9526 85.9663 76.0822 84.7593 80.4185 85.6066C84.7548 86.4539 95.6055 100.538 95.6055 100.538H32.1279Z" fill="#C6D9DE"/>
<path d="M53.5575 86.326C52.2946 86.434 51.0677 86.5459 49.8927 86.6658L65.3394 100.546H69.8835L53.5575 86.326Z" fill="white"/>
<path d="M34.322 93.1641L42.527 100.538H45.8841L35.493 91.4775C35.0559 92.0057 34.6641 92.5699 34.322 93.1641Z" fill="white"/>
<path d="M69.0762 85.4308C66.5144 85.5067 63.7368 85.6306 60.9232 85.7985L75.4827 100.538H86.4214L69.0762 85.4308Z" fill="white"/>
<path d="M47.4188 85.0751L43.4462 101.093H46.6994L48.6258 85.3149L47.4188 85.0751Z" fill="#D9603E"/>
<path d="M67.5255 84.9991L69.5758 101.617L67.1659 101.737L65.9589 84.9991H67.5255Z" fill="#D9603E"/>
<path d="M123.098 112.324C122.093 112.171 121.077 112.096 120.061 112.1C116.3 112.1 112.019 111.812 112.291 112.943C113.015 115.953 116.288 116.312 120.061 116.312C121.815 116.351 123.564 116.1 125.236 115.569C124.433 114.262 123.653 113.103 123.098 112.324Z" fill="#303030"/>
<path d="M122.367 110.637C121.361 110.485 120.346 110.41 119.329 110.413C115.568 110.413 112.535 111.357 112.535 112.52C112.535 113.683 115.58 114.626 119.329 114.626C121.09 114.665 122.845 114.415 124.525 113.886C123.709 112.576 122.93 111.405 122.367 110.637Z" fill="white"/>
<path d="M78.0325 71.3909C78.8319 69.0209 77.7848 66.4191 79.2995 64.1491C82.3488 67.6781 84.5949 72.0263 88.3677 74.9398C88.2965 73.6715 88.6265 72.413 89.3109 71.3429C88.9792 71.8425 90.7776 74.0286 91.0894 74.4682C93.4913 77.8423 96.6238 80.6306 100.253 82.6252C95.5216 84.7274 90.29 85.255 85.1305 85.7666C85.1917 84.5509 84.9615 83.3382 84.459 82.2296C82.5829 83.6199 80.3945 84.5291 78.0855 84.8775C75.7764 85.2258 73.4172 85.0028 71.2144 84.2279L73.7322 80.9587C69.0403 82.1656 64.4189 83.6031 59.8681 85.271C60.1755 84.1343 60.7543 83.0892 61.5547 82.2256C58.8908 82.4613 56.2657 83.0209 53.7374 83.8922L54.6526 82.2136C52.974 81.8419 43.1664 84.7274 41.8116 85.4708C41.2601 85.7705 40.6126 86.2701 40.0291 86.366C39.1512 84.4337 38.6325 82.3575 38.4984 80.2393C38.2007 73.852 39.1663 67.4688 41.34 61.4554C42.7588 57.6467 44.6811 53.5621 47.7345 50.8365C49.3242 49.4961 51.1613 48.4804 53.1419 47.847C53.9412 48.9781 54.3089 50.7126 54.9443 51.9955C55.8156 53.758 56.4111 55.5604 57.1025 57.3789C57.9937 59.7409 59.4764 62.8062 61.4228 64.4728C61.5107 63.8254 61.3349 63.1819 61.4228 62.5225C61.6408 61.4624 61.9387 60.4203 62.314 59.4051C62.8416 57.8065 63.513 55.3286 64.9677 54.2695C66.0548 57.8665 67.3657 61.3195 69.32 64.4728C69.8196 62.6943 70.2712 59.7968 72.0856 58.7897C72.3095 58.6938 77.3132 70.076 78.0325 71.3909Z" fill="#446D06"/>
<path d="M78.0325 71.3909C78.8319 69.0209 77.7848 66.4191 79.2995 64.1491C82.3488 67.6781 84.5949 72.0263 88.3677 74.9398C88.2965 73.6715 88.6265 72.413 89.3109 71.3429C88.9792 71.8425 90.7776 74.0286 91.0894 74.4682C93.4913 77.8423 96.6238 80.6306 100.253 82.6252C95.5216 84.7274 90.29 85.255 85.1305 85.7666C85.1917 84.5509 84.9615 83.3382 84.459 82.2296C82.5829 83.6199 80.3945 84.5291 78.0855 84.8775C75.7764 85.2258 73.4172 85.0028 71.2144 84.2279L73.7322 80.9587C69.0403 82.1656 64.4189 83.6031 59.8681 85.271C60.1755 84.1343 60.7543 83.0892 61.5547 82.2256C58.8908 82.4613 56.2657 83.0209 53.7374 83.8922L54.6526 82.2136C52.974 81.8419 43.1664 84.7274 41.8116 85.4708C41.2601 85.7705 40.6126 86.2701 40.0291 86.366C39.1512 84.4337 38.6325 82.3575 38.4984 80.2393C38.2007 73.852 39.1663 67.4688 41.34 61.4554C42.7588 57.6467 44.6811 53.5621 47.7345 50.8365C49.3242 49.4961 51.1613 48.4804 53.1419 47.847C53.9412 48.9781 54.3089 50.7126 54.9443 51.9955C55.8156 53.758 56.4111 55.5604 57.1025 57.3789C57.9937 59.7409 59.4764 62.8062 61.4228 64.4728C61.5107 63.8254 61.3349 63.1819 61.4228 62.5225C61.6408 61.4624 61.9387 60.4203 62.314 59.4051C62.8416 57.8065 63.513 55.3286 64.9677 54.2695C66.0548 57.8665 67.3657 61.3195 69.32 64.4728C69.8196 62.6943 70.2712 59.7968 72.0856 58.7897C72.3095 58.6938 77.3132 70.076 78.0325 71.3909Z" fill="#BAD9E4"/>
<path d="M71.642 83.6882L71.4262 83.968C71.5741 83.928 71.67 83.8241 71.642 83.6882Z" fill="#303030"/>
<path d="M62.2421 84.4276L63.2212 84.0839C57.2623 76.2586 54.8284 65.7876 56.5829 55.8841C56.3791 55.3286 56.1833 54.777 55.9515 54.2295C54.8629 58.9939 54.7262 63.9264 55.5493 68.7439C56.3723 73.5613 58.1388 78.1686 60.7474 82.3014C61.0151 82.2695 61.2869 82.2415 61.5467 82.2175C61.3757 82.4064 61.2143 82.6039 61.0631 82.809C61.4548 83.3605 61.8424 83.9001 62.2421 84.4276Z" fill="#303030"/>
<path d="M73.9401 62.4624C70.2417 68.2312 68.8957 75.1985 70.1793 81.9297L71.1984 81.654C70.0712 75.4268 71.2141 69.0019 74.4196 63.5455L73.9401 62.4624Z" fill="#303030"/>
<path d="M66.1148 78.0051C65.4247 76.9554 64.7839 75.875 64.1924 74.7639C64.2444 74.0325 64.3243 73.3012 64.4202 72.5778C64.9323 68.6598 66.0092 64.8367 67.6175 61.2275C67.4656 60.9078 67.3177 60.5841 67.1738 60.2563C67.1299 60.2799 67.0928 60.3143 67.0659 60.3563C65.2731 64.1102 64.0513 68.111 63.441 72.2261C63.4011 72.5098 63.3611 72.7976 63.3251 73.0814C63.0774 72.5618 62.8376 72.0422 62.6098 71.5107C61.4253 68.7306 60.5437 65.831 59.98 62.8621C59.4231 62.1041 58.9286 61.3021 58.5013 60.4642C59.0757 64.9586 60.36 69.3333 62.306 73.4251C62.5725 73.9739 62.8389 74.5161 63.1053 75.0517C62.8855 78.0131 63.0814 81.0106 64.3762 83.6923L65.4034 83.3565C64.4754 81.2947 64.0233 79.0505 64.0805 76.7902C64.668 77.7853 65.2795 78.7605 65.9629 79.7037C66.6028 80.6895 67.3036 81.6346 68.0611 82.5332L69.1322 82.2135C67.9212 81.0066 66.8901 79.1881 66.1148 78.0051Z" fill="#303030"/>
<path d="M54.0491 103.267L44.5492 103.999C44.5492 103.999 44.9169 111.309 54.0491 103.267Z" fill="#303030"/>
<path d="M80.0268 102.896L70.527 103.627C70.527 103.627 70.8907 110.933 80.0268 102.896Z" fill="#303030"/>
<path d="M80.7342 114.19C80.6783 114.286 80.8182 114.362 80.8781 114.274C84.9586 108.107 95.6335 110.134 96.4647 117.791C96.5127 118.279 97.2641 118.279 97.2241 117.791C96.2329 109.698 84.7308 106.972 80.7342 114.19Z" fill="#F2ABA5"/>
<path d="M39.6734 109.466C37.0437 108.835 34.8775 109.626 32.6954 111.021C30.5692 112.376 28.3511 113.479 27.1202 115.785C27.1136 115.796 27.1094 115.809 27.1078 115.822C27.1061 115.835 27.1071 115.849 27.1106 115.862C27.1177 115.887 27.1348 115.909 27.1581 115.923C27.1815 115.936 27.2091 115.939 27.235 115.932C27.2608 115.925 27.2828 115.908 27.296 115.885C28.2033 114.506 30.2615 113.307 31.6483 112.612C34.338 111.261 36.2204 109.93 39.4056 110.485C43.7259 111.241 45.5684 115.165 46.4316 118.954C46.4561 119.049 46.5174 119.131 46.6021 119.181C46.6867 119.232 46.7878 119.246 46.8832 119.222L47.0831 119.162C47.2043 119.128 47.3114 119.057 47.3884 118.957C47.4655 118.858 47.5084 118.736 47.5107 118.61C47.6066 114.302 43.5661 110.401 39.6734 109.466Z" fill="#F2ABA5"/>
<path d="M34.0023 30.5938C31.8401 30.5938 31.8401 33.9509 34.0023 33.9509C36.1644 33.9509 36.1684 30.5938 34.0023 30.5938Z" fill="#BAD9E4"/>
<path d="M71.3503 41.7123C70.9443 41.7173 70.5538 41.8683 70.25 42.1376C69.9461 42.407 69.7494 42.7766 69.6957 43.179C69.4728 43.5692 69.4111 44.031 69.5238 44.4659C69.647 44.8925 69.932 45.2542 70.318 45.4737C70.704 45.6932 71.1604 45.7532 71.5901 45.6409C72.6452 45.3931 73.0288 44.362 73.0288 43.3908C73.0257 42.9466 72.8478 42.5215 72.5337 42.2074C72.2196 41.8933 71.7945 41.7154 71.3503 41.7123Z" fill="#BAD9E4"/>
<path d="M95.0699 25.786C94.3226 25.3543 93.1636 25.5781 92.7719 26.3774C92.656 26.6252 92.5441 26.885 92.4482 27.1408C92.4162 27.2327 92.1844 27.7802 92.3523 27.4245C92.1366 27.8114 92.0789 28.2667 92.1914 28.695C92.3039 29.1234 92.5778 29.4916 92.9558 29.7226C93.6911 30.1542 94.8621 29.9464 95.2538 29.1191C95.3697 28.8713 95.4776 28.6115 95.5775 28.3557C95.6095 28.2638 95.8373 27.7163 95.6734 28.072C95.8845 27.6861 95.9396 27.234 95.8273 26.8087C95.715 26.3834 95.444 26.0174 95.0699 25.786Z" fill="#BAD9E4"/>
<path d="M103.243 50.9443C101.081 50.9443 101.081 54.3015 103.243 54.3015C105.405 54.3015 105.409 50.9443 103.243 50.9443Z" fill="#BAD9E4"/>
<path d="M120.588 81.4422C120.271 81.1312 119.845 80.957 119.401 80.957C118.957 80.957 118.531 81.1312 118.214 81.4422L117.814 81.8619C117.659 82.0177 117.535 82.2028 117.451 82.4064C117.366 82.6101 117.323 82.8284 117.323 83.0488C117.323 83.2693 117.366 83.4876 117.451 83.6912C117.535 83.8949 117.659 84.0799 117.814 84.2358C117.97 84.3917 118.155 84.5153 118.359 84.5997C118.563 84.6841 118.781 84.7275 119.001 84.7275C119.222 84.7275 119.44 84.6841 119.644 84.5997C119.847 84.5153 120.033 84.3917 120.188 84.2358L120.608 83.8162C120.916 83.4967 121.087 83.0691 121.083 82.6251C121.08 82.1812 120.902 81.7564 120.588 81.4422Z" fill="#BAD9E4"/>
<path d="M109.957 94.7987C109.956 94.3538 109.779 93.9275 109.464 93.6129C109.15 93.2984 108.723 93.1212 108.279 93.1201C107.857 93.1217 107.447 93.2647 107.116 93.5262C106.785 93.7878 106.551 94.1528 106.452 94.5629C106.343 94.9913 106.404 95.4454 106.622 95.8299C106.841 96.2143 107.199 96.4994 107.623 96.6251C107.959 96.7068 108.312 96.6891 108.638 96.5742C108.965 96.4593 109.251 96.252 109.462 95.9777C109.621 95.8258 109.747 95.6428 109.832 95.4399C109.918 95.237 109.96 95.0187 109.957 94.7987Z" fill="#BAD9E4"/>
<path d="M15.1185 88.2924C14.6749 88.2975 14.251 88.4761 13.9373 88.7897C13.6236 89.1034 13.4451 89.5273 13.4399 89.9709V90.8102C13.4399 91.2554 13.6168 91.6823 13.9315 91.9971C14.2463 92.3119 14.6733 92.4888 15.1185 92.4888C15.5637 92.4888 15.9906 92.3119 16.3054 91.9971C16.6202 91.6823 16.797 91.2554 16.797 90.8102V89.9709C16.7929 89.527 16.6147 89.1025 16.3008 88.7886C15.9869 88.4747 15.5624 88.2965 15.1185 88.2924Z" fill="#BAD9E4"/>
<path d="M28.7788 67.9418H27.4999C27.0547 67.9418 26.6277 68.1186 26.3129 68.4334C25.9981 68.7482 25.8213 69.1751 25.8213 69.6203C25.8213 70.0655 25.9981 70.4925 26.3129 70.8072C26.6277 71.122 27.0547 71.2989 27.4999 71.2989H28.7788C29.2239 71.2989 29.6509 71.122 29.9657 70.8072C30.2805 70.4925 30.4573 70.0655 30.4573 69.6203C30.4573 69.1751 30.2805 68.7482 29.9657 68.4334C29.6509 68.1186 29.2239 67.9418 28.7788 67.9418Z" fill="#BAD9E4"/>
<path d="M17.7882 53.4382C17.6043 52.463 16.6532 52.0034 15.7499 51.9954C15.3538 51.9923 14.9694 52.1301 14.6654 52.3841C14.3615 52.6382 14.1577 52.992 14.0904 53.3824C14.0232 53.7728 14.0969 54.1745 14.2984 54.5156C14.4999 54.8567 14.816 55.1151 15.1904 55.2446C15.3959 55.3839 15.6284 55.4787 15.8727 55.5227C16.1171 55.5668 16.3679 55.5592 16.6092 55.5004C17.0345 55.3763 17.3951 55.092 17.615 54.7073C17.8349 54.3227 17.897 53.8677 17.7882 53.4382Z" fill="#BAD9E4"/>
<path d="M37.5712 12.1296H37.3594C36.9142 12.1296 36.4873 12.3065 36.1725 12.6213C35.8577 12.9361 35.6808 13.363 35.6808 13.8082C35.6808 14.2534 35.8577 14.6803 36.1725 14.9951C36.4873 15.3099 36.9142 15.4868 37.3594 15.4868H37.5712C38.0164 15.4868 38.4434 15.3099 38.7581 14.9951C39.0729 14.6803 39.2498 14.2534 39.2498 13.8082C39.2498 13.363 39.0729 12.9361 38.7581 12.6213C38.4434 12.3065 38.0164 12.1296 37.5712 12.1296Z" fill="#BAD9E4"/>
<path d="M56.2432 34.1587C54.0811 34.1587 54.0811 37.5158 56.2432 37.5158C58.4054 37.5158 58.4094 34.1587 56.2432 34.1587Z" fill="#BAD9E4"/>
<path d="M72.1896 16.7457C71.9996 16.744 71.8114 16.7822 71.6373 16.858C71.4631 16.9337 71.3067 17.0452 71.1784 17.1853C70.4071 17.9447 71.5781 19.1316 72.3774 18.3843C73.2567 18.1924 73.2087 16.7337 72.1896 16.7457Z" fill="#BAD9E4"/>
<path d="M60.9192 28.5155H60.8473C60.7385 28.5454 60.6368 28.5967 60.5481 28.6664C60.4594 28.7361 60.3855 28.8229 60.3308 28.9215C60.2761 29.0202 60.2416 29.1287 60.2294 29.2409C60.2172 29.353 60.2275 29.4665 60.2598 29.5746C60.3248 29.7859 60.4684 29.9642 60.661 30.0728C60.8536 30.1813 61.0805 30.2119 61.2949 30.1581C61.5984 30.1018 61.8773 29.954 62.0942 29.7345C62.8655 28.9831 61.7065 27.8201 60.9192 28.5155Z" fill="#BAD9E4"/>
<path d="M45.1248 39.8259V40.2255C45.1248 41.3086 46.8033 41.3086 46.8033 40.2255V39.8259C46.8033 38.7428 45.1248 38.7428 45.1248 39.8259Z" fill="#BAD9E4"/>
<path d="M40.7205 53.674C39.6375 53.674 39.6375 55.3525 40.7205 55.3525C41.8036 55.3525 41.7996 53.674 40.7205 53.674Z" fill="#BAD9E4"/>
<path d="M24.946 35.6654L24.7342 35.4536C23.9709 34.6903 22.7839 35.8772 23.5352 36.6526L23.7471 36.8644C24.5264 37.6158 25.7134 36.4288 24.946 35.6654Z" fill="#BAD9E4"/>
<path d="M22.4642 18.632H22.2524C21.1733 18.632 21.1733 20.3105 22.2524 20.3105H22.4642C23.5472 20.3105 23.5472 18.632 22.4642 18.632Z" fill="#BAD9E4"/>
<path d="M84.1633 41.1127C84.0153 41.0373 83.8519 40.9971 83.6858 40.9952C83.5197 40.9933 83.3554 41.0297 83.2057 41.1017C83.056 41.1737 82.925 41.2793 82.8228 41.4102C82.7206 41.5411 82.65 41.6939 82.6165 41.8566C82.583 42.0193 82.5875 42.1875 82.6297 42.3482C82.6719 42.5088 82.7505 42.6576 82.8596 42.7828C82.9687 42.9081 83.1052 43.0065 83.2586 43.0703C83.4119 43.1342 83.5779 43.1618 83.7436 43.151C83.9926 43.1037 84.2216 42.9828 84.4012 42.804C84.5807 42.6251 84.7025 42.3966 84.7508 42.1478C84.8054 41.9328 84.7748 41.705 84.6653 41.5121C84.5558 41.3192 84.3759 41.1761 84.1633 41.1127Z" fill="#BAD9E4"/>
<path d="M82.2609 54.3014H82.0531C80.97 54.3014 80.97 55.98 82.0531 55.98H82.2609C83.344 55.98 83.344 54.3014 82.2609 54.3014Z" fill="#BAD9E4"/>
<path d="M109.749 70.8793C108.666 70.8793 108.666 72.5578 109.749 72.5578C110.832 72.5578 110.832 70.8793 109.749 70.8793Z" fill="#BAD9E4"/>
<path d="M128.002 86.8255C128.002 86.9335 127.922 86.9774 127.83 87.0693C127.067 87.8407 128.254 89.0277 129.029 88.2683C129.228 88.0852 129.389 87.8645 129.503 87.619C129.617 87.3735 129.681 87.1079 129.692 86.8375C129.744 85.7425 128.066 85.7465 128.002 86.8255Z" fill="#BAD9E4"/>
<path d="M121.327 98.1879C120.564 98.9592 121.751 100.146 122.526 99.3869C122.67 99.2596 122.785 99.1032 122.863 98.9282C122.942 98.7532 122.982 98.5636 122.982 98.3717C122.978 97.3486 121.519 97.3007 121.327 98.1879Z" fill="#BAD9E4"/>
<path d="M104.098 112.032C103.883 111.974 103.654 112.003 103.46 112.113C103.266 112.223 103.124 112.405 103.063 112.619C103.063 112.687 102.939 112.799 102.863 112.879C102.1 113.647 103.287 114.834 104.062 114.078C104.375 113.821 104.598 113.471 104.698 113.079C104.755 112.861 104.725 112.629 104.613 112.433C104.5 112.237 104.316 112.093 104.098 112.032Z" fill="#BAD9E4"/>
<path d="M60.5356 104.235C60.3865 103.957 60.1586 103.729 59.8805 103.581C59.6025 103.432 59.2867 103.369 58.9729 103.399C57.8898 103.399 57.8898 105.074 58.9729 105.078H59.0888C59.6083 106.033 61.0591 105.186 60.5356 104.235Z" fill="#BAD9E4"/>
<path d="M64.0086 111.584C62.9255 111.584 62.9255 113.263 64.0086 113.263C65.0916 113.263 65.0916 111.584 64.0086 111.584Z" fill="#BAD9E4"/>
<path d="M27.9315 104.059C27.7389 104.012 27.536 104.033 27.3574 104.119C27.1788 104.205 27.0356 104.351 26.9523 104.53C26.7634 104.618 26.614 104.773 26.5335 104.965C26.4531 105.158 26.4473 105.373 26.5174 105.569C26.5874 105.765 26.7283 105.928 26.9123 106.026C27.0962 106.124 27.3101 106.149 27.5118 106.097C27.7589 106.051 27.9866 105.933 28.166 105.757C28.3454 105.581 28.4683 105.356 28.519 105.11C28.5783 104.893 28.55 104.661 28.4401 104.464C28.3303 104.268 28.1476 104.122 27.9315 104.059Z" fill="#BAD9E4"/>
<path d="M22.0445 113.902C20.9615 113.902 20.9615 115.581 22.0445 115.581C23.1276 115.581 23.1276 113.902 22.0445 113.902Z" fill="#BAD9E4"/>
<path d="M27.7077 82.6292H27.0802C25.9971 82.6292 25.9971 84.3077 27.0802 84.3077H27.7077C28.7788 84.3277 28.7788 82.6292 27.7077 82.6292Z" fill="#BAD9E4"/>
<path d="M14.2312 67.2623C13.6677 67.662 13.8116 68.789 14.6988 68.781C14.8395 68.7911 14.9806 68.7709 15.1127 68.7216C15.2448 68.6724 15.3648 68.5953 15.4645 68.4956C15.5642 68.3959 15.6413 68.2759 15.6905 68.1438C15.7398 68.0117 15.76 67.8705 15.7499 67.7299C15.7579 66.8427 14.6469 66.6948 14.2312 67.2623Z" fill="#BAD9E4"/>
<path d="M81.8413 72.338C80.7622 72.338 80.7622 74.0166 81.8413 74.0166C82.9204 74.0166 82.9244 72.338 81.8413 72.338Z" fill="white"/>
<path d="M44.7171 76.5744C44.5372 76.53 44.3478 76.5449 44.1771 76.6169C44.0065 76.6889 43.8636 76.8142 43.7699 76.974C43.2663 77.4416 43.4262 78.4767 44.2855 78.4248C44.5242 78.4237 44.7554 78.3411 44.9408 78.1906C45.1261 78.0402 45.2545 77.8309 45.3046 77.5975C45.3568 77.3841 45.3249 77.1589 45.2155 76.9684C45.1061 76.7779 44.9277 76.6368 44.7171 76.5744Z" fill="white"/>
<path d="M49.1133 61.4353V61.6471C49.1133 62.7302 50.7879 62.7302 50.7879 61.6471V61.4353C50.7879 60.3482 49.1133 60.3482 49.1133 61.4353Z" fill="white"/>
<path d="M76.4219 77.8373L76.2141 78.0491C75.4468 78.8125 76.6337 79.9994 77.4131 79.2481L77.6209 79.0363C78.3763 78.2609 77.1893 77.0739 76.4219 77.8373Z" fill="white"/>
<path d="M88.3757 79.4799H88.1359C86.5133 79.4799 86.5133 81.9977 88.1359 81.9977H88.3757C89.9983 81.9977 89.9983 79.4799 88.3757 79.4799Z" fill="white"/>
<path d="M52.2586 72.9774C50.636 72.9774 50.636 75.4953 52.2586 75.4953C53.8813 75.4953 53.8813 72.9774 52.2586 72.9774Z" fill="white"/>
<rect x="5.5" y="1.5" width="137" height="137" stroke="#D8E1E5" stroke-width="3"/>
</g>
<defs>
<filter id="filter0_d" x="0" y="0" width="148" height="148" filterUnits="userSpaceOnUse" color-interpolation-filters="sRGB">
<feFlood flood-opacity="0" result="BackgroundImageFix"/>
<feColorMatrix in="SourceAlpha" type="matrix" values="0 0 0 0 0 0 0 0 0 0 0 0 0 0 0 0 0 0 127 0"/>
<feOffset dy="4"/>
<feGaussianBlur stdDeviation="2"/>
<feColorMatrix type="matrix" values="0 0 0 0 0 0 0 0 0 0 0 0 0 0 0 0 0 0 0.25 0"/>
<feBlend mode="normal" in2="BackgroundImageFix" result="effect1_dropShadow"/>
<feBlend mode="normal" in="SourceGraphic" in2="effect1_dropShadow" result="shape"/>
</filter>
</defs>
</svg>
