<svg width="148" height="149" viewBox="0 0 148 149" fill="none" xmlns="http://www.w3.org/2000/svg">
<g filter="url(#filter0_d)">
<g clip-path="url(#clip0)">
<path d="M144 0.932617H4V140.933H144V0.932617Z" fill="#F9F3E0"/>
<path d="M43.734 56.9526C43.5588 56.7054 43.327 56.5038 43.0579 56.3647C42.7888 56.2256 42.4902 56.1531 42.1873 56.1533L42.2912 56.2931L30.2615 55.5658C31.7003 54.0071 33.1564 52.3179 34.6298 50.4981C36.1084 48.6702 37.4661 46.7478 38.6943 44.743C39.9021 42.7782 40.9512 40.7201 41.8316 38.5883C42.6642 36.584 43.2208 34.4758 43.4862 32.3217C43.6993 30.4862 43.4521 28.6264 42.7668 26.9103C42.1242 25.2233 41.1421 23.6862 39.8813 22.3942C39.0654 21.0844 37.9093 20.0208 36.5361 19.3168C35.1427 18.5975 33.4947 18.4749 31.5924 18.9492C31.2344 19.0354 30.8991 19.1976 30.6092 19.4247L30.0417 19.5327C29.703 19.6092 29.3886 19.7685 29.1265 19.9963C28.8036 20.1511 28.49 20.3246 28.1873 20.5158C27.1683 21.1565 26.2756 21.9788 25.5535 22.9417C24.4984 24.4365 24.6223 26.8824 24.6183 28.6209C24.6092 28.7545 24.6396 28.8879 24.7057 29.0044C24.7718 29.121 24.8707 29.2155 24.99 29.2763C25.4376 29.7719 26.4488 29.676 26.5407 28.8447C26.5407 28.7647 26.5647 28.6888 26.5767 28.6089C26.6627 28.5271 26.7319 28.4294 26.7805 28.3211C27.0922 27.6097 27.4279 26.8464 27.8156 26.107C28.5846 25.0844 29.6047 24.2777 30.7771 23.765C31.0958 23.7966 31.4176 23.7654 31.7243 23.6731C32.5233 23.4208 33.3835 23.4404 34.1702 23.7291C34.9628 24.0315 35.6723 24.5177 36.2404 25.1478C36.7044 26.2053 36.9191 27.3553 36.8678 28.509C36.8619 29.639 36.6785 30.761 36.3243 31.8341C35.8508 33.2056 35.2791 34.5413 34.6138 35.8307C33.9477 37.1309 33.2816 38.4085 32.6155 39.6634C31.1234 42.5196 29.5248 45.3026 27.8196 48.0122C26.1144 50.7219 24.3293 53.3983 22.4642 56.0414C22.2193 56.3622 22.0709 56.7462 22.0366 57.1484C22.0004 57.5396 22.0509 57.934 22.1844 58.3034C22.3176 58.6642 22.5355 58.9877 22.8199 59.2466C23.1288 59.5235 23.5281 59.6784 23.9429 59.6822L41.6398 60.6294C41.9508 60.675 42.2683 60.6451 42.5653 60.5422C42.8623 60.4392 43.1302 60.2663 43.3463 60.0379C43.7391 59.6154 43.993 59.0825 44.0737 58.5112C44.1576 57.9675 44.0366 57.412 43.734 56.9526Z" fill="#303030"/>
<path d="M63.6529 20.7076C64.7665 21.0612 65.8055 21.6167 66.7182 22.3462C67.5762 23.0419 68.3205 23.8671 68.9243 24.7921C69.5497 25.7586 70.0556 26.7973 70.431 27.8855C70.8239 29.0165 71.1286 30.1763 71.3423 31.3545C72.2782 33.704 72.8757 36.1746 73.1167 38.6922C73.3687 41.1677 73.3687 43.6623 73.1167 46.1378C72.963 47.4808 72.7389 48.8148 72.4453 50.1344C72.1459 51.5119 71.6956 52.8521 71.1025 54.131C70.5224 55.3824 69.7616 56.5418 68.8444 57.572C67.9331 58.5924 66.8015 59.3919 65.5352 59.91C64.2509 60.4718 62.8489 60.7118 61.4507 60.6094C60.1106 60.5094 58.8037 60.1439 57.606 59.5343C56.3816 58.9091 55.2646 58.0929 54.2969 57.1164C53.3224 56.1424 52.5126 55.0167 51.8989 53.7833C51.006 51.9596 50.3634 50.0238 49.9886 48.0282C49.5353 45.7533 49.3196 43.4375 49.3451 41.1181C49.3708 38.7233 49.6386 36.3372 50.1444 33.9962C50.6125 31.7279 51.3997 29.5373 52.4824 27.4898C53.4769 25.5872 54.8331 23.8971 56.475 22.5141C58.153 21.1504 60.1697 20.2677 62.31 19.9602C62.4487 19.9216 62.5938 19.9113 62.7366 19.9298C62.8794 19.9484 63.017 19.9954 63.1413 20.0682C63.368 20.2039 63.5618 20.3882 63.7088 20.6077L63.6529 20.7076ZM64.4522 56.2491C65.5636 55.4127 66.4359 54.2992 66.982 53.0199C67.6045 51.6113 68.0644 50.1364 68.3528 48.6237C68.6551 47.0519 68.8526 45.4617 68.9443 43.8638C69.0322 42.2651 69.1122 40.8583 69.1841 39.6434C69.2561 38.6043 69.272 37.4612 69.2361 36.2023C69.2015 34.9251 69.0948 33.6508 68.9163 32.3856C68.5414 31.4635 68.1103 30.5653 67.6254 29.6959C67.0811 28.756 66.4085 27.8965 65.6272 27.1421C64.9348 26.4281 64.0887 25.8814 63.1533 25.5435C62.33 25.2593 61.4311 25.2877 60.6274 25.6234C59.8042 25.9671 59.0848 26.7824 58.4773 28.0733C57.9068 29.2331 57.4632 30.4511 57.1544 31.7062C56.8298 32.9976 56.5882 34.3085 56.431 35.6308C56.2672 36.9737 56.1633 38.3125 56.1073 39.6274C56.0514 40.9423 56.0274 42.2451 56.0274 43.5001C56.0274 44.2155 56.0634 45.1507 56.1353 46.2977C56.2138 47.4969 56.366 48.6901 56.5909 49.8706C56.8179 51.0908 57.1331 52.2929 57.5341 53.4675C57.852 54.4797 58.3637 55.4204 59.0408 56.2371C59.6037 56.907 60.4017 57.336 61.2709 57.4361C62.1461 57.54 63.1972 57.1644 64.4162 56.3051L64.4522 56.2491Z" fill="#303030"/>
<path d="M115.728 13.1861C115.276 12.8011 114.736 12.534 114.156 12.4085C113.576 12.2829 112.974 12.303 112.403 12.4667C112.439 12.2989 112.475 12.127 112.503 11.9592C112.771 10.3605 113.15 6.41193 111.164 5.58863C109.326 4.82928 108.099 6.2161 107.323 7.74678C106.86 8.66958 106.521 9.6491 106.312 10.6603C106.128 10.2287 105.949 9.79703 105.785 9.3574C105.413 8.35426 104.898 7.13131 103.85 6.65572C102.803 6.18013 101.812 6.37596 101.189 7.31515C100.669 8.11447 100.617 9.31344 100.605 10.2167C100.596 11.4268 100.855 12.6239 101.365 13.7217C100.265 13.302 99.1305 13.2181 98.1353 13.8575C95.9212 15.2883 98.0274 17.8741 99.5621 18.8693C100.622 19.4898 101.804 19.8729 103.027 19.9923C104.438 20.2001 105.993 20.4519 107.399 20.1561C107.441 20.1471 107.477 20.1231 107.502 20.0888C107.527 20.0545 107.538 20.0123 107.533 19.9702C107.529 19.9281 107.509 19.8892 107.478 19.8608C107.446 19.8325 107.406 19.8167 107.363 19.8164C105.737 19.9843 103.918 19.6566 102.312 19.3648C100.437 19.0291 98.495 17.9261 97.8036 16.0637C97.2641 14.6129 98.6629 14.0254 99.8019 13.9415C100.479 13.941 101.144 14.1248 101.724 14.473C102.619 16.1915 104.522 19.8164 106.92 19.6686C106.958 19.6866 106.998 19.7001 107.04 19.7085C109.65 20.0657 112.304 19.5275 114.569 18.1818C116.256 17.1667 117.639 14.7927 115.728 13.1861ZM109.222 6.17613C109.578 5.94108 110.01 5.8515 110.431 5.92585C110.851 6.0002 111.226 6.23282 111.48 6.57579C111.955 7.1473 112.011 8.01855 112.067 8.72594C112.181 10.0493 112.083 11.3824 111.776 12.6746C110.789 13.0894 109.913 13.7317 109.222 14.549C108.817 15.022 108.47 15.5411 108.187 16.0956C108.047 15.4242 107.843 14.7608 107.663 14.1533C107.382 13.2661 107.052 12.3949 106.676 11.5435C106.968 9.48529 107.719 7.27519 109.222 6.17613ZM106.824 16.8869C106.644 15.9449 106.549 14.9885 106.54 14.0294C106.54 13.6297 106.54 13.1781 106.564 12.7105C107.122 14.0993 107.524 15.5455 107.763 17.0228C107.763 17.0228 107.763 17.1307 107.763 17.2746C107.706 17.4828 107.666 17.6953 107.643 17.9101C107.629 18.083 107.629 18.2567 107.643 18.4296C107.611 18.5096 107.567 18.5495 107.515 18.5295C107.405 18.3128 107.271 18.1091 107.116 17.9221C106.99 17.585 106.89 17.239 106.816 16.8869H106.824ZM108.271 18.6095C108.309 18.4787 108.337 18.345 108.355 18.2098C108.389 17.8576 108.389 17.5029 108.355 17.1507C108.454 16.9029 108.582 16.6591 108.682 16.4473C109.136 15.476 109.804 14.6205 110.637 13.9455C110.928 13.7035 111.246 13.4944 111.584 13.322C111.504 13.5818 111.412 13.8336 111.308 14.0893C110.681 15.7597 109.699 17.2745 108.43 18.5295C108.359 18.6135 108.311 18.6295 108.263 18.6095H108.271ZM101.209 11.2638C100.965 9.72509 101.305 5.66857 103.878 7.33514C105.077 8.13445 105.581 10.2846 106.124 11.6594C105.946 13.0278 105.935 14.4129 106.092 15.7839C106.136 16.1836 106.184 16.6432 106.276 17.1108C105.877 16.783 105.417 16.4833 104.997 16.1076C104.135 15.3203 103.184 14.6363 102.164 14.0694C101.699 13.1906 101.377 12.2436 101.209 11.2638ZM106.005 18.8573C105.592 18.6595 105.218 18.3887 104.902 18.0579C104.31 17.4551 103.792 16.7844 103.359 16.0597C103.123 15.704 102.887 15.3443 102.667 14.9766C103.373 15.4237 104.042 15.9276 104.666 16.4833C105.285 17.0068 105.965 17.3825 106.504 17.986C106.584 18.2025 106.685 18.4101 106.808 18.6055C106.816 19.181 106.544 19.2649 106.009 18.8732L106.005 18.8573ZM114.485 17.4984C112.73 18.6077 110.687 19.1762 108.61 19.133C108.915 18.8771 109.2 18.5978 109.462 18.2977C109.984 17.7966 110.422 17.2134 110.756 16.5712C111.385 15.459 111.885 14.2791 112.247 13.0542C113.402 12.6985 114.645 12.8184 115.548 13.7856C116.799 15.1564 115.688 16.7031 114.489 17.5144L114.485 17.4984Z" fill="#303030"/>
<path d="M114.421 63.3111C113.167 63.7898 111.878 64.1693 110.565 64.4461C103.191 66.0208 95.022 61.6925 90.31 56.5809C83.6837 49.3871 86.9609 34.6277 94.6423 29.2723C100.317 25.3117 109.633 23.9448 116.092 27.246C123.15 30.8429 127.482 35.9705 127.578 43.572C127.69 52.6043 122.954 60.0379 114.421 63.3111Z" fill="#D9603E"/>
<path d="M97.4679 43.3483C97.1002 42.3931 95.8932 43.0366 95.4056 43.3922C94.7681 43.9074 94.2797 44.5835 93.9908 45.3506C93.5193 43.5921 93.1915 41.354 91.4211 41.394C91.1573 41.394 91.0214 41.6338 90.9774 41.9175C90.8296 43.2564 91.3771 44.6112 91.6249 45.9141C91.8562 47.2636 92.3667 48.5499 93.1236 49.6909C93.0972 49.8027 93.0785 49.9162 93.0676 50.0306C92.9957 50.5381 98.463 45.9181 97.4679 43.3483Z" fill="white"/>
<path d="M109.673 45.5823C109.482 44.9908 108.658 44.823 108.151 45.0628C107.41 45.4563 106.821 46.0847 106.476 46.8492C106.236 45.93 106.077 44.8949 105.337 44.3794C104.69 43.9158 103.607 43.8478 103.259 44.7391C102.324 47.137 104.402 50.1504 106.4 51.3334C106.405 51.4217 106.437 51.5064 106.49 51.5768C106.544 51.6472 106.617 51.6999 106.701 51.7282C106.785 51.7566 106.875 51.7593 106.96 51.7359C107.046 51.7126 107.122 51.6642 107.18 51.5972C108.379 50.1145 110.337 47.6366 109.673 45.5823Z" fill="white"/>
<path d="M122.798 42.0973C122.303 41.2061 121.519 41.6137 120.896 42.1293C119.969 42.8926 119.801 44.2235 119.109 45.1107C118.646 43.8718 117.511 42.2571 116.42 43.4042C115.892 43.9637 116.356 45.0867 116.568 45.6702C117.087 47.113 118.21 48.0402 119.069 49.2671C119.095 49.3146 119.131 49.3559 119.174 49.3882C119.218 49.4205 119.267 49.4429 119.32 49.4539C119.373 49.465 119.428 49.4643 119.48 49.4521C119.533 49.4398 119.582 49.4163 119.625 49.383C120.796 48.5438 121.415 47.133 122.087 45.898C122.598 44.9428 123.402 43.1923 122.798 42.0973Z" fill="white"/>
<path d="M90.5178 37.0137C92.3554 37.394 94.2147 37.6609 96.0851 37.8131C100.146 38.1887 104.226 38.3646 108.307 38.3766C112.011 38.3766 116.1 38.1368 119.637 36.9578C121.279 36.4063 123.022 35.7588 124.433 34.7277C124.561 34.6318 124.701 34.5439 124.832 34.4559C124.649 34.1842 124.457 33.9204 124.253 33.6566C122.603 34.7547 120.817 35.6346 118.941 36.2744C117.343 36.8339 115.528 37.0377 113.874 37.2895C111.867 37.5903 109.84 37.7399 107.811 37.7371C104.046 37.7371 100.277 37.5533 96.5247 37.2415C94.5603 37.0789 92.6059 36.8121 90.6697 36.4422C90.152 36.3395 89.6409 36.2061 89.139 36.0426C89.0511 36.2144 88.9632 36.3863 88.8832 36.5661C89.4202 36.7428 89.9658 36.8922 90.5178 37.0137Z" fill="white"/>
<path d="M119.373 52.6003C115.572 54.6122 111.329 55.6451 107.028 55.6057C102.875 55.5418 98.491 55.1221 94.5104 53.9272C92.3238 53.2334 90.1805 52.41 88.0919 51.4613C87.8521 51.3574 87.6163 51.2455 87.3805 51.1376C87.4485 51.3853 87.5164 51.6291 87.5964 51.8689L87.8002 51.9609C89.779 52.9065 91.8053 53.7496 93.871 54.4867C98.0474 55.9334 102.627 56.3291 107.028 56.485C111.232 56.6288 115.225 55.5578 119.017 53.7953C121.04 52.7915 122.971 51.6134 124.788 50.2743C125.568 49.7348 126.339 49.1992 127.098 48.6517C127.178 48.2813 127.246 47.9057 127.302 47.5247C124.697 49.2552 122.167 51.1495 119.373 52.6003Z" fill="white"/>
<path d="M95.7614 32.7733C95.7059 32.6309 95.6199 32.5023 95.5094 32.3967C95.3989 32.291 95.2667 32.2109 95.1219 32.1618C94.5504 32.0059 94.0868 32.4855 93.891 33.0211C93.83 33.0797 93.7906 33.1571 93.7791 33.2409C93.7531 33.3607 93.7531 33.4847 93.7791 33.6046C93.7769 33.6485 93.7769 33.6925 93.7791 33.7365C93.8355 33.9403 93.9658 34.1159 94.1446 34.2289C94.3234 34.342 94.5379 34.3844 94.7462 34.3479C95.0359 34.3 95.3039 34.1642 95.514 33.9591C95.7241 33.754 95.8663 33.4894 95.9212 33.2009C95.9199 33.044 95.8633 32.8926 95.7614 32.7733ZM94.9221 32.9971L94.978 32.9651C95.002 32.9971 95.042 33.057 95.03 33.0251C95.018 32.9931 95.03 33.069 95.03 33.089C95.0287 33.1271 95.022 33.1648 95.01 33.2009C95.038 33.125 94.958 33.2569 94.97 33.2569C94.9371 33.2945 94.901 33.3293 94.8621 33.3608L94.7742 33.4167C94.6903 33.4647 94.7742 33.4167 94.6703 33.4607C94.6304 33.4761 94.5863 33.4761 94.5464 33.4607V33.4207C94.5669 33.3152 94.6106 33.2156 94.6743 33.129L94.9221 32.9971Z" fill="white"/>
<path d="M102.04 34.1482C102.042 34.1071 102.031 34.0666 102.008 34.0323C101.964 33.9641 101.899 33.9111 101.824 33.8804C101.636 33.7065 101.393 33.6046 101.137 33.5927C100.957 33.5927 100.765 33.8125 100.669 33.9404C100.573 34.0682 100.489 34.2801 100.369 34.4359C100.317 34.5039 100.369 34.5758 100.457 34.5798C100.457 35.0234 100.997 35.2992 101.381 35.3312C101.523 35.3373 101.664 35.3036 101.788 35.2339C101.912 35.1641 102.014 35.0611 102.082 34.9364C102.151 34.8117 102.183 34.6703 102.176 34.5282C102.168 34.3861 102.121 34.2489 102.04 34.1322V34.1482ZM101.548 34.6957C101.477 34.7108 101.403 34.7077 101.333 34.6867C101.263 34.6658 101.2 34.6276 101.149 34.5758C101.204 34.5434 101.265 34.523 101.329 34.5159C101.444 34.4879 101.568 34.4839 101.68 34.4599C101.686 34.5081 101.677 34.557 101.653 34.5995C101.629 34.6419 101.593 34.6756 101.548 34.6957Z" fill="white"/>
<path d="M108.498 34.248C108.546 34.1865 108.584 34.1177 108.61 34.0442C108.617 34.0192 108.618 33.9931 108.613 33.9678C108.608 33.9424 108.598 33.9185 108.582 33.8978C108.567 33.8771 108.547 33.8601 108.524 33.848C108.501 33.836 108.476 33.8293 108.45 33.8283C108.42 33.8333 108.389 33.8333 108.359 33.8283C108.283 33.8183 108.206 33.8183 108.131 33.8283C108.052 33.832 107.973 33.8413 107.895 33.8563H107.847C107.69 33.8423 107.532 33.8723 107.391 33.9428C107.25 34.0134 107.131 34.1218 107.048 34.256C107.007 34.2944 106.975 34.3415 106.955 34.3938C106.934 34.4461 106.926 34.5023 106.93 34.5583C106.934 34.6142 106.951 34.6685 106.979 34.7172C107.007 34.7659 107.045 34.8077 107.092 34.8395C107.1 34.959 107.133 35.0755 107.188 35.1819C107.243 35.2884 107.319 35.3826 107.411 35.4589C107.691 35.6708 108.163 35.5389 108.47 35.4989C108.544 35.4969 108.614 35.4668 108.666 35.4147C108.718 35.3627 108.748 35.2927 108.75 35.2192C108.79 34.8754 108.7 34.5293 108.498 34.248ZM107.743 34.8555C107.827 34.8794 107.775 34.7795 107.767 34.6996C107.763 34.6637 107.763 34.6275 107.767 34.5917C107.747 34.5917 107.847 34.5357 107.795 34.5557L107.911 34.5038L108.051 34.4718C108.157 34.5798 108.223 34.7208 108.239 34.8715C108.074 34.8916 107.906 34.8862 107.743 34.8555Z" fill="white"/>
<path d="M115.029 33.2369C114.933 33.1899 114.829 33.1626 114.723 33.1564C114.616 33.1502 114.51 33.1654 114.409 33.201C114.277 33.1865 114.144 33.2184 114.032 33.2913C113.921 33.3642 113.838 33.4735 113.798 33.6006C113.771 33.6736 113.758 33.7507 113.758 33.8284C113.681 33.9564 113.615 34.09 113.558 34.2281C113.55 34.2605 113.549 34.2945 113.555 34.3274C113.562 34.3603 113.576 34.3913 113.596 34.4179C113.617 34.4446 113.643 34.4661 113.673 34.481C113.703 34.4959 113.736 34.5037 113.77 34.5038C113.836 34.5001 113.899 34.4749 113.95 34.4319C114.076 34.6124 114.262 34.7421 114.475 34.7978C114.689 34.8534 114.914 34.8314 115.113 34.7356C115.24 34.6522 115.343 34.5368 115.411 34.4011C115.48 34.2653 115.511 34.1139 115.503 33.9621C115.494 33.8103 115.446 33.6634 115.363 33.5361C115.28 33.4088 115.165 33.3056 115.029 33.2369ZM114.777 34.1761C114.689 34.1761 114.557 34.0362 114.505 33.9323C114.502 33.9112 114.502 33.8895 114.505 33.8684C114.535 33.8141 114.568 33.762 114.605 33.7125C114.632 33.7084 114.659 33.7084 114.685 33.7125C114.977 33.7045 115.041 34.1681 114.777 34.1761Z" fill="white"/>
<path d="M121.499 31.5584C121.375 31.4613 121.225 31.403 121.068 31.3909C120.911 31.3788 120.754 31.4135 120.616 31.4905C120.47 31.5445 120.341 31.6368 120.242 31.7577C120.144 31.8786 120.08 32.0237 120.057 32.1779C120.055 32.2223 120.066 32.2663 120.088 32.3051C120.11 32.3438 120.142 32.3758 120.18 32.3977C120.156 32.3657 120.18 32.3697 120.18 32.3977C120.198 32.4237 120.223 32.4433 120.252 32.4537L120.376 32.5096C120.395 32.5921 120.405 32.6767 120.404 32.7614C120.412 32.8565 120.453 32.9458 120.52 33.0132C120.588 33.0806 120.677 33.1217 120.772 33.1291C120.969 33.153 121.169 33.1211 121.35 33.0371C121.53 32.953 121.683 32.8201 121.791 32.6535C121.883 32.4665 121.904 32.2526 121.85 32.0514C121.796 31.8501 121.672 31.6751 121.499 31.5584ZM121.327 32.3338C121.316 32.3734 121.29 32.4078 121.256 32.4311C121.222 32.4544 121.181 32.4652 121.14 32.4616C121.119 32.3668 121.086 32.2753 121.04 32.1899C121.008 32.1354 120.959 32.093 120.9 32.0691C120.842 32.0453 120.777 32.0414 120.716 32.058C120.822 31.9738 120.957 31.9338 121.092 31.9461C121.06 31.9461 121.128 31.9741 121.092 31.9461C121.155 31.9958 121.212 32.0521 121.263 32.1139C121.288 32.1445 121.304 32.1804 121.312 32.2186C121.319 32.2568 121.318 32.2962 121.307 32.3338H121.327Z" fill="white"/>
<path d="M96.4488 57.1963C96.2647 57.1044 96.0565 57.0723 95.8533 57.1044C95.6969 57.1501 95.5647 57.2551 95.4848 57.397C95.4048 57.5389 95.3836 57.7064 95.4256 57.8638C95.4695 58.0204 95.5736 58.1533 95.7151 58.2334C95.8566 58.3136 96.0241 58.3344 96.181 58.2914C96.2729 58.2674 96.3608 58.2355 96.4528 58.2035C96.5649 58.1741 96.6645 58.1091 96.7366 58.0183C96.8086 57.9275 96.8493 57.8158 96.8524 57.6999C96.8504 57.5831 96.8096 57.4703 96.7366 57.3792C96.6635 57.2881 96.5623 57.2238 96.4488 57.1963Z" fill="white"/>
<path d="M103.155 58.9909C103.1 58.829 102.995 58.689 102.855 58.5912C102.799 58.5002 102.713 58.4322 102.611 58.3994C102.524 58.3453 102.422 58.3201 102.32 58.3274C102.184 58.3369 102.053 58.3779 101.936 58.4473C101.82 58.5168 101.721 58.6126 101.648 58.7271C101.584 58.7871 101.538 58.8635 101.514 58.948C101.49 59.0325 101.489 59.1219 101.512 59.2067L101.536 59.2666V59.3186C101.542 59.3844 101.551 59.4498 101.564 59.5144C101.564 59.5384 101.564 59.5624 101.564 59.5863C101.566 59.7426 101.629 59.8918 101.74 60.0023C101.85 60.1128 102 60.1758 102.156 60.1778C102.46 60.1589 102.746 60.0245 102.955 59.8022C103.056 59.6959 103.128 59.5653 103.163 59.423C103.198 59.2807 103.195 59.1318 103.155 58.9909Z" fill="white"/>
<path d="M109.809 58.9349C109.701 58.8481 109.576 58.7854 109.441 58.7509C109.307 58.7164 109.167 58.7111 109.03 58.7351C108.895 58.7461 108.761 58.7702 108.63 58.807C108.58 58.8174 108.53 58.8322 108.482 58.851L108.379 58.895C108.306 58.9175 108.243 58.9626 108.198 59.0237C108.153 59.0848 108.128 59.1588 108.128 59.2347C108.128 59.3106 108.153 59.3845 108.198 59.4456C108.243 59.5068 108.306 59.5519 108.379 59.5744L108.478 59.5984C108.403 59.8032 108.391 60.0258 108.442 60.2378C108.482 60.3812 108.576 60.5034 108.704 60.5781C108.833 60.6529 108.986 60.6742 109.13 60.6375C109.334 60.5891 109.52 60.4837 109.666 60.3337C109.813 60.1837 109.914 59.9953 109.957 59.7902C109.957 59.8941 109.993 59.7103 109.997 59.6943C110.016 59.6063 110.022 59.5163 110.017 59.4265C110.017 59.3349 109.998 59.2443 109.962 59.16C109.927 59.0756 109.875 58.9991 109.809 58.9349Z" fill="white"/>
<path d="M116.779 58.9429C116.837 58.8876 116.883 58.8204 116.913 58.7459C116.942 58.6714 116.955 58.5914 116.951 58.5113C116.959 58.3322 116.919 58.1544 116.835 57.9957C116.784 57.9131 116.714 57.8444 116.63 57.7957C116.546 57.747 116.451 57.7199 116.354 57.7167C116.257 57.7136 116.161 57.7345 116.074 57.7776C115.987 57.8207 115.912 57.8846 115.856 57.9638C115.77 57.9931 115.691 58.0408 115.624 58.1036C115.533 58.2056 115.47 58.33 115.443 58.4642C115.416 58.5983 115.424 58.7374 115.468 58.867C115.502 58.9798 115.57 59.0791 115.664 59.1509C115.757 59.2226 115.87 59.2631 115.988 59.2666C116.116 59.2643 116.239 59.2176 116.336 59.1348C116.444 59.1353 116.55 59.1063 116.643 59.0508C116.69 59.0251 116.733 58.9928 116.771 58.9549L116.779 58.9429Z" fill="white"/>
<path d="M121.012 56.1333C120.894 55.9461 120.71 55.8104 120.497 55.7533C120.283 55.6963 120.056 55.722 119.861 55.8255C119.741 55.8946 119.641 55.9935 119.571 56.1126C119.501 56.2316 119.463 56.3668 119.461 56.505C119.463 56.7133 119.546 56.9126 119.693 57.0605C119.792 57.157 119.914 57.2261 120.048 57.2611C120.182 57.2962 120.323 57.2959 120.456 57.2603C120.571 57.2364 120.679 57.1883 120.773 57.1194C120.867 57.0505 120.946 56.9623 121.004 56.8606C121.069 56.7508 121.104 56.6257 121.105 56.498C121.107 56.3704 121.074 56.2445 121.012 56.1333Z" fill="white"/>
<path d="M111.508 25.4356C111.16 24.6882 111.288 23.3773 111.276 22.57C111.264 21.7627 111.384 20.5318 110.98 19.8284C110.689 19.3168 110.353 19.2209 109.781 19.2209C109.51 19.2209 109.234 19.2209 108.962 19.2209C108.045 19.3806 107.104 19.3561 106.196 19.149C105.285 19.081 103.85 19.057 103.95 20.0602C104.033 20.8503 104.175 21.6331 104.374 22.4022C104.642 23.4493 104.602 24.5563 104.834 25.5994C104.819 25.7021 104.826 25.8068 104.854 25.9066C104.882 26.0065 104.931 26.0993 104.997 26.1789C105.015 26.2188 105.041 26.2536 105.076 26.2802C105.11 26.3067 105.15 26.3242 105.193 26.3308C105.28 26.3698 105.374 26.3915 105.469 26.3948H105.765C105.836 26.4596 105.925 26.5006 106.02 26.5121C106.116 26.5236 106.212 26.5049 106.296 26.4587C106.311 26.4531 106.324 26.445 106.336 26.4347C107.727 26.5506 109.178 26.7664 110.513 26.4347C110.597 26.4123 110.673 26.3666 110.733 26.3028C110.849 26.3311 110.97 26.3273 111.084 26.2919C111.198 26.2564 111.301 26.1907 111.38 26.1016C111.46 26.0126 111.514 25.9036 111.536 25.7863C111.559 25.669 111.549 25.5478 111.508 25.4356Z" fill="#D9603E"/>
<path d="M55.9794 71.672C54.7805 69.9255 52.2866 72.9309 51.5832 73.7023C50.7035 74.6884 49.9577 75.7863 49.3651 76.9675C49.0764 77.5335 48.8743 78.1398 48.7656 78.7659C48.1142 77.3192 47.0191 76.0402 46.032 74.8573C44.8969 73.4944 42.7228 71.3003 40.7605 72.3754C38.974 73.3546 41.0322 76.0043 41.7277 76.9595C42.4737 78.0321 43.4379 78.9351 44.5572 79.6092C45.1473 79.8982 45.7699 80.1156 46.4116 80.2566C47.0991 80.4485 47.7305 80.8281 48.4339 80.944C48.5087 80.9566 48.5856 80.9454 48.6537 80.9121C48.6807 81.0015 48.7408 81.0774 48.8217 81.1241C48.9026 81.1709 48.9983 81.1851 49.0893 81.1639C49.1599 81.1921 49.2386 81.1921 49.3092 81.1639C50.0006 80.9001 50.636 80.2606 51.2315 79.829C52.3856 79.0175 53.4566 78.0938 54.4288 77.0714C55.6397 75.8124 57.1544 73.3905 55.9794 71.672ZM46.2478 79.4893C45.2109 79.2128 44.2618 78.6763 43.4901 77.9306C42.8467 77.3311 39.7493 73.966 41.1242 72.9709C41.9634 72.3634 43.1225 73.1747 43.8418 73.6303C44.7051 74.1938 45.3565 75.1051 46.008 75.8804C47.0431 77.1193 48.2181 78.614 48.5698 80.2766C47.8024 80.1207 47.0071 79.7011 46.2478 79.4893ZM53.042 77.543C52.2577 78.2414 51.4315 78.8914 50.5681 79.4893C50.1882 79.8207 49.7878 80.1277 49.3691 80.4085C49.3236 79.4731 49.4818 78.5391 49.8327 77.6708C50.2194 76.808 50.6934 75.9871 51.2475 75.221C51.7809 74.5149 52.3632 73.8472 52.99 73.2227C53.6934 72.4633 55.5398 71.1045 55.6877 72.9829C55.8116 74.7693 54.2369 76.4199 53.026 77.543H53.042Z" fill="#303030"/>
<path d="M48.7616 126.917C47.4353 126.863 46.1151 126.707 44.813 126.449C37.4913 125.01 31.7362 117.896 29.4342 111.414C26.201 102.298 34.9295 90.1281 44.0017 88.2338C50.712 86.835 59.7162 89.2129 64.3083 94.7322C69.328 100.767 71.2863 107.122 68.4128 114.056C65.0117 122.333 57.8139 127.252 48.7616 126.917Z" fill="#778890"/>
<path d="M38.9261 106.194C38.469 105.687 37.9096 105.282 37.2848 105.007C36.66 104.731 35.984 104.591 35.3012 104.596C34.6308 104.611 33.966 104.721 33.3269 104.924C33.0677 105.004 32.8278 105.137 32.6216 105.314C32.4155 105.49 32.2475 105.707 32.1279 105.951C31.6777 106.296 31.3092 106.737 31.0488 107.242C28.6069 111.81 36.0725 116.434 39.2618 112.437C40.7325 110.591 40.3928 107.901 38.9261 106.194ZM34.4499 108.321L34.4179 108.369C34.3431 108.479 34.2498 108.577 34.1422 108.656C34.2307 108.532 34.3341 108.42 34.4499 108.321ZM32.4516 107.489C32.2387 107.834 32.0784 108.208 31.976 108.6C32.0352 108.194 32.2007 107.811 32.4556 107.489H32.4516ZM38.3026 111.762C38.8126 110.896 39.0714 109.905 39.0499 108.9C39.1251 109.403 39.098 109.915 38.9702 110.407C38.8425 110.898 38.6168 111.359 38.3066 111.762H38.3026Z" fill="white"/>
<path d="M52.2626 109.695C52.1547 108.357 51.4034 106.85 50.1325 106.254C49.6425 106.03 49.0976 105.954 48.565 106.036C48.0324 106.118 47.5353 106.353 47.135 106.714C46.1799 107.245 45.4245 108.129 45.3406 109.112C45.1967 110.798 46.4476 112.225 47.9863 112.709C50.0325 113.368 52.4625 112.069 52.2626 109.695ZM50.7599 110.774C50.7164 110.678 50.6614 110.586 50.5961 110.503C50.7453 110.372 50.8794 110.224 50.9957 110.063C50.9673 110.314 50.887 110.556 50.7599 110.774Z" fill="white"/>
<path d="M66.2786 112.609C66.7902 110.722 66.3825 108.273 64.5921 107.201C63.6953 106.74 62.6621 106.618 61.6825 106.858C60.9585 106.768 60.2236 106.829 59.5244 107.038C57.2104 107.717 56.5629 110.507 57.1264 112.585C57.7339 114.851 59.8561 116.202 62.1462 116.234C64.4362 116.266 65.7311 114.635 66.2786 112.609ZM60.5875 108.245C60.4305 108.339 60.2784 108.442 60.1319 108.552C60.2029 108.444 60.2971 108.352 60.4076 108.285C60.4676 108.273 60.5275 108.253 60.5875 108.245ZM65.4273 110.702L65.2915 110.551C65.2915 110.327 65.3154 110.115 65.2915 109.907C65.2915 109.947 65.3114 109.991 65.3194 110.031C65.3724 110.252 65.4085 110.476 65.4273 110.702ZM63.0774 114.899L62.9654 114.923C63.222 114.796 63.4703 114.653 63.7088 114.495C64.0569 114.258 64.3833 113.991 64.684 113.696C64.3272 114.292 63.7501 114.724 63.0774 114.899Z" fill="white"/>
<path d="M43.5341 89.3049C43.2979 89.0196 43.0139 88.7775 42.6948 88.5895C40.2401 89.4212 37.9868 90.7581 36.0805 92.5141C36.1278 92.8039 36.2237 93.0836 36.3642 93.3414L36.3403 93.5253C36.1724 94.8641 37.5113 95.6834 38.5424 96.147C40.3768 96.9463 43.3622 97.5578 44.4893 95.3477C44.9639 94.3629 45.1267 93.2568 44.9561 92.177C44.7854 91.0972 44.2893 90.0952 43.5341 89.3049Z" fill="white"/>
<path d="M52.5744 120.43C52.0309 119.789 51.3153 119.318 50.5122 119.071C48.9135 118.596 47.4868 119.071 46.3317 120.214C45.5764 120.962 44.6412 122.48 44.7331 123.723C44.5072 124.664 44.6502 125.655 45.1328 126.493C46.3208 126.711 47.5228 126.845 48.7297 126.893C49.5411 126.922 50.3535 126.908 51.1636 126.853C51.2507 126.748 51.3283 126.636 51.3954 126.517C51.3594 126.629 51.3195 126.737 51.2755 126.845C52.4899 126.756 53.6937 126.558 54.8724 126.253C54.9614 126.068 55.0388 125.877 55.1042 125.682C56.0834 122.972 54.6446 121.162 52.5744 120.43Z" fill="white"/>
<path d="M57.1545 89.6765C56.9314 89.7617 56.7161 89.866 56.511 89.9882C55.412 90.6317 54.5727 92.0585 54.3249 93.2814C54.0012 94.8801 54.4568 95.9591 55.6318 97.0102L55.6997 97.0662C56.9626 99.4122 60.4516 99.608 62.6657 98.6408C63.2677 98.3651 63.7995 97.957 64.2217 97.447C64.6438 96.937 64.9453 96.3382 65.1036 95.6953C64.8559 95.3756 64.6041 95.0599 64.3403 94.7442C62.3881 92.5009 59.9229 90.7624 57.1545 89.6765ZM60.5555 96.3708C60.4138 96.3669 60.2723 96.3549 60.1319 96.3348C61.3309 96.1669 62.5658 95.4795 62.9655 94.4604C62.9295 94.6688 62.8705 94.8725 62.7896 95.0679C62.5569 95.4599 62.2275 95.7856 61.8328 96.0137C61.4381 96.2419 60.9914 96.3648 60.5356 96.3708H60.5555Z" fill="white"/>
<path d="M36.2843 121.629C36.2544 120.917 36.0765 120.219 35.7621 119.579C35.4476 118.939 35.0035 118.371 34.4579 117.912C33.8465 117.426 33.0964 117.146 32.3157 117.113C33.4597 118.859 34.8096 120.461 36.3363 121.885C36.3203 121.797 36.3083 121.709 36.2843 121.629Z" fill="white"/>
<path d="M45.7922 88.7013C45.7922 86.8749 45.5044 84.8327 45.6763 83.0662C45.8401 81.4116 47.7025 81.5874 49.2132 81.4316C51.2115 81.2198 51.3514 81.6314 51.6591 83.6337C51.9669 85.636 51.4913 88.0299 52.1187 89.8524L45.7922 88.7013Z" fill="#778890"/>
<path d="M51.7751 87.3585C50.8623 87.7467 49.8771 87.9347 48.8855 87.91C48.1116 87.8942 47.3409 87.8059 46.5835 87.6463L45.7562 87.4744C45.7562 87.7302 45.7562 87.982 45.7842 88.2298C45.98 88.2817 46.1839 88.3337 46.3837 88.3776C47.3025 88.5864 48.2394 88.7056 49.1813 88.7333C50.0805 88.7689 50.9784 88.6332 51.827 88.3337C51.791 88.022 51.7791 87.6942 51.7751 87.3585Z" fill="#303030"/>
<path d="M49.8807 85.4401C48.9955 85.5805 48.0984 85.6314 47.203 85.592C46.6754 85.592 46.1639 85.5041 45.6523 85.4561L45.6763 86.0276C47.2384 86.2969 48.8338 86.3104 50.4003 86.0676C50.8641 85.9951 51.3222 85.8896 51.7711 85.7519C51.7711 85.4854 51.7711 85.2257 51.7711 84.9725C51.1556 85.1824 50.5231 85.3388 49.8807 85.4401Z" fill="white"/>
<path d="M121.447 75.8803C119.769 77.5949 118.294 79.4772 116.368 80.924C114.947 81.9809 113.309 82.7072 111.572 83.0502C113.753 81.7804 115.531 79.9215 116.703 77.6868C117.635 75.9403 118.666 70.9605 115.504 70.8167C113.063 70.7088 111.908 74.1818 111.324 76.0122C110.816 77.6108 110.481 79.2774 109.961 80.8721C109.933 80.5923 109.905 80.3165 109.865 80.0408C109.71 78.7289 109.273 77.4663 108.582 76.3399C107.631 74.8212 105.385 73.942 103.966 75.3847C102.548 76.8275 103.894 79.781 104.766 81.0959C105.793 82.6585 107.807 84.401 109.761 84.2931C109.791 84.3296 109.823 84.3643 109.857 84.397C110.113 84.6408 110.617 84.397 110.481 84.0333C115.277 83.3339 119.049 80.1806 121.903 76.244C122.075 75.9563 121.663 75.6685 121.447 75.8803ZM110.709 80.98C111.18 79.6291 111.432 78.1824 111.844 76.7995C112.359 75.057 112.943 72.9029 114.533 71.8238C116.22 70.6808 116.931 72.6671 116.899 74.0019C116.861 75.5551 116.371 77.0633 115.488 78.3422C114.202 80.3453 112.361 81.9311 110.189 82.9063C110.189 82.8264 110.161 82.7504 110.149 82.6705C110.29 82.0928 110.477 81.5274 110.709 80.98ZM105.789 81.1838C104.838 80.0807 103.127 76.7556 104.87 75.5886C105.753 75.0051 106.984 75.5886 107.603 76.248C108.251 77.0253 108.703 77.9461 108.922 78.9337C109.258 80.1687 109.23 81.4795 109.41 82.7385C109.387 82.8853 109.377 83.0336 109.378 83.1821C109.174 83.246 108.978 83.302 108.754 83.3539C108.729 83.3583 108.705 83.3664 108.682 83.3779C107.562 82.8753 106.57 82.1252 105.781 81.1838H105.789Z" fill="#303030"/>
<path d="M127.011 99.68C122.023 87.8942 101.528 88.03 93.4393 96.1431C87.8082 101.79 84.3032 110.371 88.1918 117.868C94.4025 129.858 110.245 130.258 120.604 124.155C128.222 119.663 130.376 107.641 127.011 99.68Z" fill="#BAD9E4"/>
<path d="M115.448 112.009C118.57 109.576 121.567 106.354 122.706 102.849C123.398 100.723 123.142 98.553 122.51 96.4548C122.097 95.2829 121.541 94.1662 120.856 93.1297C120.856 93.0937 120.836 93.0617 120.828 93.0258C119.991 92.5611 119.12 92.1603 118.222 91.8268C118.581 92.6332 118.989 93.4167 119.445 94.1728C120.836 98.0534 120.192 100.132 119.357 101.978C117.826 105.347 113.59 107.573 110.205 109.464C106.92 111.302 103.463 112.821 100.809 115.359C97.7956 118.24 97.0482 121.649 97.6877 125.318C97.6938 125.371 97.7194 125.419 97.7596 125.454C97.7855 125.846 97.893 126.229 98.0753 126.577C98.9289 126.898 99.8019 127.165 100.689 127.376C100.48 126.731 100.44 126.043 100.573 125.378C101.037 123.236 102.36 121.134 103.77 119.319C105.093 117.609 107.211 116.598 109.262 115.642C111.453 114.665 113.528 113.447 115.448 112.009Z" fill="white"/>
<path d="M127.682 103.189C127.657 102.407 127.562 101.628 127.398 100.863C127.398 100.823 127.398 100.783 127.398 100.743C127.274 100.383 127.142 100.028 126.999 99.6801C126.7 98.9837 126.34 98.3151 125.924 97.6818C125.76 97.8121 125.653 98.0015 125.628 98.2093C125.691 99.3216 125.845 100.427 126.087 101.514C126.019 101.95 125.936 102.378 125.868 102.781C125.537 104.866 124.826 106.873 123.769 108.7C122.792 110.37 121.56 111.876 120.117 113.164C118.75 114.335 117.031 115.299 115.52 116.334C112.755 118.228 109.809 120.003 108.219 122.792C107.697 123.72 107.397 124.755 107.339 125.818C107.339 126.033 107.292 126.325 107.28 126.645C107.122 127.092 107.025 127.559 106.992 128.032C107.479 128.032 107.971 127.996 108.458 127.956C108.424 127.386 108.497 126.815 108.674 126.273C109.19 124.723 110.617 123.875 112.095 123.044C113.862 122.037 115.576 120.978 117.523 120.246C119.073 119.595 120.489 118.663 121.699 117.497C124.349 115.067 125.888 111.558 126.807 108.389C127.352 106.708 127.646 104.956 127.682 103.189Z" fill="white"/>
<path d="M93.5992 123.895C93.7791 121.937 93.3914 119.899 94.0268 117.984C94.6284 116.035 95.6015 114.221 96.8924 112.641C98.3355 110.964 100.152 109.648 102.196 108.8C104.022 108.117 105.913 107.457 107.435 106.306C108.901 105.274 110.235 104.066 111.408 102.709C112.551 101.233 113.399 99.5504 113.906 97.7536C114.29 96.4778 114.586 95.1772 114.793 93.861C114.966 93.3828 115.037 92.8735 115.001 92.3663C115.068 91.8739 115.024 91.3729 114.873 90.8995C114.517 90.8316 114.162 90.7676 113.802 90.7117C113.478 91.9106 113.178 94.6403 112.559 95.6874C111.757 96.9985 110.727 98.1557 109.518 99.1045C106.132 101.818 101.848 103.569 98.0354 105.763C95.1462 107.367 92.8958 109.915 91.6609 112.981C91.0483 114.494 90.7361 116.112 90.7417 117.745C90.7616 119.511 91.5849 121.206 92.0445 122.916C92.1644 123.024 92.2803 123.132 92.4042 123.236C92.4706 123.202 92.5335 123.162 92.5921 123.116C92.5921 123.224 92.6201 123.328 92.632 123.436C92.9158 123.671 93.2075 123.899 93.5033 124.119C93.5528 124.053 93.5857 123.976 93.5992 123.895Z" fill="white"/>
<path d="M88.5355 115.69C88.5036 115.291 88.4636 114.911 88.4196 114.527C88.739 112.76 89.2344 111.029 89.8984 109.36C91.3811 105.675 93.775 102.677 97.4919 101.123C99.1185 100.447 100.937 100.367 102.583 99.72C104.084 99.0905 105.434 98.1523 106.548 96.9663C107.539 95.9232 108.023 94.6523 108.418 93.2975C108.744 92.3708 108.88 91.3882 108.818 90.408C108.003 90.4319 107.193 90.4892 106.388 90.5798L106.216 90.7676C105.269 91.7831 104.234 92.7126 103.123 93.5453C101.524 94.8002 99.7739 95.4476 97.8436 96.0231C96.2449 96.4987 94.8701 97.4979 93.5273 98.4211C92.2906 99.3674 91.1834 100.472 90.2341 101.706C89.1451 103.004 88.2585 104.46 87.6043 106.023C86.4755 108.917 86.3558 112.108 87.2646 115.079C87.2446 115.211 87.2247 115.347 87.2087 115.478C87.43 116.186 87.7052 116.875 88.032 117.541C88.052 117.105 88.0919 116.669 88.1439 116.234C88.2492 116.183 88.3402 116.107 88.4086 116.012C88.477 115.917 88.5206 115.806 88.5355 115.69Z" fill="white"/>
<path d="M105.833 85.9317C105.409 87.4304 105.617 89.4687 105.697 91.0393C106.628 91.1552 107.116 90.292 107.695 89.7165C107.991 91.6908 109.098 92.0624 109.813 90.0522C110.613 91.0473 111.86 92.8977 112.211 90.224C112.643 90.6796 114.018 91.8746 114.561 90.9554C114.897 90.3719 113.702 89.2169 113.582 88.6614C113.35 87.5983 113.95 86.4632 113.37 85.4281C112.307 83.5497 106.484 83.6297 105.833 85.9317Z" fill="#BAD9E4"/>
<path d="M74.2158 80.4764C77.1117 80.4764 79.4593 78.1288 79.4593 75.2329C79.4593 72.337 77.1117 69.9894 74.2158 69.9894C71.3199 69.9894 68.9723 72.337 68.9723 75.2329C68.9723 78.1288 71.3199 80.4764 74.2158 80.4764Z" fill="#A8B3B2"/>
<path d="M132.546 132.092C135.442 132.092 137.789 129.745 137.789 126.849C137.789 123.953 135.442 121.605 132.546 121.605C129.65 121.605 127.302 123.953 127.302 126.849C127.302 129.745 129.65 132.092 132.546 132.092Z" fill="white"/>
<path d="M19.8704 128.04C22.7663 128.04 25.1139 125.692 25.1139 122.796C25.1139 119.9 22.7663 117.553 19.8704 117.553C16.9745 117.553 14.6269 119.9 14.6269 122.796C14.6269 125.692 16.9745 128.04 19.8704 128.04Z" fill="#A8B3B2"/>
<path d="M127.298 20.6158C130.194 20.6158 132.542 18.2682 132.542 15.3723C132.542 12.4764 130.194 10.1288 127.298 10.1288C124.402 10.1288 122.055 12.4764 122.055 15.3723C122.055 18.2682 124.402 20.6158 127.298 20.6158Z" fill="white"/>
<path d="M46.3078 17.6823C48.0471 17.6823 49.4571 16.2723 49.4571 14.533C49.4571 12.7937 48.0471 11.3837 46.3078 11.3837C44.5684 11.3837 43.1585 12.7937 43.1585 14.533C43.1585 16.2723 44.5684 17.6823 46.3078 17.6823Z" fill="#D9603E"/>
<path d="M128.977 79.3694C130.716 79.3694 132.126 77.9594 132.126 76.2201C132.126 74.4808 130.716 73.0708 128.977 73.0708C127.238 73.0708 125.828 74.4808 125.828 76.2201C125.828 77.9594 127.238 79.3694 128.977 79.3694Z" fill="#D9603E"/>
<path d="M74.8433 126.789C76.5826 126.789 77.9926 125.379 77.9926 123.639C77.9926 121.9 76.5826 120.49 74.8433 120.49C73.104 120.49 71.694 121.9 71.694 123.639C71.694 125.379 73.104 126.789 74.8433 126.789Z" fill="#D9603E"/>
</g>
<rect x="5.5" y="2.43262" width="137" height="137" stroke="#D8E1E5" stroke-width="3"/>
</g>
<defs>
<filter id="filter0_d" x="0" y="0.932617" width="148" height="148" filterUnits="userSpaceOnUse" color-interpolation-filters="sRGB">
<feFlood flood-opacity="0" result="BackgroundImageFix"/>
<feColorMatrix in="SourceAlpha" type="matrix" values="0 0 0 0 0 0 0 0 0 0 0 0 0 0 0 0 0 0 127 0"/>
<feOffset dy="4"/>
<feGaussianBlur stdDeviation="2"/>
<feColorMatrix type="matrix" values="0 0 0 0 0 0 0 0 0 0 0 0 0 0 0 0 0 0 0.25 0"/>
<feBlend mode="normal" in2="BackgroundImageFix" result="effect1_dropShadow"/>
<feBlend mode="normal" in="SourceGraphic" in2="effect1_dropShadow" result="shape"/>
</filter>
<clipPath id="clip0">
<rect x="4" y="0.932617" width="140" height="140" fill="white"/>
</clipPath>
</defs>
</svg>
