<svg width="148" height="155" viewBox="0 0 148 155" fill="none" xmlns="http://www.w3.org/2000/svg">
<g filter="url(#filter0_d)">
<g clip-path="url(#clip0)">
<path d="M144 0.932617H4V140.925H144V0.932617Z" fill="#A8B3B2"/>
<path d="M56.0564 140.925C56.5374 138.855 57.1379 136.815 57.8548 134.814C59.4813 129.823 61.5634 125.003 63.6375 120.196C64.3568 118.525 66.5388 112.519 69.0485 113.254C71.7341 114.053 73.1967 121.127 73.7642 123.245C75.1989 128.632 77.4728 133.691 78.408 139.23C78.4799 139.674 78.6078 140.261 78.7596 140.925H56.0564Z" fill="#BAD9E4"/>
<path d="M64.8444 135.793C64.821 136.481 64.6957 137.161 64.4727 137.811C64.3168 138.287 65.0642 138.487 65.216 138.015C65.4603 137.299 65.595 136.55 65.6156 135.793C65.5926 135.709 65.5424 135.634 65.4727 135.581C65.403 135.527 65.3177 135.498 65.23 135.498C65.1423 135.498 65.057 135.527 64.9873 135.581C64.9176 135.634 64.8674 135.709 64.8444 135.793Z" fill="white"/>
<path d="M61.3716 138.299C61.384 138.786 61.3234 139.273 61.1917 139.742C61.0439 140.217 61.7912 140.421 61.935 139.946C62.088 139.411 62.1581 138.855 62.1429 138.299C62.1198 138.214 62.0696 138.14 61.9999 138.086C61.9302 138.033 61.8449 138.004 61.7572 138.004C61.6695 138.004 61.5842 138.033 61.5145 138.086C61.4448 138.14 61.3946 138.214 61.3716 138.299Z" fill="white"/>
<path d="M62.9261 129.707C62.7303 130.626 62.3546 131.493 62.1548 132.408C62.0509 132.896 62.7942 133.104 62.9021 132.616C63.098 131.697 63.4736 130.83 63.6734 129.915C63.7773 129.427 63.034 129.215 62.9261 129.707Z" fill="white"/>
<path d="M70.0396 136.848C69.8918 136.373 69.1485 136.577 69.2963 137.052C69.4447 137.649 69.5039 138.264 69.4722 138.878C69.4938 138.965 69.5437 139.042 69.614 139.096C69.6842 139.151 69.7707 139.181 69.8598 139.181C69.9489 139.181 70.0354 139.151 70.1057 139.096C70.1759 139.042 70.2258 138.965 70.2475 138.878C70.2786 138.195 70.2086 137.511 70.0396 136.848Z" fill="white"/>
<path d="M69.8478 125.463C69.7359 124.979 68.9886 125.183 69.1005 125.671C69.2764 126.428 69.2764 127.215 69.1005 127.972C68.9886 128.456 69.7359 128.664 69.8478 128.176C70.0516 127.283 70.0516 126.356 69.8478 125.463Z" fill="white"/>
<path d="M68.7008 117.654V121.131C68.7238 121.215 68.774 121.29 68.8437 121.343C68.9134 121.397 68.9987 121.425 69.0865 121.425C69.1742 121.425 69.2595 121.397 69.3292 121.343C69.3989 121.29 69.4491 121.215 69.4721 121.131V117.654C69.4491 117.569 69.3989 117.494 69.3292 117.441C69.2595 117.388 69.1742 117.359 69.0865 117.359C68.9987 117.359 68.9134 117.388 68.8437 117.441C68.774 117.494 68.7238 117.569 68.7008 117.654Z" fill="white"/>
<path d="M67.3541 130.015V131.945C67.3771 132.029 67.4273 132.104 67.497 132.157C67.5667 132.211 67.652 132.24 67.7397 132.24C67.8274 132.24 67.9127 132.211 67.9824 132.157C68.0521 132.104 68.1024 132.029 68.1254 131.945V130.015C68.1024 129.93 68.0521 129.855 67.9824 129.802C67.9127 129.749 67.8274 129.72 67.7397 129.72C67.652 129.72 67.5667 129.749 67.497 129.802C67.4273 129.855 67.3771 129.93 67.3541 130.015Z" fill="white"/>
<path d="M66.0033 121.706C65.9793 121.97 65.8315 122.21 65.8075 122.477C65.7635 122.977 66.5348 122.969 66.5828 122.477C66.6028 122.218 66.7466 121.974 66.7746 121.706C66.8186 121.223 66.0473 121.223 66.0033 121.706Z" fill="white"/>
<path d="M72.5613 133.092V134.251C72.5843 134.335 72.6345 134.41 72.7042 134.463C72.7739 134.517 72.8592 134.545 72.947 134.545C73.0347 134.545 73.12 134.517 73.1897 134.463C73.2594 134.41 73.3096 134.335 73.3326 134.251V133.092C73.3096 133.007 73.2594 132.932 73.1897 132.879C73.12 132.826 73.0347 132.797 72.947 132.797C72.8592 132.797 72.7739 132.826 72.7042 132.879C72.6345 132.932 72.5843 133.007 72.5613 133.092Z" fill="white"/>
<path d="M49.2107 93.0923C48.871 92.2491 47.3004 92.0053 46.5611 91.7616C45.5566 91.4701 44.6297 90.9583 43.8478 90.2636C43.066 89.5688 42.4488 88.7085 42.0412 87.7452C42.0181 87.6918 41.9771 87.648 41.9253 87.6213C41.9613 86.4744 41.9933 85.3314 42.0412 84.1845C42.9331 85.5049 44.308 86.422 45.8697 86.7382C46.4652 86.8501 49.4944 87.5094 49.5504 86.3665C49.5551 86.2881 49.5286 86.2109 49.4765 86.1521C49.4244 86.0933 49.3511 86.0575 49.2726 86.0528C49.1942 86.048 49.1171 86.0746 49.0582 86.1267C48.9994 86.1788 48.9637 86.2521 48.9589 86.3305C48.9589 86.5423 46.1615 86.1907 45.9057 86.1467C45.0634 85.9749 44.276 85.5995 43.6121 85.0534C42.9482 84.5073 42.4281 83.8069 42.0972 83.0136C42.1425 82.0305 42.1904 81.0487 42.2411 80.0683C43.5159 81.6388 46.2374 82.2942 48.0078 82.4341C48.0809 82.4305 48.15 82.4 48.2019 82.3484C48.2538 82.2968 48.2848 82.2278 48.2887 82.1548C48.2927 82.0817 48.2695 82.0098 48.2235 81.9528C48.1775 81.8959 48.112 81.8581 48.0398 81.8466C46.0016 81.6868 42.4449 80.7956 42.1292 78.3658C42.0932 78.0541 41.6616 78.0861 41.5617 78.3338C40.5146 80.8835 37.6852 82.1344 35.0396 81.8706C34.664 81.8346 34.64 82.4221 35.0077 82.4581C37.6133 82.7178 40.3228 81.5949 41.6896 79.3649C41.6283 80.4119 41.575 81.459 41.5297 82.506C41.4733 82.5422 41.43 82.5954 41.4058 82.6579C40.3628 85.3594 37.8091 87.4175 34.8278 87.1778C34.7545 87.1805 34.6848 87.2105 34.6324 87.2617C34.5799 87.313 34.5483 87.382 34.5438 87.4552C34.5394 87.5284 34.5623 87.6007 34.6081 87.658C34.6539 87.7153 34.7194 87.7535 34.7919 87.7652C37.6373 87.997 40.123 86.3105 41.4618 83.9167C41.4058 85.2795 41.3659 86.6422 41.3219 88.005C39.5675 90.4508 37.5334 92.4489 34.4162 92.8725C34.0406 92.9285 34.1644 93.504 34.5401 93.452C37.4974 93.0524 39.5475 91.258 41.2859 89.0321C41.238 90.7771 41.198 92.5169 41.166 94.2513C39.6954 96.9488 36.9659 99.5744 33.7089 99.4226C33.6355 99.4253 33.5659 99.4553 33.5134 99.5065C33.4609 99.5578 33.4294 99.6268 33.4249 99.7C33.4204 99.7732 33.4433 99.8455 33.4891 99.9028C33.535 99.9601 33.6005 99.9983 33.6729 100.01C36.786 100.154 39.4836 97.9799 41.1381 95.4462C41.1381 95.5221 41.1381 95.6021 41.1381 95.678C41.0621 101.045 41.3459 106.408 41.162 111.775C41.162 112.095 41.6616 112.223 41.7335 111.887C41.7348 111.861 41.7348 111.834 41.7335 111.807C41.7355 111.791 41.7355 111.775 41.7335 111.759C41.7774 111.483 41.7948 111.203 41.7855 110.924C41.7852 110.881 41.7757 110.839 41.7575 110.8C41.8774 105.953 41.6696 101.109 41.7095 96.2654C42.7606 98.2077 45.1944 99.4905 47.0527 100.39C47.3923 100.558 47.5802 99.99 47.2405 99.8342C45.0665 98.7751 41.7695 97.0767 41.7775 94.2833C41.777 94.2351 41.7632 94.1881 41.7375 94.1474C41.7695 92.3517 41.8121 90.56 41.8654 88.7723C42.4844 89.8758 43.3777 90.8008 44.459 91.4578C45.0516 91.8242 45.688 92.1142 46.3533 92.321C46.9048 92.5049 48.4234 92.7567 48.6672 93.3561C48.831 93.7118 49.3545 93.44 49.2107 93.0923Z" fill="white"/>
<path d="M67.474 34.2422C67.1423 33.399 65.5437 33.1552 64.8164 32.9035C63.8135 32.6118 62.8873 32.1024 62.104 31.4116C61.3206 30.7208 60.6994 29.8656 60.2845 28.9071C60.2626 28.8529 60.2213 28.8087 60.1687 28.7832C60.2086 27.6323 60.2406 26.4853 60.2885 25.3384C61.1818 26.6617 62.5599 27.5804 64.125 27.896C64.7205 28.0079 67.7577 28.6673 67.8097 27.5244C67.8069 27.451 67.777 27.3814 67.7257 27.3289C67.6744 27.2764 67.6055 27.2449 67.5322 27.2404C67.459 27.2359 67.3867 27.2588 67.3294 27.3046C67.2721 27.3505 67.2339 27.416 67.2222 27.4884C67.2222 27.7042 64.4248 27.3485 64.161 27.3046C63.3153 27.13 62.5255 26.7504 61.8607 26.1992C61.196 25.6481 60.6767 24.9422 60.3485 24.1435C60.3925 23.1564 60.4364 22.1733 60.4924 21.1902C61.7672 22.7647 64.4887 23.4241 66.2711 23.564C66.3495 23.5682 66.4264 23.5411 66.4849 23.4887C66.5433 23.4362 66.5786 23.3627 66.5828 23.2842C66.587 23.2058 66.5599 23.1289 66.5075 23.0704C66.455 23.012 66.3815 22.9768 66.303 22.9725C64.2569 22.8127 60.6722 21.9175 60.3765 19.4877C60.3405 19.172 59.9089 19.204 59.809 19.4517C58.7579 22.0094 55.9205 23.2603 53.271 22.9965C52.8713 22.9605 52.8713 23.548 53.239 23.588C55.8526 23.8477 58.5661 22.7208 59.9369 20.4868C59.8783 21.5338 59.825 22.5836 59.777 23.6359C59.7199 23.6712 59.6762 23.7247 59.6531 23.7878C58.6061 26.4973 56.0564 28.5594 53.0592 28.3156C52.9807 28.3109 52.9036 28.3375 52.8448 28.3895C52.7859 28.4416 52.7502 28.515 52.7454 28.5934C52.7407 28.6718 52.7673 28.7489 52.8193 28.8078C52.8714 28.8666 52.9448 28.9023 53.0232 28.9071C55.8766 29.1389 58.3663 27.4484 59.7091 25.0466C59.6531 26.4134 59.6132 27.7801 59.5692 29.1469C57.7948 31.5767 55.7727 33.5828 52.6475 34.0264C52.2479 34.0824 52.3918 34.6578 52.7714 34.6059C55.7367 34.1863 57.7868 32.4039 59.5332 30.1739C59.4853 31.9217 59.448 33.6668 59.4213 35.4092C57.9507 38.0987 55.2052 40.7403 51.9562 40.5884C51.8777 40.5837 51.8006 40.6102 51.7418 40.6623C51.683 40.7144 51.6472 40.7877 51.6425 40.8662C51.6377 40.9446 51.6643 41.0217 51.7164 41.0806C51.7684 41.1394 51.8418 41.1751 51.9202 41.1799C55.0413 41.3238 57.7469 39.1457 59.4054 36.6041C59.4054 36.684 59.4054 36.7599 59.4054 36.8399C59.3294 42.2149 59.6132 47.594 59.4293 52.9691C59.4293 53.2928 59.9289 53.4207 60.0008 53.085C60.0027 53.0584 60.0027 53.0317 60.0008 53.0051C60.0008 53.0051 60.0008 52.9731 60.0008 52.9571C60.0413 52.6793 60.0574 52.3985 60.0488 52.1179C60.05 52.0749 60.0404 52.0323 60.0208 51.994C60.1407 47.1384 59.9329 42.2829 59.9728 37.4273C61.0279 39.3735 63.4656 40.6564 65.3279 41.5635C65.6716 41.7274 65.8555 41.1639 65.5198 41C63.3378 39.941 60.0328 38.2386 60.0408 35.4371C60.0392 35.391 60.0269 35.3458 60.0048 35.3053C60.0341 33.5069 60.0754 31.7099 60.1287 29.9142C60.7488 31.0203 61.6434 31.9479 62.7263 32.6077C63.322 32.9736 63.961 33.2635 64.6286 33.4709C65.1841 33.6588 66.7027 33.9105 66.9465 34.51C67.0903 34.8657 67.6178 34.5939 67.474 34.2422Z" fill="white"/>
<path d="M102.57 124.46C102.17 123.461 100.308 123.169 99.4288 122.885C97.003 122.086 95.0568 120.515 94.0737 118.125C94.061 118.093 94.0422 118.064 94.0182 118.039C93.9942 118.015 93.9655 117.995 93.9338 117.982C93.9817 116.623 94.0177 115.264 94.0776 113.909C95.1323 115.475 96.7625 116.561 98.6135 116.931C99.3169 117.066 102.906 117.846 102.97 116.491C102.967 116.403 102.931 116.32 102.87 116.257C102.808 116.194 102.726 116.156 102.638 116.151C102.55 116.146 102.464 116.174 102.396 116.23C102.328 116.285 102.283 116.364 102.27 116.451C102.27 116.703 98.9532 116.283 98.6535 116.235C97.6557 116.03 96.7232 115.584 95.9369 114.936C95.1507 114.288 94.5344 113.459 94.1416 112.519C94.1922 111.354 94.2495 110.191 94.3134 109.03C95.8201 110.892 99.0251 111.671 101.143 111.827C101.231 111.824 101.314 111.789 101.377 111.727C101.44 111.666 101.478 111.583 101.483 111.496C101.488 111.408 101.46 111.322 101.404 111.254C101.349 111.186 101.27 111.141 101.183 111.128C98.7654 110.94 94.5292 109.885 94.1776 107.008C94.1336 106.64 93.6261 106.676 93.5062 106.968C92.2633 109.989 88.9144 111.472 85.7812 111.16C85.3336 111.116 85.2937 111.811 85.7413 111.855C88.8304 112.163 92.0395 110.832 93.654 108.191C93.5861 109.429 93.5262 110.672 93.4662 111.911C93.4002 111.954 93.3498 112.017 93.3223 112.091C92.0835 115.288 89.0662 117.73 85.5295 117.442C85.4417 117.445 85.3582 117.481 85.2954 117.542C85.2326 117.603 85.195 117.686 85.19 117.774C85.185 117.861 85.2129 117.947 85.2684 118.016C85.3238 118.084 85.4027 118.129 85.4895 118.141C88.8584 118.413 91.8037 116.419 93.3903 113.582C93.3223 115.18 93.2744 116.811 93.2224 118.425C91.1243 121.299 88.7345 123.672 85.0419 124.192C84.5943 124.256 84.7422 124.939 85.1858 124.875C88.6946 124.38 91.1204 122.278 93.1785 119.64C93.1185 121.702 93.0786 123.764 93.0426 125.826C91.3042 129.023 88.0671 132.129 84.2067 131.949C84.1145 131.944 84.0239 131.975 83.955 132.037C83.886 132.098 83.8443 132.184 83.839 132.277C83.8337 132.369 83.8653 132.459 83.9267 132.528C83.9882 132.597 84.0745 132.639 84.1667 132.644C87.8553 132.816 91.0524 130.246 93.0106 127.241C93.0106 127.333 93.0106 127.425 93.0106 127.517C92.9227 133.871 93.2584 140.225 93.0346 146.579C93.0346 146.959 93.6301 147.111 93.714 146.715C93.714 146.679 93.714 146.651 93.714 146.623C93.7179 146.604 93.7179 146.583 93.714 146.563C93.7645 146.237 93.7846 145.907 93.7739 145.576C93.7742 145.524 93.7633 145.472 93.742 145.425C93.8818 139.686 93.6381 133.947 93.686 128.208C94.9289 130.51 97.8142 132.029 100.012 133.096C100.412 133.296 100.64 132.628 100.24 132.436C97.6624 131.186 93.7539 129.171 93.7659 125.858C93.7641 125.803 93.7475 125.749 93.718 125.703C93.7579 123.571 93.8086 121.448 93.8698 119.332C94.6011 120.644 95.6582 121.745 96.939 122.529C97.643 122.961 98.3973 123.305 99.185 123.552C99.8404 123.768 101.639 124.068 101.926 124.775C102.114 125.191 102.738 124.871 102.57 124.46Z" fill="white"/>
<path d="M68.6369 91.27C68.4414 90.9945 68.1825 90.7701 67.882 90.6157C67.5815 90.4613 67.2483 90.3814 66.9105 90.3829L67.0264 90.5347L53.6026 89.7354C55.2012 87.993 56.8264 86.1081 58.4782 84.0806C60.1258 82.0404 61.6409 79.8967 63.014 77.6625C64.3603 75.4699 65.5309 73.1741 66.5148 70.7968C67.4421 68.5536 68.0566 66.1937 68.3412 63.7832C68.5754 61.7418 68.3008 59.6742 67.5419 57.7647C66.8218 55.875 65.7199 54.154 64.3049 52.7093C63.3969 51.2411 62.1066 50.0475 60.5723 49.2565C59.019 48.4572 57.1807 48.324 55.0573 48.8568C54.6567 48.9542 54.2819 49.1368 53.9583 49.3923L53.3269 49.5122C52.9486 49.597 52.5971 49.7741 52.3038 50.0277C51.9428 50.2058 51.5931 50.406 51.2568 50.6272C50.1195 51.3405 49.1236 52.2577 48.3195 53.3327C47.1206 54.9992 47.2764 57.7287 47.2764 59.6709C47.2645 59.8185 47.2959 59.9664 47.3669 60.0963C47.4379 60.2263 47.5454 60.3326 47.6761 60.4023C48.1756 60.9538 49.3026 60.8698 49.4065 59.9187C49.4065 59.8308 49.4345 59.7429 49.4464 59.6549C49.5435 59.5651 49.6211 59.4563 49.6742 59.3352C50.0219 58.536 50.3976 57.6887 50.8292 56.8615C51.693 55.7193 52.8369 54.8191 54.1501 54.2479C54.5065 54.2832 54.8664 54.2479 55.2092 54.144C56.0996 53.862 57.0585 53.8845 57.9347 54.2079C58.8215 54.5504 59.6144 55.0982 60.2486 55.8065C60.7608 56.9871 60.9946 58.2696 60.9319 59.555C60.9239 60.8166 60.719 62.0693 60.3245 63.2676C59.7959 64.797 59.1575 66.2862 58.4142 67.7236C57.6709 69.1702 56.9303 70.5956 56.1923 71.9997C54.5218 75.1967 52.7408 78.3032 50.8492 81.3191C48.9576 84.335 46.9594 87.3203 44.8546 90.275C44.5805 90.6322 44.4154 91.061 44.3791 91.5098C44.3375 91.9456 44.3935 92.3852 44.5429 92.7966C44.6915 93.2005 44.9356 93.5625 45.2543 93.8517C45.5946 94.1548 46.0335 94.3238 46.4891 94.3272L66.2351 95.3863C66.5822 95.437 66.9363 95.4032 67.2675 95.2877C67.5987 95.1722 67.8971 94.9785 68.1374 94.7229C68.5699 94.2494 68.8486 93.6557 68.9366 93.0204C69.0576 92.42 68.9507 91.796 68.6369 91.27Z" fill="#303030"/>
<path d="M126.556 111.188C126.52 108.738 122.719 108.738 122.759 111.188C122.811 114.681 123.735 118.401 122.827 121.834C122.2 124.204 125.861 125.211 126.488 122.845C127.487 119.017 126.616 115.068 126.556 111.188Z" fill="#303030"/>
<path d="M131.827 116.703C127.817 117.759 123.627 117.937 119.542 117.226C117.208 116.827 111.422 115.708 110.407 113.098C109.787 111.5 110.483 107.851 110.674 106.045C111.01 102.847 112.217 99.5185 113.212 96.4533C115.21 90.3229 117.772 84.3924 120.326 78.4698C121.213 76.4197 123.894 69.0264 126.98 69.9416C130.281 70.9207 132.079 79.6167 132.778 82.2383C134.549 88.8643 137.342 95.0866 138.485 101.88C138.885 104.15 140.483 109.573 139.612 111.899C138.733 114.293 134.069 116.083 131.827 116.703Z" fill="#BAD9E4"/>
<path d="M114.911 107.991C115.014 107.391 114.111 107.136 113.995 107.739C113.828 109.092 113.908 110.463 114.231 111.787C114.351 112.387 115.266 112.131 115.15 111.536C114.856 110.378 114.774 109.177 114.911 107.991Z" fill="white"/>
<path d="M119.215 108.434C118.997 109.33 118.912 110.252 118.963 111.172C118.974 111.29 119.028 111.4 119.116 111.48C119.204 111.56 119.318 111.604 119.436 111.604C119.555 111.604 119.669 111.56 119.757 111.48C119.845 111.4 119.899 111.29 119.91 111.172C119.86 110.337 119.936 109.499 120.134 108.686C120.294 108.115 119.394 107.867 119.215 108.434Z" fill="white"/>
<path d="M121.812 97.6442C121.784 98.4897 121.629 99.3263 121.353 100.126C121.161 100.713 122.08 100.961 122.268 100.382C122.567 99.4986 122.732 98.576 122.759 97.6442C122.749 97.5261 122.694 97.4163 122.606 97.3364C122.519 97.2565 122.404 97.2122 122.286 97.2122C122.167 97.2122 122.053 97.2565 121.965 97.3364C121.878 97.4163 121.823 97.5261 121.812 97.6442Z" fill="white"/>
<path d="M117.54 100.745C117.556 101.343 117.482 101.94 117.32 102.516C117.137 103.103 118.056 103.355 118.236 102.772C118.419 102.112 118.504 101.429 118.487 100.745C118.476 100.627 118.422 100.518 118.334 100.438C118.247 100.358 118.132 100.313 118.014 100.313C117.895 100.313 117.781 100.358 117.693 100.438C117.606 100.518 117.551 100.627 117.54 100.745Z" fill="white"/>
<path d="M119.454 90.179C119.211 91.306 118.747 92.369 118.503 93.5C118.375 94.0955 119.303 94.3512 119.423 93.7518C119.662 92.6208 120.126 91.5578 120.37 90.4308C120.498 89.8314 119.582 89.5796 119.454 90.179Z" fill="white"/>
<path d="M128.202 98.959C128.023 98.3755 127.103 98.6233 127.287 99.2107C127.47 99.9445 127.544 100.701 127.507 101.457C127.518 101.575 127.573 101.685 127.66 101.764C127.748 101.844 127.862 101.889 127.981 101.889C128.099 101.889 128.214 101.844 128.301 101.764C128.389 101.685 128.443 101.575 128.454 101.457C128.493 100.616 128.408 99.7748 128.202 98.959Z" fill="white"/>
<path d="M127.963 84.9558C127.827 84.3604 126.912 84.6121 127.047 85.2076C127.263 86.1397 127.263 87.1089 127.047 88.041C126.912 88.6365 127.847 88.8922 127.963 88.2928C128.214 87.1947 128.214 86.0539 127.963 84.9558Z" fill="white"/>
<path d="M126.556 75.3525V79.6246C126.556 79.7507 126.606 79.8717 126.695 79.9609C126.784 80.0501 126.905 80.1002 127.031 80.1002C127.158 80.1002 127.279 80.0501 127.368 79.9609C127.457 79.8717 127.507 79.7507 127.507 79.6246V75.3525C127.507 75.2264 127.457 75.1054 127.368 75.0162C127.279 74.9271 127.158 74.877 127.031 74.877C126.905 74.877 126.784 74.9271 126.695 75.0162C126.606 75.1054 126.556 75.2264 126.556 75.3525Z" fill="white"/>
<path d="M124.893 90.5427V92.9125C124.893 93.0387 124.944 93.1596 125.033 93.2488C125.122 93.338 125.243 93.3881 125.369 93.3881C125.495 93.3881 125.616 93.338 125.705 93.2488C125.795 93.1596 125.845 93.0387 125.845 92.9125V90.5427C125.845 90.4166 125.795 90.2956 125.705 90.2064C125.616 90.1172 125.495 90.0671 125.369 90.0671C125.243 90.0671 125.122 90.1172 125.033 90.2064C124.944 90.2956 124.893 90.4166 124.893 90.5427Z" fill="white"/>
<path d="M125.369 111.659V114.029C125.369 114.155 125.419 114.276 125.508 114.365C125.597 114.455 125.718 114.505 125.845 114.505C125.971 114.505 126.092 114.455 126.181 114.365C126.27 114.276 126.32 114.155 126.32 114.029V111.655C126.32 111.529 126.269 111.408 126.179 111.32C126.09 111.231 125.969 111.181 125.843 111.182C125.716 111.182 125.596 111.233 125.507 111.322C125.418 111.412 125.368 111.533 125.369 111.659Z" fill="white"/>
<path d="M123.235 80.336C123.203 80.6597 123.027 80.9555 122.995 81.2872C122.939 81.8946 123.89 81.8906 123.946 81.2872C123.974 80.9635 124.154 80.6677 124.182 80.336C124.242 79.7286 123.291 79.7326 123.235 80.336Z" fill="white"/>
<path d="M131.304 94.3392V95.7619C131.314 95.88 131.369 95.9898 131.457 96.0697C131.544 96.1497 131.659 96.194 131.777 96.194C131.896 96.194 132.01 96.1497 132.098 96.0697C132.185 95.9898 132.24 95.88 132.251 95.7619V94.3392C132.24 94.2212 132.185 94.1114 132.098 94.0315C132.01 93.9515 131.896 93.9072 131.777 93.9072C131.659 93.9072 131.544 93.9515 131.457 94.0315C131.369 94.1114 131.314 94.2212 131.304 94.3392Z" fill="white"/>
<path d="M136.279 102.879C136.279 102.753 136.229 102.632 136.14 102.543C136.051 102.454 135.93 102.404 135.804 102.404C135.677 102.404 135.556 102.454 135.467 102.543C135.378 102.632 135.328 102.753 135.328 102.879C135.287 104.271 135.373 105.663 135.584 107.04C135.692 107.643 136.607 107.387 136.499 106.788C136.308 105.494 136.234 104.186 136.279 102.879Z" fill="white"/>
<path d="M129.625 106.312C129.485 105.717 128.57 105.969 128.71 106.568C128.893 107.543 128.967 108.534 128.93 109.525C128.941 109.643 128.995 109.753 129.083 109.833C129.17 109.913 129.285 109.957 129.403 109.957C129.522 109.957 129.636 109.913 129.724 109.833C129.811 109.753 129.866 109.643 129.877 109.525C129.915 108.448 129.831 107.37 129.625 106.312Z" fill="white"/>
<path d="M124.438 106.788C124.309 107.134 124.223 107.495 124.182 107.863C124.142 108.474 125.093 108.47 125.133 107.863C125.172 107.58 125.246 107.304 125.353 107.04C125.545 106.456 124.63 106.208 124.438 106.788Z" fill="white"/>
<path d="M133.186 110.349C132.954 109.789 132.035 110.033 132.267 110.6C132.498 111.168 132.267 111.799 132.267 112.371C132.267 112.497 132.317 112.618 132.406 112.707C132.495 112.796 132.616 112.846 132.742 112.846C132.868 112.846 132.989 112.796 133.079 112.707C133.168 112.618 133.218 112.497 133.218 112.371C133.218 111.707 133.45 110.992 133.186 110.349Z" fill="white"/>
<path d="M92.8068 66.3608C94.2315 66.3993 95.6444 66.6305 97.007 67.0481C98.3847 67.4918 99.6047 68.3245 100.52 69.4459C101.325 70.4462 102.039 71.5161 102.654 72.643C103.298 73.8322 103.833 75.0775 104.252 76.3636C104.686 77.6476 104.976 78.9759 105.116 80.324C105.254 81.6107 105.208 82.9106 104.98 84.1845C104.38 87.1151 103.181 89.4796 101.383 91.278C99.6276 93.0656 97.4832 94.4237 95.1167 95.2464C92.6316 96.0833 90.0216 96.4888 87.3998 96.4453C84.7805 96.441 82.1738 96.0821 79.6508 95.3782C79.3101 95.3032 78.992 95.1486 78.7225 94.927C78.4529 94.7054 78.2397 94.4232 78.1003 94.1034C77.8503 93.5163 77.8011 92.863 77.9604 92.2451C78.1273 91.6199 78.5058 91.0719 79.0314 90.6945C79.3168 90.4893 79.648 90.3569 79.9963 90.3088C80.3445 90.2608 80.6992 90.2985 81.0296 90.4188C82.1756 90.7757 83.3512 91.0298 84.5424 91.1781C86.575 90.7317 88.5037 89.9016 90.2252 88.7323C91.9529 87.5517 93.3229 85.919 94.1856 84.0126C94.8053 82.8872 95.0894 81.6077 95.0044 80.3257C94.9195 79.0438 94.4689 77.813 93.706 76.7792C92.9711 75.7686 92.0872 74.8753 91.0844 74.1297C90.0294 73.3304 88.9503 72.5751 87.8473 71.8877L87.4477 71.6799C87.08 71.7279 86.7364 71.7638 86.4167 71.7838C86.0969 71.8038 85.7732 71.8198 85.4495 71.8198C84.9414 71.8353 84.4434 71.6759 84.0388 71.3682C83.6486 71.0729 83.3394 70.6839 83.1397 70.2372C82.9369 69.7838 82.8662 69.2823 82.9358 68.7905C83.0058 68.2799 83.262 67.813 83.6552 67.4797C84.1148 67.1121 84.6143 66.7204 85.1378 66.3088C85.6613 65.8972 86.2328 65.4816 86.8283 65.0659C87.2111 64.211 87.4099 63.2851 87.4117 62.3484C87.4413 61.4626 87.4066 60.5757 87.3078 59.6949C87.2175 59.2604 87.0918 58.8341 86.9322 58.42C86.7179 57.8296 86.4642 57.2541 86.1729 56.6976C85.8873 56.1456 85.5284 55.6347 85.1059 55.179C84.9545 54.9919 84.7665 54.8377 84.5535 54.7257C84.3405 54.6137 84.1069 54.5463 83.867 54.5276C83.657 54.5351 83.447 54.5122 83.2436 54.4596C82.1459 54.7847 81.1242 55.1177 80.1784 55.4587C79.2326 55.7997 78.4866 56.0875 77.9404 56.3219C77.6264 56.4622 77.2827 56.5227 76.9398 56.4983C76.5968 56.4739 76.2651 56.3653 75.9742 56.1821C75.4593 55.8321 75.092 55.304 74.9431 54.6994C74.7827 54.0616 74.8189 53.3901 75.047 52.7732C75.1699 52.4346 75.3712 52.1298 75.6345 51.884C75.8977 51.6381 76.2155 51.458 76.5617 51.3585C77.5248 50.9908 78.6278 50.5912 79.8706 50.1596C81.1135 49.728 82.3963 49.3363 83.7271 48.9886C85.063 48.6444 86.421 48.392 87.7914 48.2333C89.0975 48.071 90.4201 48.0939 91.7198 48.3013C92.9188 48.4936 94.0663 48.9273 95.0927 49.5761C96.1698 50.2945 97.0284 51.2955 97.5745 52.4695C98.223 53.7266 98.5653 55.1192 98.5735 56.5337C98.5594 57.7774 98.3015 59.0061 97.8142 60.1504C97.3021 61.3243 96.6178 62.4153 95.7841 63.3875C94.9054 64.4228 93.9617 65.4013 92.9587 66.3168L92.8068 66.3608ZM93.2065 56.4418C93.1776 55.658 92.8434 54.9165 92.2753 54.3757C91.696 53.8928 90.9924 53.5826 90.2452 53.4805C91.1686 54.7679 91.846 56.2149 92.2433 57.7486C92.3367 58.0282 92.3958 58.318 92.4192 58.6118C92.4192 58.9116 92.4751 59.2193 92.5191 59.543C93.0071 58.5838 93.2475 57.5177 93.2184 56.4418H93.2065ZM98.7134 86.5463C99.3676 85.5103 99.8343 84.3672 100.092 83.1694C100.145 82.897 100.168 82.6196 100.16 82.3422L99.9523 83.3772C99.6564 84.4441 99.2645 85.4821 98.7814 86.4784L98.7134 86.5463Z" fill="#303030"/>
<path d="M32.2901 41.9471C32.2582 39.7811 28.9012 39.7811 28.9332 41.9471C28.9812 45.0323 29.7964 48.3413 28.9932 51.3625C28.4377 53.4566 31.6787 54.3438 32.2302 52.2537C33.1254 48.8888 32.3421 45.38 32.2901 41.9471Z" fill="#303030"/>
<path d="M36.9499 46.8226C33.4063 47.7581 29.7026 47.9176 26.0918 47.2902C24.0257 46.9425 18.8984 45.9514 18.0112 43.6415C17.4637 42.2308 18.0791 39.0018 18.247 37.4072C18.5467 34.5698 19.6137 31.6365 20.4929 28.939C22.2633 23.5 24.5252 18.2568 26.7792 13.0255C27.5784 11.2112 29.9323 4.67317 32.6578 5.48043C35.5711 6.34764 37.1697 14.0406 37.7931 16.3545C39.3557 22.2131 41.8254 27.7081 42.8365 33.7226C43.1762 35.7208 44.5949 40.5164 43.8356 42.5785C43.0563 44.6926 38.9321 46.2751 36.9499 46.8226Z" fill="#BAD9E4"/>
<path d="M21.9836 39.1217C22.0755 38.5902 21.2642 38.3664 21.1843 38.8979C21.0328 40.0996 21.1046 41.319 21.3961 42.4946C21.5 43.0261 22.3073 42.7983 22.1954 42.2708C21.9339 41.2427 21.8621 40.1756 21.9836 39.1217Z" fill="white"/>
<path d="M25.8001 39.5253C25.6079 40.3174 25.5325 41.1332 25.5763 41.9471C25.5763 42.0584 25.6205 42.1651 25.6992 42.2438C25.7779 42.3225 25.8846 42.3667 25.9959 42.3667C26.1072 42.3667 26.2139 42.3225 26.2926 42.2438C26.3713 42.1651 26.4155 42.0584 26.4155 41.9471C26.3723 41.2088 26.4383 40.4681 26.6113 39.7491C26.641 39.6415 26.6267 39.5266 26.5716 39.4295C26.5165 39.3325 26.4252 39.2613 26.3176 39.2316C26.21 39.2019 26.095 39.2162 25.998 39.2713C25.9009 39.3264 25.8297 39.4177 25.8001 39.5253Z" fill="white"/>
<path d="M28.094 29.986C28.0713 30.7345 27.9366 31.4754 27.6943 32.184C27.5265 32.6995 28.3378 32.9193 28.4936 32.4078C28.7595 31.627 28.9064 30.8106 28.9292 29.986C28.9191 29.8823 28.8707 29.7861 28.7935 29.7161C28.7163 29.6461 28.6158 29.6073 28.5116 29.6073C28.4074 29.6073 28.3069 29.6461 28.2297 29.7161C28.1525 29.7861 28.1041 29.8823 28.094 29.986Z" fill="white"/>
<path d="M24.3174 32.7155C24.3323 33.2446 24.2663 33.7729 24.1216 34.2821C24.1091 34.3818 24.1328 34.4828 24.1885 34.5665C24.2441 34.6502 24.328 34.7112 24.4248 34.7383C24.5216 34.7654 24.625 34.7569 24.716 34.7142C24.807 34.6716 24.8797 34.5976 24.9209 34.5059C25.0848 33.9237 25.1603 33.3202 25.1447 32.7155C25.128 32.6179 25.0773 32.5293 25.0016 32.4655C24.9259 32.4016 24.8301 32.3666 24.731 32.3666C24.632 32.3666 24.5362 32.4016 24.4605 32.4655C24.3848 32.5293 24.3341 32.6179 24.3174 32.7155Z" fill="white"/>
<path d="M26.0119 23.3721C25.7961 24.3712 25.3885 25.3103 25.1726 26.3094C25.0568 26.8369 25.868 27.0607 25.9719 26.5332C26.1877 25.5341 26.5953 24.591 26.8112 23.5959C26.935 23.0684 26.1238 22.8406 26.0119 23.3721Z" fill="white"/>
<path d="M33.7448 31.1329C33.585 30.6174 32.7737 30.8372 32.9455 31.3567C33.1118 32.009 33.1778 32.6828 33.1414 33.3549C33.1414 33.4662 33.1856 33.5729 33.2643 33.6516C33.343 33.7303 33.4497 33.7745 33.561 33.7745C33.6723 33.7745 33.779 33.7303 33.8577 33.6516C33.9364 33.5729 33.9806 33.4662 33.9806 33.3549C34.0137 32.6066 33.9342 31.8576 33.7448 31.1329Z" fill="white"/>
<path d="M33.533 18.7564C33.4131 18.2288 32.6058 18.4526 32.7337 18.9802C32.9216 19.8035 32.9216 20.6585 32.7337 21.4819C32.6138 22.0094 33.4211 22.2332 33.533 21.7057C33.7568 20.7353 33.7568 19.7267 33.533 18.7564Z" fill="white"/>
<path d="M32.2901 10.2641V14.0406C32.2901 14.1519 32.3343 14.2587 32.413 14.3374C32.4917 14.4161 32.5985 14.4603 32.7097 14.4603C32.821 14.4603 32.9278 14.4161 33.0065 14.3374C33.0852 14.2587 33.1294 14.1519 33.1294 14.0406V10.2641C33.1294 10.1528 33.0852 10.0461 33.0065 9.96739C32.9278 9.88869 32.821 9.84448 32.7097 9.84448C32.5985 9.84448 32.4917 9.88869 32.413 9.96739C32.3343 10.0461 32.2901 10.1528 32.2901 10.2641Z" fill="white"/>
<path d="M30.8235 23.7119V25.79C30.8235 25.9012 30.8677 26.008 30.9464 26.0867C31.0251 26.1654 31.1318 26.2096 31.2431 26.2096C31.3544 26.2096 31.4611 26.1654 31.5398 26.0867C31.6185 26.008 31.6627 25.9012 31.6627 25.79V23.7119C31.6627 23.6006 31.6185 23.4938 31.5398 23.4151C31.4611 23.3364 31.3544 23.2922 31.2431 23.2922C31.1318 23.2922 31.0251 23.3364 30.9464 23.4151C30.8677 23.4938 30.8235 23.6006 30.8235 23.7119Z" fill="white"/>
<path d="M31.2431 42.3668V44.4648C31.2431 44.5761 31.2873 44.6829 31.366 44.7616C31.4447 44.8402 31.5514 44.8845 31.6627 44.8845C31.774 44.8845 31.8807 44.8402 31.9594 44.7616C32.0381 44.6829 32.0823 44.5761 32.0823 44.4648V42.3668C32.0823 42.2555 32.0381 42.1487 31.9594 42.07C31.8807 41.9914 31.774 41.9471 31.6627 41.9471C31.5514 41.9471 31.4447 41.9914 31.366 42.07C31.2873 42.1487 31.2431 42.2555 31.2431 42.3668Z" fill="white"/>
<path d="M29.3528 14.672C29.3249 14.9558 29.169 15.2195 29.145 15.5113C29.0931 16.0508 29.9443 16.0428 29.9843 15.5113C30.0082 15.2235 30.1641 14.9638 30.1921 14.672C30.244 14.1205 29.4048 14.1205 29.3528 14.672Z" fill="white"/>
<path d="M36.4863 27.0488V28.3076C36.4863 28.4189 36.5305 28.5256 36.6092 28.6043C36.6879 28.683 36.7946 28.7272 36.9059 28.7272C37.0172 28.7272 37.1239 28.683 37.2026 28.6043C37.2813 28.5256 37.3255 28.4189 37.3255 28.3076V27.0488C37.3255 26.9375 37.2813 26.8307 37.2026 26.7521C37.1239 26.6734 37.0172 26.6292 36.9059 26.6292C36.7946 26.6292 36.6879 26.6734 36.6092 26.7521C36.5305 26.8307 36.4863 26.9375 36.4863 27.0488Z" fill="white"/>
<path d="M40.8942 34.6019C40.8942 34.4906 40.85 34.3838 40.7713 34.3052C40.6927 34.2265 40.5859 34.1823 40.4746 34.1823C40.3633 34.1823 40.2566 34.2265 40.1779 34.3052C40.0992 34.3838 40.055 34.4906 40.055 34.6019C40.0175 35.833 40.0924 37.065 40.2788 38.2825C40.3747 38.814 41.186 38.5862 41.0781 38.0587C40.9129 36.9143 40.8514 35.7573 40.8942 34.6019Z" fill="white"/>
<path d="M35.0037 37.6391C34.8798 37.1115 34.0725 37.3353 34.2044 37.8629C34.3617 38.7313 34.418 39.615 34.3722 40.4964C34.3722 40.6077 34.4164 40.7145 34.4951 40.7932C34.5738 40.8718 34.6806 40.9161 34.7919 40.9161C34.9031 40.9161 35.0099 40.8718 35.0886 40.7932C35.1673 40.7145 35.2115 40.6077 35.2115 40.4964C35.2499 39.5392 35.1802 38.5807 35.0037 37.6391Z" fill="white"/>
<path d="M30.4158 38.0586C30.3033 38.3655 30.2282 38.6849 30.192 39.0098C30.1561 39.5493 30.9913 39.5453 31.0313 39.0098C31.0664 38.7602 31.1321 38.5159 31.2271 38.2824C31.3949 37.7669 30.5877 37.5471 30.4158 38.0586Z" fill="white"/>
<path d="M38.1488 41.2038C37.945 40.7122 37.1337 40.928 37.3495 41.4276C37.5653 41.9271 37.3495 42.4906 37.3495 42.9941C37.3495 43.4977 38.1728 43.5336 38.1888 42.9941C38.2047 42.4546 38.3686 41.7712 38.1488 41.2038Z" fill="white"/>
<path d="M122.755 25.554C122.727 23.6518 119.77 23.6478 119.802 25.554C119.842 28.2716 120.561 31.1489 119.854 33.8425C119.367 35.6848 122.216 36.4681 122.703 34.6417C123.491 31.6485 122.799 28.5753 122.755 25.554Z" fill="#303030"/>
<path d="M132.914 26.1096C132.227 27.9719 128.602 29.3666 126.856 29.8422C125.613 30.184 124.34 30.4061 123.055 30.5056C122.089 30.5861 121.118 30.6008 120.15 30.5495C119.193 30.5072 118.24 30.4057 117.296 30.2458C115.482 29.9461 110.978 29.0709 110.187 27.0487C109.703 25.7979 110.247 22.9605 110.399 21.5618C110.658 19.06 111.598 16.4744 112.369 14.1086C113.84 9.62468 115.678 5.28065 117.564 0.948608H127.087C127.311 1.81182 127.487 2.54715 127.615 3.04669C128.99 8.19798 131.164 13.0376 132.055 18.3287C132.335 20.0831 133.585 24.3073 132.914 26.1096Z" fill="#BAD9E4"/>
<path d="M113.692 23.0684C113.772 22.6008 113.06 22.401 112.98 22.8726C112.85 23.9248 112.912 24.9919 113.164 26.0217C113.26 26.4893 113.963 26.2895 113.88 25.8259C113.65 24.9258 113.586 23.9914 113.692 23.0684Z" fill="white"/>
<path d="M117.045 23.4241C116.872 24.1202 116.805 24.8382 116.845 25.5542C116.854 25.6456 116.897 25.7303 116.966 25.7918C117.034 25.8533 117.123 25.8874 117.214 25.8874C117.306 25.8874 117.395 25.8533 117.463 25.7918C117.532 25.7303 117.575 25.6456 117.584 25.5542C117.545 24.9045 117.603 24.2526 117.756 23.62C117.896 23.1644 117.18 22.9686 117.045 23.4241Z" fill="white"/>
<path d="M119.063 15.0278C119.041 15.6866 118.921 16.3384 118.707 16.962C118.559 17.4176 119.271 17.6094 119.418 17.1579C119.657 16.4716 119.791 15.7537 119.818 15.0278C119.818 14.9276 119.778 14.8316 119.707 14.7608C119.637 14.6899 119.541 14.6501 119.44 14.6501C119.34 14.6501 119.244 14.6899 119.173 14.7608C119.103 14.8316 119.063 14.9276 119.063 15.0278Z" fill="white"/>
<path d="M115.738 17.4295C115.751 17.8951 115.693 18.36 115.566 18.8082C115.426 19.2638 116.141 19.4596 116.281 19.004C116.424 18.4918 116.49 17.9611 116.477 17.4295C116.468 17.3381 116.425 17.2534 116.356 17.1919C116.288 17.1304 116.199 17.0963 116.108 17.0963C116.016 17.0963 115.927 17.1304 115.859 17.1919C115.79 17.2534 115.747 17.3381 115.738 17.4295Z" fill="white"/>
<path d="M117.228 9.20509C117.041 10.0843 116.681 10.9115 116.489 11.7907C116.389 12.2543 117.101 12.4541 117.2 11.9865C117.392 11.1074 117.752 10.2801 117.94 9.40091C118.04 8.92535 117.328 8.73752 117.228 9.20509Z" fill="white"/>
<path d="M124.034 16.0389C123.894 15.5833 123.183 15.7791 123.323 16.2347C123.468 16.8049 123.526 17.3936 123.495 17.9811C123.504 18.0725 123.547 18.1572 123.616 18.2187C123.684 18.2802 123.772 18.3143 123.864 18.3143C123.956 18.3143 124.045 18.2802 124.113 18.2187C124.181 18.1572 124.225 18.0725 124.234 17.9811C124.264 17.3274 124.196 16.6729 124.034 16.0389Z" fill="white"/>
<path d="M123.85 5.1407C123.743 4.67713 123.051 4.87295 123.139 5.33652C123.307 6.06227 123.307 6.81676 123.139 7.54251C123.031 8.00608 123.743 8.2019 123.85 7.73833C124.046 6.88353 124.046 5.9955 123.85 5.1407Z" fill="white"/>
<path d="M123.491 0.932617V0.992562C123.481 1.08398 123.438 1.16862 123.37 1.23015C123.302 1.29168 123.213 1.32573 123.121 1.32573C123.029 1.32573 122.941 1.29168 122.872 1.23015C122.804 1.16862 122.761 1.08398 122.751 0.992562V0.932617H123.491Z" fill="white"/>
<path d="M121.465 9.48876V11.3231C121.465 11.4206 121.503 11.5141 121.572 11.5831C121.641 11.652 121.735 11.6907 121.832 11.6907C121.93 11.6907 122.023 11.652 122.092 11.5831C122.161 11.5141 122.2 11.4206 122.2 11.3231V9.48876C122.2 9.39125 122.161 9.29773 122.092 9.22878C122.023 9.15983 121.93 9.12109 121.832 9.12109C121.735 9.12109 121.641 9.15983 121.572 9.22878C121.503 9.29773 121.465 9.39125 121.465 9.48876Z" fill="white"/>
<path d="M121.832 25.9218V27.7681C121.842 27.8595 121.885 27.9442 121.953 28.0057C122.021 28.0672 122.11 28.1013 122.202 28.1013C122.294 28.1013 122.382 28.0672 122.451 28.0057C122.519 27.9442 122.562 27.8595 122.572 27.7681V25.9218C122.562 25.8304 122.519 25.7457 122.451 25.6842C122.382 25.6227 122.294 25.5886 122.202 25.5886C122.11 25.5886 122.021 25.6227 121.953 25.6842C121.885 25.7457 121.842 25.8304 121.832 25.9218Z" fill="white"/>
<path d="M120.17 1.54805C120.146 1.79982 120.01 2.02761 119.986 2.28737C119.942 2.75894 120.681 2.75494 120.725 2.28737C120.749 2.0356 120.885 1.80381 120.909 1.54805C120.953 1.07248 120.214 1.07648 120.17 1.54805Z" fill="white"/>
<path d="M126.448 12.4421V13.549C126.458 13.6405 126.501 13.7251 126.569 13.7866C126.637 13.8482 126.726 13.8822 126.818 13.8822C126.91 13.8822 126.998 13.8482 127.066 13.7866C127.135 13.7251 127.178 13.6405 127.187 13.549V12.4421C127.178 12.3506 127.135 12.266 127.066 12.2045C126.998 12.1429 126.91 12.1089 126.818 12.1089C126.726 12.1089 126.637 12.1429 126.569 12.2045C126.501 12.266 126.458 12.3506 126.448 12.4421Z" fill="white"/>
<path d="M130.328 19.092C130.319 19.0005 130.276 18.9159 130.208 18.8544C130.139 18.7928 130.051 18.7588 129.959 18.7588C129.867 18.7588 129.778 18.7928 129.71 18.8544C129.642 18.9159 129.599 19.0005 129.589 19.092C129.556 20.1747 129.622 21.2581 129.785 22.329C129.873 22.7966 130.584 22.5968 130.5 22.1332C130.351 21.1267 130.294 20.1088 130.328 19.092Z" fill="white"/>
<path d="M125.141 21.7616C125.037 21.298 124.322 21.4938 124.43 21.9574C124.575 22.7169 124.633 23.4906 124.602 24.2633C124.611 24.3547 124.654 24.4393 124.723 24.5009C124.791 24.5624 124.879 24.5964 124.971 24.5964C125.063 24.5964 125.152 24.5624 125.22 24.5009C125.288 24.4393 125.332 24.3547 125.341 24.2633C125.371 23.4245 125.304 22.585 125.141 21.7616Z" fill="white"/>
<path d="M121.093 22.1332C120.994 22.4026 120.928 22.6831 120.897 22.9685C120.865 23.444 121.604 23.44 121.636 22.9685C121.666 22.7488 121.724 22.5339 121.808 22.329C121.968 21.8735 121.257 21.6816 121.093 22.1332Z" fill="white"/>
<path d="M127.915 24.9107C127.731 24.4751 127.02 24.6669 127.199 25.1065C127.379 25.5461 127.199 26.0417 127.199 26.4853C127.209 26.5767 127.252 26.6613 127.32 26.7228C127.388 26.7844 127.477 26.8184 127.569 26.8184C127.661 26.8184 127.75 26.7844 127.818 26.7228C127.886 26.6613 127.929 26.5767 127.939 26.4853C127.943 25.9617 128.119 25.4022 127.915 24.9107Z" fill="white"/>
<path d="M15.5215 117.59C15.4855 115.424 12.1286 115.424 12.1645 117.59C12.2125 120.675 13.0277 123.984 12.2245 127.005C11.669 129.099 14.906 129.987 15.4615 127.897C16.3567 124.512 15.5894 121.023 15.5215 117.59Z" fill="#303030"/>
<path d="M27.0629 118.225C26.2636 120.331 22.1594 121.918 20.1812 122.462C18.7691 122.859 17.3204 123.114 15.8572 123.221C14.7604 123.308 13.6592 123.325 12.5602 123.273C11.4741 123.221 10.3919 123.106 9.31914 122.929C7.49982 122.645 5.71646 122.165 4 121.498L4 103.747C5.71843 98.6113 7.86846 93.6359 9.99452 88.6644C10.7938 86.8541 13.1476 80.316 15.8771 81.1193C18.7945 81.9945 20.389 89.6835 21.0045 91.9974C22.571 97.856 25.0408 103.359 26.0558 109.361C26.4075 111.368 27.8262 116.167 27.0629 118.225Z" fill="#BAD9E4"/>
<path d="M5.22686 114.761C5.31478 114.233 4.50752 114.005 4.4276 114.541C4.27481 115.742 4.34527 116.962 4.63541 118.137C4.74331 118.665 5.55057 118.441 5.43467 117.914C5.17234 116.884 5.1019 115.815 5.22686 114.761Z" fill="white"/>
<path d="M9.0314 115.168C8.83903 115.96 8.76364 116.776 8.8076 117.59C8.8076 117.701 8.85181 117.808 8.9305 117.887C9.0092 117.965 9.11593 118.01 9.22722 118.01C9.33851 118.01 9.44524 117.965 9.52393 117.887C9.60262 117.808 9.64683 117.701 9.64683 117.59C9.60166 116.852 9.66767 116.111 9.84265 115.392C9.87233 115.284 9.85806 115.169 9.80297 115.072C9.74789 114.975 9.6565 114.904 9.54892 114.874C9.44134 114.845 9.32638 114.859 9.22933 114.914C9.13227 114.969 9.06107 115.061 9.0314 115.168Z" fill="white"/>
<path d="M11.3253 105.637C11.3046 106.386 11.1698 107.127 10.9257 107.835C10.7578 108.35 11.5691 108.57 11.7249 108.059C11.9903 107.278 12.1385 106.461 12.1645 105.637C12.1645 105.526 12.1203 105.419 12.0416 105.34C11.9629 105.261 11.8562 105.217 11.7449 105.217C11.6336 105.217 11.5269 105.261 11.4482 105.34C11.3695 105.419 11.3253 105.526 11.3253 105.637Z" fill="white"/>
<path d="M7.54876 108.358C7.56367 108.887 7.49764 109.416 7.35294 109.925C7.19309 110.444 8.00434 110.664 8.15221 110.149C8.31419 109.566 8.38959 108.963 8.376 108.358C8.35932 108.261 8.30865 108.172 8.23296 108.108C8.15726 108.044 8.06142 108.009 7.96238 108.009C7.86335 108.009 7.7675 108.044 7.69181 108.108C7.61611 108.172 7.56544 108.261 7.54876 108.358Z" fill="white"/>
<path d="M9.23922 99.0149C9.02742 100.01 8.61579 100.953 8.39999 101.952C8.28809 102.48 9.09535 102.703 9.19926 102.172C9.41506 101.177 9.82269 100.234 10.0385 99.2387C10.1624 98.7071 9.35512 98.4833 9.23922 99.0149Z" fill="white"/>
<path d="M16.9761 106.776C16.8163 106.26 16.005 106.48 16.1769 107C16.3431 107.652 16.4091 108.326 16.3727 108.998C16.3727 109.109 16.4169 109.216 16.4956 109.294C16.5743 109.373 16.681 109.417 16.7923 109.417C16.9036 109.417 17.0103 109.373 17.089 109.294C17.1677 109.216 17.2119 109.109 17.2119 108.998C17.243 108.249 17.1635 107.501 16.9761 106.776Z" fill="white"/>
<path d="M16.7643 94.3991C16.6444 93.8716 15.8332 94.0953 15.9651 94.6189C16.1569 95.4431 16.1569 96.3004 15.9651 97.1246C15.8452 97.6521 16.6564 97.8759 16.7643 97.3484C16.9881 96.378 16.9881 95.3694 16.7643 94.3991Z" fill="white"/>
<path d="M15.5215 85.9069V89.6835C15.5215 89.7948 15.5657 89.9015 15.6444 89.9802C15.7231 90.0589 15.8298 90.1031 15.9411 90.1031C16.0524 90.1031 16.1591 90.0589 16.2378 89.9802C16.3165 89.9015 16.3607 89.7948 16.3607 89.6835V85.9069C16.3607 85.7956 16.3165 85.6889 16.2378 85.6102C16.1591 85.5315 16.0524 85.4873 15.9411 85.4873C15.8298 85.4873 15.7231 85.5315 15.6444 85.6102C15.5657 85.6889 15.5215 85.7956 15.5215 85.9069Z" fill="white"/>
<path d="M14.0508 99.3347V101.433C14.0508 101.544 14.095 101.651 14.1737 101.729C14.2524 101.808 14.3591 101.852 14.4704 101.852C14.5817 101.852 14.6884 101.808 14.7671 101.729C14.8458 101.651 14.89 101.544 14.89 101.433V99.3347C14.89 99.2234 14.8458 99.1166 14.7671 99.0379C14.6884 98.9592 14.5817 98.915 14.4704 98.915C14.3591 98.915 14.2524 98.9592 14.1737 99.0379C14.095 99.1166 14.0508 99.2234 14.0508 99.3347Z" fill="white"/>
<path d="M14.4704 118.026V120.124C14.4704 120.235 14.5146 120.342 14.5933 120.42C14.672 120.499 14.7788 120.543 14.89 120.543C15.0013 120.543 15.1081 120.499 15.1868 120.42C15.2655 120.342 15.3097 120.235 15.3097 120.124V118.026C15.3097 117.914 15.2655 117.808 15.1868 117.729C15.1081 117.65 15.0013 117.606 14.89 117.606C14.7788 117.606 14.672 117.65 14.5933 117.729C14.5146 117.808 14.4704 117.914 14.4704 118.026Z" fill="white"/>
<path d="M12.5842 90.3149C12.5562 90.5986 12.4003 90.8624 12.3724 91.1541C12.3244 91.6936 13.1716 91.6856 13.2116 91.1541C13.2396 90.8664 13.3954 90.6066 13.4234 90.3149C13.4753 89.7754 12.6321 89.7794 12.5842 90.3149Z" fill="white"/>
<path d="M19.7176 102.692V103.95C19.7176 104.062 19.7618 104.168 19.8405 104.247C19.9192 104.326 20.0259 104.37 20.1372 104.37C20.2485 104.37 20.3553 104.326 20.4339 104.247C20.5126 104.168 20.5569 104.062 20.5569 103.95V102.692C20.5569 102.636 20.546 102.582 20.5249 102.531C20.5038 102.48 20.4729 102.434 20.4339 102.395C20.395 102.356 20.3487 102.325 20.2978 102.304C20.2469 102.283 20.1923 102.272 20.1372 102.272C20.0821 102.272 20.0276 102.283 19.9767 102.304C19.9257 102.325 19.8795 102.356 19.8405 102.395C19.8016 102.434 19.7706 102.48 19.7496 102.531C19.7285 102.582 19.7176 102.636 19.7176 102.692Z" fill="white"/>
<path d="M24.1216 110.245C24.1216 110.133 24.0774 110.027 23.9987 109.948C23.92 109.869 23.8133 109.825 23.702 109.825C23.5907 109.825 23.4839 109.869 23.4053 109.948C23.3266 110.027 23.2824 110.133 23.2824 110.245C23.2468 111.476 23.3217 112.708 23.5061 113.925C23.6061 114.457 24.4133 114.229 24.3054 113.702C24.1403 112.557 24.0787 111.4 24.1216 110.245Z" fill="white"/>
<path d="M18.235 113.282C18.1111 112.754 17.3038 112.978 17.4357 113.502C17.5988 114.364 17.6644 115.242 17.6315 116.119C17.6315 116.231 17.6757 116.337 17.7544 116.416C17.8331 116.495 17.9399 116.539 18.0512 116.539C18.1624 116.539 18.2692 116.495 18.3479 116.416C18.4266 116.337 18.4708 116.231 18.4708 116.119C18.4985 115.168 18.4194 114.216 18.235 113.282Z" fill="white"/>
<path d="M13.6472 113.701C13.5328 114.008 13.4576 114.327 13.4234 114.653C13.3874 115.192 14.2226 115.188 14.2626 114.653C14.2977 114.403 14.3635 114.159 14.4584 113.925C14.6263 113.41 13.815 113.19 13.6472 113.701Z" fill="white"/>
<path d="M21.3801 116.847C21.1763 116.355 20.365 116.571 20.5808 117.07C20.7966 117.57 20.5808 118.133 20.5808 118.637C20.5808 119.141 21.4041 119.176 21.4201 118.637C21.4361 118.097 21.6159 117.414 21.3801 116.847Z" fill="white"/>
<path d="M94.5852 18.8323C94.3934 17.5175 94.5852 16.0788 94.7091 14.8359C94.7113 14.7679 94.6872 14.7017 94.6418 14.6511C94.5964 14.6004 94.5332 14.5693 94.4653 14.5642C94.1022 14.5434 93.7378 14.5608 93.3783 14.6161C93.3583 14.5522 93.2544 14.5242 93.2225 14.5921L93.1865 14.6601C92.9799 14.7118 92.7951 14.828 92.659 14.9918C92.4203 15.3539 92.2609 15.7625 92.1914 16.1907L89.7416 13.4612L79.2712 25.1345L79.447 41.0599H99.9123L100.588 25.5341L94.5852 18.8323Z" fill="white"/>
<path d="M92.647 27.7482H85.9331V35.1614H92.647V27.7482Z" fill="#A8B3B2"/>
<path d="M89.5698 26.3494H88.5907V37.1195H89.5698V26.3494Z" fill="white"/>
<path d="M93.9058 30.8253H84.1147V32.0842H93.9058V30.8253Z" fill="white"/>
<path d="M109.012 49.8479C107.929 49.8479 107.929 51.5264 109.012 51.5264C110.095 51.5264 110.095 49.8479 109.012 49.8479Z" fill="white"/>
<path d="M108.576 54.4517C107.825 54.8513 108.265 56.2021 109.232 55.9743C109.443 55.9262 109.637 55.8193 109.791 55.6658C109.944 55.5124 110.051 55.3187 110.099 55.1071C110.327 54.14 108.988 53.6844 108.576 54.4517Z" fill="white"/>
<path d="M112.789 51.5264C111.706 51.5264 111.706 53.2048 112.789 53.2048C113.872 53.2048 113.872 51.5264 112.789 51.5264Z" fill="white"/>
<path d="M114.547 48.2254C114.107 47.7018 113.044 47.8617 113.068 48.7289C113.063 48.8588 113.085 48.9884 113.133 49.1095C113.18 49.2306 113.252 49.3405 113.344 49.4325C113.436 49.5244 113.546 49.5964 113.667 49.6438C113.788 49.6912 113.917 49.7131 114.047 49.708C114.915 49.732 115.07 48.669 114.547 48.2254Z" fill="white"/>
<path d="M116.006 53.0649C114.923 53.0649 114.923 54.7434 116.006 54.7434C117.089 54.7434 117.097 53.0649 116.006 53.0649Z" fill="white"/>
<path d="M114.047 55.8624C112.964 55.8624 112.964 57.5409 114.047 57.5409C115.13 57.5409 115.13 55.8624 114.047 55.8624Z" fill="white"/>
<path d="M119.686 52.5255L119.606 52.6134C118.851 53.3847 120.034 54.5756 120.805 53.8123C121.045 53.6001 121.217 53.3222 121.301 53.0131C121.529 51.97 119.962 51.5264 119.686 52.5255Z" fill="white"/>
<path d="M116.145 59.2194C115.062 59.2194 115.062 60.8978 116.145 60.8978C117.228 60.8978 117.228 59.2194 116.145 59.2194Z" fill="white"/>
<path d="M110.91 58.9716C110.075 58.7198 109.643 59.7109 110.039 60.2744C110.271 61.1216 111.69 61.0737 111.666 60.0586C111.686 59.8177 111.622 59.5771 111.484 59.3786C111.346 59.18 111.143 59.036 110.91 58.9716Z" fill="white"/>
<path d="M106.774 60.8977C105.691 60.8977 105.691 62.5762 106.774 62.5762C107.857 62.5762 107.853 60.8977 106.774 60.8977Z" fill="white"/>
<path d="M18.8184 72.783C18.7023 72.5953 18.5185 72.4595 18.3049 72.4037C18.0914 72.3478 17.8646 72.3764 17.6715 72.4833C17.5488 72.6057 17.4515 72.7512 17.3852 72.9113C17.3188 73.0714 17.2846 73.2431 17.2846 73.4164C17.2846 73.5897 17.3188 73.7614 17.3852 73.9215C17.4515 74.0816 17.5488 74.2271 17.6715 74.3496C17.8644 74.4575 18.0915 74.4865 18.3053 74.4307C18.5191 74.3748 18.703 74.2383 18.8184 74.0498C18.9562 73.8674 19.0308 73.645 19.0308 73.4164C19.0308 73.1878 18.9562 72.9654 18.8184 72.783Z" fill="white"/>
<path d="M20.0533 77.2628C18.9703 77.2628 18.9703 78.9413 20.0533 78.9413C21.1363 78.9413 21.1323 77.2628 20.0533 77.2628Z" fill="white"/>
<path d="M23.4103 72.6471C22.3272 72.6471 22.3272 74.3256 23.4103 74.3256C24.4933 74.3256 24.4893 72.6471 23.4103 72.6471Z" fill="white"/>
<path d="M19.8295 68.6227C19.563 68.7061 19.3349 68.8818 19.1861 69.1182C19.0299 69.2787 18.9424 69.4937 18.9424 69.7177C18.9424 69.9416 19.0299 70.1567 19.1861 70.3171C19.2645 70.3964 19.3579 70.4593 19.4608 70.5023C19.5637 70.5452 19.6741 70.5673 19.7856 70.5673C19.8971 70.5673 20.0074 70.5452 20.1103 70.5023C20.2132 70.4593 20.3066 70.3964 20.385 70.3171L20.5409 70.1253C21.2123 69.6378 20.7846 68.3469 19.8295 68.6227Z" fill="white"/>
<path d="M23.7939 66.1809C23.702 66.2728 23.6061 66.3648 23.5142 66.4607C22.7509 67.228 23.9378 68.4149 24.7131 67.6596C24.805 67.5637 24.9009 67.4717 24.9928 67.3798C25.7481 66.6005 24.5612 65.4136 23.7939 66.1809Z" fill="white"/>
<path d="M26.4875 64.6743C25.4044 64.6743 25.4044 66.3528 26.4875 66.3528C27.5705 66.3528 27.5785 64.6743 26.4875 64.6743Z" fill="white"/>
<path d="M28.1659 69.5698H27.8862C26.8032 69.5698 26.8032 71.2483 27.8862 71.2483H28.1659C29.2449 71.2683 29.2449 69.5698 28.1659 69.5698Z" fill="white"/>
<path d="M27.4706 75.0568C26.7792 74.9489 26.0918 75.8561 26.7312 76.4595C26.8202 76.5478 26.9179 76.6268 27.023 76.6953C27.2162 76.8062 27.4453 76.8365 27.6608 76.7796C27.8762 76.7228 28.0605 76.5834 28.1739 76.3916C28.2619 76.2297 28.3072 76.0482 28.3058 75.864C28.3113 75.7542 28.2933 75.6444 28.2528 75.542C28.2124 75.4397 28.1506 75.3472 28.0715 75.2707C27.9924 75.1943 27.8978 75.1356 27.7942 75.0987C27.6905 75.0618 27.5802 75.0475 27.4706 75.0568Z" fill="white"/>
<path d="M21.9556 64.8742C21.7038 64.039 20.3051 64.1069 20.3331 65.102C20.3356 65.2676 20.3724 65.4308 20.4412 65.5814C20.51 65.7321 20.6092 65.8668 20.7327 65.9772C21.444 66.7205 22.559 65.6375 21.9556 64.8742Z" fill="white"/>
<path d="M34.3722 133.06C34.6186 132.745 34.7447 132.352 34.7279 131.953C34.7279 130.87 33.0534 130.874 33.0494 131.953C33.0494 131.997 33.0494 132.041 33.0494 132.081C33.0202 132.147 32.9962 132.215 32.9775 132.285C32.9293 132.416 32.9175 132.557 32.9436 132.695C32.9696 132.832 33.0324 132.96 33.1254 133.064C33.149 133.092 33.1759 133.118 33.2053 133.14C33.353 133.279 33.5496 133.355 33.7528 133.352C33.8726 133.354 33.9914 133.329 34.1005 133.28C34.1362 133.261 34.1697 133.238 34.2004 133.212C34.2532 133.184 34.3017 133.149 34.3442 133.108L34.3722 133.06Z" fill="white"/>
<path d="M36.4223 126.334C36.3104 126.282 36.2025 126.234 36.0906 126.19C35.9787 126.146 35.9748 126.138 36.0307 126.19C35.8708 126.033 35.6555 125.945 35.4312 125.945C35.207 125.945 34.9917 126.033 34.8318 126.19C34.7525 126.268 34.6896 126.362 34.6467 126.465C34.6037 126.568 34.5816 126.678 34.5816 126.79C34.5816 126.901 34.6037 127.011 34.6467 127.114C34.6896 127.217 34.7525 127.311 34.8318 127.389C35.0552 127.556 35.3015 127.691 35.5631 127.789C35.7565 127.896 35.984 127.925 36.1978 127.868C36.4117 127.811 36.5953 127.674 36.7101 127.485C36.8234 127.294 36.8567 127.066 36.8029 126.85C36.749 126.635 36.6122 126.449 36.4223 126.334Z" fill="white"/>
<path d="M39.6674 129.823C39.5075 129.666 39.2922 129.578 39.0679 129.578C38.8437 129.578 38.6284 129.666 38.4685 129.823C38.2927 129.975 38.0689 130.087 37.909 130.242C37.8297 130.321 37.7668 130.414 37.7239 130.517C37.6809 130.62 37.6588 130.73 37.6588 130.842C37.6588 130.953 37.6809 131.064 37.7239 131.167C37.7668 131.27 37.8297 131.363 37.909 131.441C38.0689 131.598 38.2842 131.687 38.5085 131.687C38.7327 131.687 38.948 131.598 39.1079 131.441C39.2838 131.289 39.5075 131.174 39.6674 131.022C39.7472 130.944 39.8105 130.85 39.8538 130.747C39.897 130.644 39.9193 130.534 39.9193 130.422C39.9193 130.311 39.897 130.2 39.8538 130.097C39.8105 129.994 39.7472 129.901 39.6674 129.823Z" fill="white"/>
<path d="M37.1177 132.812C36.0347 132.812 36.0347 134.49 37.1177 134.49C38.2007 134.49 38.1967 132.812 37.1177 132.812Z" fill="white"/>
<path d="M39.0759 127.337V127.757C39.0759 128.84 40.7544 128.84 40.7544 127.757V127.337C40.7664 126.254 39.0759 126.254 39.0759 127.337Z" fill="white"/>
<path d="M42.0132 132.652H41.5936C40.5106 132.652 40.5106 134.331 41.5936 134.331H42.0132C43.0923 134.331 43.0923 132.652 42.0132 132.652Z" fill="white"/>
<path d="M39.04 136.409C38.992 136.453 38.9481 136.501 38.9001 136.549C38.1368 137.316 39.3237 138.503 40.099 137.747L40.2389 137.608C40.9902 136.808 39.8033 135.629 39.04 136.409Z" fill="white"/>
<path d="M33.4451 138.215L33.3052 138.355C32.5379 139.118 33.7048 140.305 34.5041 139.554L34.644 139.414C35.3993 138.639 34.2124 137.452 33.4451 138.215Z" fill="white"/>
<path d="M131.903 132.988C131.128 132.376 130.045 133.495 130.796 134.227C130.906 134.35 131.041 134.449 131.192 134.518C131.342 134.587 131.506 134.624 131.671 134.626C132.682 134.638 132.73 133.24 131.903 132.988Z" fill="white"/>
<path d="M132.515 129.411C132.163 129.243 131.778 129.155 131.388 129.155C130.309 129.155 130.309 130.83 131.388 130.834C131.481 130.824 131.576 130.832 131.667 130.858C131.86 130.966 132.087 130.995 132.301 130.939C132.515 130.883 132.699 130.747 132.814 130.558C132.926 130.366 132.958 130.138 132.902 129.923C132.845 129.708 132.706 129.524 132.515 129.411Z" fill="white"/>
<path d="M134.744 129.855C133.665 129.855 133.665 131.533 134.744 131.533C135.823 131.533 135.827 129.855 134.744 129.855Z" fill="white"/>
<path d="M135.028 124.819H134.744C133.665 124.819 133.665 126.498 134.744 126.498H135.028C136.111 126.498 136.111 124.819 135.028 124.819Z" fill="white"/>
<path d="M137.406 127.897V128.036C137.406 129.119 139.084 129.119 139.084 128.036V127.897C139.076 126.818 137.406 126.818 137.406 127.897Z" fill="white"/>
<path d="M139.076 131.253C137.993 131.253 137.993 132.932 139.076 132.932C140.159 132.932 140.163 131.253 139.076 131.253Z" fill="white"/>
<path d="M135.584 133.491C134.505 133.491 134.505 135.17 135.584 135.17C136.663 135.17 136.679 133.491 135.584 133.491Z" fill="white"/>
<path d="M132.646 137.827H132.51C131.427 137.827 131.427 139.506 132.51 139.506H132.646C133.729 139.506 133.729 137.827 132.646 137.827Z" fill="white"/>
<path d="M128.53 135.554C128.446 135.665 128.382 135.791 128.342 135.925C128.292 136.128 128.319 136.343 128.419 136.527C128.519 136.71 128.684 136.85 128.882 136.918C129.08 136.986 129.296 136.977 129.488 136.893C129.679 136.809 129.832 136.656 129.917 136.465C129.999 136.352 130.061 136.226 130.101 136.093C130.146 135.892 130.116 135.682 130.015 135.502C129.915 135.322 129.752 135.186 129.557 135.119C129.363 135.052 129.15 135.059 128.961 135.14C128.771 135.22 128.618 135.367 128.53 135.554Z" fill="white"/>
<path d="M17.6755 5.08875H17.5356C16.4526 5.08875 16.4526 6.76721 17.5356 6.76721H17.6755C18.7545 6.76721 18.7545 5.08875 17.6755 5.08875Z" fill="white"/>
<path d="M21.2043 9.39296C21.0443 9.23578 20.8291 9.14771 20.6048 9.14771C20.3806 9.14771 20.1653 9.23578 20.0054 9.39296C19.8295 9.54482 19.6057 9.65672 19.4459 9.79259C19.3666 9.87101 19.3037 9.96437 19.2607 10.0673C19.2178 10.1702 19.1957 10.2805 19.1957 10.392C19.1957 10.5035 19.2178 10.6139 19.2607 10.7168C19.3037 10.8197 19.3666 10.9131 19.4459 10.9915C19.6058 11.1487 19.8211 11.2368 20.0453 11.2368C20.2696 11.2368 20.4848 11.1487 20.6448 10.9915C20.8206 10.8396 21.0444 10.7237 21.2043 10.5719C21.3592 10.4148 21.4461 10.2031 21.4461 9.98242C21.4461 9.76178 21.3592 9.55001 21.2043 9.39296Z" fill="white"/>
<path d="M14.5983 13.4811C13.5153 13.4811 13.5153 15.1595 14.5983 15.1595C15.6813 15.1595 15.6773 13.4811 14.5983 13.4811Z" fill="white"/>
<path d="M14.4584 8.30591C13.3754 8.30591 13.3754 9.98437 14.4584 9.98437C15.5414 9.98437 15.5375 8.30591 14.4584 8.30591Z" fill="white"/>
<path d="M17.116 10.4039C16.033 10.4039 16.033 12.0824 17.116 12.0824C18.199 12.0824 18.195 10.4039 17.116 10.4039Z" fill="white"/>
<path d="M21.5839 6.76734V6.92719C21.5839 8.0102 23.2624 8.0102 23.2624 6.92719V6.76734C23.2704 5.68433 21.5839 5.68433 21.5839 6.76734Z" fill="white"/>
<path d="M18.9344 15.9988V16.1387C18.9344 17.2217 20.6128 17.2217 20.6128 16.1387V15.9988C20.6128 14.9198 18.9344 14.9198 18.9344 15.9988Z" fill="white"/>
</g>
<rect x="5.5" y="2.43262" width="137" height="143.022" stroke="#D8E1E5" stroke-width="3"/>
</g>
<defs>
<filter id="filter0_d" x="0" y="0.932617" width="148" height="154.022" filterUnits="userSpaceOnUse" color-interpolation-filters="sRGB">
<feFlood flood-opacity="0" result="BackgroundImageFix"/>
<feColorMatrix in="SourceAlpha" type="matrix" values="0 0 0 0 0 0 0 0 0 0 0 0 0 0 0 0 0 0 127 0"/>
<feOffset dy="4"/>
<feGaussianBlur stdDeviation="2"/>
<feColorMatrix type="matrix" values="0 0 0 0 0 0 0 0 0 0 0 0 0 0 0 0 0 0 0.25 0"/>
<feBlend mode="normal" in2="BackgroundImageFix" result="effect1_dropShadow"/>
<feBlend mode="normal" in="SourceGraphic" in2="effect1_dropShadow" result="shape"/>
</filter>
<clipPath id="clip0">
<rect x="4" y="0.932617" width="140" height="146.022" fill="white"/>
</clipPath>
</defs>
</svg>
