<svg width="148" height="149" viewBox="0 0 148 149" fill="none" xmlns="http://www.w3.org/2000/svg">
<g filter="url(#filter0_d)">
<g clip-path="url(#clip0)">
<path d="M143.769 0H4.16345V139.605H143.769V0Z" fill="#F9F3E0"/>
<path d="M143.769 60.4969H4.16345V140.932H143.769V60.4969Z" fill="#BAD9E4"/>
<g style="mix-blend-mode:multiply">
<g style="mix-blend-mode:multiply">
<path d="M144 48.3179H4V75.4778H144V48.3179Z" fill="#B3B5B7"/>
</g>
</g>
<path d="M143.773 47.744C134.264 47.7879 98.0534 47.8835 92.6095 47.744C87.1655 47.6046 81.7256 47.1462 76.2697 46.9191C79.5018 41.8976 85.962 37.6652 91.9479 35.8917C91.7742 36.4142 91.6319 36.9465 91.5215 37.4859C90.1705 44.1772 99.1135 45.2612 101.166 39.5861C101.919 37.5098 100.588 34.9512 98.7747 33.9748C97.6389 33.3611 96.26 33.3531 94.8891 33.5763C98.436 28.1323 104.769 24.4818 111.229 23.8959C112.201 23.8083 112.209 22.3018 111.229 22.3696C104.203 23.0072 95.8734 27.4269 92.6374 34.1661C92.0037 34.3733 91.4059 34.6005 90.8719 34.7998C87.0938 36.2663 83.0726 38.259 79.7489 40.9172C79.8206 40.8056 79.8923 40.698 79.9601 40.5824C82.8534 35.8718 85.2566 31.1094 86.0178 25.5977C86.8507 19.552 85.5595 9.86366 78.9638 7.31705C72.4518 4.78239 68.6259 17.3162 66.968 21.8834C65.6289 18.3364 63.5964 15.1841 60.2607 13.3986C57.3833 11.8563 54.0117 12.8726 52.0071 15.2319C49.4485 18.2368 49.6956 22.7721 50.413 26.3509C51.4771 31.743 54.2708 37.3344 57.1003 42.0132C58.2054 43.8607 59.5719 45.5386 61.1574 46.9948L57.7061 47.1144C57.2358 47.0028 56.7616 46.8832 56.2834 46.7397C50.9271 45.1456 43.8293 40.3632 42.2431 34.6722C41.9801 33.7237 40.5055 34.1262 40.7725 35.0708C42.1475 40.0245 47.1012 43.7189 51.3017 46.2296C51.9362 46.603 52.5923 46.9383 53.2665 47.2339C51.6723 47.2698 50.0782 47.2897 48.4841 47.2778C43.614 47.2339 14.585 47.0665 4.15947 47.0905V71.64C16.3824 71.907 34.7029 71.64 38.9951 71.7276C45.2122 71.8631 51.1822 71.2853 57.3554 71.0222C60.8864 70.8668 64.4214 70.811 67.9364 70.6237C72.121 70.4125 76.453 70.2451 80.5977 70.6237C89.8875 71.4766 134.001 70.7233 143.769 71.1458L143.773 47.744ZM94.0442 35.3896C94.7177 35.2541 95.3832 35.1505 96.0368 35.0867C99.7153 34.736 101.696 39.8292 97.34 41.6385C92.195 43.7587 92.8725 38.5141 94.0442 35.3736V35.3896ZM63.4649 46.947C58.1525 42.9178 55.3787 35.9077 53.0513 29.7862C51.4571 25.6096 50.5923 20.9827 52.7603 16.8738C55.4225 11.8244 60.8904 14.9409 63.2298 18.2089C64.5007 20.0375 65.4758 22.0549 66.1191 24.1869C64.3018 28.9692 63.0664 33.1737 63.6642 38.5659C63.9596 40.8032 64.4941 43.0023 65.2583 45.1257C65.4438 45.7109 65.5981 46.3055 65.7206 46.9071C64.9753 46.8832 64.2181 46.8912 63.4649 46.9151V46.947ZM68.861 46.8234L67.3984 46.8593C66.952 45.592 66.5455 44.1613 66.3184 43.4877C65.6728 41.4545 65.2452 39.3584 65.0431 37.2348C64.6206 33.4288 65.5133 30.0931 66.8006 26.6378C67.3267 28.8616 67.6853 31.1373 68.048 33.3611C68.5143 36.1388 70.0008 42.7823 68.861 46.7916V46.8234ZM72.4278 46.8234H70.4113C71.4634 42.4396 70.0486 36.2504 69.5226 32.9665C69.1062 29.9941 68.5018 27.051 67.7132 24.155C69.6501 18.5516 74.2013 4.65884 80.4662 9.96329C85.954 14.5942 85.1729 24.4379 83.4353 30.4239C82.3752 34.0784 79.9163 37.7688 77.9395 40.9929C76.469 43.3562 74.5401 45.1257 72.4278 46.7955V46.8234Z" fill="#303030"/>
<path d="M4.16347 88.1631C18.2316 87.3661 32.3715 87.6769 46.4516 87.5972C67.1752 87.4816 87.9546 86.4016 108.694 85.9393C120.443 85.6803 132.052 85.485 143.765 85.5926V82.2051C130.422 81.942 117.227 82.4402 103.884 82.6873C83.6664 83.0858 63.4529 84.1898 43.2394 84.2814C30.2075 84.3332 17.1556 84.1619 4.15549 84.8712L4.16347 88.1631Z" fill="white"/>
<path d="M143.773 124.525C119.989 125.298 96.1763 125.565 72.3999 126.119C55.299 126.518 38.2179 128.219 21.105 127.98C15.4618 127.928 9.81064 127.665 4.16345 127.53V130.826C9.74289 130.965 15.3542 131.224 20.9336 131.328C38.0306 131.663 55.1396 129.941 72.2246 129.467C96.0647 128.809 119.929 128.586 143.773 127.841V124.525Z" fill="white"/>
<path d="M79.2228 114.833C62.4367 115.598 45.9614 114.733 29.2231 113.374C20.8778 112.697 12.5206 112.075 4.16345 111.828V115.176C12.437 115.435 20.7065 116.064 28.9601 116.734C45.6984 118.085 62.1776 118.986 78.9598 118.192C100.548 117.168 122.161 116.997 143.773 116.622V113.306C122.252 113.649 100.728 113.856 79.2228 114.833Z" fill="white"/>
<path d="M131.666 98.4731C135.715 98.0746 139.74 97.7 143.773 97.429V94.0255C139.198 94.3483 134.631 94.8465 130.063 95.2769C114.122 96.7714 98.2288 98.222 82.2397 98.772C56.2076 99.6687 30.2035 101.889 4.16345 102.785V106.141C30.7534 105.24 57.2877 102.981 83.8697 102.064C99.8587 101.514 115.752 99.9676 131.666 98.4731Z" fill="white"/>
<path d="M68.3468 119.404C68.5883 119.403 68.8268 119.457 69.0442 119.562C69.2617 119.667 69.4525 119.82 69.6022 120.01C69.8643 120.353 70.0046 120.773 70.0007 121.205C70.0056 121.627 69.8648 122.038 69.6022 122.369C69.4509 122.549 69.2566 122.689 69.0372 122.775C68.8178 122.86 68.5804 122.889 68.3468 122.859L58.7223 122.441C58.4808 122.441 58.2424 122.387 58.0249 122.282C57.8074 122.177 57.6167 122.024 57.4669 121.835C57.2045 121.492 57.0643 121.071 57.0684 120.639C57.0652 120.219 57.2058 119.809 57.4669 119.48C57.6174 119.298 57.8118 119.159 58.0315 119.073C58.2512 118.988 58.489 118.961 58.7223 118.993H59.4197C59.2949 116.73 59.2803 114.471 59.3759 112.218C59.4716 109.965 59.6336 107.719 59.8621 105.479C60.0933 103.247 60.3722 101.016 60.699 98.7839C61.0258 96.5521 61.3593 94.3203 61.6993 92.0886C61.7375 91.9321 61.7841 91.7778 61.8388 91.6263C60.8073 92.2828 59.7432 92.8867 58.6506 93.4356C58.441 93.5576 58.2059 93.6293 57.9639 93.6452C57.7219 93.6611 57.4795 93.6207 57.2557 93.5273C56.8473 93.3649 56.504 93.072 56.2793 92.6943C56.0658 92.3347 55.9841 91.912 56.0482 91.4987C56.0882 91.2712 56.1857 91.0576 56.3315 90.8783C56.4773 90.6991 56.6665 90.56 56.8811 90.4745C59.1305 89.3871 61.2384 88.0286 63.158 86.4294C63.5098 86.1467 63.9425 85.9834 64.3934 85.9631C64.6243 85.9458 64.856 85.9829 65.0699 86.0715C65.2838 86.1602 65.4739 86.2977 65.6249 86.4732C65.9374 86.8064 66.1883 87.1923 66.3661 87.613C66.5224 88.0093 66.6243 88.4249 66.669 88.8485C66.7172 89.2879 66.7411 89.7296 66.7408 90.1716C66.7408 90.622 66.7886 99.4454 66.7886 101.028C66.7886 107.138 66.6943 113.229 66.5056 119.3L68.3468 119.404ZM63.2337 106.527C63.0158 108.634 62.8684 110.735 62.7913 112.828C62.7143 114.922 62.7368 117.037 62.8591 119.173H62.9826C63.1075 114.959 63.2005 110.728 63.2616 106.48L63.2337 106.527ZM63.0464 90.7654H63.3253V90.6259L63.0464 90.7654Z" fill="#303030"/>
<path d="M89.3733 99.2342C90.2719 99.786 91.0665 100.492 91.7207 101.319C92.368 102.136 92.8904 103.046 93.271 104.017C93.6526 104.991 93.9084 106.01 94.0322 107.049C94.1555 108.096 94.1715 109.152 94.08 110.202C93.8729 112.451 93.2371 114.64 92.2069 116.65C91.2799 118.519 89.9337 120.149 88.2734 121.412C86.6831 122.596 84.7774 123.281 82.7976 123.381C80.7412 123.503 78.5758 122.871 76.3015 121.484C76.0881 121.371 75.9046 121.208 75.766 121.01C75.6275 120.812 75.5378 120.584 75.5045 120.344C75.4352 119.903 75.5196 119.452 75.7436 119.065C75.9613 118.693 76.3047 118.41 76.712 118.268C76.9366 118.193 77.1756 118.171 77.4101 118.204C77.6446 118.238 77.8681 118.325 78.063 118.459C78.2862 118.587 78.4974 118.702 78.7047 118.814C78.9126 118.928 79.1269 119.031 79.3463 119.121C79.4878 118.821 79.719 118.574 80.0079 118.412C80.654 118.047 81.2119 117.545 81.6418 116.941C82.0684 116.344 82.4267 115.701 82.7099 115.024C83.0005 114.326 83.2533 113.613 83.4671 112.888C83.6903 112.147 83.9095 111.445 84.1327 110.78C84.2562 110.381 84.4475 109.863 84.6986 109.261C84.9497 108.659 85.1808 108.038 85.388 107.392C85.589 106.757 85.7396 106.106 85.8384 105.447C85.9364 104.873 85.9202 104.285 85.7905 103.718C85.6763 103.237 85.3935 102.813 84.9935 102.522C84.4232 102.179 83.7602 102.021 83.0965 102.072C82.852 102.08 82.6091 102.031 82.3871 101.928C81.8139 102.182 81.2586 102.475 80.7252 102.805C80.1872 103.136 79.6851 103.479 79.2108 103.825C78.9585 104.013 78.6477 104.105 78.334 104.084C78.0133 104.072 77.702 103.973 77.4334 103.797C77.1655 103.629 76.9383 103.403 76.7678 103.136C76.5975 102.877 76.5228 102.567 76.5566 102.259L77.9793 88.4659C78.0181 88.0883 78.1392 87.7237 78.334 87.3979C78.4258 87.2253 78.5576 87.0772 78.7185 86.9663C78.8795 86.8553 79.0647 86.7846 79.2586 86.7602C81.4054 86.444 83.5309 86.2302 85.6351 86.1186C87.7394 86.007 89.8649 85.999 92.0116 86.0947C92.2578 86.0935 92.501 86.1486 92.7227 86.2556C92.9444 86.3627 93.1387 86.5189 93.2909 86.7124C93.5617 87.0526 93.7117 87.4732 93.7173 87.908C93.7187 88.344 93.5679 88.7668 93.2909 89.1036C93.137 89.2878 92.939 89.4301 92.7153 89.5172C92.4916 89.6043 92.2496 89.6334 92.0116 89.6017C89.4046 89.5065 86.7944 89.553 84.1924 89.7412C84.2492 89.9096 84.2801 90.0856 84.2841 90.2633V97.943C85.1657 97.8791 86.0519 97.9354 86.9184 98.1104C87.8243 98.2972 88.6852 98.6586 89.453 99.1745L89.3733 99.2342ZM80.7451 98.3814V95.9623L80.4622 98.9473L80.7451 98.8078V98.3814ZM90.557 110.513C90.7163 109.357 90.7163 108.185 90.557 107.03C90.4165 105.87 90.0071 104.759 89.3614 103.785C89.5162 104.914 89.4196 106.062 89.0784 107.149C88.7915 108.098 88.4992 109.124 88.2017 110.23C87.8988 111.338 87.56 112.45 87.1814 113.573C86.8097 114.678 86.3582 115.754 85.8304 116.794C85.3276 117.8 84.6981 118.737 83.9573 119.583C84.8449 119.36 85.6758 118.952 86.3963 118.388C87.1585 117.801 87.823 117.098 88.3651 116.303C88.9455 115.458 89.4156 114.542 89.7639 113.577C90.1396 112.558 90.4068 111.501 90.561 110.425L90.557 110.513Z" fill="#303030"/>
</g>
<rect x="5.5" y="1.5" width="137" height="137.933" stroke="#D8E1E5" stroke-width="3"/>
</g>
<defs>
<filter id="filter0_d" x="0" y="0" width="148" height="148.933" filterUnits="userSpaceOnUse" color-interpolation-filters="sRGB">
<feFlood flood-opacity="0" result="BackgroundImageFix"/>
<feColorMatrix in="SourceAlpha" type="matrix" values="0 0 0 0 0 0 0 0 0 0 0 0 0 0 0 0 0 0 127 0"/>
<feOffset dy="4"/>
<feGaussianBlur stdDeviation="2"/>
<feColorMatrix type="matrix" values="0 0 0 0 0 0 0 0 0 0 0 0 0 0 0 0 0 0 0.25 0"/>
<feBlend mode="normal" in2="BackgroundImageFix" result="effect1_dropShadow"/>
<feBlend mode="normal" in="SourceGraphic" in2="effect1_dropShadow" result="shape"/>
</filter>
<clipPath id="clip0">
<rect x="4" width="140" height="140.933" fill="white"/>
</clipPath>
</defs>
</svg>
