<svg width="148" height="148" viewBox="0 0 148 148" fill="none" xmlns="http://www.w3.org/2000/svg">
<g filter="url(#filter0_d)">
<path d="M144 0H4V140H144V0Z" fill="#A8B3B2"/>
<path d="M102.364 50.2729C102.662 50.2715 102.957 50.338 103.225 50.4675C103.494 50.597 103.73 50.786 103.914 51.0203C104.244 51.4373 104.425 51.9518 104.43 52.483C104.428 53.0075 104.246 53.5152 103.914 53.9218C103.728 54.1452 103.488 54.3177 103.217 54.4232C102.946 54.5287 102.652 54.5638 102.364 54.5253L90.4739 54.0057C90.1753 54.009 89.88 53.9433 89.611 53.8136C89.3421 53.684 89.1067 53.494 88.9232 53.2584C88.591 52.8428 88.408 52.3276 88.4037 51.7956C88.4058 51.2717 88.5894 50.7647 88.9232 50.3608C89.109 50.1366 89.3489 49.9635 89.6202 49.8578C89.8916 49.7522 90.1854 49.7177 90.4739 49.7574H91.3372C91.18 46.9598 91.16 44.1622 91.2772 41.3646C91.3944 38.567 91.5956 35.7907 91.8807 33.0357C92.1764 30.2807 92.5215 27.5284 92.9158 24.7788C93.3101 22.0291 93.7218 19.2728 94.1507 16.5099C94.1867 16.358 94.2467 16.1622 94.3226 15.9344C93.0403 16.7478 91.717 17.4948 90.358 18.1724C90.0988 18.3221 89.8088 18.4104 89.5102 18.4304C89.2116 18.4505 88.9124 18.4019 88.6355 18.2883C88.1322 18.0856 87.7105 17.7215 87.4365 17.2532C87.1705 16.8048 87.0687 16.2777 87.1487 15.7625C87.1999 15.4814 87.3217 15.218 87.5028 14.9971C87.6839 14.7761 87.9183 14.6049 88.1839 14.4996C90.9572 13.15 93.5556 11.467 95.9212 9.48788C96.3548 9.1398 96.8884 8.93954 97.4439 8.91637C97.7296 8.8936 98.0166 8.93897 98.2813 9.04874C98.546 9.15852 98.7809 9.32957 98.9666 9.54783C99.3573 9.95594 99.669 10.4329 99.8858 10.9546C100.08 11.4425 100.205 11.955 100.258 12.4773C100.317 13.0201 100.347 13.5658 100.345 14.1119C100.345 14.6674 100.405 25.5741 100.405 27.5244C100.405 35.07 100.289 42.5955 100.058 50.1011L102.364 50.2729ZM96.0451 34.3706C95.7787 36.971 95.5962 39.5648 95.4976 42.1519C95.399 44.739 95.4283 47.3528 95.5855 49.9932H95.7574C95.9092 44.787 96.0238 39.5608 96.1011 34.3146L96.0451 34.3706ZM95.8173 14.8952H96.161V14.7234L95.8173 14.8952Z" fill="#303030"/>
<path d="M134.916 50.169C134.722 49.8982 134.467 49.6776 134.17 49.5254C133.874 49.3732 133.546 49.2938 133.213 49.2937L133.329 49.4456L120.093 48.6463C121.675 46.9277 123.274 45.0627 124.888 43.0511C126.515 41.0412 128.008 38.9264 129.357 36.7205C130.689 34.5674 131.848 32.3115 132.822 29.9743C133.741 27.7692 134.353 25.4481 134.64 23.0762C134.882 21.0649 134.624 19.0248 133.889 17.1373C133.176 15.2742 132.088 13.5778 130.691 12.1535C129.797 10.7062 128.524 9.53034 127.011 8.75246C125.479 7.95315 123.667 7.81993 121.575 8.35281C121.181 8.44768 120.812 8.62623 120.492 8.87636L119.869 8.99626C119.497 9.08088 119.151 9.25512 118.862 9.50382C118.506 9.68166 118.16 9.87913 117.826 10.0953C116.708 10.8018 115.726 11.7049 114.929 12.761C113.754 14.3876 113.906 17.0933 113.906 19.0077C113.893 19.1538 113.924 19.3003 113.996 19.4285C114.067 19.5567 114.175 19.6607 114.305 19.7271C114.797 20.2746 115.904 20.1907 116.012 19.2515C116.012 19.1635 116.036 19.0796 116.048 18.9917C116.143 18.9024 116.219 18.795 116.272 18.676C116.616 17.8966 116.987 17.0533 117.415 16.238C118.268 15.1087 119.4 14.2204 120.7 13.6603C121.051 13.6947 121.405 13.6608 121.743 13.5603C122.62 13.2813 123.565 13.3024 124.429 13.6203C125.296 13.9585 126.072 14.495 126.695 15.1869C127.199 16.3529 127.429 17.619 127.366 18.8878C127.359 20.1306 127.156 21.3645 126.767 22.5446C126.245 24.0532 125.616 25.5223 124.884 26.9409C124.154 28.369 123.424 29.7744 122.694 31.1573C121.048 34.3012 119.292 37.3653 117.427 40.3494C115.562 43.3335 113.597 46.2696 111.532 49.1578C111.264 49.5045 111.102 49.9206 111.064 50.3568C111.023 50.7861 111.079 51.2191 111.228 51.6237C111.372 52.0226 111.612 52.3797 111.928 52.6628C112.259 52.9571 112.684 53.1242 113.126 53.1344L132.598 54.1775C132.94 54.2337 133.29 54.2063 133.619 54.0977C133.949 53.9892 134.247 53.8026 134.488 53.5541C134.919 53.0904 135.198 52.5061 135.287 51.8795C135.379 51.283 135.246 50.6738 134.916 50.169Z" fill="#303030"/>
<path d="M58.3534 106.669C59.5164 108.323 52.4745 113.339 51.6672 113.906C50.8599 114.474 43.7539 119.39 42.5909 117.739C41.4279 116.088 48.4699 111.065 49.2772 110.501C50.0845 109.938 57.1984 105.014 58.3534 106.669ZM44.3854 116.48C45.0368 116.38 47.3948 115.381 50.9518 112.883C54.5087 110.385 56.2512 108.507 56.547 107.923C55.8955 108.023 53.5336 109.023 49.9806 111.52C46.4277 114.018 44.7011 115.901 44.3894 116.48H44.3854Z" fill="white"/>
<path d="M58.3054 106.669C59.4684 105.014 66.5783 109.934 67.3816 110.501C68.1849 111.069 75.2309 116.096 74.0679 117.739C72.9049 119.382 65.799 114.47 64.9917 113.906C64.1844 113.343 57.1544 108.307 58.3054 106.669ZM72.2934 116.48C71.9817 115.901 70.2392 114.018 66.6982 111.52C63.1572 109.023 60.7833 108.023 60.1278 107.923C60.4436 108.507 62.1861 110.385 65.723 112.883C69.26 115.381 71.626 116.38 72.2774 116.48H72.2934Z" fill="white"/>
<path d="M57.9777 114.766C59.2047 116.516 55.4159 119.254 54.9803 119.561C54.5447 119.869 50.68 122.507 49.4531 120.76C48.2261 119.014 52.0149 116.276 52.4505 115.965C52.8861 115.653 56.7548 113.015 57.9777 114.766ZM50.4202 120.073C50.8598 120.145 52.2946 119.829 54.221 118.474C56.1473 117.12 56.9267 115.881 57.0186 115.441C56.5789 115.369 55.1402 115.685 53.2178 117.04C51.2955 118.394 50.5041 119.633 50.4202 120.073Z" fill="white"/>
<path d="M58.6851 114.766C59.9161 113.015 63.7768 115.653 64.2124 115.965C64.648 116.276 68.4408 119.01 67.2138 120.76C65.9869 122.511 62.1222 119.873 61.6866 119.561C61.2509 119.25 57.4582 116.516 58.6851 114.766ZM66.2467 120.073C66.1627 119.633 65.3794 118.39 63.4491 117.04C61.5187 115.689 60.0919 115.373 59.6523 115.441C59.7322 115.881 60.5156 117.124 62.4499 118.474C64.3843 119.825 65.803 120.145 66.2467 120.073Z" fill="white"/>
<path d="M58.3534 115.633C59.5524 115.633 60.004 117.295 60.2958 118.926C60.6276 121.041 60.7854 123.18 60.7674 125.321C60.7674 125.484 60.7674 125.648 60.7674 125.816C61.1753 126.1 61.5638 126.411 61.9304 126.747C62.6604 127.4 63.287 128.16 63.7888 129.001C64.4922 130.272 64.2284 131 63.8807 131.367C63.744 131.513 63.5776 131.627 63.3927 131.702C63.2079 131.777 63.009 131.812 62.8096 131.803C61.9471 131.717 61.1254 131.393 60.4356 130.868C59.9481 134.465 59.1208 135.016 58.3574 135.016C57.5941 135.016 56.7588 134.485 56.2792 130.868C55.5895 131.393 54.7678 131.717 53.9052 131.803C53.7053 131.812 53.5058 131.777 53.3203 131.702C53.1348 131.627 52.9676 131.513 52.8302 131.367C52.4865 130.968 52.2187 130.272 52.9261 129.001C53.4263 128.16 54.0516 127.4 54.7805 126.747C55.1484 126.411 55.5383 126.1 55.9475 125.816C55.9475 125.648 55.9475 125.484 55.9475 125.321C55.9275 123.18 56.0852 121.041 56.4191 118.926C56.6789 117.295 57.1545 115.633 58.3534 115.633ZM62.398 130.02C61.9862 129.266 61.4451 128.59 60.7993 128.022C60.389 127.646 59.9463 127.306 59.4765 127.007L59.0768 126.751C59.0768 126.751 59.0768 125.656 59.0768 125.344C59.0768 121.68 58.7011 119.198 58.3614 118.003C58.0177 119.202 57.642 121.68 57.642 125.344C57.642 125.656 57.642 126.755 57.642 126.755L57.2424 127.007C56.7746 127.307 56.3333 127.647 55.9235 128.022C55.2777 128.59 54.7366 129.266 54.3249 130.02C55.0919 129.688 55.7942 129.223 56.3991 128.646L57.662 127.511L57.8099 129.201C57.8891 130.37 58.0764 131.528 58.3694 132.662C58.6606 131.528 58.8465 130.369 58.9249 129.201L59.0768 127.511L60.3357 128.646C60.9324 129.218 61.6233 129.683 62.378 130.02H62.398Z" fill="white"/>
<path d="M58.2814 93.0043H58.3534C59.0578 93.0469 59.7233 93.342 60.2278 93.8356C61.4498 94.8613 62.4437 96.1314 63.1453 97.5644C64.648 100.438 65.2674 103.899 63.5449 104.95C63.2188 105.144 62.8455 105.245 62.4658 105.242C60.9751 105.242 59.4764 103.823 58.3454 102.176C57.2143 103.823 55.7156 105.242 54.2209 105.242C53.8425 105.246 53.4703 105.145 53.1458 104.95C51.4313 103.899 52.0508 100.438 53.5455 97.5644C54.2468 96.1312 55.2407 94.861 56.463 93.8356C56.9561 93.3585 57.598 93.0651 58.2814 93.0043ZM58.3334 94.5749C58.1906 94.6148 58.0555 94.6783 57.9337 94.7628L57.8978 94.8307L57.7499 94.9426C56.6827 95.8346 55.8175 96.9436 55.2121 98.1958C53.6134 101.253 53.7813 103.439 54.2049 103.699C54.6965 103.699 56.1632 102.664 57.5021 100.17L58.3334 98.6155L59.1647 100.17C60.4995 102.664 61.9623 103.699 62.4539 103.699C62.8855 103.439 63.0533 101.253 61.4547 98.1958C60.8492 96.9436 59.9841 95.8346 58.9169 94.9426L58.769 94.8307L58.733 94.7628C58.6171 94.6857 58.494 94.6201 58.3654 94.5669L58.3334 94.5749Z" fill="white"/>
<path d="M57.1544 102.996C57.1544 101.797 57.682 100.858 58.3334 100.858C58.9848 100.858 59.5324 101.813 59.5324 102.996V115.385C59.5324 116.584 59.0048 117.527 58.3334 117.527C57.662 117.527 57.1544 116.568 57.1544 115.385V102.996Z" fill="white"/>
<path d="M58.3534 73.7729C57.1944 75.4274 50.0845 70.5077 49.2772 69.9401C48.4699 69.3726 41.4319 64.3449 42.591 62.7024C43.75 61.0598 50.8639 65.9676 51.6672 66.5351C52.4705 67.1026 59.5204 72.1183 58.3534 73.7729ZM44.3894 63.9453C44.7011 64.5248 46.4436 66.4072 49.9846 68.901C53.5256 71.3949 55.8995 72.398 56.551 72.498C56.2392 71.9184 54.4967 70.0401 50.9558 67.5382C47.4148 65.0364 45.0409 64.0572 44.3894 63.9453Z" fill="white"/>
<path d="M58.3054 73.7728C57.1464 72.1182 64.1844 67.0985 64.9917 66.535C65.799 65.9714 72.9049 61.0477 74.0679 62.7023C75.2309 64.3568 68.189 69.3725 67.3816 69.94C66.5743 70.5076 59.4684 75.4273 58.3054 73.7728ZM72.2934 63.9612C71.642 64.0571 69.284 65.0602 65.7271 67.5581C62.1701 70.0559 60.4276 71.9543 60.1319 72.5178C60.7873 72.4179 63.1453 71.4188 66.7022 68.9209C70.2592 66.4231 71.9657 64.5407 72.2775 63.9452L72.2934 63.9612Z" fill="white"/>
<path d="M57.9777 65.6757C56.7508 67.4262 52.8901 64.7844 52.4504 64.4767C52.0108 64.1689 48.2221 61.4313 49.453 59.6808C50.684 57.9303 54.5446 60.572 54.9803 60.8798C55.4159 61.1875 59.2046 63.9451 57.9777 65.6757ZM50.4202 60.3482C50.5041 60.7918 51.2874 62.0348 53.2178 63.3856C55.1481 64.7365 56.5789 65.0482 57.0185 64.9842C56.9346 64.5406 56.1513 63.2977 54.2209 61.9508C52.2906 60.604 50.8598 60.2963 50.4202 60.3482Z" fill="white"/>
<path d="M58.6851 65.6757C57.4582 63.9252 61.2509 61.1876 61.6866 60.8798C62.1222 60.5721 65.9829 57.9383 67.2138 59.6809C68.4448 61.4234 64.648 64.169 64.2124 64.4767C63.7768 64.7845 59.9161 67.4262 58.6851 65.6757ZM66.2467 60.3483C65.803 60.2803 64.3683 60.5961 62.4459 61.9469C60.5236 63.2977 59.7362 64.5367 59.6483 64.9803C60.0879 65.0482 61.5227 64.7325 63.4451 63.3817C65.3674 62.0308 66.1627 60.8079 66.2467 60.3483Z" fill="white"/>
<path d="M58.3534 64.8045C57.1545 64.8045 56.6988 63.1419 56.4111 61.5153C56.0772 59.4005 55.9195 57.2616 55.9395 55.1208C55.9395 54.9569 55.9395 54.789 55.9395 54.6252C55.5302 54.3396 55.1404 54.0272 54.7725 53.69C54.0427 53.0379 53.4172 52.2777 52.9181 51.4359C52.2107 50.169 52.4785 49.4376 52.8222 49.0739C52.9596 48.9285 53.1268 48.8142 53.3123 48.7391C53.4978 48.6639 53.6973 48.6295 53.8972 48.6383C54.7602 48.7229 55.5824 49.0468 56.2712 49.5735C56.7548 45.9606 57.5541 45.4131 58.3534 45.4131C59.1527 45.4131 59.9521 45.9446 60.4316 49.5615C61.1204 49.0348 61.9426 48.7109 62.8056 48.6263C63.005 48.6176 63.2039 48.652 63.3887 48.7272C63.5736 48.8024 63.74 48.9166 63.8767 49.062C64.2244 49.4376 64.4882 50.157 63.7848 51.4239C63.284 52.2658 62.6573 53.0259 61.9264 53.678C61.5598 54.0151 61.1713 54.3276 60.7634 54.6132C60.7634 54.7771 60.7634 54.9449 60.7634 55.1088C60.7814 57.2496 60.6236 59.3883 60.2918 61.5033C59.984 63.1459 59.5524 64.8045 58.3534 64.8045ZM62.398 50.4168C61.6311 50.7535 60.9281 51.22 60.3197 51.7956L59.0608 52.9346L58.9089 51.2401C58.8306 50.0731 58.6447 48.9158 58.3534 47.7831C58.0603 48.9156 57.873 50.0729 57.7939 51.2401L57.646 52.9346L56.3551 51.7956C55.7488 51.2203 55.0469 50.7551 54.2809 50.4208C54.6917 51.176 55.2329 51.8526 55.8795 52.4191C56.2884 52.7945 56.7297 53.1329 57.1984 53.4302L57.5981 53.686C57.5981 53.686 57.5981 54.7811 57.5981 55.0968C57.5981 58.7616 57.9738 61.2435 58.3175 62.4385C58.6572 61.2395 59.0328 58.7616 59.0328 55.0968C59.0328 54.7811 59.0328 53.686 59.0328 53.686L59.4325 53.4302C59.9031 53.1339 60.3459 52.7954 60.7554 52.4191C61.411 51.8534 61.9605 51.1754 62.378 50.4168H62.398Z" fill="white"/>
<path d="M58.2815 87.4331C57.5965 87.3735 56.953 87.0799 56.459 86.6018C55.2376 85.5754 54.2439 84.3054 53.5415 82.873C52.0388 79.9955 51.4193 76.5344 53.1419 75.4833C53.4671 75.2902 53.8387 75.1894 54.2169 75.1916C55.7117 75.1916 57.2104 76.6104 58.3414 78.2609C59.4724 76.6104 60.9712 75.1916 62.4619 75.1916C62.8413 75.1898 63.2141 75.2906 63.5409 75.4833C65.2555 76.5344 64.636 79.9955 63.1413 82.873C62.4376 84.3046 61.4441 85.5744 60.2238 86.6018C59.7193 87.0953 59.0539 87.3905 58.3494 87.4331H58.2815ZM58.3334 85.8664C58.4752 85.8241 58.6099 85.7607 58.7331 85.6786L58.769 85.6106L58.9169 85.4987C59.9823 84.6049 60.8471 83.4964 61.4547 82.2455C63.0534 79.1841 62.8855 76.998 62.4539 76.7422C61.9663 76.7422 60.4996 77.7774 59.1647 80.2712L58.3534 81.8219L57.5221 80.2712C56.1833 77.7774 54.7245 76.7422 54.2249 76.7422C53.8013 76.998 53.6334 79.1841 55.2321 82.2455C55.8397 83.4964 56.7045 84.6049 57.7699 85.4987L57.9178 85.6106L57.9537 85.6786C58.0693 85.7551 58.1925 85.8194 58.3214 85.8704L58.3334 85.8664Z" fill="white"/>
<path d="M57.1544 77.4456C57.1544 78.6246 57.682 79.5838 58.3334 79.5838C58.9848 79.5838 59.5324 78.6246 59.5324 77.4456V65.0563C59.5324 63.8573 59.0048 62.9181 58.3334 62.9181C57.662 62.9181 57.1544 63.8733 57.1544 65.0563V77.4456Z" fill="white"/>
<path d="M72.5892 98.4237C74.5875 98.2438 75.4268 106.848 75.5147 107.832C75.6026 108.815 76.314 117.423 74.2957 117.607C72.2775 117.791 71.4582 109.182 71.3703 108.199C71.2823 107.216 70.5789 98.5995 72.5892 98.4237ZM74.0999 115.425C74.3437 114.814 74.6554 112.268 74.2718 107.944C73.8881 103.619 73.1287 101.149 72.785 100.602C72.5412 101.217 72.2295 103.759 72.6132 108.087C72.9969 112.416 73.7562 114.866 74.0999 115.425Z" fill="white"/>
<path d="M72.5653 98.4676C71.714 96.6332 79.5273 92.9363 80.4225 92.5207C81.3178 92.105 89.179 88.5241 90.0143 90.3505C90.8496 92.177 83.0683 95.8818 82.173 96.3174C81.2778 96.7531 73.4165 100.314 72.5653 98.4676ZM88.048 91.2737C87.3886 91.2737 84.8867 91.8253 80.9461 93.6717C77.0055 95.5181 74.9512 97.0488 74.5516 97.5644C75.215 97.5644 77.7128 97.0128 81.6535 95.1664C85.5941 93.32 87.6363 91.7893 88.048 91.2737Z" fill="white"/>
<path d="M79.4153 102.8C81.5415 102.612 82.0171 107.264 82.0651 107.796C82.113 108.327 82.4647 112.991 80.3346 113.179C78.2044 113.367 77.7288 108.715 77.6848 108.183C77.6409 107.652 77.2852 102.988 79.4153 102.8ZM80.2147 111.992C80.4944 111.644 80.942 110.246 80.7342 107.904C80.5264 105.562 79.839 104.263 79.5033 103.971C79.2195 104.315 78.7719 105.717 78.9797 108.059C79.1875 110.401 79.8909 111.708 80.2306 112L80.2147 111.992Z" fill="white"/>
<path d="M79.7671 102.188C78.8678 100.246 83.0802 98.2238 83.5638 97.996C84.0474 97.7682 88.3157 95.8578 89.215 97.7962C90.1142 99.7345 85.9018 101.761 85.4182 101.985C84.9346 102.208 80.6663 104.127 79.7671 102.188ZM88.1599 98.2957C87.7362 98.1439 86.2695 98.2038 84.1353 99.1949C82.0012 100.186 81.014 101.269 80.8541 101.689C81.2778 101.837 82.7445 101.781 84.8787 100.79C87.0128 99.7984 87.984 98.7154 88.1439 98.3157L88.1599 98.2957Z" fill="white"/>
<path d="M80.3346 102.928C80.9341 101.889 82.6006 102.328 84.1553 102.892C86.1566 103.664 88.0908 104.6 89.9383 105.689L90.366 105.937C90.8176 105.728 91.2822 105.548 91.7568 105.398C92.6866 105.089 93.6587 104.928 94.6383 104.918C96.0891 104.942 96.5767 105.53 96.7325 106.017C96.7896 106.209 96.8048 106.41 96.7773 106.608C96.7497 106.806 96.6799 106.996 96.5727 107.164C96.0694 107.874 95.377 108.428 94.5744 108.763C97.4639 110.989 97.5119 111.96 97.1282 112.635C96.7445 113.311 95.8733 113.75 92.4961 112.364C92.6061 113.223 92.4761 114.096 92.1205 114.885C92.0268 115.062 91.8968 115.217 91.7391 115.339C91.5813 115.462 91.3994 115.55 91.2053 115.597C90.7057 115.709 89.9543 115.597 89.207 114.334C88.7285 113.479 88.3835 112.556 88.1838 111.596C88.0744 111.111 87.9983 110.618 87.956 110.122L87.5284 109.866C85.6622 108.815 83.8857 107.612 82.217 106.269C80.958 105.19 79.7431 103.963 80.3346 102.928ZM94.8182 106.617C93.9513 106.599 93.0882 106.734 92.2683 107.016C91.7363 107.182 91.2201 107.395 90.7257 107.652L90.302 107.879C90.302 107.879 89.3628 107.316 89.1031 107.16C85.9298 105.326 83.5958 104.41 82.3848 104.111C83.2521 105.006 85.2104 106.569 88.3797 108.399C88.6515 108.559 89.6106 109.09 89.6106 109.09V109.57C89.6344 110.126 89.7079 110.678 89.8304 111.221C89.9969 112.069 90.3122 112.88 90.7616 113.619C90.8559 112.787 90.8045 111.946 90.6098 111.133L90.2541 109.47L91.7928 110.186C92.8437 110.704 93.9409 111.123 95.0699 111.436C94.2334 110.617 93.3237 109.876 92.3523 109.222L90.9615 108.247L92.5601 107.724C93.3737 107.488 94.1404 107.114 94.8262 106.617H94.8182Z" fill="white"/>
<path d="M60.7194 91.6574L60.7474 91.6134C61.1384 91.0294 61.7252 90.6042 62.4019 90.4145C63.9028 89.8695 65.5008 89.6435 67.0939 89.751C70.3351 89.8869 73.6403 91.0819 73.6923 93.0962C73.6977 93.4737 73.5995 93.8455 73.4085 94.1712C72.6611 95.4661 70.6828 96.0536 68.6925 96.2055C69.5518 98.0119 70.0314 100.018 69.284 101.309C69.0978 101.645 68.8208 101.922 68.4847 102.108C66.7182 103.072 64.0325 100.802 62.294 98.0639C61.402 96.7389 60.7988 95.241 60.5235 93.6677C60.3526 92.9952 60.4219 92.2842 60.7194 91.6574ZM62.1022 92.3968C62.07 92.5409 62.0578 92.6889 62.0662 92.8364L62.1062 92.9003L62.1302 93.0882C62.37 94.4579 62.8971 95.7614 63.6768 96.9129C65.5273 99.8264 67.5056 100.77 67.9412 100.534C68.189 100.106 68.0251 98.3197 66.5344 95.9177L65.6072 94.419L67.3657 94.475C70.1913 94.5629 71.8219 93.8115 72.0657 93.3879C72.0657 92.8883 70.2472 91.6534 66.8022 91.5055C65.4146 91.4054 64.0215 91.5988 62.7137 92.073L62.5418 92.149H62.4659C62.3424 92.2117 62.2247 92.2852 62.1142 92.3688L62.1022 92.3968Z" fill="white"/>
<path d="M68.8085 97.6283C67.7813 97.0368 67.2098 96.1016 67.5416 95.5381C67.8733 94.9746 68.9643 94.9985 69.9875 95.586L80.7343 101.785C81.7574 102.376 82.3329 103.315 82.0012 103.875C81.6695 104.434 80.5824 104.418 79.5553 103.827L68.8085 97.6283Z" fill="white"/>
<path d="M44.1016 81.9737C44.9529 83.8081 37.1356 87.501 36.2444 87.9166C35.3531 88.3323 27.4879 91.9132 26.6326 90.0868C25.7774 88.2603 33.5986 84.5595 34.4899 84.1439C35.3811 83.7282 43.2504 80.1393 44.1016 81.9737ZM28.6189 89.1676C29.2783 89.1676 31.7802 88.616 35.7168 86.7696C39.6535 84.9232 41.7117 83.3965 42.1113 82.8809C41.4519 82.8809 38.9541 83.4285 35.0134 85.2789C31.0728 87.1293 29.0306 88.652 28.6189 89.1676Z" fill="white"/>
<path d="M44.0737 82.0178C42.0754 82.1976 41.2361 73.593 41.1522 72.6098C41.0683 71.6267 40.3529 63.018 42.3711 62.8342C44.3894 62.6504 45.2087 71.259 45.2966 72.2421C45.3846 73.2253 46.088 81.8379 44.0737 82.0178ZM42.563 65.0123C42.3232 65.6278 42.0115 68.1696 42.3951 72.4979C42.7788 76.8262 43.5341 79.2921 43.8818 79.8396C44.1216 79.2242 44.4374 76.6823 44.0497 72.354C43.662 68.0257 42.9107 65.5758 42.563 65.0123Z" fill="white"/>
<path d="M36.8998 78.2529C37.799 80.1913 33.5827 82.2175 33.0991 82.4453C32.6155 82.6731 28.3511 84.5835 27.4479 82.6451C26.5447 80.7068 30.7651 78.6805 31.2487 78.4567C31.7322 78.2329 36.0006 76.3346 36.8998 78.2529ZM28.507 82.1456C28.9306 82.2934 30.3974 82.2375 32.5276 81.2463C34.6577 80.2552 35.6529 79.1681 35.8087 78.7525C35.4091 78.6046 33.9184 78.6606 31.7882 79.6517C29.658 80.6429 28.6828 81.7299 28.523 82.1456H28.507Z" fill="white"/>
<path d="M37.2515 77.6415C35.1253 77.8293 34.6497 73.1773 34.6017 72.6458C34.5538 72.1142 34.2021 67.4502 36.3322 67.2624C38.4624 67.0745 38.934 71.7265 38.982 72.2581C39.0299 72.7896 39.3816 77.4536 37.2515 77.6415ZM36.4521 68.4494C36.1684 68.7931 35.7248 70.1959 35.9286 72.5379C36.1324 74.8798 36.8238 76.1787 37.1635 76.4705C37.4473 76.1268 37.8909 74.724 37.6831 72.382C37.4753 70.04 36.7719 68.7411 36.4362 68.4414L36.4521 68.4494Z" fill="white"/>
<path d="M36.3243 77.5335C35.7248 78.5686 34.0543 78.133 32.4996 77.5694C30.4998 76.797 28.5669 75.8613 26.7206 74.7718L26.2929 74.5241C25.8409 74.7357 25.3749 74.916 24.8981 75.0636C23.9697 75.3722 22.9989 75.534 22.0206 75.5432C20.5658 75.5232 20.0782 74.9357 19.9264 74.4441C19.8696 74.2526 19.8545 74.0511 19.882 73.8533C19.9096 73.6554 19.9792 73.4658 20.0862 73.2971C20.5898 72.5879 21.2821 72.0341 22.0845 71.6985C19.195 69.4684 19.151 68.5012 19.5307 67.8258C19.9104 67.1504 20.7896 66.7107 24.1627 68.0976C24.0575 67.2361 24.196 66.3624 24.5624 65.5757C24.6544 65.3987 24.7834 65.2436 24.9406 65.1209C25.0978 64.9981 25.2796 64.9106 25.4736 64.8643C25.9772 64.7524 26.7285 64.8643 27.4719 66.1272C27.9535 66.9799 28.3 67.9021 28.499 68.8609C28.6085 69.3481 28.6846 69.8421 28.7268 70.3396C28.8707 70.4156 29.0146 70.4995 29.1585 70.5834C31.024 71.6336 32.7992 72.8367 34.4659 74.1803C35.7089 75.2474 36.9238 76.4744 36.3243 77.5335ZM25.8893 66.8147C25.7952 67.6471 25.8466 68.4896 26.0411 69.3045L26.3968 70.9631L24.8542 70.2477C23.8054 69.7317 22.711 69.3142 21.585 69.0008C22.4209 69.8196 23.3306 70.5594 24.3026 71.2109L25.6934 72.1901L24.0948 72.7136C23.2933 72.9517 22.5389 73.3262 21.8647 73.8207C22.7305 73.8426 23.5931 73.7071 24.4105 73.421C24.9425 73.2588 25.4578 73.046 25.9492 72.7855L26.3729 72.5617C26.3729 72.5617 27.316 73.1253 27.5718 73.2811C30.7451 75.1155 33.0791 76.0308 34.2861 76.3305C33.4228 75.4353 31.4605 73.8686 28.2912 72.0382L27.0643 71.3508V70.8672C27.042 70.3116 26.9697 69.7592 26.8484 69.2166C26.6708 68.3663 26.3462 67.5534 25.8893 66.8147Z" fill="white"/>
<path d="M55.8955 88.8718C55.5009 89.4354 54.9233 89.8449 54.2609 90.0308C52.7587 90.5813 51.1569 90.8074 49.5609 90.6942C46.3197 90.5583 43.0146 89.3674 42.9626 87.3531C42.9553 86.9753 43.0536 86.603 43.2464 86.278C43.9937 84.9831 45.968 84.3956 47.9623 84.2398C47.0991 82.4373 46.6235 80.431 47.3708 79.1361C47.5562 78.7994 47.8334 78.5222 48.1701 78.3368C49.9406 77.3736 52.6263 79.6397 54.3648 82.3774C55.2558 83.7029 55.859 85.2005 56.1353 86.7736C56.3104 87.4569 56.2338 88.1804 55.9195 88.8118L55.8955 88.8558V88.8718ZM54.5607 88.0405C54.5973 87.897 54.6095 87.7484 54.5966 87.6009L54.5567 87.5409V87.3531C54.3151 85.9831 53.7867 84.6797 53.006 83.5284C51.1556 80.6149 49.1813 79.6677 48.7416 79.9115C48.4979 80.3351 48.6617 82.1216 50.1524 84.5235L51.0796 86.0222L49.3211 85.9663C46.4916 85.8744 44.861 86.6297 44.6172 87.0573C44.6172 87.5529 46.4356 88.7919 49.8847 88.9357C51.2669 89.0336 52.6543 88.8402 53.9572 88.3682L54.129 88.2923H54.205C54.3301 88.2325 54.4481 88.1588 54.5567 88.0725L54.5607 88.0405Z" fill="white"/>
<path d="M46.6794 84.8513C47.7025 85.4428 48.7976 85.4668 49.1213 84.9032C49.4451 84.3397 48.8815 83.4005 47.8584 82.813L37.1236 76.6143C36.0965 76.0189 35.0014 75.9989 34.6777 76.5624C34.354 77.1259 34.9175 78.0611 35.9446 78.6526L46.6794 84.8513Z" fill="white"/>
<path d="M72.5652 81.9737C73.4165 80.1393 81.2818 83.7322 82.157 84.1438C83.0323 84.5555 90.8655 88.2563 90.0143 90.0867C89.163 91.9172 81.2977 88.3322 80.4225 87.9166C79.5472 87.501 71.714 83.8081 72.5652 81.9737ZM88.048 89.1675C87.6483 88.652 85.5901 87.1093 81.6534 85.2789C77.7168 83.4484 75.215 82.8809 74.5515 82.8809C74.9512 83.3965 77.0094 84.9392 80.946 86.7696C84.8827 88.6 87.3885 89.1875 88.048 89.1675Z" fill="white"/>
<path d="M72.5892 82.0178C70.5909 81.8379 71.2823 73.2253 71.3702 72.2421C71.4582 71.259 72.2815 62.6504 74.2957 62.8342C76.31 63.018 75.6026 71.6267 75.5147 72.6098C75.4268 73.593 74.6035 82.1976 72.5892 82.0178ZM74.0999 65.0123C73.7562 65.5758 73.0008 68.0257 72.6132 72.354C72.2255 76.6823 72.5452 79.2242 72.785 79.8396C73.1287 79.2761 73.8881 76.8262 74.2718 72.4979C74.6554 68.1696 74.3397 65.6278 74.0999 65.0123Z" fill="white"/>
<path d="M79.7671 78.2529C80.6663 76.3146 84.9346 78.2289 85.4182 78.4567C85.9018 78.6845 90.1182 80.7068 89.215 82.6451C88.3117 84.5835 84.0474 82.6691 83.5638 82.4453C83.0802 82.2215 78.8678 80.1912 79.7671 78.2529ZM88.1599 82.1456C88 81.7459 87.0088 80.6428 84.8787 79.6517C82.7485 78.6605 81.2818 78.6046 80.8581 78.7525C81.014 79.1521 82.0051 80.2552 84.1353 81.2463C86.2655 82.2375 87.7202 82.2934 88.1439 82.1456H88.1599Z" fill="white"/>
<path d="M79.4154 77.6414C77.2852 77.4536 77.6369 72.7896 77.6849 72.2581C77.7328 71.7265 78.2044 67.0625 80.3346 67.2623C82.4648 67.4622 82.1091 72.1142 82.0651 72.6457C82.0211 73.1773 81.5336 77.8293 79.4154 77.6414ZM80.2147 68.4493C79.875 68.7411 79.1916 70.048 78.9837 72.3819C78.7759 74.7159 79.2195 76.1267 79.5033 76.4704C79.839 76.1787 80.5264 74.8718 80.7342 72.5378C80.9421 70.2038 80.5104 68.785 80.2307 68.4413L80.2147 68.4493Z" fill="white"/>
<path d="M80.3346 77.5336C79.7351 76.4945 80.9501 75.2676 82.213 74.2045C83.8818 72.8618 85.6583 71.6588 87.5244 70.6076C87.6683 70.5236 87.8122 70.4397 87.9561 70.3638C87.9983 69.8662 88.0744 69.3722 88.1839 68.885C88.3835 67.927 88.7285 67.0051 89.207 66.1514C89.9544 64.9044 90.7057 64.7765 91.2053 64.8885C91.4001 64.934 91.5828 65.0211 91.7408 65.1439C91.8988 65.2667 92.0283 65.4223 92.1205 65.5998C92.4765 66.3895 92.6065 67.2625 92.4962 68.1217C95.8733 66.7349 96.7485 67.1865 97.1282 67.8499C97.5079 68.5133 97.4639 69.4925 94.5744 71.7226C95.3771 72.0578 96.0694 72.6117 96.5727 73.3212C96.6797 73.4899 96.7493 73.6796 96.7769 73.8774C96.8045 74.0753 96.7893 74.2767 96.7325 74.4682C96.5767 74.9598 96.0891 75.5473 94.6383 75.5673C93.6588 75.5578 92.6866 75.396 91.7568 75.0877C91.2816 74.9394 90.8169 74.7592 90.366 74.5482L89.9384 74.796C88.0907 75.8855 86.1565 76.8212 84.1553 77.5936C82.6087 78.1131 80.9421 78.5487 80.3346 77.5336ZM90.7697 66.8348C90.3195 67.5725 90.0042 68.3845 89.8385 69.2327C89.714 69.7749 89.6404 70.3275 89.6186 70.8833V71.3669C89.6186 71.3669 88.6595 71.8984 88.3877 72.0543C85.2144 73.8847 83.2561 75.4514 82.3928 76.3466C83.5918 76.0429 85.9378 75.1477 89.1111 73.2972C89.3828 73.1414 90.3101 72.5779 90.3101 72.5779L90.7337 72.8017C91.2255 73.0614 91.7406 73.2742 92.2724 73.4371C93.0913 73.723 93.9551 73.8584 94.8222 73.8368C94.148 73.3423 93.3936 72.9678 92.5921 72.7297L90.9935 72.2062L92.3843 71.227C93.3563 70.5756 94.266 69.8357 95.1019 69.0169C93.9734 69.3306 92.8764 69.748 91.8248 70.2638L90.2861 70.9792L90.6418 69.3207C90.8328 68.4997 90.8788 67.6516 90.7777 66.8148L90.7697 66.8348Z" fill="white"/>
<path d="M60.7713 88.8718L60.7474 88.8278C60.433 88.1964 60.3564 87.4729 60.5315 86.7896C60.8078 85.2165 61.411 83.7189 62.302 82.3934C64.0405 79.6557 66.7262 77.3896 68.4927 78.3528C68.8305 78.5368 69.1081 78.8143 69.292 79.1521C70.0394 80.447 69.5598 82.4533 68.6965 84.2558C70.6948 84.4116 72.6691 84.9991 73.4165 86.294C73.6081 86.6195 73.7063 86.9915 73.7002 87.3691C73.6483 89.3674 70.3431 90.5663 67.1019 90.7142C65.5084 90.8226 63.91 90.5952 62.4099 90.0468C61.744 89.857 61.1647 89.4416 60.7713 88.8718ZM62.1022 88.0405C62.2081 88.1446 62.3311 88.2298 62.4659 88.2923H62.5418L62.7137 88.3682C64.0215 88.8425 65.4146 89.0358 66.8022 88.9357C70.2472 88.7919 72.0577 87.5529 72.0697 87.0574C71.8219 86.6297 70.1913 85.8584 67.3657 85.9663L65.6032 86.0222L66.5344 84.5235C68.0251 82.1256 68.189 80.3351 67.9452 79.9115C67.5056 79.6677 65.5472 80.6149 63.6768 83.5284C62.8971 84.6798 62.37 85.9833 62.1302 87.3531L62.1062 87.5369L62.0662 87.6009C62.0552 87.7339 62.0552 87.8676 62.0662 88.0005L62.1022 88.0405Z" fill="white"/>
<path d="M69.9874 84.8513C68.9643 85.4428 67.8692 85.4668 67.5415 84.9032C67.2138 84.3397 67.7813 83.4005 68.8084 82.809L79.5352 76.6143C80.5624 76.0189 81.6534 75.9989 81.9811 76.5624C82.3089 77.1259 81.7373 78.0611 80.7142 78.6526L69.9874 84.8513Z" fill="white"/>
<path d="M44.0737 98.4237C46.0719 98.5995 45.3805 107.216 45.2966 108.199C45.2127 109.182 44.3854 117.791 42.3711 117.607C40.3568 117.423 41.0642 108.815 41.1522 107.832C41.2401 106.848 42.0634 98.2438 44.0737 98.4237ZM42.563 115.425C42.9107 114.866 43.666 112.416 44.0537 108.087C44.4413 103.759 44.1216 101.217 43.8818 100.602C43.5341 101.161 42.7788 103.611 42.3951 107.944C42.0114 112.276 42.3232 114.814 42.563 115.425Z" fill="white"/>
<path d="M44.1016 98.4677C43.2503 100.302 35.3851 96.7132 34.5098 96.2936C33.6346 95.8739 25.7973 92.1851 26.6526 90.3507C27.5078 88.5162 35.3651 92.1052 36.2444 92.5208C37.1236 92.9365 44.9529 96.6333 44.1016 98.4677ZM28.6189 91.2739C29.0185 91.7894 31.0768 93.3321 35.0134 95.1625C38.95 96.993 41.4519 97.5605 42.1113 97.5605C41.7117 97.0449 39.6574 95.5023 35.7168 93.6718C31.7762 91.8414 29.2783 91.2539 28.6189 91.2739Z" fill="white"/>
<path d="M37.2515 102.8C39.3817 102.988 39.03 107.652 38.982 108.183C38.9341 108.715 38.4585 113.379 36.3323 113.179C34.2061 112.979 34.5538 108.307 34.6018 107.796C34.6497 107.284 35.1253 102.612 37.2515 102.8ZM36.4522 111.992C36.7879 111.704 37.4753 110.393 37.6831 108.063C37.891 105.733 37.4473 104.319 37.1636 103.975C36.8239 104.267 36.1405 105.573 35.9326 107.907C35.7248 110.241 36.1525 111.652 36.4362 111.996L36.4522 111.992Z" fill="white"/>
<path d="M36.8998 102.188C36.0006 104.127 31.7322 102.212 31.2486 101.985C30.765 101.757 26.5487 99.7346 27.4479 97.7963C28.3471 95.8579 32.6194 97.7723 33.099 97.9961C33.5786 98.2199 37.799 100.246 36.8998 102.188ZM28.507 98.2958C28.6668 98.6955 29.658 99.7985 31.7882 100.79C33.9183 101.781 35.3851 101.837 35.8087 101.689C35.6528 101.269 34.6617 100.182 32.5315 99.1951C30.4013 98.2079 28.9466 98.144 28.523 98.3158L28.507 98.2958Z" fill="white"/>
<path d="M36.3243 102.928C36.9238 103.963 35.7088 105.19 34.4419 106.253C32.7753 107.597 31 108.8 29.1345 109.85L28.7028 110.094C28.6606 110.59 28.5845 111.083 28.475 111.568C28.2759 112.529 27.9295 113.452 27.4479 114.306C26.7046 115.549 25.9532 115.681 25.4496 115.569C25.2563 115.521 25.0753 115.433 24.9183 115.31C24.7613 115.188 24.6319 115.034 24.5384 114.858C24.1724 114.071 24.0339 113.197 24.1388 112.336C20.7656 113.723 19.8904 113.271 19.5067 112.608C19.1231 111.944 19.171 110.961 22.0605 108.735C21.2582 108.399 20.566 107.845 20.0622 107.136C19.955 106.968 19.8852 106.778 19.8576 106.58C19.8301 106.382 19.8453 106.181 19.9024 105.989C20.0543 105.502 20.5418 104.914 21.9966 104.89C22.9762 104.9 23.9483 105.061 24.8781 105.37C25.3532 105.52 25.8178 105.702 26.2689 105.913L26.6966 105.662C28.5428 104.572 30.4757 103.636 32.4756 102.864C34.0543 102.312 35.7248 101.889 36.3243 102.928ZM21.8407 106.617C22.516 107.113 23.2718 107.489 24.0748 107.728L25.6734 108.251L24.2826 109.226C23.3104 109.879 22.4006 110.62 21.565 111.441C22.6929 111.127 23.7888 110.708 24.8382 110.19L26.3808 109.474L26.0251 111.137C25.8304 111.95 25.779 112.792 25.8733 113.623C26.3228 112.885 26.638 112.073 26.8045 111.225C26.9258 110.682 26.998 110.13 27.0203 109.574V109.095C27.0203 109.095 27.9755 108.563 28.2472 108.403C31.4205 106.573 33.3828 105.01 34.2421 104.115C33.0431 104.415 30.7011 105.314 27.5278 107.164C27.2561 107.32 26.3289 107.884 26.3289 107.884L25.9012 107.656C25.4149 107.397 24.9067 107.182 24.3825 107.012C23.565 106.732 22.7046 106.599 21.8407 106.617Z" fill="white"/>
<path d="M55.9555 91.6574C56.2475 92.2817 56.3139 92.9879 56.1433 93.6557C55.8663 95.2286 55.2632 96.7261 54.3728 98.0519C52.6343 100.79 49.9486 103.06 48.1781 102.096C47.8427 101.909 47.5659 101.633 47.3788 101.297C46.6315 100.006 47.107 98 47.9703 96.1975C45.972 96.0417 44.0017 95.4542 43.2543 94.1593C43.0628 93.8323 42.9646 93.4591 42.9706 93.0802C43.0225 91.0819 46.3277 89.8829 49.5689 89.7391C51.1607 89.6313 52.7575 89.8573 54.2569 90.4025C54.9353 90.5911 55.5237 91.0164 55.9155 91.6015L55.9555 91.6574ZM54.5687 92.3968C54.462 92.2935 54.3391 92.2085 54.205 92.145H54.133L53.9612 92.0691C52.6494 91.6005 51.2535 91.4139 49.8647 91.5215C46.4156 91.6694 44.6092 92.9043 44.5972 93.4039C44.845 93.8276 46.4716 94.5789 49.3012 94.491L51.0597 94.435L50.1325 95.9178C48.6417 98.3157 48.4779 100.106 48.7217 100.534C49.1613 100.77 51.1196 99.8264 52.986 96.9129C53.7667 95.7616 54.2952 94.4581 54.5367 93.0882L54.5607 92.9003L54.5966 92.8364C54.6112 92.7036 54.6112 92.5696 54.5966 92.4367L54.5687 92.3968Z" fill="white"/>
<path d="M47.8584 97.6283C48.8815 97.0368 49.4571 96.1016 49.1213 95.5381C48.7856 94.9746 47.7026 94.9985 46.6794 95.586L35.9446 101.785C34.9175 102.376 34.346 103.315 34.6777 103.875C35.0094 104.434 36.0965 104.418 37.1236 103.827L47.8584 97.6283Z" fill="white"/>
<path d="M21.3092 36.209C20.5978 36.9244 19.7105 37.1842 19.3109 36.7845C18.9112 36.3849 19.167 35.4856 19.8784 34.7862L40.5087 14.068C41.2241 13.3526 42.1073 13.0968 42.507 13.4965C42.9067 13.8961 42.6509 14.7954 41.9395 15.4948L21.3092 36.209Z" fill="white"/>
<path d="M31.9321 39.7579C31.9321 40.765 31.4924 41.5843 30.9289 41.5843C30.3654 41.5843 29.8898 40.785 29.8858 39.7579V10.5229C29.8858 9.5118 30.3214 8.6925 30.8889 8.6925C31.4565 8.6925 31.9281 9.49182 31.9321 10.5189V39.7579Z" fill="white"/>
<path d="M41.9674 34.7381C42.6828 35.4535 42.9386 36.3368 42.543 36.7364C42.1473 37.1361 41.2441 36.8843 40.5447 36.1689L19.8384 15.5386C19.123 14.8272 18.8672 13.94 19.2629 13.5403C19.6586 13.1407 20.5658 13.3964 21.2812 14.1078L41.9674 34.7381Z" fill="white"/>
<path d="M45.5284 24.1193C46.5355 24.1193 47.3548 24.5549 47.3548 25.1184C47.3548 25.6819 46.5555 26.1575 45.5284 26.1615H16.2934C15.2823 26.1615 14.463 25.7259 14.463 25.1624C14.463 24.5989 15.2623 24.1193 16.2894 24.1193H45.5284Z" fill="white"/>
<path d="M114.657 101.437C113.826 101.837 112.971 101.785 112.747 101.321C112.523 100.858 113.015 100.154 113.85 99.7545L137.957 88.1645C138.792 87.7648 139.648 87.8168 139.872 88.2844C140.095 88.752 139.6 89.4514 138.768 89.851L114.657 101.437Z" fill="white"/>
<path d="M122.766 107.732C122.458 108.603 121.815 109.17 121.327 108.999C120.84 108.827 120.696 107.983 121 107.112L129.852 81.8698C130.156 80.9946 130.799 80.4271 131.287 80.5989C131.774 80.7708 131.922 81.614 131.615 82.4893L122.766 107.732Z" fill="white"/>
<path d="M132.945 106.449C133.345 107.28 133.293 108.135 132.826 108.363C132.358 108.591 131.663 108.091 131.263 107.26L119.673 83.1487C119.273 82.3174 119.321 81.4622 119.789 81.2384C120.256 81.0145 120.952 81.5061 121.355 82.3414L132.945 106.449Z" fill="white"/>
<path d="M139.24 98.3438C140.111 98.6515 140.679 99.291 140.507 99.7785C140.335 100.266 139.492 100.414 138.621 100.106L113.378 91.2579C112.507 90.9501 111.939 90.3107 112.107 89.8231C112.275 89.3355 113.122 89.1876 113.994 89.4914L139.24 98.3438Z" fill="white"/>
<rect x="5.5" y="1.5" width="137" height="137" stroke="#D8E1E5" stroke-width="3"/>
</g>
<defs>
<filter id="filter0_d" x="0" y="0" width="148" height="148" filterUnits="userSpaceOnUse" color-interpolation-filters="sRGB">
<feFlood flood-opacity="0" result="BackgroundImageFix"/>
<feColorMatrix in="SourceAlpha" type="matrix" values="0 0 0 0 0 0 0 0 0 0 0 0 0 0 0 0 0 0 127 0"/>
<feOffset dy="4"/>
<feGaussianBlur stdDeviation="2"/>
<feColorMatrix type="matrix" values="0 0 0 0 0 0 0 0 0 0 0 0 0 0 0 0 0 0 0.25 0"/>
<feBlend mode="normal" in2="BackgroundImageFix" result="effect1_dropShadow"/>
<feBlend mode="normal" in="SourceGraphic" in2="effect1_dropShadow" result="shape"/>
</filter>
</defs>
</svg>
