<svg width="148" height="148" viewBox="0 0 148 148" fill="none" xmlns="http://www.w3.org/2000/svg">
<g filter="url(#filter0_d)">
<path d="M144 0H4V140H144V0Z" fill="white"/>
<path d="M90.8096 127.771C88.1485 128.783 85.4117 129.585 82.6246 130.168C66.974 133.518 49.6369 124.333 39.6295 113.503C25.5655 98.2518 32.5276 66.8987 48.8216 55.5524C60.8833 47.1596 80.6463 44.2381 94.3546 51.2521C109.338 58.9215 118.534 69.7643 118.734 85.9024C118.973 105.046 108.922 120.821 90.8096 127.771Z" fill="#BAD9E4"/>
<path d="M43.9338 62.3985C53.3217 64.5087 62.4619 65.9155 72.0936 66.1313C81.8148 66.3845 91.5348 65.5872 101.085 63.7534C103.778 63.2218 106.472 62.5544 109.138 61.859C107.475 60.12 105.676 58.5162 103.758 57.0631C93.839 59.8287 83.2641 60.4722 73.0168 60.4722C68.0931 60.4722 63.0893 60.3803 58.2055 59.6729C54.2289 59.1054 50.2883 58.2861 46.3597 57.4428C44.7953 58.8182 43.3586 60.3324 42.0674 61.9669L43.9338 62.3985Z" fill="white"/>
<path d="M110.629 92.3208C105.329 93.9954 100.022 95.3302 94.4585 95.6539C88.4636 96.0096 82.4128 95.4781 76.4099 95.1943C70.7748 94.9306 65.1556 95.0944 59.5364 94.467C53.4896 93.7915 47.4907 92.3568 41.6237 90.7741C38.4704 89.9269 35.3052 89.0756 32.1958 88.0645C32.0583 89.8315 32.0262 91.6051 32.0999 93.3759C35.9686 94.7507 40.0091 95.8458 43.9098 96.9728C49.6324 98.5921 55.4794 99.7337 61.3908 100.386C67.6295 101.089 73.98 100.945 80.2506 101.325C86.2215 101.685 92.2084 101.953 98.1753 101.325C103.862 100.73 109.398 99.059 114.813 97.2805C115.816 96.9528 116.811 96.6051 117.802 96.2454C118.247 94.017 118.532 91.76 118.658 89.4912C116.008 90.5024 113.342 91.4735 110.629 92.3208Z" fill="white"/>
<path d="M79.5712 118.442C88.7634 118.786 98.1593 118.878 107.184 117.02C109.45 114.636 111.417 111.985 113.043 109.126C102.611 112.839 91.509 112.723 80.5504 112.503C69.5918 112.284 58.5692 111.792 47.7785 109.862C43.5581 109.106 39.3857 108.111 35.2652 106.948C36.3806 109.341 37.852 111.551 39.6295 113.503L39.7614 113.638C41.6278 114.142 43.5022 114.618 45.3885 115.049C56.563 117.595 68.157 118.015 79.5712 118.442Z" fill="white"/>
<path d="M114.881 71.159C110.844 73.4371 106.212 74.9598 101.772 76.2187C92.3203 78.8964 81.6735 77.8173 71.9818 77.2538C67.2458 76.982 62.4899 76.8102 57.7899 76.1388C52.8502 75.4314 47.9583 74.3643 43.0506 73.473C40.7126 73.0494 38.3666 72.6737 36.0166 72.346C35.3931 73.8247 34.8389 75.3381 34.354 76.8861C35.553 77.1379 36.7519 77.3737 37.9509 77.6215C43.1824 78.7126 48.342 80.0474 53.6015 81.0625C58.7331 82.0497 63.8927 82.5173 69.1002 82.913C79.3714 83.6923 90.4779 84.6595 100.633 82.5812C105.689 81.5501 110.513 79.5878 115.241 77.5815C116.008 77.2578 116.755 76.8861 117.491 76.4945C116.97 74.5583 116.274 72.6735 115.413 70.8633L114.881 71.159Z" fill="white"/>
<path d="M84.1513 45.1333C84.0034 43.7785 83.9235 41.7403 83.0562 40.6292C82.7807 40.2865 82.4322 40.0096 82.036 39.8187C81.6398 39.6279 81.206 39.5279 80.7662 39.5262H80.6783C80.5344 39.4662 80.3945 39.4063 80.2467 39.3503C79.9323 39.2471 79.6082 39.1761 79.2795 39.1385C80.1907 37.0323 80.7222 34.4785 80.3945 32.5042C80.1148 30.8256 79.3514 28.3517 77.2492 28.4397C75.0032 28.5316 74.6594 31.3332 74.6874 32.9918C74.7283 35.1561 75.3509 37.2696 76.4899 39.1105C76.1981 39.1105 75.9104 39.1105 75.6426 39.1105C74.5236 39.0506 73.5484 39.1785 72.889 40.0297C70.9706 41.1528 71.4422 43.5507 71.5741 45.9486C71.666 47.5473 70.8028 51.8076 72.2016 53.0026C72.256 53.0505 72.3255 53.0779 72.3979 53.0801C72.4704 53.0823 72.5414 53.0592 72.5987 53.0147C72.6559 52.9702 72.6959 52.9071 72.7117 52.8364C72.7275 52.7656 72.7181 52.6915 72.6851 52.6269C72.1576 51.6877 72.6851 49.5216 72.6851 48.4585C72.6851 48.0988 72.6851 47.7351 72.6851 47.3754C73.7322 48.4025 76.1821 48.2227 77.2372 46.9238C78.0069 47.6087 78.9029 48.1368 79.875 48.4785C81.0739 49.01 82.2729 49.2019 82.9883 48.4065C83.2045 48.2267 83.3468 47.9734 83.388 47.6951C83.3962 47.6827 83.4029 47.6693 83.4079 47.6552C83.7014 49.1817 83.903 50.7245 84.0114 52.2752C84.0554 53.0186 85.2104 53.0226 85.1744 52.2752C85.0625 49.8573 84.4111 47.5233 84.1513 45.1333ZM76.362 36.205C75.8984 34.4705 75.4947 32.1844 76.2221 30.4739C77.0694 28.4756 78.62 30.4739 78.9678 31.4611C79.2332 32.2317 79.3551 33.0444 79.3274 33.859C79.2955 35.5576 78.688 37.352 78.1285 39.0785H77.6129C77.2532 38.1114 76.6338 37.2321 76.362 36.205Z" fill="#BAD9E4"/>
<path d="M105.241 19.1596C103.906 21.4137 100.014 21.3817 97.7196 21.8413C95.5655 22.273 93.5672 23.0003 92.1764 24.7668C92.1005 24.8588 92.0325 24.9587 91.9646 25.0586C90.419 25.0639 88.8793 25.249 87.3765 25.6101C85.9264 25.9511 84.5068 26.411 83.1321 26.9849C85.7099 24.3352 87.3565 20.5025 88.3677 17.1494C89.3428 13.9201 90.6737 3.60097 84.475 4.71202C82.4487 5.07171 80.4385 7.37374 79.4273 9.01633C78.9946 9.7167 78.6049 10.4428 78.2603 11.1905C77.6129 9.83962 76.8176 8.56072 76.0422 7.19389C75.5258 6.20092 74.7234 5.38565 73.7388 4.85345C72.7542 4.32125 71.6326 4.09657 70.519 4.20845C66.6463 4.52418 66.4824 10.1593 66.5943 12.941C66.7262 16.2022 68.0411 19.4914 69.4798 22.3609C70.3671 24.1394 71.642 26.5373 73.3206 28.084C71.1704 27.6524 69.0122 27.2847 66.946 26.2615C63.5335 24.5609 60.8672 21.6627 59.4564 18.1205C59.5089 18.0473 59.533 17.9574 59.5242 17.8677C59.5153 17.778 59.4742 17.6946 59.4085 17.6329C59.3186 17.5155 59.2058 17.4175 59.0768 17.3452C58.9703 17.2588 58.8386 17.2094 58.7015 17.2044C58.5645 17.1995 58.4295 17.2393 58.3171 17.3179C58.2047 17.3964 58.1209 17.5094 58.0785 17.6398C58.036 17.7702 58.0371 17.9109 58.0816 18.0406C60.4076 25.5102 68.2609 29.4948 75.6945 29.5747C75.9729 29.7138 76.2401 29.8741 76.4938 30.0543C76.5434 30.0846 76.599 30.1038 76.6567 30.1105C76.7144 30.1171 76.7729 30.1111 76.8281 30.0928C76.8833 30.0746 76.9338 30.0445 76.9762 30.0047C77.0185 29.9649 77.0517 29.9164 77.0733 29.8625C77.2218 29.9232 77.3806 29.9544 77.5409 29.9544C77.6853 30.0365 77.8563 30.0581 78.0165 30.0143C79.2791 29.7084 80.4671 29.1511 81.5095 28.3757C84.5375 26.9912 87.7831 26.1433 91.1013 25.8699C91.2492 25.8699 91.3931 25.8699 91.5369 25.8699C90.266 28.8473 91.7168 33.1437 95.3777 32.8639C99.3463 32.5681 97.6077 26.5453 94.8341 25.5342C94.2189 25.3231 93.5799 25.1888 92.9318 25.1345C95.5535 21.6255 103.643 23.6918 106.088 19.5833C106.4 19.0397 105.549 18.6441 105.241 19.1596ZM69.9794 20.2787C68.3568 16.7337 67.5215 12.7331 68.1929 8.86446C68.5087 7.02204 69.4838 5.4354 71.5541 5.53531C74.0559 5.65921 75.107 8.22501 76.2181 10.0434C76.7597 10.9439 77.2109 11.8957 77.5649 12.885C76.9255 14.5556 76.4179 16.2741 75.8944 17.9727C75.0231 20.8182 74.5115 23.8956 75.1989 26.8251C75.3221 27.3391 75.4989 27.8387 75.7265 28.3158C74.9434 27.6627 74.2001 26.9634 73.5004 26.2216C71.9977 24.523 70.9106 22.3169 69.9794 20.2787ZM76.5858 26.857C75.9343 24.623 76.282 22.273 76.7576 20.0429C77.1209 18.2986 77.5907 16.5782 78.1644 14.8913C78.7596 17.6373 79.0372 20.4427 78.9917 23.2521C78.9821 24.2606 78.8939 25.2668 78.7279 26.2615C78.672 26.6332 78.616 27.0049 78.5521 27.3766C77.3331 27.9521 76.6777 27.7762 76.5858 26.857ZM80.3985 27.6564C80.1929 27.8117 79.9719 27.9456 79.7391 28.056C80.0868 27.1128 80.1387 25.9858 80.2306 24.9427C80.5664 21.5776 80.0068 18.1245 79.4593 14.8194C79.3469 14.1506 79.1771 13.4927 78.9517 12.853C79.6738 11.1078 80.6694 9.48887 81.9012 8.05715C82.8164 7.03003 84.9346 5.35547 86.4413 6.41456C87.6403 7.25783 87.8281 9.36003 87.8681 10.6429C87.8969 13.6434 87.3064 16.6175 86.1336 19.3794C85.3078 21.3909 84.2003 23.2748 82.8444 24.9747C82.1404 25.9652 81.3191 26.867 80.3985 27.6603V27.6564ZM96.7205 29.1031C97.0882 30.7537 96.3808 32.1805 94.3585 31.9007C92.668 31.6849 92.2683 30.1262 92.1404 28.7434C92.0085 27.7624 92.1338 26.7639 92.5041 25.8459C94.5624 25.9778 96.193 26.7531 96.7205 29.1031Z" fill="#303030"/>
<path d="M90.7256 68.5652C91.1528 68.4288 91.6098 68.4149 92.0445 68.5252C92.4881 68.6345 92.8992 68.8482 93.2435 69.1487C93.6067 69.4638 93.8913 69.8592 94.0747 70.3037C94.2762 70.7977 94.3071 71.3448 94.1627 71.8584C93.1703 75.589 91.9177 79.2455 90.4139 82.801C88.9032 86.3766 87.3605 89.9389 85.7858 93.4878C84.2112 97.0368 82.7431 100.618 81.3816 104.231C79.998 107.848 78.9609 111.588 78.2843 115.401C78.1413 116.044 77.8167 116.632 77.3491 117.096C77.1196 117.326 76.8401 117.5 76.5324 117.605C76.2246 117.709 75.8969 117.742 75.5746 117.699L69.9794 117.156C69.5851 117.14 69.2019 117.021 68.868 116.81C68.5342 116.6 68.2614 116.305 68.077 115.957C67.8327 115.711 67.6445 115.416 67.5251 115.091C67.4057 114.766 67.3582 114.419 67.3856 114.074C67.6641 106.321 69.3684 98.6853 72.4133 91.5495C75.4578 84.4466 79.7408 77.9415 85.0625 72.3379L65.819 72.0462C65.0196 71.8384 64.5307 71.4387 64.3522 70.8472C64.161 70.2788 64.1723 69.6617 64.3842 69.1007C64.6182 68.4971 65.0381 67.9834 65.5832 67.634C65.8813 67.4382 66.2197 67.3121 66.5733 67.265C66.9268 67.218 67.2865 67.2512 67.6254 67.3622L90.6097 68.6171L90.7256 68.5652ZM73.6562 112.468C74.3534 109.406 75.2397 106.391 76.31 103.439C77.3757 100.49 78.5334 97.559 79.783 94.6468C81.0326 91.7347 82.2982 88.8291 83.5797 85.9303C84.8693 83.0261 86.0376 80.0953 87.0847 77.1378C82.7962 81.9961 79.343 87.5318 76.8655 93.5198C74.3779 99.5221 72.8667 105.884 72.3893 112.364L73.6562 112.468Z" fill="#303030"/>
<rect x="5.5" y="1.5" width="137" height="137" stroke="#D8E1E5" stroke-width="3"/>
</g>
<defs>
<filter id="filter0_d" x="0" y="0" width="148" height="148" filterUnits="userSpaceOnUse" color-interpolation-filters="sRGB">
<feFlood flood-opacity="0" result="BackgroundImageFix"/>
<feColorMatrix in="SourceAlpha" type="matrix" values="0 0 0 0 0 0 0 0 0 0 0 0 0 0 0 0 0 0 127 0"/>
<feOffset dy="4"/>
<feGaussianBlur stdDeviation="2"/>
<feColorMatrix type="matrix" values="0 0 0 0 0 0 0 0 0 0 0 0 0 0 0 0 0 0 0.25 0"/>
<feBlend mode="normal" in2="BackgroundImageFix" result="effect1_dropShadow"/>
<feBlend mode="normal" in="SourceGraphic" in2="effect1_dropShadow" result="shape"/>
</filter>
</defs>
</svg>
